<?xml version="1.0" encoding="UTF-8" standalone="no"?>
<!DOCTYPE svg PUBLIC "-//W3C//DTD SVG 1.1//EN"
 "http://www.w3.org/Graphics/SVG/1.1/DTD/svg11.dtd">
<!-- Generated by graphviz version 2.43.0 (0)
 -->
<!-- Title: examples/test/test.c Pages: 1 -->
<svg width="157pt" height="243pt"
 viewBox="0.00 0.00 157.20 243.20" xmlns="http://www.w3.org/2000/svg" xmlns:xlink="http://www.w3.org/1999/xlink">
<g id="graph0" class="graph" transform="scale(1 1) rotate(0) translate(21.6 221.6)">
<title>examples/test/test.c</title>
<polygon fill="white" stroke="transparent" points="-21.6,21.6 -21.6,-221.6 135.6,-221.6 135.6,21.6 -21.6,21.6"/>
<g id="clust1" class="cluster">
<title>cluster_func_1</title>
<path fill="#e3e3e3" stroke="#000000" stroke-width="2" d="M20,-8C20,-8 94,-8 94,-8 100,-8 106,-14 106,-20 106,-20 106,-180 106,-180 106,-186 100,-192 94,-192 94,-192 20,-192 20,-192 14,-192 8,-186 8,-180 8,-180 8,-20 8,-20 8,-14 14,-8 20,-8"/>
<text text-anchor="middle" x="57" y="-172" font-family="SF Pro Text Bold 10" font-size="20.00">main</text>
</g>
<g id="clust2" class="cluster">
<title>cluster_func_1_bb_1</title>
<path fill="#a4a4a4" stroke="#000000" stroke-width="2" d="M28,-16C28,-16 86,-16 86,-16 92,-16 98,-22 98,-28 98,-28 98,-142 98,-142 98,-148 92,-154 86,-154 86,-154 28,-154 28,-154 22,-154 16,-148 16,-142 16,-142 16,-28 16,-28 16,-22 22,-16 28,-16"/>
</g>
<!-- n0x6213ceca6030 -->
<g id="node1" class="node">
<title>n0x6213ceca6030</title>
<path fill="#6d95df" stroke="#000000" d="M72,-60C72,-60 42,-60 42,-60 36,-60 30,-54 30,-48 30,-48 30,-36 30,-36 30,-30 36,-24 42,-24 42,-24 72,-24 72,-24 78,-24 84,-30 84,-36 84,-36 84,-48 84,-48 84,-54 78,-60 72,-60"/>
<text text-anchor="middle" x="57" y="-38.5" font-family="SF Pro Text Bold 10" font-size="15.00" fill="#000000">ret</text>
</g>
<!-- u0x6213ceca6010 -->
<g id="node2" class="node">
<title>u0x6213ceca6010</title>
<path fill="#db4040" stroke="#000000" d="M77.5,-146C77.5,-146 36.5,-146 36.5,-146 30.5,-146 24.5,-140 24.5,-134 24.5,-134 24.5,-122 24.5,-122 24.5,-116 30.5,-110 36.5,-110 36.5,-110 77.5,-110 77.5,-110 83.5,-110 89.5,-116 89.5,-122 89.5,-122 89.5,-134 89.5,-134 89.5,-140 83.5,-146 77.5,-146"/>
<text text-anchor="middle" x="57" y="-124.5" font-family="SF Pro Text Bold 10" font-size="15.00" fill="#000000">i32 42</text>
</g>
<!-- u0x6213ceca6010&#45;&gt;n0x6213ceca6030 -->
<g id="edge1" class="edge">
<title>u0x6213ceca6010&#45;&gt;n0x6213ceca6030</title>
<path fill="none" stroke="#00b3ff" stroke-width="2" d="M57,-109.6C57,-98.26 57,-83.23 57,-70.32"/>
<polygon fill="#00b3ff" stroke="#00b3ff" stroke-width="2" points="60.5,-70.1 57,-60.1 53.5,-70.1 60.5,-70.1"/>
</g>
</g>
</svg>
