<?xml version="1.0" encoding="UTF-8" standalone="no"?>
<!DOCTYPE svg PUBLIC "-//W3C//DTD SVG 1.1//EN"
 "http://www.w3.org/Graphics/SVG/1.1/DTD/svg11.dtd">
<!-- Generated by graphviz version 2.43.0 (0)
 -->
<!-- Title: examples/test/test.c Pages: 1 -->
<svg width="157pt" height="312pt"
 viewBox="0.00 0.00 157.20 312.20" xmlns="http://www.w3.org/2000/svg" xmlns:xlink="http://www.w3.org/1999/xlink">
<g id="graph0" class="graph" transform="scale(1 1) rotate(0) translate(21.6 290.6)">
<title>examples/test/test.c</title>
<polygon fill="white" stroke="transparent" points="-21.6,21.6 -21.6,-290.6 135.6,-290.6 135.6,21.6 -21.6,21.6"/>
<g id="clust1" class="cluster">
<title>cluster_func_1</title>
<path fill="#e3e3e3" stroke="#000000" stroke-width="2" d="M20,-8C20,-8 94,-8 94,-8 100,-8 106,-14 106,-20 106,-20 106,-249 106,-249 106,-255 100,-261 94,-261 94,-261 20,-261 20,-261 14,-261 8,-255 8,-249 8,-249 8,-20 8,-20 8,-14 14,-8 20,-8"/>
<text text-anchor="middle" x="57" y="-241" font-family="SF Pro Text Bold 10" font-size="20.00">main</text>
</g>
<g id="clust2" class="cluster">
<title>cluster_func_1_bb_1</title>
<path fill="#a4a4a4" stroke="#000000" stroke-width="2" d="M28,-16C28,-16 86,-16 86,-16 92,-16 98,-22 98,-28 98,-28 98,-211 98,-211 98,-217 92,-223 86,-223 86,-223 28,-223 28,-223 22,-223 16,-217 16,-211 16,-211 16,-28 16,-28 16,-22 22,-16 28,-16"/>
<text text-anchor="middle" x="57" y="-207" font-family="SF Pro Text Bold 10" font-size="15.00">label %0</text>
</g>
<!-- n0x5ec6ffd1ce50 -->
<g id="node1" class="node">
<title>n0x5ec6ffd1ce50</title>
<path fill="#6d95df" stroke="#000000" d="M72,-60C72,-60 42,-60 42,-60 36,-60 30,-54 30,-48 30,-48 30,-36 30,-36 30,-30 36,-24 42,-24 42,-24 72,-24 72,-24 78,-24 84,-30 84,-36 84,-36 84,-48 84,-48 84,-54 78,-60 72,-60"/>
<text text-anchor="middle" x="57" y="-38.5" font-family="SF Pro Text Bold 10" font-size="15.00" fill="#000000">ret</text>
</g>
<!-- u0x5ec6ffd1ce30 -->
<g id="node2" class="node">
<title>u0x5ec6ffd1ce30</title>
<path fill="#d66868" stroke="#000000" d="M77.5,-190C77.5,-190 36.5,-190 36.5,-190 30.5,-190 24.5,-184 24.5,-178 24.5,-178 24.5,-166 24.5,-166 24.5,-160 30.5,-154 36.5,-154 36.5,-154 77.5,-154 77.5,-154 83.5,-154 89.5,-160 89.5,-166 89.5,-166 89.5,-178 89.5,-178 89.5,-184 83.5,-190 77.5,-190"/>
<text text-anchor="middle" x="57" y="-168.5" font-family="SF Pro Text Bold 10" font-size="15.00" fill="#000000">i32 42</text>
</g>
<!-- u0x5ec6ffd1ce30&#45;&gt;n0x5ec6ffd1ce50 -->
<g id="edge1" class="edge">
<title>u0x5ec6ffd1ce30&#45;&gt;n0x5ec6ffd1ce50</title>
<path fill="none" stroke="#00b3ff" stroke-width="2" d="M57,-153.74C57,-132.36 57,-95.69 57,-70.44"/>
<polygon fill="#00b3ff" stroke="#00b3ff" stroke-width="2" points="60.5,-70.4 57,-60.4 53.5,-70.4 60.5,-70.4"/>
</g>
</g>
</svg>
