<?xml version="1.0" encoding="UTF-8" standalone="no"?>
<!DOCTYPE svg PUBLIC "-//W3C//DTD SVG 1.1//EN"
 "http://www.w3.org/Graphics/SVG/1.1/DTD/svg11.dtd">
<!-- Generated by graphviz version 2.43.0 (0)
 -->
<!-- Title: examples/test/test.c Pages: 1 -->
<svg width="261pt" height="434pt"
 viewBox="0.00 0.00 261.20 434.20" xmlns="http://www.w3.org/2000/svg" xmlns:xlink="http://www.w3.org/1999/xlink">
<g id="graph0" class="graph" transform="scale(1 1) rotate(0) translate(21.6 412.6)">
<title>examples/test/test.c</title>
<polygon fill="white" stroke="transparent" points="-21.6,21.6 -21.6,-412.6 239.6,-412.6 239.6,21.6 -21.6,21.6"/>
<g id="clust1" class="cluster">
<title>cluster_func_1</title>
<path fill="#e3e3e3" stroke="#000000" stroke-width="2" d="M20,-8C20,-8 198,-8 198,-8 204,-8 210,-14 210,-20 210,-20 210,-371 210,-371 210,-377 204,-383 198,-383 198,-383 20,-383 20,-383 14,-383 8,-377 8,-371 8,-371 8,-20 8,-20 8,-14 14,-8 20,-8"/>
<text text-anchor="middle" x="109" y="-363" font-family="SF Pro Text Bold 10" font-size="20.00">main</text>
</g>
<g id="clust2" class="cluster">
<title>cluster_func_1_bb_1</title>
<path fill="#a4a4a4" stroke="#000000" stroke-width="2" d="M28,-16C28,-16 190,-16 190,-16 196,-16 202,-22 202,-28 202,-28 202,-333 202,-333 202,-339 196,-345 190,-345 190,-345 28,-345 28,-345 22,-345 16,-339 16,-333 16,-333 16,-28 16,-28 16,-22 22,-16 28,-16"/>
</g>
<!-- n0x6213ceca50b0 -->
<g id="node1" class="node">
<title>n0x6213ceca50b0</title>
<path fill="#6d95df" stroke="#000000" d="M161,-250C161,-250 123,-250 123,-250 117,-250 111,-244 111,-238 111,-238 111,-226 111,-226 111,-220 117,-214 123,-214 123,-214 161,-214 161,-214 167,-214 173,-220 173,-226 173,-226 173,-238 173,-238 173,-244 167,-250 161,-250"/>
<text text-anchor="middle" x="142" y="-228.5" font-family="SF Pro Text Bold 10" font-size="15.00" fill="#000000">alloca</text>
</g>
<!-- n0x6213cec4a930 -->
<g id="node2" class="node">
<title>n0x6213cec4a930</title>
<path fill="#6d95df" stroke="#000000" d="M157.5,-147C157.5,-147 126.5,-147 126.5,-147 120.5,-147 114.5,-141 114.5,-135 114.5,-135 114.5,-123 114.5,-123 114.5,-117 120.5,-111 126.5,-111 126.5,-111 157.5,-111 157.5,-111 163.5,-111 169.5,-117 169.5,-123 169.5,-123 169.5,-135 169.5,-135 169.5,-141 163.5,-147 157.5,-147"/>
<text text-anchor="middle" x="142" y="-125.5" font-family="SF Pro Text Bold 10" font-size="15.00" fill="#000000">store</text>
</g>
<!-- n0x6213ceca50b0&#45;&gt;n0x6213cec4a930 -->
<g id="edge1" class="edge">
<title>n0x6213ceca50b0&#45;&gt;n0x6213cec4a930</title>
<path fill="none" stroke="#ff8800" stroke-width="5" d="M142,-213.87C142,-198.41 142,-175.42 142,-157.41"/>
<polygon fill="#ff8800" stroke="#ff8800" stroke-width="5" points="146.38,-157.22 142,-147.22 137.63,-157.22 146.38,-157.22"/>
</g>
<!-- n0x6213ceca50b0&#45;&gt;n0x6213cec4a930 -->
<g id="edge3" class="edge">
<title>n0x6213ceca50b0&#45;&gt;n0x6213cec4a930</title>
<path fill="none" stroke="#00b3ff" stroke-width="2" d="M143,-213.84C143.4,-206.23 143.81,-197.17 144,-189 144.25,-178.62 143.99,-167.21 143.58,-157.21"/>
<polygon fill="#00b3ff" stroke="#00b3ff" stroke-width="2" points="147.07,-156.86 143.1,-147.04 140.07,-157.19 147.07,-156.86"/>
<text text-anchor="middle" x="154.5" y="-177" font-family="SF Pro Text Bold 10" font-size="15.00">%1</text>
</g>
<!-- n0x6213ceca6030 -->
<g id="node3" class="node">
<title>n0x6213ceca6030</title>
<path fill="#6d95df" stroke="#000000" d="M157,-60C157,-60 127,-60 127,-60 121,-60 115,-54 115,-48 115,-48 115,-36 115,-36 115,-30 121,-24 127,-24 127,-24 157,-24 157,-24 163,-24 169,-30 169,-36 169,-36 169,-48 169,-48 169,-54 163,-60 157,-60"/>
<text text-anchor="middle" x="142" y="-38.5" font-family="SF Pro Text Bold 10" font-size="15.00" fill="#000000">ret</text>
</g>
<!-- n0x6213cec4a930&#45;&gt;n0x6213ceca6030 -->
<g id="edge2" class="edge">
<title>n0x6213cec4a930&#45;&gt;n0x6213ceca6030</title>
<path fill="none" stroke="#ff8800" stroke-width="5" d="M142,-110.8C142,-99.16 142,-83.55 142,-70.24"/>
<polygon fill="#ff8800" stroke="#ff8800" stroke-width="5" points="146.38,-70.18 142,-60.18 137.63,-70.18 146.38,-70.18"/>
</g>
<!-- u0x6213ceca5090 -->
<g id="node4" class="node">
<title>u0x6213ceca5090</title>
<path fill="#db4040" stroke="#000000" d="M157,-337C157,-337 127,-337 127,-337 121,-337 115,-331 115,-325 115,-325 115,-313 115,-313 115,-307 121,-301 127,-301 127,-301 157,-301 157,-301 163,-301 169,-307 169,-313 169,-313 169,-325 169,-325 169,-331 163,-337 157,-337"/>
<text text-anchor="middle" x="142" y="-315.5" font-family="SF Pro Text Bold 10" font-size="15.00" fill="#000000">i32 1</text>
</g>
<!-- u0x6213ceca5090&#45;&gt;n0x6213ceca50b0 -->
<g id="edge4" class="edge">
<title>u0x6213ceca5090&#45;&gt;n0x6213ceca50b0</title>
<path fill="none" stroke="#00b3ff" stroke-width="2" d="M142,-300.8C142,-289.16 142,-273.55 142,-260.24"/>
<polygon fill="#00b3ff" stroke="#00b3ff" stroke-width="2" points="145.5,-260.18 142,-250.18 138.5,-260.18 145.5,-260.18"/>
</g>
<!-- u0x6213cec4a8f0 -->
<g id="node5" class="node">
<title>u0x6213cec4a8f0</title>
<path fill="#db4040" stroke="#000000" d="M73.5,-250C73.5,-250 42.5,-250 42.5,-250 36.5,-250 30.5,-244 30.5,-238 30.5,-238 30.5,-226 30.5,-226 30.5,-220 36.5,-214 42.5,-214 42.5,-214 73.5,-214 73.5,-214 79.5,-214 85.5,-220 85.5,-226 85.5,-226 85.5,-238 85.5,-238 85.5,-244 79.5,-250 73.5,-250"/>
<text text-anchor="middle" x="58" y="-228.5" font-family="SF Pro Text Bold 10" font-size="15.00" fill="#000000">i32 0</text>
</g>
<!-- u0x6213cec4a8f0&#45;&gt;n0x6213cec4a930 -->
<g id="edge5" class="edge">
<title>u0x6213cec4a8f0&#45;&gt;n0x6213cec4a930</title>
<path fill="none" stroke="#00b3ff" stroke-width="2" d="M72.25,-213.87C85.64,-197.76 105.86,-173.46 121.08,-155.15"/>
<polygon fill="#00b3ff" stroke="#00b3ff" stroke-width="2" points="123.98,-157.14 127.68,-147.22 118.6,-152.67 123.98,-157.14"/>
</g>
<!-- u0x6213ceca6010 -->
<g id="node6" class="node">
<title>u0x6213ceca6010</title>
<path fill="#db4040" stroke="#000000" d="M77.5,-147C77.5,-147 36.5,-147 36.5,-147 30.5,-147 24.5,-141 24.5,-135 24.5,-135 24.5,-123 24.5,-123 24.5,-117 30.5,-111 36.5,-111 36.5,-111 77.5,-111 77.5,-111 83.5,-111 89.5,-117 89.5,-123 89.5,-123 89.5,-135 89.5,-135 89.5,-141 83.5,-147 77.5,-147"/>
<text text-anchor="middle" x="57" y="-125.5" font-family="SF Pro Text Bold 10" font-size="15.00" fill="#000000">i32 42</text>
</g>
<!-- u0x6213ceca6010&#45;&gt;n0x6213ceca6030 -->
<g id="edge6" class="edge">
<title>u0x6213ceca6010&#45;&gt;n0x6213ceca6030</title>
<path fill="none" stroke="#00b3ff" stroke-width="2" d="M74.2,-110.8C86.64,-98.36 103.64,-81.36 117.5,-67.5"/>
<polygon fill="#00b3ff" stroke="#00b3ff" stroke-width="2" points="120.23,-69.72 124.82,-60.18 115.28,-64.77 120.23,-69.72"/>
</g>
</g>
</svg>
