<?xml version="1.0" encoding="UTF-8" standalone="no"?>
<!DOCTYPE svg PUBLIC "-//W3C//DTD SVG 1.1//EN"
 "http://www.w3.org/Graphics/SVG/1.1/DTD/svg11.dtd">
<!-- Generated by graphviz version 2.43.0 (0)
 -->
<!-- Title: examples/test/test.c Pages: 1 -->
<svg width="341pt" height="591pt"
 viewBox="0.00 0.00 341.20 591.20" xmlns="http://www.w3.org/2000/svg" xmlns:xlink="http://www.w3.org/1999/xlink">
<g id="graph0" class="graph" transform="scale(1 1) rotate(0) translate(21.6 569.6)">
<title>examples/test/test.c</title>
<polygon fill="white" stroke="transparent" points="-21.6,21.6 -21.6,-569.6 319.6,-569.6 319.6,21.6 -21.6,21.6"/>
<g id="clust1" class="cluster">
<title>cluster_func_1</title>
<path fill="#e3e3e3" stroke="#000000" stroke-width="2" d="M20,-8C20,-8 278,-8 278,-8 284,-8 290,-14 290,-20 290,-20 290,-528 290,-528 290,-534 284,-540 278,-540 278,-540 20,-540 20,-540 14,-540 8,-534 8,-528 8,-528 8,-20 8,-20 8,-14 14,-8 20,-8"/>
<text text-anchor="middle" x="149" y="-520" font-family="SF Pro Text Bold 10" font-size="20.00">main</text>
</g>
<g id="clust2" class="cluster">
<title>cluster_func_1_bb_1</title>
<path fill="#a4a4a4" stroke="#000000" stroke-width="2" d="M28,-16C28,-16 270,-16 270,-16 276,-16 282,-22 282,-28 282,-28 282,-490 282,-490 282,-496 276,-502 270,-502 270,-502 28,-502 28,-502 22,-502 16,-496 16,-490 16,-490 16,-28 16,-28 16,-22 22,-16 28,-16"/>
<text text-anchor="middle" x="149" y="-486" font-family="SF Pro Text Bold 10" font-size="15.00">label %0</text>
</g>
<!-- n0x5ec6ffd1bed0 -->
<g id="node1" class="node">
<title>n0x5ec6ffd1bed0</title>
<path fill="#6d95df" stroke="#000000" d="M201,-338C201,-338 163,-338 163,-338 157,-338 151,-332 151,-326 151,-326 151,-314 151,-314 151,-308 157,-302 163,-302 163,-302 201,-302 201,-302 207,-302 213,-308 213,-314 213,-314 213,-326 213,-326 213,-332 207,-338 201,-338"/>
<text text-anchor="middle" x="182" y="-316.5" font-family="SF Pro Text Bold 10" font-size="15.00" fill="#000000">alloca</text>
</g>
<!-- n0x5ec6ffcc1750 -->
<g id="node2" class="node">
<title>n0x5ec6ffcc1750</title>
<path fill="#6d95df" stroke="#000000" d="M197.5,-191C197.5,-191 166.5,-191 166.5,-191 160.5,-191 154.5,-185 154.5,-179 154.5,-179 154.5,-167 154.5,-167 154.5,-161 160.5,-155 166.5,-155 166.5,-155 197.5,-155 197.5,-155 203.5,-155 209.5,-161 209.5,-167 209.5,-167 209.5,-179 209.5,-179 209.5,-185 203.5,-191 197.5,-191"/>
<text text-anchor="middle" x="182" y="-169.5" font-family="SF Pro Text Bold 10" font-size="15.00" fill="#000000">store</text>
</g>
<!-- n0x5ec6ffd1bed0&#45;&gt;n0x5ec6ffcc1750 -->
<g id="edge1" class="edge">
<title>n0x5ec6ffd1bed0&#45;&gt;n0x5ec6ffcc1750</title>
<path fill="none" stroke="#ff3636" stroke-width="3" d="M182,-301.8C182,-276.94 182,-230.74 182,-201.23"/>
<polygon fill="#ff3636" stroke="#ff3636" stroke-width="3" points="185.5,-201.18 182,-191.18 178.5,-201.18 185.5,-201.18"/>
</g>
<!-- n0x5ec6ffd1bed0&#45;&gt;n0x5ec6ffcc1750 -->
<g id="edge3" class="edge">
<title>n0x5ec6ffd1bed0&#45;&gt;n0x5ec6ffcc1750</title>
<path fill="none" stroke="#00b3ff" stroke-width="2" d="M182.82,-301.94C183.51,-285.54 184.34,-260.08 184,-238 183.81,-225.95 183.42,-212.64 183.04,-201.29"/>
<polygon fill="#00b3ff" stroke="#00b3ff" stroke-width="2" points="186.53,-200.98 182.68,-191.11 179.54,-201.23 186.53,-200.98"/>
<text text-anchor="middle" x="194.5" y="-243" font-family="SF Pro Text Bold 10" font-size="15.00">%1</text>
</g>
<!-- n0x5ec6ffd1ce50 -->
<g id="node3" class="node">
<title>n0x5ec6ffd1ce50</title>
<path fill="#6d95df" stroke="#000000" d="M197,-60C197,-60 167,-60 167,-60 161,-60 155,-54 155,-48 155,-48 155,-36 155,-36 155,-30 161,-24 167,-24 167,-24 197,-24 197,-24 203,-24 209,-30 209,-36 209,-36 209,-48 209,-48 209,-54 203,-60 197,-60"/>
<text text-anchor="middle" x="182" y="-38.5" font-family="SF Pro Text Bold 10" font-size="15.00" fill="#000000">ret</text>
</g>
<!-- n0x5ec6ffcc1750&#45;&gt;n0x5ec6ffd1ce50 -->
<g id="edge2" class="edge">
<title>n0x5ec6ffcc1750&#45;&gt;n0x5ec6ffd1ce50</title>
<path fill="none" stroke="#ff3636" stroke-width="3" d="M182,-154.87C182,-133.28 182,-95.91 182,-70.35"/>
<polygon fill="#ff3636" stroke="#ff3636" stroke-width="3" points="185.5,-70.2 182,-60.2 178.5,-70.2 185.5,-70.2"/>
</g>
<!-- u0x5ec6ffd1beb0 -->
<g id="node4" class="node">
<title>u0x5ec6ffd1beb0</title>
<path fill="#d66868" stroke="#000000" d="M197,-469C197,-469 167,-469 167,-469 161,-469 155,-463 155,-457 155,-457 155,-445 155,-445 155,-439 161,-433 167,-433 167,-433 197,-433 197,-433 203,-433 209,-439 209,-445 209,-445 209,-457 209,-457 209,-463 203,-469 197,-469"/>
<text text-anchor="middle" x="182" y="-447.5" font-family="SF Pro Text Bold 10" font-size="15.00" fill="#000000">i32 1</text>
</g>
<!-- u0x5ec6ffd1beb0&#45;&gt;n0x5ec6ffd1bed0 -->
<g id="edge4" class="edge">
<title>u0x5ec6ffd1beb0&#45;&gt;n0x5ec6ffd1bed0</title>
<path fill="none" stroke="#00b3ff" stroke-width="2" d="M182,-432.87C182,-411.28 182,-373.91 182,-348.35"/>
<polygon fill="#00b3ff" stroke="#00b3ff" stroke-width="2" points="185.5,-348.2 182,-338.2 178.5,-348.2 185.5,-348.2"/>
</g>
<!-- u0x5ec6ffcc1710 -->
<g id="node5" class="node">
<title>u0x5ec6ffcc1710</title>
<path fill="#d66868" stroke="#000000" d="M73.5,-338C73.5,-338 42.5,-338 42.5,-338 36.5,-338 30.5,-332 30.5,-326 30.5,-326 30.5,-314 30.5,-314 30.5,-308 36.5,-302 42.5,-302 42.5,-302 73.5,-302 73.5,-302 79.5,-302 85.5,-308 85.5,-314 85.5,-314 85.5,-326 85.5,-326 85.5,-332 79.5,-338 73.5,-338"/>
<text text-anchor="middle" x="58" y="-316.5" font-family="SF Pro Text Bold 10" font-size="15.00" fill="#000000">i32 0</text>
</g>
<!-- u0x5ec6ffcc1710&#45;&gt;n0x5ec6ffcc1750 -->
<g id="edge5" class="edge">
<title>u0x5ec6ffcc1710&#45;&gt;n0x5ec6ffcc1750</title>
<path fill="none" stroke="#00b3ff" stroke-width="2" d="M72.71,-301.8C94.53,-276.29 135.57,-228.3 160.68,-198.93"/>
<polygon fill="#00b3ff" stroke="#00b3ff" stroke-width="2" points="163.47,-201.06 167.31,-191.18 158.15,-196.51 163.47,-201.06"/>
</g>
<!-- u0x5ec6ffd1ce30 -->
<g id="node6" class="node">
<title>u0x5ec6ffd1ce30</title>
<path fill="#d66868" stroke="#000000" d="M77.5,-191C77.5,-191 36.5,-191 36.5,-191 30.5,-191 24.5,-185 24.5,-179 24.5,-179 24.5,-167 24.5,-167 24.5,-161 30.5,-155 36.5,-155 36.5,-155 77.5,-155 77.5,-155 83.5,-155 89.5,-161 89.5,-167 89.5,-167 89.5,-179 89.5,-179 89.5,-185 83.5,-191 77.5,-191"/>
<text text-anchor="middle" x="57" y="-169.5" font-family="SF Pro Text Bold 10" font-size="15.00" fill="#000000">i32 42</text>
</g>
<!-- u0x5ec6ffd1ce30&#45;&gt;n0x5ec6ffd1ce50 -->
<g id="edge6" class="edge">
<title>u0x5ec6ffd1ce30&#45;&gt;n0x5ec6ffd1ce50</title>
<path fill="none" stroke="#00b3ff" stroke-width="2" d="M73.6,-154.87C95.27,-132.51 133.33,-93.22 158.1,-67.66"/>
<polygon fill="#00b3ff" stroke="#00b3ff" stroke-width="2" points="160.89,-69.82 165.33,-60.2 155.86,-64.95 160.89,-69.82"/>
</g>
</g>
</svg>
