<?xml version="1.0" encoding="UTF-8" standalone="no"?>
<!DOCTYPE svg PUBLIC "-//W3C//DTD SVG 1.1//EN"
 "http://www.w3.org/Graphics/SVG/1.1/DTD/svg11.dtd">
<!-- Generated by graphviz version 2.43.0 (0)
 -->
<!-- Title: examples/hello/hello.c Pages: 1 -->
<svg width="550pt" height="651pt"
 viewBox="0.00 0.00 550.20 650.83" xmlns="http://www.w3.org/2000/svg" xmlns:xlink="http://www.w3.org/1999/xlink">
<g id="graph0" class="graph" transform="scale(1 1) rotate(0) translate(21.6 629.23)">
<title>examples/hello/hello.c</title>
<polygon fill="white" stroke="transparent" points="-21.6,21.6 -21.6,-629.23 528.6,-629.23 528.6,21.6 -21.6,21.6"/>
<g id="clust1" class="cluster">
<title>cluster_2</title>
<path fill="none" stroke="#c0c0c0" d="M20,-8C20,-8 399,-8 399,-8 405,-8 411,-14 411,-20 411,-20 411,-587.63 411,-587.63 411,-593.63 405,-599.63 399,-599.63 399,-599.63 20,-599.63 20,-599.63 14,-599.63 8,-593.63 8,-587.63 8,-587.63 8,-20 8,-20 8,-14 14,-8 20,-8"/>
<text text-anchor="start" x="16" y="-586.23" font-family="SF Pro Text Bold 10" font-weight="bold" font-size="13.00">func</text>
</g>
<g id="clust2" class="cluster">
<title>cluster_2_1</title>
<path fill="none" stroke="#c0c0c0" d="M28,-16C28,-16 391,-16 391,-16 397,-16 403,-22 403,-28 403,-28 403,-557.63 403,-557.63 403,-563.63 397,-569.63 391,-569.63 391,-569.63 28,-569.63 28,-569.63 22,-569.63 16,-563.63 16,-557.63 16,-557.63 16,-28 16,-28 16,-22 22,-16 28,-16"/>
</g>
<g id="clust3" class="cluster">
<title>cluster_4</title>
<path fill="none" stroke="#c0c0c0" d="M431,-99.89C431,-99.89 483,-99.89 483,-99.89 489,-99.89 495,-105.89 495,-111.89 495,-111.89 495,-295.5 495,-295.5 495,-301.5 489,-307.5 483,-307.5 483,-307.5 431,-307.5 431,-307.5 425,-307.5 419,-301.5 419,-295.5 419,-295.5 419,-111.89 419,-111.89 419,-105.89 425,-99.89 431,-99.89"/>
<text text-anchor="start" x="427" y="-294.1" font-family="SF Pro Text Bold 10" font-weight="bold" font-size="13.00">main</text>
</g>
<g id="clust4" class="cluster">
<title>cluster_4_1</title>
<path fill="none" stroke="#c0c0c0" d="M439,-107.89C439,-107.89 475,-107.89 475,-107.89 481,-107.89 487,-113.89 487,-119.89 487,-119.89 487,-265.5 487,-265.5 487,-271.5 481,-277.5 475,-277.5 475,-277.5 439,-277.5 439,-277.5 433,-277.5 427,-271.5 427,-265.5 427,-265.5 427,-119.89 427,-119.89 427,-113.89 433,-107.89 439,-107.89"/>
</g>
<!-- n0x5e39407cd2e0 -->
<g id="node1" class="node">
<title>n0x5e39407cd2e0</title>
<ellipse fill="#e8eef9" stroke="#1f1d31" cx="149" cy="-394.19" rx="26.42" ry="26.42"/>
<text text-anchor="middle" x="149" y="-391.39" font-family="SF Pro Text Bold 10" font-size="11.00" fill="#000000">icmp</text>
</g>
<!-- n0x5e39408dc4a0 -->
<g id="node2" class="node">
<title>n0x5e39408dc4a0</title>
<ellipse fill="#e8eef9" stroke="#1f1d31" cx="176" cy="-247.85" rx="30.13" ry="30.13"/>
<text text-anchor="middle" x="176" y="-245.05" font-family="SF Pro Text Bold 10" font-size="11.00" fill="#000000">select</text>
</g>
<!-- n0x5e39407cd2e0&#45;&gt;n0x5e39408dc4a0 -->
<g id="edge1" class="edge">
<title>n0x5e39407cd2e0&#45;&gt;n0x5e39408dc4a0</title>
<path fill="none" stroke="#ff0000" d="M165.31,-373.27C174.53,-360.69 185.15,-343.63 190,-326.5 193.68,-313.5 192.44,-298.99 189.53,-286.06"/>
<polygon fill="#ff0000" stroke="#ff0000" points="192.84,-284.87 186.91,-276.09 186.07,-286.66 192.84,-284.87"/>
</g>
<!-- n0x5e39407cd2e0&#45;&gt;n0x5e39408dc4a0 -->
<g id="edge4" class="edge">
<title>n0x5e39407cd2e0&#45;&gt;n0x5e39408dc4a0</title>
<path fill="none" stroke="#0000ff" d="M135.28,-371.3C127.23,-355.67 119.77,-334.18 126,-315.5 130.59,-301.72 139.28,-288.5 148.13,-277.51"/>
<polygon fill="#0000ff" stroke="#0000ff" points="151.07,-279.46 154.87,-269.58 145.73,-274.93 151.07,-279.46"/>
<text text-anchor="middle" x="134" y="-318.5" font-family="SF Pro Text Bold 10" font-size="10.00">%2</text>
</g>
<!-- n0x5e39407cd2e0&#45;&gt;n0x5e39408dc4a0 -->
<g id="edge8" class="edge">
<title>n0x5e39407cd2e0&#45;&gt;n0x5e39408dc4a0</title>
<path fill="none" stroke="#00ff00" d="M153.7,-368.05C157.85,-345.9 163.95,-313.28 168.72,-287.77"/>
<polygon fill="#00ff00" stroke="#00ff00" points="172.21,-288.14 170.61,-277.67 165.33,-286.85 172.21,-288.14"/>
<text text-anchor="middle" x="172" y="-318.5" font-family="SF Pro Text Bold 10" font-size="10.00">%2</text>
</g>
<!-- n0x5e39408e74e0 -->
<g id="node3" class="node">
<title>n0x5e39408e74e0</title>
<ellipse fill="#e8eef9" stroke="#1f1d31" cx="205" cy="-135.13" rx="21.8" ry="21.8"/>
<text text-anchor="middle" x="205" y="-132.33" font-family="SF Pro Text Bold 10" font-size="11.00" fill="#000000">call</text>
</g>
<!-- n0x5e39408dc4a0&#45;&gt;n0x5e39408e74e0 -->
<g id="edge2" class="edge">
<title>n0x5e39408dc4a0&#45;&gt;n0x5e39408e74e0</title>
<path fill="none" stroke="#ff0000" d="M160.13,-221.97C154.32,-209.64 150.39,-194.68 156,-181.78 160.83,-170.68 169.84,-161.06 178.82,-153.55"/>
<polygon fill="#ff0000" stroke="#ff0000" points="181.18,-156.15 186.95,-147.26 176.9,-150.61 181.18,-156.15"/>
</g>
<!-- n0x5e39408dc4a0&#45;&gt;n0x5e39408e74e0 -->
<g id="edge7" class="edge">
<title>n0x5e39408dc4a0&#45;&gt;n0x5e39408e74e0</title>
<path fill="none" stroke="#0000ff" d="M175.73,-217.57C176.28,-206.21 177.71,-193.21 181,-181.78 182.85,-175.35 185.67,-168.77 188.74,-162.69"/>
<polygon fill="#0000ff" stroke="#0000ff" points="191.96,-164.09 193.65,-153.63 185.8,-160.76 191.96,-164.09"/>
<text text-anchor="middle" x="189" y="-184.78" font-family="SF Pro Text Bold 10" font-size="10.00">%3</text>
</g>
<!-- n0x5e39408dc4a0&#45;&gt;n0x5e39408e74e0 -->
<g id="edge11" class="edge">
<title>n0x5e39408dc4a0&#45;&gt;n0x5e39408e74e0</title>
<path fill="none" stroke="#00ff00" d="M189.08,-220.45C192.85,-211.82 196.59,-202.06 199,-192.78 201.13,-184.57 202.51,-175.5 203.4,-167.07"/>
<polygon fill="#00ff00" stroke="#00ff00" points="206.9,-167.11 204.28,-156.85 199.93,-166.51 206.9,-167.11"/>
<text text-anchor="middle" x="210" y="-184.78" font-family="SF Pro Text Bold 10" font-size="10.00">%3</text>
</g>
<!-- n0x5e39408d9e40 -->
<g id="node4" class="node">
<title>n0x5e39408d9e40</title>
<ellipse fill="#e8eef9" stroke="#1f1d31" cx="205" cy="-43.24" rx="19.49" ry="19.49"/>
<text text-anchor="middle" x="205" y="-40.44" font-family="SF Pro Text Bold 10" font-size="11.00" fill="#000000">ret</text>
</g>
<!-- n0x5e39408e74e0&#45;&gt;n0x5e39408d9e40 -->
<g id="edge3" class="edge">
<title>n0x5e39408e74e0&#45;&gt;n0x5e39408d9e40</title>
<path fill="none" stroke="#ff0000" d="M205,-113.29C205,-101.17 205,-85.74 205,-72.54"/>
<polygon fill="#ff0000" stroke="#ff0000" points="208.5,-72.54 205,-62.54 201.5,-72.54 208.5,-72.54"/>
</g>
<!-- n0x5e3940884b40 -->
<g id="node5" class="node">
<title>n0x5e3940884b40</title>
<ellipse fill="#00eef9" stroke="#1f1d31" cx="149" cy="-529.76" rx="31.74" ry="31.74"/>
<text text-anchor="middle" x="149" y="-526.96" font-family="SF Pro Text Bold 10" font-size="11.00" fill="#000000">i32 %0</text>
</g>
<!-- n0x5e3940884b40&#45;&gt;n0x5e39407cd2e0 -->
<g id="edge5" class="edge">
<title>n0x5e3940884b40&#45;&gt;n0x5e39407cd2e0</title>
<path fill="none" stroke="#00ff00" d="M149,-497.78C149,-477.87 149,-451.93 149,-431.12"/>
<polygon fill="#00ff00" stroke="#00ff00" points="152.5,-431.06 149,-421.06 145.5,-431.06 152.5,-431.06"/>
<text text-anchor="middle" x="157" y="-464.89" font-family="SF Pro Text Bold 10" font-size="10.00">%0</text>
</g>
<!-- n0x5e394088c1c0 -->
<g id="node6" class="node">
<title>n0x5e394088c1c0</title>
<ellipse fill="#00eef9" stroke="#1f1d31" cx="301" cy="-529.76" rx="26.42" ry="26.42"/>
<text text-anchor="middle" x="301" y="-526.96" font-family="SF Pro Text Bold 10" font-size="11.00" fill="#000000">i32 0</text>
</g>
<!-- n0x5e394088c1c0&#45;&gt;n0x5e39407cd2e0 -->
<g id="edge6" class="edge">
<title>n0x5e394088c1c0&#45;&gt;n0x5e39407cd2e0</title>
<path fill="none" stroke="#00ff00" d="M279.88,-512.97C256.63,-495.28 218.5,-465.35 188,-436.89 183.15,-432.36 178.17,-427.35 173.46,-422.42"/>
<polygon fill="#00ff00" stroke="#00ff00" points="175.73,-419.72 166.33,-414.82 170.62,-424.51 175.73,-419.72"/>
<text text-anchor="middle" x="237.5" y="-464.89" font-family="SF Pro Text Bold 10" font-size="10.00">%&#45;1</text>
</g>
<!-- n0x5e394090b1e0 -->
<g id="node11" class="node">
<title>n0x5e394090b1e0</title>
<ellipse fill="#e8eef9" stroke="#1f1d31" cx="459" cy="-135.13" rx="19.49" ry="19.49"/>
<text text-anchor="middle" x="459" y="-132.33" font-family="SF Pro Text Bold 10" font-size="11.00" fill="#000000">ret</text>
</g>
<!-- n0x5e394088c1c0&#45;&gt;n0x5e394090b1e0 -->
<g id="edge16" class="edge">
<title>n0x5e394088c1c0&#45;&gt;n0x5e394090b1e0</title>
<path fill="none" stroke="#00ff00" d="M322.48,-513.93C366.05,-482.24 463.01,-402.97 491,-307.5 502.22,-269.23 498.4,-256.96 491,-217.78 487.3,-198.21 479.02,-177.31 471.81,-161.56"/>
<polygon fill="#00ff00" stroke="#00ff00" points="474.96,-160.02 467.51,-152.48 468.63,-163.01 474.96,-160.02"/>
<text text-anchor="middle" x="497.5" y="-318.5" font-family="SF Pro Text Bold 10" font-size="10.00">%&#45;1</text>
</g>
<!-- n0x5e394090af80 -->
<g id="node7" class="node">
<title>n0x5e394090af80</title>
<ellipse fill="#00eef9" stroke="#1f1d31" cx="61" cy="-394.19" rx="36.86" ry="36.86"/>
<text text-anchor="middle" x="61" y="-391.39" font-family="SF Pro Text Bold 10" font-size="11.00" fill="#000000">ptr @str</text>
</g>
<!-- n0x5e394090af80&#45;&gt;n0x5e39408dc4a0 -->
<g id="edge9" class="edge">
<title>n0x5e394090af80&#45;&gt;n0x5e39408dc4a0</title>
<path fill="none" stroke="#00ff00" d="M73.81,-359.75C80.18,-345.36 88.74,-328.82 99,-315.5 111.56,-299.18 128.62,-283.92 143.49,-272.13"/>
<polygon fill="#00ff00" stroke="#00ff00" points="145.72,-274.84 151.49,-265.95 141.44,-269.3 145.72,-274.84"/>
<text text-anchor="middle" x="108.5" y="-318.5" font-family="SF Pro Text Bold 10" font-size="10.00">%&#45;1</text>
</g>
<!-- n0x5e394088bf50 -->
<g id="node8" class="node">
<title>n0x5e394088bf50</title>
<ellipse fill="#00eef9" stroke="#1f1d31" cx="243" cy="-394.19" rx="42.89" ry="42.89"/>
<text text-anchor="middle" x="243" y="-391.39" font-family="SF Pro Text Bold 10" font-size="11.00" fill="#000000">ptr @str.2</text>
</g>
<!-- n0x5e394088bf50&#45;&gt;n0x5e39408dc4a0 -->
<g id="edge10" class="edge">
<title>n0x5e394088bf50&#45;&gt;n0x5e39408dc4a0</title>
<path fill="none" stroke="#00ff00" d="M225.4,-355.27C215.26,-333.44 202.61,-306.17 192.64,-284.7"/>
<polygon fill="#00ff00" stroke="#00ff00" points="195.8,-283.18 188.41,-275.59 189.45,-286.13 195.8,-283.18"/>
<text text-anchor="middle" x="221.5" y="-318.5" font-family="SF Pro Text Bold 10" font-size="10.00">%&#45;1</text>
</g>
<!-- n0x5e394090b160 -->
<g id="node10" class="node">
<title>n0x5e394090b160</title>
<ellipse fill="#e8eef9" stroke="#1f1d31" cx="457" cy="-247.85" rx="21.8" ry="21.8"/>
<text text-anchor="middle" x="457" y="-245.05" font-family="SF Pro Text Bold 10" font-size="11.00" fill="#000000">call</text>
</g>
<!-- n0x5e394088bf50&#45;&gt;n0x5e394090b160 -->
<g id="edge14" class="edge">
<title>n0x5e394088bf50&#45;&gt;n0x5e394090b160</title>
<path fill="none" stroke="#00ff00" d="M275.64,-366.63C282.81,-361.32 290.5,-356 298,-351.5 330.74,-331.85 339.94,-328.05 376,-315.5 390.25,-310.53 396.22,-315.53 409,-307.5 421.78,-299.46 432.75,-286.84 440.96,-275.37"/>
<polygon fill="#00ff00" stroke="#00ff00" points="443.98,-277.15 446.69,-266.91 438.18,-273.23 443.98,-277.15"/>
<text text-anchor="middle" x="385.5" y="-318.5" font-family="SF Pro Text Bold 10" font-size="10.00">%&#45;1</text>
</g>
<!-- n0x5e39408c7d68 -->
<g id="node9" class="node">
<title>n0x5e39408c7d68</title>
<ellipse fill="#00eef9" stroke="#1f1d31" cx="353" cy="-394.19" rx="42.19" ry="42.19"/>
<text text-anchor="middle" x="353" y="-391.39" font-family="SF Pro Text Bold 10" font-size="11.00" fill="#000000">ptr @puts</text>
</g>
<!-- n0x5e39408c7d68&#45;&gt;n0x5e39408e74e0 -->
<g id="edge12" class="edge">
<title>n0x5e39408c7d68&#45;&gt;n0x5e39408e74e0</title>
<path fill="none" stroke="#00ff00" d="M332.42,-357.45C302.48,-305.44 247.54,-210.02 220.65,-163.32"/>
<polygon fill="#00ff00" stroke="#00ff00" points="223.54,-161.32 215.51,-154.4 217.47,-164.81 223.54,-161.32"/>
<text text-anchor="middle" x="312.5" y="-245.35" font-family="SF Pro Text Bold 10" font-size="10.00">%&#45;1</text>
</g>
<!-- n0x5e39408c7d68&#45;&gt;n0x5e394090b160 -->
<g id="edge15" class="edge">
<title>n0x5e39408c7d68&#45;&gt;n0x5e394090b160</title>
<path fill="none" stroke="#00ff00" d="M377.38,-359.35C396.21,-333.23 421.83,-297.67 438.87,-274.02"/>
<polygon fill="#00ff00" stroke="#00ff00" points="441.72,-276.04 444.73,-265.88 436.04,-271.95 441.72,-276.04"/>
<text text-anchor="middle" x="417.5" y="-318.5" font-family="SF Pro Text Bold 10" font-size="10.00">%&#45;1</text>
</g>
<!-- n0x5e394090b160&#45;&gt;n0x5e394090b1e0 -->
<g id="edge13" class="edge">
<title>n0x5e394090b160&#45;&gt;n0x5e394090b1e0</title>
<path fill="none" stroke="#ff0000" d="M457.38,-226.02C457.69,-208.77 458.13,-184.06 458.48,-164.91"/>
<polygon fill="#ff0000" stroke="#ff0000" points="461.98,-164.72 458.67,-154.66 454.99,-164.59 461.98,-164.72"/>
</g>
</g>
</svg>
