<?xml version="1.0" encoding="UTF-8" standalone="no"?>
<!DOCTYPE svg PUBLIC "-//W3C//DTD SVG 1.1//EN"
 "http://www.w3.org/Graphics/SVG/1.1/DTD/svg11.dtd">
<!-- Generated by graphviz version 2.43.0 (0)
 -->
<!-- Title: examples/hello/hello.c Pages: 1 -->
<svg width="641pt" height="553pt"
 viewBox="0.00 0.00 641.20 553.20" xmlns="http://www.w3.org/2000/svg" xmlns:xlink="http://www.w3.org/1999/xlink">
<g id="graph0" class="graph" transform="scale(1 1) rotate(0) translate(21.6 531.6)">
<title>examples/hello/hello.c</title>
<polygon fill="white" stroke="transparent" points="-21.6,21.6 -21.6,-531.6 619.6,-531.6 619.6,21.6 -21.6,21.6"/>
<g id="clust1" class="cluster">
<title>cluster_func_1</title>
<path fill="#e3e3e3" stroke="#000000" stroke-width="2" d="M20,-8C20,-8 329,-8 329,-8 335,-8 341,-14 341,-20 341,-20 341,-490 341,-490 341,-496 335,-502 329,-502 329,-502 20,-502 20,-502 14,-502 8,-496 8,-490 8,-490 8,-20 8,-20 8,-14 14,-8 20,-8"/>
<text text-anchor="middle" x="174.5" y="-482" font-family="SF Pro Text Bold 10" font-size="20.00">func</text>
</g>
<g id="clust2" class="cluster">
<title>cluster_func_1_bb_1</title>
<path fill="#a4a4a4" stroke="#000000" stroke-width="2" d="M28,-16C28,-16 321,-16 321,-16 327,-16 333,-22 333,-28 333,-28 333,-452 333,-452 333,-458 327,-464 321,-464 321,-464 28,-464 28,-464 22,-464 16,-458 16,-452 16,-452 16,-28 16,-28 16,-22 22,-16 28,-16"/>
</g>
<g id="clust3" class="cluster">
<title>cluster_func_2</title>
<path fill="#e3e3e3" stroke="#000000" stroke-width="2" d="M361,-198C361,-198 578,-198 578,-198 584,-198 590,-204 590,-210 590,-210 590,-490 590,-490 590,-496 584,-502 578,-502 578,-502 361,-502 361,-502 355,-502 349,-496 349,-490 349,-490 349,-210 349,-210 349,-204 355,-198 361,-198"/>
<text text-anchor="middle" x="469.5" y="-482" font-family="SF Pro Text Bold 10" font-size="20.00">main</text>
</g>
<g id="clust4" class="cluster">
<title>cluster_func_2_bb_1</title>
<path fill="#a4a4a4" stroke="#000000" stroke-width="2" d="M369,-206C369,-206 570,-206 570,-206 576,-206 582,-212 582,-218 582,-218 582,-452 582,-452 582,-458 576,-464 570,-464 570,-464 369,-464 369,-464 363,-464 357,-458 357,-452 357,-452 357,-218 357,-218 357,-212 363,-206 369,-206"/>
</g>
<!-- n0x5f6abb7ae2e0 -->
<g id="node1" class="node">
<title>n0x5f6abb7ae2e0</title>
<path fill="#6d95df" stroke="#000000" d="M286,-353C286,-353 256,-353 256,-353 250,-353 244,-347 244,-341 244,-341 244,-329 244,-329 244,-323 250,-317 256,-317 256,-317 286,-317 286,-317 292,-317 298,-323 298,-329 298,-329 298,-341 298,-341 298,-347 292,-353 286,-353"/>
<text text-anchor="middle" x="271" y="-331.5" font-family="SF Pro Text Bold 10" font-size="15.00" fill="#000000">icmp</text>
</g>
<!-- n0x5f6abb8befb0 -->
<g id="node2" class="node">
<title>n0x5f6abb8befb0</title>
<path fill="#6d95df" stroke="#000000" d="M290,-250C290,-250 252,-250 252,-250 246,-250 240,-244 240,-238 240,-238 240,-226 240,-226 240,-220 246,-214 252,-214 252,-214 290,-214 290,-214 296,-214 302,-220 302,-226 302,-226 302,-238 302,-238 302,-244 296,-250 290,-250"/>
<text text-anchor="middle" x="271" y="-228.5" font-family="SF Pro Text Bold 10" font-size="15.00" fill="#000000">select</text>
</g>
<!-- n0x5f6abb7ae2e0&#45;&gt;n0x5f6abb8befb0 -->
<g id="edge1" class="edge">
<title>n0x5f6abb7ae2e0&#45;&gt;n0x5f6abb8befb0</title>
<path fill="none" stroke="#ff8800" stroke-width="5" d="M271,-316.87C271,-301.41 271,-278.42 271,-260.41"/>
<polygon fill="#ff8800" stroke="#ff8800" stroke-width="5" points="275.38,-260.22 271,-250.22 266.63,-260.22 275.38,-260.22"/>
</g>
<!-- n0x5f6abb7ae2e0&#45;&gt;n0x5f6abb8befb0 -->
<g id="edge4" class="edge">
<title>n0x5f6abb7ae2e0&#45;&gt;n0x5f6abb8befb0</title>
<path fill="none" stroke="#00b3ff" stroke-width="2" d="M272,-316.84C272.4,-309.23 272.81,-300.17 273,-292 273.25,-281.62 272.99,-270.21 272.58,-260.21"/>
<polygon fill="#00b3ff" stroke="#00b3ff" stroke-width="2" points="276.07,-259.86 272.1,-250.04 269.07,-260.19 276.07,-259.86"/>
<text text-anchor="middle" x="284.5" y="-280" font-family="SF Pro Text Bold 10" font-size="15.00">%2</text>
</g>
<!-- n0x5f6abb8cf230 -->
<g id="node3" class="node">
<title>n0x5f6abb8cf230</title>
<path fill="#6d95df" stroke="#000000" d="M286,-147C286,-147 256,-147 256,-147 250,-147 244,-141 244,-135 244,-135 244,-123 244,-123 244,-117 250,-111 256,-111 256,-111 286,-111 286,-111 292,-111 298,-117 298,-123 298,-123 298,-135 298,-135 298,-141 292,-147 286,-147"/>
<text text-anchor="middle" x="271" y="-125.5" font-family="SF Pro Text Bold 10" font-size="15.00" fill="#000000">call</text>
</g>
<!-- n0x5f6abb8befb0&#45;&gt;n0x5f6abb8cf230 -->
<g id="edge2" class="edge">
<title>n0x5f6abb8befb0&#45;&gt;n0x5f6abb8cf230</title>
<path fill="none" stroke="#ff8800" stroke-width="5" d="M271,-213.87C271,-198.41 271,-175.42 271,-157.41"/>
<polygon fill="#ff8800" stroke="#ff8800" stroke-width="5" points="275.38,-157.22 271,-147.22 266.63,-157.22 275.38,-157.22"/>
</g>
<!-- n0x5f6abb8befb0&#45;&gt;n0x5f6abb8cf230 -->
<g id="edge7" class="edge">
<title>n0x5f6abb8befb0&#45;&gt;n0x5f6abb8cf230</title>
<path fill="none" stroke="#00b3ff" stroke-width="2" d="M272,-213.84C272.4,-206.23 272.81,-197.17 273,-189 273.25,-178.62 272.99,-167.21 272.58,-157.21"/>
<polygon fill="#00b3ff" stroke="#00b3ff" stroke-width="2" points="276.07,-156.86 272.1,-147.04 269.07,-157.19 276.07,-156.86"/>
<text text-anchor="middle" x="284.5" y="-177" font-family="SF Pro Text Bold 10" font-size="15.00">%3</text>
</g>
<!-- n0x5f6abb8947a0 -->
<g id="node4" class="node">
<title>n0x5f6abb8947a0</title>
<path fill="#6d95df" stroke="#000000" d="M286,-60C286,-60 256,-60 256,-60 250,-60 244,-54 244,-48 244,-48 244,-36 244,-36 244,-30 250,-24 256,-24 256,-24 286,-24 286,-24 292,-24 298,-30 298,-36 298,-36 298,-48 298,-48 298,-54 292,-60 286,-60"/>
<text text-anchor="middle" x="271" y="-38.5" font-family="SF Pro Text Bold 10" font-size="15.00" fill="#000000">ret</text>
</g>
<!-- n0x5f6abb8cf230&#45;&gt;n0x5f6abb8947a0 -->
<g id="edge3" class="edge">
<title>n0x5f6abb8cf230&#45;&gt;n0x5f6abb8947a0</title>
<path fill="none" stroke="#ff8800" stroke-width="5" d="M271,-110.8C271,-99.16 271,-83.55 271,-70.24"/>
<polygon fill="#ff8800" stroke="#ff8800" stroke-width="5" points="275.38,-70.18 271,-60.18 266.63,-70.18 275.38,-70.18"/>
</g>
<!-- u0x5f6abb7ae2a0 -->
<g id="node5" class="node">
<title>u0x5f6abb7ae2a0</title>
<path fill="#db4040" stroke="#000000" d="M303,-456C303,-456 259,-456 259,-456 253,-456 247,-450 247,-444 247,-444 247,-432 247,-432 247,-426 253,-420 259,-420 259,-420 303,-420 303,-420 309,-420 315,-426 315,-432 315,-432 315,-444 315,-444 315,-450 309,-456 303,-456"/>
<text text-anchor="middle" x="281" y="-434.5" font-family="SF Pro Text Bold 10" font-size="15.00" fill="#000000">i32 %0</text>
</g>
<!-- u0x5f6abb7ae2a0&#45;&gt;n0x5f6abb7ae2e0 -->
<g id="edge5" class="edge">
<title>u0x5f6abb7ae2a0&#45;&gt;n0x5f6abb7ae2e0</title>
<path fill="none" stroke="#00b3ff" stroke-width="2" d="M279.3,-419.87C277.77,-404.41 275.5,-381.42 273.71,-363.41"/>
<polygon fill="#00b3ff" stroke="#00b3ff" stroke-width="2" points="277.17,-362.82 272.7,-353.22 270.21,-363.51 277.17,-362.82"/>
<text text-anchor="middle" x="288" y="-383" font-family="SF Pro Text Bold 10" font-size="15.00">%0</text>
</g>
<!-- u0x5f6abb7ae2c0 -->
<g id="node6" class="node">
<title>u0x5f6abb7ae2c0</title>
<path fill="#db4040" stroke="#000000" d="M209.5,-456C209.5,-456 178.5,-456 178.5,-456 172.5,-456 166.5,-450 166.5,-444 166.5,-444 166.5,-432 166.5,-432 166.5,-426 172.5,-420 178.5,-420 178.5,-420 209.5,-420 209.5,-420 215.5,-420 221.5,-426 221.5,-432 221.5,-432 221.5,-444 221.5,-444 221.5,-450 215.5,-456 209.5,-456"/>
<text text-anchor="middle" x="194" y="-434.5" font-family="SF Pro Text Bold 10" font-size="15.00" fill="#000000">i32 0</text>
</g>
<!-- u0x5f6abb7ae2c0&#45;&gt;n0x5f6abb7ae2e0 -->
<g id="edge6" class="edge">
<title>u0x5f6abb7ae2c0&#45;&gt;n0x5f6abb7ae2e0</title>
<path fill="none" stroke="#00b3ff" stroke-width="2" d="M207.06,-419.87C219.23,-403.91 237.53,-379.9 251.44,-361.65"/>
<polygon fill="#00b3ff" stroke="#00b3ff" stroke-width="2" points="254.59,-363.29 257.87,-353.22 249.03,-359.05 254.59,-363.29"/>
</g>
<!-- u0x5f6abb8bef70 -->
<g id="node7" class="node">
<title>u0x5f6abb8bef70</title>
<path fill="#db4040" stroke="#000000" d="M207,-353C207,-353 153,-353 153,-353 147,-353 141,-347 141,-341 141,-341 141,-329 141,-329 141,-323 147,-317 153,-317 153,-317 207,-317 207,-317 213,-317 219,-323 219,-329 219,-329 219,-341 219,-341 219,-347 213,-353 207,-353"/>
<text text-anchor="middle" x="180" y="-331.5" font-family="SF Pro Text Bold 10" font-size="15.00" fill="#000000">ptr @str</text>
</g>
<!-- u0x5f6abb8bef70&#45;&gt;n0x5f6abb8befb0 -->
<g id="edge8" class="edge">
<title>u0x5f6abb8bef70&#45;&gt;n0x5f6abb8befb0</title>
<path fill="none" stroke="#00b3ff" stroke-width="2" d="M195.44,-316.87C210.08,-300.62 232.24,-276.02 248.78,-257.66"/>
<polygon fill="#00b3ff" stroke="#00b3ff" stroke-width="2" points="251.39,-259.99 255.49,-250.22 246.19,-255.3 251.39,-259.99"/>
</g>
<!-- u0x5f6abb8bef90 -->
<g id="node8" class="node">
<title>u0x5f6abb8bef90</title>
<path fill="#db4040" stroke="#000000" d="M104,-353C104,-353 36,-353 36,-353 30,-353 24,-347 24,-341 24,-341 24,-329 24,-329 24,-323 30,-317 36,-317 36,-317 104,-317 104,-317 110,-317 116,-323 116,-329 116,-329 116,-341 116,-341 116,-347 110,-353 104,-353"/>
<text text-anchor="middle" x="70" y="-331.5" font-family="SF Pro Text Bold 10" font-size="15.00" fill="#000000">ptr @str.2</text>
</g>
<!-- u0x5f6abb8bef90&#45;&gt;n0x5f6abb8befb0 -->
<g id="edge9" class="edge">
<title>u0x5f6abb8bef90&#45;&gt;n0x5f6abb8befb0</title>
<path fill="none" stroke="#00b3ff" stroke-width="2" d="M104.1,-316.87C139.1,-299.28 193.56,-271.92 230.67,-253.26"/>
<polygon fill="#00b3ff" stroke="#00b3ff" stroke-width="2" points="232.35,-256.34 239.72,-248.72 229.21,-250.08 232.35,-256.34"/>
</g>
<!-- u0x5f6abb8cf210 -->
<g id="node9" class="node">
<title>u0x5f6abb8cf210</title>
<path fill="#db4040" stroke="#000000" d="M202.5,-250C202.5,-250 135.5,-250 135.5,-250 129.5,-250 123.5,-244 123.5,-238 123.5,-238 123.5,-226 123.5,-226 123.5,-220 129.5,-214 135.5,-214 135.5,-214 202.5,-214 202.5,-214 208.5,-214 214.5,-220 214.5,-226 214.5,-226 214.5,-238 214.5,-238 214.5,-244 208.5,-250 202.5,-250"/>
<text text-anchor="middle" x="169" y="-228.5" font-family="SF Pro Text Bold 10" font-size="15.00" fill="#000000">ptr @puts</text>
</g>
<!-- u0x5f6abb8cf210&#45;&gt;n0x5f6abb8cf230 -->
<g id="edge10" class="edge">
<title>u0x5f6abb8cf210&#45;&gt;n0x5f6abb8cf230</title>
<path fill="none" stroke="#00b3ff" stroke-width="2" d="M186.3,-213.87C202.71,-197.62 227.55,-173.02 246.09,-154.66"/>
<polygon fill="#00b3ff" stroke="#00b3ff" stroke-width="2" points="248.97,-156.74 253.61,-147.22 244.04,-151.77 248.97,-156.74"/>
</g>
<!-- n0x5f6abb8ec0f0 -->
<g id="node10" class="node">
<title>n0x5f6abb8ec0f0</title>
<path fill="#6d95df" stroke="#000000" d="M515,-353C515,-353 485,-353 485,-353 479,-353 473,-347 473,-341 473,-341 473,-329 473,-329 473,-323 479,-317 485,-317 485,-317 515,-317 515,-317 521,-317 527,-323 527,-329 527,-329 527,-341 527,-341 527,-347 521,-353 515,-353"/>
<text text-anchor="middle" x="500" y="-331.5" font-family="SF Pro Text Bold 10" font-size="15.00" fill="#000000">call</text>
</g>
<!-- n0x5f6abb8ec170 -->
<g id="node11" class="node">
<title>n0x5f6abb8ec170</title>
<path fill="#6d95df" stroke="#000000" d="M515,-250C515,-250 485,-250 485,-250 479,-250 473,-244 473,-238 473,-238 473,-226 473,-226 473,-220 479,-214 485,-214 485,-214 515,-214 515,-214 521,-214 527,-220 527,-226 527,-226 527,-238 527,-238 527,-244 521,-250 515,-250"/>
<text text-anchor="middle" x="500" y="-228.5" font-family="SF Pro Text Bold 10" font-size="15.00" fill="#000000">ret</text>
</g>
<!-- n0x5f6abb8ec0f0&#45;&gt;n0x5f6abb8ec170 -->
<g id="edge11" class="edge">
<title>n0x5f6abb8ec0f0&#45;&gt;n0x5f6abb8ec170</title>
<path fill="none" stroke="#ff8800" stroke-width="5" d="M500,-316.87C500,-301.41 500,-278.42 500,-260.41"/>
<polygon fill="#ff8800" stroke="#ff8800" stroke-width="5" points="504.38,-260.22 500,-250.22 495.63,-260.22 504.38,-260.22"/>
</g>
<!-- u0x5f6abb8ec0b0 -->
<g id="node12" class="node">
<title>u0x5f6abb8ec0b0</title>
<path fill="#db4040" stroke="#000000" d="M562,-456C562,-456 494,-456 494,-456 488,-456 482,-450 482,-444 482,-444 482,-432 482,-432 482,-426 488,-420 494,-420 494,-420 562,-420 562,-420 568,-420 574,-426 574,-432 574,-432 574,-444 574,-444 574,-450 568,-456 562,-456"/>
<text text-anchor="middle" x="528" y="-434.5" font-family="SF Pro Text Bold 10" font-size="15.00" fill="#000000">ptr @str.2</text>
</g>
<!-- u0x5f6abb8ec0b0&#45;&gt;n0x5f6abb8ec0f0 -->
<g id="edge12" class="edge">
<title>u0x5f6abb8ec0b0&#45;&gt;n0x5f6abb8ec0f0</title>
<path fill="none" stroke="#00b3ff" stroke-width="2" d="M523.25,-419.87C518.93,-404.27 512.47,-380.98 507.46,-362.9"/>
<polygon fill="#00b3ff" stroke="#00b3ff" stroke-width="2" points="510.82,-361.92 504.77,-353.22 504.07,-363.79 510.82,-361.92"/>
</g>
<!-- u0x5f6abb8ec0d0 -->
<g id="node13" class="node">
<title>u0x5f6abb8ec0d0</title>
<path fill="#db4040" stroke="#000000" d="M444.5,-456C444.5,-456 377.5,-456 377.5,-456 371.5,-456 365.5,-450 365.5,-444 365.5,-444 365.5,-432 365.5,-432 365.5,-426 371.5,-420 377.5,-420 377.5,-420 444.5,-420 444.5,-420 450.5,-420 456.5,-426 456.5,-432 456.5,-432 456.5,-444 456.5,-444 456.5,-450 450.5,-456 444.5,-456"/>
<text text-anchor="middle" x="411" y="-434.5" font-family="SF Pro Text Bold 10" font-size="15.00" fill="#000000">ptr @puts</text>
</g>
<!-- u0x5f6abb8ec0d0&#45;&gt;n0x5f6abb8ec0f0 -->
<g id="edge13" class="edge">
<title>u0x5f6abb8ec0d0&#45;&gt;n0x5f6abb8ec0f0</title>
<path fill="none" stroke="#00b3ff" stroke-width="2" d="M426.1,-419.87C440.29,-403.76 461.7,-379.46 477.83,-361.15"/>
<polygon fill="#00b3ff" stroke="#00b3ff" stroke-width="2" points="480.84,-363.03 484.83,-353.22 475.59,-358.41 480.84,-363.03"/>
</g>
<!-- u0x5f6abb8ec150 -->
<g id="node14" class="node">
<title>u0x5f6abb8ec150</title>
<path fill="#db4040" stroke="#000000" d="M435.5,-353C435.5,-353 404.5,-353 404.5,-353 398.5,-353 392.5,-347 392.5,-341 392.5,-341 392.5,-329 392.5,-329 392.5,-323 398.5,-317 404.5,-317 404.5,-317 435.5,-317 435.5,-317 441.5,-317 447.5,-323 447.5,-329 447.5,-329 447.5,-341 447.5,-341 447.5,-347 441.5,-353 435.5,-353"/>
<text text-anchor="middle" x="420" y="-331.5" font-family="SF Pro Text Bold 10" font-size="15.00" fill="#000000">i32 0</text>
</g>
<!-- u0x5f6abb8ec150&#45;&gt;n0x5f6abb8ec170 -->
<g id="edge14" class="edge">
<title>u0x5f6abb8ec150&#45;&gt;n0x5f6abb8ec170</title>
<path fill="none" stroke="#00b3ff" stroke-width="2" d="M433.57,-316.87C446.33,-300.76 465.58,-276.46 480.08,-258.15"/>
<polygon fill="#00b3ff" stroke="#00b3ff" stroke-width="2" points="482.9,-260.23 486.36,-250.22 477.41,-255.88 482.9,-260.23"/>
</g>
</g>
</svg>
