<?xml version="1.0" encoding="UTF-8" standalone="no"?>
<!DOCTYPE svg PUBLIC "-//W3C//DTD SVG 1.1//EN"
 "http://www.w3.org/Graphics/SVG/1.1/DTD/svg11.dtd">
<!-- Generated by graphviz version 2.43.0 (0)
 -->
<!-- Title: examples/hello/hello.c Pages: 1 -->
<svg width="810pt" height="754pt"
 viewBox="0.00 0.00 810.20 754.20" xmlns="http://www.w3.org/2000/svg" xmlns:xlink="http://www.w3.org/1999/xlink">
<g id="graph0" class="graph" transform="scale(1 1) rotate(0) translate(21.6 732.6)">
<title>examples/hello/hello.c</title>
<polygon fill="white" stroke="transparent" points="-21.6,21.6 -21.6,-732.6 788.6,-732.6 788.6,21.6 -21.6,21.6"/>
<g id="clust1" class="cluster">
<title>cluster_func_1</title>
<path fill="#e3e3e3" stroke="#000000" stroke-width="2" d="M20,-8C20,-8 449,-8 449,-8 455,-8 461,-14 461,-20 461,-20 461,-691 461,-691 461,-697 455,-703 449,-703 449,-703 20,-703 20,-703 14,-703 8,-697 8,-691 8,-691 8,-20 8,-20 8,-14 14,-8 20,-8"/>
<text text-anchor="middle" x="234.5" y="-683" font-family="SF Pro Text Bold 10" font-size="20.00">func</text>
</g>
<g id="clust2" class="cluster">
<title>cluster_func_1_bb_1</title>
<path fill="#a4a4a4" stroke="#000000" stroke-width="2" d="M28,-16C28,-16 441,-16 441,-16 447,-16 453,-22 453,-28 453,-28 453,-653 453,-653 453,-659 447,-665 441,-665 441,-665 28,-665 28,-665 22,-665 16,-659 16,-653 16,-653 16,-28 16,-28 16,-22 22,-16 28,-16"/>
<text text-anchor="middle" x="234.5" y="-649" font-family="SF Pro Text Bold 10" font-size="15.00">label %1</text>
</g>
<g id="clust3" class="cluster">
<title>cluster_func_2</title>
<path fill="#e3e3e3" stroke="#000000" stroke-width="2" d="M490,-286C490,-286 747,-286 747,-286 753,-286 759,-292 759,-298 759,-298 759,-691 759,-691 759,-697 753,-703 747,-703 747,-703 490,-703 490,-703 484,-703 478,-697 478,-691 478,-691 478,-298 478,-298 478,-292 484,-286 490,-286"/>
<text text-anchor="middle" x="618.5" y="-683" font-family="SF Pro Text Bold 10" font-size="20.00">main</text>
</g>
<g id="clust4" class="cluster">
<title>cluster_func_2_bb_1</title>
<path fill="#a4a4a4" stroke="#000000" stroke-width="2" d="M498,-294C498,-294 739,-294 739,-294 745,-294 751,-300 751,-306 751,-306 751,-653 751,-653 751,-659 745,-665 739,-665 739,-665 498,-665 498,-665 492,-665 486,-659 486,-653 486,-653 486,-306 486,-306 486,-300 492,-294 498,-294"/>
<text text-anchor="middle" x="618.5" y="-649" font-family="SF Pro Text Bold 10" font-size="15.00">label %0</text>
</g>
<!-- n0x6549de6582e0 -->
<g id="node1" class="node">
<title>n0x6549de6582e0</title>
<path fill="#6d95df" stroke="#000000" d="M366,-485C366,-485 336,-485 336,-485 330,-485 324,-479 324,-473 324,-473 324,-461 324,-461 324,-455 330,-449 336,-449 336,-449 366,-449 366,-449 372,-449 378,-455 378,-461 378,-461 378,-473 378,-473 378,-479 372,-485 366,-485"/>
<text text-anchor="middle" x="351" y="-463.5" font-family="SF Pro Text Bold 10" font-size="15.00" fill="#000000">icmp</text>
</g>
<!-- n0x6549de768470 -->
<g id="node2" class="node">
<title>n0x6549de768470</title>
<path fill="#6d95df" stroke="#000000" d="M370,-338C370,-338 332,-338 332,-338 326,-338 320,-332 320,-326 320,-326 320,-314 320,-314 320,-308 326,-302 332,-302 332,-302 370,-302 370,-302 376,-302 382,-308 382,-314 382,-314 382,-326 382,-326 382,-332 376,-338 370,-338"/>
<text text-anchor="middle" x="351" y="-316.5" font-family="SF Pro Text Bold 10" font-size="15.00" fill="#000000">select</text>
</g>
<!-- n0x6549de6582e0&#45;&gt;n0x6549de768470 -->
<g id="edge1" class="edge">
<title>n0x6549de6582e0&#45;&gt;n0x6549de768470</title>
<path fill="none" stroke="#ff3636" stroke-width="3" d="M351,-448.8C351,-423.94 351,-377.74 351,-348.23"/>
<polygon fill="#ff3636" stroke="#ff3636" stroke-width="3" points="354.5,-348.18 351,-338.18 347.5,-348.18 354.5,-348.18"/>
</g>
<!-- n0x6549de6582e0&#45;&gt;n0x6549de768470 -->
<g id="edge4" class="edge">
<title>n0x6549de6582e0&#45;&gt;n0x6549de768470</title>
<path fill="none" stroke="#00b3ff" stroke-width="2" d="M351.82,-448.94C352.51,-432.54 353.34,-407.08 353,-385 352.81,-372.95 352.42,-359.64 352.04,-348.29"/>
<polygon fill="#00b3ff" stroke="#00b3ff" stroke-width="2" points="355.53,-347.98 351.68,-338.11 348.54,-348.23 355.53,-347.98"/>
<text text-anchor="middle" x="364.5" y="-390" font-family="SF Pro Text Bold 10" font-size="15.00">%2</text>
</g>
<!-- n0x6549de7791e0 -->
<g id="node3" class="node">
<title>n0x6549de7791e0</title>
<path fill="#6d95df" stroke="#000000" d="M366,-191C366,-191 336,-191 336,-191 330,-191 324,-185 324,-179 324,-179 324,-167 324,-167 324,-161 330,-155 336,-155 336,-155 366,-155 366,-155 372,-155 378,-161 378,-167 378,-167 378,-179 378,-179 378,-185 372,-191 366,-191"/>
<text text-anchor="middle" x="351" y="-169.5" font-family="SF Pro Text Bold 10" font-size="15.00" fill="#000000">call</text>
</g>
<!-- n0x6549de768470&#45;&gt;n0x6549de7791e0 -->
<g id="edge2" class="edge">
<title>n0x6549de768470&#45;&gt;n0x6549de7791e0</title>
<path fill="none" stroke="#ff3636" stroke-width="3" d="M351,-301.8C351,-276.94 351,-230.74 351,-201.23"/>
<polygon fill="#ff3636" stroke="#ff3636" stroke-width="3" points="354.5,-201.18 351,-191.18 347.5,-201.18 354.5,-201.18"/>
</g>
<!-- n0x6549de768470&#45;&gt;n0x6549de7791e0 -->
<g id="edge7" class="edge">
<title>n0x6549de768470&#45;&gt;n0x6549de7791e0</title>
<path fill="none" stroke="#00b3ff" stroke-width="2" d="M351.82,-301.94C352.51,-285.54 353.34,-260.08 353,-238 352.81,-225.95 352.42,-212.64 352.04,-201.29"/>
<polygon fill="#00b3ff" stroke="#00b3ff" stroke-width="2" points="355.53,-200.98 351.68,-191.11 348.54,-201.23 355.53,-200.98"/>
<text text-anchor="middle" x="364.5" y="-243" font-family="SF Pro Text Bold 10" font-size="15.00">%3</text>
</g>
<!-- n0x6549de764e40 -->
<g id="node4" class="node">
<title>n0x6549de764e40</title>
<path fill="#6d95df" stroke="#000000" d="M366,-60C366,-60 336,-60 336,-60 330,-60 324,-54 324,-48 324,-48 324,-36 324,-36 324,-30 330,-24 336,-24 336,-24 366,-24 366,-24 372,-24 378,-30 378,-36 378,-36 378,-48 378,-48 378,-54 372,-60 366,-60"/>
<text text-anchor="middle" x="351" y="-38.5" font-family="SF Pro Text Bold 10" font-size="15.00" fill="#000000">ret</text>
</g>
<!-- n0x6549de7791e0&#45;&gt;n0x6549de764e40 -->
<g id="edge3" class="edge">
<title>n0x6549de7791e0&#45;&gt;n0x6549de764e40</title>
<path fill="none" stroke="#ff3636" stroke-width="3" d="M351,-154.87C351,-133.28 351,-95.91 351,-70.35"/>
<polygon fill="#ff3636" stroke="#ff3636" stroke-width="3" points="354.5,-70.2 351,-60.2 347.5,-70.2 354.5,-70.2"/>
</g>
<!-- u0x6549de6582a0 -->
<g id="node5" class="node">
<title>u0x6549de6582a0</title>
<path fill="#d66868" stroke="#000000" d="M417,-632C417,-632 373,-632 373,-632 367,-632 361,-626 361,-620 361,-620 361,-608 361,-608 361,-602 367,-596 373,-596 373,-596 417,-596 417,-596 423,-596 429,-602 429,-608 429,-608 429,-620 429,-620 429,-626 423,-632 417,-632"/>
<text text-anchor="middle" x="395" y="-610.5" font-family="SF Pro Text Bold 10" font-size="15.00" fill="#000000">i32 %0</text>
</g>
<!-- u0x6549de6582a0&#45;&gt;n0x6549de6582e0 -->
<g id="edge5" class="edge">
<title>u0x6549de6582a0&#45;&gt;n0x6549de6582e0</title>
<path fill="none" stroke="#00b3ff" stroke-width="2" d="M389.78,-595.8C382.2,-570.83 368.1,-524.34 359.14,-494.84"/>
<polygon fill="#00b3ff" stroke="#00b3ff" stroke-width="2" points="362.47,-493.73 356.21,-485.18 355.77,-495.77 362.47,-493.73"/>
<text text-anchor="middle" x="386" y="-537" font-family="SF Pro Text Bold 10" font-size="15.00">%0</text>
</g>
<!-- u0x6549de6582c0 -->
<g id="node6" class="node">
<title>u0x6549de6582c0</title>
<path fill="#d66868" stroke="#000000" d="M283.5,-632C283.5,-632 252.5,-632 252.5,-632 246.5,-632 240.5,-626 240.5,-620 240.5,-620 240.5,-608 240.5,-608 240.5,-602 246.5,-596 252.5,-596 252.5,-596 283.5,-596 283.5,-596 289.5,-596 295.5,-602 295.5,-608 295.5,-608 295.5,-620 295.5,-620 295.5,-626 289.5,-632 283.5,-632"/>
<text text-anchor="middle" x="268" y="-610.5" font-family="SF Pro Text Bold 10" font-size="15.00" fill="#000000">i32 0</text>
</g>
<!-- u0x6549de6582c0&#45;&gt;n0x6549de6582e0 -->
<g id="edge6" class="edge">
<title>u0x6549de6582c0&#45;&gt;n0x6549de6582e0</title>
<path fill="none" stroke="#00b3ff" stroke-width="2" d="M277.85,-595.8C292.26,-570.62 319.22,-523.52 336.08,-494.07"/>
<polygon fill="#00b3ff" stroke="#00b3ff" stroke-width="2" points="339.24,-495.6 341.17,-485.18 333.16,-492.12 339.24,-495.6"/>
</g>
<!-- u0x6549de768430 -->
<g id="node7" class="node">
<title>u0x6549de768430</title>
<path fill="#d66868" stroke="#000000" d="M247,-485C247,-485 193,-485 193,-485 187,-485 181,-479 181,-473 181,-473 181,-461 181,-461 181,-455 187,-449 193,-449 193,-449 247,-449 247,-449 253,-449 259,-455 259,-461 259,-461 259,-473 259,-473 259,-479 253,-485 247,-485"/>
<text text-anchor="middle" x="220" y="-463.5" font-family="SF Pro Text Bold 10" font-size="15.00" fill="#000000">ptr @str</text>
</g>
<!-- u0x6549de768430&#45;&gt;n0x6549de768470 -->
<g id="edge8" class="edge">
<title>u0x6549de768430&#45;&gt;n0x6549de768470</title>
<path fill="none" stroke="#00b3ff" stroke-width="2" d="M235.54,-448.8C258.59,-423.29 301.95,-375.3 328.47,-345.93"/>
<polygon fill="#00b3ff" stroke="#00b3ff" stroke-width="2" points="331.37,-347.95 335.48,-338.18 326.18,-343.25 331.37,-347.95"/>
</g>
<!-- u0x6549de768450 -->
<g id="node8" class="node">
<title>u0x6549de768450</title>
<path fill="#d66868" stroke="#000000" d="M104,-485C104,-485 36,-485 36,-485 30,-485 24,-479 24,-473 24,-473 24,-461 24,-461 24,-455 30,-449 36,-449 36,-449 104,-449 104,-449 110,-449 116,-455 116,-461 116,-461 116,-473 116,-473 116,-479 110,-485 104,-485"/>
<text text-anchor="middle" x="70" y="-463.5" font-family="SF Pro Text Bold 10" font-size="15.00" fill="#000000">ptr @str.2</text>
</g>
<!-- u0x6549de768450&#45;&gt;n0x6549de768470 -->
<g id="edge9" class="edge">
<title>u0x6549de768450&#45;&gt;n0x6549de768470</title>
<path fill="none" stroke="#00b3ff" stroke-width="2" d="M103.06,-448.94C154.87,-422.21 255.03,-370.52 310.88,-341.7"/>
<polygon fill="#00b3ff" stroke="#00b3ff" stroke-width="2" points="312.5,-344.8 319.79,-337.11 309.29,-338.58 312.5,-344.8"/>
</g>
<!-- u0x6549de7791c0 -->
<g id="node9" class="node">
<title>u0x6549de7791c0</title>
<path fill="#d66868" stroke="#000000" d="M242.5,-338C242.5,-338 175.5,-338 175.5,-338 169.5,-338 163.5,-332 163.5,-326 163.5,-326 163.5,-314 163.5,-314 163.5,-308 169.5,-302 175.5,-302 175.5,-302 242.5,-302 242.5,-302 248.5,-302 254.5,-308 254.5,-314 254.5,-314 254.5,-326 254.5,-326 254.5,-332 248.5,-338 242.5,-338"/>
<text text-anchor="middle" x="209" y="-316.5" font-family="SF Pro Text Bold 10" font-size="15.00" fill="#000000">ptr @puts</text>
</g>
<!-- u0x6549de7791c0&#45;&gt;n0x6549de7791e0 -->
<g id="edge10" class="edge">
<title>u0x6549de7791c0&#45;&gt;n0x6549de7791e0</title>
<path fill="none" stroke="#00b3ff" stroke-width="2" d="M225.85,-301.8C250.93,-276.18 298.23,-227.89 326.95,-198.56"/>
<polygon fill="#00b3ff" stroke="#00b3ff" stroke-width="2" points="329.68,-200.77 334.18,-191.18 324.68,-195.88 329.68,-200.77"/>
</g>
<!-- n0x6549de796160 -->
<g id="node10" class="node">
<title>n0x6549de796160</title>
<path fill="#6d95df" stroke="#000000" d="M684,-485C684,-485 654,-485 654,-485 648,-485 642,-479 642,-473 642,-473 642,-461 642,-461 642,-455 648,-449 654,-449 654,-449 684,-449 684,-449 690,-449 696,-455 696,-461 696,-461 696,-473 696,-473 696,-479 690,-485 684,-485"/>
<text text-anchor="middle" x="669" y="-463.5" font-family="SF Pro Text Bold 10" font-size="15.00" fill="#000000">call</text>
</g>
<!-- n0x6549de7961e0 -->
<g id="node11" class="node">
<title>n0x6549de7961e0</title>
<path fill="#6d95df" stroke="#000000" d="M684,-338C684,-338 654,-338 654,-338 648,-338 642,-332 642,-326 642,-326 642,-314 642,-314 642,-308 648,-302 654,-302 654,-302 684,-302 684,-302 690,-302 696,-308 696,-314 696,-314 696,-326 696,-326 696,-332 690,-338 684,-338"/>
<text text-anchor="middle" x="669" y="-316.5" font-family="SF Pro Text Bold 10" font-size="15.00" fill="#000000">ret</text>
</g>
<!-- n0x6549de796160&#45;&gt;n0x6549de7961e0 -->
<g id="edge11" class="edge">
<title>n0x6549de796160&#45;&gt;n0x6549de7961e0</title>
<path fill="none" stroke="#ff3636" stroke-width="3" d="M669,-448.8C669,-423.94 669,-377.74 669,-348.23"/>
<polygon fill="#ff3636" stroke="#ff3636" stroke-width="3" points="672.5,-348.18 669,-338.18 665.5,-348.18 672.5,-348.18"/>
</g>
<!-- u0x6549de796120 -->
<g id="node12" class="node">
<title>u0x6549de796120</title>
<path fill="#d66868" stroke="#000000" d="M731,-632C731,-632 663,-632 663,-632 657,-632 651,-626 651,-620 651,-620 651,-608 651,-608 651,-602 657,-596 663,-596 663,-596 731,-596 731,-596 737,-596 743,-602 743,-608 743,-608 743,-620 743,-620 743,-626 737,-632 731,-632"/>
<text text-anchor="middle" x="697" y="-610.5" font-family="SF Pro Text Bold 10" font-size="15.00" fill="#000000">ptr @str.2</text>
</g>
<!-- u0x6549de796120&#45;&gt;n0x6549de796160 -->
<g id="edge12" class="edge">
<title>u0x6549de796120&#45;&gt;n0x6549de796160</title>
<path fill="none" stroke="#00b3ff" stroke-width="2" d="M693.68,-595.8C688.88,-570.94 679.96,-524.74 674.26,-495.23"/>
<polygon fill="#00b3ff" stroke="#00b3ff" stroke-width="2" points="677.65,-494.34 672.32,-485.18 670.78,-495.66 677.65,-494.34"/>
</g>
<!-- u0x6549de796140 -->
<g id="node13" class="node">
<title>u0x6549de796140</title>
<path fill="#d66868" stroke="#000000" d="M573.5,-632C573.5,-632 506.5,-632 506.5,-632 500.5,-632 494.5,-626 494.5,-620 494.5,-620 494.5,-608 494.5,-608 494.5,-602 500.5,-596 506.5,-596 506.5,-596 573.5,-596 573.5,-596 579.5,-596 585.5,-602 585.5,-608 585.5,-608 585.5,-620 585.5,-620 585.5,-626 579.5,-632 573.5,-632"/>
<text text-anchor="middle" x="540" y="-610.5" font-family="SF Pro Text Bold 10" font-size="15.00" fill="#000000">ptr @puts</text>
</g>
<!-- u0x6549de796140&#45;&gt;n0x6549de796160 -->
<g id="edge13" class="edge">
<title>u0x6549de796140&#45;&gt;n0x6549de796160</title>
<path fill="none" stroke="#00b3ff" stroke-width="2" d="M555.3,-595.8C578,-570.29 620.7,-522.3 646.82,-492.93"/>
<polygon fill="#00b3ff" stroke="#00b3ff" stroke-width="2" points="649.68,-494.98 653.72,-485.18 644.45,-490.33 649.68,-494.98"/>
</g>
<!-- u0x6549de7961c0 -->
<g id="node14" class="node">
<title>u0x6549de7961c0</title>
<path fill="#d66868" stroke="#000000" d="M564.5,-485C564.5,-485 533.5,-485 533.5,-485 527.5,-485 521.5,-479 521.5,-473 521.5,-473 521.5,-461 521.5,-461 521.5,-455 527.5,-449 533.5,-449 533.5,-449 564.5,-449 564.5,-449 570.5,-449 576.5,-455 576.5,-461 576.5,-461 576.5,-473 576.5,-473 576.5,-479 570.5,-485 564.5,-485"/>
<text text-anchor="middle" x="549" y="-463.5" font-family="SF Pro Text Bold 10" font-size="15.00" fill="#000000">i32 0</text>
</g>
<!-- u0x6549de7961c0&#45;&gt;n0x6549de7961e0 -->
<g id="edge14" class="edge">
<title>u0x6549de7961c0&#45;&gt;n0x6549de7961e0</title>
<path fill="none" stroke="#00b3ff" stroke-width="2" d="M563.24,-448.8C584.35,-423.29 624.07,-375.3 648.37,-345.93"/>
<polygon fill="#00b3ff" stroke="#00b3ff" stroke-width="2" points="651.1,-348.12 654.78,-338.18 645.71,-343.65 651.1,-348.12"/>
</g>
</g>
</svg>
