<?xml version="1.0" encoding="UTF-8" standalone="no"?>
<!DOCTYPE svg PUBLIC "-//W3C//DTD SVG 1.1//EN"
 "http://www.w3.org/Graphics/SVG/1.1/DTD/svg11.dtd">
<!-- Generated by graphviz version 2.43.0 (0)
 -->
<!-- Title: examples/hello/hello.c Pages: 1 -->
<svg width="585pt" height="695pt"
 viewBox="0.00 0.00 585.20 694.83" xmlns="http://www.w3.org/2000/svg" xmlns:xlink="http://www.w3.org/1999/xlink">
<g id="graph0" class="graph" transform="scale(1 1) rotate(0) translate(21.6 673.23)">
<title>examples/hello/hello.c</title>
<polygon fill="white" stroke="transparent" points="-21.6,21.6 -21.6,-673.23 563.6,-673.23 563.6,21.6 -21.6,21.6"/>
<g id="clust1" class="cluster">
<title>cluster_1</title>
<path fill="none" stroke="#c0c0c0" d="M20,-8C20,-8 399,-8 399,-8 405,-8 411,-14 411,-20 411,-20 411,-631.63 411,-631.63 411,-637.63 405,-643.63 399,-643.63 399,-643.63 20,-643.63 20,-643.63 14,-643.63 8,-637.63 8,-631.63 8,-631.63 8,-20 8,-20 8,-14 14,-8 20,-8"/>
<text text-anchor="start" x="16" y="-630.23" font-family="SF Pro Text Bold 10" font-weight="bold" font-size="13.00">func</text>
</g>
<g id="clust2" class="cluster">
<title>cluster_1_1</title>
<path fill="none" stroke="#c0c0c0" d="M28,-16C28,-16 391,-16 391,-16 397,-16 403,-22 403,-28 403,-28 403,-601.63 403,-601.63 403,-607.63 397,-613.63 391,-613.63 391,-613.63 28,-613.63 28,-613.63 22,-613.63 16,-607.63 16,-601.63 16,-601.63 16,-28 16,-28 16,-22 22,-16 28,-16"/>
<text text-anchor="start" x="24" y="-600.23" font-family="SF Pro Text Bold 10" font-weight="bold" font-size="13.00">BasicBlock_1</text>
</g>
<g id="clust3" class="cluster">
<title>cluster_2</title>
<path fill="none" stroke="#c0c0c0" d="M431,-99.89C431,-99.89 522,-99.89 522,-99.89 528,-99.89 534,-105.89 534,-111.89 534,-111.89 534,-317.5 534,-317.5 534,-323.5 528,-329.5 522,-329.5 522,-329.5 431,-329.5 431,-329.5 425,-329.5 419,-323.5 419,-317.5 419,-317.5 419,-111.89 419,-111.89 419,-105.89 425,-99.89 431,-99.89"/>
<text text-anchor="start" x="427" y="-316.1" font-family="SF Pro Text Bold 10" font-weight="bold" font-size="13.00">main</text>
</g>
<g id="clust4" class="cluster">
<title>cluster_2_1</title>
<path fill="none" stroke="#c0c0c0" d="M439,-107.89C439,-107.89 514,-107.89 514,-107.89 520,-107.89 526,-113.89 526,-119.89 526,-119.89 526,-287.5 526,-287.5 526,-293.5 520,-299.5 514,-299.5 514,-299.5 439,-299.5 439,-299.5 433,-299.5 427,-293.5 427,-287.5 427,-287.5 427,-119.89 427,-119.89 427,-113.89 433,-107.89 439,-107.89"/>
<text text-anchor="start" x="435" y="-286.1" font-family="SF Pro Text Bold 10" font-weight="bold" font-size="13.00">BasicBlock_1</text>
</g>
<!-- n0x62298bdad2e0 -->
<g id="node1" class="node">
<title>n0x62298bdad2e0</title>
<ellipse fill="#e8eef9" stroke="#1f1d31" cx="149" cy="-416.19" rx="26.42" ry="26.42"/>
<text text-anchor="middle" x="149" y="-413.39" font-family="SF Pro Text Bold 10" font-size="11.00" fill="#000000">icmp</text>
</g>
<!-- n0x62298bebbd30 -->
<g id="node2" class="node">
<title>n0x62298bebbd30</title>
<ellipse fill="#e8eef9" stroke="#1f1d31" cx="176" cy="-247.85" rx="30.13" ry="30.13"/>
<text text-anchor="middle" x="176" y="-245.05" font-family="SF Pro Text Bold 10" font-size="11.00" fill="#000000">select</text>
</g>
<!-- n0x62298bdad2e0&#45;&gt;n0x62298bebbd30 -->
<g id="edge1" class="edge">
<title>n0x62298bdad2e0&#45;&gt;n0x62298bebbd30</title>
<path fill="none" stroke="#ff0000" d="M165.31,-395.27C174.53,-382.69 185.15,-365.63 190,-348.5 195.72,-328.26 192.97,-305.03 188.44,-286.08"/>
<polygon fill="#ff0000" stroke="#ff0000" points="191.81,-285.11 185.87,-276.33 185.04,-286.89 191.81,-285.11"/>
</g>
<!-- n0x62298bdad2e0&#45;&gt;n0x62298bebbd30 -->
<g id="edge4" class="edge">
<title>n0x62298bdad2e0&#45;&gt;n0x62298bebbd30</title>
<path fill="none" stroke="#0000ff" d="M135.87,-393.19C128.24,-377.69 121.03,-356.41 126,-337.5 131.3,-317.31 142.36,-296.88 152.73,-280.72"/>
<polygon fill="#0000ff" stroke="#0000ff" points="155.76,-282.49 158.38,-272.22 149.93,-278.61 155.76,-282.49"/>
<text text-anchor="middle" x="134" y="-340.5" font-family="SF Pro Text Bold 10" font-size="10.00">%2</text>
</g>
<!-- n0x62298bdad2e0&#45;&gt;n0x62298bebbd30 -->
<g id="edge8" class="edge">
<title>n0x62298bdad2e0&#45;&gt;n0x62298bebbd30</title>
<path fill="none" stroke="#00ff00" d="M153.1,-389.93C157.5,-362.82 164.55,-319.41 169.66,-287.9"/>
<polygon fill="#00ff00" stroke="#00ff00" points="173.17,-288.14 171.32,-277.71 166.26,-287.02 173.17,-288.14"/>
<text text-anchor="middle" x="169" y="-340.5" font-family="SF Pro Text Bold 10" font-size="10.00">%2</text>
</g>
<!-- n0x62298bec6880 -->
<g id="node3" class="node">
<title>n0x62298bec6880</title>
<ellipse fill="#e8eef9" stroke="#1f1d31" cx="205" cy="-135.13" rx="21.8" ry="21.8"/>
<text text-anchor="middle" x="205" y="-132.33" font-family="SF Pro Text Bold 10" font-size="11.00" fill="#000000">call</text>
</g>
<!-- n0x62298bebbd30&#45;&gt;n0x62298bec6880 -->
<g id="edge2" class="edge">
<title>n0x62298bebbd30&#45;&gt;n0x62298bec6880</title>
<path fill="none" stroke="#ff0000" d="M160.13,-221.97C154.32,-209.64 150.39,-194.68 156,-181.78 160.83,-170.68 169.84,-161.06 178.82,-153.55"/>
<polygon fill="#ff0000" stroke="#ff0000" points="181.18,-156.15 186.95,-147.26 176.9,-150.61 181.18,-156.15"/>
</g>
<!-- n0x62298bebbd30&#45;&gt;n0x62298bec6880 -->
<g id="edge7" class="edge">
<title>n0x62298bebbd30&#45;&gt;n0x62298bec6880</title>
<path fill="none" stroke="#0000ff" d="M175.73,-217.57C176.28,-206.21 177.71,-193.21 181,-181.78 182.85,-175.35 185.67,-168.77 188.74,-162.69"/>
<polygon fill="#0000ff" stroke="#0000ff" points="191.96,-164.09 193.65,-153.63 185.8,-160.76 191.96,-164.09"/>
<text text-anchor="middle" x="189" y="-184.78" font-family="SF Pro Text Bold 10" font-size="10.00">%3</text>
</g>
<!-- n0x62298bebbd30&#45;&gt;n0x62298bec6880 -->
<g id="edge11" class="edge">
<title>n0x62298bebbd30&#45;&gt;n0x62298bec6880</title>
<path fill="none" stroke="#00ff00" d="M189.08,-220.45C192.85,-211.82 196.59,-202.06 199,-192.78 201.13,-184.57 202.51,-175.5 203.4,-167.07"/>
<polygon fill="#00ff00" stroke="#00ff00" points="206.9,-167.11 204.28,-156.85 199.93,-166.51 206.9,-167.11"/>
<text text-anchor="middle" x="210" y="-184.78" font-family="SF Pro Text Bold 10" font-size="10.00">%3</text>
</g>
<!-- n0x62298beb99d0 -->
<g id="node4" class="node">
<title>n0x62298beb99d0</title>
<ellipse fill="#e8eef9" stroke="#1f1d31" cx="205" cy="-43.24" rx="19.49" ry="19.49"/>
<text text-anchor="middle" x="205" y="-40.44" font-family="SF Pro Text Bold 10" font-size="11.00" fill="#000000">ret</text>
</g>
<!-- n0x62298bec6880&#45;&gt;n0x62298beb99d0 -->
<g id="edge3" class="edge">
<title>n0x62298bec6880&#45;&gt;n0x62298beb99d0</title>
<path fill="none" stroke="#ff0000" d="M205,-113.29C205,-101.17 205,-85.74 205,-72.54"/>
<polygon fill="#ff0000" stroke="#ff0000" points="208.5,-72.54 205,-62.54 201.5,-72.54 208.5,-72.54"/>
</g>
<!-- n0x62298be648c0 -->
<g id="node5" class="node">
<title>n0x62298be648c0</title>
<ellipse fill="#00eef9" stroke="#1f1d31" cx="149" cy="-551.76" rx="31.74" ry="31.74"/>
<text text-anchor="middle" x="149" y="-548.96" font-family="SF Pro Text Bold 10" font-size="11.00" fill="#000000">i32 %0</text>
</g>
<!-- n0x62298be648c0&#45;&gt;n0x62298bdad2e0 -->
<g id="edge5" class="edge">
<title>n0x62298be648c0&#45;&gt;n0x62298bdad2e0</title>
<path fill="none" stroke="#00ff00" d="M149,-519.78C149,-499.87 149,-473.93 149,-453.12"/>
<polygon fill="#00ff00" stroke="#00ff00" points="152.5,-453.06 149,-443.06 145.5,-453.06 152.5,-453.06"/>
<text text-anchor="middle" x="157" y="-486.89" font-family="SF Pro Text Bold 10" font-size="10.00">%0</text>
</g>
<!-- n0x62298be6bf10 -->
<g id="node6" class="node">
<title>n0x62298be6bf10</title>
<ellipse fill="#00eef9" stroke="#1f1d31" cx="301" cy="-551.76" rx="26.42" ry="26.42"/>
<text text-anchor="middle" x="301" y="-548.96" font-family="SF Pro Text Bold 10" font-size="11.00" fill="#000000">i32 0</text>
</g>
<!-- n0x62298be6bf10&#45;&gt;n0x62298bdad2e0 -->
<g id="edge6" class="edge">
<title>n0x62298be6bf10&#45;&gt;n0x62298bdad2e0</title>
<path fill="none" stroke="#00ff00" d="M279.88,-534.97C256.63,-517.28 218.5,-487.35 188,-458.89 183.15,-454.36 178.17,-449.35 173.46,-444.42"/>
<polygon fill="#00ff00" stroke="#00ff00" points="175.73,-441.72 166.33,-436.82 170.62,-446.51 175.73,-441.72"/>
<text text-anchor="middle" x="237.5" y="-486.89" font-family="SF Pro Text Bold 10" font-size="10.00">%&#45;1</text>
</g>
<!-- n0x62298beead40 -->
<g id="node11" class="node">
<title>n0x62298beead40</title>
<ellipse fill="#e8eef9" stroke="#1f1d31" cx="488" cy="-135.13" rx="19.49" ry="19.49"/>
<text text-anchor="middle" x="488" y="-132.33" font-family="SF Pro Text Bold 10" font-size="11.00" fill="#000000">ret</text>
</g>
<!-- n0x62298be6bf10&#45;&gt;n0x62298beead40 -->
<g id="edge16" class="edge">
<title>n0x62298be6bf10&#45;&gt;n0x62298beead40</title>
<path fill="none" stroke="#00ff00" d="M322.48,-535.93C366.05,-504.24 463.01,-424.97 491,-329.5 507.66,-272.66 499.94,-202.33 493.52,-164.1"/>
<polygon fill="#00ff00" stroke="#00ff00" points="496.96,-163.44 491.77,-154.2 490.07,-164.66 496.96,-163.44"/>
<text text-anchor="middle" x="497.5" y="-340.5" font-family="SF Pro Text Bold 10" font-size="10.00">%&#45;1</text>
</g>
<!-- n0x62298beeaae0 -->
<g id="node7" class="node">
<title>n0x62298beeaae0</title>
<ellipse fill="#00eef9" stroke="#1f1d31" cx="61" cy="-416.19" rx="36.86" ry="36.86"/>
<text text-anchor="middle" x="61" y="-413.39" font-family="SF Pro Text Bold 10" font-size="11.00" fill="#000000">ptr @str</text>
</g>
<!-- n0x62298beeaae0&#45;&gt;n0x62298bebbd30 -->
<g id="edge9" class="edge">
<title>n0x62298beeaae0&#45;&gt;n0x62298bebbd30</title>
<path fill="none" stroke="#00ff00" d="M75.43,-382.08C82.16,-367.91 90.72,-351.45 100,-337.5 114.18,-316.17 132.88,-294.31 148.17,-277.63"/>
<polygon fill="#00ff00" stroke="#00ff00" points="151.13,-279.59 155.38,-269.88 146,-274.82 151.13,-279.59"/>
<text text-anchor="middle" x="109.5" y="-340.5" font-family="SF Pro Text Bold 10" font-size="10.00">%&#45;1</text>
</g>
<!-- n0x62298be6bcd0 -->
<g id="node8" class="node">
<title>n0x62298be6bcd0</title>
<ellipse fill="#00eef9" stroke="#1f1d31" cx="243" cy="-416.19" rx="42.89" ry="42.89"/>
<text text-anchor="middle" x="243" y="-413.39" font-family="SF Pro Text Bold 10" font-size="11.00" fill="#000000">ptr @str.2</text>
</g>
<!-- n0x62298be6bcd0&#45;&gt;n0x62298bebbd30 -->
<g id="edge10" class="edge">
<title>n0x62298be6bcd0&#45;&gt;n0x62298bebbd30</title>
<path fill="none" stroke="#00ff00" d="M227.29,-376.19C216.23,-348.74 201.53,-312.24 190.7,-285.36"/>
<polygon fill="#00ff00" stroke="#00ff00" points="193.89,-283.89 186.9,-275.92 187.39,-286.51 193.89,-283.89"/>
<text text-anchor="middle" x="225.5" y="-340.5" font-family="SF Pro Text Bold 10" font-size="10.00">%&#45;1</text>
</g>
<!-- n0x62298bea98d0 -->
<g id="node10" class="node">
<title>n0x62298bea98d0</title>
<ellipse fill="#e8eef9" stroke="#1f1d31" cx="457" cy="-247.85" rx="21.8" ry="21.8"/>
<text text-anchor="middle" x="457" y="-245.05" font-family="SF Pro Text Bold 10" font-size="11.00" fill="#000000">call</text>
</g>
<!-- n0x62298be6bcd0&#45;&gt;n0x62298bea98d0 -->
<g id="edge14" class="edge">
<title>n0x62298be6bcd0&#45;&gt;n0x62298bea98d0</title>
<path fill="none" stroke="#00ff00" d="M276,-388.53C283.08,-383.28 290.65,-378.01 298,-373.5 329.17,-354.36 337.43,-349.45 372,-337.5 387.9,-332 395.34,-339.32 409,-329.5 426.64,-316.82 438.92,-295.47 446.64,-277.93"/>
<polygon fill="#00ff00" stroke="#00ff00" points="449.89,-279.23 450.47,-268.65 443.42,-276.56 449.89,-279.23"/>
<text text-anchor="middle" x="381.5" y="-340.5" font-family="SF Pro Text Bold 10" font-size="10.00">%&#45;1</text>
</g>
<!-- n0x62298bea78d8 -->
<g id="node9" class="node">
<title>n0x62298bea78d8</title>
<ellipse fill="#00eef9" stroke="#1f1d31" cx="353" cy="-416.19" rx="42.19" ry="42.19"/>
<text text-anchor="middle" x="353" y="-413.39" font-family="SF Pro Text Bold 10" font-size="11.00" fill="#000000">ptr @puts</text>
</g>
<!-- n0x62298bea78d8&#45;&gt;n0x62298bec6880 -->
<g id="edge12" class="edge">
<title>n0x62298bea78d8&#45;&gt;n0x62298bec6880</title>
<path fill="none" stroke="#00ff00" d="M333.65,-378.71C303.62,-322.08 246.45,-214.29 219.61,-163.68"/>
<polygon fill="#00ff00" stroke="#00ff00" points="222.59,-161.83 214.81,-154.63 216.4,-165.11 222.59,-161.83"/>
<text text-anchor="middle" x="314.5" y="-245.35" font-family="SF Pro Text Bold 10" font-size="10.00">%&#45;1</text>
</g>
<!-- n0x62298bea78d8&#45;&gt;n0x62298bea98d0 -->
<g id="edge15" class="edge">
<title>n0x62298bea78d8&#45;&gt;n0x62298bea98d0</title>
<path fill="none" stroke="#00ff00" d="M375.95,-380.8C386.21,-365.23 398.37,-346.54 409,-329.5 420.1,-311.7 432.18,-291.41 441.44,-275.63"/>
<polygon fill="#00ff00" stroke="#00ff00" points="444.51,-277.32 446.54,-266.92 438.47,-273.78 444.51,-277.32"/>
<text text-anchor="middle" x="412.5" y="-340.5" font-family="SF Pro Text Bold 10" font-size="10.00">%&#45;1</text>
</g>
<!-- n0x62298bea98d0&#45;&gt;n0x62298beead40 -->
<g id="edge13" class="edge">
<title>n0x62298bea98d0&#45;&gt;n0x62298beead40</title>
<path fill="none" stroke="#ff0000" d="M462.61,-226.8C467.55,-209.16 474.79,-183.3 480.28,-163.71"/>
<polygon fill="#ff0000" stroke="#ff0000" points="483.72,-164.42 483.04,-153.84 476.97,-162.53 483.72,-164.42"/>
</g>
</g>
</svg>
