<?xml version="1.0" encoding="UTF-8" standalone="no"?>
<!DOCTYPE svg PUBLIC "-//W3C//DTD SVG 1.1//EN"
 "http://www.w3.org/Graphics/SVG/1.1/DTD/svg11.dtd">
<!-- Generated by graphviz version 2.43.0 (0)
 -->
<!-- Title: examples/hello/hello.c Pages: 1 -->
<svg width="1043pt" height="889pt"
 viewBox="0.00 0.00 1043.20 889.02" xmlns="http://www.w3.org/2000/svg" xmlns:xlink="http://www.w3.org/1999/xlink">
<g id="graph0" class="graph" transform="scale(1 1) rotate(0) translate(21.6 867.42)">
<title>examples/hello/hello.c</title>
<polygon fill="white" stroke="transparent" points="-21.6,21.6 -21.6,-867.42 1021.6,-867.42 1021.6,21.6 -21.6,21.6"/>
<g id="clust1" class="cluster">
<title>cluster_1</title>
<path fill="none" stroke="#c0c0c0" d="M20,-8C20,-8 723,-8 723,-8 729,-8 735,-14 735,-20 735,-20 735,-825.82 735,-825.82 735,-831.82 729,-837.82 723,-837.82 723,-837.82 20,-837.82 20,-837.82 14,-837.82 8,-831.82 8,-825.82 8,-825.82 8,-20 8,-20 8,-14 14,-8 20,-8"/>
<text text-anchor="start" x="16" y="-824.42" font-family="SF Pro Text Bold 10" font-weight="bold" font-size="13.00">func</text>
</g>
<g id="clust2" class="cluster">
<title>cluster_1_1</title>
<path fill="none" stroke="#c0c0c0" d="M470,-16C470,-16 715,-16 715,-16 721,-16 727,-22 727,-28 727,-28 727,-775.98 727,-775.98 727,-781.98 721,-787.98 715,-787.98 715,-787.98 470,-787.98 470,-787.98 464,-787.98 458,-781.98 458,-775.98 458,-775.98 458,-28 458,-28 458,-22 464,-16 470,-16"/>
<text text-anchor="start" x="466" y="-774.58" font-family="SF Pro Text Bold 10" font-weight="bold" font-size="13.00">BasicBlock_1</text>
</g>
<g id="clust3" class="cluster">
<title>cluster_1_2</title>
<path fill="none" stroke="#c0c0c0" d="M138,-384.77C138,-384.77 325,-384.77 325,-384.77 331,-384.77 337,-390.77 337,-396.77 337,-396.77 337,-795.82 337,-795.82 337,-801.82 331,-807.82 325,-807.82 325,-807.82 138,-807.82 138,-807.82 132,-807.82 126,-801.82 126,-795.82 126,-795.82 126,-396.77 126,-396.77 126,-390.77 132,-384.77 138,-384.77"/>
<text text-anchor="start" x="134" y="-794.42" font-family="SF Pro Text Bold 10" font-weight="bold" font-size="13.00">BasicBlock_2</text>
</g>
<g id="clust4" class="cluster">
<title>cluster_1_3</title>
<path fill="none" stroke="#c0c0c0" d="M358,-384.77C358,-384.77 438,-384.77 438,-384.77 444,-384.77 450,-390.77 450,-396.77 450,-396.77 450,-794.02 450,-794.02 450,-800.02 444,-806.02 438,-806.02 438,-806.02 358,-806.02 358,-806.02 352,-806.02 346,-800.02 346,-794.02 346,-794.02 346,-396.77 346,-396.77 346,-390.77 352,-384.77 358,-384.77"/>
<text text-anchor="start" x="354" y="-792.62" font-family="SF Pro Text Bold 10" font-weight="bold" font-size="13.00">BasicBlock_3</text>
</g>
<g id="clust5" class="cluster">
<title>cluster_1_4</title>
<path fill="none" stroke="#c0c0c0" d="M28,-704.88C28,-704.88 106,-704.88 106,-704.88 112,-704.88 118,-710.88 118,-716.88 118,-716.88 118,-769.36 118,-769.36 118,-775.36 112,-781.36 106,-781.36 106,-781.36 28,-781.36 28,-781.36 22,-781.36 16,-775.36 16,-769.36 16,-769.36 16,-716.88 16,-716.88 16,-710.88 22,-704.88 28,-704.88"/>
<text text-anchor="start" x="24" y="-767.96" font-family="SF Pro Text Bold 10" font-weight="bold" font-size="13.00">BasicBlock_4</text>
</g>
<g id="clust7" class="cluster">
<title>cluster_3</title>
<path fill="none" stroke="#c0c0c0" d="M772,-123.64C772,-123.64 945,-123.64 945,-123.64 951,-123.64 957,-129.64 957,-135.64 957,-135.64 957,-630.42 957,-630.42 957,-636.42 951,-642.42 945,-642.42 945,-642.42 772,-642.42 772,-642.42 766,-642.42 760,-636.42 760,-630.42 760,-630.42 760,-135.64 760,-135.64 760,-129.64 766,-123.64 772,-123.64"/>
<text text-anchor="start" x="768" y="-629.02" font-family="SF Pro Text Bold 10" font-weight="bold" font-size="13.00">main</text>
</g>
<g id="clust8" class="cluster">
<title>cluster_3_1</title>
<path fill="none" stroke="#c0c0c0" d="M780,-131.64C780,-131.64 937,-131.64 937,-131.64 943,-131.64 949,-137.64 949,-143.64 949,-143.64 949,-600.42 949,-600.42 949,-606.42 943,-612.42 937,-612.42 937,-612.42 780,-612.42 780,-612.42 774,-612.42 768,-606.42 768,-600.42 768,-600.42 768,-143.64 768,-143.64 768,-137.64 774,-131.64 780,-131.64"/>
<text text-anchor="start" x="776" y="-599.02" font-family="SF Pro Text Bold 10" font-weight="bold" font-size="13.00">BasicBlock_1</text>
</g>
<!-- n0x62298be6bcd0 -->
<g id="node1" class="node">
<title>n0x62298be6bcd0</title>
<ellipse fill="#e8eef9" stroke="#1f1d31" cx="601" cy="-552.35" rx="30.13" ry="30.13"/>
<text text-anchor="middle" x="601" y="-549.55" font-family="SF Pro Text Bold 10" font-size="11.00" fill="#000000">alloca</text>
</g>
<!-- n0x62298bea98d0 -->
<g id="node2" class="node">
<title>n0x62298bea98d0</title>
<ellipse fill="#e8eef9" stroke="#1f1d31" cx="514" cy="-410.77" rx="27.12" ry="27.12"/>
<text text-anchor="middle" x="514" y="-407.97" font-family="SF Pro Text Bold 10" font-size="11.00" fill="#000000">store</text>
</g>
<!-- n0x62298be6bcd0&#45;&gt;n0x62298bea98d0 -->
<g id="edge1" class="edge">
<title>n0x62298be6bcd0&#45;&gt;n0x62298bea98d0</title>
<path fill="none" stroke="#ff0000" d="M575.5,-535.79C553.61,-521.85 524.57,-501.75 518,-489.47 511.3,-476.94 509.44,-461.59 509.56,-447.85"/>
<polygon fill="#ff0000" stroke="#ff0000" points="513.06,-447.87 509.99,-437.73 506.07,-447.57 513.06,-447.87"/>
</g>
<!-- n0x62298be6bcd0&#45;&gt;n0x62298bea98d0 -->
<g id="edge6" class="edge">
<title>n0x62298be6bcd0&#45;&gt;n0x62298bea98d0</title>
<path fill="none" stroke="#0000ff" d="M578.89,-531.88C566.98,-520.47 552.78,-505.24 543,-489.47 534.88,-476.37 528.48,-460.65 523.78,-446.78"/>
<polygon fill="#0000ff" stroke="#0000ff" points="527.05,-445.52 520.66,-437.08 520.39,-447.67 527.05,-445.52"/>
<text text-anchor="middle" x="551" y="-481.47" font-family="SF Pro Text Bold 10" font-size="10.00">%2</text>
</g>
<!-- n0x62298be6bcd0&#45;&gt;n0x62298bea98d0 -->
<g id="edge9" class="edge">
<title>n0x62298be6bcd0&#45;&gt;n0x62298bea98d0</title>
<path fill="none" stroke="#00ff00" d="M587.62,-525.31C580.16,-511.23 570.48,-493.65 561,-478.47 553.23,-466.02 544.05,-452.72 535.88,-441.31"/>
<polygon fill="#00ff00" stroke="#00ff00" points="538.56,-439.04 529.86,-432.99 532.89,-443.14 538.56,-439.04"/>
<text text-anchor="middle" x="574" y="-481.47" font-family="SF Pro Text Bold 10" font-size="10.00">%2</text>
</g>
<!-- n0x62298bee8d00 -->
<g id="node3" class="node">
<title>n0x62298bee8d00</title>
<ellipse fill="#e8eef9" stroke="#1f1d31" cx="636" cy="-282.42" rx="24.81" ry="24.81"/>
<text text-anchor="middle" x="636" y="-279.62" font-family="SF Pro Text Bold 10" font-size="11.00" fill="#000000">load</text>
</g>
<!-- n0x62298be6bcd0&#45;&gt;n0x62298bee8d00 -->
<g id="edge5" class="edge">
<title>n0x62298be6bcd0&#45;&gt;n0x62298bee8d00</title>
<path fill="none" stroke="#0000ff" d="M610.36,-523.6C613.58,-513.03 616.91,-500.8 619,-489.47 630.1,-429.4 633.95,-358.14 635.29,-317.11"/>
<polygon fill="#0000ff" stroke="#0000ff" points="638.79,-317.21 635.59,-307.11 631.79,-317 638.79,-317.21"/>
<text text-anchor="middle" x="640" y="-408.27" font-family="SF Pro Text Bold 10" font-size="10.00">%2</text>
</g>
<!-- n0x62298be6bcd0&#45;&gt;n0x62298bee8d00 -->
<g id="edge11" class="edge">
<title>n0x62298be6bcd0&#45;&gt;n0x62298bee8d00</title>
<path fill="none" stroke="#00ff00" d="M597.82,-522.13C594.62,-485.68 591.5,-421.63 602,-368.08 605.66,-349.42 613.37,-329.64 620.52,-313.89"/>
<polygon fill="#00ff00" stroke="#00ff00" points="623.77,-315.2 624.86,-304.66 617.44,-312.22 623.77,-315.2"/>
<text text-anchor="middle" x="610" y="-408.27" font-family="SF Pro Text Bold 10" font-size="10.00">%2</text>
</g>
<!-- n0x62298bea98d0&#45;&gt;n0x62298bee8d00 -->
<g id="edge2" class="edge">
<title>n0x62298bea98d0&#45;&gt;n0x62298bee8d00</title>
<path fill="none" stroke="#ff0000" d="M531.38,-389.55C545.28,-373.61 565.43,-351 584,-332.08 592.35,-323.57 601.8,-314.56 610.32,-306.64"/>
<polygon fill="#ff0000" stroke="#ff0000" points="612.85,-309.07 617.83,-299.72 608.11,-303.92 612.85,-309.07"/>
</g>
<!-- n0x62298bdad2e0 -->
<g id="node4" class="node">
<title>n0x62298bdad2e0</title>
<ellipse fill="#e8eef9" stroke="#1f1d31" cx="693" cy="-158.88" rx="26.42" ry="26.42"/>
<text text-anchor="middle" x="693" y="-156.08" font-family="SF Pro Text Bold 10" font-size="11.00" fill="#000000">icmp</text>
</g>
<!-- n0x62298bee8d00&#45;&gt;n0x62298bdad2e0 -->
<g id="edge3" class="edge">
<title>n0x62298bee8d00&#45;&gt;n0x62298bdad2e0</title>
<path fill="none" stroke="#ff0000" d="M656.18,-267.9C667.3,-259.26 680.2,-247.01 687,-232.77 692.47,-221.31 694.58,-207.68 695.13,-195.33"/>
<polygon fill="#ff0000" stroke="#ff0000" points="698.63,-195.37 695.25,-185.33 691.63,-195.28 698.63,-195.37"/>
</g>
<!-- n0x62298bee8d00&#45;&gt;n0x62298bdad2e0 -->
<g id="edge10" class="edge">
<title>n0x62298bee8d00&#45;&gt;n0x62298bdad2e0</title>
<path fill="none" stroke="#0000ff" d="M624.89,-260.22C620.3,-248.46 617.24,-233.82 623,-221.77 630.64,-205.8 640.67,-208.41 654,-196.77 658.21,-193.09 662.59,-189.11 666.83,-185.17"/>
<polygon fill="#0000ff" stroke="#0000ff" points="669.35,-187.6 674.24,-178.2 664.55,-182.5 669.35,-187.6"/>
<text text-anchor="middle" x="631" y="-224.77" font-family="SF Pro Text Bold 10" font-size="10.00">%3</text>
</g>
<!-- n0x62298bee8d00&#45;&gt;n0x62298bdad2e0 -->
<g id="edge13" class="edge">
<title>n0x62298bee8d00&#45;&gt;n0x62298bdad2e0</title>
<path fill="none" stroke="#00ff00" d="M646.19,-259.69C654.97,-240.98 667.76,-213.71 677.75,-192.4"/>
<polygon fill="#00ff00" stroke="#00ff00" points="681.04,-193.62 682.12,-183.08 674.71,-190.65 681.04,-193.62"/>
<text text-anchor="middle" x="670" y="-224.77" font-family="SF Pro Text Bold 10" font-size="10.00">%3</text>
</g>
<!-- n0x62298be6bac0 -->
<g id="node5" class="node">
<title>n0x62298be6bac0</title>
<ellipse fill="#e8eef9" stroke="#1f1d31" cx="649" cy="-42" rx="18" ry="18"/>
<text text-anchor="middle" x="649" y="-39.2" font-family="SF Pro Text Bold 10" font-size="11.00" fill="#000000">br</text>
</g>
<!-- n0x62298bdad2e0&#45;&gt;n0x62298be6bac0 -->
<g id="edge4" class="edge">
<title>n0x62298bdad2e0&#45;&gt;n0x62298be6bac0</title>
<path fill="none" stroke="#ff0000" d="M684.3,-133.85C679.1,-119.61 672.29,-101.23 666,-85 663.9,-79.59 661.6,-73.81 659.39,-68.33"/>
<polygon fill="#ff0000" stroke="#ff0000" points="662.58,-66.86 655.57,-58.91 656.09,-69.49 662.58,-66.86"/>
</g>
<!-- n0x62298bdad2e0&#45;&gt;n0x62298be6bac0 -->
<g id="edge12" class="edge">
<title>n0x62298bdad2e0&#45;&gt;n0x62298be6bac0</title>
<path fill="none" stroke="#0000ff" d="M687.75,-132.74C684.36,-118.45 679.39,-100.39 673,-85 670.42,-78.79 667.11,-72.36 663.77,-66.45"/>
<polygon fill="#0000ff" stroke="#0000ff" points="666.71,-64.53 658.61,-57.7 660.68,-68.09 666.71,-64.53"/>
<text text-anchor="middle" x="684" y="-88" font-family="SF Pro Text Bold 10" font-size="10.00">%4</text>
</g>
<!-- n0x62298bdad2e0&#45;&gt;n0x62298be6bac0 -->
<g id="edge15" class="edge">
<title>n0x62298bdad2e0&#45;&gt;n0x62298be6bac0</title>
<path fill="none" stroke="#00ff00" d="M673.83,-140.42C662.79,-129 649.94,-113.08 644,-96 641.11,-87.68 641.06,-78.22 642.14,-69.61"/>
<polygon fill="#00ff00" stroke="#00ff00" points="645.6,-70.13 643.9,-59.67 638.71,-68.9 645.6,-70.13"/>
<text text-anchor="middle" x="652" y="-88" font-family="SF Pro Text Bold 10" font-size="10.00">%4</text>
</g>
<!-- n0x62298be8fa30 -->
<g id="node6" class="node">
<title>n0x62298be8fa30</title>
<ellipse fill="#00eef9" stroke="#1f1d31" cx="693" cy="-732.12" rx="25.72" ry="25.72"/>
<text text-anchor="middle" x="693" y="-729.32" font-family="SF Pro Text Bold 10" font-size="11.00" fill="#000000">i32 1</text>
</g>
<!-- n0x62298be8fa30&#45;&gt;n0x62298be6bcd0 -->
<g id="edge7" class="edge">
<title>n0x62298be8fa30&#45;&gt;n0x62298be6bcd0</title>
<path fill="none" stroke="#00ff00" d="M681.35,-708.61C665.68,-678.33 637.66,-624.19 619.2,-588.52"/>
<polygon fill="#00ff00" stroke="#00ff00" points="622.2,-586.7 614.5,-579.43 615.98,-589.92 622.2,-586.7"/>
<text text-anchor="middle" x="664.5" y="-653.42" font-family="SF Pro Text Bold 10" font-size="10.00">%&#45;1</text>
</g>
<!-- n0x62298beeaae0 -->
<g id="node20" class="node">
<title>n0x62298beeaae0</title>
<ellipse fill="#e8eef9" stroke="#1f1d31" cx="862" cy="-552.35" rx="30.13" ry="30.13"/>
<text text-anchor="middle" x="862" y="-549.55" font-family="SF Pro Text Bold 10" font-size="11.00" fill="#000000">alloca</text>
</g>
<!-- n0x62298be8fa30&#45;&gt;n0x62298beeaae0 -->
<g id="edge30" class="edge">
<title>n0x62298be8fa30&#45;&gt;n0x62298beeaae0</title>
<path fill="none" stroke="#00ff00" d="M710.45,-712.77C739.9,-681.79 799.66,-618.93 834.7,-582.07"/>
<polygon fill="#00ff00" stroke="#00ff00" points="837.43,-584.28 841.78,-574.62 832.35,-579.46 837.43,-584.28"/>
<text text-anchor="middle" x="776.5" y="-653.42" font-family="SF Pro Text Bold 10" font-size="10.00">%&#45;1</text>
</g>
<!-- n0x62298beeac20 -->
<g id="node22" class="node">
<title>n0x62298beeac20</title>
<ellipse fill="#e8eef9" stroke="#1f1d31" cx="864" cy="-282.42" rx="21.8" ry="21.8"/>
<text text-anchor="middle" x="864" y="-279.62" font-family="SF Pro Text Bold 10" font-size="11.00" fill="#000000">call</text>
</g>
<!-- n0x62298be8fa30&#45;&gt;n0x62298beeac20 -->
<g id="edge33" class="edge">
<title>n0x62298be8fa30&#45;&gt;n0x62298beeac20</title>
<path fill="none" stroke="#00ff00" d="M718.81,-727.78C763.6,-720.59 855.61,-699.4 905,-642.42 986.12,-548.82 1003.14,-481.77 954,-368.08 941.21,-338.49 912.42,-314.46 890.82,-299.67"/>
<polygon fill="#00ff00" stroke="#00ff00" points="892.64,-296.67 882.36,-294.09 888.78,-302.52 892.64,-296.67"/>
<text text-anchor="middle" x="990.5" y="-481.47" font-family="SF Pro Text Bold 10" font-size="10.00">%&#45;1</text>
</g>
<!-- n0x62298be648c0 -->
<g id="node7" class="node">
<title>n0x62298be648c0</title>
<ellipse fill="#00eef9" stroke="#1f1d31" cx="498" cy="-552.35" rx="31.74" ry="31.74"/>
<text text-anchor="middle" x="498" y="-549.55" font-family="SF Pro Text Bold 10" font-size="11.00" fill="#000000">i32 %0</text>
</g>
<!-- n0x62298be648c0&#45;&gt;n0x62298bea98d0 -->
<g id="edge8" class="edge">
<title>n0x62298be648c0&#45;&gt;n0x62298bea98d0</title>
<path fill="none" stroke="#00ff00" d="M490.87,-521.09C488.75,-507.94 487.57,-492.39 490,-478.47 491.94,-467.35 495.57,-455.64 499.43,-445.19"/>
<polygon fill="#00ff00" stroke="#00ff00" points="502.79,-446.2 503.15,-435.62 496.26,-443.67 502.79,-446.2"/>
<text text-anchor="middle" x="498" y="-481.47" font-family="SF Pro Text Bold 10" font-size="10.00">%0</text>
</g>
<!-- n0x62298be6bf10 -->
<g id="node8" class="node">
<title>n0x62298be6bf10</title>
<ellipse fill="#00eef9" stroke="#1f1d31" cx="693" cy="-552.35" rx="26.42" ry="26.42"/>
<text text-anchor="middle" x="693" y="-549.55" font-family="SF Pro Text Bold 10" font-size="11.00" fill="#000000">i32 0</text>
</g>
<!-- n0x62298be6bf10&#45;&gt;n0x62298bdad2e0 -->
<g id="edge14" class="edge">
<title>n0x62298be6bf10&#45;&gt;n0x62298bdad2e0</title>
<path fill="none" stroke="#00ff00" d="M693.11,-525.75C693.33,-471.65 693.83,-341.73 694,-232.77 694.01,-227.88 694.04,-226.66 694,-221.77 693.93,-213.29 693.81,-204.16 693.68,-195.58"/>
<polygon fill="#00ff00" stroke="#00ff00" points="697.17,-195.42 693.51,-185.48 690.17,-195.53 697.17,-195.42"/>
<text text-anchor="middle" x="702.5" y="-335.08" font-family="SF Pro Text Bold 10" font-size="10.00">%&#45;1</text>
</g>
<!-- n0x62298beeab80 -->
<g id="node21" class="node">
<title>n0x62298beeab80</title>
<ellipse fill="#e8eef9" stroke="#1f1d31" cx="914" cy="-410.77" rx="27.12" ry="27.12"/>
<text text-anchor="middle" x="914" y="-407.97" font-family="SF Pro Text Bold 10" font-size="11.00" fill="#000000">store</text>
</g>
<!-- n0x62298be6bf10&#45;&gt;n0x62298beeab80 -->
<g id="edge31" class="edge">
<title>n0x62298be6bf10&#45;&gt;n0x62298beeab80</title>
<path fill="none" stroke="#00ff00" d="M715.8,-538.06C741.6,-523.15 784.97,-498.43 823,-478.47 845.35,-466.74 853.62,-468.36 874,-453.47 879.55,-449.41 885,-444.54 890,-439.58"/>
<polygon fill="#00ff00" stroke="#00ff00" points="892.55,-441.97 896.96,-432.33 887.51,-437.12 892.55,-441.97"/>
<text text-anchor="middle" x="832.5" y="-481.47" font-family="SF Pro Text Bold 10" font-size="10.00">%&#45;1</text>
</g>
<!-- n0x62298beead40 -->
<g id="node23" class="node">
<title>n0x62298beead40</title>
<ellipse fill="#e8eef9" stroke="#1f1d31" cx="807" cy="-158.88" rx="19.49" ry="19.49"/>
<text text-anchor="middle" x="807" y="-156.08" font-family="SF Pro Text Bold 10" font-size="11.00" fill="#000000">ret</text>
</g>
<!-- n0x62298be6bf10&#45;&gt;n0x62298beead40 -->
<g id="edge35" class="edge">
<title>n0x62298be6bf10&#45;&gt;n0x62298beead40</title>
<path fill="none" stroke="#00ff00" d="M700.13,-526.86C720.29,-457.62 777.63,-260.72 798.92,-187.64"/>
<polygon fill="#00ff00" stroke="#00ff00" points="802.35,-188.36 801.79,-177.78 795.63,-186.41 802.35,-188.36"/>
<text text-anchor="middle" x="765.5" y="-335.08" font-family="SF Pro Text Bold 10" font-size="10.00">%&#45;1</text>
</g>
<!-- n0x62298bee8c90 -->
<g id="node9" class="node">
<title>n0x62298bee8c90</title>
<ellipse fill="#00eef9" stroke="#1f1d31" cx="604" cy="-158.88" rx="37.07" ry="37.07"/>
<text text-anchor="middle" x="604" y="-156.08" font-family="SF Pro Text Bold 10" font-size="11.00" fill="#000000">label %7</text>
</g>
<!-- n0x62298bee8c90&#45;&gt;n0x62298be6bac0 -->
<g id="edge16" class="edge">
<title>n0x62298bee8c90&#45;&gt;n0x62298be6bac0</title>
<path fill="none" stroke="#00ff00" d="M609.05,-121.8C611.48,-109.78 614.99,-96.52 620,-85 623.11,-77.85 627.51,-70.65 631.94,-64.28"/>
<polygon fill="#00ff00" stroke="#00ff00" points="634.78,-66.33 637.89,-56.2 629.15,-62.18 634.78,-66.33"/>
<text text-anchor="middle" x="627.5" y="-88" font-family="SF Pro Text Bold 10" font-size="10.00">%7</text>
</g>
<!-- n0x62298bee8bf0 -->
<g id="node10" class="node">
<title>n0x62298bee8bf0</title>
<ellipse fill="#00eef9" stroke="#1f1d31" cx="504" cy="-158.88" rx="37.77" ry="37.77"/>
<text text-anchor="middle" x="504" y="-156.08" font-family="SF Pro Text Bold 10" font-size="11.00" fill="#000000">label %5</text>
</g>
<!-- n0x62298bee8bf0&#45;&gt;n0x62298be6bac0 -->
<g id="edge17" class="edge">
<title>n0x62298bee8bf0&#45;&gt;n0x62298be6bac0</title>
<path fill="none" stroke="#00ff00" d="M533.01,-134.04C550.57,-119.7 573.45,-101.16 594,-85 604.66,-76.61 616.62,-67.45 626.66,-59.83"/>
<polygon fill="#00ff00" stroke="#00ff00" points="629.04,-62.42 634.9,-53.59 624.81,-56.84 629.04,-62.42"/>
<text text-anchor="middle" x="602" y="-88" font-family="SF Pro Text Bold 10" font-size="10.00">%5</text>
</g>
<!-- n0x62298bee9b70 -->
<g id="node11" class="node">
<title>n0x62298bee9b70</title>
<ellipse fill="#e8eef9" stroke="#1f1d31" cx="206" cy="-552.35" rx="21.8" ry="21.8"/>
<text text-anchor="middle" x="206" y="-549.55" font-family="SF Pro Text Bold 10" font-size="11.00" fill="#000000">call</text>
</g>
<!-- n0x62298bee9bf0 -->
<g id="node12" class="node">
<title>n0x62298bee9bf0</title>
<ellipse fill="#e8eef9" stroke="#1f1d31" cx="247" cy="-410.77" rx="18" ry="18"/>
<text text-anchor="middle" x="247" y="-407.97" font-family="SF Pro Text Bold 10" font-size="11.00" fill="#000000">br</text>
</g>
<!-- n0x62298bee9b70&#45;&gt;n0x62298bee9bf0 -->
<g id="edge18" class="edge">
<title>n0x62298bee9b70&#45;&gt;n0x62298bee9bf0</title>
<path fill="none" stroke="#ff0000" d="M211.87,-531.35C219.1,-506.76 231.38,-464.94 239.34,-437.84"/>
<polygon fill="#ff0000" stroke="#ff0000" points="242.7,-438.83 242.16,-428.25 235.98,-436.86 242.7,-438.83"/>
</g>
<!-- n0x62298bee9ad0 -->
<g id="node13" class="node">
<title>n0x62298bee9ad0</title>
<ellipse fill="#00eef9" stroke="#1f1d31" cx="173" cy="-732.12" rx="39.17" ry="39.17"/>
<text text-anchor="middle" x="173" y="-729.32" font-family="SF Pro Text Bold 10" font-size="11.00" fill="#000000">ptr @.str</text>
</g>
<!-- n0x62298bee9ad0&#45;&gt;n0x62298bee9b70 -->
<g id="edge19" class="edge">
<title>n0x62298bee9ad0&#45;&gt;n0x62298bee9b70</title>
<path fill="none" stroke="#00ff00" d="M180,-693.42C186.06,-660.78 194.71,-614.18 200.34,-583.84"/>
<polygon fill="#00ff00" stroke="#00ff00" points="203.81,-584.31 202.2,-573.84 196.93,-583.04 203.81,-584.31"/>
<text text-anchor="middle" x="197.5" y="-653.42" font-family="SF Pro Text Bold 10" font-size="10.00">%&#45;1</text>
</g>
<!-- n0x62298bdad338 -->
<g id="node14" class="node">
<title>n0x62298bdad338</title>
<ellipse fill="#00eef9" stroke="#1f1d31" cx="283" cy="-732.12" rx="45.9" ry="45.9"/>
<text text-anchor="middle" x="283" y="-729.32" font-family="SF Pro Text Bold 10" font-size="11.00" fill="#000000">ptr @printf</text>
</g>
<!-- n0x62298bdad338&#45;&gt;n0x62298bee9b70 -->
<g id="edge20" class="edge">
<title>n0x62298bdad338&#45;&gt;n0x62298bee9b70</title>
<path fill="none" stroke="#00ff00" d="M262.17,-691.26C257.34,-681.58 252.34,-671.2 248,-661.42 236.31,-635.1 224.57,-604.44 216.48,-582.52"/>
<polygon fill="#00ff00" stroke="#00ff00" points="219.76,-581.29 213.04,-573.1 213.19,-583.7 219.76,-581.29"/>
<text text-anchor="middle" x="257.5" y="-653.42" font-family="SF Pro Text Bold 10" font-size="10.00">%&#45;1</text>
</g>
<!-- n0x62298bee9d80 -->
<g id="node16" class="node">
<title>n0x62298bee9d80</title>
<ellipse fill="#e8eef9" stroke="#1f1d31" cx="376" cy="-552.35" rx="21.8" ry="21.8"/>
<text text-anchor="middle" x="376" y="-549.55" font-family="SF Pro Text Bold 10" font-size="11.00" fill="#000000">call</text>
</g>
<!-- n0x62298bdad338&#45;&gt;n0x62298bee9d80 -->
<g id="edge24" class="edge">
<title>n0x62298bdad338&#45;&gt;n0x62298bee9d80</title>
<path fill="none" stroke="#00ff00" d="M310.16,-695.22C321.26,-679.54 333.65,-660.61 343,-642.42 352.77,-623.42 361.1,-600.83 366.95,-583.16"/>
<polygon fill="#00ff00" stroke="#00ff00" points="370.36,-583.98 370.1,-573.39 363.7,-581.83 370.36,-583.98"/>
<text text-anchor="middle" x="347.5" y="-653.42" font-family="SF Pro Text Bold 10" font-size="10.00">%&#45;1</text>
</g>
<!-- n0x62298bee8c40 -->
<g id="node15" class="node">
<title>n0x62298bee8c40</title>
<ellipse fill="#00eef9" stroke="#1f1d31" cx="291" cy="-552.35" rx="37.77" ry="37.77"/>
<text text-anchor="middle" x="291" y="-549.55" font-family="SF Pro Text Bold 10" font-size="11.00" fill="#000000">label %9</text>
</g>
<!-- n0x62298bee8c40&#45;&gt;n0x62298bee9bf0 -->
<g id="edge21" class="edge">
<title>n0x62298bee8c40&#45;&gt;n0x62298bee9bf0</title>
<path fill="none" stroke="#00ff00" d="M277.54,-516.85C274.26,-507.99 270.87,-498.42 268,-489.47 262.6,-472.6 257.4,-453.39 253.52,-438.29"/>
<polygon fill="#00ff00" stroke="#00ff00" points="256.91,-437.41 251.07,-428.57 250.12,-439.13 256.91,-437.41"/>
<text text-anchor="middle" x="276" y="-481.47" font-family="SF Pro Text Bold 10" font-size="10.00">%9</text>
</g>
<!-- n0x62298bee9e00 -->
<g id="node17" class="node">
<title>n0x62298bee9e00</title>
<ellipse fill="#e8eef9" stroke="#1f1d31" cx="374" cy="-410.77" rx="18" ry="18"/>
<text text-anchor="middle" x="374" y="-407.97" font-family="SF Pro Text Bold 10" font-size="11.00" fill="#000000">br</text>
</g>
<!-- n0x62298bee8c40&#45;&gt;n0x62298bee9e00 -->
<g id="edge25" class="edge">
<title>n0x62298bee8c40&#45;&gt;n0x62298bee9e00</title>
<path fill="none" stroke="#00ff00" d="M310.04,-519.33C325.27,-493.72 346.27,-458.41 359.99,-435.34"/>
<polygon fill="#00ff00" stroke="#00ff00" points="363.11,-436.94 365.21,-426.56 357.09,-433.36 363.11,-436.94"/>
<text text-anchor="middle" x="341" y="-481.47" font-family="SF Pro Text Bold 10" font-size="10.00">%9</text>
</g>
<!-- n0x62298bee9d80&#45;&gt;n0x62298bee9e00 -->
<g id="edge22" class="edge">
<title>n0x62298bee9d80&#45;&gt;n0x62298bee9e00</title>
<path fill="none" stroke="#ff0000" d="M375.7,-530.46C375.35,-506.13 374.78,-465.86 374.39,-439.08"/>
<polygon fill="#ff0000" stroke="#ff0000" points="377.89,-438.8 374.24,-428.85 370.89,-438.9 377.89,-438.8"/>
</g>
<!-- n0x62298bee9c80 -->
<g id="node18" class="node">
<title>n0x62298bee9c80</title>
<ellipse fill="#00eef9" stroke="#1f1d31" cx="398" cy="-732.12" rx="43.8" ry="43.8"/>
<text text-anchor="middle" x="398" y="-729.32" font-family="SF Pro Text Bold 10" font-size="11.00" fill="#000000">ptr @.str.1</text>
</g>
<!-- n0x62298bee9c80&#45;&gt;n0x62298bee9d80 -->
<g id="edge23" class="edge">
<title>n0x62298bee9c80&#45;&gt;n0x62298bee9d80</title>
<path fill="none" stroke="#00ff00" d="M392.67,-688.09C388.71,-656.02 383.38,-612.97 379.82,-584.26"/>
<polygon fill="#00ff00" stroke="#00ff00" points="383.26,-583.5 378.56,-574.01 376.31,-584.36 383.26,-583.5"/>
<text text-anchor="middle" x="398.5" y="-653.42" font-family="SF Pro Text Bold 10" font-size="10.00">%&#45;1</text>
</g>
<!-- n0x62298beb99d0 -->
<g id="node19" class="node">
<title>n0x62298beb99d0</title>
<ellipse fill="#e8eef9" stroke="#1f1d31" cx="66" cy="-732.12" rx="19.49" ry="19.49"/>
<text text-anchor="middle" x="66" y="-729.32" font-family="SF Pro Text Bold 10" font-size="11.00" fill="#000000">ret</text>
</g>
<!-- n0x62298beeaae0&#45;&gt;n0x62298beeab80 -->
<g id="edge26" class="edge">
<title>n0x62298beeaae0&#45;&gt;n0x62298beeab80</title>
<path fill="none" stroke="#ff0000" d="M851.28,-523.93C847.42,-509.93 845.28,-492.86 851,-478.47 851.53,-477.14 871.26,-456.35 888.5,-438.32"/>
<polygon fill="#ff0000" stroke="#ff0000" points="891.28,-440.48 895.67,-430.84 886.23,-435.64 891.28,-440.48"/>
</g>
<!-- n0x62298beeaae0&#45;&gt;n0x62298beeab80 -->
<g id="edge29" class="edge">
<title>n0x62298beeaae0&#45;&gt;n0x62298beeab80</title>
<path fill="none" stroke="#0000ff" d="M865.33,-522.38C867.46,-508.77 870.82,-492.49 876,-478.47 880.55,-466.16 887.21,-453.46 893.7,-442.48"/>
<polygon fill="#0000ff" stroke="#0000ff" points="896.83,-444.08 899.06,-433.72 890.86,-440.43 896.83,-444.08"/>
<text text-anchor="middle" x="883" y="-481.47" font-family="SF Pro Text Bold 10" font-size="10.00">%1</text>
</g>
<!-- n0x62298beeaae0&#45;&gt;n0x62298beeab80 -->
<g id="edge32" class="edge">
<title>n0x62298beeaae0&#45;&gt;n0x62298beeab80</title>
<path fill="none" stroke="#00ff00" d="M875.74,-525.6C881.24,-514.66 887.37,-501.63 892,-489.47 897.17,-475.9 901.75,-460.58 905.38,-447.16"/>
<polygon fill="#00ff00" stroke="#00ff00" points="908.81,-447.89 907.97,-437.33 902.04,-446.11 908.81,-447.89"/>
<text text-anchor="middle" x="902" y="-481.47" font-family="SF Pro Text Bold 10" font-size="10.00">%1</text>
</g>
<!-- n0x62298beeab80&#45;&gt;n0x62298beeac20 -->
<g id="edge27" class="edge">
<title>n0x62298beeab80&#45;&gt;n0x62298beeac20</title>
<path fill="none" stroke="#ff0000" d="M904.36,-385.41C896.09,-364.52 884.16,-334.37 875.42,-312.28"/>
<polygon fill="#ff0000" stroke="#ff0000" points="878.58,-310.76 871.65,-302.75 872.07,-313.34 878.58,-310.76"/>
</g>
<!-- n0x62298beeac20&#45;&gt;n0x62298beead40 -->
<g id="edge28" class="edge">
<title>n0x62298beeac20&#45;&gt;n0x62298beead40</title>
<path fill="none" stroke="#ff0000" d="M855.09,-262.43C845.45,-241.87 830,-208.94 819.23,-185.96"/>
<polygon fill="#ff0000" stroke="#ff0000" points="822.34,-184.35 814.93,-176.78 816,-187.32 822.34,-184.35"/>
</g>
<!-- n0x62298bdac3a8 -->
<g id="node24" class="node">
<title>n0x62298bdac3a8</title>
<ellipse fill="#00eef9" stroke="#1f1d31" cx="819" cy="-410.77" rx="42.89" ry="42.89"/>
<text text-anchor="middle" x="819" y="-407.97" font-family="SF Pro Text Bold 10" font-size="11.00" fill="#000000">ptr @func</text>
</g>
<!-- n0x62298bdac3a8&#45;&gt;n0x62298beeac20 -->
<g id="edge34" class="edge">
<title>n0x62298bdac3a8&#45;&gt;n0x62298beeac20</title>
<path fill="none" stroke="#00ff00" d="M833.11,-370.14C839.75,-351.51 847.52,-329.69 853.61,-312.59"/>
<polygon fill="#00ff00" stroke="#00ff00" points="856.92,-313.73 856.98,-303.14 850.33,-311.38 856.92,-313.73"/>
<text text-anchor="middle" x="854.5" y="-335.08" font-family="SF Pro Text Bold 10" font-size="10.00">%&#45;1</text>
</g>
</g>
</svg>
