<?xml version="1.0" encoding="UTF-8" standalone="no"?>
<!DOCTYPE svg PUBLIC "-//W3C//DTD SVG 1.1//EN"
 "http://www.w3.org/Graphics/SVG/1.1/DTD/svg11.dtd">
<!-- Generated by graphviz version 2.43.0 (0)
 -->
<!-- Title: examples/hello/hello.c Pages: 1 -->
<svg width="1292pt" height="1278pt"
 viewBox="0.00 0.00 1292.20 1278.20" xmlns="http://www.w3.org/2000/svg" xmlns:xlink="http://www.w3.org/1999/xlink">
<g id="graph0" class="graph" transform="scale(1 1) rotate(0) translate(21.6 1256.6)">
<title>examples/hello/hello.c</title>
<polygon fill="white" stroke="transparent" points="-21.6,21.6 -21.6,-1256.6 1270.6,-1256.6 1270.6,21.6 -21.6,21.6"/>
<g id="clust1" class="cluster">
<title>cluster_func_0</title>
<path fill="#e3e3e3" stroke="#000000" stroke-width="2" d="M456,-8C456,-8 1229,-8 1229,-8 1235,-8 1241,-14 1241,-20 1241,-20 1241,-1215 1241,-1215 1241,-1221 1235,-1227 1229,-1227 1229,-1227 456,-1227 456,-1227 450,-1227 444,-1221 444,-1215 444,-1215 444,-20 444,-20 444,-14 450,-8 456,-8"/>
<text text-anchor="middle" x="842.5" y="-1207" font-family="SF Pro Text Bold 10" font-size="20.00">func</text>
</g>
<g id="clust2" class="cluster">
<title>cluster_func_0_bb_0</title>
<path fill="#a4a4a4" stroke="#000000" stroke-width="2" d="M747,-409C747,-409 948,-409 948,-409 954,-409 960,-415 960,-421 960,-421 960,-1177 960,-1177 960,-1183 954,-1189 948,-1189 948,-1189 747,-1189 747,-1189 741,-1189 735,-1183 735,-1177 735,-1177 735,-421 735,-421 735,-415 741,-409 747,-409"/>
<text text-anchor="middle" x="847.5" y="-1173" font-family="SF Pro Text Bold 10" font-size="15.00">label %1</text>
</g>
<g id="clust3" class="cluster">
<title>cluster_func_0_bb_1</title>
<path fill="#a4a4a4" stroke="#000000" stroke-width="2" d="M980,-147C980,-147 1221,-147 1221,-147 1227,-147 1233,-153 1233,-159 1233,-159 1233,-474 1233,-474 1233,-480 1227,-486 1221,-486 1221,-486 980,-486 980,-486 974,-486 968,-480 968,-474 968,-474 968,-159 968,-159 968,-153 974,-147 980,-147"/>
<text text-anchor="middle" x="1100.5" y="-470" font-family="SF Pro Text Bold 10" font-size="15.00">label %5</text>
</g>
<g id="clust4" class="cluster">
<title>cluster_func_0_bb_2</title>
<path fill="#a4a4a4" stroke="#000000" stroke-width="2" d="M464,-147C464,-147 715,-147 715,-147 721,-147 727,-153 727,-159 727,-159 727,-474 727,-474 727,-480 721,-486 715,-486 715,-486 464,-486 464,-486 458,-486 452,-480 452,-474 452,-474 452,-159 452,-159 452,-153 458,-147 464,-147"/>
<text text-anchor="middle" x="589.5" y="-470" font-family="SF Pro Text Bold 10" font-size="15.00">label %7</text>
</g>
<g id="clust5" class="cluster">
<title>cluster_func_0_bb_3</title>
<path fill="#a4a4a4" stroke="#000000" stroke-width="2" d="M820,-16C820,-16 876,-16 876,-16 882,-16 888,-22 888,-28 888,-28 888,-81 888,-81 888,-87 882,-93 876,-93 876,-93 820,-93 820,-93 814,-93 808,-87 808,-81 808,-81 808,-28 808,-28 808,-22 814,-16 820,-16"/>
<text text-anchor="middle" x="848" y="-77" font-family="SF Pro Text Bold 10" font-size="15.00">label %9</text>
</g>
<g id="clust7" class="cluster">
<title>cluster_func_2</title>
<path fill="#e3e3e3" stroke="#000000" stroke-width="2" d="M20,-548C20,-548 424,-548 424,-548 430,-548 436,-554 436,-560 436,-560 436,-1215 436,-1215 436,-1221 430,-1227 424,-1227 424,-1227 20,-1227 20,-1227 14,-1227 8,-1221 8,-1215 8,-1215 8,-560 8,-560 8,-554 14,-548 20,-548"/>
<text text-anchor="middle" x="222" y="-1207" font-family="SF Pro Text Bold 10" font-size="20.00">main</text>
</g>
<g id="clust8" class="cluster">
<title>cluster_func_2_bb_4</title>
<path fill="#a4a4a4" stroke="#000000" stroke-width="2" d="M28,-556C28,-556 416,-556 416,-556 422,-556 428,-562 428,-568 428,-568 428,-1177 428,-1177 428,-1183 422,-1189 416,-1189 416,-1189 28,-1189 28,-1189 22,-1189 16,-1183 16,-1177 16,-1177 16,-568 16,-568 16,-562 22,-556 28,-556"/>
<text text-anchor="middle" x="222" y="-1173" font-family="SF Pro Text Bold 10" font-size="15.00">label %0</text>
</g>
<!-- node_0 -->
<g id="node1" class="node">
<title>node_0</title>
<path fill="#6d95df" stroke="#000000" d="M926,-1025C926,-1025 888,-1025 888,-1025 882,-1025 876,-1019 876,-1013 876,-1013 876,-1001 876,-1001 876,-995 882,-989 888,-989 888,-989 926,-989 926,-989 932,-989 938,-995 938,-1001 938,-1001 938,-1013 938,-1013 938,-1019 932,-1025 926,-1025"/>
<text text-anchor="middle" x="907" y="-1003.5" font-family="SF Pro Text Bold 10" font-size="15.00" fill="#000000">alloca</text>
</g>
<!-- node_1 -->
<g id="node2" class="node">
<title>node_1</title>
<path fill="#6d95df" stroke="#000000" d="M786.5,-878C786.5,-878 755.5,-878 755.5,-878 749.5,-878 743.5,-872 743.5,-866 743.5,-866 743.5,-854 743.5,-854 743.5,-848 749.5,-842 755.5,-842 755.5,-842 786.5,-842 786.5,-842 792.5,-842 798.5,-848 798.5,-854 798.5,-854 798.5,-866 798.5,-866 798.5,-872 792.5,-878 786.5,-878"/>
<text text-anchor="middle" x="771" y="-856.5" font-family="SF Pro Text Bold 10" font-size="15.00" fill="#000000">store</text>
</g>
<!-- node_0&#45;&gt;node_1 -->
<g id="edge1" class="edge">
<title>node_0&#45;&gt;node_1</title>
<path fill="none" stroke="#ff3636" stroke-width="3" d="M889.34,-988.89C876.32,-976.15 858.31,-958.23 843,-942 825.63,-923.58 806.63,-902.15 792.51,-885.96"/>
<polygon fill="#ff3636" stroke="#ff3636" stroke-width="3" points="794.81,-883.27 785.61,-878.01 789.53,-887.86 794.81,-883.27"/>
</g>
<!-- node_0&#45;&gt;node_1 -->
<g id="edge15" class="edge">
<title>node_0&#45;&gt;node_1</title>
<path fill="none" stroke="#00b3ff" stroke-width="2" d="M893.77,-988.69C880.68,-971.9 859.8,-945.96 840,-925 826.9,-911.13 811.39,-896.6 798.4,-884.9"/>
<polygon fill="#00b3ff" stroke="#00b3ff" stroke-width="2" points="800.47,-882.05 790.68,-878 795.81,-887.27 800.47,-882.05"/>
<text text-anchor="middle" x="864.5" y="-930" font-family="SF Pro Text Bold 10" font-size="15.00">%2</text>
</g>
<!-- node_2 -->
<g id="node3" class="node">
<title>node_2</title>
<path fill="#6d95df" stroke="#000000" d="M906,-747C906,-747 876,-747 876,-747 870,-747 864,-741 864,-735 864,-735 864,-723 864,-723 864,-717 870,-711 876,-711 876,-711 906,-711 906,-711 912,-711 918,-717 918,-723 918,-723 918,-735 918,-735 918,-741 912,-747 906,-747"/>
<text text-anchor="middle" x="891" y="-725.5" font-family="SF Pro Text Bold 10" font-size="15.00" fill="#000000">load</text>
</g>
<!-- node_0&#45;&gt;node_2 -->
<g id="edge14" class="edge">
<title>node_0&#45;&gt;node_2</title>
<path fill="none" stroke="#00b3ff" stroke-width="2" d="M906,-988.73C903.31,-942.27 895.88,-814.25 892.6,-757.59"/>
<polygon fill="#00b3ff" stroke="#00b3ff" stroke-width="2" points="896.07,-757.04 892,-747.26 889.09,-757.44 896.07,-757.04"/>
<text text-anchor="middle" x="910.5" y="-856.5" font-family="SF Pro Text Bold 10" font-size="15.00">%2</text>
</g>
<!-- node_1&#45;&gt;node_2 -->
<g id="edge2" class="edge">
<title>node_1&#45;&gt;node_2</title>
<path fill="none" stroke="#ff3636" stroke-width="3" d="M786.94,-841.87C807.74,-819.51 844.28,-780.22 868.06,-754.66"/>
<polygon fill="#ff3636" stroke="#ff3636" stroke-width="3" points="870.75,-756.91 875,-747.2 865.63,-752.14 870.75,-756.91"/>
</g>
<!-- node_3 -->
<g id="node4" class="node">
<title>node_3</title>
<path fill="#6d95df" stroke="#000000" d="M872,-600C872,-600 842,-600 842,-600 836,-600 830,-594 830,-588 830,-588 830,-576 830,-576 830,-570 836,-564 842,-564 842,-564 872,-564 872,-564 878,-564 884,-570 884,-576 884,-576 884,-588 884,-588 884,-594 878,-600 872,-600"/>
<text text-anchor="middle" x="857" y="-578.5" font-family="SF Pro Text Bold 10" font-size="15.00" fill="#000000">icmp</text>
</g>
<!-- node_2&#45;&gt;node_3 -->
<g id="edge3" class="edge">
<title>node_2&#45;&gt;node_3</title>
<path fill="none" stroke="#ff3636" stroke-width="3" d="M881.21,-710.96C874.52,-698.41 866.15,-680.69 862,-664 857.64,-646.45 856.39,-626.13 856.24,-610.23"/>
<polygon fill="#ff3636" stroke="#ff3636" stroke-width="3" points="859.74,-610.04 856.28,-600.02 852.74,-610.01 859.74,-610.04"/>
</g>
<!-- node_2&#45;&gt;node_3 -->
<g id="edge18" class="edge">
<title>node_2&#45;&gt;node_3</title>
<path fill="none" stroke="#00b3ff" stroke-width="2" d="M886.97,-710.8C881.14,-685.94 870.31,-639.74 863.38,-610.23"/>
<polygon fill="#00b3ff" stroke="#00b3ff" stroke-width="2" points="866.72,-609.12 861.03,-600.18 859.9,-610.72 866.72,-609.12"/>
<text text-anchor="middle" x="886.5" y="-652" font-family="SF Pro Text Bold 10" font-size="15.00">%3</text>
</g>
<!-- node_4 -->
<g id="node5" class="node">
<title>node_4</title>
<path fill="#6d95df" stroke="#000000" d="M872,-453C872,-453 842,-453 842,-453 836,-453 830,-447 830,-441 830,-441 830,-429 830,-429 830,-423 836,-417 842,-417 842,-417 872,-417 872,-417 878,-417 884,-423 884,-429 884,-429 884,-441 884,-441 884,-447 878,-453 872,-453"/>
<text text-anchor="middle" x="857" y="-431.5" font-family="SF Pro Text Bold 10" font-size="15.00" fill="#000000">br</text>
</g>
<!-- node_3&#45;&gt;node_4 -->
<g id="edge4" class="edge">
<title>node_3&#45;&gt;node_4</title>
<path fill="none" stroke="#ff3636" stroke-width="3" d="M857,-563.8C857,-538.94 857,-492.74 857,-463.23"/>
<polygon fill="#ff3636" stroke="#ff3636" stroke-width="3" points="860.5,-463.18 857,-453.18 853.5,-463.18 860.5,-463.18"/>
</g>
<!-- node_3&#45;&gt;node_4 -->
<g id="edge19" class="edge">
<title>node_3&#45;&gt;node_4</title>
<path fill="none" stroke="#00b3ff" stroke-width="2" d="M857.82,-563.94C858.51,-547.54 859.34,-522.08 859,-500 858.81,-487.95 858.42,-474.64 858.04,-463.29"/>
<polygon fill="#00b3ff" stroke="#00b3ff" stroke-width="2" points="861.53,-462.98 857.68,-453.11 854.54,-463.23 861.53,-462.98"/>
<text text-anchor="middle" x="871" y="-505" font-family="SF Pro Text Bold 10" font-size="15.00">%4</text>
</g>
<!-- node_5 -->
<g id="node9" class="node">
<title>node_5</title>
<path fill="#6d95df" stroke="#000000" d="M1018,-322C1018,-322 988,-322 988,-322 982,-322 976,-316 976,-310 976,-310 976,-298 976,-298 976,-292 982,-286 988,-286 988,-286 1018,-286 1018,-286 1024,-286 1030,-292 1030,-298 1030,-298 1030,-310 1030,-310 1030,-316 1024,-322 1018,-322"/>
<text text-anchor="middle" x="1003" y="-300.5" font-family="SF Pro Text Bold 10" font-size="15.00" fill="#000000">call</text>
</g>
<!-- node_4&#45;&gt;node_5 -->
<g id="edge10" class="edge">
<title>node_4&#45;&gt;node_5</title>
<path fill="none" stroke="#ff8800" stroke-width="5" d="M876.39,-416.87C901.91,-394.32 946.93,-354.54 975.84,-329"/>
<polygon fill="#ff8800" stroke="#ff8800" stroke-width="5" points="978.94,-332.1 983.53,-322.2 973.14,-325.54 978.94,-332.1"/>
</g>
<!-- node_7 -->
<g id="node13" class="node">
<title>node_7</title>
<path fill="#6d95df" stroke="#000000" d="M707,-322C707,-322 677,-322 677,-322 671,-322 665,-316 665,-310 665,-310 665,-298 665,-298 665,-292 671,-286 677,-286 677,-286 707,-286 707,-286 713,-286 719,-292 719,-298 719,-298 719,-310 719,-310 719,-316 713,-322 707,-322"/>
<text text-anchor="middle" x="692" y="-300.5" font-family="SF Pro Text Bold 10" font-size="15.00" fill="#000000">call</text>
</g>
<!-- node_4&#45;&gt;node_7 -->
<g id="edge11" class="edge">
<title>node_4&#45;&gt;node_7</title>
<path fill="none" stroke="#ff8800" stroke-width="5" d="M835.09,-416.87C806.12,-394.22 754.94,-354.2 722.28,-328.68"/>
<polygon fill="#ff8800" stroke="#ff8800" stroke-width="5" points="724.57,-324.91 714,-322.2 719.18,-331.81 724.57,-324.91"/>
</g>
<!-- node_14 -->
<g id="node6" class="node">
<title>node_14</title>
<path fill="#d66868" stroke="#000000" d="M922,-1156C922,-1156 892,-1156 892,-1156 886,-1156 880,-1150 880,-1144 880,-1144 880,-1132 880,-1132 880,-1126 886,-1120 892,-1120 892,-1120 922,-1120 922,-1120 928,-1120 934,-1126 934,-1132 934,-1132 934,-1144 934,-1144 934,-1150 928,-1156 922,-1156"/>
<text text-anchor="middle" x="907" y="-1134.5" font-family="SF Pro Text Bold 10" font-size="15.00" fill="#000000">i32 1</text>
</g>
<!-- node_14&#45;&gt;node_0 -->
<g id="edge16" class="edge">
<title>node_14&#45;&gt;node_0</title>
<path fill="none" stroke="#00b3ff" stroke-width="2" d="M907,-1119.87C907,-1098.28 907,-1060.91 907,-1035.35"/>
<polygon fill="#00b3ff" stroke="#00b3ff" stroke-width="2" points="910.5,-1035.2 907,-1025.2 903.5,-1035.2 910.5,-1035.2"/>
</g>
<!-- node_15 -->
<g id="node7" class="node">
<title>node_15</title>
<path fill="#d66868" stroke="#000000" d="M799,-1025C799,-1025 755,-1025 755,-1025 749,-1025 743,-1019 743,-1013 743,-1013 743,-1001 743,-1001 743,-995 749,-989 755,-989 755,-989 799,-989 799,-989 805,-989 811,-995 811,-1001 811,-1001 811,-1013 811,-1013 811,-1019 805,-1025 799,-1025"/>
<text text-anchor="middle" x="777" y="-1003.5" font-family="SF Pro Text Bold 10" font-size="15.00" fill="#000000">i32 %0</text>
</g>
<!-- node_15&#45;&gt;node_1 -->
<g id="edge17" class="edge">
<title>node_15&#45;&gt;node_1</title>
<path fill="none" stroke="#00b3ff" stroke-width="2" d="M776.29,-988.8C775.26,-963.94 773.35,-917.74 772.13,-888.23"/>
<polygon fill="#00b3ff" stroke="#00b3ff" stroke-width="2" points="775.62,-888.03 771.71,-878.18 768.63,-888.32 775.62,-888.03"/>
<text text-anchor="middle" x="786" y="-930" font-family="SF Pro Text Bold 10" font-size="15.00">%0</text>
</g>
<!-- node_16 -->
<g id="node8" class="node">
<title>node_16</title>
<path fill="#d66868" stroke="#000000" d="M786.5,-747C786.5,-747 755.5,-747 755.5,-747 749.5,-747 743.5,-741 743.5,-735 743.5,-735 743.5,-723 743.5,-723 743.5,-717 749.5,-711 755.5,-711 755.5,-711 786.5,-711 786.5,-711 792.5,-711 798.5,-717 798.5,-723 798.5,-723 798.5,-735 798.5,-735 798.5,-741 792.5,-747 786.5,-747"/>
<text text-anchor="middle" x="771" y="-725.5" font-family="SF Pro Text Bold 10" font-size="15.00" fill="#000000">i32 0</text>
</g>
<!-- node_16&#45;&gt;node_3 -->
<g id="edge20" class="edge">
<title>node_16&#45;&gt;node_3</title>
<path fill="none" stroke="#00b3ff" stroke-width="2" d="M781.2,-710.8C796.14,-685.62 824.07,-638.52 841.54,-609.07"/>
<polygon fill="#00b3ff" stroke="#00b3ff" stroke-width="2" points="844.72,-610.57 846.81,-600.18 838.7,-607 844.72,-610.57"/>
</g>
<!-- node_6 -->
<g id="node10" class="node">
<title>node_6</title>
<path fill="#6d95df" stroke="#000000" d="M1018,-191C1018,-191 988,-191 988,-191 982,-191 976,-185 976,-179 976,-179 976,-167 976,-167 976,-161 982,-155 988,-155 988,-155 1018,-155 1018,-155 1024,-155 1030,-161 1030,-167 1030,-167 1030,-179 1030,-179 1030,-185 1024,-191 1018,-191"/>
<text text-anchor="middle" x="1003" y="-169.5" font-family="SF Pro Text Bold 10" font-size="15.00" fill="#000000">br</text>
</g>
<!-- node_5&#45;&gt;node_6 -->
<g id="edge5" class="edge">
<title>node_5&#45;&gt;node_6</title>
<path fill="none" stroke="#ff3636" stroke-width="3" d="M1003,-285.87C1003,-264.28 1003,-226.91 1003,-201.35"/>
<polygon fill="#ff3636" stroke="#ff3636" stroke-width="3" points="1006.5,-201.2 1003,-191.2 999.5,-201.2 1006.5,-201.2"/>
</g>
<!-- node_9 -->
<g id="node17" class="node">
<title>node_9</title>
<path fill="#6d95df" stroke="#000000" d="M863,-60C863,-60 833,-60 833,-60 827,-60 821,-54 821,-48 821,-48 821,-36 821,-36 821,-30 827,-24 833,-24 833,-24 863,-24 863,-24 869,-24 875,-30 875,-36 875,-36 875,-48 875,-48 875,-54 869,-60 863,-60"/>
<text text-anchor="middle" x="848" y="-38.5" font-family="SF Pro Text Bold 10" font-size="15.00" fill="#000000">ret</text>
</g>
<!-- node_6&#45;&gt;node_9 -->
<g id="edge13" class="edge">
<title>node_6&#45;&gt;node_9</title>
<path fill="none" stroke="#ff8800" stroke-width="5" d="M982.42,-154.87C955.2,-132.22 907.12,-92.2 876.45,-66.68"/>
<polygon fill="#ff8800" stroke="#ff8800" stroke-width="5" points="879.15,-63.24 868.67,-60.2 873.56,-69.96 879.15,-63.24"/>
</g>
<!-- node_17 -->
<g id="node11" class="node">
<title>node_17</title>
<path fill="#d66868" stroke="#000000" d="M1212.5,-453C1212.5,-453 1153.5,-453 1153.5,-453 1147.5,-453 1141.5,-447 1141.5,-441 1141.5,-441 1141.5,-429 1141.5,-429 1141.5,-423 1147.5,-417 1153.5,-417 1153.5,-417 1212.5,-417 1212.5,-417 1218.5,-417 1224.5,-423 1224.5,-429 1224.5,-429 1224.5,-441 1224.5,-441 1224.5,-447 1218.5,-453 1212.5,-453"/>
<text text-anchor="middle" x="1183" y="-431.5" font-family="SF Pro Text Bold 10" font-size="15.00" fill="#000000">ptr @.str</text>
</g>
<!-- node_17&#45;&gt;node_5 -->
<g id="edge21" class="edge">
<title>node_17&#45;&gt;node_5</title>
<path fill="none" stroke="#00b3ff" stroke-width="2" d="M1159.1,-416.87C1127.23,-394.03 1070.7,-353.52 1035.13,-328.03"/>
<polygon fill="#00b3ff" stroke="#00b3ff" stroke-width="2" points="1037.17,-325.18 1027,-322.2 1033.09,-330.87 1037.17,-325.18"/>
</g>
<!-- node_18 -->
<g id="node12" class="node">
<title>node_18</title>
<path fill="#d66868" stroke="#000000" d="M1064,-453C1064,-453 988,-453 988,-453 982,-453 976,-447 976,-441 976,-441 976,-429 976,-429 976,-423 982,-417 988,-417 988,-417 1064,-417 1064,-417 1070,-417 1076,-423 1076,-429 1076,-429 1076,-441 1076,-441 1076,-447 1070,-453 1064,-453"/>
<text text-anchor="middle" x="1026" y="-431.5" font-family="SF Pro Text Bold 10" font-size="15.00" fill="#000000">ptr @printf</text>
</g>
<!-- node_18&#45;&gt;node_5 -->
<g id="edge22" class="edge">
<title>node_18&#45;&gt;node_5</title>
<path fill="none" stroke="#00b3ff" stroke-width="2" d="M1022.95,-416.87C1019.1,-395.28 1012.43,-357.91 1007.88,-332.35"/>
<polygon fill="#00b3ff" stroke="#00b3ff" stroke-width="2" points="1011.27,-331.43 1006.07,-322.2 1004.38,-332.66 1011.27,-331.43"/>
</g>
<!-- node_8 -->
<g id="node14" class="node">
<title>node_8</title>
<path fill="#6d95df" stroke="#000000" d="M707,-191C707,-191 677,-191 677,-191 671,-191 665,-185 665,-179 665,-179 665,-167 665,-167 665,-161 671,-155 677,-155 677,-155 707,-155 707,-155 713,-155 719,-161 719,-167 719,-167 719,-179 719,-179 719,-185 713,-191 707,-191"/>
<text text-anchor="middle" x="692" y="-169.5" font-family="SF Pro Text Bold 10" font-size="15.00" fill="#000000">br</text>
</g>
<!-- node_7&#45;&gt;node_8 -->
<g id="edge6" class="edge">
<title>node_7&#45;&gt;node_8</title>
<path fill="none" stroke="#ff3636" stroke-width="3" d="M692,-285.87C692,-264.28 692,-226.91 692,-201.35"/>
<polygon fill="#ff3636" stroke="#ff3636" stroke-width="3" points="695.5,-201.2 692,-191.2 688.5,-201.2 695.5,-201.2"/>
</g>
<!-- node_8&#45;&gt;node_9 -->
<g id="edge12" class="edge">
<title>node_8&#45;&gt;node_9</title>
<path fill="none" stroke="#ff8800" stroke-width="5" d="M712.72,-154.87C740.11,-132.22 788.5,-92.2 819.37,-66.68"/>
<polygon fill="#ff8800" stroke="#ff8800" stroke-width="5" points="822.28,-69.95 827.2,-60.2 816.7,-63.2 822.28,-69.95"/>
</g>
<!-- node_19 -->
<g id="node15" class="node">
<title>node_19</title>
<path fill="#d66868" stroke="#000000" d="M707,-453C707,-453 637,-453 637,-453 631,-453 625,-447 625,-441 625,-441 625,-429 625,-429 625,-423 631,-417 637,-417 637,-417 707,-417 707,-417 713,-417 719,-423 719,-429 719,-429 719,-441 719,-441 719,-447 713,-453 707,-453"/>
<text text-anchor="middle" x="672" y="-431.5" font-family="SF Pro Text Bold 10" font-size="15.00" fill="#000000">ptr @.str.1</text>
</g>
<!-- node_19&#45;&gt;node_7 -->
<g id="edge23" class="edge">
<title>node_19&#45;&gt;node_7</title>
<path fill="none" stroke="#00b3ff" stroke-width="2" d="M674.66,-416.87C678,-395.28 683.8,-357.91 687.76,-332.35"/>
<polygon fill="#00b3ff" stroke="#00b3ff" stroke-width="2" points="691.26,-332.62 689.33,-322.2 684.34,-331.55 691.26,-332.62"/>
</g>
<!-- node_20 -->
<g id="node16" class="node">
<title>node_20</title>
<path fill="#d66868" stroke="#000000" d="M548,-453C548,-453 472,-453 472,-453 466,-453 460,-447 460,-441 460,-441 460,-429 460,-429 460,-423 466,-417 472,-417 472,-417 548,-417 548,-417 554,-417 560,-423 560,-429 560,-429 560,-441 560,-441 560,-447 554,-453 548,-453"/>
<text text-anchor="middle" x="510" y="-431.5" font-family="SF Pro Text Bold 10" font-size="15.00" fill="#000000">ptr @printf</text>
</g>
<!-- node_20&#45;&gt;node_7 -->
<g id="edge24" class="edge">
<title>node_20&#45;&gt;node_7</title>
<path fill="none" stroke="#00b3ff" stroke-width="2" d="M534.17,-416.87C566.39,-394.03 623.54,-353.52 659.51,-328.03"/>
<polygon fill="#00b3ff" stroke="#00b3ff" stroke-width="2" points="661.6,-330.84 667.73,-322.2 657.55,-325.13 661.6,-330.84"/>
</g>
<!-- node_10 -->
<g id="node18" class="node">
<title>node_10</title>
<path fill="#6d95df" stroke="#000000" d="M347,-1025C347,-1025 309,-1025 309,-1025 303,-1025 297,-1019 297,-1013 297,-1013 297,-1001 297,-1001 297,-995 303,-989 309,-989 309,-989 347,-989 347,-989 353,-989 359,-995 359,-1001 359,-1001 359,-1013 359,-1013 359,-1019 353,-1025 347,-1025"/>
<text text-anchor="middle" x="328" y="-1003.5" font-family="SF Pro Text Bold 10" font-size="15.00" fill="#000000">alloca</text>
</g>
<!-- node_11 -->
<g id="node19" class="node">
<title>node_11</title>
<path fill="#6d95df" stroke="#000000" d="M343.5,-878C343.5,-878 312.5,-878 312.5,-878 306.5,-878 300.5,-872 300.5,-866 300.5,-866 300.5,-854 300.5,-854 300.5,-848 306.5,-842 312.5,-842 312.5,-842 343.5,-842 343.5,-842 349.5,-842 355.5,-848 355.5,-854 355.5,-854 355.5,-866 355.5,-866 355.5,-872 349.5,-878 343.5,-878"/>
<text text-anchor="middle" x="328" y="-856.5" font-family="SF Pro Text Bold 10" font-size="15.00" fill="#000000">store</text>
</g>
<!-- node_10&#45;&gt;node_11 -->
<g id="edge7" class="edge">
<title>node_10&#45;&gt;node_11</title>
<path fill="none" stroke="#ff3636" stroke-width="3" d="M328,-988.8C328,-963.94 328,-917.74 328,-888.23"/>
<polygon fill="#ff3636" stroke="#ff3636" stroke-width="3" points="331.5,-888.18 328,-878.18 324.5,-888.18 331.5,-888.18"/>
</g>
<!-- node_10&#45;&gt;node_11 -->
<g id="edge25" class="edge">
<title>node_10&#45;&gt;node_11</title>
<path fill="none" stroke="#00b3ff" stroke-width="2" d="M328.82,-988.94C329.51,-972.54 330.34,-947.08 330,-925 329.81,-912.95 329.42,-899.64 329.04,-888.29"/>
<polygon fill="#00b3ff" stroke="#00b3ff" stroke-width="2" points="332.53,-887.98 328.68,-878.11 325.54,-888.23 332.53,-887.98"/>
<text text-anchor="middle" x="340.5" y="-930" font-family="SF Pro Text Bold 10" font-size="15.00">%1</text>
</g>
<!-- node_12 -->
<g id="node20" class="node">
<title>node_12</title>
<path fill="#6d95df" stroke="#000000" d="M343,-747C343,-747 313,-747 313,-747 307,-747 301,-741 301,-735 301,-735 301,-723 301,-723 301,-717 307,-711 313,-711 313,-711 343,-711 343,-711 349,-711 355,-717 355,-723 355,-723 355,-735 355,-735 355,-741 349,-747 343,-747"/>
<text text-anchor="middle" x="328" y="-725.5" font-family="SF Pro Text Bold 10" font-size="15.00" fill="#000000">call</text>
</g>
<!-- node_11&#45;&gt;node_12 -->
<g id="edge8" class="edge">
<title>node_11&#45;&gt;node_12</title>
<path fill="none" stroke="#ff3636" stroke-width="3" d="M328,-841.87C328,-820.28 328,-782.91 328,-757.35"/>
<polygon fill="#ff3636" stroke="#ff3636" stroke-width="3" points="331.5,-757.2 328,-747.2 324.5,-757.2 331.5,-757.2"/>
</g>
<!-- node_12&#45;&gt;node_0 -->
<g id="edge28" class="edge">
<title>node_12&#45;&gt;node_0</title>
<path fill="none" stroke="#ff8800" stroke-width="5" stroke-dasharray="5,2" d="M355.18,-730.59C463.47,-733.57 861.93,-750.69 938,-842 970.86,-881.44 943.39,-944.84 923.36,-980.14"/>
<polygon fill="#ff8800" stroke="#ff8800" stroke-width="5" points="919.51,-978.06 918.21,-988.9 927.05,-982.49 919.51,-978.06"/>
</g>
<!-- node_13 -->
<g id="node21" class="node">
<title>node_13</title>
<path fill="#6d95df" stroke="#000000" d="M343,-600C343,-600 313,-600 313,-600 307,-600 301,-594 301,-588 301,-588 301,-576 301,-576 301,-570 307,-564 313,-564 313,-564 343,-564 343,-564 349,-564 355,-570 355,-576 355,-576 355,-588 355,-588 355,-594 349,-600 343,-600"/>
<text text-anchor="middle" x="328" y="-578.5" font-family="SF Pro Text Bold 10" font-size="15.00" fill="#000000">ret</text>
</g>
<!-- node_12&#45;&gt;node_13 -->
<g id="edge9" class="edge">
<title>node_12&#45;&gt;node_13</title>
<path fill="none" stroke="#ff3636" stroke-width="3" d="M328,-710.8C328,-685.94 328,-639.74 328,-610.23"/>
<polygon fill="#ff3636" stroke="#ff3636" stroke-width="3" points="331.5,-610.18 328,-600.18 324.5,-610.18 331.5,-610.18"/>
</g>
<!-- node_21 -->
<g id="node22" class="node">
<title>node_21</title>
<path fill="#d66868" stroke="#000000" d="M343,-1156C343,-1156 313,-1156 313,-1156 307,-1156 301,-1150 301,-1144 301,-1144 301,-1132 301,-1132 301,-1126 307,-1120 313,-1120 313,-1120 343,-1120 343,-1120 349,-1120 355,-1126 355,-1132 355,-1132 355,-1144 355,-1144 355,-1150 349,-1156 343,-1156"/>
<text text-anchor="middle" x="328" y="-1134.5" font-family="SF Pro Text Bold 10" font-size="15.00" fill="#000000">i32 1</text>
</g>
<!-- node_21&#45;&gt;node_10 -->
<g id="edge26" class="edge">
<title>node_21&#45;&gt;node_10</title>
<path fill="none" stroke="#00b3ff" stroke-width="2" d="M328,-1119.87C328,-1098.28 328,-1060.91 328,-1035.35"/>
<polygon fill="#00b3ff" stroke="#00b3ff" stroke-width="2" points="331.5,-1035.2 328,-1025.2 324.5,-1035.2 331.5,-1035.2"/>
</g>
<!-- node_22 -->
<g id="node23" class="node">
<title>node_22</title>
<path fill="#d66868" stroke="#000000" d="M219.5,-1025C219.5,-1025 188.5,-1025 188.5,-1025 182.5,-1025 176.5,-1019 176.5,-1013 176.5,-1013 176.5,-1001 176.5,-1001 176.5,-995 182.5,-989 188.5,-989 188.5,-989 219.5,-989 219.5,-989 225.5,-989 231.5,-995 231.5,-1001 231.5,-1001 231.5,-1013 231.5,-1013 231.5,-1019 225.5,-1025 219.5,-1025"/>
<text text-anchor="middle" x="204" y="-1003.5" font-family="SF Pro Text Bold 10" font-size="15.00" fill="#000000">i32 0</text>
</g>
<!-- node_22&#45;&gt;node_11 -->
<g id="edge27" class="edge">
<title>node_22&#45;&gt;node_11</title>
<path fill="none" stroke="#00b3ff" stroke-width="2" d="M218.71,-988.8C240.53,-963.29 281.57,-915.3 306.68,-885.93"/>
<polygon fill="#00b3ff" stroke="#00b3ff" stroke-width="2" points="309.47,-888.06 313.31,-878.18 304.15,-883.51 309.47,-888.06"/>
</g>
<!-- node_23 -->
<g id="node24" class="node">
<title>node_23</title>
<path fill="#d66868" stroke="#000000" d="M223,-878C223,-878 193,-878 193,-878 187,-878 181,-872 181,-866 181,-866 181,-854 181,-854 181,-848 187,-842 193,-842 193,-842 223,-842 223,-842 229,-842 235,-848 235,-854 235,-854 235,-866 235,-866 235,-872 229,-878 223,-878"/>
<text text-anchor="middle" x="208" y="-856.5" font-family="SF Pro Text Bold 10" font-size="15.00" fill="#000000">i32 1</text>
</g>
<!-- node_23&#45;&gt;node_12 -->
<g id="edge29" class="edge">
<title>node_23&#45;&gt;node_12</title>
<path fill="none" stroke="#00b3ff" stroke-width="2" d="M223.94,-841.87C244.74,-819.51 281.28,-780.22 305.06,-754.66"/>
<polygon fill="#00b3ff" stroke="#00b3ff" stroke-width="2" points="307.75,-756.91 312,-747.2 302.63,-752.14 307.75,-756.91"/>
</g>
<!-- node_24 -->
<g id="node25" class="node">
<title>node_24</title>
<path fill="#d66868" stroke="#000000" d="M104,-878C104,-878 36,-878 36,-878 30,-878 24,-872 24,-866 24,-866 24,-854 24,-854 24,-848 30,-842 36,-842 36,-842 104,-842 104,-842 110,-842 116,-848 116,-854 116,-854 116,-866 116,-866 116,-872 110,-878 104,-878"/>
<text text-anchor="middle" x="70" y="-856.5" font-family="SF Pro Text Bold 10" font-size="15.00" fill="#000000">ptr @func</text>
</g>
<!-- node_24&#45;&gt;node_12 -->
<g id="edge30" class="edge">
<title>node_24&#45;&gt;node_12</title>
<path fill="none" stroke="#00b3ff" stroke-width="2" d="M104.26,-841.87C152.94,-817.53 241.72,-773.14 291.56,-748.22"/>
<polygon fill="#00b3ff" stroke="#00b3ff" stroke-width="2" points="293.31,-751.26 300.69,-743.65 290.18,-745 293.31,-751.26"/>
</g>
<!-- node_25 -->
<g id="node26" class="node">
<title>node_25</title>
<path fill="#d66868" stroke="#000000" d="M223.5,-747C223.5,-747 192.5,-747 192.5,-747 186.5,-747 180.5,-741 180.5,-735 180.5,-735 180.5,-723 180.5,-723 180.5,-717 186.5,-711 192.5,-711 192.5,-711 223.5,-711 223.5,-711 229.5,-711 235.5,-717 235.5,-723 235.5,-723 235.5,-735 235.5,-735 235.5,-741 229.5,-747 223.5,-747"/>
<text text-anchor="middle" x="208" y="-725.5" font-family="SF Pro Text Bold 10" font-size="15.00" fill="#000000">i32 0</text>
</g>
<!-- node_25&#45;&gt;node_13 -->
<g id="edge31" class="edge">
<title>node_25&#45;&gt;node_13</title>
<path fill="none" stroke="#00b3ff" stroke-width="2" d="M222.24,-710.8C243.35,-685.29 283.07,-637.3 307.37,-607.93"/>
<polygon fill="#00b3ff" stroke="#00b3ff" stroke-width="2" points="310.1,-610.12 313.78,-600.18 304.71,-605.65 310.1,-610.12"/>
</g>
</g>
</svg>
