<?xml version="1.0" encoding="UTF-8" standalone="no"?>
<!DOCTYPE svg PUBLIC "-//W3C//DTD SVG 1.1//EN"
 "http://www.w3.org/Graphics/SVG/1.1/DTD/svg11.dtd">
<!-- Generated by graphviz version 2.43.0 (0)
 -->
<!-- Title: examples/hello/hello.c Pages: 1 -->
<svg width="1035pt" height="917pt"
 viewBox="0.00 0.00 1035.20 917.20" xmlns="http://www.w3.org/2000/svg" xmlns:xlink="http://www.w3.org/1999/xlink">
<g id="graph0" class="graph" transform="scale(1 1) rotate(0) translate(21.6 895.6)">
<title>examples/hello/hello.c</title>
<polygon fill="white" stroke="transparent" points="-21.6,21.6 -21.6,-895.6 1013.6,-895.6 1013.6,21.6 -21.6,21.6"/>
<g id="clust1" class="cluster">
<title>cluster_func_1</title>
<path fill="#e3e3e3" stroke="#000000" stroke-width="2" d="M224,-8C224,-8 972,-8 972,-8 978,-8 984,-14 984,-20 984,-20 984,-854 984,-854 984,-860 978,-866 972,-866 972,-866 224,-866 224,-866 218,-866 212,-860 212,-854 212,-854 212,-20 212,-20 212,-14 218,-8 224,-8"/>
<text text-anchor="middle" x="598" y="-846" font-family="SF Pro Text Bold 10" font-size="20.00">func</text>
</g>
<g id="clust2" class="cluster">
<title>cluster_func_1_bb_1</title>
<path fill="#a4a4a4" stroke="#000000" stroke-width="2" d="M475,-293C475,-293 731,-293 731,-293 737,-293 743,-299 743,-305 743,-305 743,-816 743,-816 743,-822 737,-828 731,-828 731,-828 475,-828 475,-828 469,-828 463,-822 463,-816 463,-816 463,-305 463,-305 463,-299 469,-293 475,-293"/>
</g>
<g id="clust3" class="cluster">
<title>cluster_func_1_bb_2</title>
<path fill="#a4a4a4" stroke="#000000" stroke-width="2" d="M763,-103C763,-103 964,-103 964,-103 970,-103 976,-109 976,-115 976,-115 976,-333 976,-333 976,-339 970,-345 964,-345 964,-345 763,-345 763,-345 757,-345 751,-339 751,-333 751,-333 751,-115 751,-115 751,-109 757,-103 763,-103"/>
</g>
<g id="clust4" class="cluster">
<title>cluster_func_1_bb_3</title>
<path fill="#a4a4a4" stroke="#000000" stroke-width="2" d="M232,-103C232,-103 443,-103 443,-103 449,-103 455,-109 455,-115 455,-115 455,-333 455,-333 455,-339 449,-345 443,-345 443,-345 232,-345 232,-345 226,-345 220,-339 220,-333 220,-333 220,-115 220,-115 220,-109 226,-103 232,-103"/>
</g>
<g id="clust5" class="cluster">
<title>cluster_func_1_bb_4</title>
<path fill="#a4a4a4" stroke="#000000" stroke-width="2" d="M586,-16C586,-16 632,-16 632,-16 638,-16 644,-22 644,-28 644,-28 644,-56 644,-56 644,-62 638,-68 632,-68 632,-68 586,-68 586,-68 580,-68 574,-62 574,-56 574,-56 574,-28 574,-28 574,-22 580,-16 586,-16"/>
</g>
<g id="clust7" class="cluster">
<title>cluster_func_3</title>
<path fill="#e3e3e3" stroke="#000000" stroke-width="2" d="M20,-388C20,-388 192,-388 192,-388 198,-388 204,-394 204,-400 204,-400 204,-854 204,-854 204,-860 198,-866 192,-866 192,-866 20,-866 20,-866 14,-866 8,-860 8,-854 8,-854 8,-400 8,-400 8,-394 14,-388 20,-388"/>
<text text-anchor="middle" x="106" y="-846" font-family="SF Pro Text Bold 10" font-size="20.00">main</text>
</g>
<g id="clust8" class="cluster">
<title>cluster_func_3_bb_1</title>
<path fill="#a4a4a4" stroke="#000000" stroke-width="2" d="M28,-396C28,-396 184,-396 184,-396 190,-396 196,-402 196,-408 196,-408 196,-816 196,-816 196,-822 190,-828 184,-828 184,-828 28,-828 28,-828 22,-828 16,-822 16,-816 16,-816 16,-408 16,-408 16,-402 22,-396 28,-396"/>
</g>
<!-- n0x5f6abb8ad210 -->
<g id="node1" class="node">
<title>n0x5f6abb8ad210</title>
<path fill="#6d95df" stroke="#000000" d="M653,-733C653,-733 615,-733 615,-733 609,-733 603,-727 603,-721 603,-721 603,-709 603,-709 603,-703 609,-697 615,-697 615,-697 653,-697 653,-697 659,-697 665,-703 665,-709 665,-709 665,-721 665,-721 665,-727 659,-733 653,-733"/>
<text text-anchor="middle" x="634" y="-711.5" font-family="SF Pro Text Bold 10" font-size="15.00" fill="#000000">alloca</text>
</g>
<!-- n0x5f6abb8aad90 -->
<g id="node2" class="node">
<title>n0x5f6abb8aad90</title>
<path fill="#6d95df" stroke="#000000" d="M649.5,-630C649.5,-630 618.5,-630 618.5,-630 612.5,-630 606.5,-624 606.5,-618 606.5,-618 606.5,-606 606.5,-606 606.5,-600 612.5,-594 618.5,-594 618.5,-594 649.5,-594 649.5,-594 655.5,-594 661.5,-600 661.5,-606 661.5,-606 661.5,-618 661.5,-618 661.5,-624 655.5,-630 649.5,-630"/>
<text text-anchor="middle" x="634" y="-608.5" font-family="SF Pro Text Bold 10" font-size="15.00" fill="#000000">store</text>
</g>
<!-- n0x5f6abb8ad210&#45;&gt;n0x5f6abb8aad90 -->
<g id="edge1" class="edge">
<title>n0x5f6abb8ad210&#45;&gt;n0x5f6abb8aad90</title>
<path fill="none" stroke="#ff8800" stroke-width="5" d="M634,-696.87C634,-681.41 634,-658.42 634,-640.41"/>
<polygon fill="#ff8800" stroke="#ff8800" stroke-width="5" points="638.38,-640.22 634,-630.22 629.63,-640.22 638.38,-640.22"/>
</g>
<!-- n0x5f6abb8ad210&#45;&gt;n0x5f6abb8aad90 -->
<g id="edge6" class="edge">
<title>n0x5f6abb8ad210&#45;&gt;n0x5f6abb8aad90</title>
<path fill="none" stroke="#00b3ff" stroke-width="2" d="M635,-696.84C635.4,-689.23 635.81,-680.17 636,-672 636.25,-661.62 635.99,-650.21 635.58,-640.21"/>
<polygon fill="#00b3ff" stroke="#00b3ff" stroke-width="2" points="639.07,-639.86 635.1,-630.04 632.07,-640.19 639.07,-639.86"/>
<text text-anchor="middle" x="647.5" y="-660" font-family="SF Pro Text Bold 10" font-size="15.00">%2</text>
</g>
<!-- n0x5f6abb8ea090 -->
<g id="node3" class="node">
<title>n0x5f6abb8ea090</title>
<path fill="#6d95df" stroke="#000000" d="M696,-543C696,-543 666,-543 666,-543 660,-543 654,-537 654,-531 654,-531 654,-519 654,-519 654,-513 660,-507 666,-507 666,-507 696,-507 696,-507 702,-507 708,-513 708,-519 708,-519 708,-531 708,-531 708,-537 702,-543 696,-543"/>
<text text-anchor="middle" x="681" y="-521.5" font-family="SF Pro Text Bold 10" font-size="15.00" fill="#000000">load</text>
</g>
<!-- n0x5f6abb8ad210&#45;&gt;n0x5f6abb8ea090 -->
<g id="edge5" class="edge">
<title>n0x5f6abb8ad210&#45;&gt;n0x5f6abb8ea090</title>
<path fill="none" stroke="#00b3ff" stroke-width="2" d="M649.39,-696.66C655.06,-689.46 661.05,-680.76 665,-672 682.36,-633.49 683.95,-583.68 682.91,-553.33"/>
<polygon fill="#00b3ff" stroke="#00b3ff" stroke-width="2" points="686.4,-552.91 682.44,-543.08 679.41,-553.23 686.4,-552.91"/>
<text text-anchor="middle" x="693.5" y="-608.5" font-family="SF Pro Text Bold 10" font-size="15.00">%2</text>
</g>
<!-- n0x5f6abb8aad90&#45;&gt;n0x5f6abb8ea090 -->
<g id="edge2" class="edge">
<title>n0x5f6abb8aad90&#45;&gt;n0x5f6abb8ea090</title>
<path fill="none" stroke="#ff8800" stroke-width="5" d="M643.51,-593.8C650.14,-581.82 659.09,-565.62 666.59,-552.06"/>
<polygon fill="#ff8800" stroke="#ff8800" stroke-width="5" points="670.49,-554.04 671.5,-543.18 662.84,-549.81 670.49,-554.04"/>
</g>
<!-- n0x5f6abb7ae2e0 -->
<g id="node4" class="node">
<title>n0x5f6abb7ae2e0</title>
<path fill="#6d95df" stroke="#000000" d="M723,-440C723,-440 693,-440 693,-440 687,-440 681,-434 681,-428 681,-428 681,-416 681,-416 681,-410 687,-404 693,-404 693,-404 723,-404 723,-404 729,-404 735,-410 735,-416 735,-416 735,-428 735,-428 735,-434 729,-440 723,-440"/>
<text text-anchor="middle" x="708" y="-418.5" font-family="SF Pro Text Bold 10" font-size="15.00" fill="#000000">icmp</text>
</g>
<!-- n0x5f6abb8ea090&#45;&gt;n0x5f6abb7ae2e0 -->
<g id="edge3" class="edge">
<title>n0x5f6abb8ea090&#45;&gt;n0x5f6abb7ae2e0</title>
<path fill="none" stroke="#ff8800" stroke-width="5" d="M680.67,-506.89C680.87,-494.93 682,-478.72 686,-465 687.52,-459.8 689.71,-454.5 692.12,-449.49"/>
<polygon fill="#ff8800" stroke="#ff8800" stroke-width="5" points="696.16,-451.21 696.94,-440.32 688.41,-447.14 696.16,-451.21"/>
</g>
<!-- n0x5f6abb8ea090&#45;&gt;n0x5f6abb7ae2e0 -->
<g id="edge9" class="edge">
<title>n0x5f6abb8ea090&#45;&gt;n0x5f6abb7ae2e0</title>
<path fill="none" stroke="#00b3ff" stroke-width="2" d="M685.58,-506.87C689.75,-491.27 695.97,-467.98 700.81,-449.9"/>
<polygon fill="#00b3ff" stroke="#00b3ff" stroke-width="2" points="704.2,-450.78 703.4,-440.22 697.43,-448.97 704.2,-450.78"/>
<text text-anchor="middle" x="707.5" y="-470" font-family="SF Pro Text Bold 10" font-size="15.00">%3</text>
</g>
<!-- n0x5f6abb86cef0 -->
<g id="node5" class="node">
<title>n0x5f6abb86cef0</title>
<path fill="#6d95df" stroke="#000000" d="M695,-337C695,-337 665,-337 665,-337 659,-337 653,-331 653,-325 653,-325 653,-313 653,-313 653,-307 659,-301 665,-301 665,-301 695,-301 695,-301 701,-301 707,-307 707,-313 707,-313 707,-325 707,-325 707,-331 701,-337 695,-337"/>
<text text-anchor="middle" x="680" y="-315.5" font-family="SF Pro Text Bold 10" font-size="15.00" fill="#000000">br</text>
</g>
<!-- n0x5f6abb7ae2e0&#45;&gt;n0x5f6abb86cef0 -->
<g id="edge4" class="edge">
<title>n0x5f6abb7ae2e0&#45;&gt;n0x5f6abb86cef0</title>
<path fill="none" stroke="#ff8800" stroke-width="5" d="M696.42,-403.74C692.09,-396.41 687.59,-387.6 685,-379 681.97,-368.95 680.56,-357.54 679.96,-347.44"/>
<polygon fill="#ff8800" stroke="#ff8800" stroke-width="5" points="684.33,-346.97 679.59,-337.13 675.58,-347.28 684.33,-346.97"/>
</g>
<!-- n0x5f6abb7ae2e0&#45;&gt;n0x5f6abb86cef0 -->
<g id="edge10" class="edge">
<title>n0x5f6abb7ae2e0&#45;&gt;n0x5f6abb86cef0</title>
<path fill="none" stroke="#00b3ff" stroke-width="2" d="M703.25,-403.87C698.93,-388.27 692.47,-364.98 687.46,-346.9"/>
<polygon fill="#00b3ff" stroke="#00b3ff" stroke-width="2" points="690.82,-345.92 684.77,-337.22 684.07,-347.79 690.82,-345.92"/>
<text text-anchor="middle" x="707" y="-367" font-family="SF Pro Text Bold 10" font-size="15.00">%4</text>
</g>
<!-- n0x5f6abb8eaf20 -->
<g id="node11" class="node">
<title>n0x5f6abb8eaf20</title>
<path fill="#6d95df" stroke="#000000" d="M906,-250C906,-250 876,-250 876,-250 870,-250 864,-244 864,-238 864,-238 864,-226 864,-226 864,-220 870,-214 876,-214 876,-214 906,-214 906,-214 912,-214 918,-220 918,-226 918,-226 918,-238 918,-238 918,-244 912,-250 906,-250"/>
<text text-anchor="middle" x="891" y="-228.5" font-family="SF Pro Text Bold 10" font-size="15.00" fill="#000000">call</text>
</g>
<!-- n0x5f6abb86cef0&#45;&gt;n0x5f6abb8eaf20 -->
<g id="edge22" class="edge">
<title>n0x5f6abb86cef0&#45;&gt;n0x5f6abb8eaf20</title>
<path fill="none" stroke="#ff8800" stroke-width="5" d="M707.23,-307.57C741.24,-294.47 801.15,-271.13 852,-250 852.84,-249.65 853.68,-249.3 854.53,-248.94"/>
<polygon fill="#ff8800" stroke="#ff8800" stroke-width="5" points="856.29,-252.95 863.78,-245.01 852.86,-244.9 856.29,-252.95"/>
</g>
<!-- n0x5f6abb8eb130 -->
<g id="node16" class="node">
<title>n0x5f6abb8eb130</title>
<path fill="#6d95df" stroke="#000000" d="M435,-250C435,-250 405,-250 405,-250 399,-250 393,-244 393,-238 393,-238 393,-226 393,-226 393,-220 399,-214 405,-214 405,-214 435,-214 435,-214 441,-214 447,-220 447,-226 447,-226 447,-238 447,-238 447,-244 441,-250 435,-250"/>
<text text-anchor="middle" x="420" y="-228.5" font-family="SF Pro Text Bold 10" font-size="15.00" fill="#000000">call</text>
</g>
<!-- n0x5f6abb86cef0&#45;&gt;n0x5f6abb8eb130 -->
<g id="edge23" class="edge">
<title>n0x5f6abb86cef0&#45;&gt;n0x5f6abb8eb130</title>
<path fill="none" stroke="#ff8800" stroke-width="5" d="M652.67,-309.06C605.76,-293.73 509.87,-262.38 457.02,-245.1"/>
<polygon fill="#ff8800" stroke="#ff8800" stroke-width="5" points="458.22,-240.89 447.36,-241.94 455.5,-249.21 458.22,-240.89"/>
</g>
<!-- u0x5f6abb8ad1f0 -->
<g id="node6" class="node">
<title>u0x5f6abb8ad1f0</title>
<path fill="#db4040" stroke="#000000" d="M649,-820C649,-820 619,-820 619,-820 613,-820 607,-814 607,-808 607,-808 607,-796 607,-796 607,-790 613,-784 619,-784 619,-784 649,-784 649,-784 655,-784 661,-790 661,-796 661,-796 661,-808 661,-808 661,-814 655,-820 649,-820"/>
<text text-anchor="middle" x="634" y="-798.5" font-family="SF Pro Text Bold 10" font-size="15.00" fill="#000000">i32 1</text>
</g>
<!-- u0x5f6abb8ad1f0&#45;&gt;n0x5f6abb8ad210 -->
<g id="edge7" class="edge">
<title>u0x5f6abb8ad1f0&#45;&gt;n0x5f6abb8ad210</title>
<path fill="none" stroke="#00b3ff" stroke-width="2" d="M634,-783.8C634,-772.16 634,-756.55 634,-743.24"/>
<polygon fill="#00b3ff" stroke="#00b3ff" stroke-width="2" points="637.5,-743.18 634,-733.18 630.5,-743.18 637.5,-743.18"/>
</g>
<!-- u0x5f6abb8aad50 -->
<g id="node7" class="node">
<title>u0x5f6abb8aad50</title>
<path fill="#db4040" stroke="#000000" d="M566,-733C566,-733 522,-733 522,-733 516,-733 510,-727 510,-721 510,-721 510,-709 510,-709 510,-703 516,-697 522,-697 522,-697 566,-697 566,-697 572,-697 578,-703 578,-709 578,-709 578,-721 578,-721 578,-727 572,-733 566,-733"/>
<text text-anchor="middle" x="544" y="-711.5" font-family="SF Pro Text Bold 10" font-size="15.00" fill="#000000">i32 %0</text>
</g>
<!-- u0x5f6abb8aad50&#45;&gt;n0x5f6abb8aad90 -->
<g id="edge8" class="edge">
<title>u0x5f6abb8aad50&#45;&gt;n0x5f6abb8aad90</title>
<path fill="none" stroke="#00b3ff" stroke-width="2" d="M559.27,-696.87C573.62,-680.76 595.27,-656.46 611.59,-638.15"/>
<polygon fill="#00b3ff" stroke="#00b3ff" stroke-width="2" points="614.62,-640.01 618.66,-630.22 609.39,-635.35 614.62,-640.01"/>
<text text-anchor="middle" x="606" y="-660" font-family="SF Pro Text Bold 10" font-size="15.00">%0</text>
</g>
<!-- u0x5f6abb7ae2c0 -->
<g id="node8" class="node">
<title>u0x5f6abb7ae2c0</title>
<path fill="#db4040" stroke="#000000" d="M616.5,-543C616.5,-543 585.5,-543 585.5,-543 579.5,-543 573.5,-537 573.5,-531 573.5,-531 573.5,-519 573.5,-519 573.5,-513 579.5,-507 585.5,-507 585.5,-507 616.5,-507 616.5,-507 622.5,-507 628.5,-513 628.5,-519 628.5,-519 628.5,-531 628.5,-531 628.5,-537 622.5,-543 616.5,-543"/>
<text text-anchor="middle" x="601" y="-521.5" font-family="SF Pro Text Bold 10" font-size="15.00" fill="#000000">i32 0</text>
</g>
<!-- u0x5f6abb7ae2c0&#45;&gt;n0x5f6abb7ae2e0 -->
<g id="edge11" class="edge">
<title>u0x5f6abb7ae2c0&#45;&gt;n0x5f6abb7ae2e0</title>
<path fill="none" stroke="#00b3ff" stroke-width="2" d="M619.15,-506.87C636.52,-490.47 662.89,-465.58 682.39,-447.17"/>
<polygon fill="#00b3ff" stroke="#00b3ff" stroke-width="2" points="684.89,-449.63 689.76,-440.22 680.09,-444.54 684.89,-449.63"/>
</g>
<!-- u0x5f6abb86ceb0 -->
<g id="node9" class="node">
<title>u0x5f6abb86ceb0</title>
<path fill="#db4040" stroke="#000000" d="M643.5,-440C643.5,-440 588.5,-440 588.5,-440 582.5,-440 576.5,-434 576.5,-428 576.5,-428 576.5,-416 576.5,-416 576.5,-410 582.5,-404 588.5,-404 588.5,-404 643.5,-404 643.5,-404 649.5,-404 655.5,-410 655.5,-416 655.5,-416 655.5,-428 655.5,-428 655.5,-434 649.5,-440 643.5,-440"/>
<text text-anchor="middle" x="616" y="-418.5" font-family="SF Pro Text Bold 10" font-size="15.00" fill="#000000">label %7</text>
</g>
<!-- u0x5f6abb86ceb0&#45;&gt;n0x5f6abb86cef0 -->
<g id="edge12" class="edge">
<title>u0x5f6abb86ceb0&#45;&gt;n0x5f6abb86cef0</title>
<path fill="none" stroke="#00b3ff" stroke-width="2" d="M626.64,-403.93C634,-392.13 644.06,-376.09 653,-362 656.33,-356.75 659.92,-351.14 663.35,-345.79"/>
<polygon fill="#00b3ff" stroke="#00b3ff" stroke-width="2" points="666.46,-347.44 668.92,-337.14 660.57,-343.65 666.46,-347.44"/>
<text text-anchor="middle" x="664" y="-367" font-family="SF Pro Text Bold 10" font-size="15.00">%7</text>
</g>
<!-- u0x5f6abb86ced0 -->
<g id="node10" class="node">
<title>u0x5f6abb86ced0</title>
<path fill="#db4040" stroke="#000000" d="M539,-440C539,-440 483,-440 483,-440 477,-440 471,-434 471,-428 471,-428 471,-416 471,-416 471,-410 477,-404 483,-404 483,-404 539,-404 539,-404 545,-404 551,-410 551,-416 551,-416 551,-428 551,-428 551,-434 545,-440 539,-440"/>
<text text-anchor="middle" x="511" y="-418.5" font-family="SF Pro Text Bold 10" font-size="15.00" fill="#000000">label %5</text>
</g>
<!-- u0x5f6abb86ced0&#45;&gt;n0x5f6abb86cef0 -->
<g id="edge13" class="edge">
<title>u0x5f6abb86ced0&#45;&gt;n0x5f6abb86cef0</title>
<path fill="none" stroke="#00b3ff" stroke-width="2" d="M538.15,-403.9C546.42,-398.75 555.56,-393.1 564,-388 590.63,-371.91 620.98,-354.13 643.96,-340.8"/>
<polygon fill="#00b3ff" stroke="#00b3ff" stroke-width="2" points="645.79,-343.78 652.69,-335.73 642.28,-337.72 645.79,-343.78"/>
<text text-anchor="middle" x="616.5" y="-367" font-family="SF Pro Text Bold 10" font-size="15.00">%5</text>
</g>
<!-- n0x5f6abb8eafa0 -->
<g id="node12" class="node">
<title>n0x5f6abb8eafa0</title>
<path fill="#6d95df" stroke="#000000" d="M814,-147C814,-147 784,-147 784,-147 778,-147 772,-141 772,-135 772,-135 772,-123 772,-123 772,-117 778,-111 784,-111 784,-111 814,-111 814,-111 820,-111 826,-117 826,-123 826,-123 826,-135 826,-135 826,-141 820,-147 814,-147"/>
<text text-anchor="middle" x="799" y="-125.5" font-family="SF Pro Text Bold 10" font-size="15.00" fill="#000000">br</text>
</g>
<!-- n0x5f6abb8eaf20&#45;&gt;n0x5f6abb8eafa0 -->
<g id="edge14" class="edge">
<title>n0x5f6abb8eaf20&#45;&gt;n0x5f6abb8eafa0</title>
<path fill="none" stroke="#ff8800" stroke-width="5" d="M875.39,-213.87C860.59,-197.62 838.19,-173.02 821.46,-154.66"/>
<polygon fill="#ff8800" stroke="#ff8800" stroke-width="5" points="824.65,-151.66 814.68,-147.22 818.18,-157.56 824.65,-151.66"/>
</g>
<!-- n0x5f6abb8947a0 -->
<g id="node21" class="node">
<title>n0x5f6abb8947a0</title>
<path fill="#6d95df" stroke="#000000" d="M624,-60C624,-60 594,-60 594,-60 588,-60 582,-54 582,-48 582,-48 582,-36 582,-36 582,-30 588,-24 594,-24 594,-24 624,-24 624,-24 630,-24 636,-30 636,-36 636,-36 636,-48 636,-48 636,-54 630,-60 624,-60"/>
<text text-anchor="middle" x="609" y="-38.5" font-family="SF Pro Text Bold 10" font-size="15.00" fill="#000000">ret</text>
</g>
<!-- n0x5f6abb8eafa0&#45;&gt;n0x5f6abb8947a0 -->
<g id="edge25" class="edge">
<title>n0x5f6abb8eafa0&#45;&gt;n0x5f6abb8947a0</title>
<path fill="none" stroke="#ff8800" stroke-width="5" d="M771.78,-115.82C738.62,-100.99 682.48,-75.87 645.58,-59.36"/>
<polygon fill="#ff8800" stroke="#ff8800" stroke-width="5" points="647.09,-55.25 636.17,-55.16 643.51,-63.23 647.09,-55.25"/>
</g>
<!-- u0x5f6abb8eaee0 -->
<g id="node13" class="node">
<title>u0x5f6abb8eaee0</title>
<path fill="#db4040" stroke="#000000" d="M955.5,-337C955.5,-337 896.5,-337 896.5,-337 890.5,-337 884.5,-331 884.5,-325 884.5,-325 884.5,-313 884.5,-313 884.5,-307 890.5,-301 896.5,-301 896.5,-301 955.5,-301 955.5,-301 961.5,-301 967.5,-307 967.5,-313 967.5,-313 967.5,-325 967.5,-325 967.5,-331 961.5,-337 955.5,-337"/>
<text text-anchor="middle" x="926" y="-315.5" font-family="SF Pro Text Bold 10" font-size="15.00" fill="#000000">ptr @.str</text>
</g>
<!-- u0x5f6abb8eaee0&#45;&gt;n0x5f6abb8eaf20 -->
<g id="edge15" class="edge">
<title>u0x5f6abb8eaee0&#45;&gt;n0x5f6abb8eaf20</title>
<path fill="none" stroke="#00b3ff" stroke-width="2" d="M918.92,-300.8C914.03,-288.93 907.44,-272.93 901.89,-259.45"/>
<polygon fill="#00b3ff" stroke="#00b3ff" stroke-width="2" points="905.12,-258.09 898.07,-250.18 898.64,-260.75 905.12,-258.09"/>
</g>
<!-- u0x5f6abb8eaf00 -->
<g id="node14" class="node">
<title>u0x5f6abb8eaf00</title>
<path fill="#db4040" stroke="#000000" d="M847,-337C847,-337 771,-337 771,-337 765,-337 759,-331 759,-325 759,-325 759,-313 759,-313 759,-307 765,-301 771,-301 771,-301 847,-301 847,-301 853,-301 859,-307 859,-313 859,-313 859,-325 859,-325 859,-331 853,-337 847,-337"/>
<text text-anchor="middle" x="809" y="-315.5" font-family="SF Pro Text Bold 10" font-size="15.00" fill="#000000">ptr @printf</text>
</g>
<!-- u0x5f6abb8eaf00&#45;&gt;n0x5f6abb8eaf20 -->
<g id="edge16" class="edge">
<title>u0x5f6abb8eaf00&#45;&gt;n0x5f6abb8eaf20</title>
<path fill="none" stroke="#00b3ff" stroke-width="2" d="M825.59,-300.8C837.6,-288.36 853.99,-271.36 867.36,-257.5"/>
<polygon fill="#00b3ff" stroke="#00b3ff" stroke-width="2" points="870.01,-259.8 874.43,-250.18 864.97,-254.94 870.01,-259.8"/>
</g>
<!-- u0x5f6abb8eaf80 -->
<g id="node15" class="node">
<title>u0x5f6abb8eaf80</title>
<path fill="#db4040" stroke="#000000" d="M827,-250C827,-250 771,-250 771,-250 765,-250 759,-244 759,-238 759,-238 759,-226 759,-226 759,-220 765,-214 771,-214 771,-214 827,-214 827,-214 833,-214 839,-220 839,-226 839,-226 839,-238 839,-238 839,-244 833,-250 827,-250"/>
<text text-anchor="middle" x="799" y="-228.5" font-family="SF Pro Text Bold 10" font-size="15.00" fill="#000000">label %9</text>
</g>
<!-- u0x5f6abb8eaf80&#45;&gt;n0x5f6abb8eafa0 -->
<g id="edge17" class="edge">
<title>u0x5f6abb8eaf80&#45;&gt;n0x5f6abb8eafa0</title>
<path fill="none" stroke="#00b3ff" stroke-width="2" d="M799,-213.87C799,-198.41 799,-175.42 799,-157.41"/>
<polygon fill="#00b3ff" stroke="#00b3ff" stroke-width="2" points="802.5,-157.22 799,-147.22 795.5,-157.22 802.5,-157.22"/>
<text text-anchor="middle" x="811" y="-177" font-family="SF Pro Text Bold 10" font-size="15.00">%9</text>
</g>
<!-- n0x5f6abb8eb1b0 -->
<g id="node17" class="node">
<title>n0x5f6abb8eb1b0</title>
<path fill="#6d95df" stroke="#000000" d="M435,-147C435,-147 405,-147 405,-147 399,-147 393,-141 393,-135 393,-135 393,-123 393,-123 393,-117 399,-111 405,-111 405,-111 435,-111 435,-111 441,-111 447,-117 447,-123 447,-123 447,-135 447,-135 447,-141 441,-147 435,-147"/>
<text text-anchor="middle" x="420" y="-125.5" font-family="SF Pro Text Bold 10" font-size="15.00" fill="#000000">br</text>
</g>
<!-- n0x5f6abb8eb130&#45;&gt;n0x5f6abb8eb1b0 -->
<g id="edge18" class="edge">
<title>n0x5f6abb8eb130&#45;&gt;n0x5f6abb8eb1b0</title>
<path fill="none" stroke="#ff8800" stroke-width="5" d="M420,-213.87C420,-198.41 420,-175.42 420,-157.41"/>
<polygon fill="#ff8800" stroke="#ff8800" stroke-width="5" points="424.38,-157.22 420,-147.22 415.63,-157.22 424.38,-157.22"/>
</g>
<!-- n0x5f6abb8eb1b0&#45;&gt;n0x5f6abb8947a0 -->
<g id="edge24" class="edge">
<title>n0x5f6abb8eb1b0&#45;&gt;n0x5f6abb8947a0</title>
<path fill="none" stroke="#ff8800" stroke-width="5" d="M447.08,-115.82C480.06,-100.99 535.9,-75.87 572.62,-59.36"/>
<polygon fill="#ff8800" stroke="#ff8800" stroke-width="5" points="574.65,-63.25 581.97,-55.16 571.06,-55.27 574.65,-63.25"/>
</g>
<!-- u0x5f6abb8eb0f0 -->
<g id="node18" class="node">
<title>u0x5f6abb8eb0f0</title>
<path fill="#db4040" stroke="#000000" d="M435,-337C435,-337 365,-337 365,-337 359,-337 353,-331 353,-325 353,-325 353,-313 353,-313 353,-307 359,-301 365,-301 365,-301 435,-301 435,-301 441,-301 447,-307 447,-313 447,-313 447,-325 447,-325 447,-331 441,-337 435,-337"/>
<text text-anchor="middle" x="400" y="-315.5" font-family="SF Pro Text Bold 10" font-size="15.00" fill="#000000">ptr @.str.1</text>
</g>
<!-- u0x5f6abb8eb0f0&#45;&gt;n0x5f6abb8eb130 -->
<g id="edge19" class="edge">
<title>u0x5f6abb8eb0f0&#45;&gt;n0x5f6abb8eb130</title>
<path fill="none" stroke="#00b3ff" stroke-width="2" d="M404.05,-300.8C406.79,-289.16 410.46,-273.55 413.59,-260.24"/>
<polygon fill="#00b3ff" stroke="#00b3ff" stroke-width="2" points="417.08,-260.71 415.96,-250.18 410.26,-259.11 417.08,-260.71"/>
</g>
<!-- u0x5f6abb8eb110 -->
<g id="node19" class="node">
<title>u0x5f6abb8eb110</title>
<path fill="#db4040" stroke="#000000" d="M316,-337C316,-337 240,-337 240,-337 234,-337 228,-331 228,-325 228,-325 228,-313 228,-313 228,-307 234,-301 240,-301 240,-301 316,-301 316,-301 322,-301 328,-307 328,-313 328,-313 328,-325 328,-325 328,-331 322,-337 316,-337"/>
<text text-anchor="middle" x="278" y="-315.5" font-family="SF Pro Text Bold 10" font-size="15.00" fill="#000000">ptr @printf</text>
</g>
<!-- u0x5f6abb8eb110&#45;&gt;n0x5f6abb8eb130 -->
<g id="edge20" class="edge">
<title>u0x5f6abb8eb110&#45;&gt;n0x5f6abb8eb130</title>
<path fill="none" stroke="#00b3ff" stroke-width="2" d="M306.74,-300.8C329.01,-287.46 360.02,-268.91 383.96,-254.58"/>
<polygon fill="#00b3ff" stroke="#00b3ff" stroke-width="2" points="385.97,-257.45 392.75,-249.31 382.37,-251.44 385.97,-257.45"/>
</g>
<!-- u0x5f6abb8eb190 -->
<g id="node20" class="node">
<title>u0x5f6abb8eb190</title>
<path fill="#db4040" stroke="#000000" d="M356,-250C356,-250 300,-250 300,-250 294,-250 288,-244 288,-238 288,-238 288,-226 288,-226 288,-220 294,-214 300,-214 300,-214 356,-214 356,-214 362,-214 368,-220 368,-226 368,-226 368,-238 368,-238 368,-244 362,-250 356,-250"/>
<text text-anchor="middle" x="328" y="-228.5" font-family="SF Pro Text Bold 10" font-size="15.00" fill="#000000">label %9</text>
</g>
<!-- u0x5f6abb8eb190&#45;&gt;n0x5f6abb8eb1b0 -->
<g id="edge21" class="edge">
<title>u0x5f6abb8eb190&#45;&gt;n0x5f6abb8eb1b0</title>
<path fill="none" stroke="#00b3ff" stroke-width="2" d="M343.61,-213.87C358.41,-197.62 380.81,-173.02 397.54,-154.66"/>
<polygon fill="#00b3ff" stroke="#00b3ff" stroke-width="2" points="400.17,-156.97 404.32,-147.22 395,-152.25 400.17,-156.97"/>
<text text-anchor="middle" x="391" y="-177" font-family="SF Pro Text Bold 10" font-size="15.00">%9</text>
</g>
<!-- n0x5f6abb8ebf10 -->
<g id="node22" class="node">
<title>n0x5f6abb8ebf10</title>
<path fill="#6d95df" stroke="#000000" d="M155,-733C155,-733 117,-733 117,-733 111,-733 105,-727 105,-721 105,-721 105,-709 105,-709 105,-703 111,-697 117,-697 117,-697 155,-697 155,-697 161,-697 167,-703 167,-709 167,-709 167,-721 167,-721 167,-727 161,-733 155,-733"/>
<text text-anchor="middle" x="136" y="-711.5" font-family="SF Pro Text Bold 10" font-size="15.00" fill="#000000">alloca</text>
</g>
<!-- n0x5f6abb8ebfb0 -->
<g id="node23" class="node">
<title>n0x5f6abb8ebfb0</title>
<path fill="#6d95df" stroke="#000000" d="M151.5,-630C151.5,-630 120.5,-630 120.5,-630 114.5,-630 108.5,-624 108.5,-618 108.5,-618 108.5,-606 108.5,-606 108.5,-600 114.5,-594 120.5,-594 120.5,-594 151.5,-594 151.5,-594 157.5,-594 163.5,-600 163.5,-606 163.5,-606 163.5,-618 163.5,-618 163.5,-624 157.5,-630 151.5,-630"/>
<text text-anchor="middle" x="136" y="-608.5" font-family="SF Pro Text Bold 10" font-size="15.00" fill="#000000">store</text>
</g>
<!-- n0x5f6abb8ebf10&#45;&gt;n0x5f6abb8ebfb0 -->
<g id="edge26" class="edge">
<title>n0x5f6abb8ebf10&#45;&gt;n0x5f6abb8ebfb0</title>
<path fill="none" stroke="#ff8800" stroke-width="5" d="M136,-696.87C136,-681.41 136,-658.42 136,-640.41"/>
<polygon fill="#ff8800" stroke="#ff8800" stroke-width="5" points="140.38,-640.22 136,-630.22 131.63,-640.22 140.38,-640.22"/>
</g>
<!-- n0x5f6abb8ebf10&#45;&gt;n0x5f6abb8ebfb0 -->
<g id="edge29" class="edge">
<title>n0x5f6abb8ebf10&#45;&gt;n0x5f6abb8ebfb0</title>
<path fill="none" stroke="#00b3ff" stroke-width="2" d="M137,-696.84C137.4,-689.23 137.81,-680.17 138,-672 138.25,-661.62 137.99,-650.21 137.58,-640.21"/>
<polygon fill="#00b3ff" stroke="#00b3ff" stroke-width="2" points="141.07,-639.86 137.1,-630.04 134.07,-640.19 141.07,-639.86"/>
<text text-anchor="middle" x="149.5" y="-660" font-family="SF Pro Text Bold 10" font-size="15.00">%1</text>
</g>
<!-- n0x5f6abb8ec050 -->
<g id="node24" class="node">
<title>n0x5f6abb8ec050</title>
<path fill="#6d95df" stroke="#000000" d="M151,-543C151,-543 121,-543 121,-543 115,-543 109,-537 109,-531 109,-531 109,-519 109,-519 109,-513 115,-507 121,-507 121,-507 151,-507 151,-507 157,-507 163,-513 163,-519 163,-519 163,-531 163,-531 163,-537 157,-543 151,-543"/>
<text text-anchor="middle" x="136" y="-521.5" font-family="SF Pro Text Bold 10" font-size="15.00" fill="#000000">call</text>
</g>
<!-- n0x5f6abb8ebfb0&#45;&gt;n0x5f6abb8ec050 -->
<g id="edge27" class="edge">
<title>n0x5f6abb8ebfb0&#45;&gt;n0x5f6abb8ec050</title>
<path fill="none" stroke="#ff8800" stroke-width="5" d="M136,-593.8C136,-582.16 136,-566.55 136,-553.24"/>
<polygon fill="#ff8800" stroke="#ff8800" stroke-width="5" points="140.38,-553.18 136,-543.18 131.63,-553.18 140.38,-553.18"/>
</g>
<!-- n0x5f6abb8ec050&#45;&gt;n0x5f6abb8ad210 -->
<g id="edge32" class="edge">
<title>n0x5f6abb8ec050&#45;&gt;n0x5f6abb8ad210</title>
<path fill="none" stroke="#ff8800" stroke-width="5" stroke-dasharray="5,2" d="M163.24,-527.14C173.62,-527.6 186.66,-528.2 201.78,-528.95"/>
<polygon fill="#ff8800" stroke="#ff8800" stroke-width="5" points="201.8,-533.33 212,-529.46 202.24,-524.59 201.8,-533.33"/>
</g>
<!-- n0x5f6abb8ec170 -->
<g id="node25" class="node">
<title>n0x5f6abb8ec170</title>
<path fill="#6d95df" stroke="#000000" d="M151,-440C151,-440 121,-440 121,-440 115,-440 109,-434 109,-428 109,-428 109,-416 109,-416 109,-410 115,-404 121,-404 121,-404 151,-404 151,-404 157,-404 163,-410 163,-416 163,-416 163,-428 163,-428 163,-434 157,-440 151,-440"/>
<text text-anchor="middle" x="136" y="-418.5" font-family="SF Pro Text Bold 10" font-size="15.00" fill="#000000">ret</text>
</g>
<!-- n0x5f6abb8ec050&#45;&gt;n0x5f6abb8ec170 -->
<g id="edge28" class="edge">
<title>n0x5f6abb8ec050&#45;&gt;n0x5f6abb8ec170</title>
<path fill="none" stroke="#ff8800" stroke-width="5" d="M136,-506.87C136,-491.41 136,-468.42 136,-450.41"/>
<polygon fill="#ff8800" stroke="#ff8800" stroke-width="5" points="140.38,-450.22 136,-440.22 131.63,-450.22 140.38,-450.22"/>
</g>
<!-- u0x5f6abb8ebef0 -->
<g id="node26" class="node">
<title>u0x5f6abb8ebef0</title>
<path fill="#db4040" stroke="#000000" d="M151,-820C151,-820 121,-820 121,-820 115,-820 109,-814 109,-808 109,-808 109,-796 109,-796 109,-790 115,-784 121,-784 121,-784 151,-784 151,-784 157,-784 163,-790 163,-796 163,-796 163,-808 163,-808 163,-814 157,-820 151,-820"/>
<text text-anchor="middle" x="136" y="-798.5" font-family="SF Pro Text Bold 10" font-size="15.00" fill="#000000">i32 1</text>
</g>
<!-- u0x5f6abb8ebef0&#45;&gt;n0x5f6abb8ebf10 -->
<g id="edge30" class="edge">
<title>u0x5f6abb8ebef0&#45;&gt;n0x5f6abb8ebf10</title>
<path fill="none" stroke="#00b3ff" stroke-width="2" d="M136,-783.8C136,-772.16 136,-756.55 136,-743.24"/>
<polygon fill="#00b3ff" stroke="#00b3ff" stroke-width="2" points="139.5,-743.18 136,-733.18 132.5,-743.18 139.5,-743.18"/>
</g>
<!-- u0x5f6abb8ebf70 -->
<g id="node27" class="node">
<title>u0x5f6abb8ebf70</title>
<path fill="#db4040" stroke="#000000" d="M67.5,-733C67.5,-733 36.5,-733 36.5,-733 30.5,-733 24.5,-727 24.5,-721 24.5,-721 24.5,-709 24.5,-709 24.5,-703 30.5,-697 36.5,-697 36.5,-697 67.5,-697 67.5,-697 73.5,-697 79.5,-703 79.5,-709 79.5,-709 79.5,-721 79.5,-721 79.5,-727 73.5,-733 67.5,-733"/>
<text text-anchor="middle" x="52" y="-711.5" font-family="SF Pro Text Bold 10" font-size="15.00" fill="#000000">i32 0</text>
</g>
<!-- u0x5f6abb8ebf70&#45;&gt;n0x5f6abb8ebfb0 -->
<g id="edge31" class="edge">
<title>u0x5f6abb8ebf70&#45;&gt;n0x5f6abb8ebfb0</title>
<path fill="none" stroke="#00b3ff" stroke-width="2" d="M66.25,-696.87C79.64,-680.76 99.86,-656.46 115.08,-638.15"/>
<polygon fill="#00b3ff" stroke="#00b3ff" stroke-width="2" points="117.98,-640.14 121.68,-630.22 112.6,-635.67 117.98,-640.14"/>
</g>
<!-- u0x5f6abb8ec010 -->
<g id="node28" class="node">
<title>u0x5f6abb8ec010</title>
<path fill="#db4040" stroke="#000000" d="M71,-630C71,-630 41,-630 41,-630 35,-630 29,-624 29,-618 29,-618 29,-606 29,-606 29,-600 35,-594 41,-594 41,-594 71,-594 71,-594 77,-594 83,-600 83,-606 83,-606 83,-618 83,-618 83,-624 77,-630 71,-630"/>
<text text-anchor="middle" x="56" y="-608.5" font-family="SF Pro Text Bold 10" font-size="15.00" fill="#000000">i32 1</text>
</g>
<!-- u0x5f6abb8ec010&#45;&gt;n0x5f6abb8ec050 -->
<g id="edge33" class="edge">
<title>u0x5f6abb8ec010&#45;&gt;n0x5f6abb8ec050</title>
<path fill="none" stroke="#00b3ff" stroke-width="2" d="M72.19,-593.8C83.9,-581.36 99.89,-564.36 112.94,-550.5"/>
<polygon fill="#00b3ff" stroke="#00b3ff" stroke-width="2" points="115.53,-552.86 119.83,-543.18 110.43,-548.06 115.53,-552.86"/>
</g>
<!-- u0x5f6abb8ec150 -->
<g id="node29" class="node">
<title>u0x5f6abb8ec150</title>
<path fill="#db4040" stroke="#000000" d="M71.5,-543C71.5,-543 40.5,-543 40.5,-543 34.5,-543 28.5,-537 28.5,-531 28.5,-531 28.5,-519 28.5,-519 28.5,-513 34.5,-507 40.5,-507 40.5,-507 71.5,-507 71.5,-507 77.5,-507 83.5,-513 83.5,-519 83.5,-519 83.5,-531 83.5,-531 83.5,-537 77.5,-543 71.5,-543"/>
<text text-anchor="middle" x="56" y="-521.5" font-family="SF Pro Text Bold 10" font-size="15.00" fill="#000000">i32 0</text>
</g>
<!-- u0x5f6abb8ec150&#45;&gt;n0x5f6abb8ec170 -->
<g id="edge34" class="edge">
<title>u0x5f6abb8ec150&#45;&gt;n0x5f6abb8ec170</title>
<path fill="none" stroke="#00b3ff" stroke-width="2" d="M69.57,-506.87C82.33,-490.76 101.58,-466.46 116.08,-448.15"/>
<polygon fill="#00b3ff" stroke="#00b3ff" stroke-width="2" points="118.9,-450.23 122.36,-440.22 113.41,-445.88 118.9,-450.23"/>
</g>
</g>
</svg>
