<?xml version="1.0" encoding="UTF-8" standalone="no"?>
<!DOCTYPE svg PUBLIC "-//W3C//DTD SVG 1.1//EN"
 "http://www.w3.org/Graphics/SVG/1.1/DTD/svg11.dtd">
<!-- Generated by graphviz version 2.43.0 (0)
 -->
<!-- Title: examples/hello/hello.c Pages: 1 -->
<svg width="992pt" height="845pt"
 viewBox="0.00 0.00 992.20 845.02" xmlns="http://www.w3.org/2000/svg" xmlns:xlink="http://www.w3.org/1999/xlink">
<g id="graph0" class="graph" transform="scale(1 1) rotate(0) translate(21.6 823.42)">
<title>examples/hello/hello.c</title>
<polygon fill="white" stroke="transparent" points="-21.6,21.6 -21.6,-823.42 970.6,-823.42 970.6,21.6 -21.6,21.6"/>
<g id="clust1" class="cluster">
<title>cluster_2</title>
<path fill="none" stroke="#c0c0c0" d="M20,-8C20,-8 676,-8 676,-8 682,-8 688,-14 688,-20 688,-20 688,-781.82 688,-781.82 688,-787.82 682,-793.82 676,-793.82 676,-793.82 20,-793.82 20,-793.82 14,-793.82 8,-787.82 8,-781.82 8,-781.82 8,-20 8,-20 8,-14 14,-8 20,-8"/>
<text text-anchor="start" x="16" y="-780.42" font-family="SF Pro Text Bold 10" font-weight="bold" font-size="13.00">func</text>
</g>
<g id="clust2" class="cluster">
<title>cluster_2_1</title>
<path fill="none" stroke="#c0c0c0" d="M423,-16C423,-16 668,-16 668,-16 674,-16 680,-22 680,-28 680,-28 680,-731.98 680,-731.98 680,-737.98 674,-743.98 668,-743.98 668,-743.98 423,-743.98 423,-743.98 417,-743.98 411,-737.98 411,-731.98 411,-731.98 411,-28 411,-28 411,-22 417,-16 423,-16"/>
</g>
<g id="clust3" class="cluster">
<title>cluster_2_2</title>
<path fill="none" stroke="#c0c0c0" d="M91,-384.77C91,-384.77 278,-384.77 278,-384.77 284,-384.77 290,-390.77 290,-396.77 290,-396.77 290,-751.82 290,-751.82 290,-757.82 284,-763.82 278,-763.82 278,-763.82 91,-763.82 91,-763.82 85,-763.82 79,-757.82 79,-751.82 79,-751.82 79,-396.77 79,-396.77 79,-390.77 85,-384.77 91,-384.77"/>
</g>
<g id="clust4" class="cluster">
<title>cluster_2_3</title>
<path fill="none" stroke="#c0c0c0" d="M311,-384.77C311,-384.77 391,-384.77 391,-384.77 397,-384.77 403,-390.77 403,-396.77 403,-396.77 403,-750.02 403,-750.02 403,-756.02 397,-762.02 391,-762.02 391,-762.02 311,-762.02 311,-762.02 305,-762.02 299,-756.02 299,-750.02 299,-750.02 299,-396.77 299,-396.77 299,-390.77 305,-384.77 311,-384.77"/>
</g>
<g id="clust5" class="cluster">
<title>cluster_2_4</title>
<path fill="none" stroke="#c0c0c0" d="M28,-682.88C28,-682.88 58,-682.88 58,-682.88 64,-682.88 70,-688.88 70,-694.88 70,-694.88 70,-725.36 70,-725.36 70,-731.36 64,-737.36 58,-737.36 58,-737.36 28,-737.36 28,-737.36 22,-737.36 16,-731.36 16,-725.36 16,-725.36 16,-694.88 16,-694.88 16,-688.88 22,-682.88 28,-682.88"/>
</g>
<g id="clust7" class="cluster">
<title>cluster_6</title>
<path fill="none" stroke="#c0c0c0" d="M725,-123.64C725,-123.64 898,-123.64 898,-123.64 904,-123.64 910,-129.64 910,-135.64 910,-135.64 910,-608.42 910,-608.42 910,-614.42 904,-620.42 898,-620.42 898,-620.42 725,-620.42 725,-620.42 719,-620.42 713,-614.42 713,-608.42 713,-608.42 713,-135.64 713,-135.64 713,-129.64 719,-123.64 725,-123.64"/>
<text text-anchor="start" x="721" y="-607.02" font-family="SF Pro Text Bold 10" font-weight="bold" font-size="13.00">main</text>
</g>
<g id="clust8" class="cluster">
<title>cluster_6_1</title>
<path fill="none" stroke="#c0c0c0" d="M733,-131.64C733,-131.64 890,-131.64 890,-131.64 896,-131.64 902,-137.64 902,-143.64 902,-143.64 902,-578.42 902,-578.42 902,-584.42 896,-590.42 890,-590.42 890,-590.42 733,-590.42 733,-590.42 727,-590.42 721,-584.42 721,-578.42 721,-578.42 721,-143.64 721,-143.64 721,-137.64 727,-131.64 733,-131.64"/>
</g>
<!-- n0x5e394088bf50 -->
<g id="node1" class="node">
<title>n0x5e394088bf50</title>
<ellipse fill="#e8eef9" stroke="#1f1d31" cx="554" cy="-552.35" rx="30.13" ry="30.13"/>
<text text-anchor="middle" x="554" y="-549.55" font-family="SF Pro Text Bold 10" font-size="11.00" fill="#000000">alloca</text>
</g>
<!-- n0x5e39408c9d40 -->
<g id="node2" class="node">
<title>n0x5e39408c9d40</title>
<ellipse fill="#e8eef9" stroke="#1f1d31" cx="467" cy="-410.77" rx="27.12" ry="27.12"/>
<text text-anchor="middle" x="467" y="-407.97" font-family="SF Pro Text Bold 10" font-size="11.00" fill="#000000">store</text>
</g>
<!-- n0x5e394088bf50&#45;&gt;n0x5e39408c9d40 -->
<g id="edge1" class="edge">
<title>n0x5e394088bf50&#45;&gt;n0x5e39408c9d40</title>
<path fill="none" stroke="#ff0000" d="M528.5,-535.79C506.61,-521.85 477.57,-501.75 471,-489.47 464.3,-476.94 462.44,-461.59 462.56,-447.85"/>
<polygon fill="#ff0000" stroke="#ff0000" points="466.06,-447.87 462.99,-437.73 459.07,-447.57 466.06,-447.87"/>
</g>
<!-- n0x5e394088bf50&#45;&gt;n0x5e39408c9d40 -->
<g id="edge6" class="edge">
<title>n0x5e394088bf50&#45;&gt;n0x5e39408c9d40</title>
<path fill="none" stroke="#0000ff" d="M531.89,-531.88C519.98,-520.47 505.78,-505.24 496,-489.47 487.88,-476.37 481.48,-460.65 476.78,-446.78"/>
<polygon fill="#0000ff" stroke="#0000ff" points="480.05,-445.52 473.66,-437.08 473.39,-447.67 480.05,-445.52"/>
<text text-anchor="middle" x="504" y="-481.47" font-family="SF Pro Text Bold 10" font-size="10.00">%2</text>
</g>
<!-- n0x5e394088bf50&#45;&gt;n0x5e39408c9d40 -->
<g id="edge9" class="edge">
<title>n0x5e394088bf50&#45;&gt;n0x5e39408c9d40</title>
<path fill="none" stroke="#00ff00" d="M540.62,-525.31C533.16,-511.23 523.48,-493.65 514,-478.47 506.23,-466.02 497.05,-452.72 488.88,-441.31"/>
<polygon fill="#00ff00" stroke="#00ff00" points="491.56,-439.04 482.86,-432.99 485.89,-443.14 491.56,-439.04"/>
<text text-anchor="middle" x="527" y="-481.47" font-family="SF Pro Text Bold 10" font-size="10.00">%2</text>
</g>
<!-- n0x5e3940909170 -->
<g id="node3" class="node">
<title>n0x5e3940909170</title>
<ellipse fill="#e8eef9" stroke="#1f1d31" cx="589" cy="-282.42" rx="24.81" ry="24.81"/>
<text text-anchor="middle" x="589" y="-279.62" font-family="SF Pro Text Bold 10" font-size="11.00" fill="#000000">load</text>
</g>
<!-- n0x5e394088bf50&#45;&gt;n0x5e3940909170 -->
<g id="edge5" class="edge">
<title>n0x5e394088bf50&#45;&gt;n0x5e3940909170</title>
<path fill="none" stroke="#0000ff" d="M563.36,-523.6C566.58,-513.03 569.91,-500.8 572,-489.47 583.1,-429.4 586.95,-358.14 588.29,-317.11"/>
<polygon fill="#0000ff" stroke="#0000ff" points="591.79,-317.21 588.59,-307.11 584.79,-317 591.79,-317.21"/>
<text text-anchor="middle" x="593" y="-408.27" font-family="SF Pro Text Bold 10" font-size="10.00">%2</text>
</g>
<!-- n0x5e394088bf50&#45;&gt;n0x5e3940909170 -->
<g id="edge11" class="edge">
<title>n0x5e394088bf50&#45;&gt;n0x5e3940909170</title>
<path fill="none" stroke="#00ff00" d="M550.82,-522.13C547.62,-485.68 544.5,-421.63 555,-368.08 558.66,-349.42 566.37,-329.64 573.52,-313.89"/>
<polygon fill="#00ff00" stroke="#00ff00" points="576.77,-315.2 577.86,-304.66 570.44,-312.22 576.77,-315.2"/>
<text text-anchor="middle" x="563" y="-408.27" font-family="SF Pro Text Bold 10" font-size="10.00">%2</text>
</g>
<!-- n0x5e39408c9d40&#45;&gt;n0x5e3940909170 -->
<g id="edge2" class="edge">
<title>n0x5e39408c9d40&#45;&gt;n0x5e3940909170</title>
<path fill="none" stroke="#ff0000" d="M484.38,-389.55C498.28,-373.61 518.43,-351 537,-332.08 545.35,-323.57 554.8,-314.56 563.32,-306.64"/>
<polygon fill="#ff0000" stroke="#ff0000" points="565.85,-309.07 570.83,-299.72 561.11,-303.92 565.85,-309.07"/>
</g>
<!-- n0x5e39407cd2e0 -->
<g id="node4" class="node">
<title>n0x5e39407cd2e0</title>
<ellipse fill="#e8eef9" stroke="#1f1d31" cx="646" cy="-158.88" rx="26.42" ry="26.42"/>
<text text-anchor="middle" x="646" y="-156.08" font-family="SF Pro Text Bold 10" font-size="11.00" fill="#000000">icmp</text>
</g>
<!-- n0x5e3940909170&#45;&gt;n0x5e39407cd2e0 -->
<g id="edge3" class="edge">
<title>n0x5e3940909170&#45;&gt;n0x5e39407cd2e0</title>
<path fill="none" stroke="#ff0000" d="M609.18,-267.9C620.3,-259.26 633.2,-247.01 640,-232.77 645.47,-221.31 647.58,-207.68 648.13,-195.33"/>
<polygon fill="#ff0000" stroke="#ff0000" points="651.63,-195.37 648.25,-185.33 644.63,-195.28 651.63,-195.37"/>
</g>
<!-- n0x5e3940909170&#45;&gt;n0x5e39407cd2e0 -->
<g id="edge10" class="edge">
<title>n0x5e3940909170&#45;&gt;n0x5e39407cd2e0</title>
<path fill="none" stroke="#0000ff" d="M577.89,-260.22C573.3,-248.46 570.24,-233.82 576,-221.77 583.64,-205.8 593.67,-208.41 607,-196.77 611.21,-193.09 615.59,-189.11 619.83,-185.17"/>
<polygon fill="#0000ff" stroke="#0000ff" points="622.35,-187.6 627.24,-178.2 617.55,-182.5 622.35,-187.6"/>
<text text-anchor="middle" x="584" y="-224.77" font-family="SF Pro Text Bold 10" font-size="10.00">%3</text>
</g>
<!-- n0x5e3940909170&#45;&gt;n0x5e39407cd2e0 -->
<g id="edge13" class="edge">
<title>n0x5e3940909170&#45;&gt;n0x5e39407cd2e0</title>
<path fill="none" stroke="#00ff00" d="M599.19,-259.69C607.97,-240.98 620.76,-213.71 630.75,-192.4"/>
<polygon fill="#00ff00" stroke="#00ff00" points="634.04,-193.62 635.12,-183.08 627.71,-190.65 634.04,-193.62"/>
<text text-anchor="middle" x="623" y="-224.77" font-family="SF Pro Text Bold 10" font-size="10.00">%3</text>
</g>
<!-- n0x5e394088bd40 -->
<g id="node5" class="node">
<title>n0x5e394088bd40</title>
<ellipse fill="#e8eef9" stroke="#1f1d31" cx="602" cy="-42" rx="18" ry="18"/>
<text text-anchor="middle" x="602" y="-39.2" font-family="SF Pro Text Bold 10" font-size="11.00" fill="#000000">br</text>
</g>
<!-- n0x5e39407cd2e0&#45;&gt;n0x5e394088bd40 -->
<g id="edge4" class="edge">
<title>n0x5e39407cd2e0&#45;&gt;n0x5e394088bd40</title>
<path fill="none" stroke="#ff0000" d="M637.3,-133.85C632.1,-119.61 625.29,-101.23 619,-85 616.9,-79.59 614.6,-73.81 612.39,-68.33"/>
<polygon fill="#ff0000" stroke="#ff0000" points="615.58,-66.86 608.57,-58.91 609.09,-69.49 615.58,-66.86"/>
</g>
<!-- n0x5e39407cd2e0&#45;&gt;n0x5e394088bd40 -->
<g id="edge12" class="edge">
<title>n0x5e39407cd2e0&#45;&gt;n0x5e394088bd40</title>
<path fill="none" stroke="#0000ff" d="M640.75,-132.74C637.36,-118.45 632.39,-100.39 626,-85 623.42,-78.79 620.11,-72.36 616.77,-66.45"/>
<polygon fill="#0000ff" stroke="#0000ff" points="619.71,-64.53 611.61,-57.7 613.68,-68.09 619.71,-64.53"/>
<text text-anchor="middle" x="637" y="-88" font-family="SF Pro Text Bold 10" font-size="10.00">%4</text>
</g>
<!-- n0x5e39407cd2e0&#45;&gt;n0x5e394088bd40 -->
<g id="edge15" class="edge">
<title>n0x5e39407cd2e0&#45;&gt;n0x5e394088bd40</title>
<path fill="none" stroke="#00ff00" d="M626.83,-140.42C615.79,-129 602.94,-113.08 597,-96 594.11,-87.68 594.06,-78.22 595.14,-69.61"/>
<polygon fill="#00ff00" stroke="#00ff00" points="598.6,-70.13 596.9,-59.67 591.71,-68.9 598.6,-70.13"/>
<text text-anchor="middle" x="605" y="-88" font-family="SF Pro Text Bold 10" font-size="10.00">%4</text>
</g>
<!-- n0x5e394088bb40 -->
<g id="node6" class="node">
<title>n0x5e394088bb40</title>
<ellipse fill="#00eef9" stroke="#1f1d31" cx="646" cy="-710.12" rx="25.72" ry="25.72"/>
<text text-anchor="middle" x="646" y="-707.32" font-family="SF Pro Text Bold 10" font-size="11.00" fill="#000000">i32 1</text>
</g>
<!-- n0x5e394088bb40&#45;&gt;n0x5e394088bf50 -->
<g id="edge7" class="edge">
<title>n0x5e394088bb40&#45;&gt;n0x5e394088bf50</title>
<path fill="none" stroke="#00ff00" d="M633.21,-687.46C617.95,-661.63 592.25,-618.12 574.28,-587.69"/>
<polygon fill="#00ff00" stroke="#00ff00" points="577.07,-585.53 568.97,-578.7 571.04,-589.09 577.07,-585.53"/>
<text text-anchor="middle" x="611.5" y="-631.42" font-family="SF Pro Text Bold 10" font-size="10.00">%&#45;1</text>
</g>
<!-- n0x5e394090af80 -->
<g id="node20" class="node">
<title>n0x5e394090af80</title>
<ellipse fill="#e8eef9" stroke="#1f1d31" cx="814" cy="-552.35" rx="30.13" ry="30.13"/>
<text text-anchor="middle" x="814" y="-549.55" font-family="SF Pro Text Bold 10" font-size="11.00" fill="#000000">alloca</text>
</g>
<!-- n0x5e394088bb40&#45;&gt;n0x5e394090af80 -->
<g id="edge30" class="edge">
<title>n0x5e394088bb40&#45;&gt;n0x5e394090af80</title>
<path fill="none" stroke="#00ff00" d="M664.62,-691.86C693.77,-664.83 750.41,-612.32 784.95,-580.29"/>
<polygon fill="#00ff00" stroke="#00ff00" points="787.43,-582.76 792.39,-573.39 782.67,-577.62 787.43,-582.76"/>
<text text-anchor="middle" x="739.5" y="-631.42" font-family="SF Pro Text Bold 10" font-size="10.00">%&#45;1</text>
</g>
<!-- n0x5e394090b0c0 -->
<g id="node22" class="node">
<title>n0x5e394090b0c0</title>
<ellipse fill="#e8eef9" stroke="#1f1d31" cx="817" cy="-282.42" rx="21.8" ry="21.8"/>
<text text-anchor="middle" x="817" y="-279.62" font-family="SF Pro Text Bold 10" font-size="11.00" fill="#000000">call</text>
</g>
<!-- n0x5e394088bb40&#45;&gt;n0x5e394090b0c0 -->
<g id="edge33" class="edge">
<title>n0x5e394088bb40&#45;&gt;n0x5e394090b0c0</title>
<path fill="none" stroke="#00ff00" d="M671.48,-705.55C715.72,-698.01 806.81,-676.29 857,-620.42 933.41,-535.37 952.36,-473.03 907,-368.08 894.21,-338.49 865.42,-314.46 843.82,-299.67"/>
<polygon fill="#00ff00" stroke="#00ff00" points="845.64,-296.67 835.36,-294.09 841.78,-302.52 845.64,-296.67"/>
<text text-anchor="middle" x="939.5" y="-481.47" font-family="SF Pro Text Bold 10" font-size="10.00">%&#45;1</text>
</g>
<!-- n0x5e3940884b40 -->
<g id="node7" class="node">
<title>n0x5e3940884b40</title>
<ellipse fill="#00eef9" stroke="#1f1d31" cx="451" cy="-552.35" rx="31.74" ry="31.74"/>
<text text-anchor="middle" x="451" y="-549.55" font-family="SF Pro Text Bold 10" font-size="11.00" fill="#000000">i32 %0</text>
</g>
<!-- n0x5e3940884b40&#45;&gt;n0x5e39408c9d40 -->
<g id="edge8" class="edge">
<title>n0x5e3940884b40&#45;&gt;n0x5e39408c9d40</title>
<path fill="none" stroke="#00ff00" d="M443.87,-521.09C441.75,-507.94 440.57,-492.39 443,-478.47 444.94,-467.35 448.57,-455.64 452.43,-445.19"/>
<polygon fill="#00ff00" stroke="#00ff00" points="455.79,-446.2 456.15,-435.62 449.26,-443.67 455.79,-446.2"/>
<text text-anchor="middle" x="451" y="-481.47" font-family="SF Pro Text Bold 10" font-size="10.00">%0</text>
</g>
<!-- n0x5e394088c1c0 -->
<g id="node8" class="node">
<title>n0x5e394088c1c0</title>
<ellipse fill="#00eef9" stroke="#1f1d31" cx="646" cy="-552.35" rx="26.42" ry="26.42"/>
<text text-anchor="middle" x="646" y="-549.55" font-family="SF Pro Text Bold 10" font-size="11.00" fill="#000000">i32 0</text>
</g>
<!-- n0x5e394088c1c0&#45;&gt;n0x5e39407cd2e0 -->
<g id="edge14" class="edge">
<title>n0x5e394088c1c0&#45;&gt;n0x5e39407cd2e0</title>
<path fill="none" stroke="#00ff00" d="M646.11,-525.75C646.33,-471.65 646.83,-341.73 647,-232.77 647.01,-227.88 647.04,-226.66 647,-221.77 646.93,-213.29 646.81,-204.16 646.68,-195.58"/>
<polygon fill="#00ff00" stroke="#00ff00" points="650.17,-195.42 646.51,-185.48 643.17,-195.53 650.17,-195.42"/>
<text text-anchor="middle" x="655.5" y="-335.08" font-family="SF Pro Text Bold 10" font-size="10.00">%&#45;1</text>
</g>
<!-- n0x5e394090b020 -->
<g id="node21" class="node">
<title>n0x5e394090b020</title>
<ellipse fill="#e8eef9" stroke="#1f1d31" cx="867" cy="-410.77" rx="27.12" ry="27.12"/>
<text text-anchor="middle" x="867" y="-407.97" font-family="SF Pro Text Bold 10" font-size="11.00" fill="#000000">store</text>
</g>
<!-- n0x5e394088c1c0&#45;&gt;n0x5e394090b020 -->
<g id="edge31" class="edge">
<title>n0x5e394088c1c0&#45;&gt;n0x5e394090b020</title>
<path fill="none" stroke="#00ff00" d="M668.8,-538.06C694.6,-523.15 737.97,-498.43 776,-478.47 798.35,-466.74 806.62,-468.36 827,-453.47 832.55,-449.41 838,-444.54 843,-439.58"/>
<polygon fill="#00ff00" stroke="#00ff00" points="845.55,-441.97 849.96,-432.33 840.51,-437.12 845.55,-441.97"/>
<text text-anchor="middle" x="785.5" y="-481.47" font-family="SF Pro Text Bold 10" font-size="10.00">%&#45;1</text>
</g>
<!-- n0x5e394090b1e0 -->
<g id="node23" class="node">
<title>n0x5e394090b1e0</title>
<ellipse fill="#e8eef9" stroke="#1f1d31" cx="760" cy="-158.88" rx="19.49" ry="19.49"/>
<text text-anchor="middle" x="760" y="-156.08" font-family="SF Pro Text Bold 10" font-size="11.00" fill="#000000">ret</text>
</g>
<!-- n0x5e394088c1c0&#45;&gt;n0x5e394090b1e0 -->
<g id="edge35" class="edge">
<title>n0x5e394088c1c0&#45;&gt;n0x5e394090b1e0</title>
<path fill="none" stroke="#00ff00" d="M653.13,-526.86C673.29,-457.62 730.63,-260.72 751.92,-187.64"/>
<polygon fill="#00ff00" stroke="#00ff00" points="755.35,-188.36 754.79,-177.78 748.63,-186.41 755.35,-188.36"/>
<text text-anchor="middle" x="718.5" y="-335.08" font-family="SF Pro Text Bold 10" font-size="10.00">%&#45;1</text>
</g>
<!-- n0x5e3940909100 -->
<g id="node9" class="node">
<title>n0x5e3940909100</title>
<ellipse fill="#00eef9" stroke="#1f1d31" cx="557" cy="-158.88" rx="37.07" ry="37.07"/>
<text text-anchor="middle" x="557" y="-156.08" font-family="SF Pro Text Bold 10" font-size="11.00" fill="#000000">label %7</text>
</g>
<!-- n0x5e3940909100&#45;&gt;n0x5e394088bd40 -->
<g id="edge16" class="edge">
<title>n0x5e3940909100&#45;&gt;n0x5e394088bd40</title>
<path fill="none" stroke="#00ff00" d="M562.05,-121.8C564.48,-109.78 567.99,-96.52 573,-85 576.11,-77.85 580.51,-70.65 584.94,-64.28"/>
<polygon fill="#00ff00" stroke="#00ff00" points="587.78,-66.33 590.89,-56.2 582.15,-62.18 587.78,-66.33"/>
<text text-anchor="middle" x="580.5" y="-88" font-family="SF Pro Text Bold 10" font-size="10.00">%7</text>
</g>
<!-- n0x5e3940909060 -->
<g id="node10" class="node">
<title>n0x5e3940909060</title>
<ellipse fill="#00eef9" stroke="#1f1d31" cx="457" cy="-158.88" rx="37.77" ry="37.77"/>
<text text-anchor="middle" x="457" y="-156.08" font-family="SF Pro Text Bold 10" font-size="11.00" fill="#000000">label %5</text>
</g>
<!-- n0x5e3940909060&#45;&gt;n0x5e394088bd40 -->
<g id="edge17" class="edge">
<title>n0x5e3940909060&#45;&gt;n0x5e394088bd40</title>
<path fill="none" stroke="#00ff00" d="M486.01,-134.04C503.57,-119.7 526.45,-101.16 547,-85 557.66,-76.61 569.62,-67.45 579.66,-59.83"/>
<polygon fill="#00ff00" stroke="#00ff00" points="582.04,-62.42 587.9,-53.59 577.81,-56.84 582.04,-62.42"/>
<text text-anchor="middle" x="555" y="-88" font-family="SF Pro Text Bold 10" font-size="10.00">%5</text>
</g>
<!-- n0x5e394090a010 -->
<g id="node11" class="node">
<title>n0x5e394090a010</title>
<ellipse fill="#e8eef9" stroke="#1f1d31" cx="159" cy="-552.35" rx="21.8" ry="21.8"/>
<text text-anchor="middle" x="159" y="-549.55" font-family="SF Pro Text Bold 10" font-size="11.00" fill="#000000">call</text>
</g>
<!-- n0x5e394090a090 -->
<g id="node12" class="node">
<title>n0x5e394090a090</title>
<ellipse fill="#e8eef9" stroke="#1f1d31" cx="200" cy="-410.77" rx="18" ry="18"/>
<text text-anchor="middle" x="200" y="-407.97" font-family="SF Pro Text Bold 10" font-size="11.00" fill="#000000">br</text>
</g>
<!-- n0x5e394090a010&#45;&gt;n0x5e394090a090 -->
<g id="edge18" class="edge">
<title>n0x5e394090a010&#45;&gt;n0x5e394090a090</title>
<path fill="none" stroke="#ff0000" d="M164.87,-531.35C172.1,-506.76 184.38,-464.94 192.34,-437.84"/>
<polygon fill="#ff0000" stroke="#ff0000" points="195.7,-438.83 195.16,-428.25 188.98,-436.86 195.7,-438.83"/>
</g>
<!-- n0x5e3940909f70 -->
<g id="node13" class="node">
<title>n0x5e3940909f70</title>
<ellipse fill="#00eef9" stroke="#1f1d31" cx="126" cy="-710.12" rx="39.17" ry="39.17"/>
<text text-anchor="middle" x="126" y="-707.32" font-family="SF Pro Text Bold 10" font-size="11.00" fill="#000000">ptr @.str</text>
</g>
<!-- n0x5e3940909f70&#45;&gt;n0x5e394090a010 -->
<g id="edge19" class="edge">
<title>n0x5e3940909f70&#45;&gt;n0x5e394090a010</title>
<path fill="none" stroke="#00ff00" d="M133.9,-671.81C139.61,-644.88 147.22,-608.96 152.56,-583.76"/>
<polygon fill="#00ff00" stroke="#00ff00" points="156.05,-584.19 154.69,-573.68 149.2,-582.74 156.05,-584.19"/>
<text text-anchor="middle" x="152.5" y="-631.42" font-family="SF Pro Text Bold 10" font-size="10.00">%&#45;1</text>
</g>
<!-- n0x5e39407cd3c8 -->
<g id="node14" class="node">
<title>n0x5e39407cd3c8</title>
<ellipse fill="#00eef9" stroke="#1f1d31" cx="236" cy="-710.12" rx="45.9" ry="45.9"/>
<text text-anchor="middle" x="236" y="-707.32" font-family="SF Pro Text Bold 10" font-size="11.00" fill="#000000">ptr @printf</text>
</g>
<!-- n0x5e39407cd3c8&#45;&gt;n0x5e394090a010 -->
<g id="edge20" class="edge">
<title>n0x5e39407cd3c8&#45;&gt;n0x5e394090a010</title>
<path fill="none" stroke="#00ff00" d="M215.75,-668.98C210.9,-659.31 205.75,-649.01 201,-639.42 191.44,-620.11 180.8,-598.3 172.62,-581.47"/>
<polygon fill="#00ff00" stroke="#00ff00" points="175.63,-579.65 168.11,-572.19 169.33,-582.71 175.63,-579.65"/>
<text text-anchor="middle" x="210.5" y="-631.42" font-family="SF Pro Text Bold 10" font-size="10.00">%&#45;1</text>
</g>
<!-- n0x5e394090a220 -->
<g id="node16" class="node">
<title>n0x5e394090a220</title>
<ellipse fill="#e8eef9" stroke="#1f1d31" cx="329" cy="-552.35" rx="21.8" ry="21.8"/>
<text text-anchor="middle" x="329" y="-549.55" font-family="SF Pro Text Bold 10" font-size="11.00" fill="#000000">call</text>
</g>
<!-- n0x5e39407cd3c8&#45;&gt;n0x5e394090a220 -->
<g id="edge24" class="edge">
<title>n0x5e39407cd3c8&#45;&gt;n0x5e394090a220</title>
<path fill="none" stroke="#00ff00" d="M262.57,-672.3C273.44,-656.63 285.83,-637.95 296,-620.42 303.2,-608.02 310.33,-593.84 316.11,-581.71"/>
<polygon fill="#00ff00" stroke="#00ff00" points="319.35,-583.05 320.43,-572.51 313.01,-580.07 319.35,-583.05"/>
<text text-anchor="middle" x="300.5" y="-631.42" font-family="SF Pro Text Bold 10" font-size="10.00">%&#45;1</text>
</g>
<!-- n0x5e39409090b0 -->
<g id="node15" class="node">
<title>n0x5e39409090b0</title>
<ellipse fill="#00eef9" stroke="#1f1d31" cx="244" cy="-552.35" rx="37.77" ry="37.77"/>
<text text-anchor="middle" x="244" y="-549.55" font-family="SF Pro Text Bold 10" font-size="11.00" fill="#000000">label %9</text>
</g>
<!-- n0x5e39409090b0&#45;&gt;n0x5e394090a090 -->
<g id="edge21" class="edge">
<title>n0x5e39409090b0&#45;&gt;n0x5e394090a090</title>
<path fill="none" stroke="#00ff00" d="M230.54,-516.85C227.26,-507.99 223.87,-498.42 221,-489.47 215.6,-472.6 210.4,-453.39 206.52,-438.29"/>
<polygon fill="#00ff00" stroke="#00ff00" points="209.91,-437.41 204.07,-428.57 203.12,-439.13 209.91,-437.41"/>
<text text-anchor="middle" x="229" y="-481.47" font-family="SF Pro Text Bold 10" font-size="10.00">%9</text>
</g>
<!-- n0x5e394090a2a0 -->
<g id="node17" class="node">
<title>n0x5e394090a2a0</title>
<ellipse fill="#e8eef9" stroke="#1f1d31" cx="327" cy="-410.77" rx="18" ry="18"/>
<text text-anchor="middle" x="327" y="-407.97" font-family="SF Pro Text Bold 10" font-size="11.00" fill="#000000">br</text>
</g>
<!-- n0x5e39409090b0&#45;&gt;n0x5e394090a2a0 -->
<g id="edge25" class="edge">
<title>n0x5e39409090b0&#45;&gt;n0x5e394090a2a0</title>
<path fill="none" stroke="#00ff00" d="M263.04,-519.33C278.27,-493.72 299.27,-458.41 312.99,-435.34"/>
<polygon fill="#00ff00" stroke="#00ff00" points="316.11,-436.94 318.21,-426.56 310.09,-433.36 316.11,-436.94"/>
<text text-anchor="middle" x="294" y="-481.47" font-family="SF Pro Text Bold 10" font-size="10.00">%9</text>
</g>
<!-- n0x5e394090a220&#45;&gt;n0x5e394090a2a0 -->
<g id="edge22" class="edge">
<title>n0x5e394090a220&#45;&gt;n0x5e394090a2a0</title>
<path fill="none" stroke="#ff0000" d="M328.7,-530.46C328.35,-506.13 327.78,-465.86 327.39,-439.08"/>
<polygon fill="#ff0000" stroke="#ff0000" points="330.89,-438.8 327.24,-428.85 323.89,-438.9 330.89,-438.8"/>
</g>
<!-- n0x5e394090a120 -->
<g id="node18" class="node">
<title>n0x5e394090a120</title>
<ellipse fill="#00eef9" stroke="#1f1d31" cx="351" cy="-710.12" rx="43.8" ry="43.8"/>
<text text-anchor="middle" x="351" y="-707.32" font-family="SF Pro Text Bold 10" font-size="11.00" fill="#000000">ptr @.str.1</text>
</g>
<!-- n0x5e394090a120&#45;&gt;n0x5e394090a220 -->
<g id="edge23" class="edge">
<title>n0x5e394090a120&#45;&gt;n0x5e394090a220</title>
<path fill="none" stroke="#00ff00" d="M344.99,-666.56C341.3,-640.47 336.67,-607.67 333.34,-584.1"/>
<polygon fill="#00ff00" stroke="#00ff00" points="336.78,-583.39 331.91,-573.98 329.85,-584.37 336.78,-583.39"/>
<text text-anchor="middle" x="350.5" y="-631.42" font-family="SF Pro Text Bold 10" font-size="10.00">%&#45;1</text>
</g>
<!-- n0x5e39408d9e40 -->
<g id="node19" class="node">
<title>n0x5e39408d9e40</title>
<ellipse fill="#e8eef9" stroke="#1f1d31" cx="43" cy="-710.12" rx="19.49" ry="19.49"/>
<text text-anchor="middle" x="43" y="-707.32" font-family="SF Pro Text Bold 10" font-size="11.00" fill="#000000">ret</text>
</g>
<!-- n0x5e394090af80&#45;&gt;n0x5e394090b020 -->
<g id="edge26" class="edge">
<title>n0x5e394090af80&#45;&gt;n0x5e394090b020</title>
<path fill="none" stroke="#ff0000" d="M803.83,-523.9C800.21,-509.9 798.29,-492.83 804,-478.47 804.53,-477.14 824.26,-456.35 841.5,-438.32"/>
<polygon fill="#ff0000" stroke="#ff0000" points="844.28,-440.48 848.67,-430.84 839.23,-435.64 844.28,-440.48"/>
</g>
<!-- n0x5e394090af80&#45;&gt;n0x5e394090b020 -->
<g id="edge29" class="edge">
<title>n0x5e394090af80&#45;&gt;n0x5e394090b020</title>
<path fill="none" stroke="#0000ff" d="M817.81,-522.38C820.14,-508.77 823.71,-492.49 829,-478.47 833.63,-466.19 840.31,-453.5 846.79,-442.52"/>
<polygon fill="#0000ff" stroke="#0000ff" points="849.92,-444.11 852.14,-433.75 843.94,-440.47 849.92,-444.11"/>
<text text-anchor="middle" x="836" y="-481.47" font-family="SF Pro Text Bold 10" font-size="10.00">%1</text>
</g>
<!-- n0x5e394090af80&#45;&gt;n0x5e394090b020 -->
<g id="edge32" class="edge">
<title>n0x5e394090af80&#45;&gt;n0x5e394090b020</title>
<path fill="none" stroke="#00ff00" d="M828.24,-525.65C833.94,-514.71 840.26,-501.68 845,-489.47 850.25,-475.93 854.86,-460.62 858.48,-447.2"/>
<polygon fill="#00ff00" stroke="#00ff00" points="861.91,-447.92 861.05,-437.36 855.13,-446.15 861.91,-447.92"/>
<text text-anchor="middle" x="855" y="-481.47" font-family="SF Pro Text Bold 10" font-size="10.00">%1</text>
</g>
<!-- n0x5e394090b020&#45;&gt;n0x5e394090b0c0 -->
<g id="edge27" class="edge">
<title>n0x5e394090b020&#45;&gt;n0x5e394090b0c0</title>
<path fill="none" stroke="#ff0000" d="M857.36,-385.41C849.09,-364.52 837.16,-334.37 828.42,-312.28"/>
<polygon fill="#ff0000" stroke="#ff0000" points="831.58,-310.76 824.65,-302.75 825.07,-313.34 831.58,-310.76"/>
</g>
<!-- n0x5e394090b0c0&#45;&gt;n0x5e394090b1e0 -->
<g id="edge28" class="edge">
<title>n0x5e394090b0c0&#45;&gt;n0x5e394090b1e0</title>
<path fill="none" stroke="#ff0000" d="M808.09,-262.43C798.45,-241.87 783,-208.94 772.23,-185.96"/>
<polygon fill="#ff0000" stroke="#ff0000" points="775.34,-184.35 767.93,-176.78 769,-187.32 775.34,-184.35"/>
</g>
<!-- n0x5e39407cc3a8 -->
<g id="node24" class="node">
<title>n0x5e39407cc3a8</title>
<ellipse fill="#00eef9" stroke="#1f1d31" cx="772" cy="-410.77" rx="42.89" ry="42.89"/>
<text text-anchor="middle" x="772" y="-407.97" font-family="SF Pro Text Bold 10" font-size="11.00" fill="#000000">ptr @func</text>
</g>
<!-- n0x5e39407cc3a8&#45;&gt;n0x5e394090b0c0 -->
<g id="edge34" class="edge">
<title>n0x5e39407cc3a8&#45;&gt;n0x5e394090b0c0</title>
<path fill="none" stroke="#00ff00" d="M786.11,-370.14C792.75,-351.51 800.52,-329.69 806.61,-312.59"/>
<polygon fill="#00ff00" stroke="#00ff00" points="809.92,-313.73 809.98,-303.14 803.33,-311.38 809.92,-313.73"/>
<text text-anchor="middle" x="807.5" y="-335.08" font-family="SF Pro Text Bold 10" font-size="10.00">%&#45;1</text>
</g>
</g>
</svg>
