<?xml version="1.0" encoding="UTF-8" standalone="no"?>
<!DOCTYPE svg PUBLIC "-//W3C//DTD SVG 1.1//EN"
 "http://www.w3.org/Graphics/SVG/1.1/DTD/svg11.dtd">
<!-- Generated by graphviz version 2.43.0 (0)
 -->
<!-- Title: examples/hello/hello.c Pages: 1 -->
<svg width="1140pt" height="1278pt"
 viewBox="0.00 0.00 1140.20 1278.20" xmlns="http://www.w3.org/2000/svg" xmlns:xlink="http://www.w3.org/1999/xlink">
<g id="graph0" class="graph" transform="scale(1 1) rotate(0) translate(21.6 1256.6)">
<title>examples/hello/hello.c</title>
<polygon fill="white" stroke="transparent" points="-21.6,21.6 -21.6,-1256.6 1118.6,-1256.6 1118.6,21.6 -21.6,21.6"/>
<g id="clust1" class="cluster">
<title>cluster_func_1</title>
<path fill="#e3e3e3" stroke="#000000" stroke-width="2" d="M304,-8C304,-8 1077,-8 1077,-8 1083,-8 1089,-14 1089,-20 1089,-20 1089,-1215 1089,-1215 1089,-1221 1083,-1227 1077,-1227 1077,-1227 304,-1227 304,-1227 298,-1227 292,-1221 292,-1215 292,-1215 292,-20 292,-20 292,-14 298,-8 304,-8"/>
<text text-anchor="middle" x="690.5" y="-1207" font-family="SF Pro Text Bold 10" font-size="20.00">func</text>
</g>
<g id="clust2" class="cluster">
<title>cluster_func_1_bb_1</title>
<path fill="#a4a4a4" stroke="#000000" stroke-width="2" d="M595,-409C595,-409 796,-409 796,-409 802,-409 808,-415 808,-421 808,-421 808,-1177 808,-1177 808,-1183 802,-1189 796,-1189 796,-1189 595,-1189 595,-1189 589,-1189 583,-1183 583,-1177 583,-1177 583,-421 583,-421 583,-415 589,-409 595,-409"/>
<text text-anchor="middle" x="695.5" y="-1173" font-family="SF Pro Text Bold 10" font-size="15.00">label %1</text>
</g>
<g id="clust3" class="cluster">
<title>cluster_func_1_bb_2</title>
<path fill="#a4a4a4" stroke="#000000" stroke-width="2" d="M828,-147C828,-147 1069,-147 1069,-147 1075,-147 1081,-153 1081,-159 1081,-159 1081,-474 1081,-474 1081,-480 1075,-486 1069,-486 1069,-486 828,-486 828,-486 822,-486 816,-480 816,-474 816,-474 816,-159 816,-159 816,-153 822,-147 828,-147"/>
<text text-anchor="middle" x="948.5" y="-470" font-family="SF Pro Text Bold 10" font-size="15.00">label %5</text>
</g>
<g id="clust4" class="cluster">
<title>cluster_func_1_bb_3</title>
<path fill="#a4a4a4" stroke="#000000" stroke-width="2" d="M312,-147C312,-147 563,-147 563,-147 569,-147 575,-153 575,-159 575,-159 575,-474 575,-474 575,-480 569,-486 563,-486 563,-486 312,-486 312,-486 306,-486 300,-480 300,-474 300,-474 300,-159 300,-159 300,-153 306,-147 312,-147"/>
<text text-anchor="middle" x="437.5" y="-470" font-family="SF Pro Text Bold 10" font-size="15.00">label %7</text>
</g>
<g id="clust5" class="cluster">
<title>cluster_func_1_bb_4</title>
<path fill="#a4a4a4" stroke="#000000" stroke-width="2" d="M668,-16C668,-16 724,-16 724,-16 730,-16 736,-22 736,-28 736,-28 736,-81 736,-81 736,-87 730,-93 724,-93 724,-93 668,-93 668,-93 662,-93 656,-87 656,-81 656,-81 656,-28 656,-28 656,-22 662,-16 668,-16"/>
<text text-anchor="middle" x="696" y="-77" font-family="SF Pro Text Bold 10" font-size="15.00">label %9</text>
</g>
<g id="clust7" class="cluster">
<title>cluster_func_3</title>
<path fill="#e3e3e3" stroke="#000000" stroke-width="2" d="M20,-548C20,-548 272,-548 272,-548 278,-548 284,-554 284,-560 284,-560 284,-1215 284,-1215 284,-1221 278,-1227 272,-1227 272,-1227 20,-1227 20,-1227 14,-1227 8,-1221 8,-1215 8,-1215 8,-560 8,-560 8,-554 14,-548 20,-548"/>
<text text-anchor="middle" x="146" y="-1207" font-family="SF Pro Text Bold 10" font-size="20.00">main</text>
</g>
<g id="clust8" class="cluster">
<title>cluster_func_3_bb_1</title>
<path fill="#a4a4a4" stroke="#000000" stroke-width="2" d="M28,-556C28,-556 264,-556 264,-556 270,-556 276,-562 276,-568 276,-568 276,-1177 276,-1177 276,-1183 270,-1189 264,-1189 264,-1189 28,-1189 28,-1189 22,-1189 16,-1183 16,-1177 16,-1177 16,-568 16,-568 16,-562 22,-556 28,-556"/>
<text text-anchor="middle" x="146" y="-1173" font-family="SF Pro Text Bold 10" font-size="15.00">label %0</text>
</g>
<!-- n0x6549de716f50 -->
<g id="node1" class="node">
<title>n0x6549de716f50</title>
<path fill="#6d95df" stroke="#000000" d="M774,-1025C774,-1025 736,-1025 736,-1025 730,-1025 724,-1019 724,-1013 724,-1013 724,-1001 724,-1001 724,-995 730,-989 736,-989 736,-989 774,-989 774,-989 780,-989 786,-995 786,-1001 786,-1001 786,-1013 786,-1013 786,-1019 780,-1025 774,-1025"/>
<text text-anchor="middle" x="755" y="-1003.5" font-family="SF Pro Text Bold 10" font-size="15.00" fill="#000000">alloca</text>
</g>
<!-- n0x6549de754d40 -->
<g id="node2" class="node">
<title>n0x6549de754d40</title>
<path fill="#6d95df" stroke="#000000" d="M634.5,-878C634.5,-878 603.5,-878 603.5,-878 597.5,-878 591.5,-872 591.5,-866 591.5,-866 591.5,-854 591.5,-854 591.5,-848 597.5,-842 603.5,-842 603.5,-842 634.5,-842 634.5,-842 640.5,-842 646.5,-848 646.5,-854 646.5,-854 646.5,-866 646.5,-866 646.5,-872 640.5,-878 634.5,-878"/>
<text text-anchor="middle" x="619" y="-856.5" font-family="SF Pro Text Bold 10" font-size="15.00" fill="#000000">store</text>
</g>
<!-- n0x6549de716f50&#45;&gt;n0x6549de754d40 -->
<g id="edge1" class="edge">
<title>n0x6549de716f50&#45;&gt;n0x6549de754d40</title>
<path fill="none" stroke="#ff3636" stroke-width="3" d="M737.34,-988.89C724.32,-976.15 706.31,-958.23 691,-942 673.63,-923.58 654.63,-902.15 640.51,-885.96"/>
<polygon fill="#ff3636" stroke="#ff3636" stroke-width="3" points="642.81,-883.27 633.61,-878.01 637.53,-887.86 642.81,-883.27"/>
</g>
<!-- n0x6549de716f50&#45;&gt;n0x6549de754d40 -->
<g id="edge6" class="edge">
<title>n0x6549de716f50&#45;&gt;n0x6549de754d40</title>
<path fill="none" stroke="#00b3ff" stroke-width="2" d="M741.77,-988.69C728.68,-971.9 707.8,-945.96 688,-925 674.9,-911.13 659.39,-896.6 646.4,-884.9"/>
<polygon fill="#00b3ff" stroke="#00b3ff" stroke-width="2" points="648.47,-882.05 638.68,-878 643.81,-887.27 648.47,-882.05"/>
<text text-anchor="middle" x="712.5" y="-930" font-family="SF Pro Text Bold 10" font-size="15.00">%2</text>
</g>
<!-- n0x6549de794170 -->
<g id="node3" class="node">
<title>n0x6549de794170</title>
<path fill="#6d95df" stroke="#000000" d="M754,-747C754,-747 724,-747 724,-747 718,-747 712,-741 712,-735 712,-735 712,-723 712,-723 712,-717 718,-711 724,-711 724,-711 754,-711 754,-711 760,-711 766,-717 766,-723 766,-723 766,-735 766,-735 766,-741 760,-747 754,-747"/>
<text text-anchor="middle" x="739" y="-725.5" font-family="SF Pro Text Bold 10" font-size="15.00" fill="#000000">load</text>
</g>
<!-- n0x6549de716f50&#45;&gt;n0x6549de794170 -->
<g id="edge5" class="edge">
<title>n0x6549de716f50&#45;&gt;n0x6549de794170</title>
<path fill="none" stroke="#00b3ff" stroke-width="2" d="M754,-988.73C751.31,-942.27 743.88,-814.25 740.6,-757.59"/>
<polygon fill="#00b3ff" stroke="#00b3ff" stroke-width="2" points="744.07,-757.04 740,-747.26 737.09,-757.44 744.07,-757.04"/>
<text text-anchor="middle" x="758.5" y="-856.5" font-family="SF Pro Text Bold 10" font-size="15.00">%2</text>
</g>
<!-- n0x6549de754d40&#45;&gt;n0x6549de794170 -->
<g id="edge2" class="edge">
<title>n0x6549de754d40&#45;&gt;n0x6549de794170</title>
<path fill="none" stroke="#ff3636" stroke-width="3" d="M634.94,-841.87C655.74,-819.51 692.28,-780.22 716.06,-754.66"/>
<polygon fill="#ff3636" stroke="#ff3636" stroke-width="3" points="718.75,-756.91 723,-747.2 713.63,-752.14 718.75,-756.91"/>
</g>
<!-- n0x6549de6582e0 -->
<g id="node4" class="node">
<title>n0x6549de6582e0</title>
<path fill="#6d95df" stroke="#000000" d="M720,-600C720,-600 690,-600 690,-600 684,-600 678,-594 678,-588 678,-588 678,-576 678,-576 678,-570 684,-564 690,-564 690,-564 720,-564 720,-564 726,-564 732,-570 732,-576 732,-576 732,-588 732,-588 732,-594 726,-600 720,-600"/>
<text text-anchor="middle" x="705" y="-578.5" font-family="SF Pro Text Bold 10" font-size="15.00" fill="#000000">icmp</text>
</g>
<!-- n0x6549de794170&#45;&gt;n0x6549de6582e0 -->
<g id="edge3" class="edge">
<title>n0x6549de794170&#45;&gt;n0x6549de6582e0</title>
<path fill="none" stroke="#ff3636" stroke-width="3" d="M729.21,-710.96C722.52,-698.41 714.15,-680.69 710,-664 705.64,-646.45 704.39,-626.13 704.24,-610.23"/>
<polygon fill="#ff3636" stroke="#ff3636" stroke-width="3" points="707.74,-610.04 704.28,-600.02 700.74,-610.01 707.74,-610.04"/>
</g>
<!-- n0x6549de794170&#45;&gt;n0x6549de6582e0 -->
<g id="edge9" class="edge">
<title>n0x6549de794170&#45;&gt;n0x6549de6582e0</title>
<path fill="none" stroke="#00b3ff" stroke-width="2" d="M734.97,-710.8C729.14,-685.94 718.31,-639.74 711.38,-610.23"/>
<polygon fill="#00b3ff" stroke="#00b3ff" stroke-width="2" points="714.72,-609.12 709.03,-600.18 707.9,-610.72 714.72,-609.12"/>
<text text-anchor="middle" x="734.5" y="-652" font-family="SF Pro Text Bold 10" font-size="15.00">%3</text>
</g>
<!-- n0x6549de716d40 -->
<g id="node5" class="node">
<title>n0x6549de716d40</title>
<path fill="#6d95df" stroke="#000000" d="M720,-453C720,-453 690,-453 690,-453 684,-453 678,-447 678,-441 678,-441 678,-429 678,-429 678,-423 684,-417 690,-417 690,-417 720,-417 720,-417 726,-417 732,-423 732,-429 732,-429 732,-441 732,-441 732,-447 726,-453 720,-453"/>
<text text-anchor="middle" x="705" y="-431.5" font-family="SF Pro Text Bold 10" font-size="15.00" fill="#000000">br</text>
</g>
<!-- n0x6549de6582e0&#45;&gt;n0x6549de716d40 -->
<g id="edge4" class="edge">
<title>n0x6549de6582e0&#45;&gt;n0x6549de716d40</title>
<path fill="none" stroke="#ff3636" stroke-width="3" d="M705,-563.8C705,-538.94 705,-492.74 705,-463.23"/>
<polygon fill="#ff3636" stroke="#ff3636" stroke-width="3" points="708.5,-463.18 705,-453.18 701.5,-463.18 708.5,-463.18"/>
</g>
<!-- n0x6549de6582e0&#45;&gt;n0x6549de716d40 -->
<g id="edge10" class="edge">
<title>n0x6549de6582e0&#45;&gt;n0x6549de716d40</title>
<path fill="none" stroke="#00b3ff" stroke-width="2" d="M705.68,-563.89C706.16,-551 706.75,-532.89 707,-517 707.28,-499.06 706.78,-478.89 706.22,-463.16"/>
<polygon fill="#00b3ff" stroke="#00b3ff" stroke-width="2" points="709.71,-462.92 705.82,-453.06 702.72,-463.19 709.71,-462.92"/>
<text text-anchor="middle" x="719" y="-505" font-family="SF Pro Text Bold 10" font-size="15.00">%4</text>
</g>
<!-- n0x6549de795010 -->
<g id="node9" class="node">
<title>n0x6549de795010</title>
<path fill="#6d95df" stroke="#000000" d="M866,-322C866,-322 836,-322 836,-322 830,-322 824,-316 824,-310 824,-310 824,-298 824,-298 824,-292 830,-286 836,-286 836,-286 866,-286 866,-286 872,-286 878,-292 878,-298 878,-298 878,-310 878,-310 878,-316 872,-322 866,-322"/>
<text text-anchor="middle" x="851" y="-300.5" font-family="SF Pro Text Bold 10" font-size="15.00" fill="#000000">call</text>
</g>
<!-- n0x6549de716d40&#45;&gt;n0x6549de795010 -->
<g id="edge18" class="edge">
<title>n0x6549de716d40&#45;&gt;n0x6549de795010</title>
<path fill="none" stroke="#ff8800" stroke-width="5" d="M724.39,-416.87C749.91,-394.32 794.93,-354.54 823.84,-329"/>
<polygon fill="#ff8800" stroke="#ff8800" stroke-width="5" points="826.94,-332.1 831.53,-322.2 821.14,-325.54 826.94,-332.1"/>
</g>
<!-- n0x6549de795220 -->
<g id="node13" class="node">
<title>n0x6549de795220</title>
<path fill="#6d95df" stroke="#000000" d="M555,-322C555,-322 525,-322 525,-322 519,-322 513,-316 513,-310 513,-310 513,-298 513,-298 513,-292 519,-286 525,-286 525,-286 555,-286 555,-286 561,-286 567,-292 567,-298 567,-298 567,-310 567,-310 567,-316 561,-322 555,-322"/>
<text text-anchor="middle" x="540" y="-300.5" font-family="SF Pro Text Bold 10" font-size="15.00" fill="#000000">call</text>
</g>
<!-- n0x6549de716d40&#45;&gt;n0x6549de795220 -->
<g id="edge19" class="edge">
<title>n0x6549de716d40&#45;&gt;n0x6549de795220</title>
<path fill="none" stroke="#ff8800" stroke-width="5" d="M683.09,-416.87C654.12,-394.22 602.94,-354.2 570.28,-328.68"/>
<polygon fill="#ff8800" stroke="#ff8800" stroke-width="5" points="572.57,-324.91 562,-322.2 567.18,-331.81 572.57,-324.91"/>
</g>
<!-- u0x6549de716f30 -->
<g id="node6" class="node">
<title>u0x6549de716f30</title>
<path fill="#d66868" stroke="#000000" d="M770,-1156C770,-1156 740,-1156 740,-1156 734,-1156 728,-1150 728,-1144 728,-1144 728,-1132 728,-1132 728,-1126 734,-1120 740,-1120 740,-1120 770,-1120 770,-1120 776,-1120 782,-1126 782,-1132 782,-1132 782,-1144 782,-1144 782,-1150 776,-1156 770,-1156"/>
<text text-anchor="middle" x="755" y="-1134.5" font-family="SF Pro Text Bold 10" font-size="15.00" fill="#000000">i32 1</text>
</g>
<!-- u0x6549de716f30&#45;&gt;n0x6549de716f50 -->
<g id="edge7" class="edge">
<title>u0x6549de716f30&#45;&gt;n0x6549de716f50</title>
<path fill="none" stroke="#00b3ff" stroke-width="2" d="M755,-1119.87C755,-1098.28 755,-1060.91 755,-1035.35"/>
<polygon fill="#00b3ff" stroke="#00b3ff" stroke-width="2" points="758.5,-1035.2 755,-1025.2 751.5,-1035.2 758.5,-1035.2"/>
</g>
<!-- u0x6549de754d00 -->
<g id="node7" class="node">
<title>u0x6549de754d00</title>
<path fill="#d66868" stroke="#000000" d="M647,-1025C647,-1025 603,-1025 603,-1025 597,-1025 591,-1019 591,-1013 591,-1013 591,-1001 591,-1001 591,-995 597,-989 603,-989 603,-989 647,-989 647,-989 653,-989 659,-995 659,-1001 659,-1001 659,-1013 659,-1013 659,-1019 653,-1025 647,-1025"/>
<text text-anchor="middle" x="625" y="-1003.5" font-family="SF Pro Text Bold 10" font-size="15.00" fill="#000000">i32 %0</text>
</g>
<!-- u0x6549de754d00&#45;&gt;n0x6549de754d40 -->
<g id="edge8" class="edge">
<title>u0x6549de754d00&#45;&gt;n0x6549de754d40</title>
<path fill="none" stroke="#00b3ff" stroke-width="2" d="M624.29,-988.8C623.26,-963.94 621.35,-917.74 620.13,-888.23"/>
<polygon fill="#00b3ff" stroke="#00b3ff" stroke-width="2" points="623.62,-888.03 619.71,-878.18 616.63,-888.32 623.62,-888.03"/>
<text text-anchor="middle" x="634" y="-930" font-family="SF Pro Text Bold 10" font-size="15.00">%0</text>
</g>
<!-- u0x6549de6582c0 -->
<g id="node8" class="node">
<title>u0x6549de6582c0</title>
<path fill="#d66868" stroke="#000000" d="M634.5,-747C634.5,-747 603.5,-747 603.5,-747 597.5,-747 591.5,-741 591.5,-735 591.5,-735 591.5,-723 591.5,-723 591.5,-717 597.5,-711 603.5,-711 603.5,-711 634.5,-711 634.5,-711 640.5,-711 646.5,-717 646.5,-723 646.5,-723 646.5,-735 646.5,-735 646.5,-741 640.5,-747 634.5,-747"/>
<text text-anchor="middle" x="619" y="-725.5" font-family="SF Pro Text Bold 10" font-size="15.00" fill="#000000">i32 0</text>
</g>
<!-- u0x6549de6582c0&#45;&gt;n0x6549de6582e0 -->
<g id="edge11" class="edge">
<title>u0x6549de6582c0&#45;&gt;n0x6549de6582e0</title>
<path fill="none" stroke="#00b3ff" stroke-width="2" d="M629.2,-710.8C644.14,-685.62 672.07,-638.52 689.54,-609.07"/>
<polygon fill="#00b3ff" stroke="#00b3ff" stroke-width="2" points="692.72,-610.57 694.81,-600.18 686.7,-607 692.72,-610.57"/>
</g>
<!-- n0x6549de795090 -->
<g id="node10" class="node">
<title>n0x6549de795090</title>
<path fill="#6d95df" stroke="#000000" d="M866,-191C866,-191 836,-191 836,-191 830,-191 824,-185 824,-179 824,-179 824,-167 824,-167 824,-161 830,-155 836,-155 836,-155 866,-155 866,-155 872,-155 878,-161 878,-167 878,-167 878,-179 878,-179 878,-185 872,-191 866,-191"/>
<text text-anchor="middle" x="851" y="-169.5" font-family="SF Pro Text Bold 10" font-size="15.00" fill="#000000">br</text>
</g>
<!-- n0x6549de795010&#45;&gt;n0x6549de795090 -->
<g id="edge12" class="edge">
<title>n0x6549de795010&#45;&gt;n0x6549de795090</title>
<path fill="none" stroke="#ff3636" stroke-width="3" d="M851,-285.87C851,-264.28 851,-226.91 851,-201.35"/>
<polygon fill="#ff3636" stroke="#ff3636" stroke-width="3" points="854.5,-201.2 851,-191.2 847.5,-201.2 854.5,-201.2"/>
</g>
<!-- n0x6549de764e40 -->
<g id="node17" class="node">
<title>n0x6549de764e40</title>
<path fill="#6d95df" stroke="#000000" d="M711,-60C711,-60 681,-60 681,-60 675,-60 669,-54 669,-48 669,-48 669,-36 669,-36 669,-30 675,-24 681,-24 681,-24 711,-24 711,-24 717,-24 723,-30 723,-36 723,-36 723,-48 723,-48 723,-54 717,-60 711,-60"/>
<text text-anchor="middle" x="696" y="-38.5" font-family="SF Pro Text Bold 10" font-size="15.00" fill="#000000">ret</text>
</g>
<!-- n0x6549de795090&#45;&gt;n0x6549de764e40 -->
<g id="edge21" class="edge">
<title>n0x6549de795090&#45;&gt;n0x6549de764e40</title>
<path fill="none" stroke="#ff8800" stroke-width="5" d="M830.42,-154.87C803.2,-132.22 755.12,-92.2 724.45,-66.68"/>
<polygon fill="#ff8800" stroke="#ff8800" stroke-width="5" points="727.15,-63.24 716.67,-60.2 721.56,-69.96 727.15,-63.24"/>
</g>
<!-- u0x6549de794fd0 -->
<g id="node11" class="node">
<title>u0x6549de794fd0</title>
<path fill="#d66868" stroke="#000000" d="M1060.5,-453C1060.5,-453 1001.5,-453 1001.5,-453 995.5,-453 989.5,-447 989.5,-441 989.5,-441 989.5,-429 989.5,-429 989.5,-423 995.5,-417 1001.5,-417 1001.5,-417 1060.5,-417 1060.5,-417 1066.5,-417 1072.5,-423 1072.5,-429 1072.5,-429 1072.5,-441 1072.5,-441 1072.5,-447 1066.5,-453 1060.5,-453"/>
<text text-anchor="middle" x="1031" y="-431.5" font-family="SF Pro Text Bold 10" font-size="15.00" fill="#000000">ptr @.str</text>
</g>
<!-- u0x6549de794fd0&#45;&gt;n0x6549de795010 -->
<g id="edge13" class="edge">
<title>u0x6549de794fd0&#45;&gt;n0x6549de795010</title>
<path fill="none" stroke="#00b3ff" stroke-width="2" d="M1007.1,-416.87C975.23,-394.03 918.7,-353.52 883.13,-328.03"/>
<polygon fill="#00b3ff" stroke="#00b3ff" stroke-width="2" points="885.17,-325.18 875,-322.2 881.09,-330.87 885.17,-325.18"/>
</g>
<!-- u0x6549de794ff0 -->
<g id="node12" class="node">
<title>u0x6549de794ff0</title>
<path fill="#d66868" stroke="#000000" d="M912,-453C912,-453 836,-453 836,-453 830,-453 824,-447 824,-441 824,-441 824,-429 824,-429 824,-423 830,-417 836,-417 836,-417 912,-417 912,-417 918,-417 924,-423 924,-429 924,-429 924,-441 924,-441 924,-447 918,-453 912,-453"/>
<text text-anchor="middle" x="874" y="-431.5" font-family="SF Pro Text Bold 10" font-size="15.00" fill="#000000">ptr @printf</text>
</g>
<!-- u0x6549de794ff0&#45;&gt;n0x6549de795010 -->
<g id="edge14" class="edge">
<title>u0x6549de794ff0&#45;&gt;n0x6549de795010</title>
<path fill="none" stroke="#00b3ff" stroke-width="2" d="M870.95,-416.87C867.1,-395.28 860.43,-357.91 855.88,-332.35"/>
<polygon fill="#00b3ff" stroke="#00b3ff" stroke-width="2" points="859.27,-331.43 854.07,-322.2 852.38,-332.66 859.27,-331.43"/>
</g>
<!-- n0x6549de7952a0 -->
<g id="node14" class="node">
<title>n0x6549de7952a0</title>
<path fill="#6d95df" stroke="#000000" d="M555,-191C555,-191 525,-191 525,-191 519,-191 513,-185 513,-179 513,-179 513,-167 513,-167 513,-161 519,-155 525,-155 525,-155 555,-155 555,-155 561,-155 567,-161 567,-167 567,-167 567,-179 567,-179 567,-185 561,-191 555,-191"/>
<text text-anchor="middle" x="540" y="-169.5" font-family="SF Pro Text Bold 10" font-size="15.00" fill="#000000">br</text>
</g>
<!-- n0x6549de795220&#45;&gt;n0x6549de7952a0 -->
<g id="edge15" class="edge">
<title>n0x6549de795220&#45;&gt;n0x6549de7952a0</title>
<path fill="none" stroke="#ff3636" stroke-width="3" d="M540,-285.87C540,-264.28 540,-226.91 540,-201.35"/>
<polygon fill="#ff3636" stroke="#ff3636" stroke-width="3" points="543.5,-201.2 540,-191.2 536.5,-201.2 543.5,-201.2"/>
</g>
<!-- n0x6549de7952a0&#45;&gt;n0x6549de764e40 -->
<g id="edge20" class="edge">
<title>n0x6549de7952a0&#45;&gt;n0x6549de764e40</title>
<path fill="none" stroke="#ff8800" stroke-width="5" d="M560.72,-154.87C588.11,-132.22 636.5,-92.2 667.37,-66.68"/>
<polygon fill="#ff8800" stroke="#ff8800" stroke-width="5" points="670.28,-69.95 675.2,-60.2 664.7,-63.2 670.28,-69.95"/>
</g>
<!-- u0x6549de7951e0 -->
<g id="node15" class="node">
<title>u0x6549de7951e0</title>
<path fill="#d66868" stroke="#000000" d="M555,-453C555,-453 485,-453 485,-453 479,-453 473,-447 473,-441 473,-441 473,-429 473,-429 473,-423 479,-417 485,-417 485,-417 555,-417 555,-417 561,-417 567,-423 567,-429 567,-429 567,-441 567,-441 567,-447 561,-453 555,-453"/>
<text text-anchor="middle" x="520" y="-431.5" font-family="SF Pro Text Bold 10" font-size="15.00" fill="#000000">ptr @.str.1</text>
</g>
<!-- u0x6549de7951e0&#45;&gt;n0x6549de795220 -->
<g id="edge16" class="edge">
<title>u0x6549de7951e0&#45;&gt;n0x6549de795220</title>
<path fill="none" stroke="#00b3ff" stroke-width="2" d="M522.66,-416.87C526,-395.28 531.8,-357.91 535.76,-332.35"/>
<polygon fill="#00b3ff" stroke="#00b3ff" stroke-width="2" points="539.26,-332.62 537.33,-322.2 532.34,-331.55 539.26,-332.62"/>
</g>
<!-- u0x6549de795200 -->
<g id="node16" class="node">
<title>u0x6549de795200</title>
<path fill="#d66868" stroke="#000000" d="M396,-453C396,-453 320,-453 320,-453 314,-453 308,-447 308,-441 308,-441 308,-429 308,-429 308,-423 314,-417 320,-417 320,-417 396,-417 396,-417 402,-417 408,-423 408,-429 408,-429 408,-441 408,-441 408,-447 402,-453 396,-453"/>
<text text-anchor="middle" x="358" y="-431.5" font-family="SF Pro Text Bold 10" font-size="15.00" fill="#000000">ptr @printf</text>
</g>
<!-- u0x6549de795200&#45;&gt;n0x6549de795220 -->
<g id="edge17" class="edge">
<title>u0x6549de795200&#45;&gt;n0x6549de795220</title>
<path fill="none" stroke="#00b3ff" stroke-width="2" d="M382.17,-416.87C414.39,-394.03 471.54,-353.52 507.51,-328.03"/>
<polygon fill="#00b3ff" stroke="#00b3ff" stroke-width="2" points="509.6,-330.84 515.73,-322.2 505.55,-325.13 509.6,-330.84"/>
</g>
<!-- n0x6549de795f80 -->
<g id="node18" class="node">
<title>n0x6549de795f80</title>
<path fill="#6d95df" stroke="#000000" d="M195,-1025C195,-1025 157,-1025 157,-1025 151,-1025 145,-1019 145,-1013 145,-1013 145,-1001 145,-1001 145,-995 151,-989 157,-989 157,-989 195,-989 195,-989 201,-989 207,-995 207,-1001 207,-1001 207,-1013 207,-1013 207,-1019 201,-1025 195,-1025"/>
<text text-anchor="middle" x="176" y="-1003.5" font-family="SF Pro Text Bold 10" font-size="15.00" fill="#000000">alloca</text>
</g>
<!-- n0x6549de796020 -->
<g id="node19" class="node">
<title>n0x6549de796020</title>
<path fill="#6d95df" stroke="#000000" d="M191.5,-878C191.5,-878 160.5,-878 160.5,-878 154.5,-878 148.5,-872 148.5,-866 148.5,-866 148.5,-854 148.5,-854 148.5,-848 154.5,-842 160.5,-842 160.5,-842 191.5,-842 191.5,-842 197.5,-842 203.5,-848 203.5,-854 203.5,-854 203.5,-866 203.5,-866 203.5,-872 197.5,-878 191.5,-878"/>
<text text-anchor="middle" x="176" y="-856.5" font-family="SF Pro Text Bold 10" font-size="15.00" fill="#000000">store</text>
</g>
<!-- n0x6549de795f80&#45;&gt;n0x6549de796020 -->
<g id="edge22" class="edge">
<title>n0x6549de795f80&#45;&gt;n0x6549de796020</title>
<path fill="none" stroke="#ff3636" stroke-width="3" d="M176,-988.8C176,-963.94 176,-917.74 176,-888.23"/>
<polygon fill="#ff3636" stroke="#ff3636" stroke-width="3" points="179.5,-888.18 176,-878.18 172.5,-888.18 179.5,-888.18"/>
</g>
<!-- n0x6549de795f80&#45;&gt;n0x6549de796020 -->
<g id="edge25" class="edge">
<title>n0x6549de795f80&#45;&gt;n0x6549de796020</title>
<path fill="none" stroke="#00b3ff" stroke-width="2" d="M176.82,-988.94C177.51,-972.54 178.34,-947.08 178,-925 177.81,-912.95 177.42,-899.64 177.04,-888.29"/>
<polygon fill="#00b3ff" stroke="#00b3ff" stroke-width="2" points="180.53,-887.98 176.68,-878.11 173.54,-888.23 180.53,-887.98"/>
<text text-anchor="middle" x="189.5" y="-930" font-family="SF Pro Text Bold 10" font-size="15.00">%1</text>
</g>
<!-- n0x6549de7960c0 -->
<g id="node20" class="node">
<title>n0x6549de7960c0</title>
<path fill="#6d95df" stroke="#000000" d="M191,-747C191,-747 161,-747 161,-747 155,-747 149,-741 149,-735 149,-735 149,-723 149,-723 149,-717 155,-711 161,-711 161,-711 191,-711 191,-711 197,-711 203,-717 203,-723 203,-723 203,-735 203,-735 203,-741 197,-747 191,-747"/>
<text text-anchor="middle" x="176" y="-725.5" font-family="SF Pro Text Bold 10" font-size="15.00" fill="#000000">call</text>
</g>
<!-- n0x6549de796020&#45;&gt;n0x6549de7960c0 -->
<g id="edge23" class="edge">
<title>n0x6549de796020&#45;&gt;n0x6549de7960c0</title>
<path fill="none" stroke="#ff3636" stroke-width="3" d="M176,-841.87C176,-820.28 176,-782.91 176,-757.35"/>
<polygon fill="#ff3636" stroke="#ff3636" stroke-width="3" points="179.5,-757.2 176,-747.2 172.5,-757.2 179.5,-757.2"/>
</g>
<!-- n0x6549de7960c0&#45;&gt;n0x6549de716f50 -->
<g id="edge28" class="edge">
<title>n0x6549de7960c0&#45;&gt;n0x6549de716f50</title>
<path fill="none" stroke="#ff8800" stroke-width="5" stroke-dasharray="5,2" d="M203.18,-730.59C311.47,-733.57 709.93,-750.69 786,-842 818.86,-881.44 791.39,-944.84 771.36,-980.14"/>
<polygon fill="#ff8800" stroke="#ff8800" stroke-width="5" points="767.51,-978.06 766.21,-988.9 775.05,-982.49 767.51,-978.06"/>
</g>
<!-- n0x6549de7961e0 -->
<g id="node21" class="node">
<title>n0x6549de7961e0</title>
<path fill="#6d95df" stroke="#000000" d="M191,-600C191,-600 161,-600 161,-600 155,-600 149,-594 149,-588 149,-588 149,-576 149,-576 149,-570 155,-564 161,-564 161,-564 191,-564 191,-564 197,-564 203,-570 203,-576 203,-576 203,-588 203,-588 203,-594 197,-600 191,-600"/>
<text text-anchor="middle" x="176" y="-578.5" font-family="SF Pro Text Bold 10" font-size="15.00" fill="#000000">ret</text>
</g>
<!-- n0x6549de7960c0&#45;&gt;n0x6549de7961e0 -->
<g id="edge24" class="edge">
<title>n0x6549de7960c0&#45;&gt;n0x6549de7961e0</title>
<path fill="none" stroke="#ff3636" stroke-width="3" d="M176,-710.8C176,-685.94 176,-639.74 176,-610.23"/>
<polygon fill="#ff3636" stroke="#ff3636" stroke-width="3" points="179.5,-610.18 176,-600.18 172.5,-610.18 179.5,-610.18"/>
</g>
<!-- u0x6549de795f60 -->
<g id="node22" class="node">
<title>u0x6549de795f60</title>
<path fill="#d66868" stroke="#000000" d="M191,-1156C191,-1156 161,-1156 161,-1156 155,-1156 149,-1150 149,-1144 149,-1144 149,-1132 149,-1132 149,-1126 155,-1120 161,-1120 161,-1120 191,-1120 191,-1120 197,-1120 203,-1126 203,-1132 203,-1132 203,-1144 203,-1144 203,-1150 197,-1156 191,-1156"/>
<text text-anchor="middle" x="176" y="-1134.5" font-family="SF Pro Text Bold 10" font-size="15.00" fill="#000000">i32 1</text>
</g>
<!-- u0x6549de795f60&#45;&gt;n0x6549de795f80 -->
<g id="edge26" class="edge">
<title>u0x6549de795f60&#45;&gt;n0x6549de795f80</title>
<path fill="none" stroke="#00b3ff" stroke-width="2" d="M176,-1119.87C176,-1098.28 176,-1060.91 176,-1035.35"/>
<polygon fill="#00b3ff" stroke="#00b3ff" stroke-width="2" points="179.5,-1035.2 176,-1025.2 172.5,-1035.2 179.5,-1035.2"/>
</g>
<!-- u0x6549de795fe0 -->
<g id="node23" class="node">
<title>u0x6549de795fe0</title>
<path fill="#d66868" stroke="#000000" d="M67.5,-1025C67.5,-1025 36.5,-1025 36.5,-1025 30.5,-1025 24.5,-1019 24.5,-1013 24.5,-1013 24.5,-1001 24.5,-1001 24.5,-995 30.5,-989 36.5,-989 36.5,-989 67.5,-989 67.5,-989 73.5,-989 79.5,-995 79.5,-1001 79.5,-1001 79.5,-1013 79.5,-1013 79.5,-1019 73.5,-1025 67.5,-1025"/>
<text text-anchor="middle" x="52" y="-1003.5" font-family="SF Pro Text Bold 10" font-size="15.00" fill="#000000">i32 0</text>
</g>
<!-- u0x6549de795fe0&#45;&gt;n0x6549de796020 -->
<g id="edge27" class="edge">
<title>u0x6549de795fe0&#45;&gt;n0x6549de796020</title>
<path fill="none" stroke="#00b3ff" stroke-width="2" d="M66.71,-988.8C88.53,-963.29 129.57,-915.3 154.68,-885.93"/>
<polygon fill="#00b3ff" stroke="#00b3ff" stroke-width="2" points="157.47,-888.06 161.31,-878.18 152.15,-883.51 157.47,-888.06"/>
</g>
<!-- u0x6549de796080 -->
<g id="node24" class="node">
<title>u0x6549de796080</title>
<path fill="#d66868" stroke="#000000" d="M71,-878C71,-878 41,-878 41,-878 35,-878 29,-872 29,-866 29,-866 29,-854 29,-854 29,-848 35,-842 41,-842 41,-842 71,-842 71,-842 77,-842 83,-848 83,-854 83,-854 83,-866 83,-866 83,-872 77,-878 71,-878"/>
<text text-anchor="middle" x="56" y="-856.5" font-family="SF Pro Text Bold 10" font-size="15.00" fill="#000000">i32 1</text>
</g>
<!-- u0x6549de796080&#45;&gt;n0x6549de7960c0 -->
<g id="edge29" class="edge">
<title>u0x6549de796080&#45;&gt;n0x6549de7960c0</title>
<path fill="none" stroke="#00b3ff" stroke-width="2" d="M71.94,-841.87C92.74,-819.51 129.28,-780.22 153.06,-754.66"/>
<polygon fill="#00b3ff" stroke="#00b3ff" stroke-width="2" points="155.75,-756.91 160,-747.2 150.63,-752.14 155.75,-756.91"/>
</g>
<!-- u0x6549de7961c0 -->
<g id="node25" class="node">
<title>u0x6549de7961c0</title>
<path fill="#d66868" stroke="#000000" d="M71.5,-747C71.5,-747 40.5,-747 40.5,-747 34.5,-747 28.5,-741 28.5,-735 28.5,-735 28.5,-723 28.5,-723 28.5,-717 34.5,-711 40.5,-711 40.5,-711 71.5,-711 71.5,-711 77.5,-711 83.5,-717 83.5,-723 83.5,-723 83.5,-735 83.5,-735 83.5,-741 77.5,-747 71.5,-747"/>
<text text-anchor="middle" x="56" y="-725.5" font-family="SF Pro Text Bold 10" font-size="15.00" fill="#000000">i32 0</text>
</g>
<!-- u0x6549de7961c0&#45;&gt;n0x6549de7961e0 -->
<g id="edge30" class="edge">
<title>u0x6549de7961c0&#45;&gt;n0x6549de7961e0</title>
<path fill="none" stroke="#00b3ff" stroke-width="2" d="M70.24,-710.8C91.35,-685.29 131.07,-637.3 155.37,-607.93"/>
<polygon fill="#00b3ff" stroke="#00b3ff" stroke-width="2" points="158.1,-610.12 161.78,-600.18 152.71,-605.65 158.1,-610.12"/>
</g>
</g>
</svg>
