<?xml version="1.0" encoding="UTF-8" standalone="no"?>
<!DOCTYPE svg PUBLIC "-//W3C//DTD SVG 1.1//EN"
 "http://www.w3.org/Graphics/SVG/1.1/DTD/svg11.dtd">
<!-- Generated by graphviz version 2.43.0 (0)
 -->
<!-- Title: /home/sevsol/Projects/4sem/lisitsyn/llvm&#45;ir&#45;dumper/wt/graph_serialization_v2/examples/fact/fact.c Pages: 1 -->
<svg width="2668pt" height="2927pt"
 viewBox="0.00 0.00 2668.20 2927.20" xmlns="http://www.w3.org/2000/svg" xmlns:xlink="http://www.w3.org/1999/xlink">
<g id="graph0" class="graph" transform="scale(1 1) rotate(0) translate(21.6 2905.6)">
<title>/home/sevsol/Projects/4sem/lisitsyn/llvm&#45;ir&#45;dumper/wt/graph_serialization_v2/examples/fact/fact.c</title>
<polygon fill="white" stroke="transparent" points="-21.6,21.6 -21.6,-2905.6 2646.6,-2905.6 2646.6,21.6 -21.6,21.6"/>
<g id="clust1" class="cluster">
<title>cluster_func_0</title>
<path fill="#e3e3e3" stroke="#000000" stroke-width="2" d="M20,-1568C20,-1568 1263,-1568 1263,-1568 1269,-1568 1275,-1574 1275,-1580 1275,-1580 1275,-2864 1275,-2864 1275,-2870 1269,-2876 1263,-2876 1263,-2876 20,-2876 20,-2876 14,-2876 8,-2870 8,-2864 8,-2864 8,-1580 8,-1580 8,-1574 14,-1568 20,-1568"/>
<text text-anchor="middle" x="641.5" y="-2856" font-family="SF Pro Text Bold 10" font-size="20.00">fact</text>
<text text-anchor="middle" x="641.5" y="-2834" font-family="SF Pro Text Bold 10" font-size="20.00">calls=1</text>
</g>
<g id="clust2" class="cluster">
<title>cluster_func_0_bb_0</title>
<path fill="#9ab799" stroke="#000000" stroke-width="2" d="M1201,-2670C1201,-2670 1255,-2670 1255,-2670 1261,-2670 1267,-2676 1267,-2682 1267,-2682 1267,-2794 1267,-2794 1267,-2800 1261,-2806 1255,-2806 1255,-2806 1201,-2806 1201,-2806 1195,-2806 1189,-2800 1189,-2794 1189,-2794 1189,-2682 1189,-2682 1189,-2676 1195,-2670 1201,-2670"/>
<text text-anchor="middle" x="1228" y="-2790" font-family="SF Pro Text Bold 10" font-size="15.00">label %1</text>
<text text-anchor="middle" x="1228" y="-2773" font-family="SF Pro Text Bold 10" font-size="15.00">count=1</text>
</g>
<g id="clust3" class="cluster">
<title>cluster_func_0_bb_1</title>
<path fill="#f4a261" stroke="#000000" stroke-width="2" d="M181,-1923C181,-1923 744,-1923 744,-1923 750,-1923 756,-1929 756,-1935 756,-1935 756,-2594 756,-2594 756,-2600 750,-2606 744,-2606 744,-2606 181,-2606 181,-2606 175,-2606 169,-2600 169,-2594 169,-2594 169,-1935 169,-1935 169,-1929 175,-1923 181,-1923"/>
<text text-anchor="middle" x="462.5" y="-2590" font-family="SF Pro Text Bold 10" font-size="15.00">label %2</text>
<text text-anchor="middle" x="462.5" y="-2573" font-family="SF Pro Text Bold 10" font-size="15.00">count=4</text>
</g>
<g id="clust4" class="cluster">
<title>cluster_func_0_bb_2</title>
<path fill="#dea76f" stroke="#000000" stroke-width="2" d="M776,-2123C776,-2123 1040,-2123 1040,-2123 1046,-2123 1052,-2129 1052,-2135 1052,-2135 1052,-2794 1052,-2794 1052,-2800 1046,-2806 1040,-2806 1040,-2806 776,-2806 776,-2806 770,-2806 764,-2800 764,-2794 764,-2794 764,-2135 764,-2135 764,-2129 770,-2123 776,-2123"/>
<text text-anchor="middle" x="908" y="-2790" font-family="SF Pro Text Bold 10" font-size="15.00">label %6</text>
<text text-anchor="middle" x="908" y="-2773" font-family="SF Pro Text Bold 10" font-size="15.00">count=3</text>
</g>
<g id="clust5" class="cluster">
<title>cluster_func_0_bb_3</title>
<path fill="#9ab799" stroke="#000000" stroke-width="2" d="M28,-1576C28,-1576 149,-1576 149,-1576 155,-1576 161,-1582 161,-1588 161,-1588 161,-2047 161,-2047 161,-2053 155,-2059 149,-2059 149,-2059 28,-2059 28,-2059 22,-2059 16,-2053 16,-2047 16,-2047 16,-1588 16,-1588 16,-1582 22,-1576 28,-1576"/>
<text text-anchor="middle" x="88.5" y="-2043" font-family="SF Pro Text Bold 10" font-size="15.00">label %9</text>
<text text-anchor="middle" x="88.5" y="-2026" font-family="SF Pro Text Bold 10" font-size="15.00">count=1</text>
</g>
<g id="clust6" class="cluster">
<title>cluster_func_1</title>
<path fill="#e3e3e3" stroke="#000000" stroke-width="2" d="M1295,-8C1295,-8 2605,-8 2605,-8 2611,-8 2617,-14 2617,-20 2617,-20 2617,-2864 2617,-2864 2617,-2870 2611,-2876 2605,-2876 2605,-2876 1295,-2876 1295,-2876 1289,-2876 1283,-2870 1283,-2864 1283,-2864 1283,-20 1283,-20 1283,-14 1289,-8 1295,-8"/>
<text text-anchor="middle" x="1950" y="-2856" font-family="SF Pro Text Bold 10" font-size="20.00">main</text>
<text text-anchor="middle" x="1950" y="-2834" font-family="SF Pro Text Bold 10" font-size="20.00">calls=1</text>
</g>
<g id="clust7" class="cluster">
<title>cluster_func_1_bb_4</title>
<path fill="#9ab799" stroke="#000000" stroke-width="2" d="M2255,-2270C2255,-2270 2434,-2270 2434,-2270 2440,-2270 2446,-2276 2446,-2282 2446,-2282 2446,-2794 2446,-2794 2446,-2800 2440,-2806 2434,-2806 2434,-2806 2255,-2806 2255,-2806 2249,-2806 2243,-2800 2243,-2794 2243,-2794 2243,-2282 2243,-2282 2243,-2276 2249,-2270 2255,-2270"/>
<text text-anchor="middle" x="2344.5" y="-2790" font-family="SF Pro Text Bold 10" font-size="15.00">label %2</text>
<text text-anchor="middle" x="2344.5" y="-2773" font-family="SF Pro Text Bold 10" font-size="15.00">count=1</text>
</g>
<g id="clust8" class="cluster">
<title>cluster_func_1_bb_5</title>
<path fill="#56c7c3" stroke="#000000" stroke-width="2" d="M2248,-363C2248,-363 2597,-363 2597,-363 2603,-363 2609,-369 2609,-375 2609,-375 2609,-765 2609,-765 2609,-771 2603,-777 2597,-777 2597,-777 2248,-777 2248,-777 2242,-777 2236,-771 2236,-765 2236,-765 2236,-375 2236,-375 2236,-369 2242,-363 2248,-363"/>
<text text-anchor="middle" x="2422.5" y="-761" font-family="SF Pro Text Bold 10" font-size="15.00">label %4</text>
<text text-anchor="middle" x="2422.5" y="-744" font-family="SF Pro Text Bold 10" font-size="15.00">count=0</text>
</g>
<g id="clust9" class="cluster">
<title>cluster_func_1_bb_6</title>
<path fill="#9ab799" stroke="#000000" stroke-width="2" d="M1896,-1576C1896,-1576 2216,-1576 2216,-1576 2222,-1576 2228,-1582 2228,-1588 2228,-1588 2228,-2394 2228,-2394 2228,-2400 2222,-2406 2216,-2406 2216,-2406 1896,-2406 1896,-2406 1890,-2406 1884,-2400 1884,-2394 1884,-2394 1884,-1588 1884,-1588 1884,-1582 1890,-1576 1896,-1576"/>
<text text-anchor="middle" x="2056" y="-2390" font-family="SF Pro Text Bold 10" font-size="15.00">label %6</text>
<text text-anchor="middle" x="2056" y="-2373" font-family="SF Pro Text Bold 10" font-size="15.00">count=1</text>
</g>
<g id="clust10" class="cluster">
<title>cluster_func_1_bb_7</title>
<path fill="#9ab799" stroke="#000000" stroke-width="2" d="M1303,-363C1303,-363 1834,-363 1834,-363 1840,-363 1846,-369 1846,-375 1846,-375 1846,-1700 1846,-1700 1846,-1706 1840,-1712 1834,-1712 1834,-1712 1303,-1712 1303,-1712 1297,-1712 1291,-1706 1291,-1700 1291,-1700 1291,-375 1291,-375 1291,-369 1297,-363 1303,-363"/>
<text text-anchor="middle" x="1568.5" y="-1696" font-family="SF Pro Text Bold 10" font-size="15.00">label %10</text>
<text text-anchor="middle" x="1568.5" y="-1679" font-family="SF Pro Text Bold 10" font-size="15.00">count=1</text>
</g>
<g id="clust11" class="cluster">
<title>cluster_func_1_bb_8</title>
<path fill="#56c7c3" stroke="#000000" stroke-width="2" d="M1896,-363C1896,-363 2216,-363 2216,-363 2222,-363 2228,-369 2228,-375 2228,-375 2228,-765 2228,-765 2228,-771 2222,-777 2216,-777 2216,-777 1896,-777 1896,-777 1890,-777 1884,-771 1884,-765 1884,-765 1884,-375 1884,-375 1884,-369 1890,-363 1896,-363"/>
<text text-anchor="middle" x="2056" y="-761" font-family="SF Pro Text Bold 10" font-size="15.00">label %18</text>
<text text-anchor="middle" x="2056" y="-744" font-family="SF Pro Text Bold 10" font-size="15.00">count=0</text>
</g>
<g id="clust12" class="cluster">
<title>cluster_func_1_bb_9</title>
<path fill="#9ab799" stroke="#000000" stroke-width="2" d="M1975,-16C1975,-16 2096,-16 2096,-16 2102,-16 2108,-22 2108,-28 2108,-28 2108,-287 2108,-287 2108,-293 2102,-299 2096,-299 2096,-299 1975,-299 1975,-299 1969,-299 1963,-293 1963,-287 1963,-287 1963,-28 1963,-28 1963,-22 1969,-16 1975,-16"/>
<text text-anchor="middle" x="2035.5" y="-283" font-family="SF Pro Text Bold 10" font-size="15.00">label %20</text>
<text text-anchor="middle" x="2035.5" y="-266" font-family="SF Pro Text Bold 10" font-size="15.00">count=1</text>
</g>
<!-- node_0 -->
<g id="node1" class="node">
<title>node_0</title>
<path fill="#6d95df" stroke="#000000" d="M1247,-2714C1247,-2714 1217,-2714 1217,-2714 1211,-2714 1205,-2708 1205,-2702 1205,-2702 1205,-2690 1205,-2690 1205,-2684 1211,-2678 1217,-2678 1217,-2678 1247,-2678 1247,-2678 1253,-2678 1259,-2684 1259,-2690 1259,-2690 1259,-2702 1259,-2702 1259,-2708 1253,-2714 1247,-2714"/>
<text text-anchor="middle" x="1232" y="-2692.5" font-family="SF Pro Text Bold 10" font-size="15.00" fill="#000000">br</text>
</g>
<!-- node_1 -->
<g id="node2" class="node">
<title>node_1</title>
<path fill="#6d95df" stroke="#000000" d="M736,-2514C736,-2514 706,-2514 706,-2514 700,-2514 694,-2508 694,-2502 694,-2502 694,-2490 694,-2490 694,-2484 700,-2478 706,-2478 706,-2478 736,-2478 736,-2478 742,-2478 748,-2484 748,-2490 748,-2490 748,-2502 748,-2502 748,-2508 742,-2514 736,-2514"/>
<text text-anchor="middle" x="721" y="-2492.5" font-family="SF Pro Text Bold 10" font-size="15.00" fill="#000000">phi</text>
</g>
<!-- node_0&#45;&gt;node_1 -->
<g id="edge21" class="edge">
<title>node_0&#45;&gt;node_1</title>
<path fill="none" stroke="#ff8800" stroke-width="5" d="M1223.29,-2677.92C1212.25,-2658.38 1191.21,-2627.36 1163,-2614 1142.36,-2604.22 770.09,-2619.94 752,-2606 727.46,-2587.09 721.38,-2550.19 720.34,-2524.59"/>
<polygon fill="#ff8800" stroke="#ff8800" stroke-width="5" points="724.71,-2524.32 720.16,-2514.4 715.96,-2524.48 724.71,-2524.32"/>
<text text-anchor="middle" x="1190" y="-2619" font-family="SF Pro Text Bold 10" font-size="15.00">1</text>
</g>
<!-- node_0&#45;&gt;node_1 -->
<g id="edge34" class="edge">
<title>node_0&#45;&gt;node_1</title>
<path fill="none" stroke="#00b3ff" stroke-width="2" d="M1204.88,-2690.78C1105.92,-2675.28 769.1,-2621.57 752,-2606 729.32,-2585.35 722.76,-2549.42 721.11,-2524.48"/>
<polygon fill="#00b3ff" stroke="#00b3ff" stroke-width="2" points="724.59,-2524.05 720.66,-2514.22 717.6,-2524.36 724.59,-2524.05"/>
<text text-anchor="middle" x="870.5" y="-2619" font-family="SF Pro Text Bold 10" font-size="15.00">i64 1</text>
</g>
<!-- node_2 -->
<g id="node3" class="node">
<title>node_2</title>
<path fill="#6d95df" stroke="#000000" d="M579,-2314C579,-2314 549,-2314 549,-2314 543,-2314 537,-2308 537,-2302 537,-2302 537,-2290 537,-2290 537,-2284 543,-2278 549,-2278 549,-2278 579,-2278 579,-2278 585,-2278 591,-2284 591,-2290 591,-2290 591,-2302 591,-2302 591,-2308 585,-2314 579,-2314"/>
<text text-anchor="middle" x="564" y="-2292.5" font-family="SF Pro Text Bold 10" font-size="15.00" fill="#000000">phi</text>
</g>
<!-- node_0&#45;&gt;node_2 -->
<g id="edge39" class="edge">
<title>node_0&#45;&gt;node_2</title>
<path fill="none" stroke="#00b3ff" stroke-width="2" d="M1204.75,-2690.63C1172.24,-2685.47 1116.21,-2676.73 1068,-2670 966,-2655.77 684,-2676.58 609,-2606 530.05,-2531.7 546.99,-2384.9 558.18,-2324.23"/>
<polygon fill="#00b3ff" stroke="#00b3ff" stroke-width="2" points="561.65,-2324.75 560.11,-2314.27 554.77,-2323.42 561.65,-2324.75"/>
<text text-anchor="middle" x="635.5" y="-2492.5" font-family="SF Pro Text Bold 10" font-size="15.00">i64 %0</text>
</g>
<!-- node_1&#45;&gt;node_2 -->
<g id="edge1" class="edge">
<title>node_1&#45;&gt;node_2</title>
<path fill="none" stroke="#ff3636" stroke-width="3" d="M693.74,-2488.33C665.06,-2479.86 620.7,-2462.44 596,-2431 571.76,-2400.15 565.44,-2353.81 564.04,-2324.51"/>
<polygon fill="#ff3636" stroke="#ff3636" stroke-width="3" points="567.52,-2324.06 563.71,-2314.18 560.53,-2324.28 567.52,-2324.06"/>
</g>
<!-- node_6 -->
<g id="node8" class="node">
<title>node_6</title>
<path fill="#6d95df" stroke="#000000" d="M1021,-2314C1021,-2314 991,-2314 991,-2314 985,-2314 979,-2308 979,-2302 979,-2302 979,-2290 979,-2290 979,-2284 985,-2278 991,-2278 991,-2278 1021,-2278 1021,-2278 1027,-2278 1033,-2284 1033,-2290 1033,-2290 1033,-2302 1033,-2302 1033,-2308 1027,-2314 1021,-2314"/>
<text text-anchor="middle" x="1006" y="-2292.5" font-family="SF Pro Text Bold 10" font-size="15.00" fill="#000000">mul</text>
</g>
<!-- node_1&#45;&gt;node_6 -->
<g id="edge33" class="edge">
<title>node_1&#45;&gt;node_6</title>
<path fill="none" stroke="#00b3ff" stroke-width="2" d="M748.3,-2479.81C749.54,-2479.19 750.78,-2478.58 752,-2478 820.04,-2445.61 838.9,-2441.64 909,-2414 918.29,-2410.34 922.13,-2412.15 930,-2406 958.57,-2383.69 980.7,-2347.7 993.54,-2323.23"/>
<polygon fill="#00b3ff" stroke="#00b3ff" stroke-width="2" points="996.74,-2324.65 998.15,-2314.15 990.5,-2321.48 996.74,-2324.65"/>
<text text-anchor="middle" x="920.5" y="-2419" font-family="SF Pro Text Bold 10" font-size="15.00">%3</text>
</g>
<!-- node_8 -->
<g id="node11" class="node">
<title>node_8</title>
<path fill="#6d95df" stroke="#000000" d="M141,-1820C141,-1820 111,-1820 111,-1820 105,-1820 99,-1814 99,-1808 99,-1808 99,-1796 99,-1796 99,-1790 105,-1784 111,-1784 111,-1784 141,-1784 141,-1784 147,-1784 153,-1790 153,-1796 153,-1796 153,-1808 153,-1808 153,-1814 147,-1820 141,-1820"/>
<text text-anchor="middle" x="126" y="-1798.5" font-family="SF Pro Text Bold 10" font-size="15.00" fill="#000000">mul</text>
</g>
<!-- node_1&#45;&gt;node_8 -->
<g id="edge32" class="edge">
<title>node_1&#45;&gt;node_8</title>
<path fill="none" stroke="#00b3ff" stroke-width="2" d="M748.14,-2479.43C749.43,-2478.91 750.72,-2478.43 752,-2478 886.57,-2432.71 955.67,-2517.85 1068,-2431 1119.2,-2391.41 1125,-2361.72 1125,-2297 1125,-2297 1125,-2297 1125,-1948 1125,-1848.87 344.75,-1811.71 163.36,-1804.4"/>
<polygon fill="#00b3ff" stroke="#00b3ff" stroke-width="2" points="163.37,-1800.9 153.24,-1804 163.09,-1807.9 163.37,-1800.9"/>
<text text-anchor="middle" x="1136.5" y="-2145.5" font-family="SF Pro Text Bold 10" font-size="15.00">%3</text>
</g>
<!-- node_3 -->
<g id="node4" class="node">
<title>node_3</title>
<path fill="#6d95df" stroke="#000000" d="M265,-2167C265,-2167 235,-2167 235,-2167 229,-2167 223,-2161 223,-2155 223,-2155 223,-2143 223,-2143 223,-2137 229,-2131 235,-2131 235,-2131 265,-2131 265,-2131 271,-2131 277,-2137 277,-2143 277,-2143 277,-2155 277,-2155 277,-2161 271,-2167 265,-2167"/>
<text text-anchor="middle" x="250" y="-2145.5" font-family="SF Pro Text Bold 10" font-size="15.00" fill="#000000">icmp</text>
</g>
<!-- node_2&#45;&gt;node_3 -->
<g id="edge2" class="edge">
<title>node_2&#45;&gt;node_3</title>
<path fill="none" stroke="#ff3636" stroke-width="3" d="M536.98,-2282.26C526.81,-2277.86 515.05,-2273.24 504,-2270 408.71,-2242.07 361.56,-2293.01 284,-2231 279.43,-2227.35 268.12,-2198.95 259.79,-2176.8"/>
<polygon fill="#ff3636" stroke="#ff3636" stroke-width="3" points="262.98,-2175.33 256.21,-2167.18 256.41,-2177.77 262.98,-2175.33"/>
</g>
<!-- node_2&#45;&gt;node_3 -->
<g id="edge36" class="edge">
<title>node_2&#45;&gt;node_3</title>
<path fill="none" stroke="#00b3ff" stroke-width="2" d="M536.73,-2281.94C526.64,-2277.57 514.99,-2273.04 504,-2270 445.99,-2253.97 275.37,-2276.52 236,-2231 223.08,-2216.06 228.22,-2193.61 235.67,-2176.13"/>
<polygon fill="#00b3ff" stroke="#00b3ff" stroke-width="2" points="238.87,-2177.55 239.94,-2167.01 232.53,-2174.58 238.87,-2177.55"/>
<text text-anchor="middle" x="248" y="-2219" font-family="SF Pro Text Bold 10" font-size="15.00">%4</text>
</g>
<!-- node_5 -->
<g id="node7" class="node">
<title>node_5</title>
<path fill="#6d95df" stroke="#000000" d="M855,-2514C855,-2514 825,-2514 825,-2514 819,-2514 813,-2508 813,-2502 813,-2502 813,-2490 813,-2490 813,-2484 819,-2478 825,-2478 825,-2478 855,-2478 855,-2478 861,-2478 867,-2484 867,-2490 867,-2490 867,-2502 867,-2502 867,-2508 861,-2514 855,-2514"/>
<text text-anchor="middle" x="840" y="-2492.5" font-family="SF Pro Text Bold 10" font-size="15.00" fill="#000000">add</text>
</g>
<!-- node_2&#45;&gt;node_5 -->
<g id="edge38" class="edge">
<title>node_2&#45;&gt;node_5</title>
<path fill="none" stroke="#00b3ff" stroke-width="2" d="M572.31,-2314.24C584.36,-2337.7 608.71,-2379.77 640,-2406 689.07,-2447.14 760.18,-2472.68 803.07,-2485.33"/>
<polygon fill="#00b3ff" stroke="#00b3ff" stroke-width="2" points="802.24,-2488.74 812.81,-2488.13 804.17,-2482.01 802.24,-2488.74"/>
<text text-anchor="middle" x="685" y="-2419" font-family="SF Pro Text Bold 10" font-size="15.00">%4</text>
</g>
<!-- node_2&#45;&gt;node_6 -->
<g id="edge37" class="edge">
<title>node_2&#45;&gt;node_6</title>
<path fill="none" stroke="#00b3ff" stroke-width="2" d="M571.55,-2314.2C582.59,-2338.08 605.62,-2378.95 640,-2396 697.73,-2424.64 872.27,-2424.64 930,-2396 960.35,-2380.94 981.86,-2347.33 994.07,-2323.23"/>
<polygon fill="#00b3ff" stroke="#00b3ff" stroke-width="2" points="997.24,-2324.72 998.45,-2314.2 990.94,-2321.67 997.24,-2324.72"/>
<text text-anchor="middle" x="840" y="-2419" font-family="SF Pro Text Bold 10" font-size="15.00">%4</text>
</g>
<!-- node_4 -->
<g id="node5" class="node">
<title>node_4</title>
<path fill="#6d95df" stroke="#000000" d="M265,-1967C265,-1967 235,-1967 235,-1967 229,-1967 223,-1961 223,-1955 223,-1955 223,-1943 223,-1943 223,-1937 229,-1931 235,-1931 235,-1931 265,-1931 265,-1931 271,-1931 277,-1937 277,-1943 277,-1943 277,-1955 277,-1955 277,-1961 271,-1967 265,-1967"/>
<text text-anchor="middle" x="250" y="-1945.5" font-family="SF Pro Text Bold 10" font-size="15.00" fill="#000000">br</text>
</g>
<!-- node_3&#45;&gt;node_4 -->
<g id="edge3" class="edge">
<title>node_3&#45;&gt;node_4</title>
<path fill="none" stroke="#ff3636" stroke-width="3" d="M250,-2130.78C250,-2096.31 250,-2018.65 250,-1977.22"/>
<polygon fill="#ff3636" stroke="#ff3636" stroke-width="3" points="253.5,-1977.04 250,-1967.04 246.5,-1977.04 253.5,-1977.04"/>
</g>
<!-- node_3&#45;&gt;node_4 -->
<g id="edge41" class="edge">
<title>node_3&#45;&gt;node_4</title>
<path fill="none" stroke="#00b3ff" stroke-width="2" d="M250.68,-2130.89C251.16,-2118 251.75,-2099.89 252,-2084 252.57,-2047.2 251.68,-2004.71 250.9,-1977.61"/>
<polygon fill="#00b3ff" stroke="#00b3ff" stroke-width="2" points="254.39,-1977.24 250.6,-1967.35 247.4,-1977.45 254.39,-1977.24"/>
<text text-anchor="middle" x="264.5" y="-2072" font-family="SF Pro Text Bold 10" font-size="15.00">%5</text>
</g>
<!-- node_4&#45;&gt;node_5 -->
<g id="edge23" class="edge">
<title>node_4&#45;&gt;node_5</title>
<path fill="none" stroke="#ff8800" stroke-width="5" d="M256.53,-1967.35C265.04,-1990.11 280.2,-2031.35 292,-2067 300.17,-2091.69 301.93,-2097.97 309,-2123 344.33,-2248.11 287.79,-2317.47 383,-2406 511.77,-2525.72 600.19,-2440.66 772,-2478 782.17,-2480.21 793.13,-2482.84 803.22,-2485.36"/>
<polygon fill="#ff8800" stroke="#ff8800" stroke-width="5" points="802.19,-2489.61 812.96,-2487.83 804.34,-2481.13 802.19,-2489.61"/>
<text text-anchor="middle" x="328" y="-2219" font-family="SF Pro Text Bold 10" font-size="15.00">3</text>
</g>
<!-- node_4&#45;&gt;node_8 -->
<g id="edge24" class="edge">
<title>node_4&#45;&gt;node_8</title>
<path fill="none" stroke="#ff8800" stroke-width="5" d="M235.29,-1930.8C213.47,-1905.29 172.43,-1857.3 147.32,-1827.93"/>
<polygon fill="#ff8800" stroke="#ff8800" stroke-width="5" points="150.52,-1824.94 140.69,-1820.18 143.87,-1830.62 150.52,-1824.94"/>
<text text-anchor="middle" x="196" y="-1872" font-family="SF Pro Text Bold 10" font-size="15.00">1</text>
</g>
<!-- node_30 -->
<g id="node6" class="node">
<title>node_30</title>
<path fill="#d66868" stroke="#000000" d="M460,-2314C460,-2314 428,-2314 428,-2314 422,-2314 416,-2308 416,-2302 416,-2302 416,-2290 416,-2290 416,-2284 422,-2278 428,-2278 428,-2278 460,-2278 460,-2278 466,-2278 472,-2284 472,-2290 472,-2290 472,-2302 472,-2302 472,-2308 466,-2314 460,-2314"/>
<text text-anchor="middle" x="444" y="-2292.5" font-family="SF Pro Text Bold 10" font-size="15.00" fill="#000000">i64 2</text>
</g>
<!-- node_30&#45;&gt;node_3 -->
<g id="edge42" class="edge">
<title>node_30&#45;&gt;node_3</title>
<path fill="none" stroke="#00b3ff" stroke-width="2" d="M415.67,-2292.37C354.18,-2286.03 211.72,-2267.62 183,-2231 166.65,-2210.15 190.39,-2186.9 214.01,-2170.68"/>
<polygon fill="#00b3ff" stroke="#00b3ff" stroke-width="2" points="216.18,-2173.44 222.63,-2165.04 212.34,-2167.58 216.18,-2173.44"/>
</g>
<!-- node_5&#45;&gt;node_2 -->
<g id="edge43" class="edge">
<title>node_5&#45;&gt;node_2</title>
<path fill="none" stroke="#00b3ff" stroke-width="2" d="M867.17,-2486.74C907.6,-2473.17 975.82,-2444.61 946,-2414 934.13,-2401.82 654.97,-2414.06 640,-2406 607.22,-2388.35 585.57,-2349.63 574.04,-2323.43"/>
<polygon fill="#00b3ff" stroke="#00b3ff" stroke-width="2" points="577.21,-2321.94 570.11,-2314.07 570.75,-2324.64 577.21,-2321.94"/>
<text text-anchor="middle" x="964" y="-2419" font-family="SF Pro Text Bold 10" font-size="15.00">%7</text>
</g>
<!-- node_5&#45;&gt;node_6 -->
<g id="edge4" class="edge">
<title>node_5&#45;&gt;node_6</title>
<path fill="none" stroke="#ff3636" stroke-width="3" d="M867.09,-2495.46C911.39,-2494.55 998.36,-2485.48 1038,-2431 1061.37,-2398.89 1040.96,-2352.07 1023.74,-2323.12"/>
<polygon fill="#ff3636" stroke="#ff3636" stroke-width="3" points="1026.56,-2321.04 1018.31,-2314.39 1020.62,-2324.73 1026.56,-2321.04"/>
</g>
<!-- node_6&#45;&gt;node_1 -->
<g id="edge45" class="edge">
<title>node_6&#45;&gt;node_1</title>
<path fill="none" stroke="#00b3ff" stroke-width="2" d="M999.64,-2314.34C989.36,-2339.59 966.46,-2385.65 930,-2406 902.4,-2421.4 816.21,-2399.74 788,-2414 764.48,-2425.89 746.18,-2450.13 734.69,-2469.01"/>
<polygon fill="#00b3ff" stroke="#00b3ff" stroke-width="2" points="731.6,-2467.36 729.61,-2477.77 737.66,-2470.88 731.6,-2467.36"/>
<text text-anchor="middle" x="800" y="-2419" font-family="SF Pro Text Bold 10" font-size="15.00">%8</text>
</g>
<!-- node_7 -->
<g id="node9" class="node">
<title>node_7</title>
<path fill="#6d95df" stroke="#000000" d="M814,-2167C814,-2167 784,-2167 784,-2167 778,-2167 772,-2161 772,-2155 772,-2155 772,-2143 772,-2143 772,-2137 778,-2131 784,-2131 784,-2131 814,-2131 814,-2131 820,-2131 826,-2137 826,-2143 826,-2143 826,-2155 826,-2155 826,-2161 820,-2167 814,-2167"/>
<text text-anchor="middle" x="799" y="-2145.5" font-family="SF Pro Text Bold 10" font-size="15.00" fill="#000000">br</text>
</g>
<!-- node_6&#45;&gt;node_7 -->
<g id="edge5" class="edge">
<title>node_6&#45;&gt;node_7</title>
<path fill="none" stroke="#ff3636" stroke-width="3" d="M981.44,-2277.8C944.25,-2251.74 873.57,-2202.23 831.95,-2173.08"/>
<polygon fill="#ff3636" stroke="#ff3636" stroke-width="3" points="833.73,-2170.05 823.53,-2167.18 829.71,-2175.78 833.73,-2170.05"/>
</g>
<!-- node_7&#45;&gt;node_1 -->
<g id="edge22" class="edge">
<title>node_7&#45;&gt;node_1</title>
<path fill="none" stroke="#ff8800" stroke-width="5" d="M792.96,-2167.02C778.5,-2208.57 741.92,-2318.79 726,-2414 723.04,-2431.73 721.78,-2451.9 721.27,-2467.68"/>
<polygon fill="#ff8800" stroke="#ff8800" stroke-width="5" points="716.9,-2467.71 721.03,-2477.82 725.64,-2467.93 716.9,-2467.71"/>
<text text-anchor="middle" x="764" y="-2292.5" font-family="SF Pro Text Bold 10" font-size="15.00">3</text>
</g>
<!-- node_7&#45;&gt;node_1 -->
<g id="edge35" class="edge">
<title>node_7&#45;&gt;node_1</title>
<path fill="none" stroke="#00b3ff" stroke-width="2" d="M804.3,-2167.15C817.1,-2212.32 844.45,-2335.9 785,-2406 774.4,-2418.5 761.23,-2403.09 749,-2414 733.76,-2427.6 726.81,-2449.9 723.64,-2467.67"/>
<polygon fill="#00b3ff" stroke="#00b3ff" stroke-width="2" points="720.15,-2467.36 722.15,-2477.77 727.08,-2468.38 720.15,-2467.36"/>
<text text-anchor="middle" x="847.5" y="-2292.5" font-family="SF Pro Text Bold 10" font-size="15.00">i64 %8</text>
</g>
<!-- node_7&#45;&gt;node_2 -->
<g id="edge40" class="edge">
<title>node_7&#45;&gt;node_2</title>
<path fill="none" stroke="#00b3ff" stroke-width="2" d="M771.71,-2165.19C770.46,-2165.82 769.22,-2166.42 768,-2167 717.75,-2190.86 699,-2184.24 652,-2214 627.2,-2229.7 602.96,-2252.76 586.22,-2270.26"/>
<polygon fill="#00b3ff" stroke="#00b3ff" stroke-width="2" points="583.37,-2268.18 579.08,-2277.87 588.48,-2272.97 583.37,-2268.18"/>
<text text-anchor="middle" x="678" y="-2219" font-family="SF Pro Text Bold 10" font-size="15.00">i64 %7</text>
</g>
<!-- node_31 -->
<g id="node10" class="node">
<title>node_31</title>
<path fill="#d66868" stroke="#000000" d="M858.5,-2714C858.5,-2714 821.5,-2714 821.5,-2714 815.5,-2714 809.5,-2708 809.5,-2702 809.5,-2702 809.5,-2690 809.5,-2690 809.5,-2684 815.5,-2678 821.5,-2678 821.5,-2678 858.5,-2678 858.5,-2678 864.5,-2678 870.5,-2684 870.5,-2690 870.5,-2690 870.5,-2702 870.5,-2702 870.5,-2708 864.5,-2714 858.5,-2714"/>
<text text-anchor="middle" x="840" y="-2692.5" font-family="SF Pro Text Bold 10" font-size="15.00" fill="#000000">i64 &#45;1</text>
</g>
<!-- node_31&#45;&gt;node_5 -->
<g id="edge44" class="edge">
<title>node_31&#45;&gt;node_5</title>
<path fill="none" stroke="#00b3ff" stroke-width="2" d="M840,-2677.78C840,-2643.31 840,-2565.65 840,-2524.22"/>
<polygon fill="#00b3ff" stroke="#00b3ff" stroke-width="2" points="843.5,-2524.04 840,-2514.04 836.5,-2524.04 843.5,-2524.04"/>
</g>
<!-- node_9 -->
<g id="node12" class="node">
<title>node_9</title>
<path fill="#6d95df" stroke="#000000" d="M66,-1620C66,-1620 36,-1620 36,-1620 30,-1620 24,-1614 24,-1608 24,-1608 24,-1596 24,-1596 24,-1590 30,-1584 36,-1584 36,-1584 66,-1584 66,-1584 72,-1584 78,-1590 78,-1596 78,-1596 78,-1608 78,-1608 78,-1614 72,-1620 66,-1620"/>
<text text-anchor="middle" x="51" y="-1598.5" font-family="SF Pro Text Bold 10" font-size="15.00" fill="#000000">ret</text>
</g>
<!-- node_8&#45;&gt;node_9 -->
<g id="edge6" class="edge">
<title>node_8&#45;&gt;node_9</title>
<path fill="none" stroke="#ff3636" stroke-width="3" d="M98.71,-1784.13C83.18,-1772.87 65.07,-1756.57 56,-1737 40.12,-1702.72 42.37,-1658.06 46.14,-1629.95"/>
<polygon fill="#ff3636" stroke="#ff3636" stroke-width="3" points="49.6,-1630.45 47.62,-1620.04 42.68,-1629.41 49.6,-1630.45"/>
</g>
<!-- node_8&#45;&gt;node_9 -->
<g id="edge46" class="edge">
<title>node_8&#45;&gt;node_9</title>
<path fill="none" stroke="#00b3ff" stroke-width="2" d="M119.48,-1783.78C106.34,-1749.09 76.63,-1670.65 61.01,-1629.43"/>
<polygon fill="#00b3ff" stroke="#00b3ff" stroke-width="2" points="64.27,-1628.16 57.46,-1620.04 57.73,-1630.64 64.27,-1628.16"/>
<text text-anchor="middle" x="117.5" y="-1725" font-family="SF Pro Text Bold 10" font-size="15.00">%10</text>
</g>
<!-- node_32 -->
<g id="node13" class="node">
<title>node_32</title>
<path fill="#d66868" stroke="#000000" d="M141,-1967C141,-1967 111,-1967 111,-1967 105,-1967 99,-1961 99,-1955 99,-1955 99,-1943 99,-1943 99,-1937 105,-1931 111,-1931 111,-1931 141,-1931 141,-1931 147,-1931 153,-1937 153,-1943 153,-1943 153,-1955 153,-1955 153,-1961 147,-1967 141,-1967"/>
<text text-anchor="middle" x="126" y="-1945.5" font-family="SF Pro Text Bold 10" font-size="15.00" fill="#000000">i64 1</text>
</g>
<!-- node_32&#45;&gt;node_8 -->
<g id="edge47" class="edge">
<title>node_32&#45;&gt;node_8</title>
<path fill="none" stroke="#00b3ff" stroke-width="2" d="M126,-1930.8C126,-1905.94 126,-1859.74 126,-1830.23"/>
<polygon fill="#00b3ff" stroke="#00b3ff" stroke-width="2" points="129.5,-1830.18 126,-1820.18 122.5,-1830.18 129.5,-1830.18"/>
</g>
<!-- node_10 -->
<g id="node14" class="node">
<title>node_10</title>
<path fill="#6d95df" stroke="#000000" d="M2301,-2514C2301,-2514 2271,-2514 2271,-2514 2265,-2514 2259,-2508 2259,-2502 2259,-2502 2259,-2490 2259,-2490 2259,-2484 2265,-2478 2271,-2478 2271,-2478 2301,-2478 2301,-2478 2307,-2478 2313,-2484 2313,-2490 2313,-2490 2313,-2502 2313,-2502 2313,-2508 2307,-2514 2301,-2514"/>
<text text-anchor="middle" x="2286" y="-2492.5" font-family="SF Pro Text Bold 10" font-size="15.00" fill="#000000">icmp</text>
</g>
<!-- node_11 -->
<g id="node15" class="node">
<title>node_11</title>
<path fill="#6d95df" stroke="#000000" d="M2301,-2314C2301,-2314 2271,-2314 2271,-2314 2265,-2314 2259,-2308 2259,-2302 2259,-2302 2259,-2290 2259,-2290 2259,-2284 2265,-2278 2271,-2278 2271,-2278 2301,-2278 2301,-2278 2307,-2278 2313,-2284 2313,-2290 2313,-2290 2313,-2302 2313,-2302 2313,-2308 2307,-2314 2301,-2314"/>
<text text-anchor="middle" x="2286" y="-2292.5" font-family="SF Pro Text Bold 10" font-size="15.00" fill="#000000">br</text>
</g>
<!-- node_10&#45;&gt;node_11 -->
<g id="edge7" class="edge">
<title>node_10&#45;&gt;node_11</title>
<path fill="none" stroke="#ff3636" stroke-width="3" d="M2286,-2477.78C2286,-2443.31 2286,-2365.65 2286,-2324.22"/>
<polygon fill="#ff3636" stroke="#ff3636" stroke-width="3" points="2289.5,-2324.04 2286,-2314.04 2282.5,-2324.04 2289.5,-2324.04"/>
</g>
<!-- node_10&#45;&gt;node_11 -->
<g id="edge48" class="edge">
<title>node_10&#45;&gt;node_11</title>
<path fill="none" stroke="#00b3ff" stroke-width="2" d="M2286.68,-2477.89C2287.16,-2465 2287.75,-2446.89 2288,-2431 2288.57,-2394.2 2287.68,-2351.71 2286.9,-2324.61"/>
<polygon fill="#00b3ff" stroke="#00b3ff" stroke-width="2" points="2290.39,-2324.24 2286.6,-2314.35 2283.4,-2324.45 2290.39,-2324.24"/>
<text text-anchor="middle" x="2299.5" y="-2419" font-family="SF Pro Text Bold 10" font-size="15.00">%3</text>
</g>
<!-- node_12 -->
<g id="node18" class="node">
<title>node_12</title>
<path fill="#6d95df" stroke="#000000" d="M2301,-538C2301,-538 2271,-538 2271,-538 2265,-538 2259,-532 2259,-526 2259,-526 2259,-514 2259,-514 2259,-508 2265,-502 2271,-502 2271,-502 2301,-502 2301,-502 2307,-502 2313,-508 2313,-514 2313,-514 2313,-526 2313,-526 2313,-532 2307,-538 2301,-538"/>
<text text-anchor="middle" x="2286" y="-516.5" font-family="SF Pro Text Bold 10" font-size="15.00" fill="#000000">call</text>
</g>
<!-- node_11&#45;&gt;node_12 -->
<g id="edge25" class="edge">
<title>node_11&#45;&gt;node_12</title>
<path fill="none" stroke="#ff8800" stroke-width="5" d="M2286,-2277.59C2286,-2250.37 2286,-2196.07 2286,-2150 2286,-2150 2286,-2150 2286,-666 2286,-625.15 2286,-577.83 2286,-548.65"/>
<polygon fill="#ff8800" stroke="#ff8800" stroke-width="5" points="2290.38,-548.41 2286,-538.41 2281.63,-548.41 2290.38,-548.41"/>
<text text-anchor="middle" x="2291.5" y="-1378" font-family="SF Pro Text Bold 10" font-size="15.00">0</text>
</g>
<!-- node_14 -->
<g id="node22" class="node">
<title>node_14</title>
<path fill="#6d95df" stroke="#000000" d="M2208,-2167C2208,-2167 2178,-2167 2178,-2167 2172,-2167 2166,-2161 2166,-2155 2166,-2155 2166,-2143 2166,-2143 2166,-2137 2172,-2131 2178,-2131 2178,-2131 2208,-2131 2208,-2131 2214,-2131 2220,-2137 2220,-2143 2220,-2143 2220,-2155 2220,-2155 2220,-2161 2214,-2167 2208,-2167"/>
<text text-anchor="middle" x="2193" y="-2145.5" font-family="SF Pro Text Bold 10" font-size="15.00" fill="#000000">call</text>
</g>
<!-- node_11&#45;&gt;node_14 -->
<g id="edge26" class="edge">
<title>node_11&#45;&gt;node_14</title>
<path fill="none" stroke="#ff8800" stroke-width="5" d="M2274.97,-2277.8C2258.75,-2252.51 2228.35,-2205.11 2209.48,-2175.69"/>
<polygon fill="#ff8800" stroke="#ff8800" stroke-width="5" points="2213.1,-2173.24 2204.02,-2167.18 2205.74,-2177.96 2213.1,-2173.24"/>
<text text-anchor="middle" x="2246" y="-2219" font-family="SF Pro Text Bold 10" font-size="15.00">1</text>
</g>
<!-- node_33 -->
<g id="node16" class="node">
<title>node_33</title>
<path fill="#d66868" stroke="#000000" d="M2426,-2714C2426,-2714 2382,-2714 2382,-2714 2376,-2714 2370,-2708 2370,-2702 2370,-2702 2370,-2690 2370,-2690 2370,-2684 2376,-2678 2382,-2678 2382,-2678 2426,-2678 2426,-2678 2432,-2678 2438,-2684 2438,-2690 2438,-2690 2438,-2702 2438,-2702 2438,-2708 2432,-2714 2426,-2714"/>
<text text-anchor="middle" x="2404" y="-2692.5" font-family="SF Pro Text Bold 10" font-size="15.00" fill="#000000">i32 %0</text>
</g>
<!-- node_33&#45;&gt;node_10 -->
<g id="edge49" class="edge">
<title>node_33&#45;&gt;node_10</title>
<path fill="none" stroke="#00b3ff" stroke-width="2" d="M2393.73,-2677.78C2372.94,-2642.87 2325.72,-2563.66 2301.29,-2522.66"/>
<polygon fill="#00b3ff" stroke="#00b3ff" stroke-width="2" points="2304.28,-2520.84 2296.16,-2514.04 2298.27,-2524.43 2304.28,-2520.84"/>
<text text-anchor="middle" x="2377" y="-2619" font-family="SF Pro Text Bold 10" font-size="15.00">%0</text>
</g>
<!-- node_34 -->
<g id="node17" class="node">
<title>node_34</title>
<path fill="#d66868" stroke="#000000" d="M2293,-2714C2293,-2714 2263,-2714 2263,-2714 2257,-2714 2251,-2708 2251,-2702 2251,-2702 2251,-2690 2251,-2690 2251,-2684 2257,-2678 2263,-2678 2263,-2678 2293,-2678 2293,-2678 2299,-2678 2305,-2684 2305,-2690 2305,-2690 2305,-2702 2305,-2702 2305,-2708 2299,-2714 2293,-2714"/>
<text text-anchor="middle" x="2278" y="-2692.5" font-family="SF Pro Text Bold 10" font-size="15.00" fill="#000000">i32 2</text>
</g>
<!-- node_34&#45;&gt;node_10 -->
<g id="edge50" class="edge">
<title>node_34&#45;&gt;node_10</title>
<path fill="none" stroke="#00b3ff" stroke-width="2" d="M2278.7,-2677.78C2280.09,-2643.31 2283.23,-2565.65 2284.9,-2524.22"/>
<polygon fill="#00b3ff" stroke="#00b3ff" stroke-width="2" points="2288.4,-2524.18 2285.31,-2514.04 2281.41,-2523.89 2288.4,-2524.18"/>
</g>
<!-- node_13 -->
<g id="node19" class="node">
<title>node_13</title>
<path fill="#6d95df" stroke="#000000" d="M2286,-407C2286,-407 2256,-407 2256,-407 2250,-407 2244,-401 2244,-395 2244,-395 2244,-383 2244,-383 2244,-377 2250,-371 2256,-371 2256,-371 2286,-371 2286,-371 2292,-371 2298,-377 2298,-383 2298,-383 2298,-395 2298,-395 2298,-401 2292,-407 2286,-407"/>
<text text-anchor="middle" x="2271" y="-385.5" font-family="SF Pro Text Bold 10" font-size="15.00" fill="#000000">br</text>
</g>
<!-- node_12&#45;&gt;node_13 -->
<g id="edge8" class="edge">
<title>node_12&#45;&gt;node_13</title>
<path fill="none" stroke="#ff3636" stroke-width="3" d="M2284.01,-501.87C2281.5,-480.28 2277.15,-442.91 2274.18,-417.35"/>
<polygon fill="#ff3636" stroke="#ff3636" stroke-width="3" points="2277.63,-416.73 2273,-407.2 2270.68,-417.54 2277.63,-416.73"/>
</g>
<!-- node_28 -->
<g id="node50" class="node">
<title>node_28</title>
<path fill="#6d95df" stroke="#000000" d="M2013,-207C2013,-207 1983,-207 1983,-207 1977,-207 1971,-201 1971,-195 1971,-195 1971,-183 1971,-183 1971,-177 1977,-171 1983,-171 1983,-171 2013,-171 2013,-171 2019,-171 2025,-177 2025,-183 2025,-183 2025,-195 2025,-195 2025,-201 2019,-207 2013,-207"/>
<text text-anchor="middle" x="1998" y="-185.5" font-family="SF Pro Text Bold 10" font-size="15.00" fill="#000000">phi</text>
</g>
<!-- node_13&#45;&gt;node_28 -->
<g id="edge29" class="edge">
<title>node_13&#45;&gt;node_28</title>
<path fill="none" stroke="#ff8800" stroke-width="5" d="M2250.12,-370.89C2246.76,-368.22 2243.3,-365.51 2240,-363 2229.96,-355.37 2094.38,-258.68 2030.66,-213.27"/>
<polygon fill="#ff8800" stroke="#ff8800" stroke-width="5" points="2032.85,-209.46 2022.16,-207.22 2027.77,-216.58 2032.85,-209.46"/>
<text text-anchor="middle" x="2186.5" y="-312" font-family="SF Pro Text Bold 10" font-size="15.00">0</text>
</g>
<!-- node_13&#45;&gt;node_28 -->
<g id="edge79" class="edge">
<title>node_13&#45;&gt;node_28</title>
<path fill="none" stroke="#00b3ff" stroke-width="2" d="M2258.53,-370.71C2245.34,-353.23 2223.26,-326.12 2200,-307 2147.32,-263.69 2076.62,-226.77 2034.35,-206.55"/>
<polygon fill="#00b3ff" stroke="#00b3ff" stroke-width="2" points="2035.8,-203.36 2025.26,-202.25 2032.81,-209.69 2035.8,-203.36"/>
<text text-anchor="middle" x="2235" y="-312" font-family="SF Pro Text Bold 10" font-size="15.00">i32 1</text>
</g>
<!-- node_35 -->
<g id="node20" class="node">
<title>node_35</title>
<path fill="#d66868" stroke="#000000" d="M2589,-685C2589,-685 2521,-685 2521,-685 2515,-685 2509,-679 2509,-673 2509,-673 2509,-661 2509,-661 2509,-655 2515,-649 2521,-649 2521,-649 2589,-649 2589,-649 2595,-649 2601,-655 2601,-661 2601,-661 2601,-673 2601,-673 2601,-679 2595,-685 2589,-685"/>
<text text-anchor="middle" x="2555" y="-663.5" font-family="SF Pro Text Bold 10" font-size="15.00" fill="#000000">ptr @str.2</text>
</g>
<!-- node_35&#45;&gt;node_12 -->
<g id="edge51" class="edge">
<title>node_35&#45;&gt;node_12</title>
<path fill="none" stroke="#00b3ff" stroke-width="2" d="M2523.35,-648.94C2473.04,-621.82 2375.11,-569.03 2322.12,-540.47"/>
<polygon fill="#00b3ff" stroke="#00b3ff" stroke-width="2" points="2323.55,-537.26 2313.09,-535.6 2320.23,-543.43 2323.55,-537.26"/>
</g>
<!-- node_36 -->
<g id="node21" class="node">
<title>node_36</title>
<path fill="#d66868" stroke="#000000" d="M2431.5,-685C2431.5,-685 2364.5,-685 2364.5,-685 2358.5,-685 2352.5,-679 2352.5,-673 2352.5,-673 2352.5,-661 2352.5,-661 2352.5,-655 2358.5,-649 2364.5,-649 2364.5,-649 2431.5,-649 2431.5,-649 2437.5,-649 2443.5,-655 2443.5,-661 2443.5,-661 2443.5,-673 2443.5,-673 2443.5,-679 2437.5,-685 2431.5,-685"/>
<text text-anchor="middle" x="2398" y="-663.5" font-family="SF Pro Text Bold 10" font-size="15.00" fill="#000000">ptr @puts</text>
</g>
<!-- node_36&#45;&gt;node_12 -->
<g id="edge52" class="edge">
<title>node_36&#45;&gt;node_12</title>
<path fill="none" stroke="#00b3ff" stroke-width="2" d="M2384.71,-648.8C2365.09,-623.4 2328.26,-575.71 2305.55,-546.31"/>
<polygon fill="#00b3ff" stroke="#00b3ff" stroke-width="2" points="2308.15,-543.95 2299.27,-538.18 2302.61,-548.23 2308.15,-543.95"/>
</g>
<!-- node_15 -->
<g id="node23" class="node">
<title>node_15</title>
<path fill="#6d95df" stroke="#000000" d="M2131,-1967C2131,-1967 2101,-1967 2101,-1967 2095,-1967 2089,-1961 2089,-1955 2089,-1955 2089,-1943 2089,-1943 2089,-1937 2095,-1931 2101,-1931 2101,-1931 2131,-1931 2131,-1931 2137,-1931 2143,-1937 2143,-1943 2143,-1943 2143,-1955 2143,-1955 2143,-1961 2137,-1967 2131,-1967"/>
<text text-anchor="middle" x="2116" y="-1945.5" font-family="SF Pro Text Bold 10" font-size="15.00" fill="#000000">load</text>
</g>
<!-- node_14&#45;&gt;node_15 -->
<g id="edge9" class="edge">
<title>node_14&#45;&gt;node_15</title>
<path fill="none" stroke="#ff3636" stroke-width="3" d="M2165.68,-2131.81C2149.55,-2120.61 2130.49,-2104.12 2121,-2084 2104.88,-2049.83 2107.19,-2005.14 2111.04,-1977"/>
<polygon fill="#ff3636" stroke="#ff3636" stroke-width="3" points="2114.5,-1977.49 2112.55,-1967.07 2107.58,-1976.43 2114.5,-1977.49"/>
</g>
<!-- node_14&#45;&gt;node_15 -->
<g id="edge53" class="edge">
<title>node_14&#45;&gt;node_15</title>
<path fill="none" stroke="#00b3ff" stroke-width="2" d="M2186.3,-2130.78C2172.81,-2096.09 2142.31,-2017.65 2126.28,-1976.43"/>
<polygon fill="#00b3ff" stroke="#00b3ff" stroke-width="2" points="2129.51,-1975.1 2122.63,-1967.04 2122.99,-1977.63 2129.51,-1975.1"/>
<text text-anchor="middle" x="2179" y="-2072" font-family="SF Pro Text Bold 10" font-size="15.00">%7</text>
</g>
<!-- node_16 -->
<g id="node24" class="node">
<title>node_16</title>
<path fill="#6d95df" stroke="#000000" d="M2010,-1820C2010,-1820 1980,-1820 1980,-1820 1974,-1820 1968,-1814 1968,-1808 1968,-1808 1968,-1796 1968,-1796 1968,-1790 1974,-1784 1980,-1784 1980,-1784 2010,-1784 2010,-1784 2016,-1784 2022,-1790 2022,-1796 2022,-1796 2022,-1808 2022,-1808 2022,-1814 2016,-1820 2010,-1820"/>
<text text-anchor="middle" x="1995" y="-1798.5" font-family="SF Pro Text Bold 10" font-size="15.00" fill="#000000">icmp</text>
</g>
<!-- node_15&#45;&gt;node_16 -->
<g id="edge10" class="edge">
<title>node_15&#45;&gt;node_16</title>
<path fill="none" stroke="#ff3636" stroke-width="3" d="M2118.91,-1930.71C2120.91,-1913.21 2121.32,-1886.1 2109,-1867 2091.39,-1839.68 2057.8,-1822.9 2031.63,-1813.42"/>
<polygon fill="#ff3636" stroke="#ff3636" stroke-width="3" points="2032.61,-1810.05 2022.01,-1810.13 2030.35,-1816.67 2032.61,-1810.05"/>
</g>
<!-- node_15&#45;&gt;node_16 -->
<g id="edge55" class="edge">
<title>node_15&#45;&gt;node_16</title>
<path fill="none" stroke="#00b3ff" stroke-width="2" d="M2101.64,-1930.8C2080.36,-1905.29 2040.31,-1857.3 2015.81,-1827.93"/>
<polygon fill="#00b3ff" stroke="#00b3ff" stroke-width="2" points="2018.43,-1825.62 2009.34,-1820.18 2013.06,-1830.1 2018.43,-1825.62"/>
<text text-anchor="middle" x="2071" y="-1872" font-family="SF Pro Text Bold 10" font-size="15.00">%8</text>
</g>
<!-- node_17 -->
<g id="node25" class="node">
<title>node_17</title>
<path fill="#6d95df" stroke="#000000" d="M1934,-1620C1934,-1620 1904,-1620 1904,-1620 1898,-1620 1892,-1614 1892,-1608 1892,-1608 1892,-1596 1892,-1596 1892,-1590 1898,-1584 1904,-1584 1904,-1584 1934,-1584 1934,-1584 1940,-1584 1946,-1590 1946,-1596 1946,-1596 1946,-1608 1946,-1608 1946,-1614 1940,-1620 1934,-1620"/>
<text text-anchor="middle" x="1919" y="-1598.5" font-family="SF Pro Text Bold 10" font-size="15.00" fill="#000000">br</text>
</g>
<!-- node_16&#45;&gt;node_17 -->
<g id="edge11" class="edge">
<title>node_16&#45;&gt;node_17</title>
<path fill="none" stroke="#ff3636" stroke-width="3" d="M1967.77,-1784.1C1952.25,-1772.84 1934.14,-1756.54 1925,-1737 1908.99,-1702.77 1910.87,-1658.1 1914.39,-1629.97"/>
<polygon fill="#ff3636" stroke="#ff3636" stroke-width="3" points="1917.85,-1630.45 1915.78,-1620.06 1910.92,-1629.47 1917.85,-1630.45"/>
</g>
<!-- node_16&#45;&gt;node_17 -->
<g id="edge56" class="edge">
<title>node_16&#45;&gt;node_17</title>
<path fill="none" stroke="#00b3ff" stroke-width="2" d="M1988.39,-1783.78C1975.08,-1749.09 1944.97,-1670.65 1929.15,-1629.43"/>
<polygon fill="#00b3ff" stroke="#00b3ff" stroke-width="2" points="1932.39,-1628.13 1925.54,-1620.04 1925.86,-1630.63 1932.39,-1628.13"/>
<text text-anchor="middle" x="1982" y="-1725" font-family="SF Pro Text Bold 10" font-size="15.00">%9</text>
</g>
<!-- node_18 -->
<g id="node28" class="node">
<title>node_18</title>
<path fill="#6d95df" stroke="#000000" d="M1825.5,-1473C1825.5,-1473 1724.5,-1473 1724.5,-1473 1718.5,-1473 1712.5,-1467 1712.5,-1461 1712.5,-1461 1712.5,-1449 1712.5,-1449 1712.5,-1443 1718.5,-1437 1724.5,-1437 1724.5,-1437 1825.5,-1437 1825.5,-1437 1831.5,-1437 1837.5,-1443 1837.5,-1449 1837.5,-1449 1837.5,-1461 1837.5,-1461 1837.5,-1467 1831.5,-1473 1825.5,-1473"/>
<text text-anchor="middle" x="1775" y="-1451.5" font-family="SF Pro Text Bold 10" font-size="15.00" fill="#000000">getelementptr</text>
</g>
<!-- node_17&#45;&gt;node_18 -->
<g id="edge27" class="edge">
<title>node_17&#45;&gt;node_18</title>
<path fill="none" stroke="#ff8800" stroke-width="5" d="M1901.92,-1583.8C1876.48,-1558.18 1828.51,-1509.89 1799.39,-1480.56"/>
<polygon fill="#ff8800" stroke="#ff8800" stroke-width="5" points="1802.21,-1477.19 1792.06,-1473.18 1796,-1483.36 1802.21,-1477.19"/>
<text text-anchor="middle" x="1855" y="-1525" font-family="SF Pro Text Bold 10" font-size="15.00">1</text>
</g>
<!-- node_26 -->
<g id="node46" class="node">
<title>node_26</title>
<path fill="#6d95df" stroke="#000000" d="M1934,-538C1934,-538 1904,-538 1904,-538 1898,-538 1892,-532 1892,-526 1892,-526 1892,-514 1892,-514 1892,-508 1898,-502 1904,-502 1904,-502 1934,-502 1934,-502 1940,-502 1946,-508 1946,-514 1946,-514 1946,-526 1946,-526 1946,-532 1940,-538 1934,-538"/>
<text text-anchor="middle" x="1919" y="-516.5" font-family="SF Pro Text Bold 10" font-size="15.00" fill="#000000">call</text>
</g>
<!-- node_17&#45;&gt;node_26 -->
<g id="edge28" class="edge">
<title>node_17&#45;&gt;node_26</title>
<path fill="none" stroke="#ff8800" stroke-width="5" d="M1919,-1583.59C1919,-1556.37 1919,-1502.07 1919,-1456 1919,-1456 1919,-1456 1919,-666 1919,-625.15 1919,-577.83 1919,-548.65"/>
<polygon fill="#ff8800" stroke="#ff8800" stroke-width="5" points="1923.38,-548.41 1919,-538.41 1914.63,-548.41 1923.38,-548.41"/>
<text text-anchor="middle" x="1924.5" y="-1084" font-family="SF Pro Text Bold 10" font-size="15.00">0</text>
</g>
<!-- node_37 -->
<g id="node26" class="node">
<title>node_37</title>
<path fill="#d66868" stroke="#000000" d="M2181.5,-2314C2181.5,-2314 2026.5,-2314 2026.5,-2314 2020.5,-2314 2014.5,-2308 2014.5,-2302 2014.5,-2302 2014.5,-2290 2014.5,-2290 2014.5,-2284 2020.5,-2278 2026.5,-2278 2026.5,-2278 2181.5,-2278 2181.5,-2278 2187.5,-2278 2193.5,-2284 2193.5,-2290 2193.5,-2290 2193.5,-2302 2193.5,-2302 2193.5,-2308 2187.5,-2314 2181.5,-2314"/>
<text text-anchor="middle" x="2104" y="-2292.5" font-family="SF Pro Text Bold 10" font-size="15.00" fill="#000000">ptr @__errno_location</text>
</g>
<!-- node_37&#45;&gt;node_14 -->
<g id="edge54" class="edge">
<title>node_37&#45;&gt;node_14</title>
<path fill="none" stroke="#00b3ff" stroke-width="2" d="M2114.56,-2277.8C2130.02,-2252.62 2158.92,-2205.52 2177,-2176.07"/>
<polygon fill="#00b3ff" stroke="#00b3ff" stroke-width="2" points="2180.21,-2177.53 2182.45,-2167.18 2174.24,-2173.87 2180.21,-2177.53"/>
</g>
<!-- node_38 -->
<g id="node27" class="node">
<title>node_38</title>
<path fill="#d66868" stroke="#000000" d="M2010.5,-1967C2010.5,-1967 1979.5,-1967 1979.5,-1967 1973.5,-1967 1967.5,-1961 1967.5,-1955 1967.5,-1955 1967.5,-1943 1967.5,-1943 1967.5,-1937 1973.5,-1931 1979.5,-1931 1979.5,-1931 2010.5,-1931 2010.5,-1931 2016.5,-1931 2022.5,-1937 2022.5,-1943 2022.5,-1943 2022.5,-1955 2022.5,-1955 2022.5,-1961 2016.5,-1967 2010.5,-1967"/>
<text text-anchor="middle" x="1995" y="-1945.5" font-family="SF Pro Text Bold 10" font-size="15.00" fill="#000000">i32 0</text>
</g>
<!-- node_38&#45;&gt;node_16 -->
<g id="edge57" class="edge">
<title>node_38&#45;&gt;node_16</title>
<path fill="none" stroke="#00b3ff" stroke-width="2" d="M1995,-1930.8C1995,-1905.94 1995,-1859.74 1995,-1830.23"/>
<polygon fill="#00b3ff" stroke="#00b3ff" stroke-width="2" points="1998.5,-1830.18 1995,-1820.18 1991.5,-1830.18 1998.5,-1830.18"/>
</g>
<!-- node_19 -->
<g id="node29" class="node">
<title>node_19</title>
<path fill="#6d95df" stroke="#000000" d="M1663,-1326C1663,-1326 1633,-1326 1633,-1326 1627,-1326 1621,-1320 1621,-1314 1621,-1314 1621,-1302 1621,-1302 1621,-1296 1627,-1290 1633,-1290 1633,-1290 1663,-1290 1663,-1290 1669,-1290 1675,-1296 1675,-1302 1675,-1302 1675,-1314 1675,-1314 1675,-1320 1669,-1326 1663,-1326"/>
<text text-anchor="middle" x="1648" y="-1304.5" font-family="SF Pro Text Bold 10" font-size="15.00" fill="#000000">load</text>
</g>
<!-- node_18&#45;&gt;node_19 -->
<g id="edge12" class="edge">
<title>node_18&#45;&gt;node_19</title>
<path fill="none" stroke="#ff3636" stroke-width="3" d="M1740.37,-1437C1720.76,-1425.9 1697.01,-1409.8 1681,-1390 1668.19,-1374.16 1659.74,-1352.68 1654.61,-1335.82"/>
<polygon fill="#ff3636" stroke="#ff3636" stroke-width="3" points="1657.92,-1334.67 1651.82,-1326.01 1651.19,-1336.58 1657.92,-1334.67"/>
</g>
<!-- node_18&#45;&gt;node_19 -->
<g id="edge58" class="edge">
<title>node_18&#45;&gt;node_19</title>
<path fill="none" stroke="#00b3ff" stroke-width="2" d="M1759.93,-1436.8C1737.59,-1411.29 1695.56,-1363.3 1669.84,-1333.93"/>
<polygon fill="#00b3ff" stroke="#00b3ff" stroke-width="2" points="1672.27,-1331.4 1663.05,-1326.18 1667,-1336.01 1672.27,-1331.4"/>
<text text-anchor="middle" x="1729" y="-1378" font-family="SF Pro Text Bold 10" font-size="15.00">%11</text>
</g>
<!-- node_20 -->
<g id="node30" class="node">
<title>node_20</title>
<path fill="#6d95df" stroke="#000000" d="M1604,-1179C1604,-1179 1574,-1179 1574,-1179 1568,-1179 1562,-1173 1562,-1167 1562,-1167 1562,-1155 1562,-1155 1562,-1149 1568,-1143 1574,-1143 1574,-1143 1604,-1143 1604,-1143 1610,-1143 1616,-1149 1616,-1155 1616,-1155 1616,-1167 1616,-1167 1616,-1173 1610,-1179 1604,-1179"/>
<text text-anchor="middle" x="1589" y="-1157.5" font-family="SF Pro Text Bold 10" font-size="15.00" fill="#000000">call</text>
</g>
<!-- node_19&#45;&gt;node_20 -->
<g id="edge13" class="edge">
<title>node_19&#45;&gt;node_20</title>
<path fill="none" stroke="#ff3636" stroke-width="3" d="M1628.11,-1289.83C1615.92,-1278.02 1601.3,-1261.22 1594,-1243 1587.23,-1226.11 1586.02,-1205.63 1586.48,-1189.5"/>
<polygon fill="#ff3636" stroke="#ff3636" stroke-width="3" points="1590,-1189.29 1587.02,-1179.12 1583,-1188.92 1590,-1189.29"/>
</g>
<!-- node_19&#45;&gt;node_20 -->
<g id="edge61" class="edge">
<title>node_19&#45;&gt;node_20</title>
<path fill="none" stroke="#00b3ff" stroke-width="2" d="M1641,-1289.8C1630.8,-1264.72 1611.76,-1217.93 1599.76,-1188.46"/>
<polygon fill="#00b3ff" stroke="#00b3ff" stroke-width="2" points="1603,-1187.12 1595.99,-1179.18 1596.52,-1189.76 1603,-1187.12"/>
<text text-anchor="middle" x="1635.5" y="-1231" font-family="SF Pro Text Bold 10" font-size="15.00">%12</text>
</g>
<!-- node_21 -->
<g id="node31" class="node">
<title>node_21</title>
<path fill="#6d95df" stroke="#000000" d="M1558,-1032C1558,-1032 1528,-1032 1528,-1032 1522,-1032 1516,-1026 1516,-1020 1516,-1020 1516,-1008 1516,-1008 1516,-1002 1522,-996 1528,-996 1528,-996 1558,-996 1558,-996 1564,-996 1570,-1002 1570,-1008 1570,-1008 1570,-1020 1570,-1020 1570,-1026 1564,-1032 1558,-1032"/>
<text text-anchor="middle" x="1543" y="-1010.5" font-family="SF Pro Text Bold 10" font-size="15.00" fill="#000000">shl</text>
</g>
<!-- node_20&#45;&gt;node_21 -->
<g id="edge14" class="edge">
<title>node_20&#45;&gt;node_21</title>
<path fill="none" stroke="#ff3636" stroke-width="3" d="M1574.5,-1142.78C1565.13,-1130.56 1553.65,-1113.31 1548,-1096 1542.38,-1078.81 1541.14,-1058.49 1541.3,-1042.5"/>
<polygon fill="#ff3636" stroke="#ff3636" stroke-width="3" points="1544.81,-1042.32 1541.6,-1032.22 1537.81,-1042.11 1544.81,-1042.32"/>
</g>
<!-- node_20&#45;&gt;node_21 -->
<g id="edge62" class="edge">
<title>node_20&#45;&gt;node_21</title>
<path fill="none" stroke="#00b3ff" stroke-width="2" d="M1583.54,-1142.8C1575.62,-1117.83 1560.87,-1071.34 1551.52,-1041.84"/>
<polygon fill="#00b3ff" stroke="#00b3ff" stroke-width="2" points="1554.81,-1040.65 1548.45,-1032.18 1548.14,-1042.77 1554.81,-1040.65"/>
<text text-anchor="middle" x="1582.5" y="-1084" font-family="SF Pro Text Bold 10" font-size="15.00">%13</text>
</g>
<!-- node_22 -->
<g id="node32" class="node">
<title>node_22</title>
<path fill="#6d95df" stroke="#000000" d="M1502,-885C1502,-885 1472,-885 1472,-885 1466,-885 1460,-879 1460,-873 1460,-873 1460,-861 1460,-861 1460,-855 1466,-849 1472,-849 1472,-849 1502,-849 1502,-849 1508,-849 1514,-855 1514,-861 1514,-861 1514,-873 1514,-873 1514,-879 1508,-885 1502,-885"/>
<text text-anchor="middle" x="1487" y="-863.5" font-family="SF Pro Text Bold 10" font-size="15.00" fill="#000000">ashr</text>
</g>
<!-- node_21&#45;&gt;node_22 -->
<g id="edge15" class="edge">
<title>node_21&#45;&gt;node_22</title>
<path fill="none" stroke="#ff3636" stroke-width="3" d="M1524.46,-995.88C1512.9,-983.97 1498.94,-967.03 1492,-949 1485.46,-932.01 1484.25,-911.54 1484.65,-895.43"/>
<polygon fill="#ff3636" stroke="#ff3636" stroke-width="3" points="1488.17,-895.22 1485.15,-885.07 1481.18,-894.89 1488.17,-895.22"/>
</g>
<!-- node_21&#45;&gt;node_22 -->
<g id="edge66" class="edge">
<title>node_21&#45;&gt;node_22</title>
<path fill="none" stroke="#00b3ff" stroke-width="2" d="M1536.36,-995.8C1526.72,-970.83 1508.76,-924.34 1497.37,-894.84"/>
<polygon fill="#00b3ff" stroke="#00b3ff" stroke-width="2" points="1500.5,-893.25 1493.64,-885.18 1493.97,-895.77 1500.5,-893.25"/>
<text text-anchor="middle" x="1531.5" y="-937" font-family="SF Pro Text Bold 10" font-size="15.00">%14</text>
</g>
<!-- node_23 -->
<g id="node33" class="node">
<title>node_23</title>
<path fill="#6d95df" stroke="#000000" d="M1502,-685C1502,-685 1472,-685 1472,-685 1466,-685 1460,-679 1460,-673 1460,-673 1460,-661 1460,-661 1460,-655 1466,-649 1472,-649 1472,-649 1502,-649 1502,-649 1508,-649 1514,-655 1514,-661 1514,-661 1514,-673 1514,-673 1514,-679 1508,-685 1502,-685"/>
<text text-anchor="middle" x="1487" y="-663.5" font-family="SF Pro Text Bold 10" font-size="15.00" fill="#000000">call</text>
</g>
<!-- node_22&#45;&gt;node_23 -->
<g id="edge16" class="edge">
<title>node_22&#45;&gt;node_23</title>
<path fill="none" stroke="#ff3636" stroke-width="3" d="M1487,-848.78C1487,-814.31 1487,-736.65 1487,-695.22"/>
<polygon fill="#ff3636" stroke="#ff3636" stroke-width="3" points="1490.5,-695.04 1487,-685.04 1483.5,-695.04 1490.5,-695.04"/>
</g>
<!-- node_22&#45;&gt;node_23 -->
<g id="edge68" class="edge">
<title>node_22&#45;&gt;node_23</title>
<path fill="none" stroke="#00b3ff" stroke-width="2" d="M1487.68,-848.89C1488.16,-836 1488.75,-817.89 1489,-802 1489.57,-765.2 1488.68,-722.71 1487.9,-695.61"/>
<polygon fill="#00b3ff" stroke="#00b3ff" stroke-width="2" points="1491.39,-695.24 1487.6,-685.35 1484.4,-695.45 1491.39,-695.24"/>
<text text-anchor="middle" x="1504.5" y="-790" font-family="SF Pro Text Bold 10" font-size="15.00">%15</text>
</g>
<!-- node_24 -->
<g id="node34" class="node">
<title>node_24</title>
<path fill="#6d95df" stroke="#000000" d="M1615,-538C1615,-538 1585,-538 1585,-538 1579,-538 1573,-532 1573,-526 1573,-526 1573,-514 1573,-514 1573,-508 1579,-502 1585,-502 1585,-502 1615,-502 1615,-502 1621,-502 1627,-508 1627,-514 1627,-514 1627,-526 1627,-526 1627,-532 1621,-538 1615,-538"/>
<text text-anchor="middle" x="1600" y="-516.5" font-family="SF Pro Text Bold 10" font-size="15.00" fill="#000000">call</text>
</g>
<!-- node_22&#45;&gt;node_24 -->
<g id="edge69" class="edge">
<title>node_22&#45;&gt;node_24</title>
<path fill="none" stroke="#00b3ff" stroke-width="2" d="M1460.45,-848.82C1438.8,-833.08 1409.78,-807.62 1397,-777 1375.08,-724.5 1372.67,-700.43 1397,-649 1428.58,-582.23 1513.78,-546.55 1563.18,-530.92"/>
<polygon fill="#00b3ff" stroke="#00b3ff" stroke-width="2" points="1564.31,-534.24 1572.86,-527.98 1562.27,-527.54 1564.31,-534.24"/>
<text text-anchor="middle" x="1412.5" y="-663.5" font-family="SF Pro Text Bold 10" font-size="15.00">%15</text>
</g>
<!-- node_23&#45;&gt;node_0 -->
<g id="edge72" class="edge">
<title>node_23&#45;&gt;node_0</title>
<path fill="none" stroke="#ff8800" stroke-width="5" stroke-dasharray="5,2" d="M1480.39,-685.03C1472.03,-706.51 1457.13,-744.57 1444,-777 1404.44,-874.69 1378.5,-893.73 1353,-996 1187.93,-1657.94 1222.11,-2506.61 1230.48,-2667.89"/>
<polygon fill="#ff8800" stroke="#ff8800" stroke-width="5" points="1226.11,-2668.16 1231.01,-2677.91 1234.85,-2667.69 1226.11,-2668.16"/>
<text text-anchor="middle" x="1261" y="-1598.5" font-family="SF Pro Text Bold 10" font-size="15.00">1</text>
</g>
<!-- node_23&#45;&gt;node_24 -->
<g id="edge17" class="edge">
<title>node_23&#45;&gt;node_24</title>
<path fill="none" stroke="#ff3636" stroke-width="3" d="M1504.05,-649C1516.27,-636.46 1532.83,-618.75 1546,-602 1559.93,-584.29 1573.99,-563.06 1584.28,-546.78"/>
<polygon fill="#ff3636" stroke="#ff3636" stroke-width="3" points="1587.25,-548.63 1589.58,-538.29 1581.31,-544.92 1587.25,-548.63"/>
</g>
<!-- node_23&#45;&gt;node_24 -->
<g id="edge71" class="edge">
<title>node_23&#45;&gt;node_24</title>
<path fill="none" stroke="#00b3ff" stroke-width="2" d="M1485.58,-648.74C1484.99,-631.28 1486.52,-604.19 1499,-585 1514.25,-561.55 1541.43,-545.05 1563.75,-534.69"/>
<polygon fill="#00b3ff" stroke="#00b3ff" stroke-width="2" points="1565.24,-537.86 1572.97,-530.62 1562.41,-531.45 1565.24,-537.86"/>
<text text-anchor="middle" x="1514.5" y="-590" font-family="SF Pro Text Bold 10" font-size="15.00">%16</text>
</g>
<!-- node_25 -->
<g id="node35" class="node">
<title>node_25</title>
<path fill="#6d95df" stroke="#000000" d="M1826,-407C1826,-407 1796,-407 1796,-407 1790,-407 1784,-401 1784,-395 1784,-395 1784,-383 1784,-383 1784,-377 1790,-371 1796,-371 1796,-371 1826,-371 1826,-371 1832,-371 1838,-377 1838,-383 1838,-383 1838,-395 1838,-395 1838,-401 1832,-407 1826,-407"/>
<text text-anchor="middle" x="1811" y="-385.5" font-family="SF Pro Text Bold 10" font-size="15.00" fill="#000000">br</text>
</g>
<!-- node_24&#45;&gt;node_25 -->
<g id="edge18" class="edge">
<title>node_24&#45;&gt;node_25</title>
<path fill="none" stroke="#ff3636" stroke-width="3" d="M1627.15,-502.4C1664.9,-479.32 1733.3,-437.51 1775.18,-411.9"/>
<polygon fill="#ff3636" stroke="#ff3636" stroke-width="3" points="1777.25,-414.74 1783.95,-406.54 1773.59,-408.77 1777.25,-414.74"/>
</g>
<!-- node_25&#45;&gt;node_28 -->
<g id="edge30" class="edge">
<title>node_25&#45;&gt;node_28</title>
<path fill="none" stroke="#ff8800" stroke-width="5" d="M1807.01,-370.95C1803.92,-353.66 1801.83,-326.7 1813,-307 1845.15,-250.3 1917.27,-217.05 1961.37,-201.29"/>
<polygon fill="#ff8800" stroke="#ff8800" stroke-width="5" points="1962.84,-205.41 1970.86,-198.01 1959.98,-197.14 1962.84,-205.41"/>
<text text-anchor="middle" x="1817" y="-312" font-family="SF Pro Text Bold 10" font-size="15.00">1</text>
</g>
<!-- node_25&#45;&gt;node_28 -->
<g id="edge80" class="edge">
<title>node_25&#45;&gt;node_28</title>
<path fill="none" stroke="#00b3ff" stroke-width="2" d="M1827.27,-370.78C1860.58,-335.51 1936.62,-254.99 1974.98,-214.38"/>
<polygon fill="#00b3ff" stroke="#00b3ff" stroke-width="2" points="1977.58,-216.72 1981.9,-207.04 1972.49,-211.91 1977.58,-216.72"/>
<text text-anchor="middle" x="1901.5" y="-312" font-family="SF Pro Text Bold 10" font-size="15.00">i32 0</text>
</g>
<!-- node_39 -->
<g id="node36" class="node">
<title>node_39</title>
<path fill="#d66868" stroke="#000000" d="M1809.5,-1620C1809.5,-1620 1770.5,-1620 1770.5,-1620 1764.5,-1620 1758.5,-1614 1758.5,-1608 1758.5,-1608 1758.5,-1596 1758.5,-1596 1758.5,-1590 1764.5,-1584 1770.5,-1584 1770.5,-1584 1809.5,-1584 1809.5,-1584 1815.5,-1584 1821.5,-1590 1821.5,-1596 1821.5,-1596 1821.5,-1608 1821.5,-1608 1821.5,-1614 1815.5,-1620 1809.5,-1620"/>
<text text-anchor="middle" x="1790" y="-1598.5" font-family="SF Pro Text Bold 10" font-size="15.00" fill="#000000">ptr %1</text>
</g>
<!-- node_39&#45;&gt;node_18 -->
<g id="edge59" class="edge">
<title>node_39&#45;&gt;node_18</title>
<path fill="none" stroke="#00b3ff" stroke-width="2" d="M1788.22,-1583.8C1785.65,-1558.94 1780.87,-1512.74 1777.82,-1483.23"/>
<polygon fill="#00b3ff" stroke="#00b3ff" stroke-width="2" points="1781.29,-1482.77 1776.78,-1473.18 1774.32,-1483.49 1781.29,-1482.77"/>
<text text-anchor="middle" x="1792.5" y="-1525" font-family="SF Pro Text Bold 10" font-size="15.00">%1</text>
</g>
<!-- node_40 -->
<g id="node37" class="node">
<title>node_40</title>
<path fill="#d66868" stroke="#000000" d="M1681,-1620C1681,-1620 1651,-1620 1651,-1620 1645,-1620 1639,-1614 1639,-1608 1639,-1608 1639,-1596 1639,-1596 1639,-1590 1645,-1584 1651,-1584 1651,-1584 1681,-1584 1681,-1584 1687,-1584 1693,-1590 1693,-1596 1693,-1596 1693,-1608 1693,-1608 1693,-1614 1687,-1620 1681,-1620"/>
<text text-anchor="middle" x="1666" y="-1598.5" font-family="SF Pro Text Bold 10" font-size="15.00" fill="#000000">i64 1</text>
</g>
<!-- node_40&#45;&gt;node_18 -->
<g id="edge60" class="edge">
<title>node_40&#45;&gt;node_18</title>
<path fill="none" stroke="#00b3ff" stroke-width="2" d="M1678.93,-1583.8C1698.03,-1558.4 1733.88,-1510.71 1755.97,-1481.31"/>
<polygon fill="#00b3ff" stroke="#00b3ff" stroke-width="2" points="1758.87,-1483.28 1762.09,-1473.18 1753.28,-1479.07 1758.87,-1483.28"/>
</g>
<!-- node_41 -->
<g id="node38" class="node">
<title>node_41</title>
<path fill="#d66868" stroke="#000000" d="M1543.5,-1326C1543.5,-1326 1496.5,-1326 1496.5,-1326 1490.5,-1326 1484.5,-1320 1484.5,-1314 1484.5,-1314 1484.5,-1302 1484.5,-1302 1484.5,-1296 1490.5,-1290 1496.5,-1290 1496.5,-1290 1543.5,-1290 1543.5,-1290 1549.5,-1290 1555.5,-1296 1555.5,-1302 1555.5,-1302 1555.5,-1314 1555.5,-1314 1555.5,-1320 1549.5,-1326 1543.5,-1326"/>
<text text-anchor="middle" x="1520" y="-1304.5" font-family="SF Pro Text Bold 10" font-size="15.00" fill="#000000">ptr null</text>
</g>
<!-- node_41&#45;&gt;node_20 -->
<g id="edge63" class="edge">
<title>node_41&#45;&gt;node_20</title>
<path fill="none" stroke="#00b3ff" stroke-width="2" d="M1528.19,-1289.8C1540.12,-1264.72 1562.39,-1217.93 1576.41,-1188.46"/>
<polygon fill="#00b3ff" stroke="#00b3ff" stroke-width="2" points="1579.69,-1189.71 1580.82,-1179.18 1573.37,-1186.71 1579.69,-1189.71"/>
</g>
<!-- node_42 -->
<g id="node39" class="node">
<title>node_42</title>
<path fill="#d66868" stroke="#000000" d="M1407,-1326C1407,-1326 1369,-1326 1369,-1326 1363,-1326 1357,-1320 1357,-1314 1357,-1314 1357,-1302 1357,-1302 1357,-1296 1363,-1290 1369,-1290 1369,-1290 1407,-1290 1407,-1290 1413,-1290 1419,-1296 1419,-1302 1419,-1302 1419,-1314 1419,-1314 1419,-1320 1413,-1326 1407,-1326"/>
<text text-anchor="middle" x="1388" y="-1304.5" font-family="SF Pro Text Bold 10" font-size="15.00" fill="#000000">i32 10</text>
</g>
<!-- node_42&#45;&gt;node_20 -->
<g id="edge64" class="edge">
<title>node_42&#45;&gt;node_20</title>
<path fill="none" stroke="#00b3ff" stroke-width="2" d="M1411.85,-1289.8C1447.96,-1263.74 1516.59,-1214.23 1557.01,-1185.08"/>
<polygon fill="#00b3ff" stroke="#00b3ff" stroke-width="2" points="1559.12,-1187.87 1565.18,-1179.18 1555.03,-1182.19 1559.12,-1187.87"/>
</g>
<!-- node_43 -->
<g id="node40" class="node">
<title>node_43</title>
<path fill="#d66868" stroke="#000000" d="M1826,-1326C1826,-1326 1752,-1326 1752,-1326 1746,-1326 1740,-1320 1740,-1314 1740,-1314 1740,-1302 1740,-1302 1740,-1296 1746,-1290 1752,-1290 1752,-1290 1826,-1290 1826,-1290 1832,-1290 1838,-1296 1838,-1302 1838,-1302 1838,-1314 1838,-1314 1838,-1320 1832,-1326 1826,-1326"/>
<text text-anchor="middle" x="1789" y="-1304.5" font-family="SF Pro Text Bold 10" font-size="15.00" fill="#000000">ptr @strtol</text>
</g>
<!-- node_43&#45;&gt;node_20 -->
<g id="edge65" class="edge">
<title>node_43&#45;&gt;node_20</title>
<path fill="none" stroke="#00b3ff" stroke-width="2" d="M1765.27,-1289.8C1729.34,-1263.74 1661.05,-1214.23 1620.83,-1185.08"/>
<polygon fill="#00b3ff" stroke="#00b3ff" stroke-width="2" points="1622.85,-1182.22 1612.7,-1179.18 1618.74,-1187.88 1622.85,-1182.22"/>
</g>
<!-- node_44 -->
<g id="node41" class="node">
<title>node_44</title>
<path fill="#d66868" stroke="#000000" d="M1484.5,-1179C1484.5,-1179 1443.5,-1179 1443.5,-1179 1437.5,-1179 1431.5,-1173 1431.5,-1167 1431.5,-1167 1431.5,-1155 1431.5,-1155 1431.5,-1149 1437.5,-1143 1443.5,-1143 1443.5,-1143 1484.5,-1143 1484.5,-1143 1490.5,-1143 1496.5,-1149 1496.5,-1155 1496.5,-1155 1496.5,-1167 1496.5,-1167 1496.5,-1173 1490.5,-1179 1484.5,-1179"/>
<text text-anchor="middle" x="1464" y="-1157.5" font-family="SF Pro Text Bold 10" font-size="15.00" fill="#000000">i64 32</text>
</g>
<!-- node_44&#45;&gt;node_21 -->
<g id="edge67" class="edge">
<title>node_44&#45;&gt;node_21</title>
<path fill="none" stroke="#00b3ff" stroke-width="2" d="M1473.37,-1142.8C1487.09,-1117.62 1512.75,-1070.52 1528.8,-1041.07"/>
<polygon fill="#00b3ff" stroke="#00b3ff" stroke-width="2" points="1531.93,-1042.64 1533.64,-1032.18 1525.78,-1039.29 1531.93,-1042.64"/>
</g>
<!-- node_45 -->
<g id="node42" class="node">
<title>node_45</title>
<path fill="#d66868" stroke="#000000" d="M1438.5,-1032C1438.5,-1032 1397.5,-1032 1397.5,-1032 1391.5,-1032 1385.5,-1026 1385.5,-1020 1385.5,-1020 1385.5,-1008 1385.5,-1008 1385.5,-1002 1391.5,-996 1397.5,-996 1397.5,-996 1438.5,-996 1438.5,-996 1444.5,-996 1450.5,-1002 1450.5,-1008 1450.5,-1008 1450.5,-1020 1450.5,-1020 1450.5,-1026 1444.5,-1032 1438.5,-1032"/>
<text text-anchor="middle" x="1418" y="-1010.5" font-family="SF Pro Text Bold 10" font-size="15.00" fill="#000000">i64 32</text>
</g>
<!-- node_45&#45;&gt;node_22 -->
<g id="edge70" class="edge">
<title>node_45&#45;&gt;node_22</title>
<path fill="none" stroke="#00b3ff" stroke-width="2" d="M1426.19,-995.8C1438.12,-970.72 1460.39,-923.93 1474.41,-894.46"/>
<polygon fill="#00b3ff" stroke="#00b3ff" stroke-width="2" points="1477.69,-895.71 1478.82,-885.18 1471.37,-892.71 1477.69,-895.71"/>
</g>
<!-- node_46 -->
<g id="node43" class="node">
<title>node_46</title>
<path fill="#d66868" stroke="#000000" d="M1654.5,-885C1654.5,-885 1591.5,-885 1591.5,-885 1585.5,-885 1579.5,-879 1579.5,-873 1579.5,-873 1579.5,-861 1579.5,-861 1579.5,-855 1585.5,-849 1591.5,-849 1591.5,-849 1654.5,-849 1654.5,-849 1660.5,-849 1666.5,-855 1666.5,-861 1666.5,-861 1666.5,-873 1666.5,-873 1666.5,-879 1660.5,-885 1654.5,-885"/>
<text text-anchor="middle" x="1623" y="-863.5" font-family="SF Pro Text Bold 10" font-size="15.00" fill="#000000">ptr @fact</text>
</g>
<!-- node_46&#45;&gt;node_23 -->
<g id="edge73" class="edge">
<title>node_46&#45;&gt;node_23</title>
<path fill="none" stroke="#00b3ff" stroke-width="2" d="M1606.45,-848.79C1590.24,-831.47 1565.37,-803.57 1547,-777 1528.4,-750.1 1510.82,-716.91 1499.55,-694.26"/>
<polygon fill="#00b3ff" stroke="#00b3ff" stroke-width="2" points="1502.68,-692.68 1495.13,-685.25 1496.4,-695.77 1502.68,-692.68"/>
</g>
<!-- node_47 -->
<g id="node44" class="node">
<title>node_47</title>
<path fill="#d66868" stroke="#000000" d="M1826,-685C1826,-685 1756,-685 1756,-685 1750,-685 1744,-679 1744,-673 1744,-673 1744,-661 1744,-661 1744,-655 1750,-649 1756,-649 1756,-649 1826,-649 1826,-649 1832,-649 1838,-655 1838,-661 1838,-661 1838,-673 1838,-673 1838,-679 1832,-685 1826,-685"/>
<text text-anchor="middle" x="1791" y="-663.5" font-family="SF Pro Text Bold 10" font-size="15.00" fill="#000000">ptr @.str.1</text>
</g>
<!-- node_47&#45;&gt;node_24 -->
<g id="edge74" class="edge">
<title>node_47&#45;&gt;node_24</title>
<path fill="none" stroke="#00b3ff" stroke-width="2" d="M1768.34,-648.8C1734.16,-622.85 1669.35,-573.65 1630.88,-544.44"/>
<polygon fill="#00b3ff" stroke="#00b3ff" stroke-width="2" points="1632.71,-541.44 1622.63,-538.18 1628.48,-547.01 1632.71,-541.44"/>
</g>
<!-- node_48 -->
<g id="node45" class="node">
<title>node_48</title>
<path fill="#d66868" stroke="#000000" d="M1667,-685C1667,-685 1591,-685 1591,-685 1585,-685 1579,-679 1579,-673 1579,-673 1579,-661 1579,-661 1579,-655 1585,-649 1591,-649 1591,-649 1667,-649 1667,-649 1673,-649 1679,-655 1679,-661 1679,-661 1679,-673 1679,-673 1679,-679 1673,-685 1667,-685"/>
<text text-anchor="middle" x="1629" y="-663.5" font-family="SF Pro Text Bold 10" font-size="15.00" fill="#000000">ptr @printf</text>
</g>
<!-- node_48&#45;&gt;node_24 -->
<g id="edge75" class="edge">
<title>node_48&#45;&gt;node_24</title>
<path fill="none" stroke="#00b3ff" stroke-width="2" d="M1625.56,-648.8C1620.59,-623.94 1611.35,-577.74 1605.45,-548.23"/>
<polygon fill="#00b3ff" stroke="#00b3ff" stroke-width="2" points="1608.83,-547.3 1603.44,-538.18 1601.97,-548.67 1608.83,-547.3"/>
</g>
<!-- node_27 -->
<g id="node47" class="node">
<title>node_27</title>
<path fill="#6d95df" stroke="#000000" d="M2013,-407C2013,-407 1983,-407 1983,-407 1977,-407 1971,-401 1971,-395 1971,-395 1971,-383 1971,-383 1971,-377 1977,-371 1983,-371 1983,-371 2013,-371 2013,-371 2019,-371 2025,-377 2025,-383 2025,-383 2025,-395 2025,-395 2025,-401 2019,-407 2013,-407"/>
<text text-anchor="middle" x="1998" y="-385.5" font-family="SF Pro Text Bold 10" font-size="15.00" fill="#000000">br</text>
</g>
<!-- node_26&#45;&gt;node_27 -->
<g id="edge19" class="edge">
<title>node_26&#45;&gt;node_27</title>
<path fill="none" stroke="#ff3636" stroke-width="3" d="M1929.49,-501.87C1942.95,-479.9 1966.42,-441.57 1982.08,-415.99"/>
<polygon fill="#ff3636" stroke="#ff3636" stroke-width="3" points="1985.23,-417.56 1987.47,-407.2 1979.26,-413.9 1985.23,-417.56"/>
</g>
<!-- node_27&#45;&gt;node_28 -->
<g id="edge31" class="edge">
<title>node_27&#45;&gt;node_28</title>
<path fill="none" stroke="#ff8800" stroke-width="5" d="M1997.66,-370.89C1997.42,-358 1997.12,-339.89 1997,-324 1996.71,-287.2 1997.16,-244.71 1997.55,-217.61"/>
<polygon fill="#ff8800" stroke="#ff8800" stroke-width="5" points="2001.93,-217.41 1997.7,-207.35 1993.18,-217.28 2001.93,-217.41"/>
<text text-anchor="middle" x="2002.5" y="-312" font-family="SF Pro Text Bold 10" font-size="15.00">0</text>
</g>
<!-- node_27&#45;&gt;node_28 -->
<g id="edge81" class="edge">
<title>node_27&#45;&gt;node_28</title>
<path fill="none" stroke="#00b3ff" stroke-width="2" d="M2002.14,-370.74C2004.98,-357.93 2008.51,-339.98 2010,-324 2013.43,-287.04 2007.98,-244.34 2003.35,-217.26"/>
<polygon fill="#00b3ff" stroke="#00b3ff" stroke-width="2" points="2006.78,-216.57 2001.57,-207.35 1999.89,-217.81 2006.78,-216.57"/>
<text text-anchor="middle" x="2028" y="-312" font-family="SF Pro Text Bold 10" font-size="15.00">i32 1</text>
</g>
<!-- node_49 -->
<g id="node48" class="node">
<title>node_49</title>
<path fill="#d66868" stroke="#000000" d="M2208,-685C2208,-685 2154,-685 2154,-685 2148,-685 2142,-679 2142,-673 2142,-673 2142,-661 2142,-661 2142,-655 2148,-649 2154,-649 2154,-649 2208,-649 2208,-649 2214,-649 2220,-655 2220,-661 2220,-661 2220,-673 2220,-673 2220,-679 2214,-685 2208,-685"/>
<text text-anchor="middle" x="2181" y="-663.5" font-family="SF Pro Text Bold 10" font-size="15.00" fill="#000000">ptr @str</text>
</g>
<!-- node_49&#45;&gt;node_26 -->
<g id="edge76" class="edge">
<title>node_49&#45;&gt;node_26</title>
<path fill="none" stroke="#00b3ff" stroke-width="2" d="M2150.17,-648.94C2101.43,-621.96 2006.78,-569.58 1954.99,-540.92"/>
<polygon fill="#00b3ff" stroke="#00b3ff" stroke-width="2" points="1956.59,-537.8 1946.15,-536.02 1953.2,-543.93 1956.59,-537.8"/>
</g>
<!-- node_50 -->
<g id="node49" class="node">
<title>node_50</title>
<path fill="#d66868" stroke="#000000" d="M2064.5,-685C2064.5,-685 1997.5,-685 1997.5,-685 1991.5,-685 1985.5,-679 1985.5,-673 1985.5,-673 1985.5,-661 1985.5,-661 1985.5,-655 1991.5,-649 1997.5,-649 1997.5,-649 2064.5,-649 2064.5,-649 2070.5,-649 2076.5,-655 2076.5,-661 2076.5,-661 2076.5,-673 2076.5,-673 2076.5,-679 2070.5,-685 2064.5,-685"/>
<text text-anchor="middle" x="2031" y="-663.5" font-family="SF Pro Text Bold 10" font-size="15.00" fill="#000000">ptr @puts</text>
</g>
<!-- node_50&#45;&gt;node_26 -->
<g id="edge77" class="edge">
<title>node_50&#45;&gt;node_26</title>
<path fill="none" stroke="#00b3ff" stroke-width="2" d="M2017.71,-648.8C1998.09,-623.4 1961.26,-575.71 1938.55,-546.31"/>
<polygon fill="#00b3ff" stroke="#00b3ff" stroke-width="2" points="1941.15,-543.95 1932.27,-538.18 1935.61,-548.23 1941.15,-543.95"/>
</g>
<!-- node_29 -->
<g id="node51" class="node">
<title>node_29</title>
<path fill="#6d95df" stroke="#000000" d="M2013,-60C2013,-60 1983,-60 1983,-60 1977,-60 1971,-54 1971,-48 1971,-48 1971,-36 1971,-36 1971,-30 1977,-24 1983,-24 1983,-24 2013,-24 2013,-24 2019,-24 2025,-30 2025,-36 2025,-36 2025,-48 2025,-48 2025,-54 2019,-60 2013,-60"/>
<text text-anchor="middle" x="1998" y="-38.5" font-family="SF Pro Text Bold 10" font-size="15.00" fill="#000000">ret</text>
</g>
<!-- node_28&#45;&gt;node_29 -->
<g id="edge20" class="edge">
<title>node_28&#45;&gt;node_29</title>
<path fill="none" stroke="#ff3636" stroke-width="3" d="M1998,-170.8C1998,-145.94 1998,-99.74 1998,-70.23"/>
<polygon fill="#ff3636" stroke="#ff3636" stroke-width="3" points="2001.5,-70.18 1998,-60.18 1994.5,-70.18 2001.5,-70.18"/>
</g>
<!-- node_28&#45;&gt;node_29 -->
<g id="edge78" class="edge">
<title>node_28&#45;&gt;node_29</title>
<path fill="none" stroke="#00b3ff" stroke-width="2" d="M1998.82,-170.94C1999.51,-154.54 2000.34,-129.08 2000,-107 1999.81,-94.95 1999.42,-81.64 1999.04,-70.29"/>
<polygon fill="#00b3ff" stroke="#00b3ff" stroke-width="2" points="2002.53,-69.98 1998.68,-60.11 1995.54,-70.23 2002.53,-69.98"/>
<text text-anchor="middle" x="2015.5" y="-112" font-family="SF Pro Text Bold 10" font-size="15.00">%21</text>
</g>
</g>
</svg>
