<?xml version="1.0" encoding="UTF-8" standalone="no"?>
<!DOCTYPE svg PUBLIC "-//W3C//DTD SVG 1.1//EN"
 "http://www.w3.org/Graphics/SVG/1.1/DTD/svg11.dtd">
<!-- Generated by graphviz version 2.43.0 (0)
 -->
<!-- Title: /home/sevsol/Projects/4sem/lisitsyn/llvm&#45;ir&#45;dumper/wt/graph_serialization_v2/examples/fact/fact.c Pages: 1 -->
<svg width="2472pt" height="2662pt"
 viewBox="0.00 0.00 2472.20 2662.20" xmlns="http://www.w3.org/2000/svg" xmlns:xlink="http://www.w3.org/1999/xlink">
<g id="graph0" class="graph" transform="scale(1 1) rotate(0) translate(21.6 2640.6)">
<title>/home/sevsol/Projects/4sem/lisitsyn/llvm&#45;ir&#45;dumper/wt/graph_serialization_v2/examples/fact/fact.c</title>
<polygon fill="white" stroke="transparent" points="-21.6,21.6 -21.6,-2640.6 2450.6,-2640.6 2450.6,21.6 -21.6,21.6"/>
<g id="clust1" class="cluster">
<title>cluster_func_0</title>
<path fill="#e3e3e3" stroke="#000000" stroke-width="2" d="M20,-1500C20,-1500 1082,-1500 1082,-1500 1088,-1500 1094,-1506 1094,-1512 1094,-1512 1094,-2599 1094,-2599 1094,-2605 1088,-2611 1082,-2611 1082,-2611 20,-2611 20,-2611 14,-2611 8,-2605 8,-2599 8,-2599 8,-1512 8,-1512 8,-1506 14,-1500 20,-1500"/>
<text text-anchor="middle" x="551" y="-2591" font-family="SF Pro Text Bold 10" font-size="20.00">fact</text>
</g>
<g id="clust2" class="cluster">
<title>cluster_func_0_bb_0</title>
<path fill="#a4a4a4" stroke="#000000" stroke-width="2" d="M1021,-2466C1021,-2466 1074,-2466 1074,-2466 1080,-2466 1086,-2472 1086,-2478 1086,-2478 1086,-2556 1086,-2556 1086,-2562 1080,-2568 1074,-2568 1074,-2568 1021,-2568 1021,-2568 1015,-2568 1009,-2562 1009,-2556 1009,-2556 1009,-2478 1009,-2478 1009,-2472 1015,-2466 1021,-2466"/>
<text text-anchor="middle" x="1047.5" y="-2552" font-family="SF Pro Text Bold 10" font-size="15.00">label %1</text>
</g>
<g id="clust3" class="cluster">
<title>cluster_func_0_bb_1</title>
<path fill="#a4a4a4" stroke="#000000" stroke-width="2" d="M181,-1821C181,-1821 627,-1821 627,-1821 633,-1821 639,-1827 639,-1833 639,-1833 639,-2390 639,-2390 639,-2396 633,-2402 627,-2402 627,-2402 181,-2402 181,-2402 175,-2402 169,-2396 169,-2390 169,-2390 169,-1833 169,-1833 169,-1827 175,-1821 181,-1821"/>
<text text-anchor="middle" x="404" y="-2386" font-family="SF Pro Text Bold 10" font-size="15.00">label %2</text>
</g>
<g id="clust4" class="cluster">
<title>cluster_func_0_bb_2</title>
<path fill="#a4a4a4" stroke="#000000" stroke-width="2" d="M659,-1987C659,-1987 923,-1987 923,-1987 929,-1987 935,-1993 935,-1999 935,-1999 935,-2556 935,-2556 935,-2562 929,-2568 923,-2568 923,-2568 659,-2568 659,-2568 653,-2568 647,-2562 647,-2556 647,-2556 647,-1999 647,-1999 647,-1993 653,-1987 659,-1987"/>
<text text-anchor="middle" x="791" y="-2552" font-family="SF Pro Text Bold 10" font-size="15.00">label %6</text>
</g>
<g id="clust5" class="cluster">
<title>cluster_func_0_bb_3</title>
<path fill="#a4a4a4" stroke="#000000" stroke-width="2" d="M28,-1508C28,-1508 149,-1508 149,-1508 155,-1508 161,-1514 161,-1520 161,-1520 161,-1911 161,-1911 161,-1917 155,-1923 149,-1923 149,-1923 28,-1923 28,-1923 22,-1923 16,-1917 16,-1911 16,-1911 16,-1520 16,-1520 16,-1514 22,-1508 28,-1508"/>
<text text-anchor="middle" x="88.5" y="-1907" font-family="SF Pro Text Bold 10" font-size="15.00">label %9</text>
</g>
<g id="clust6" class="cluster">
<title>cluster_func_1</title>
<path fill="#e3e3e3" stroke="#000000" stroke-width="2" d="M1114,-8C1114,-8 2409,-8 2409,-8 2415,-8 2421,-14 2421,-20 2421,-20 2421,-2599 2421,-2599 2421,-2605 2415,-2611 2409,-2611 2409,-2611 1114,-2611 1114,-2611 1108,-2611 1102,-2605 1102,-2599 1102,-2599 1102,-20 1102,-20 1102,-14 1108,-8 1114,-8"/>
<text text-anchor="middle" x="1761.5" y="-2591" font-family="SF Pro Text Bold 10" font-size="20.00">main</text>
</g>
<g id="clust7" class="cluster">
<title>cluster_func_1_bb_4</title>
<path fill="#a4a4a4" stroke="#000000" stroke-width="2" d="M2056,-2134C2056,-2134 2235,-2134 2235,-2134 2241,-2134 2247,-2140 2247,-2146 2247,-2146 2247,-2556 2247,-2556 2247,-2562 2241,-2568 2235,-2568 2235,-2568 2056,-2568 2056,-2568 2050,-2568 2044,-2562 2044,-2556 2044,-2556 2044,-2146 2044,-2146 2044,-2140 2050,-2134 2056,-2134"/>
<text text-anchor="middle" x="2145.5" y="-2552" font-family="SF Pro Text Bold 10" font-size="15.00">label %2</text>
</g>
<g id="clust8" class="cluster">
<title>cluster_func_1_bb_5</title>
<path fill="#a4a4a4" stroke="#000000" stroke-width="2" d="M2052,-329C2052,-329 2401,-329 2401,-329 2407,-329 2413,-335 2413,-341 2413,-341 2413,-697 2413,-697 2413,-703 2407,-709 2401,-709 2401,-709 2052,-709 2052,-709 2046,-709 2040,-703 2040,-697 2040,-697 2040,-341 2040,-341 2040,-335 2046,-329 2052,-329"/>
<text text-anchor="middle" x="2226.5" y="-693" font-family="SF Pro Text Bold 10" font-size="15.00">label %4</text>
</g>
<g id="clust9" class="cluster">
<title>cluster_func_1_bb_6</title>
<path fill="#a4a4a4" stroke="#000000" stroke-width="2" d="M1700,-1508C1700,-1508 2020,-1508 2020,-1508 2026,-1508 2032,-1514 2032,-1520 2032,-1520 2032,-2224 2032,-2224 2032,-2230 2026,-2236 2020,-2236 2020,-2236 1700,-2236 1700,-2236 1694,-2236 1688,-2230 1688,-2224 1688,-2224 1688,-1520 1688,-1520 1688,-1514 1694,-1508 1700,-1508"/>
<text text-anchor="middle" x="1860" y="-2220" font-family="SF Pro Text Bold 10" font-size="15.00">label %6</text>
</g>
<g id="clust10" class="cluster">
<title>cluster_func_1_bb_7</title>
<path fill="#a4a4a4" stroke="#000000" stroke-width="2" d="M1122,-329C1122,-329 1668,-329 1668,-329 1674,-329 1680,-335 1680,-341 1680,-341 1680,-1598 1680,-1598 1680,-1604 1674,-1610 1668,-1610 1668,-1610 1122,-1610 1122,-1610 1116,-1610 1110,-1604 1110,-1598 1110,-1598 1110,-341 1110,-341 1110,-335 1116,-329 1122,-329"/>
<text text-anchor="middle" x="1395" y="-1594" font-family="SF Pro Text Bold 10" font-size="15.00">label %10</text>
</g>
<g id="clust11" class="cluster">
<title>cluster_func_1_bb_8</title>
<path fill="#a4a4a4" stroke="#000000" stroke-width="2" d="M1700,-329C1700,-329 2020,-329 2020,-329 2026,-329 2032,-335 2032,-341 2032,-341 2032,-697 2032,-697 2032,-703 2026,-709 2020,-709 2020,-709 1700,-709 1700,-709 1694,-709 1688,-703 1688,-697 1688,-697 1688,-341 1688,-341 1688,-335 1694,-329 1700,-329"/>
<text text-anchor="middle" x="1860" y="-693" font-family="SF Pro Text Bold 10" font-size="15.00">label %18</text>
</g>
<g id="clust12" class="cluster">
<title>cluster_func_1_bb_9</title>
<path fill="#a4a4a4" stroke="#000000" stroke-width="2" d="M1741,-16C1741,-16 1862,-16 1862,-16 1868,-16 1874,-22 1874,-28 1874,-28 1874,-253 1874,-253 1874,-259 1868,-265 1862,-265 1862,-265 1741,-265 1741,-265 1735,-265 1729,-259 1729,-253 1729,-253 1729,-28 1729,-28 1729,-22 1735,-16 1741,-16"/>
<text text-anchor="middle" x="1801.5" y="-249" font-family="SF Pro Text Bold 10" font-size="15.00">label %20</text>
</g>
<!-- node_0 -->
<g id="node1" class="node">
<title>node_0</title>
<path fill="#6d95df" stroke="#000000" d="M1066,-2510C1066,-2510 1036,-2510 1036,-2510 1030,-2510 1024,-2504 1024,-2498 1024,-2498 1024,-2486 1024,-2486 1024,-2480 1030,-2474 1036,-2474 1036,-2474 1066,-2474 1066,-2474 1072,-2474 1078,-2480 1078,-2486 1078,-2486 1078,-2498 1078,-2498 1078,-2504 1072,-2510 1066,-2510"/>
<text text-anchor="middle" x="1051" y="-2488.5" font-family="SF Pro Text Bold 10" font-size="15.00" fill="#000000">br</text>
</g>
<!-- node_1 -->
<g id="node2" class="node">
<title>node_1</title>
<path fill="#6d95df" stroke="#000000" d="M619,-2344C619,-2344 589,-2344 589,-2344 583,-2344 577,-2338 577,-2332 577,-2332 577,-2320 577,-2320 577,-2314 583,-2308 589,-2308 589,-2308 619,-2308 619,-2308 625,-2308 631,-2314 631,-2320 631,-2320 631,-2332 631,-2332 631,-2338 625,-2344 619,-2344"/>
<text text-anchor="middle" x="604" y="-2322.5" font-family="SF Pro Text Bold 10" font-size="15.00" fill="#000000">phi</text>
</g>
<!-- node_0&#45;&gt;node_1 -->
<g id="edge21" class="edge">
<title>node_0&#45;&gt;node_1</title>
<path fill="none" stroke="#ff8800" stroke-width="5" d="M1055.92,-2473.67C1060.01,-2455.09 1062.78,-2426.09 1046,-2410 1029.51,-2394.2 653.86,-2414.88 635,-2402 619.2,-2391.21 611.44,-2370.76 607.63,-2353.94"/>
<polygon fill="#ff8800" stroke="#ff8800" stroke-width="5" points="611.92,-2353.05 605.74,-2344.05 603.32,-2354.69 611.92,-2353.05"/>
</g>
<!-- node_0&#45;&gt;node_1 -->
<g id="edge34" class="edge">
<title>node_0&#45;&gt;node_1</title>
<path fill="none" stroke="#00b3ff" stroke-width="2" d="M1023.92,-2483.88C1003.84,-2478.68 975.79,-2471.61 951,-2466 811.23,-2434.39 745.58,-2493.14 635,-2402 620.55,-2390.09 612.75,-2370.34 608.59,-2354.09"/>
<polygon fill="#00b3ff" stroke="#00b3ff" stroke-width="2" points="611.94,-2353.04 606.35,-2344.04 605.11,-2354.56 611.94,-2353.04"/>
<text text-anchor="middle" x="684.5" y="-2415" font-family="SF Pro Text Bold 10" font-size="15.00">i64 1</text>
</g>
<!-- node_2 -->
<g id="node3" class="node">
<title>node_2</title>
<path fill="#6d95df" stroke="#000000" d="M526,-2178C526,-2178 496,-2178 496,-2178 490,-2178 484,-2172 484,-2166 484,-2166 484,-2154 484,-2154 484,-2148 490,-2142 496,-2142 496,-2142 526,-2142 526,-2142 532,-2142 538,-2148 538,-2154 538,-2154 538,-2166 538,-2166 538,-2172 532,-2178 526,-2178"/>
<text text-anchor="middle" x="511" y="-2156.5" font-family="SF Pro Text Bold 10" font-size="15.00" fill="#000000">phi</text>
</g>
<!-- node_0&#45;&gt;node_2 -->
<g id="edge39" class="edge">
<title>node_0&#45;&gt;node_2</title>
<path fill="none" stroke="#00b3ff" stroke-width="2" d="M1023.61,-2483.18C1003.63,-2477.72 975.81,-2470.6 951,-2466 849.74,-2447.23 559.78,-2479.54 492,-2402 439.03,-2341.39 476.09,-2236.33 498.01,-2187.44"/>
<polygon fill="#00b3ff" stroke="#00b3ff" stroke-width="2" points="501.28,-2188.72 502.3,-2178.17 494.93,-2185.78 501.28,-2188.72"/>
<text text-anchor="middle" x="518.5" y="-2322.5" font-family="SF Pro Text Bold 10" font-size="15.00">i64 %0</text>
</g>
<!-- node_1&#45;&gt;node_2 -->
<g id="edge1" class="edge">
<title>node_1&#45;&gt;node_2</title>
<path fill="none" stroke="#ff3636" stroke-width="3" d="M576.91,-2315.38C553.93,-2305.6 522.46,-2288.02 508,-2261 496.01,-2238.6 498.7,-2209.15 503.21,-2188.01"/>
<polygon fill="#ff3636" stroke="#ff3636" stroke-width="3" points="506.66,-2188.63 505.59,-2178.09 499.86,-2187 506.66,-2188.63"/>
</g>
<!-- node_6 -->
<g id="node8" class="node">
<title>node_6</title>
<path fill="#6d95df" stroke="#000000" d="M895,-2178C895,-2178 865,-2178 865,-2178 859,-2178 853,-2172 853,-2166 853,-2166 853,-2154 853,-2154 853,-2148 859,-2142 865,-2142 865,-2142 895,-2142 895,-2142 901,-2142 907,-2148 907,-2154 907,-2154 907,-2166 907,-2166 907,-2172 901,-2178 895,-2178"/>
<text text-anchor="middle" x="880" y="-2156.5" font-family="SF Pro Text Bold 10" font-size="15.00" fill="#000000">mul</text>
</g>
<!-- node_1&#45;&gt;node_6 -->
<g id="edge33" class="edge">
<title>node_1&#45;&gt;node_6</title>
<path fill="none" stroke="#00b3ff" stroke-width="2" d="M631.31,-2309.83C632.55,-2309.2 633.79,-2308.59 635,-2308 708.44,-2272.33 736.19,-2281.47 804,-2236 824.85,-2222.02 844.9,-2201.85 859.17,-2185.94"/>
<polygon fill="#00b3ff" stroke="#00b3ff" stroke-width="2" points="862.11,-2187.9 866.08,-2178.07 856.85,-2183.28 862.11,-2187.9"/>
<text text-anchor="middle" x="799.5" y="-2249" font-family="SF Pro Text Bold 10" font-size="15.00">%3</text>
</g>
<!-- node_8 -->
<g id="node11" class="node">
<title>node_8</title>
<path fill="#6d95df" stroke="#000000" d="M141,-1718C141,-1718 111,-1718 111,-1718 105,-1718 99,-1712 99,-1706 99,-1706 99,-1694 99,-1694 99,-1688 105,-1682 111,-1682 111,-1682 141,-1682 141,-1682 147,-1682 153,-1688 153,-1694 153,-1694 153,-1706 153,-1706 153,-1712 147,-1718 141,-1718"/>
<text text-anchor="middle" x="126" y="-1696.5" font-family="SF Pro Text Bold 10" font-size="15.00" fill="#000000">mul</text>
</g>
<!-- node_1&#45;&gt;node_8 -->
<g id="edge32" class="edge">
<title>node_1&#45;&gt;node_8</title>
<path fill="none" stroke="#00b3ff" stroke-width="2" d="M631.14,-2309.43C632.43,-2308.91 633.72,-2308.43 635,-2308 769.57,-2262.71 833.83,-2341.2 951,-2261 993.22,-2232.11 1008,-2212.16 1008,-2161 1008,-2161 1008,-2161 1008,-1846 1008,-1759.02 331.56,-1713.18 163.47,-1703.13"/>
<polygon fill="#00b3ff" stroke="#00b3ff" stroke-width="2" points="163.55,-1699.63 153.36,-1702.53 163.14,-1706.62 163.55,-1699.63"/>
<text text-anchor="middle" x="1019.5" y="-2009.5" font-family="SF Pro Text Bold 10" font-size="15.00">%3</text>
</g>
<!-- node_3 -->
<g id="node4" class="node">
<title>node_3</title>
<path fill="#6d95df" stroke="#000000" d="M219,-2031C219,-2031 189,-2031 189,-2031 183,-2031 177,-2025 177,-2019 177,-2019 177,-2007 177,-2007 177,-2001 183,-1995 189,-1995 189,-1995 219,-1995 219,-1995 225,-1995 231,-2001 231,-2007 231,-2007 231,-2019 231,-2019 231,-2025 225,-2031 219,-2031"/>
<text text-anchor="middle" x="204" y="-2009.5" font-family="SF Pro Text Bold 10" font-size="15.00" fill="#000000">icmp</text>
</g>
<!-- node_2&#45;&gt;node_3 -->
<g id="edge2" class="edge">
<title>node_2&#45;&gt;node_3</title>
<path fill="none" stroke="#ff3636" stroke-width="3" d="M483.76,-2146.13C428.34,-2119.96 302.49,-2060.52 240.25,-2031.12"/>
<polygon fill="#ff3636" stroke="#ff3636" stroke-width="3" points="241.72,-2027.94 231.18,-2026.84 238.73,-2034.27 241.72,-2027.94"/>
</g>
<!-- node_2&#45;&gt;node_3 -->
<g id="edge36" class="edge">
<title>node_2&#45;&gt;node_3</title>
<path fill="none" stroke="#00b3ff" stroke-width="2" d="M483.8,-2146.81C473.62,-2142.47 461.88,-2137.75 451,-2134 389.11,-2112.7 367.57,-2124.21 309,-2095 278.99,-2080.03 249.13,-2055.88 228.98,-2037.83"/>
<polygon fill="#00b3ff" stroke="#00b3ff" stroke-width="2" points="231.23,-2035.15 221.48,-2031 226.52,-2040.32 231.23,-2035.15"/>
<text text-anchor="middle" x="321" y="-2083" font-family="SF Pro Text Bold 10" font-size="15.00">%4</text>
</g>
<!-- node_5 -->
<g id="node7" class="node">
<title>node_5</title>
<path fill="#6d95df" stroke="#000000" d="M738,-2344C738,-2344 708,-2344 708,-2344 702,-2344 696,-2338 696,-2332 696,-2332 696,-2320 696,-2320 696,-2314 702,-2308 708,-2308 708,-2308 738,-2308 738,-2308 744,-2308 750,-2314 750,-2320 750,-2320 750,-2332 750,-2332 750,-2338 744,-2344 738,-2344"/>
<text text-anchor="middle" x="723" y="-2322.5" font-family="SF Pro Text Bold 10" font-size="15.00" fill="#000000">add</text>
</g>
<!-- node_2&#45;&gt;node_5 -->
<g id="edge38" class="edge">
<title>node_2&#45;&gt;node_5</title>
<path fill="none" stroke="#00b3ff" stroke-width="2" d="M518.46,-2178.03C528.78,-2199.86 549.32,-2237.68 577,-2261 609.18,-2288.12 654.63,-2305.6 686.25,-2315.33"/>
<polygon fill="#00b3ff" stroke="#00b3ff" stroke-width="2" points="685.41,-2318.73 695.99,-2318.21 687.39,-2312.02 685.41,-2318.73"/>
<text text-anchor="middle" x="589" y="-2249" font-family="SF Pro Text Bold 10" font-size="15.00">%4</text>
</g>
<!-- node_2&#45;&gt;node_6 -->
<g id="edge37" class="edge">
<title>node_2&#45;&gt;node_6</title>
<path fill="none" stroke="#00b3ff" stroke-width="2" d="M531.78,-2178.18C554.41,-2196.7 592.54,-2224.32 631,-2236 704.57,-2258.34 733.4,-2266.45 804,-2236 828,-2225.65 848.49,-2203.87 862.13,-2186.27"/>
<polygon fill="#00b3ff" stroke="#00b3ff" stroke-width="2" points="865.09,-2188.15 868.25,-2178.03 859.48,-2183.97 865.09,-2188.15"/>
<text text-anchor="middle" x="723" y="-2249" font-family="SF Pro Text Bold 10" font-size="15.00">%4</text>
</g>
<!-- node_4 -->
<g id="node5" class="node">
<title>node_4</title>
<path fill="#6d95df" stroke="#000000" d="M219,-1865C219,-1865 189,-1865 189,-1865 183,-1865 177,-1859 177,-1853 177,-1853 177,-1841 177,-1841 177,-1835 183,-1829 189,-1829 189,-1829 219,-1829 219,-1829 225,-1829 231,-1835 231,-1841 231,-1841 231,-1853 231,-1853 231,-1859 225,-1865 219,-1865"/>
<text text-anchor="middle" x="204" y="-1843.5" font-family="SF Pro Text Bold 10" font-size="15.00" fill="#000000">br</text>
</g>
<!-- node_3&#45;&gt;node_4 -->
<g id="edge3" class="edge">
<title>node_3&#45;&gt;node_4</title>
<path fill="none" stroke="#ff3636" stroke-width="3" d="M203.32,-1994.89C202.84,-1982 202.25,-1963.89 202,-1948 201.62,-1923.42 202.27,-1895.45 202.93,-1875.35"/>
<polygon fill="#ff3636" stroke="#ff3636" stroke-width="3" points="206.43,-1875.46 203.28,-1865.34 199.43,-1875.21 206.43,-1875.46"/>
</g>
<!-- node_3&#45;&gt;node_4 -->
<g id="edge41" class="edge">
<title>node_3&#45;&gt;node_4</title>
<path fill="none" stroke="#00b3ff" stroke-width="2" d="M204,-1994.76C204,-1966.26 204,-1909.12 204,-1875.16"/>
<polygon fill="#00b3ff" stroke="#00b3ff" stroke-width="2" points="207.5,-1875.01 204,-1865.01 200.5,-1875.01 207.5,-1875.01"/>
<text text-anchor="middle" x="215.5" y="-1936" font-family="SF Pro Text Bold 10" font-size="15.00">%5</text>
</g>
<!-- node_4&#45;&gt;node_5 -->
<g id="edge23" class="edge">
<title>node_4&#45;&gt;node_5</title>
<path fill="none" stroke="#ff8800" stroke-width="5" d="M212.71,-1865.27C220.96,-1881.91 233.47,-1907.89 243,-1931 253.08,-1955.43 254.54,-1961.96 263,-1987 276.58,-2027.22 280.59,-2037.12 292,-2078 311.42,-2147.56 278.47,-2185.39 330,-2236 435.55,-2339.67 511,-2274.06 655,-2308 665.13,-2310.39 676.07,-2313.08 686.16,-2315.6"/>
<polygon fill="#ff8800" stroke="#ff8800" stroke-width="5" points="685.14,-2319.85 695.91,-2318.05 687.28,-2311.37 685.14,-2319.85"/>
</g>
<!-- node_4&#45;&gt;node_8 -->
<g id="edge24" class="edge">
<title>node_4&#45;&gt;node_8</title>
<path fill="none" stroke="#ff8800" stroke-width="5" d="M194.75,-1828.8C181.2,-1803.62 155.87,-1756.52 140.03,-1727.07"/>
<polygon fill="#ff8800" stroke="#ff8800" stroke-width="5" points="143.83,-1724.91 135.24,-1718.18 136.13,-1729.06 143.83,-1724.91"/>
</g>
<!-- node_30 -->
<g id="node6" class="node">
<title>node_30</title>
<path fill="#d66868" stroke="#000000" d="M407,-2178C407,-2178 375,-2178 375,-2178 369,-2178 363,-2172 363,-2166 363,-2166 363,-2154 363,-2154 363,-2148 369,-2142 375,-2142 375,-2142 407,-2142 407,-2142 413,-2142 419,-2148 419,-2154 419,-2154 419,-2166 419,-2166 419,-2172 413,-2178 407,-2178"/>
<text text-anchor="middle" x="391" y="-2156.5" font-family="SF Pro Text Bold 10" font-size="15.00" fill="#000000">i64 2</text>
</g>
<!-- node_30&#45;&gt;node_3 -->
<g id="edge42" class="edge">
<title>node_30&#45;&gt;node_3</title>
<path fill="none" stroke="#00b3ff" stroke-width="2" d="M362.97,-2159.38C318.57,-2158.28 233.11,-2148.82 194,-2095 182.72,-2079.48 186.17,-2057.71 191.93,-2040.65"/>
<polygon fill="#00b3ff" stroke="#00b3ff" stroke-width="2" points="195.23,-2041.82 195.49,-2031.23 188.68,-2039.35 195.23,-2041.82"/>
</g>
<!-- node_5&#45;&gt;node_2 -->
<g id="edge43" class="edge">
<title>node_5&#45;&gt;node_2</title>
<path fill="none" stroke="#00b3ff" stroke-width="2" d="M750.11,-2316.79C790.48,-2303.29 858.6,-2274.82 829,-2244 813.75,-2228.12 652.04,-2242.5 631,-2236 596.5,-2225.35 562.07,-2202.21 538.99,-2184.43"/>
<polygon fill="#00b3ff" stroke="#00b3ff" stroke-width="2" points="541.05,-2181.6 531.03,-2178.16 536.72,-2187.1 541.05,-2181.6"/>
<text text-anchor="middle" x="847" y="-2249" font-family="SF Pro Text Bold 10" font-size="15.00">%7</text>
</g>
<!-- node_5&#45;&gt;node_6 -->
<g id="edge4" class="edge">
<title>node_5&#45;&gt;node_6</title>
<path fill="none" stroke="#ff3636" stroke-width="3" d="M750.09,-2325.46C794.39,-2324.55 881.36,-2315.48 921,-2261 937.74,-2238 920.27,-2207.16 903.24,-2185.84"/>
<polygon fill="#ff3636" stroke="#ff3636" stroke-width="3" points="905.91,-2183.58 896.8,-2178.17 900.55,-2188.08 905.91,-2183.58"/>
</g>
<!-- node_6&#45;&gt;node_1 -->
<g id="edge45" class="edge">
<title>node_6&#45;&gt;node_1</title>
<path fill="none" stroke="#00b3ff" stroke-width="2" d="M868.37,-2178.3C855.15,-2196.32 831.77,-2223.62 804,-2236 776.96,-2248.06 697.4,-2230.59 671,-2244 647.51,-2255.93 629.2,-2280.17 617.71,-2299.03"/>
<polygon fill="#00b3ff" stroke="#00b3ff" stroke-width="2" points="614.62,-2297.38 612.62,-2307.79 620.67,-2300.9 614.62,-2297.38"/>
<text text-anchor="middle" x="683" y="-2249" font-family="SF Pro Text Bold 10" font-size="15.00">%8</text>
</g>
<!-- node_7 -->
<g id="node9" class="node">
<title>node_7</title>
<path fill="#6d95df" stroke="#000000" d="M697,-2031C697,-2031 667,-2031 667,-2031 661,-2031 655,-2025 655,-2019 655,-2019 655,-2007 655,-2007 655,-2001 661,-1995 667,-1995 667,-1995 697,-1995 697,-1995 703,-1995 709,-2001 709,-2007 709,-2007 709,-2019 709,-2019 709,-2025 703,-2031 697,-2031"/>
<text text-anchor="middle" x="682" y="-2009.5" font-family="SF Pro Text Bold 10" font-size="15.00" fill="#000000">br</text>
</g>
<!-- node_6&#45;&gt;node_7 -->
<g id="edge5" class="edge">
<title>node_6&#45;&gt;node_7</title>
<path fill="none" stroke="#ff3636" stroke-width="3" d="M856.51,-2141.8C821.01,-2115.8 753.61,-2066.44 713.76,-2037.26"/>
<polygon fill="#ff3636" stroke="#ff3636" stroke-width="3" points="715.6,-2034.27 705.46,-2031.18 711.46,-2039.91 715.6,-2034.27"/>
</g>
<!-- node_7&#45;&gt;node_1 -->
<g id="edge22" class="edge">
<title>node_7&#45;&gt;node_1</title>
<path fill="none" stroke="#ff8800" stroke-width="5" d="M674.91,-2031.23C659.74,-2068.99 624.26,-2162.25 609,-2244 605.7,-2261.67 604.45,-2281.84 604.02,-2297.63"/>
<polygon fill="#ff8800" stroke="#ff8800" stroke-width="5" points="599.65,-2297.71 603.84,-2307.78 608.39,-2297.86 599.65,-2297.71"/>
</g>
<!-- node_7&#45;&gt;node_1 -->
<g id="edge35" class="edge">
<title>node_7&#45;&gt;node_1</title>
<path fill="none" stroke="#00b3ff" stroke-width="2" d="M679.75,-2031.11C677.52,-2047.54 673.89,-2073.02 670,-2095 658.86,-2158 672.98,-2180.59 641,-2236 638.32,-2240.64 634.97,-2239.55 632,-2244 621.16,-2260.24 614.07,-2281.12 609.74,-2297.61"/>
<polygon fill="#00b3ff" stroke="#00b3ff" stroke-width="2" points="606.25,-2297.18 607.28,-2307.72 613.05,-2298.84 606.25,-2297.18"/>
<text text-anchor="middle" x="691.5" y="-2156.5" font-family="SF Pro Text Bold 10" font-size="15.00">i64 %8</text>
</g>
<!-- node_7&#45;&gt;node_2 -->
<g id="edge40" class="edge">
<title>node_7&#45;&gt;node_2</title>
<path fill="none" stroke="#00b3ff" stroke-width="2" d="M654.71,-2029.19C653.46,-2029.82 652.22,-2030.42 651,-2031 600.75,-2054.86 572.38,-2036.81 535,-2078 521.7,-2092.66 515.75,-2114.38 513.1,-2131.64"/>
<polygon fill="#00b3ff" stroke="#00b3ff" stroke-width="2" points="509.61,-2131.35 511.84,-2141.71 516.55,-2132.22 509.61,-2131.35"/>
<text text-anchor="middle" x="561" y="-2083" font-family="SF Pro Text Bold 10" font-size="15.00">i64 %7</text>
</g>
<!-- node_31 -->
<g id="node10" class="node">
<title>node_31</title>
<path fill="#d66868" stroke="#000000" d="M741.5,-2510C741.5,-2510 704.5,-2510 704.5,-2510 698.5,-2510 692.5,-2504 692.5,-2498 692.5,-2498 692.5,-2486 692.5,-2486 692.5,-2480 698.5,-2474 704.5,-2474 704.5,-2474 741.5,-2474 741.5,-2474 747.5,-2474 753.5,-2480 753.5,-2486 753.5,-2486 753.5,-2498 753.5,-2498 753.5,-2504 747.5,-2510 741.5,-2510"/>
<text text-anchor="middle" x="723" y="-2488.5" font-family="SF Pro Text Bold 10" font-size="15.00" fill="#000000">i64 &#45;1</text>
</g>
<!-- node_31&#45;&gt;node_5 -->
<g id="edge44" class="edge">
<title>node_31&#45;&gt;node_5</title>
<path fill="none" stroke="#00b3ff" stroke-width="2" d="M723,-2473.76C723,-2445.26 723,-2388.12 723,-2354.16"/>
<polygon fill="#00b3ff" stroke="#00b3ff" stroke-width="2" points="726.5,-2354.01 723,-2344.01 719.5,-2354.01 726.5,-2354.01"/>
</g>
<!-- node_9 -->
<g id="node12" class="node">
<title>node_9</title>
<path fill="#6d95df" stroke="#000000" d="M66,-1552C66,-1552 36,-1552 36,-1552 30,-1552 24,-1546 24,-1540 24,-1540 24,-1528 24,-1528 24,-1522 30,-1516 36,-1516 36,-1516 66,-1516 66,-1516 72,-1516 78,-1522 78,-1528 78,-1528 78,-1540 78,-1540 78,-1546 72,-1552 66,-1552"/>
<text text-anchor="middle" x="51" y="-1530.5" font-family="SF Pro Text Bold 10" font-size="15.00" fill="#000000">ret</text>
</g>
<!-- node_8&#45;&gt;node_9 -->
<g id="edge6" class="edge">
<title>node_8&#45;&gt;node_9</title>
<path fill="none" stroke="#ff3636" stroke-width="3" d="M98.8,-1682.08C83.3,-1670.82 65.19,-1654.52 56,-1635 45.28,-1612.23 45.09,-1583.24 46.94,-1562.34"/>
<polygon fill="#ff3636" stroke="#ff3636" stroke-width="3" points="50.44,-1562.54 48.05,-1552.22 43.48,-1561.78 50.44,-1562.54"/>
</g>
<!-- node_8&#45;&gt;node_9 -->
<g id="edge46" class="edge">
<title>node_8&#45;&gt;node_9</title>
<path fill="none" stroke="#00b3ff" stroke-width="2" d="M118.12,-1681.76C104.97,-1653.02 78.5,-1595.13 63.02,-1561.28"/>
<polygon fill="#00b3ff" stroke="#00b3ff" stroke-width="2" points="66.12,-1559.65 58.78,-1552.01 59.75,-1562.56 66.12,-1559.65"/>
<text text-anchor="middle" x="111.5" y="-1623" font-family="SF Pro Text Bold 10" font-size="15.00">%10</text>
</g>
<!-- node_32 -->
<g id="node13" class="node">
<title>node_32</title>
<path fill="#d66868" stroke="#000000" d="M100,-1865C100,-1865 70,-1865 70,-1865 64,-1865 58,-1859 58,-1853 58,-1853 58,-1841 58,-1841 58,-1835 64,-1829 70,-1829 70,-1829 100,-1829 100,-1829 106,-1829 112,-1835 112,-1841 112,-1841 112,-1853 112,-1853 112,-1859 106,-1865 100,-1865"/>
<text text-anchor="middle" x="85" y="-1843.5" font-family="SF Pro Text Bold 10" font-size="15.00" fill="#000000">i64 1</text>
</g>
<!-- node_32&#45;&gt;node_8 -->
<g id="edge47" class="edge">
<title>node_32&#45;&gt;node_8</title>
<path fill="none" stroke="#00b3ff" stroke-width="2" d="M89.86,-1828.8C96.92,-1803.83 110.07,-1757.34 118.41,-1727.84"/>
<polygon fill="#00b3ff" stroke="#00b3ff" stroke-width="2" points="121.79,-1728.76 121.14,-1718.18 115.05,-1726.85 121.79,-1728.76"/>
</g>
<!-- node_10 -->
<g id="node14" class="node">
<title>node_10</title>
<path fill="#6d95df" stroke="#000000" d="M2105,-2344C2105,-2344 2075,-2344 2075,-2344 2069,-2344 2063,-2338 2063,-2332 2063,-2332 2063,-2320 2063,-2320 2063,-2314 2069,-2308 2075,-2308 2075,-2308 2105,-2308 2105,-2308 2111,-2308 2117,-2314 2117,-2320 2117,-2320 2117,-2332 2117,-2332 2117,-2338 2111,-2344 2105,-2344"/>
<text text-anchor="middle" x="2090" y="-2322.5" font-family="SF Pro Text Bold 10" font-size="15.00" fill="#000000">icmp</text>
</g>
<!-- node_11 -->
<g id="node15" class="node">
<title>node_11</title>
<path fill="#6d95df" stroke="#000000" d="M2105,-2178C2105,-2178 2075,-2178 2075,-2178 2069,-2178 2063,-2172 2063,-2166 2063,-2166 2063,-2154 2063,-2154 2063,-2148 2069,-2142 2075,-2142 2075,-2142 2105,-2142 2105,-2142 2111,-2142 2117,-2148 2117,-2154 2117,-2154 2117,-2166 2117,-2166 2117,-2172 2111,-2178 2105,-2178"/>
<text text-anchor="middle" x="2090" y="-2156.5" font-family="SF Pro Text Bold 10" font-size="15.00" fill="#000000">br</text>
</g>
<!-- node_10&#45;&gt;node_11 -->
<g id="edge7" class="edge">
<title>node_10&#45;&gt;node_11</title>
<path fill="none" stroke="#ff3636" stroke-width="3" d="M2090,-2307.76C2090,-2279.26 2090,-2222.12 2090,-2188.16"/>
<polygon fill="#ff3636" stroke="#ff3636" stroke-width="3" points="2093.5,-2188.01 2090,-2178.01 2086.5,-2188.01 2093.5,-2188.01"/>
</g>
<!-- node_10&#45;&gt;node_11 -->
<g id="edge48" class="edge">
<title>node_10&#45;&gt;node_11</title>
<path fill="none" stroke="#00b3ff" stroke-width="2" d="M2090.68,-2307.89C2091.16,-2295 2091.75,-2276.89 2092,-2261 2092.38,-2236.42 2091.73,-2208.45 2091.07,-2188.35"/>
<polygon fill="#00b3ff" stroke="#00b3ff" stroke-width="2" points="2094.57,-2188.21 2090.72,-2178.34 2087.57,-2188.46 2094.57,-2188.21"/>
<text text-anchor="middle" x="2103.5" y="-2249" font-family="SF Pro Text Bold 10" font-size="15.00">%3</text>
</g>
<!-- node_12 -->
<g id="node18" class="node">
<title>node_12</title>
<path fill="#6d95df" stroke="#000000" d="M2105,-504C2105,-504 2075,-504 2075,-504 2069,-504 2063,-498 2063,-492 2063,-492 2063,-480 2063,-480 2063,-474 2069,-468 2075,-468 2075,-468 2105,-468 2105,-468 2111,-468 2117,-474 2117,-480 2117,-480 2117,-492 2117,-492 2117,-498 2111,-504 2105,-504"/>
<text text-anchor="middle" x="2090" y="-482.5" font-family="SF Pro Text Bold 10" font-size="15.00" fill="#000000">call</text>
</g>
<!-- node_11&#45;&gt;node_12 -->
<g id="edge25" class="edge">
<title>node_11&#45;&gt;node_12</title>
<path fill="none" stroke="#ff8800" stroke-width="5" d="M2090,-2141.59C2090,-2114.37 2090,-2060.07 2090,-2014 2090,-2014 2090,-2014 2090,-632 2090,-591.15 2090,-543.83 2090,-514.65"/>
<polygon fill="#ff8800" stroke="#ff8800" stroke-width="5" points="2094.38,-514.41 2090,-504.41 2085.63,-514.41 2094.38,-514.41"/>
</g>
<!-- node_14 -->
<g id="node22" class="node">
<title>node_14</title>
<path fill="#6d95df" stroke="#000000" d="M2012,-2031C2012,-2031 1982,-2031 1982,-2031 1976,-2031 1970,-2025 1970,-2019 1970,-2019 1970,-2007 1970,-2007 1970,-2001 1976,-1995 1982,-1995 1982,-1995 2012,-1995 2012,-1995 2018,-1995 2024,-2001 2024,-2007 2024,-2007 2024,-2019 2024,-2019 2024,-2025 2018,-2031 2012,-2031"/>
<text text-anchor="middle" x="1997" y="-2009.5" font-family="SF Pro Text Bold 10" font-size="15.00" fill="#000000">call</text>
</g>
<!-- node_11&#45;&gt;node_14 -->
<g id="edge26" class="edge">
<title>node_11&#45;&gt;node_14</title>
<path fill="none" stroke="#ff8800" stroke-width="5" d="M2078.97,-2141.8C2062.75,-2116.51 2032.35,-2069.11 2013.48,-2039.69"/>
<polygon fill="#ff8800" stroke="#ff8800" stroke-width="5" points="2017.1,-2037.24 2008.02,-2031.18 2009.74,-2041.96 2017.1,-2037.24"/>
</g>
<!-- node_33 -->
<g id="node16" class="node">
<title>node_33</title>
<path fill="#d66868" stroke="#000000" d="M2227,-2510C2227,-2510 2183,-2510 2183,-2510 2177,-2510 2171,-2504 2171,-2498 2171,-2498 2171,-2486 2171,-2486 2171,-2480 2177,-2474 2183,-2474 2183,-2474 2227,-2474 2227,-2474 2233,-2474 2239,-2480 2239,-2486 2239,-2486 2239,-2498 2239,-2498 2239,-2504 2233,-2510 2227,-2510"/>
<text text-anchor="middle" x="2205" y="-2488.5" font-family="SF Pro Text Bold 10" font-size="15.00" fill="#000000">i32 %0</text>
</g>
<!-- node_33&#45;&gt;node_10 -->
<g id="edge49" class="edge">
<title>node_33&#45;&gt;node_10</title>
<path fill="none" stroke="#00b3ff" stroke-width="2" d="M2192.91,-2473.76C2172.58,-2444.77 2131.47,-2386.13 2107.82,-2352.41"/>
<polygon fill="#00b3ff" stroke="#00b3ff" stroke-width="2" points="2110.53,-2350.19 2101.93,-2344.01 2104.8,-2354.21 2110.53,-2350.19"/>
<text text-anchor="middle" x="2169" y="-2415" font-family="SF Pro Text Bold 10" font-size="15.00">%0</text>
</g>
<!-- node_34 -->
<g id="node17" class="node">
<title>node_34</title>
<path fill="#d66868" stroke="#000000" d="M2094,-2510C2094,-2510 2064,-2510 2064,-2510 2058,-2510 2052,-2504 2052,-2498 2052,-2498 2052,-2486 2052,-2486 2052,-2480 2058,-2474 2064,-2474 2064,-2474 2094,-2474 2094,-2474 2100,-2474 2106,-2480 2106,-2486 2106,-2486 2106,-2498 2106,-2498 2106,-2504 2100,-2510 2094,-2510"/>
<text text-anchor="middle" x="2079" y="-2488.5" font-family="SF Pro Text Bold 10" font-size="15.00" fill="#000000">i32 2</text>
</g>
<!-- node_34&#45;&gt;node_10 -->
<g id="edge50" class="edge">
<title>node_34&#45;&gt;node_10</title>
<path fill="none" stroke="#00b3ff" stroke-width="2" d="M2080.16,-2473.76C2082.07,-2445.26 2085.9,-2388.12 2088.18,-2354.16"/>
<polygon fill="#00b3ff" stroke="#00b3ff" stroke-width="2" points="2091.68,-2354.22 2088.86,-2344.01 2084.7,-2353.75 2091.68,-2354.22"/>
</g>
<!-- node_13 -->
<g id="node19" class="node">
<title>node_13</title>
<path fill="#6d95df" stroke="#000000" d="M2090,-373C2090,-373 2060,-373 2060,-373 2054,-373 2048,-367 2048,-361 2048,-361 2048,-349 2048,-349 2048,-343 2054,-337 2060,-337 2060,-337 2090,-337 2090,-337 2096,-337 2102,-343 2102,-349 2102,-349 2102,-361 2102,-361 2102,-367 2096,-373 2090,-373"/>
<text text-anchor="middle" x="2075" y="-351.5" font-family="SF Pro Text Bold 10" font-size="15.00" fill="#000000">br</text>
</g>
<!-- node_12&#45;&gt;node_13 -->
<g id="edge8" class="edge">
<title>node_12&#45;&gt;node_13</title>
<path fill="none" stroke="#ff3636" stroke-width="3" d="M2088.01,-467.87C2085.5,-446.28 2081.15,-408.91 2078.18,-383.35"/>
<polygon fill="#ff3636" stroke="#ff3636" stroke-width="3" points="2081.63,-382.73 2077,-373.2 2074.68,-383.54 2081.63,-382.73"/>
</g>
<!-- node_28 -->
<g id="node50" class="node">
<title>node_28</title>
<path fill="#6d95df" stroke="#000000" d="M1779,-207C1779,-207 1749,-207 1749,-207 1743,-207 1737,-201 1737,-195 1737,-195 1737,-183 1737,-183 1737,-177 1743,-171 1749,-171 1749,-171 1779,-171 1779,-171 1785,-171 1791,-177 1791,-183 1791,-183 1791,-195 1791,-195 1791,-201 1785,-207 1779,-207"/>
<text text-anchor="middle" x="1764" y="-185.5" font-family="SF Pro Text Bold 10" font-size="15.00" fill="#000000">phi</text>
</g>
<!-- node_13&#45;&gt;node_28 -->
<g id="edge29" class="edge">
<title>node_13&#45;&gt;node_28</title>
<path fill="none" stroke="#ff8800" stroke-width="5" d="M2055.17,-336.88C2051.56,-334.1 2047.75,-331.36 2044,-329 2009.84,-307.52 1998.24,-307.76 1962,-290 1905.18,-262.14 1839.72,-228.85 1800.13,-208.57"/>
<polygon fill="#ff8800" stroke="#ff8800" stroke-width="5" points="1802.02,-204.62 1791.12,-203.95 1798.03,-212.41 1802.02,-204.62"/>
</g>
<!-- node_13&#45;&gt;node_28 -->
<g id="edge79" class="edge">
<title>node_13&#45;&gt;node_28</title>
<path fill="none" stroke="#00b3ff" stroke-width="2" d="M2054.17,-336.83C2050.8,-334.16 2047.33,-331.47 2044,-329 2008.57,-302.68 2000.77,-294.08 1962,-273 1907.85,-243.55 1841.04,-217.52 1800.52,-202.77"/>
<polygon fill="#00b3ff" stroke="#00b3ff" stroke-width="2" points="1801.65,-199.46 1791.05,-199.36 1799.27,-206.04 1801.65,-199.46"/>
<text text-anchor="middle" x="2008" y="-278" font-family="SF Pro Text Bold 10" font-size="15.00">i32 1</text>
</g>
<!-- node_35 -->
<g id="node20" class="node">
<title>node_35</title>
<path fill="#d66868" stroke="#000000" d="M2393,-651C2393,-651 2325,-651 2325,-651 2319,-651 2313,-645 2313,-639 2313,-639 2313,-627 2313,-627 2313,-621 2319,-615 2325,-615 2325,-615 2393,-615 2393,-615 2399,-615 2405,-621 2405,-627 2405,-627 2405,-639 2405,-639 2405,-645 2399,-651 2393,-651"/>
<text text-anchor="middle" x="2359" y="-629.5" font-family="SF Pro Text Bold 10" font-size="15.00" fill="#000000">ptr @str.2</text>
</g>
<!-- node_35&#45;&gt;node_12 -->
<g id="edge51" class="edge">
<title>node_35&#45;&gt;node_12</title>
<path fill="none" stroke="#00b3ff" stroke-width="2" d="M2327.35,-614.94C2277.04,-587.82 2179.11,-535.03 2126.12,-506.47"/>
<polygon fill="#00b3ff" stroke="#00b3ff" stroke-width="2" points="2127.55,-503.26 2117.09,-501.6 2124.23,-509.43 2127.55,-503.26"/>
</g>
<!-- node_36 -->
<g id="node21" class="node">
<title>node_36</title>
<path fill="#d66868" stroke="#000000" d="M2235.5,-651C2235.5,-651 2168.5,-651 2168.5,-651 2162.5,-651 2156.5,-645 2156.5,-639 2156.5,-639 2156.5,-627 2156.5,-627 2156.5,-621 2162.5,-615 2168.5,-615 2168.5,-615 2235.5,-615 2235.5,-615 2241.5,-615 2247.5,-621 2247.5,-627 2247.5,-627 2247.5,-639 2247.5,-639 2247.5,-645 2241.5,-651 2235.5,-651"/>
<text text-anchor="middle" x="2202" y="-629.5" font-family="SF Pro Text Bold 10" font-size="15.00" fill="#000000">ptr @puts</text>
</g>
<!-- node_36&#45;&gt;node_12 -->
<g id="edge52" class="edge">
<title>node_36&#45;&gt;node_12</title>
<path fill="none" stroke="#00b3ff" stroke-width="2" d="M2188.71,-614.8C2169.09,-589.4 2132.26,-541.71 2109.55,-512.31"/>
<polygon fill="#00b3ff" stroke="#00b3ff" stroke-width="2" points="2112.15,-509.95 2103.27,-504.18 2106.61,-514.23 2112.15,-509.95"/>
</g>
<!-- node_15 -->
<g id="node23" class="node">
<title>node_15</title>
<path fill="#6d95df" stroke="#000000" d="M1935,-1865C1935,-1865 1905,-1865 1905,-1865 1899,-1865 1893,-1859 1893,-1853 1893,-1853 1893,-1841 1893,-1841 1893,-1835 1899,-1829 1905,-1829 1905,-1829 1935,-1829 1935,-1829 1941,-1829 1947,-1835 1947,-1841 1947,-1841 1947,-1853 1947,-1853 1947,-1859 1941,-1865 1935,-1865"/>
<text text-anchor="middle" x="1920" y="-1843.5" font-family="SF Pro Text Bold 10" font-size="15.00" fill="#000000">load</text>
</g>
<!-- node_14&#45;&gt;node_15 -->
<g id="edge9" class="edge">
<title>node_14&#45;&gt;node_15</title>
<path fill="none" stroke="#ff3636" stroke-width="3" d="M1969.77,-1995.76C1953.67,-1984.55 1934.62,-1968.06 1925,-1948 1914.12,-1925.31 1913.95,-1896.3 1915.85,-1875.38"/>
<polygon fill="#ff3636" stroke="#ff3636" stroke-width="3" points="1919.35,-1875.58 1916.99,-1865.25 1912.39,-1874.8 1919.35,-1875.58"/>
</g>
<!-- node_14&#45;&gt;node_15 -->
<g id="edge53" class="edge">
<title>node_14&#45;&gt;node_15</title>
<path fill="none" stroke="#00b3ff" stroke-width="2" d="M1988.91,-1994.76C1975.41,-1966.02 1948.23,-1908.13 1932.34,-1874.28"/>
<polygon fill="#00b3ff" stroke="#00b3ff" stroke-width="2" points="1935.4,-1872.57 1927.99,-1865.01 1929.07,-1875.55 1935.4,-1872.57"/>
<text text-anchor="middle" x="1976" y="-1936" font-family="SF Pro Text Bold 10" font-size="15.00">%7</text>
</g>
<!-- node_16 -->
<g id="node24" class="node">
<title>node_16</title>
<path fill="#6d95df" stroke="#000000" d="M1814,-1718C1814,-1718 1784,-1718 1784,-1718 1778,-1718 1772,-1712 1772,-1706 1772,-1706 1772,-1694 1772,-1694 1772,-1688 1778,-1682 1784,-1682 1784,-1682 1814,-1682 1814,-1682 1820,-1682 1826,-1688 1826,-1694 1826,-1694 1826,-1706 1826,-1706 1826,-1712 1820,-1718 1814,-1718"/>
<text text-anchor="middle" x="1799" y="-1696.5" font-family="SF Pro Text Bold 10" font-size="15.00" fill="#000000">icmp</text>
</g>
<!-- node_15&#45;&gt;node_16 -->
<g id="edge10" class="edge">
<title>node_15&#45;&gt;node_16</title>
<path fill="none" stroke="#ff3636" stroke-width="3" d="M1922.91,-1828.71C1924.91,-1811.21 1925.32,-1784.1 1913,-1765 1895.39,-1737.68 1861.8,-1720.9 1835.63,-1711.42"/>
<polygon fill="#ff3636" stroke="#ff3636" stroke-width="3" points="1836.61,-1708.05 1826.01,-1708.13 1834.35,-1714.67 1836.61,-1708.05"/>
</g>
<!-- node_15&#45;&gt;node_16 -->
<g id="edge55" class="edge">
<title>node_15&#45;&gt;node_16</title>
<path fill="none" stroke="#00b3ff" stroke-width="2" d="M1905.64,-1828.8C1884.36,-1803.29 1844.31,-1755.3 1819.81,-1725.93"/>
<polygon fill="#00b3ff" stroke="#00b3ff" stroke-width="2" points="1822.43,-1723.62 1813.34,-1718.18 1817.06,-1728.1 1822.43,-1723.62"/>
<text text-anchor="middle" x="1875" y="-1770" font-family="SF Pro Text Bold 10" font-size="15.00">%8</text>
</g>
<!-- node_17 -->
<g id="node25" class="node">
<title>node_17</title>
<path fill="#6d95df" stroke="#000000" d="M1738,-1552C1738,-1552 1708,-1552 1708,-1552 1702,-1552 1696,-1546 1696,-1540 1696,-1540 1696,-1528 1696,-1528 1696,-1522 1702,-1516 1708,-1516 1708,-1516 1738,-1516 1738,-1516 1744,-1516 1750,-1522 1750,-1528 1750,-1528 1750,-1540 1750,-1540 1750,-1546 1744,-1552 1738,-1552"/>
<text text-anchor="middle" x="1723" y="-1530.5" font-family="SF Pro Text Bold 10" font-size="15.00" fill="#000000">br</text>
</g>
<!-- node_16&#45;&gt;node_17 -->
<g id="edge11" class="edge">
<title>node_16&#45;&gt;node_17</title>
<path fill="none" stroke="#ff3636" stroke-width="3" d="M1771.87,-1682.05C1756.4,-1670.77 1738.29,-1654.47 1729,-1635 1718.16,-1612.27 1717.66,-1583.27 1719.27,-1562.36"/>
<polygon fill="#ff3636" stroke="#ff3636" stroke-width="3" points="1722.77,-1562.53 1720.27,-1552.24 1715.81,-1561.85 1722.77,-1562.53"/>
</g>
<!-- node_16&#45;&gt;node_17 -->
<g id="edge56" class="edge">
<title>node_16&#45;&gt;node_17</title>
<path fill="none" stroke="#00b3ff" stroke-width="2" d="M1791.01,-1681.76C1777.69,-1653.02 1750.86,-1595.13 1735.18,-1561.28"/>
<polygon fill="#00b3ff" stroke="#00b3ff" stroke-width="2" points="1738.26,-1559.61 1730.88,-1552.01 1731.91,-1562.55 1738.26,-1559.61"/>
<text text-anchor="middle" x="1779" y="-1623" font-family="SF Pro Text Bold 10" font-size="15.00">%9</text>
</g>
<!-- node_18 -->
<g id="node28" class="node">
<title>node_18</title>
<path fill="#6d95df" stroke="#000000" d="M1644.5,-1405C1644.5,-1405 1543.5,-1405 1543.5,-1405 1537.5,-1405 1531.5,-1399 1531.5,-1393 1531.5,-1393 1531.5,-1381 1531.5,-1381 1531.5,-1375 1537.5,-1369 1543.5,-1369 1543.5,-1369 1644.5,-1369 1644.5,-1369 1650.5,-1369 1656.5,-1375 1656.5,-1381 1656.5,-1381 1656.5,-1393 1656.5,-1393 1656.5,-1399 1650.5,-1405 1644.5,-1405"/>
<text text-anchor="middle" x="1594" y="-1383.5" font-family="SF Pro Text Bold 10" font-size="15.00" fill="#000000">getelementptr</text>
</g>
<!-- node_17&#45;&gt;node_18 -->
<g id="edge27" class="edge">
<title>node_17&#45;&gt;node_18</title>
<path fill="none" stroke="#ff8800" stroke-width="5" d="M1707.7,-1515.8C1685,-1490.29 1642.3,-1442.3 1616.18,-1412.93"/>
<polygon fill="#ff8800" stroke="#ff8800" stroke-width="5" points="1619.2,-1409.74 1609.28,-1405.18 1612.66,-1415.56 1619.2,-1409.74"/>
</g>
<!-- node_26 -->
<g id="node46" class="node">
<title>node_26</title>
<path fill="#6d95df" stroke="#000000" d="M1738,-504C1738,-504 1708,-504 1708,-504 1702,-504 1696,-498 1696,-492 1696,-492 1696,-480 1696,-480 1696,-474 1702,-468 1708,-468 1708,-468 1738,-468 1738,-468 1744,-468 1750,-474 1750,-480 1750,-480 1750,-492 1750,-492 1750,-498 1744,-504 1738,-504"/>
<text text-anchor="middle" x="1723" y="-482.5" font-family="SF Pro Text Bold 10" font-size="15.00" fill="#000000">call</text>
</g>
<!-- node_17&#45;&gt;node_26 -->
<g id="edge28" class="edge">
<title>node_17&#45;&gt;node_26</title>
<path fill="none" stroke="#ff8800" stroke-width="5" d="M1723,-1515.59C1723,-1488.37 1723,-1434.07 1723,-1388 1723,-1388 1723,-1388 1723,-632 1723,-591.15 1723,-543.83 1723,-514.65"/>
<polygon fill="#ff8800" stroke="#ff8800" stroke-width="5" points="1727.38,-514.41 1723,-504.41 1718.63,-514.41 1727.38,-514.41"/>
</g>
<!-- node_37 -->
<g id="node26" class="node">
<title>node_37</title>
<path fill="#d66868" stroke="#000000" d="M1985.5,-2178C1985.5,-2178 1830.5,-2178 1830.5,-2178 1824.5,-2178 1818.5,-2172 1818.5,-2166 1818.5,-2166 1818.5,-2154 1818.5,-2154 1818.5,-2148 1824.5,-2142 1830.5,-2142 1830.5,-2142 1985.5,-2142 1985.5,-2142 1991.5,-2142 1997.5,-2148 1997.5,-2154 1997.5,-2154 1997.5,-2166 1997.5,-2166 1997.5,-2172 1991.5,-2178 1985.5,-2178"/>
<text text-anchor="middle" x="1908" y="-2156.5" font-family="SF Pro Text Bold 10" font-size="15.00" fill="#000000">ptr @__errno_location</text>
</g>
<!-- node_37&#45;&gt;node_14 -->
<g id="edge54" class="edge">
<title>node_37&#45;&gt;node_14</title>
<path fill="none" stroke="#00b3ff" stroke-width="2" d="M1918.56,-2141.8C1934.02,-2116.62 1962.92,-2069.52 1981,-2040.07"/>
<polygon fill="#00b3ff" stroke="#00b3ff" stroke-width="2" points="1984.21,-2041.53 1986.45,-2031.18 1978.24,-2037.87 1984.21,-2041.53"/>
</g>
<!-- node_38 -->
<g id="node27" class="node">
<title>node_38</title>
<path fill="#d66868" stroke="#000000" d="M1814.5,-1865C1814.5,-1865 1783.5,-1865 1783.5,-1865 1777.5,-1865 1771.5,-1859 1771.5,-1853 1771.5,-1853 1771.5,-1841 1771.5,-1841 1771.5,-1835 1777.5,-1829 1783.5,-1829 1783.5,-1829 1814.5,-1829 1814.5,-1829 1820.5,-1829 1826.5,-1835 1826.5,-1841 1826.5,-1841 1826.5,-1853 1826.5,-1853 1826.5,-1859 1820.5,-1865 1814.5,-1865"/>
<text text-anchor="middle" x="1799" y="-1843.5" font-family="SF Pro Text Bold 10" font-size="15.00" fill="#000000">i32 0</text>
</g>
<!-- node_38&#45;&gt;node_16 -->
<g id="edge57" class="edge">
<title>node_38&#45;&gt;node_16</title>
<path fill="none" stroke="#00b3ff" stroke-width="2" d="M1799,-1828.8C1799,-1803.94 1799,-1757.74 1799,-1728.23"/>
<polygon fill="#00b3ff" stroke="#00b3ff" stroke-width="2" points="1802.5,-1728.18 1799,-1718.18 1795.5,-1728.18 1802.5,-1728.18"/>
</g>
<!-- node_19 -->
<g id="node29" class="node">
<title>node_19</title>
<path fill="#6d95df" stroke="#000000" d="M1482,-1258C1482,-1258 1452,-1258 1452,-1258 1446,-1258 1440,-1252 1440,-1246 1440,-1246 1440,-1234 1440,-1234 1440,-1228 1446,-1222 1452,-1222 1452,-1222 1482,-1222 1482,-1222 1488,-1222 1494,-1228 1494,-1234 1494,-1234 1494,-1246 1494,-1246 1494,-1252 1488,-1258 1482,-1258"/>
<text text-anchor="middle" x="1467" y="-1236.5" font-family="SF Pro Text Bold 10" font-size="15.00" fill="#000000">load</text>
</g>
<!-- node_18&#45;&gt;node_19 -->
<g id="edge12" class="edge">
<title>node_18&#45;&gt;node_19</title>
<path fill="none" stroke="#ff3636" stroke-width="3" d="M1559.37,-1369C1539.76,-1357.9 1516.01,-1341.8 1500,-1322 1487.19,-1306.16 1478.74,-1284.68 1473.61,-1267.82"/>
<polygon fill="#ff3636" stroke="#ff3636" stroke-width="3" points="1476.92,-1266.67 1470.82,-1258.01 1470.19,-1268.58 1476.92,-1266.67"/>
</g>
<!-- node_18&#45;&gt;node_19 -->
<g id="edge58" class="edge">
<title>node_18&#45;&gt;node_19</title>
<path fill="none" stroke="#00b3ff" stroke-width="2" d="M1578.93,-1368.8C1556.59,-1343.29 1514.56,-1295.3 1488.84,-1265.93"/>
<polygon fill="#00b3ff" stroke="#00b3ff" stroke-width="2" points="1491.27,-1263.4 1482.05,-1258.18 1486,-1268.01 1491.27,-1263.4"/>
<text text-anchor="middle" x="1548" y="-1310" font-family="SF Pro Text Bold 10" font-size="15.00">%11</text>
</g>
<!-- node_20 -->
<g id="node30" class="node">
<title>node_20</title>
<path fill="#6d95df" stroke="#000000" d="M1423,-1111C1423,-1111 1393,-1111 1393,-1111 1387,-1111 1381,-1105 1381,-1099 1381,-1099 1381,-1087 1381,-1087 1381,-1081 1387,-1075 1393,-1075 1393,-1075 1423,-1075 1423,-1075 1429,-1075 1435,-1081 1435,-1087 1435,-1087 1435,-1099 1435,-1099 1435,-1105 1429,-1111 1423,-1111"/>
<text text-anchor="middle" x="1408" y="-1089.5" font-family="SF Pro Text Bold 10" font-size="15.00" fill="#000000">call</text>
</g>
<!-- node_19&#45;&gt;node_20 -->
<g id="edge13" class="edge">
<title>node_19&#45;&gt;node_20</title>
<path fill="none" stroke="#ff3636" stroke-width="3" d="M1447.11,-1221.83C1434.92,-1210.02 1420.3,-1193.22 1413,-1175 1406.23,-1158.11 1405.02,-1137.63 1405.48,-1121.5"/>
<polygon fill="#ff3636" stroke="#ff3636" stroke-width="3" points="1409,-1121.29 1406.02,-1111.12 1402,-1120.92 1409,-1121.29"/>
</g>
<!-- node_19&#45;&gt;node_20 -->
<g id="edge61" class="edge">
<title>node_19&#45;&gt;node_20</title>
<path fill="none" stroke="#00b3ff" stroke-width="2" d="M1460,-1221.8C1449.8,-1196.72 1430.76,-1149.93 1418.76,-1120.46"/>
<polygon fill="#00b3ff" stroke="#00b3ff" stroke-width="2" points="1422,-1119.12 1414.99,-1111.18 1415.52,-1121.76 1422,-1119.12"/>
<text text-anchor="middle" x="1454.5" y="-1163" font-family="SF Pro Text Bold 10" font-size="15.00">%12</text>
</g>
<!-- node_21 -->
<g id="node31" class="node">
<title>node_21</title>
<path fill="#6d95df" stroke="#000000" d="M1377,-964C1377,-964 1347,-964 1347,-964 1341,-964 1335,-958 1335,-952 1335,-952 1335,-940 1335,-940 1335,-934 1341,-928 1347,-928 1347,-928 1377,-928 1377,-928 1383,-928 1389,-934 1389,-940 1389,-940 1389,-952 1389,-952 1389,-958 1383,-964 1377,-964"/>
<text text-anchor="middle" x="1362" y="-942.5" font-family="SF Pro Text Bold 10" font-size="15.00" fill="#000000">shl</text>
</g>
<!-- node_20&#45;&gt;node_21 -->
<g id="edge14" class="edge">
<title>node_20&#45;&gt;node_21</title>
<path fill="none" stroke="#ff3636" stroke-width="3" d="M1393.5,-1074.78C1384.13,-1062.56 1372.65,-1045.31 1367,-1028 1361.38,-1010.81 1360.14,-990.49 1360.3,-974.5"/>
<polygon fill="#ff3636" stroke="#ff3636" stroke-width="3" points="1363.81,-974.32 1360.6,-964.22 1356.81,-974.11 1363.81,-974.32"/>
</g>
<!-- node_20&#45;&gt;node_21 -->
<g id="edge62" class="edge">
<title>node_20&#45;&gt;node_21</title>
<path fill="none" stroke="#00b3ff" stroke-width="2" d="M1402.54,-1074.8C1394.62,-1049.83 1379.87,-1003.34 1370.52,-973.84"/>
<polygon fill="#00b3ff" stroke="#00b3ff" stroke-width="2" points="1373.81,-972.65 1367.45,-964.18 1367.14,-974.77 1373.81,-972.65"/>
<text text-anchor="middle" x="1401.5" y="-1016" font-family="SF Pro Text Bold 10" font-size="15.00">%13</text>
</g>
<!-- node_22 -->
<g id="node32" class="node">
<title>node_22</title>
<path fill="#6d95df" stroke="#000000" d="M1321,-817C1321,-817 1291,-817 1291,-817 1285,-817 1279,-811 1279,-805 1279,-805 1279,-793 1279,-793 1279,-787 1285,-781 1291,-781 1291,-781 1321,-781 1321,-781 1327,-781 1333,-787 1333,-793 1333,-793 1333,-805 1333,-805 1333,-811 1327,-817 1321,-817"/>
<text text-anchor="middle" x="1306" y="-795.5" font-family="SF Pro Text Bold 10" font-size="15.00" fill="#000000">ashr</text>
</g>
<!-- node_21&#45;&gt;node_22 -->
<g id="edge15" class="edge">
<title>node_21&#45;&gt;node_22</title>
<path fill="none" stroke="#ff3636" stroke-width="3" d="M1343.46,-927.88C1331.9,-915.97 1317.94,-899.03 1311,-881 1304.46,-864.01 1303.25,-843.54 1303.65,-827.43"/>
<polygon fill="#ff3636" stroke="#ff3636" stroke-width="3" points="1307.17,-827.22 1304.15,-817.07 1300.18,-826.89 1307.17,-827.22"/>
</g>
<!-- node_21&#45;&gt;node_22 -->
<g id="edge66" class="edge">
<title>node_21&#45;&gt;node_22</title>
<path fill="none" stroke="#00b3ff" stroke-width="2" d="M1355.36,-927.8C1345.72,-902.83 1327.76,-856.34 1316.37,-826.84"/>
<polygon fill="#00b3ff" stroke="#00b3ff" stroke-width="2" points="1319.5,-825.25 1312.64,-817.18 1312.97,-827.77 1319.5,-825.25"/>
<text text-anchor="middle" x="1350.5" y="-869" font-family="SF Pro Text Bold 10" font-size="15.00">%14</text>
</g>
<!-- node_23 -->
<g id="node33" class="node">
<title>node_23</title>
<path fill="#6d95df" stroke="#000000" d="M1321,-651C1321,-651 1291,-651 1291,-651 1285,-651 1279,-645 1279,-639 1279,-639 1279,-627 1279,-627 1279,-621 1285,-615 1291,-615 1291,-615 1321,-615 1321,-615 1327,-615 1333,-621 1333,-627 1333,-627 1333,-639 1333,-639 1333,-645 1327,-651 1321,-651"/>
<text text-anchor="middle" x="1306" y="-629.5" font-family="SF Pro Text Bold 10" font-size="15.00" fill="#000000">call</text>
</g>
<!-- node_22&#45;&gt;node_23 -->
<g id="edge16" class="edge">
<title>node_22&#45;&gt;node_23</title>
<path fill="none" stroke="#ff3636" stroke-width="3" d="M1306,-780.76C1306,-752.26 1306,-695.12 1306,-661.16"/>
<polygon fill="#ff3636" stroke="#ff3636" stroke-width="3" points="1309.5,-661.01 1306,-651.01 1302.5,-661.01 1309.5,-661.01"/>
</g>
<!-- node_22&#45;&gt;node_23 -->
<g id="edge68" class="edge">
<title>node_22&#45;&gt;node_23</title>
<path fill="none" stroke="#00b3ff" stroke-width="2" d="M1306.68,-780.89C1307.16,-768 1307.75,-749.89 1308,-734 1308.38,-709.42 1307.73,-681.45 1307.07,-661.35"/>
<polygon fill="#00b3ff" stroke="#00b3ff" stroke-width="2" points="1310.57,-661.21 1306.72,-651.34 1303.57,-661.46 1310.57,-661.21"/>
<text text-anchor="middle" x="1323.5" y="-722" font-family="SF Pro Text Bold 10" font-size="15.00">%15</text>
</g>
<!-- node_24 -->
<g id="node34" class="node">
<title>node_24</title>
<path fill="#6d95df" stroke="#000000" d="M1434,-504C1434,-504 1404,-504 1404,-504 1398,-504 1392,-498 1392,-492 1392,-492 1392,-480 1392,-480 1392,-474 1398,-468 1404,-468 1404,-468 1434,-468 1434,-468 1440,-468 1446,-474 1446,-480 1446,-480 1446,-492 1446,-492 1446,-498 1440,-504 1434,-504"/>
<text text-anchor="middle" x="1419" y="-482.5" font-family="SF Pro Text Bold 10" font-size="15.00" fill="#000000">call</text>
</g>
<!-- node_22&#45;&gt;node_24 -->
<g id="edge69" class="edge">
<title>node_22&#45;&gt;node_24</title>
<path fill="none" stroke="#00b3ff" stroke-width="2" d="M1279.45,-780.82C1257.8,-765.08 1228.78,-739.62 1216,-709 1199.9,-670.45 1198.14,-652.77 1216,-615 1247.58,-548.23 1332.78,-512.55 1382.18,-496.92"/>
<polygon fill="#00b3ff" stroke="#00b3ff" stroke-width="2" points="1383.31,-500.24 1391.86,-493.98 1381.27,-493.54 1383.31,-500.24"/>
<text text-anchor="middle" x="1231.5" y="-629.5" font-family="SF Pro Text Bold 10" font-size="15.00">%15</text>
</g>
<!-- node_23&#45;&gt;node_0 -->
<g id="edge72" class="edge">
<title>node_23&#45;&gt;node_0</title>
<path fill="none" stroke="#ff8800" stroke-width="5" stroke-dasharray="5,2" d="M1295.7,-651.13C1269.76,-695.21 1201.71,-816.91 1172,-928 1138.09,-1054.8 1154.41,-1091.16 1144,-1222 1101.44,-1756.96 1149.53,-1896.74 1067,-2427 1065.09,-2439.3 1061.91,-2452.7 1058.89,-2464.04"/>
<polygon fill="#ff8800" stroke="#ff8800" stroke-width="5" points="1054.65,-2462.99 1056.2,-2473.79 1063.08,-2465.31 1054.65,-2462.99"/>
</g>
<!-- node_23&#45;&gt;node_24 -->
<g id="edge17" class="edge">
<title>node_23&#45;&gt;node_24</title>
<path fill="none" stroke="#ff3636" stroke-width="3" d="M1323.05,-615C1335.27,-602.46 1351.83,-584.75 1365,-568 1378.93,-550.29 1392.99,-529.06 1403.28,-512.78"/>
<polygon fill="#ff3636" stroke="#ff3636" stroke-width="3" points="1406.25,-514.63 1408.58,-504.29 1400.31,-510.92 1406.25,-514.63"/>
</g>
<!-- node_23&#45;&gt;node_24 -->
<g id="edge71" class="edge">
<title>node_23&#45;&gt;node_24</title>
<path fill="none" stroke="#00b3ff" stroke-width="2" d="M1304.58,-614.74C1303.99,-597.28 1305.52,-570.19 1318,-551 1333.25,-527.55 1360.43,-511.05 1382.75,-500.69"/>
<polygon fill="#00b3ff" stroke="#00b3ff" stroke-width="2" points="1384.24,-503.86 1391.97,-496.62 1381.41,-497.45 1384.24,-503.86"/>
<text text-anchor="middle" x="1333.5" y="-556" font-family="SF Pro Text Bold 10" font-size="15.00">%16</text>
</g>
<!-- node_25 -->
<g id="node35" class="node">
<title>node_25</title>
<path fill="#6d95df" stroke="#000000" d="M1660,-373C1660,-373 1630,-373 1630,-373 1624,-373 1618,-367 1618,-361 1618,-361 1618,-349 1618,-349 1618,-343 1624,-337 1630,-337 1630,-337 1660,-337 1660,-337 1666,-337 1672,-343 1672,-349 1672,-349 1672,-361 1672,-361 1672,-367 1666,-373 1660,-373"/>
<text text-anchor="middle" x="1645" y="-351.5" font-family="SF Pro Text Bold 10" font-size="15.00" fill="#000000">br</text>
</g>
<!-- node_24&#45;&gt;node_25 -->
<g id="edge18" class="edge">
<title>node_24&#45;&gt;node_25</title>
<path fill="none" stroke="#ff3636" stroke-width="3" d="M1446.26,-469.44C1487.01,-446.18 1563.84,-402.32 1609.11,-376.49"/>
<polygon fill="#ff3636" stroke="#ff3636" stroke-width="3" points="1611.04,-379.41 1617.99,-371.41 1607.57,-373.33 1611.04,-379.41"/>
</g>
<!-- node_25&#45;&gt;node_28 -->
<g id="edge30" class="edge">
<title>node_25&#45;&gt;node_28</title>
<path fill="none" stroke="#ff8800" stroke-width="5" d="M1642.29,-336.7C1640.46,-319.44 1640.07,-292.74 1651,-273 1667.96,-242.37 1701.53,-219.96 1727.7,-206.2"/>
<polygon fill="#ff8800" stroke="#ff8800" stroke-width="5" points="1730,-209.93 1736.96,-201.52 1726.06,-202.12 1730,-209.93"/>
</g>
<!-- node_25&#45;&gt;node_28 -->
<g id="edge80" class="edge">
<title>node_25&#45;&gt;node_28</title>
<path fill="none" stroke="#00b3ff" stroke-width="2" d="M1657.51,-336.76C1678.55,-307.77 1721.09,-249.13 1745.56,-215.41"/>
<polygon fill="#00b3ff" stroke="#00b3ff" stroke-width="2" points="1748.62,-217.16 1751.66,-207.01 1742.95,-213.05 1748.62,-217.16"/>
<text text-anchor="middle" x="1719.5" y="-278" font-family="SF Pro Text Bold 10" font-size="15.00">i32 0</text>
</g>
<!-- node_39 -->
<g id="node36" class="node">
<title>node_39</title>
<path fill="#d66868" stroke="#000000" d="M1616.5,-1552C1616.5,-1552 1577.5,-1552 1577.5,-1552 1571.5,-1552 1565.5,-1546 1565.5,-1540 1565.5,-1540 1565.5,-1528 1565.5,-1528 1565.5,-1522 1571.5,-1516 1577.5,-1516 1577.5,-1516 1616.5,-1516 1616.5,-1516 1622.5,-1516 1628.5,-1522 1628.5,-1528 1628.5,-1528 1628.5,-1540 1628.5,-1540 1628.5,-1546 1622.5,-1552 1616.5,-1552"/>
<text text-anchor="middle" x="1597" y="-1530.5" font-family="SF Pro Text Bold 10" font-size="15.00" fill="#000000">ptr %1</text>
</g>
<!-- node_39&#45;&gt;node_18 -->
<g id="edge59" class="edge">
<title>node_39&#45;&gt;node_18</title>
<path fill="none" stroke="#00b3ff" stroke-width="2" d="M1596.64,-1515.8C1596.13,-1490.94 1595.17,-1444.74 1594.56,-1415.23"/>
<polygon fill="#00b3ff" stroke="#00b3ff" stroke-width="2" points="1598.06,-1415.11 1594.36,-1405.18 1591.06,-1415.25 1598.06,-1415.11"/>
<text text-anchor="middle" x="1605.5" y="-1457" font-family="SF Pro Text Bold 10" font-size="15.00">%1</text>
</g>
<!-- node_40 -->
<g id="node37" class="node">
<title>node_40</title>
<path fill="#d66868" stroke="#000000" d="M1488,-1552C1488,-1552 1458,-1552 1458,-1552 1452,-1552 1446,-1546 1446,-1540 1446,-1540 1446,-1528 1446,-1528 1446,-1522 1452,-1516 1458,-1516 1458,-1516 1488,-1516 1488,-1516 1494,-1516 1500,-1522 1500,-1528 1500,-1528 1500,-1540 1500,-1540 1500,-1546 1494,-1552 1488,-1552"/>
<text text-anchor="middle" x="1473" y="-1530.5" font-family="SF Pro Text Bold 10" font-size="15.00" fill="#000000">i64 1</text>
</g>
<!-- node_40&#45;&gt;node_18 -->
<g id="edge60" class="edge">
<title>node_40&#45;&gt;node_18</title>
<path fill="none" stroke="#00b3ff" stroke-width="2" d="M1487.36,-1515.8C1508.64,-1490.29 1548.69,-1442.3 1573.19,-1412.93"/>
<polygon fill="#00b3ff" stroke="#00b3ff" stroke-width="2" points="1575.94,-1415.1 1579.66,-1405.18 1570.57,-1410.62 1575.94,-1415.1"/>
</g>
<!-- node_41 -->
<g id="node38" class="node">
<title>node_41</title>
<path fill="#d66868" stroke="#000000" d="M1362.5,-1258C1362.5,-1258 1315.5,-1258 1315.5,-1258 1309.5,-1258 1303.5,-1252 1303.5,-1246 1303.5,-1246 1303.5,-1234 1303.5,-1234 1303.5,-1228 1309.5,-1222 1315.5,-1222 1315.5,-1222 1362.5,-1222 1362.5,-1222 1368.5,-1222 1374.5,-1228 1374.5,-1234 1374.5,-1234 1374.5,-1246 1374.5,-1246 1374.5,-1252 1368.5,-1258 1362.5,-1258"/>
<text text-anchor="middle" x="1339" y="-1236.5" font-family="SF Pro Text Bold 10" font-size="15.00" fill="#000000">ptr null</text>
</g>
<!-- node_41&#45;&gt;node_20 -->
<g id="edge63" class="edge">
<title>node_41&#45;&gt;node_20</title>
<path fill="none" stroke="#00b3ff" stroke-width="2" d="M1347.19,-1221.8C1359.12,-1196.72 1381.39,-1149.93 1395.41,-1120.46"/>
<polygon fill="#00b3ff" stroke="#00b3ff" stroke-width="2" points="1398.69,-1121.71 1399.82,-1111.18 1392.37,-1118.71 1398.69,-1121.71"/>
</g>
<!-- node_42 -->
<g id="node39" class="node">
<title>node_42</title>
<path fill="#d66868" stroke="#000000" d="M1226,-1258C1226,-1258 1188,-1258 1188,-1258 1182,-1258 1176,-1252 1176,-1246 1176,-1246 1176,-1234 1176,-1234 1176,-1228 1182,-1222 1188,-1222 1188,-1222 1226,-1222 1226,-1222 1232,-1222 1238,-1228 1238,-1234 1238,-1234 1238,-1246 1238,-1246 1238,-1252 1232,-1258 1226,-1258"/>
<text text-anchor="middle" x="1207" y="-1236.5" font-family="SF Pro Text Bold 10" font-size="15.00" fill="#000000">i32 10</text>
</g>
<!-- node_42&#45;&gt;node_20 -->
<g id="edge64" class="edge">
<title>node_42&#45;&gt;node_20</title>
<path fill="none" stroke="#00b3ff" stroke-width="2" d="M1230.85,-1221.8C1266.96,-1195.74 1335.59,-1146.23 1376.01,-1117.08"/>
<polygon fill="#00b3ff" stroke="#00b3ff" stroke-width="2" points="1378.12,-1119.87 1384.18,-1111.18 1374.03,-1114.19 1378.12,-1119.87"/>
</g>
<!-- node_43 -->
<g id="node40" class="node">
<title>node_43</title>
<path fill="#d66868" stroke="#000000" d="M1645,-1258C1645,-1258 1571,-1258 1571,-1258 1565,-1258 1559,-1252 1559,-1246 1559,-1246 1559,-1234 1559,-1234 1559,-1228 1565,-1222 1571,-1222 1571,-1222 1645,-1222 1645,-1222 1651,-1222 1657,-1228 1657,-1234 1657,-1234 1657,-1246 1657,-1246 1657,-1252 1651,-1258 1645,-1258"/>
<text text-anchor="middle" x="1608" y="-1236.5" font-family="SF Pro Text Bold 10" font-size="15.00" fill="#000000">ptr @strtol</text>
</g>
<!-- node_43&#45;&gt;node_20 -->
<g id="edge65" class="edge">
<title>node_43&#45;&gt;node_20</title>
<path fill="none" stroke="#00b3ff" stroke-width="2" d="M1584.27,-1221.8C1548.34,-1195.74 1480.05,-1146.23 1439.83,-1117.08"/>
<polygon fill="#00b3ff" stroke="#00b3ff" stroke-width="2" points="1441.85,-1114.22 1431.7,-1111.18 1437.74,-1119.88 1441.85,-1114.22"/>
</g>
<!-- node_44 -->
<g id="node41" class="node">
<title>node_44</title>
<path fill="#d66868" stroke="#000000" d="M1303.5,-1111C1303.5,-1111 1262.5,-1111 1262.5,-1111 1256.5,-1111 1250.5,-1105 1250.5,-1099 1250.5,-1099 1250.5,-1087 1250.5,-1087 1250.5,-1081 1256.5,-1075 1262.5,-1075 1262.5,-1075 1303.5,-1075 1303.5,-1075 1309.5,-1075 1315.5,-1081 1315.5,-1087 1315.5,-1087 1315.5,-1099 1315.5,-1099 1315.5,-1105 1309.5,-1111 1303.5,-1111"/>
<text text-anchor="middle" x="1283" y="-1089.5" font-family="SF Pro Text Bold 10" font-size="15.00" fill="#000000">i64 32</text>
</g>
<!-- node_44&#45;&gt;node_21 -->
<g id="edge67" class="edge">
<title>node_44&#45;&gt;node_21</title>
<path fill="none" stroke="#00b3ff" stroke-width="2" d="M1292.37,-1074.8C1306.09,-1049.62 1331.75,-1002.52 1347.8,-973.07"/>
<polygon fill="#00b3ff" stroke="#00b3ff" stroke-width="2" points="1350.93,-974.64 1352.64,-964.18 1344.78,-971.29 1350.93,-974.64"/>
</g>
<!-- node_45 -->
<g id="node42" class="node">
<title>node_45</title>
<path fill="#d66868" stroke="#000000" d="M1257.5,-964C1257.5,-964 1216.5,-964 1216.5,-964 1210.5,-964 1204.5,-958 1204.5,-952 1204.5,-952 1204.5,-940 1204.5,-940 1204.5,-934 1210.5,-928 1216.5,-928 1216.5,-928 1257.5,-928 1257.5,-928 1263.5,-928 1269.5,-934 1269.5,-940 1269.5,-940 1269.5,-952 1269.5,-952 1269.5,-958 1263.5,-964 1257.5,-964"/>
<text text-anchor="middle" x="1237" y="-942.5" font-family="SF Pro Text Bold 10" font-size="15.00" fill="#000000">i64 32</text>
</g>
<!-- node_45&#45;&gt;node_22 -->
<g id="edge70" class="edge">
<title>node_45&#45;&gt;node_22</title>
<path fill="none" stroke="#00b3ff" stroke-width="2" d="M1245.19,-927.8C1257.12,-902.72 1279.39,-855.93 1293.41,-826.46"/>
<polygon fill="#00b3ff" stroke="#00b3ff" stroke-width="2" points="1296.69,-827.71 1297.82,-817.18 1290.37,-824.71 1296.69,-827.71"/>
</g>
<!-- node_46 -->
<g id="node43" class="node">
<title>node_46</title>
<path fill="#d66868" stroke="#000000" d="M1473.5,-817C1473.5,-817 1410.5,-817 1410.5,-817 1404.5,-817 1398.5,-811 1398.5,-805 1398.5,-805 1398.5,-793 1398.5,-793 1398.5,-787 1404.5,-781 1410.5,-781 1410.5,-781 1473.5,-781 1473.5,-781 1479.5,-781 1485.5,-787 1485.5,-793 1485.5,-793 1485.5,-805 1485.5,-805 1485.5,-811 1479.5,-817 1473.5,-817"/>
<text text-anchor="middle" x="1442" y="-795.5" font-family="SF Pro Text Bold 10" font-size="15.00" fill="#000000">ptr @fact</text>
</g>
<!-- node_46&#45;&gt;node_23 -->
<g id="edge73" class="edge">
<title>node_46&#45;&gt;node_23</title>
<path fill="none" stroke="#00b3ff" stroke-width="2" d="M1426.98,-780.74C1411.53,-762.91 1386.84,-734.21 1366,-709 1352.41,-692.56 1337.43,-673.83 1325.83,-659.2"/>
<polygon fill="#00b3ff" stroke="#00b3ff" stroke-width="2" points="1328.38,-656.78 1319.43,-651.1 1322.89,-661.12 1328.38,-656.78"/>
</g>
<!-- node_47 -->
<g id="node44" class="node">
<title>node_47</title>
<path fill="#d66868" stroke="#000000" d="M1645,-651C1645,-651 1575,-651 1575,-651 1569,-651 1563,-645 1563,-639 1563,-639 1563,-627 1563,-627 1563,-621 1569,-615 1575,-615 1575,-615 1645,-615 1645,-615 1651,-615 1657,-621 1657,-627 1657,-627 1657,-639 1657,-639 1657,-645 1651,-651 1645,-651"/>
<text text-anchor="middle" x="1610" y="-629.5" font-family="SF Pro Text Bold 10" font-size="15.00" fill="#000000">ptr @.str.1</text>
</g>
<!-- node_47&#45;&gt;node_24 -->
<g id="edge74" class="edge">
<title>node_47&#45;&gt;node_24</title>
<path fill="none" stroke="#00b3ff" stroke-width="2" d="M1587.34,-614.8C1553.16,-588.85 1488.35,-539.65 1449.88,-510.44"/>
<polygon fill="#00b3ff" stroke="#00b3ff" stroke-width="2" points="1451.71,-507.44 1441.63,-504.18 1447.48,-513.01 1451.71,-507.44"/>
</g>
<!-- node_48 -->
<g id="node45" class="node">
<title>node_48</title>
<path fill="#d66868" stroke="#000000" d="M1486,-651C1486,-651 1410,-651 1410,-651 1404,-651 1398,-645 1398,-639 1398,-639 1398,-627 1398,-627 1398,-621 1404,-615 1410,-615 1410,-615 1486,-615 1486,-615 1492,-615 1498,-621 1498,-627 1498,-627 1498,-639 1498,-639 1498,-645 1492,-651 1486,-651"/>
<text text-anchor="middle" x="1448" y="-629.5" font-family="SF Pro Text Bold 10" font-size="15.00" fill="#000000">ptr @printf</text>
</g>
<!-- node_48&#45;&gt;node_24 -->
<g id="edge75" class="edge">
<title>node_48&#45;&gt;node_24</title>
<path fill="none" stroke="#00b3ff" stroke-width="2" d="M1444.56,-614.8C1439.59,-589.94 1430.35,-543.74 1424.45,-514.23"/>
<polygon fill="#00b3ff" stroke="#00b3ff" stroke-width="2" points="1427.83,-513.3 1422.44,-504.18 1420.97,-514.67 1427.83,-513.3"/>
</g>
<!-- node_27 -->
<g id="node47" class="node">
<title>node_27</title>
<path fill="#6d95df" stroke="#000000" d="M1779,-373C1779,-373 1749,-373 1749,-373 1743,-373 1737,-367 1737,-361 1737,-361 1737,-349 1737,-349 1737,-343 1743,-337 1749,-337 1749,-337 1779,-337 1779,-337 1785,-337 1791,-343 1791,-349 1791,-349 1791,-361 1791,-361 1791,-367 1785,-373 1779,-373"/>
<text text-anchor="middle" x="1764" y="-351.5" font-family="SF Pro Text Bold 10" font-size="15.00" fill="#000000">br</text>
</g>
<!-- node_26&#45;&gt;node_27 -->
<g id="edge19" class="edge">
<title>node_26&#45;&gt;node_27</title>
<path fill="none" stroke="#ff3636" stroke-width="3" d="M1728.44,-467.87C1735.34,-446.18 1747.29,-408.58 1755.42,-383.01"/>
<polygon fill="#ff3636" stroke="#ff3636" stroke-width="3" points="1758.84,-383.79 1758.53,-373.2 1752.17,-381.67 1758.84,-383.79"/>
</g>
<!-- node_27&#45;&gt;node_28 -->
<g id="edge31" class="edge">
<title>node_27&#45;&gt;node_28</title>
<path fill="none" stroke="#ff8800" stroke-width="5" d="M1764,-336.76C1764,-308.26 1764,-251.12 1764,-217.16"/>
<polygon fill="#ff8800" stroke="#ff8800" stroke-width="5" points="1768.38,-217.01 1764,-207.01 1759.63,-217.01 1768.38,-217.01"/>
</g>
<!-- node_27&#45;&gt;node_28 -->
<g id="edge81" class="edge">
<title>node_27&#45;&gt;node_28</title>
<path fill="none" stroke="#00b3ff" stroke-width="2" d="M1764.68,-336.89C1765.16,-324 1765.75,-305.89 1766,-290 1766.38,-265.42 1765.73,-237.45 1765.07,-217.35"/>
<polygon fill="#00b3ff" stroke="#00b3ff" stroke-width="2" points="1768.57,-217.21 1764.72,-207.34 1761.57,-217.46 1768.57,-217.21"/>
<text text-anchor="middle" x="1784" y="-278" font-family="SF Pro Text Bold 10" font-size="15.00">i32 1</text>
</g>
<!-- node_49 -->
<g id="node48" class="node">
<title>node_49</title>
<path fill="#d66868" stroke="#000000" d="M2012,-651C2012,-651 1958,-651 1958,-651 1952,-651 1946,-645 1946,-639 1946,-639 1946,-627 1946,-627 1946,-621 1952,-615 1958,-615 1958,-615 2012,-615 2012,-615 2018,-615 2024,-621 2024,-627 2024,-627 2024,-639 2024,-639 2024,-645 2018,-651 2012,-651"/>
<text text-anchor="middle" x="1985" y="-629.5" font-family="SF Pro Text Bold 10" font-size="15.00" fill="#000000">ptr @str</text>
</g>
<!-- node_49&#45;&gt;node_26 -->
<g id="edge76" class="edge">
<title>node_49&#45;&gt;node_26</title>
<path fill="none" stroke="#00b3ff" stroke-width="2" d="M1954.17,-614.94C1905.43,-587.96 1810.78,-535.58 1758.99,-506.92"/>
<polygon fill="#00b3ff" stroke="#00b3ff" stroke-width="2" points="1760.59,-503.8 1750.15,-502.02 1757.2,-509.93 1760.59,-503.8"/>
</g>
<!-- node_50 -->
<g id="node49" class="node">
<title>node_50</title>
<path fill="#d66868" stroke="#000000" d="M1868.5,-651C1868.5,-651 1801.5,-651 1801.5,-651 1795.5,-651 1789.5,-645 1789.5,-639 1789.5,-639 1789.5,-627 1789.5,-627 1789.5,-621 1795.5,-615 1801.5,-615 1801.5,-615 1868.5,-615 1868.5,-615 1874.5,-615 1880.5,-621 1880.5,-627 1880.5,-627 1880.5,-639 1880.5,-639 1880.5,-645 1874.5,-651 1868.5,-651"/>
<text text-anchor="middle" x="1835" y="-629.5" font-family="SF Pro Text Bold 10" font-size="15.00" fill="#000000">ptr @puts</text>
</g>
<!-- node_50&#45;&gt;node_26 -->
<g id="edge77" class="edge">
<title>node_50&#45;&gt;node_26</title>
<path fill="none" stroke="#00b3ff" stroke-width="2" d="M1821.71,-614.8C1802.09,-589.4 1765.26,-541.71 1742.55,-512.31"/>
<polygon fill="#00b3ff" stroke="#00b3ff" stroke-width="2" points="1745.15,-509.95 1736.27,-504.18 1739.61,-514.23 1745.15,-509.95"/>
</g>
<!-- node_29 -->
<g id="node51" class="node">
<title>node_29</title>
<path fill="#6d95df" stroke="#000000" d="M1779,-60C1779,-60 1749,-60 1749,-60 1743,-60 1737,-54 1737,-48 1737,-48 1737,-36 1737,-36 1737,-30 1743,-24 1749,-24 1749,-24 1779,-24 1779,-24 1785,-24 1791,-30 1791,-36 1791,-36 1791,-48 1791,-48 1791,-54 1785,-60 1779,-60"/>
<text text-anchor="middle" x="1764" y="-38.5" font-family="SF Pro Text Bold 10" font-size="15.00" fill="#000000">ret</text>
</g>
<!-- node_28&#45;&gt;node_29 -->
<g id="edge20" class="edge">
<title>node_28&#45;&gt;node_29</title>
<path fill="none" stroke="#ff3636" stroke-width="3" d="M1764,-170.8C1764,-145.94 1764,-99.74 1764,-70.23"/>
<polygon fill="#ff3636" stroke="#ff3636" stroke-width="3" points="1767.5,-70.18 1764,-60.18 1760.5,-70.18 1767.5,-70.18"/>
</g>
<!-- node_28&#45;&gt;node_29 -->
<g id="edge78" class="edge">
<title>node_28&#45;&gt;node_29</title>
<path fill="none" stroke="#00b3ff" stroke-width="2" d="M1764.68,-170.89C1765.16,-158 1765.75,-139.89 1766,-124 1766.28,-106.06 1765.78,-85.89 1765.22,-70.16"/>
<polygon fill="#00b3ff" stroke="#00b3ff" stroke-width="2" points="1768.71,-69.92 1764.82,-60.06 1761.72,-70.19 1768.71,-69.92"/>
<text text-anchor="middle" x="1781.5" y="-112" font-family="SF Pro Text Bold 10" font-size="15.00">%21</text>
</g>
</g>
</svg>
