<?xml version="1.0" encoding="UTF-8" standalone="no"?>
<!DOCTYPE svg PUBLIC "-//W3C//DTD SVG 1.1//EN"
 "http://www.w3.org/Graphics/SVG/1.1/DTD/svg11.dtd">
<!-- Generated by graphviz version 2.43.0 (0)
 -->
<!-- Title: examples/factO1/fact.c Pages: 1 -->
<svg width="1955pt" height="1691pt"
 viewBox="0.00 0.00 1954.60 1691.20" xmlns="http://www.w3.org/2000/svg" xmlns:xlink="http://www.w3.org/1999/xlink">
<g id="graph0" class="graph" transform="scale(1 1) rotate(0) translate(21.6 1669.6)">
<title>examples/factO1/fact.c</title>
<polygon fill="white" stroke="transparent" points="-21.6,21.6 -21.6,-1669.6 1933,-1669.6 1933,21.6 -21.6,21.6"/>
<g id="clust1" class="cluster">
<title>cluster_1101278241130363025</title>
<path fill="#e3e3e3" stroke="#000000" stroke-width="2" d="M940,-784C940,-784 1819,-784 1819,-784 1825,-784 1831,-790 1831,-796 1831,-796 1831,-1628 1831,-1628 1831,-1634 1825,-1640 1819,-1640 1819,-1640 940,-1640 940,-1640 934,-1640 928,-1634 928,-1628 928,-1628 928,-796 928,-796 928,-790 934,-784 940,-784"/>
<text text-anchor="start" x="936" y="-1626.6" font-family="SF Pro Text Bold 10" font-weight="bold" font-size="13.00">fact</text>
</g>
<g id="clust2" class="cluster">
<title>cluster_1_1</title>
<path fill="#a4a4a4" stroke="#000000" stroke-width="2" d="M1549,-1461C1549,-1461 1603,-1461 1603,-1461 1609,-1461 1615,-1467 1615,-1473 1615,-1473 1615,-1598 1615,-1598 1615,-1604 1609,-1610 1603,-1610 1603,-1610 1549,-1610 1549,-1610 1543,-1610 1537,-1604 1537,-1598 1537,-1598 1537,-1473 1537,-1473 1537,-1467 1543,-1461 1549,-1461"/>
</g>
<g id="clust3" class="cluster">
<title>cluster_1_2</title>
<path fill="#a4a4a4" stroke="#000000" stroke-width="2" d="M1026,-889C1026,-889 1597,-889 1597,-889 1603,-889 1609,-895 1609,-901 1609,-901 1609,-1404 1609,-1404 1609,-1410 1603,-1416 1597,-1416 1597,-1416 1026,-1416 1026,-1416 1020,-1416 1014,-1410 1014,-1404 1014,-1404 1014,-901 1014,-901 1014,-895 1020,-889 1026,-889"/>
</g>
<g id="clust4" class="cluster">
<title>cluster_1_3</title>
<path fill="#a4a4a4" stroke="#000000" stroke-width="2" d="M1629,-792C1629,-792 1728,-792 1728,-792 1734,-792 1740,-798 1740,-804 1740,-804 1740,-1123 1740,-1123 1740,-1129 1734,-1135 1728,-1135 1728,-1135 1629,-1135 1629,-1135 1623,-1135 1617,-1129 1617,-1123 1617,-1123 1617,-804 1617,-804 1617,-798 1623,-792 1629,-792"/>
</g>
<g id="clust5" class="cluster">
<title>cluster_1_4</title>
<path fill="#a4a4a4" stroke="#000000" stroke-width="2" d="M948,-889C948,-889 994,-889 994,-889 1000,-889 1006,-895 1006,-901 1006,-901 1006,-1123 1006,-1123 1006,-1129 1000,-1135 994,-1135 994,-1135 948,-1135 948,-1135 942,-1135 936,-1129 936,-1123 936,-1123 936,-901 936,-901 936,-895 942,-889 948,-889"/>
</g>
<g id="clust6" class="cluster">
<title>cluster_11868120863286193964</title>
<path fill="#e3e3e3" stroke="#000000" stroke-width="2" d="M20,-8C20,-8 908,-8 908,-8 914,-8 920,-14 920,-20 920,-20 920,-1628 920,-1628 920,-1634 914,-1640 908,-1640 908,-1640 20,-1640 20,-1640 14,-1640 8,-1634 8,-1628 8,-1628 8,-20 8,-20 8,-14 14,-8 20,-8"/>
<text text-anchor="start" x="16" y="-1626.6" font-family="SF Pro Text Bold 10" font-weight="bold" font-size="13.00">main</text>
</g>
<g id="clust11" class="cluster">
<title>cluster_2_5</title>
<path fill="#a4a4a4" stroke="#000000" stroke-width="2" d="M28,-210C28,-210 117,-210 117,-210 123,-210 129,-216 129,-222 129,-222 129,-1404 129,-1404 129,-1410 123,-1416 117,-1416 117,-1416 28,-1416 28,-1416 22,-1416 16,-1410 16,-1404 16,-1404 16,-222 16,-222 16,-216 22,-210 28,-210"/>
</g>
<g id="clust7" class="cluster">
<title>cluster_2_1</title>
<path fill="#a4a4a4" stroke="#000000" stroke-width="2" d="M488,-1364C488,-1364 731,-1364 731,-1364 737,-1364 743,-1370 743,-1376 743,-1376 743,-1598 743,-1598 743,-1604 737,-1610 731,-1610 731,-1610 488,-1610 488,-1610 482,-1610 476,-1604 476,-1598 476,-1598 476,-1376 476,-1376 476,-1370 482,-1364 488,-1364"/>
</g>
<g id="clust8" class="cluster">
<title>cluster_2_2</title>
<path fill="#a4a4a4" stroke="#000000" stroke-width="2" d="M836,-210C836,-210 900,-210 900,-210 906,-210 912,-216 912,-222 912,-222 912,-1404 912,-1404 912,-1410 906,-1416 900,-1416 900,-1416 836,-1416 836,-1416 830,-1416 824,-1410 824,-1404 824,-1404 824,-222 824,-222 824,-216 830,-210 836,-210"/>
</g>
<g id="clust9" class="cluster">
<title>cluster_2_3</title>
<path fill="#a4a4a4" stroke="#000000" stroke-width="2" d="M149,-986C149,-986 384,-986 384,-986 390,-986 396,-992 396,-998 396,-998 396,-1404 396,-1404 396,-1410 390,-1416 384,-1416 384,-1416 149,-1416 149,-1416 143,-1416 137,-1410 137,-1404 137,-1404 137,-998 137,-998 137,-992 143,-986 149,-986"/>
</g>
<g id="clust10" class="cluster">
<title>cluster_2_4</title>
<path fill="#a4a4a4" stroke="#000000" stroke-width="2" d="M416,-210C416,-210 804,-210 804,-210 810,-210 816,-216 816,-222 816,-222 816,-1026 816,-1026 816,-1032 810,-1038 804,-1038 804,-1038 416,-1038 416,-1038 410,-1038 404,-1032 404,-1026 404,-1026 404,-222 404,-222 404,-216 410,-210 416,-210"/>
</g>
<g id="clust12" class="cluster">
<title>cluster_2_6</title>
<path fill="#a4a4a4" stroke="#000000" stroke-width="2" d="M733,-16C733,-16 855,-16 855,-16 861,-16 867,-22 867,-28 867,-28 867,-153 867,-153 867,-159 861,-165 855,-165 855,-165 733,-165 733,-165 727,-165 721,-159 721,-153 721,-153 721,-28 721,-28 721,-22 727,-16 733,-16"/>
</g>
<!-- n0x5edaa6915ee0 -->
<g id="node1" class="node">
<title>n0x5edaa6915ee0</title>
<path fill="#e8eef9" stroke="#1f1d31" d="M1589,-1505C1589,-1505 1559,-1505 1559,-1505 1553,-1505 1547,-1499 1547,-1493 1547,-1493 1547,-1481 1547,-1481 1547,-1475 1553,-1469 1559,-1469 1559,-1469 1589,-1469 1589,-1469 1595,-1469 1601,-1475 1601,-1481 1601,-1481 1601,-1493 1601,-1493 1601,-1499 1595,-1505 1589,-1505"/>
<text text-anchor="middle" x="1574" y="-1484.2" font-family="SF Pro Text Bold 10" font-size="11.00" fill="#000000">br</text>
</g>
<!-- n0x5edaa68ceef8 -->
<g id="node3" class="node">
<title>n0x5edaa68ceef8</title>
<path fill="#e8eef9" stroke="#1f1d31" d="M1589,-1408C1589,-1408 1559,-1408 1559,-1408 1553,-1408 1547,-1402 1547,-1396 1547,-1396 1547,-1384 1547,-1384 1547,-1378 1553,-1372 1559,-1372 1559,-1372 1589,-1372 1589,-1372 1595,-1372 1601,-1378 1601,-1384 1601,-1384 1601,-1396 1601,-1396 1601,-1402 1595,-1408 1589,-1408"/>
<text text-anchor="middle" x="1574" y="-1387.2" font-family="SF Pro Text Bold 10" font-size="11.00" fill="#000000">phi</text>
</g>
<!-- n0x5edaa6915ee0&#45;&gt;n0x5edaa68ceef8 -->
<g id="edge30" class="edge">
<title>n0x5edaa6915ee0&#45;&gt;n0x5edaa68ceef8</title>
<path fill="none" stroke="#ea00ff" stroke-width="5" d="M1574,-1468.58C1574,-1454.65 1574,-1434.86 1574,-1418.76"/>
<polygon fill="#ea00ff" stroke="#ea00ff" stroke-width="5" points="1578.38,-1418.31 1574,-1408.31 1569.63,-1418.31 1578.38,-1418.31"/>
<text text-anchor="middle" x="1586.5" y="-1436" font-family="SF Pro Text Bold 10" font-size="10.00">i64 1</text>
</g>
<!-- n0x5edaa690d0d8 -->
<g id="node4" class="node">
<title>n0x5edaa690d0d8</title>
<path fill="#e8eef9" stroke="#1f1d31" d="M1503,-1321C1503,-1321 1473,-1321 1473,-1321 1467,-1321 1461,-1315 1461,-1309 1461,-1309 1461,-1297 1461,-1297 1461,-1291 1467,-1285 1473,-1285 1473,-1285 1503,-1285 1503,-1285 1509,-1285 1515,-1291 1515,-1297 1515,-1297 1515,-1309 1515,-1309 1515,-1315 1509,-1321 1503,-1321"/>
<text text-anchor="middle" x="1488" y="-1300.2" font-family="SF Pro Text Bold 10" font-size="11.00" fill="#000000">phi</text>
</g>
<!-- n0x5edaa6915ee0&#45;&gt;n0x5edaa690d0d8 -->
<g id="edge32" class="edge">
<title>n0x5edaa6915ee0&#45;&gt;n0x5edaa690d0d8</title>
<path fill="none" stroke="#ea00ff" stroke-width="5" d="M1548.64,-1468.93C1532.15,-1456.35 1511.78,-1437.7 1501,-1416 1487.79,-1389.39 1485.67,-1354.97 1486.14,-1331.35"/>
<polygon fill="#ea00ff" stroke="#ea00ff" stroke-width="5" points="1490.51,-1331.48 1486.5,-1321.33 1481.77,-1331.16 1490.51,-1331.48"/>
<text text-anchor="middle" x="1518" y="-1387.5" font-family="SF Pro Text Bold 10" font-size="10.00">i64 %0</text>
</g>
<!-- n0x5edaa67e4650 -->
<g id="node2" class="node">
<title>n0x5edaa67e4650</title>
<path fill="#00eef9" stroke="#1f1d31" d="M1595,-1602C1595,-1602 1557,-1602 1557,-1602 1551,-1602 1545,-1596 1545,-1590 1545,-1590 1545,-1578 1545,-1578 1545,-1572 1551,-1566 1557,-1566 1557,-1566 1595,-1566 1595,-1566 1601,-1566 1607,-1572 1607,-1578 1607,-1578 1607,-1590 1607,-1590 1607,-1596 1601,-1602 1595,-1602"/>
<text text-anchor="middle" x="1576" y="-1581.2" font-family="SF Pro Text Bold 10" font-size="11.00" fill="#000000">label %2</text>
</g>
<!-- n0x5edaa67e4650&#45;&gt;n0x5edaa6915ee0 -->
<g id="edge1" class="edge">
<title>n0x5edaa67e4650&#45;&gt;n0x5edaa6915ee0</title>
<path fill="none" stroke="#00ff00" d="M1575.63,-1565.58C1575.34,-1551.65 1574.92,-1531.86 1574.58,-1515.76"/>
<polygon fill="#00ff00" stroke="#00ff00" points="1578.07,-1515.24 1574.36,-1505.31 1571.08,-1515.39 1578.07,-1515.24"/>
<text text-anchor="middle" x="1583" y="-1533" font-family="SF Pro Text Bold 10" font-size="10.00">%2</text>
</g>
<!-- n0x5edaa6905340 -->
<g id="node13" class="node">
<title>n0x5edaa6905340</title>
<path fill="#e8eef9" stroke="#1f1d31" d="M1720,-836C1720,-836 1690,-836 1690,-836 1684,-836 1678,-830 1678,-824 1678,-824 1678,-812 1678,-812 1678,-806 1684,-800 1690,-800 1690,-800 1720,-800 1720,-800 1726,-800 1732,-806 1732,-812 1732,-812 1732,-824 1732,-824 1732,-830 1726,-836 1720,-836"/>
<text text-anchor="middle" x="1705" y="-815.2" font-family="SF Pro Text Bold 10" font-size="11.00" fill="#000000">br</text>
</g>
<!-- n0x5edaa67e4650&#45;&gt;n0x5edaa6905340 -->
<g id="edge24" class="edge">
<title>n0x5edaa67e4650&#45;&gt;n0x5edaa6905340</title>
<path fill="none" stroke="#00ff00" d="M1607.15,-1583.8C1670.21,-1583.63 1807,-1573.43 1807,-1488 1807,-1488 1807,-1488 1807,-1253.5 1807,-1168.07 1816,-1146.93 1816,-1061.5 1816,-1061.5 1816,-1061.5 1816,-914 1816,-890.34 1825.2,-879.92 1811,-861 1794.85,-839.49 1765.98,-828.98 1742.44,-823.85"/>
<polygon fill="#00ff00" stroke="#00ff00" points="1742.88,-820.37 1732.4,-821.91 1741.56,-827.25 1742.88,-820.37"/>
<text text-anchor="middle" x="1817" y="-1203.5" font-family="SF Pro Text Bold 10" font-size="10.00">%2</text>
</g>
<!-- n0x5edaa68ceef8&#45;&gt;n0x5edaa690d0d8 -->
<g id="edge2" class="edge">
<title>n0x5edaa68ceef8&#45;&gt;n0x5edaa690d0d8</title>
<path fill="none" stroke="#ff0000" stroke-width="3" d="M1556.6,-1371.8C1544.01,-1359.36 1526.82,-1342.36 1512.79,-1328.5"/>
<polygon fill="#ff0000" stroke="#ff0000" stroke-width="3" points="1514.95,-1325.72 1505.38,-1321.18 1510.03,-1330.69 1514.95,-1325.72"/>
</g>
<!-- n0x5edaa691a040 -->
<g id="node7" class="node">
<title>n0x5edaa691a040</title>
<path fill="#e8eef9" stroke="#1f1d31" d="M1155,-1030C1155,-1030 1125,-1030 1125,-1030 1119,-1030 1113,-1024 1113,-1018 1113,-1018 1113,-1006 1113,-1006 1113,-1000 1119,-994 1125,-994 1125,-994 1155,-994 1155,-994 1161,-994 1167,-1000 1167,-1006 1167,-1006 1167,-1018 1167,-1018 1167,-1024 1161,-1030 1155,-1030"/>
<text text-anchor="middle" x="1140" y="-1009.2" font-family="SF Pro Text Bold 10" font-size="11.00" fill="#000000">mul</text>
</g>
<!-- n0x5edaa68ceef8&#45;&gt;n0x5edaa691a040 -->
<g id="edge5" class="edge">
<title>n0x5edaa68ceef8&#45;&gt;n0x5edaa691a040</title>
<path fill="none" stroke="#0000ff" d="M1552.9,-1371.75C1549.06,-1368.98 1545,-1366.28 1541,-1364 1522.65,-1353.53 1517.47,-1351.24 1497,-1346 1328.84,-1302.98 1208.97,-1376.46 1126,-1224 1093.74,-1164.72 1115.03,-1081.76 1129.6,-1039.71"/>
<polygon fill="#0000ff" stroke="#0000ff" points="1132.94,-1040.77 1133.03,-1030.18 1126.35,-1038.4 1132.94,-1040.77"/>
<text text-anchor="middle" x="1134" y="-1203.5" font-family="SF Pro Text Bold 10" font-size="10.00">%3</text>
</g>
<!-- n0x5edaa68ceef8&#45;&gt;n0x5edaa691a040 -->
<g id="edge27" class="edge">
<title>n0x5edaa68ceef8&#45;&gt;n0x5edaa691a040</title>
<path fill="none" stroke="#00ff00" d="M1554.81,-1371.81C1550.51,-1368.75 1545.8,-1365.93 1541,-1364 1385.71,-1301.72 1313,-1402.73 1167,-1321 1119.21,-1294.25 1108.87,-1275.77 1091,-1224 1068.57,-1159 1103.18,-1079.21 1124.79,-1038.92"/>
<polygon fill="#00ff00" stroke="#00ff00" points="1127.93,-1040.47 1129.7,-1030.02 1121.8,-1037.09 1127.93,-1040.47"/>
<text text-anchor="middle" x="1099" y="-1203.5" font-family="SF Pro Text Bold 10" font-size="10.00">%3</text>
</g>
<!-- n0x5edaa6915c20 -->
<g id="node8" class="node">
<title>n0x5edaa6915c20</title>
<path fill="#e8eef9" stroke="#1f1d31" d="M1546,-933C1546,-933 1516,-933 1516,-933 1510,-933 1504,-927 1504,-921 1504,-921 1504,-909 1504,-909 1504,-903 1510,-897 1516,-897 1516,-897 1546,-897 1546,-897 1552,-897 1558,-903 1558,-909 1558,-909 1558,-921 1558,-921 1558,-927 1552,-933 1546,-933"/>
<text text-anchor="middle" x="1531" y="-912.2" font-family="SF Pro Text Bold 10" font-size="11.00" fill="#000000">mul</text>
</g>
<!-- n0x5edaa68ceef8&#45;&gt;n0x5edaa6915c20 -->
<g id="edge6" class="edge">
<title>n0x5edaa68ceef8&#45;&gt;n0x5edaa6915c20</title>
<path fill="none" stroke="#0000ff" d="M1566.83,-1371.68C1548.24,-1326.47 1499.46,-1205.44 1492,-1163 1491.15,-1158.18 1490.72,-1156.72 1492,-1152 1494.3,-1143.54 1498.32,-1142.96 1502,-1135 1515.63,-1105.53 1520.06,-1097.92 1526,-1066 1533.86,-1023.79 1533.67,-973.78 1532.54,-943.49"/>
<polygon fill="#0000ff" stroke="#0000ff" points="1536.03,-943.12 1532.1,-933.28 1529.03,-943.42 1536.03,-943.12"/>
<text text-anchor="middle" x="1500" y="-1155" font-family="SF Pro Text Bold 10" font-size="10.00">%3</text>
</g>
<!-- n0x5edaa68ceef8&#45;&gt;n0x5edaa6915c20 -->
<g id="edge22" class="edge">
<title>n0x5edaa68ceef8&#45;&gt;n0x5edaa6915c20</title>
<path fill="none" stroke="#00ff00" d="M1574.15,-1371.99C1574.59,-1302.24 1574.78,-1038.06 1553,-958 1551.58,-952.77 1549.43,-947.46 1547.03,-942.44"/>
<polygon fill="#00ff00" stroke="#00ff00" points="1549.97,-940.51 1542.22,-933.28 1543.77,-943.76 1549.97,-940.51"/>
<text text-anchor="middle" x="1579" y="-1155" font-family="SF Pro Text Bold 10" font-size="10.00">%3</text>
</g>
<!-- n0x5edaa6771490 -->
<g id="node5" class="node">
<title>n0x5edaa6771490</title>
<path fill="#e8eef9" stroke="#1f1d31" d="M1373,-1224C1373,-1224 1343,-1224 1343,-1224 1337,-1224 1331,-1218 1331,-1212 1331,-1212 1331,-1200 1331,-1200 1331,-1194 1337,-1188 1343,-1188 1343,-1188 1373,-1188 1373,-1188 1379,-1188 1385,-1194 1385,-1200 1385,-1200 1385,-1212 1385,-1212 1385,-1218 1379,-1224 1373,-1224"/>
<text text-anchor="middle" x="1358" y="-1203.2" font-family="SF Pro Text Bold 10" font-size="11.00" fill="#000000">icmp</text>
</g>
<!-- n0x5edaa690d0d8&#45;&gt;n0x5edaa6771490 -->
<g id="edge3" class="edge">
<title>n0x5edaa690d0d8&#45;&gt;n0x5edaa6771490</title>
<path fill="none" stroke="#ff0000" stroke-width="3" d="M1460.88,-1299.15C1434.79,-1294.97 1395.99,-1284.77 1373,-1260 1366.48,-1252.97 1362.76,-1243.32 1360.66,-1234.18"/>
<polygon fill="#ff0000" stroke="#ff0000" stroke-width="3" points="1364.09,-1233.47 1358.9,-1224.24 1357.19,-1234.69 1364.09,-1233.47"/>
</g>
<!-- n0x5edaa690d0d8&#45;&gt;n0x5edaa6771490 -->
<g id="edge7" class="edge">
<title>n0x5edaa690d0d8&#45;&gt;n0x5edaa6771490</title>
<path fill="none" stroke="#0000ff" d="M1460.87,-1293.3C1441.92,-1286.32 1416.76,-1275.19 1398,-1260 1388.53,-1252.34 1380.07,-1241.97 1373.39,-1232.44"/>
<polygon fill="#0000ff" stroke="#0000ff" points="1376.24,-1230.4 1367.78,-1224.02 1370.41,-1234.28 1376.24,-1230.4"/>
<text text-anchor="middle" x="1406" y="-1252" font-family="SF Pro Text Bold 10" font-size="10.00">%4</text>
</g>
<!-- n0x5edaa690d0d8&#45;&gt;n0x5edaa6771490 -->
<g id="edge11" class="edge">
<title>n0x5edaa690d0d8&#45;&gt;n0x5edaa6771490</title>
<path fill="none" stroke="#00ff00" d="M1460.87,-1298C1423.18,-1291.82 1358.02,-1278.7 1344,-1260 1338.3,-1252.4 1339.17,-1242.66 1342.37,-1233.61"/>
<polygon fill="#00ff00" stroke="#00ff00" points="1345.69,-1234.75 1346.54,-1224.19 1339.29,-1231.92 1345.69,-1234.75"/>
<text text-anchor="middle" x="1352" y="-1252" font-family="SF Pro Text Bold 10" font-size="10.00">%4</text>
</g>
<!-- n0x5edaa690d0d8&#45;&gt;n0x5edaa6915c20 -->
<g id="edge8" class="edge">
<title>n0x5edaa690d0d8&#45;&gt;n0x5edaa6915c20</title>
<path fill="none" stroke="#0000ff" d="M1484.4,-1284.74C1482.15,-1274.35 1479.11,-1260.86 1476,-1249 1457.79,-1179.52 1425.26,-1160.85 1442,-1091 1455.65,-1034.04 1491.08,-974.7 1512.9,-941.83"/>
<polygon fill="#0000ff" stroke="#0000ff" points="1515.97,-943.54 1518.66,-933.29 1510.16,-939.62 1515.97,-943.54"/>
<text text-anchor="middle" x="1450" y="-1106.5" font-family="SF Pro Text Bold 10" font-size="10.00">%4</text>
</g>
<!-- n0x5edaa690d0d8&#45;&gt;n0x5edaa6915c20 -->
<g id="edge23" class="edge">
<title>n0x5edaa690d0d8&#45;&gt;n0x5edaa6915c20</title>
<path fill="none" stroke="#00ff00" d="M1487.22,-1284.76C1486.62,-1274.37 1485.62,-1260.89 1484,-1249 1478.75,-1210.39 1470.8,-1201.78 1467,-1163 1466.52,-1158.13 1466.35,-1156.85 1467,-1152 1472.46,-1110.97 1506.74,-995.52 1522.76,-942.82"/>
<polygon fill="#00ff00" stroke="#00ff00" points="1526.14,-943.75 1525.71,-933.16 1519.44,-941.71 1526.14,-943.75"/>
<text text-anchor="middle" x="1488" y="-1106.5" font-family="SF Pro Text Bold 10" font-size="10.00">%4</text>
</g>
<!-- n0x5edaa6915d80 -->
<g id="node9" class="node">
<title>n0x5edaa6915d80</title>
<path fill="#e8eef9" stroke="#1f1d31" d="M1234,-1030C1234,-1030 1204,-1030 1204,-1030 1198,-1030 1192,-1024 1192,-1018 1192,-1018 1192,-1006 1192,-1006 1192,-1000 1198,-994 1204,-994 1204,-994 1234,-994 1234,-994 1240,-994 1246,-1000 1246,-1006 1246,-1006 1246,-1018 1246,-1018 1246,-1024 1240,-1030 1234,-1030"/>
<text text-anchor="middle" x="1219" y="-1009.2" font-family="SF Pro Text Bold 10" font-size="11.00" fill="#000000">add</text>
</g>
<!-- n0x5edaa690d0d8&#45;&gt;n0x5edaa6915d80 -->
<g id="edge9" class="edge">
<title>n0x5edaa690d0d8&#45;&gt;n0x5edaa6915d80</title>
<path fill="none" stroke="#0000ff" d="M1475,-1284.73C1469.55,-1277.26 1463.27,-1268.33 1458,-1260 1438.44,-1229.06 1441.79,-1215.82 1418,-1188 1406.27,-1174.28 1398.64,-1175.89 1386,-1163 1375.11,-1151.89 1372.09,-1148.85 1365,-1135 1348.02,-1101.84 1365.93,-1081.75 1340,-1055 1317.93,-1032.24 1282.92,-1021.8 1256.22,-1017.02"/>
<polygon fill="#0000ff" stroke="#0000ff" points="1256.5,-1013.52 1246.07,-1015.4 1255.4,-1020.44 1256.5,-1013.52"/>
<text text-anchor="middle" x="1394" y="-1155" font-family="SF Pro Text Bold 10" font-size="10.00">%4</text>
</g>
<!-- n0x5edaa690d0d8&#45;&gt;n0x5edaa6915d80 -->
<g id="edge19" class="edge">
<title>n0x5edaa690d0d8&#45;&gt;n0x5edaa6915d80</title>
<path fill="none" stroke="#00ff00" d="M1481.75,-1284.67C1473.1,-1261.68 1456.23,-1220.25 1436,-1188 1427.86,-1175.03 1399.31,-1148.45 1392,-1135 1374.21,-1102.27 1393.69,-1080.99 1367,-1055 1337.39,-1026.16 1289.5,-1016.84 1256.24,-1013.98"/>
<polygon fill="#00ff00" stroke="#00ff00" points="1256.22,-1010.47 1246,-1013.26 1255.73,-1017.45 1256.22,-1010.47"/>
<text text-anchor="middle" x="1422" y="-1155" font-family="SF Pro Text Bold 10" font-size="10.00">%4</text>
</g>
<!-- n0x5edaa682fd70 -->
<g id="node6" class="node">
<title>n0x5edaa682fd70</title>
<path fill="#e8eef9" stroke="#1f1d31" d="M1234,-1127C1234,-1127 1204,-1127 1204,-1127 1198,-1127 1192,-1121 1192,-1115 1192,-1115 1192,-1103 1192,-1103 1192,-1097 1198,-1091 1204,-1091 1204,-1091 1234,-1091 1234,-1091 1240,-1091 1246,-1097 1246,-1103 1246,-1103 1246,-1115 1246,-1115 1246,-1121 1240,-1127 1234,-1127"/>
<text text-anchor="middle" x="1219" y="-1106.2" font-family="SF Pro Text Bold 10" font-size="11.00" fill="#000000">br</text>
</g>
<!-- n0x5edaa6771490&#45;&gt;n0x5edaa682fd70 -->
<g id="edge4" class="edge">
<title>n0x5edaa6771490&#45;&gt;n0x5edaa682fd70</title>
<path fill="none" stroke="#ff0000" stroke-width="3" d="M1330.66,-1192.77C1326.46,-1191.07 1322.14,-1189.42 1318,-1188 1277.12,-1173.95 1251.93,-1196 1224,-1163 1218.08,-1156 1215.99,-1146.47 1215.66,-1137.42"/>
<polygon fill="#ff0000" stroke="#ff0000" stroke-width="3" points="1219.17,-1137.29 1215.96,-1127.2 1212.17,-1137.09 1219.17,-1137.29"/>
</g>
<!-- n0x5edaa6771490&#45;&gt;n0x5edaa682fd70 -->
<g id="edge10" class="edge">
<title>n0x5edaa6771490&#45;&gt;n0x5edaa682fd70</title>
<path fill="none" stroke="#0000ff" d="M1330.97,-1193.28C1326.65,-1191.47 1322.21,-1189.66 1318,-1188 1287.65,-1176.06 1273.91,-1184.05 1249,-1163 1240.64,-1155.94 1234.14,-1145.92 1229.36,-1136.5"/>
<polygon fill="#0000ff" stroke="#0000ff" points="1232.52,-1135 1225.14,-1127.4 1226.17,-1137.94 1232.52,-1135"/>
<text text-anchor="middle" x="1257" y="-1155" font-family="SF Pro Text Bold 10" font-size="10.00">%5</text>
</g>
<!-- n0x5edaa6771490&#45;&gt;n0x5edaa682fd70 -->
<g id="edge13" class="edge">
<title>n0x5edaa6771490&#45;&gt;n0x5edaa682fd70</title>
<path fill="none" stroke="#00ff00" d="M1332.17,-1187.96C1320.74,-1180.37 1307.16,-1171.29 1295,-1163 1280.72,-1153.26 1265.03,-1142.36 1251.64,-1132.99"/>
<polygon fill="#00ff00" stroke="#00ff00" points="1253.41,-1129.95 1243.21,-1127.08 1249.39,-1135.68 1253.41,-1129.95"/>
<text text-anchor="middle" x="1303" y="-1155" font-family="SF Pro Text Bold 10" font-size="10.00">%5</text>
</g>
<!-- n0x5edaa682fd70&#45;&gt;n0x5edaa691a040 -->
<g id="edge35" class="edge">
<title>n0x5edaa682fd70&#45;&gt;n0x5edaa691a040</title>
<path fill="none" stroke="#ea00ff" stroke-width="5" d="M1204.51,-1090.58C1192.26,-1075.84 1174.56,-1054.56 1160.8,-1038.01"/>
<polygon fill="#ea00ff" stroke="#ea00ff" stroke-width="5" points="1164.16,-1035.21 1154.4,-1030.31 1157.43,-1040.8 1164.16,-1035.21"/>
</g>
<!-- n0x5edaa682fd70&#45;&gt;n0x5edaa6915d80 -->
<g id="edge34" class="edge">
<title>n0x5edaa682fd70&#45;&gt;n0x5edaa6915d80</title>
<path fill="none" stroke="#ea00ff" stroke-width="5" d="M1219,-1090.58C1219,-1076.65 1219,-1056.86 1219,-1040.76"/>
<polygon fill="#ea00ff" stroke="#ea00ff" stroke-width="5" points="1223.38,-1040.31 1219,-1030.31 1214.63,-1040.31 1223.38,-1040.31"/>
</g>
<!-- n0x5edaa69162f0 -->
<g id="node15" class="node">
<title>n0x5edaa69162f0</title>
<path fill="#e8eef9" stroke="#1f1d31" d="M986,-933C986,-933 956,-933 956,-933 950,-933 944,-927 944,-921 944,-921 944,-909 944,-909 944,-903 950,-897 956,-897 956,-897 986,-897 986,-897 992,-897 998,-903 998,-909 998,-909 998,-921 998,-921 998,-927 992,-933 986,-933"/>
<text text-anchor="middle" x="971" y="-912.2" font-family="SF Pro Text Bold 10" font-size="11.00" fill="#000000">ret</text>
</g>
<!-- n0x5edaa691a040&#45;&gt;n0x5edaa69162f0 -->
<g id="edge25" class="edge">
<title>n0x5edaa691a040&#45;&gt;n0x5edaa69162f0</title>
<path fill="none" stroke="#ff0000" stroke-width="3" d="M1141.73,-994C1141.93,-982.36 1140.09,-967.39 1131,-958 1092.2,-917.92 1061.03,-950.32 1008,-933 1007.9,-932.97 1007.8,-932.93 1007.7,-932.9"/>
<polygon fill="#ff0000" stroke="#ff0000" stroke-width="3" points="1008.79,-929.57 998.2,-929.35 1006.34,-936.13 1008.79,-929.57"/>
</g>
<!-- n0x5edaa691a040&#45;&gt;n0x5edaa69162f0 -->
<g id="edge26" class="edge">
<title>n0x5edaa691a040&#45;&gt;n0x5edaa69162f0</title>
<path fill="none" stroke="#0000ff" d="M1120.11,-993.96C1116.51,-991.17 1112.72,-988.4 1109,-986 1091.01,-974.37 1041.86,-950.05 1007.37,-933.38"/>
<polygon fill="#0000ff" stroke="#0000ff" points="1008.6,-930.09 998.07,-928.9 1005.56,-936.39 1008.6,-930.09"/>
<text text-anchor="middle" x="1086.5" y="-961" font-family="SF Pro Text Bold 10" font-size="10.00">%10</text>
</g>
<!-- n0x5edaa691a040&#45;&gt;n0x5edaa69162f0 -->
<g id="edge29" class="edge">
<title>n0x5edaa691a040&#45;&gt;n0x5edaa69162f0</title>
<path fill="none" stroke="#00ff00" d="M1119.06,-993.97C1115.71,-991.28 1112.27,-988.55 1109,-986 1092.75,-973.3 1090,-968.07 1072,-958 1045.35,-943.09 1036.11,-944.94 1008,-933 1007.9,-932.96 1007.8,-932.92 1007.71,-932.88"/>
<polygon fill="#00ff00" stroke="#00ff00" points="1008.96,-929.61 998.4,-928.8 1006.16,-936.02 1008.96,-929.61"/>
<text text-anchor="middle" x="1098.5" y="-961" font-family="SF Pro Text Bold 10" font-size="10.00">%10</text>
</g>
<!-- n0x5edaa6915c20&#45;&gt;n0x5edaa68ceef8 -->
<g id="edge21" class="edge">
<title>n0x5edaa6915c20&#45;&gt;n0x5edaa68ceef8</title>
<path fill="none" stroke="#0000ff" d="M1558.2,-932.44C1566.82,-939.19 1575.32,-947.82 1580,-958 1616.12,-1036.54 1586.13,-1260.77 1580,-1347 1579.66,-1351.76 1579.11,-1356.79 1578.48,-1361.67"/>
<polygon fill="#0000ff" stroke="#0000ff" points="1574.96,-1361.5 1577,-1371.89 1581.89,-1362.49 1574.96,-1361.5"/>
<text text-anchor="middle" x="1603" y="-1155" font-family="SF Pro Text Bold 10" font-size="10.00">%8</text>
</g>
<!-- n0x5edaa6915c20&#45;&gt;n0x5edaa6905340 -->
<g id="edge17" class="edge">
<title>n0x5edaa6915c20&#45;&gt;n0x5edaa6905340</title>
<path fill="none" stroke="#ff0000" stroke-width="3" d="M1558.19,-899.16C1587.98,-882.89 1635.91,-856.72 1668.85,-838.74"/>
<polygon fill="#ff0000" stroke="#ff0000" stroke-width="3" points="1670.62,-841.76 1677.72,-833.9 1667.26,-835.62 1670.62,-841.76"/>
</g>
<!-- n0x5edaa6915d80&#45;&gt;n0x5edaa690d0d8 -->
<g id="edge18" class="edge">
<title>n0x5edaa6915d80&#45;&gt;n0x5edaa690d0d8</title>
<path fill="none" stroke="#0000ff" d="M1246.23,-1019.09C1267.03,-1025.03 1295.08,-1036.03 1313,-1055 1348.25,-1092.33 1320.59,-1124.01 1354,-1163 1368.63,-1180.08 1382.52,-1171.68 1398,-1188 1410.31,-1200.98 1406.33,-1208.95 1416,-1224 1428.72,-1243.81 1446.67,-1263.27 1461.47,-1277.8"/>
<polygon fill="#0000ff" stroke="#0000ff" points="1459.24,-1280.51 1468.87,-1284.92 1464.09,-1275.46 1459.24,-1280.51"/>
<text text-anchor="middle" x="1361.5" y="-1155" font-family="SF Pro Text Bold 10" font-size="10.00">%7</text>
</g>
<!-- n0x5edaa6915d80&#45;&gt;n0x5edaa6915c20 -->
<g id="edge16" class="edge">
<title>n0x5edaa6915d80&#45;&gt;n0x5edaa6915c20</title>
<path fill="none" stroke="#ff0000" stroke-width="3" d="M1246.14,-1002.74C1302.15,-985.68 1430.6,-946.57 1494.09,-927.24"/>
<polygon fill="#ff0000" stroke="#ff0000" stroke-width="3" points="1495.15,-930.57 1503.7,-924.31 1493.11,-923.88 1495.15,-930.57"/>
</g>
<!-- nconst_0x5edaa6771490_1 -->
<g id="node10" class="node">
<title>nconst_0x5edaa6771490_1</title>
<path fill="#00eef9" stroke="#1f1d31" d="M1330,-1321C1330,-1321 1300,-1321 1300,-1321 1294,-1321 1288,-1315 1288,-1309 1288,-1309 1288,-1297 1288,-1297 1288,-1291 1294,-1285 1300,-1285 1300,-1285 1330,-1285 1330,-1285 1336,-1285 1342,-1291 1342,-1297 1342,-1297 1342,-1309 1342,-1309 1342,-1315 1336,-1321 1330,-1321"/>
<text text-anchor="middle" x="1315" y="-1300.2" font-family="SF Pro Text Bold 10" font-size="11.00" fill="#000000">i64 2</text>
</g>
<!-- nconst_0x5edaa6771490_1&#45;&gt;n0x5edaa6771490 -->
<g id="edge12" class="edge">
<title>nconst_0x5edaa6771490_1&#45;&gt;n0x5edaa6771490</title>
<path fill="none" stroke="#00ff00" d="M1313.92,-1284.6C1313.91,-1273.91 1315.08,-1260.17 1320,-1249 1322.65,-1242.98 1326.52,-1237.23 1330.78,-1232.03"/>
<polygon fill="#00ff00" stroke="#00ff00" points="1333.6,-1234.12 1337.68,-1224.34 1328.39,-1229.45 1333.6,-1234.12"/>
</g>
<!-- n0x5edaa69154e0 -->
<g id="node11" class="node">
<title>n0x5edaa69154e0</title>
<path fill="#00eef9" stroke="#1f1d31" d="M1293.5,-1224C1293.5,-1224 1254.5,-1224 1254.5,-1224 1248.5,-1224 1242.5,-1218 1242.5,-1212 1242.5,-1212 1242.5,-1200 1242.5,-1200 1242.5,-1194 1248.5,-1188 1254.5,-1188 1254.5,-1188 1293.5,-1188 1293.5,-1188 1299.5,-1188 1305.5,-1194 1305.5,-1200 1305.5,-1200 1305.5,-1212 1305.5,-1212 1305.5,-1218 1299.5,-1224 1293.5,-1224"/>
<text text-anchor="middle" x="1274" y="-1203.2" font-family="SF Pro Text Bold 10" font-size="11.00" fill="#000000">label %6</text>
</g>
<!-- n0x5edaa69154e0&#45;&gt;n0x5edaa682fd70 -->
<g id="edge14" class="edge">
<title>n0x5edaa69154e0&#45;&gt;n0x5edaa682fd70</title>
<path fill="none" stroke="#00ff00" d="M1242.19,-1191.88C1223.04,-1183.27 1201.36,-1171.98 1196,-1163 1190.91,-1154.47 1193.19,-1144.62 1197.91,-1135.73"/>
<polygon fill="#00ff00" stroke="#00ff00" points="1200.88,-1137.58 1203.26,-1127.26 1194.96,-1133.85 1200.88,-1137.58"/>
<text text-anchor="middle" x="1204" y="-1155" font-family="SF Pro Text Bold 10" font-size="10.00">%6</text>
</g>
<!-- n0x5edaa6915490 -->
<g id="node12" class="node">
<title>n0x5edaa6915490</title>
<path fill="#00eef9" stroke="#1f1d31" d="M1205.5,-1224C1205.5,-1224 1166.5,-1224 1166.5,-1224 1160.5,-1224 1154.5,-1218 1154.5,-1212 1154.5,-1212 1154.5,-1200 1154.5,-1200 1154.5,-1194 1160.5,-1188 1166.5,-1188 1166.5,-1188 1205.5,-1188 1205.5,-1188 1211.5,-1188 1217.5,-1194 1217.5,-1200 1217.5,-1200 1217.5,-1212 1217.5,-1212 1217.5,-1218 1211.5,-1224 1205.5,-1224"/>
<text text-anchor="middle" x="1186" y="-1203.2" font-family="SF Pro Text Bold 10" font-size="11.00" fill="#000000">label %9</text>
</g>
<!-- n0x5edaa6915490&#45;&gt;n0x5edaa682fd70 -->
<g id="edge15" class="edge">
<title>n0x5edaa6915490&#45;&gt;n0x5edaa682fd70</title>
<path fill="none" stroke="#00ff00" d="M1162.77,-1187.81C1152.02,-1177.66 1143.02,-1164.41 1150,-1152 1157.19,-1139.21 1170.02,-1129.86 1182.69,-1123.27"/>
<polygon fill="#00ff00" stroke="#00ff00" points="1184.26,-1126.4 1191.8,-1118.96 1181.26,-1120.08 1184.26,-1126.4"/>
<text text-anchor="middle" x="1158" y="-1155" font-family="SF Pro Text Bold 10" font-size="10.00">%9</text>
</g>
<!-- n0x5edaa6905340&#45;&gt;n0x5edaa68ceef8 -->
<g id="edge31" class="edge">
<title>n0x5edaa6905340&#45;&gt;n0x5edaa68ceef8</title>
<path fill="none" stroke="#ea00ff" stroke-width="5" d="M1730.53,-836.41C1738.42,-843.14 1746.27,-851.52 1751,-861 1761.56,-882.18 1756,-890.34 1756,-914 1756,-1304 1756,-1304 1756,-1304 1756,-1367.26 1664.61,-1383.55 1611.35,-1387.67"/>
<polygon fill="#ea00ff" stroke="#ea00ff" stroke-width="5" points="1610.93,-1383.31 1601.25,-1388.34 1611.52,-1392.04 1610.93,-1383.31"/>
<text text-anchor="middle" x="1773" y="-1106.5" font-family="SF Pro Text Bold 10" font-size="10.00">i64 %8</text>
</g>
<!-- n0x5edaa6905340&#45;&gt;n0x5edaa690d0d8 -->
<g id="edge33" class="edge">
<title>n0x5edaa6905340&#45;&gt;n0x5edaa690d0d8</title>
<path fill="none" stroke="#ea00ff" stroke-width="5" d="M1705,-836.16C1705,-855.19 1705,-886.79 1705,-914 1705,-1207 1705,-1207 1705,-1207 1705,-1284.56 1587.23,-1299.4 1525.21,-1301.84"/>
<polygon fill="#ea00ff" stroke="#ea00ff" stroke-width="5" points="1524.91,-1297.47 1515.04,-1302.15 1525.17,-1306.22 1524.91,-1297.47"/>
<text text-anchor="middle" x="1722" y="-1058" font-family="SF Pro Text Bold 10" font-size="10.00">i64 %7</text>
</g>
<!-- nconst_0x5edaa6915d80_1 -->
<g id="node14" class="node">
<title>nconst_0x5edaa6915d80_1</title>
<path fill="#00eef9" stroke="#1f1d31" d="M1667,-1127C1667,-1127 1637,-1127 1637,-1127 1631,-1127 1625,-1121 1625,-1115 1625,-1115 1625,-1103 1625,-1103 1625,-1097 1631,-1091 1637,-1091 1637,-1091 1667,-1091 1667,-1091 1673,-1091 1679,-1097 1679,-1103 1679,-1103 1679,-1115 1679,-1115 1679,-1121 1673,-1127 1667,-1127"/>
<text text-anchor="middle" x="1652" y="-1106.2" font-family="SF Pro Text Bold 10" font-size="11.00" fill="#000000">i64 &#45;1</text>
</g>
<!-- nconst_0x5edaa6915d80_1&#45;&gt;n0x5edaa6915d80 -->
<g id="edge20" class="edge">
<title>nconst_0x5edaa6915d80_1&#45;&gt;n0x5edaa6915d80</title>
<path fill="none" stroke="#00ff00" d="M1645.44,-1090.92C1639.82,-1078.77 1630.47,-1063.19 1617,-1055 1556.94,-1018.49 1343.24,-1013.46 1256.25,-1012.95"/>
<polygon fill="#00ff00" stroke="#00ff00" points="1256.06,-1009.45 1246.04,-1012.91 1256.03,-1016.45 1256.06,-1009.45"/>
</g>
<!-- nconst_0x5edaa691a040_1 -->
<g id="node16" class="node">
<title>nconst_0x5edaa691a040_1</title>
<path fill="#00eef9" stroke="#1f1d31" d="M986,-1127C986,-1127 956,-1127 956,-1127 950,-1127 944,-1121 944,-1115 944,-1115 944,-1103 944,-1103 944,-1097 950,-1091 956,-1091 956,-1091 986,-1091 986,-1091 992,-1091 998,-1097 998,-1103 998,-1103 998,-1115 998,-1115 998,-1121 992,-1127 986,-1127"/>
<text text-anchor="middle" x="971" y="-1106.2" font-family="SF Pro Text Bold 10" font-size="11.00" fill="#000000">i64 1</text>
</g>
<!-- nconst_0x5edaa691a040_1&#45;&gt;n0x5edaa691a040 -->
<g id="edge28" class="edge">
<title>nconst_0x5edaa691a040_1&#45;&gt;n0x5edaa691a040</title>
<path fill="none" stroke="#00ff00" d="M998.07,-1095.1C1032.35,-1078.63 1089.32,-1050.73 1109,-1038 1109.93,-1037.4 1110.86,-1036.78 1111.8,-1036.14"/>
<polygon fill="#00ff00" stroke="#00ff00" points="1114.12,-1038.77 1120.11,-1030.04 1109.98,-1033.13 1114.12,-1038.77"/>
</g>
<!-- n0x5edaa6918ba0 -->
<g id="node17" class="node">
<title>n0x5edaa6918ba0</title>
<path fill="#e8eef9" stroke="#1f1d31" d="M703,-1505C703,-1505 673,-1505 673,-1505 667,-1505 661,-1499 661,-1493 661,-1493 661,-1481 661,-1481 661,-1475 667,-1469 673,-1469 673,-1469 703,-1469 703,-1469 709,-1469 715,-1475 715,-1481 715,-1481 715,-1493 715,-1493 715,-1499 709,-1505 703,-1505"/>
<text text-anchor="middle" x="688" y="-1484.2" font-family="SF Pro Text Bold 10" font-size="11.00" fill="#000000">icmp</text>
</g>
<!-- n0x5edaa6918cc0 -->
<g id="node18" class="node">
<title>n0x5edaa6918cc0</title>
<path fill="#e8eef9" stroke="#1f1d31" d="M703,-1408C703,-1408 673,-1408 673,-1408 667,-1408 661,-1402 661,-1396 661,-1396 661,-1384 661,-1384 661,-1378 667,-1372 673,-1372 673,-1372 703,-1372 703,-1372 709,-1372 715,-1378 715,-1384 715,-1384 715,-1396 715,-1396 715,-1402 709,-1408 703,-1408"/>
<text text-anchor="middle" x="688" y="-1387.2" font-family="SF Pro Text Bold 10" font-size="11.00" fill="#000000">br</text>
</g>
<!-- n0x5edaa6918ba0&#45;&gt;n0x5edaa6918cc0 -->
<g id="edge36" class="edge">
<title>n0x5edaa6918ba0&#45;&gt;n0x5edaa6918cc0</title>
<path fill="none" stroke="#ff0000" stroke-width="3" d="M688,-1468.58C688,-1454.65 688,-1434.86 688,-1418.76"/>
<polygon fill="#ff0000" stroke="#ff0000" stroke-width="3" points="691.5,-1418.31 688,-1408.31 684.5,-1418.31 691.5,-1418.31"/>
</g>
<!-- n0x5edaa6918ba0&#45;&gt;n0x5edaa6918cc0 -->
<g id="edge37" class="edge">
<title>n0x5edaa6918ba0&#45;&gt;n0x5edaa6918cc0</title>
<path fill="none" stroke="#0000ff" d="M689.18,-1468.82C689.76,-1458.45 690.28,-1444.97 690,-1433 689.89,-1428.27 689.7,-1423.25 689.49,-1418.39"/>
<polygon fill="#0000ff" stroke="#0000ff" points="692.98,-1417.98 689,-1408.16 685.99,-1418.31 692.98,-1417.98"/>
<text text-anchor="middle" x="699" y="-1436" font-family="SF Pro Text Bold 10" font-size="10.00">%3</text>
</g>
<!-- n0x5edaa6918ba0&#45;&gt;n0x5edaa6918cc0 -->
<g id="edge40" class="edge">
<title>n0x5edaa6918ba0&#45;&gt;n0x5edaa6918cc0</title>
<path fill="none" stroke="#00ff00" d="M676.57,-1468.77C672.37,-1461.46 668.12,-1452.63 666,-1444 663.79,-1435 666.08,-1425.55 669.91,-1417.16"/>
<polygon fill="#00ff00" stroke="#00ff00" points="673.06,-1418.68 674.71,-1408.21 666.9,-1415.36 673.06,-1418.68"/>
<text text-anchor="middle" x="674" y="-1436" font-family="SF Pro Text Bold 10" font-size="10.00">%3</text>
</g>
<!-- n0x5edaa691b950 -->
<g id="node23" class="node">
<title>n0x5edaa691b950</title>
<path fill="#e8eef9" stroke="#1f1d31" d="M874,-1321C874,-1321 844,-1321 844,-1321 838,-1321 832,-1315 832,-1309 832,-1309 832,-1297 832,-1297 832,-1291 838,-1285 844,-1285 844,-1285 874,-1285 874,-1285 880,-1285 886,-1291 886,-1297 886,-1297 886,-1309 886,-1309 886,-1315 880,-1321 874,-1321"/>
<text text-anchor="middle" x="859" y="-1300.2" font-family="SF Pro Text Bold 10" font-size="11.00" fill="#000000">call</text>
</g>
<!-- n0x5edaa6918cc0&#45;&gt;n0x5edaa691b950 -->
<g id="edge99" class="edge">
<title>n0x5edaa6918cc0&#45;&gt;n0x5edaa691b950</title>
<path fill="none" stroke="#ea00ff" stroke-width="5" d="M715.1,-1375.53C744.15,-1361.09 790.45,-1338.08 822.65,-1322.07"/>
<polygon fill="#ea00ff" stroke="#ea00ff" stroke-width="5" points="824.74,-1325.91 831.75,-1317.55 820.85,-1318.08 824.74,-1325.91"/>
</g>
<!-- n0x5edaa691b3b0 -->
<g id="node28" class="node">
<title>n0x5edaa691b3b0</title>
<path fill="#e8eef9" stroke="#1f1d31" d="M376,-1321C376,-1321 346,-1321 346,-1321 340,-1321 334,-1315 334,-1309 334,-1309 334,-1297 334,-1297 334,-1291 340,-1285 346,-1285 346,-1285 376,-1285 376,-1285 382,-1285 388,-1291 388,-1297 388,-1297 388,-1309 388,-1309 388,-1315 382,-1321 376,-1321"/>
<text text-anchor="middle" x="361" y="-1300.2" font-family="SF Pro Text Bold 10" font-size="11.00" fill="#000000">call</text>
</g>
<!-- n0x5edaa6918cc0&#45;&gt;n0x5edaa691b3b0 -->
<g id="edge100" class="edge">
<title>n0x5edaa6918cc0&#45;&gt;n0x5edaa691b3b0</title>
<path fill="none" stroke="#ea00ff" stroke-width="5" d="M660.96,-1381.97C602.57,-1366.79 464.6,-1330.93 398.11,-1313.65"/>
<polygon fill="#ea00ff" stroke="#ea00ff" stroke-width="5" points="398.85,-1309.32 388.07,-1311.04 396.65,-1317.79 398.85,-1309.32"/>
</g>
<!-- n0x5edaa67e46a0 -->
<g id="node19" class="node">
<title>n0x5edaa67e46a0</title>
<path fill="#00eef9" stroke="#1f1d31" d="M718,-1602C718,-1602 688,-1602 688,-1602 682,-1602 676,-1596 676,-1590 676,-1590 676,-1578 676,-1578 676,-1572 682,-1566 688,-1566 688,-1566 718,-1566 718,-1566 724,-1566 730,-1572 730,-1578 730,-1578 730,-1590 730,-1590 730,-1596 724,-1602 718,-1602"/>
<text text-anchor="middle" x="703" y="-1581.2" font-family="SF Pro Text Bold 10" font-size="11.00" fill="#000000">i32 %0</text>
</g>
<!-- n0x5edaa67e46a0&#45;&gt;n0x5edaa6918ba0 -->
<g id="edge38" class="edge">
<title>n0x5edaa67e46a0&#45;&gt;n0x5edaa6918ba0</title>
<path fill="none" stroke="#00ff00" d="M700.25,-1565.58C698.03,-1551.51 694.87,-1531.48 692.31,-1515.29"/>
<polygon fill="#00ff00" stroke="#00ff00" points="695.75,-1514.65 690.73,-1505.31 688.84,-1515.74 695.75,-1514.65"/>
<text text-anchor="middle" x="704" y="-1533" font-family="SF Pro Text Bold 10" font-size="10.00">%0</text>
</g>
<!-- nconst_0x5edaa6918ba0_1 -->
<g id="node20" class="node">
<title>nconst_0x5edaa6918ba0_1</title>
<path fill="#00eef9" stroke="#1f1d31" d="M639,-1602C639,-1602 609,-1602 609,-1602 603,-1602 597,-1596 597,-1590 597,-1590 597,-1578 597,-1578 597,-1572 603,-1566 609,-1566 609,-1566 639,-1566 639,-1566 645,-1566 651,-1572 651,-1578 651,-1578 651,-1590 651,-1590 651,-1596 645,-1602 639,-1602"/>
<text text-anchor="middle" x="624" y="-1581.2" font-family="SF Pro Text Bold 10" font-size="11.00" fill="#000000">i32 2</text>
</g>
<!-- nconst_0x5edaa6918ba0_1&#45;&gt;n0x5edaa6918ba0 -->
<g id="edge39" class="edge">
<title>nconst_0x5edaa6918ba0_1&#45;&gt;n0x5edaa6918ba0</title>
<path fill="none" stroke="#00ff00" d="M635.74,-1565.58C645.48,-1551.11 659.48,-1530.33 670.54,-1513.92"/>
<polygon fill="#00ff00" stroke="#00ff00" points="673.65,-1515.56 676.34,-1505.31 667.85,-1511.65 673.65,-1515.56"/>
</g>
<!-- n0x5edaa6918a40 -->
<g id="node21" class="node">
<title>n0x5edaa6918a40</title>
<path fill="#00eef9" stroke="#1f1d31" d="M623.5,-1505C623.5,-1505 584.5,-1505 584.5,-1505 578.5,-1505 572.5,-1499 572.5,-1493 572.5,-1493 572.5,-1481 572.5,-1481 572.5,-1475 578.5,-1469 584.5,-1469 584.5,-1469 623.5,-1469 623.5,-1469 629.5,-1469 635.5,-1475 635.5,-1481 635.5,-1481 635.5,-1493 635.5,-1493 635.5,-1499 629.5,-1505 623.5,-1505"/>
<text text-anchor="middle" x="604" y="-1484.2" font-family="SF Pro Text Bold 10" font-size="11.00" fill="#000000">label %4</text>
</g>
<!-- n0x5edaa6918a40&#45;&gt;n0x5edaa6918cc0 -->
<g id="edge41" class="edge">
<title>n0x5edaa6918a40&#45;&gt;n0x5edaa6918cc0</title>
<path fill="none" stroke="#00ff00" d="M615.94,-1468.74C623.56,-1458.1 633.88,-1444.36 644,-1433 649.21,-1427.14 655.11,-1421.15 660.84,-1415.6"/>
<polygon fill="#00ff00" stroke="#00ff00" points="663.64,-1417.76 668.49,-1408.34 658.83,-1412.68 663.64,-1417.76"/>
<text text-anchor="middle" x="652" y="-1436" font-family="SF Pro Text Bold 10" font-size="10.00">%4</text>
</g>
<!-- n0x5edaa6918a90 -->
<g id="node22" class="node">
<title>n0x5edaa6918a90</title>
<path fill="#00eef9" stroke="#1f1d31" d="M535.5,-1505C535.5,-1505 496.5,-1505 496.5,-1505 490.5,-1505 484.5,-1499 484.5,-1493 484.5,-1493 484.5,-1481 484.5,-1481 484.5,-1475 490.5,-1469 496.5,-1469 496.5,-1469 535.5,-1469 535.5,-1469 541.5,-1469 547.5,-1475 547.5,-1481 547.5,-1481 547.5,-1493 547.5,-1493 547.5,-1499 541.5,-1505 535.5,-1505"/>
<text text-anchor="middle" x="516" y="-1484.2" font-family="SF Pro Text Bold 10" font-size="11.00" fill="#000000">label %6</text>
</g>
<!-- n0x5edaa6918a90&#45;&gt;n0x5edaa6918cc0 -->
<g id="edge42" class="edge">
<title>n0x5edaa6918a90&#45;&gt;n0x5edaa6918cc0</title>
<path fill="none" stroke="#00ff00" d="M545.79,-1468.99C550.53,-1466.3 555.4,-1463.57 560,-1461 590.93,-1443.76 626.26,-1424.46 651.96,-1410.51"/>
<polygon fill="#00ff00" stroke="#00ff00" points="653.84,-1413.47 660.96,-1405.62 650.5,-1407.32 653.84,-1413.47"/>
<text text-anchor="middle" x="618" y="-1436" font-family="SF Pro Text Bold 10" font-size="10.00">%6</text>
</g>
<!-- n0x5edaa6918c10 -->
<g id="node24" class="node">
<title>n0x5edaa6918c10</title>
<path fill="#e8eef9" stroke="#1f1d31" d="M874,-254C874,-254 844,-254 844,-254 838,-254 832,-248 832,-242 832,-242 832,-230 832,-230 832,-224 838,-218 844,-218 844,-218 874,-218 874,-218 880,-218 886,-224 886,-230 886,-230 886,-242 886,-242 886,-248 880,-254 874,-254"/>
<text text-anchor="middle" x="859" y="-233.2" font-family="SF Pro Text Bold 10" font-size="11.00" fill="#000000">br</text>
</g>
<!-- n0x5edaa691b950&#45;&gt;n0x5edaa6918c10 -->
<g id="edge43" class="edge">
<title>n0x5edaa691b950&#45;&gt;n0x5edaa6918c10</title>
<path fill="none" stroke="#ff0000" stroke-width="3" d="M864.3,-1284.68C869.61,-1265.78 877,-1234.53 877,-1207 877,-1207 877,-1207 877,-332 877,-308.77 871.74,-282.9 866.91,-264.03"/>
<polygon fill="#ff0000" stroke="#ff0000" stroke-width="3" points="870.28,-263.07 864.3,-254.32 863.52,-264.89 870.28,-263.07"/>
</g>
<!-- n0x5edaa6915838 -->
<g id="node56" class="node">
<title>n0x5edaa6915838</title>
<path fill="#e8eef9" stroke="#1f1d31" d="M771,-157C771,-157 741,-157 741,-157 735,-157 729,-151 729,-145 729,-145 729,-133 729,-133 729,-127 735,-121 741,-121 741,-121 771,-121 771,-121 777,-121 783,-127 783,-133 783,-133 783,-145 783,-145 783,-151 777,-157 771,-157"/>
<text text-anchor="middle" x="756" y="-136.2" font-family="SF Pro Text Bold 10" font-size="11.00" fill="#000000">phi</text>
</g>
<!-- n0x5edaa6918c10&#45;&gt;n0x5edaa6915838 -->
<g id="edge103" class="edge">
<title>n0x5edaa6918c10&#45;&gt;n0x5edaa6915838</title>
<path fill="none" stroke="#ea00ff" stroke-width="5" d="M840.11,-217.58C823.85,-202.58 800.22,-180.78 782.14,-164.11"/>
<polygon fill="#ea00ff" stroke="#ea00ff" stroke-width="5" points="785.09,-160.88 774.77,-157.31 779.16,-167.31 785.09,-160.88"/>
<text text-anchor="middle" x="822.5" y="-185" font-family="SF Pro Text Bold 10" font-size="10.00">i32 1</text>
</g>
<!-- n0x5edaa691b790 -->
<g id="node25" class="node">
<title>n0x5edaa691b790</title>
<path fill="#00eef9" stroke="#1f1d31" d="M891.5,-1408C891.5,-1408 844.5,-1408 844.5,-1408 838.5,-1408 832.5,-1402 832.5,-1396 832.5,-1396 832.5,-1384 832.5,-1384 832.5,-1378 838.5,-1372 844.5,-1372 844.5,-1372 891.5,-1372 891.5,-1372 897.5,-1372 903.5,-1378 903.5,-1384 903.5,-1384 903.5,-1396 903.5,-1396 903.5,-1402 897.5,-1408 891.5,-1408"/>
<text text-anchor="middle" x="868" y="-1387.2" font-family="SF Pro Text Bold 10" font-size="11.00" fill="#000000">ptr @str.2</text>
</g>
<!-- n0x5edaa691b790&#45;&gt;n0x5edaa691b950 -->
<g id="edge44" class="edge">
<title>n0x5edaa691b790&#45;&gt;n0x5edaa691b950</title>
<path fill="none" stroke="#00ff00" d="M866.18,-1371.8C864.95,-1360.16 863.29,-1344.55 861.88,-1331.24"/>
<polygon fill="#00ff00" stroke="#00ff00" points="865.35,-1330.75 860.82,-1321.18 858.39,-1331.49 865.35,-1330.75"/>
</g>
<!-- n0x5edaa6915918 -->
<g id="node26" class="node">
<title>n0x5edaa6915918</title>
<path fill="#00eef9" stroke="#1f1d31" d="M109,-1408C109,-1408 63,-1408 63,-1408 57,-1408 51,-1402 51,-1396 51,-1396 51,-1384 51,-1384 51,-1378 57,-1372 63,-1372 63,-1372 109,-1372 109,-1372 115,-1372 121,-1378 121,-1384 121,-1384 121,-1396 121,-1396 121,-1402 115,-1408 109,-1408"/>
<text text-anchor="middle" x="86" y="-1387.2" font-family="SF Pro Text Bold 10" font-size="11.00" fill="#000000">ptr @puts</text>
</g>
<!-- n0x5edaa6915918&#45;&gt;n0x5edaa691b950 -->
<g id="edge45" class="edge">
<title>n0x5edaa6915918&#45;&gt;n0x5edaa691b950</title>
<path fill="none" stroke="#00ff00" d="M112.3,-1371.97C118.24,-1368.82 124.67,-1365.92 131,-1364 262.31,-1324.15 691.88,-1308.8 821.58,-1305"/>
<polygon fill="#00ff00" stroke="#00ff00" points="821.9,-1308.49 831.8,-1304.71 821.7,-1301.5 821.9,-1308.49"/>
</g>
<!-- n0x5edaa69199d0 -->
<g id="node53" class="node">
<title>n0x5edaa69199d0</title>
<path fill="#e8eef9" stroke="#1f1d31" d="M109,-933C109,-933 79,-933 79,-933 73,-933 67,-927 67,-921 67,-921 67,-909 67,-909 67,-903 73,-897 79,-897 79,-897 109,-897 109,-897 115,-897 121,-903 121,-909 121,-909 121,-921 121,-921 121,-927 115,-933 109,-933"/>
<text text-anchor="middle" x="94" y="-912.2" font-family="SF Pro Text Bold 10" font-size="11.00" fill="#000000">call</text>
</g>
<!-- n0x5edaa6915918&#45;&gt;n0x5edaa69199d0 -->
<g id="edge94" class="edge">
<title>n0x5edaa6915918&#45;&gt;n0x5edaa69199d0</title>
<path fill="none" stroke="#00ff00" d="M94.51,-1371.89C102.1,-1355.05 112,-1328.38 112,-1304 112,-1304 112,-1304 112,-1011 112,-987.77 106.74,-961.9 101.91,-943.03"/>
<polygon fill="#00ff00" stroke="#00ff00" points="105.28,-942.07 99.3,-933.32 98.52,-943.89 105.28,-942.07"/>
</g>
<!-- n0x5edaa69146c0 -->
<g id="node27" class="node">
<title>n0x5edaa69146c0</title>
<path fill="#00eef9" stroke="#1f1d31" d="M109,-351C109,-351 63,-351 63,-351 57,-351 51,-345 51,-339 51,-339 51,-327 51,-327 51,-321 57,-315 63,-315 63,-315 109,-315 109,-315 115,-315 121,-321 121,-327 121,-327 121,-339 121,-339 121,-345 115,-351 109,-351"/>
<text text-anchor="middle" x="86" y="-330.2" font-family="SF Pro Text Bold 10" font-size="11.00" fill="#000000">label %20</text>
</g>
<!-- n0x5edaa69146c0&#45;&gt;n0x5edaa6918c10 -->
<g id="edge46" class="edge">
<title>n0x5edaa69146c0&#45;&gt;n0x5edaa6918c10</title>
<path fill="none" stroke="#00ff00" d="M121.2,-330.09C266.99,-322.15 816.11,-292.11 820,-290 831.19,-283.94 840.02,-273.12 846.43,-262.83"/>
<polygon fill="#00ff00" stroke="#00ff00" points="849.52,-264.47 851.44,-254.06 843.44,-261 849.52,-264.47"/>
<text text-anchor="middle" x="844" y="-282" font-family="SF Pro Text Bold 10" font-size="10.00">%20</text>
</g>
<!-- n0x5edaa691bd10 -->
<g id="node43" class="node">
<title>n0x5edaa691bd10</title>
<path fill="#e8eef9" stroke="#1f1d31" d="M771,-254C771,-254 741,-254 741,-254 735,-254 729,-248 729,-242 729,-242 729,-230 729,-230 729,-224 735,-218 741,-218 741,-218 771,-218 771,-218 777,-218 783,-224 783,-230 783,-230 783,-242 783,-242 783,-248 777,-254 771,-254"/>
<text text-anchor="middle" x="756" y="-233.2" font-family="SF Pro Text Bold 10" font-size="11.00" fill="#000000">br</text>
</g>
<!-- n0x5edaa69146c0&#45;&gt;n0x5edaa691bd10 -->
<g id="edge91" class="edge">
<title>n0x5edaa69146c0&#45;&gt;n0x5edaa691bd10</title>
<path fill="none" stroke="#00ff00" d="M121.08,-327.03C236.08,-310.72 601.05,-258.97 718.91,-242.26"/>
<polygon fill="#00ff00" stroke="#00ff00" points="719.48,-245.71 728.89,-240.84 718.5,-238.78 719.48,-245.71"/>
<text text-anchor="middle" x="453" y="-282" font-family="SF Pro Text Bold 10" font-size="10.00">%20</text>
</g>
<!-- n0x5edaa691ba70 -->
<g id="node54" class="node">
<title>n0x5edaa691ba70</title>
<path fill="#e8eef9" stroke="#1f1d31" d="M109,-254C109,-254 79,-254 79,-254 73,-254 67,-248 67,-242 67,-242 67,-230 67,-230 67,-224 73,-218 79,-218 79,-218 109,-218 109,-218 115,-218 121,-224 121,-230 121,-230 121,-242 121,-242 121,-248 115,-254 109,-254"/>
<text text-anchor="middle" x="94" y="-233.2" font-family="SF Pro Text Bold 10" font-size="11.00" fill="#000000">br</text>
</g>
<!-- n0x5edaa69146c0&#45;&gt;n0x5edaa691ba70 -->
<g id="edge95" class="edge">
<title>n0x5edaa69146c0&#45;&gt;n0x5edaa691ba70</title>
<path fill="none" stroke="#00ff00" d="M87.47,-314.58C88.65,-300.51 90.34,-280.48 91.7,-264.29"/>
<polygon fill="#00ff00" stroke="#00ff00" points="95.19,-264.57 92.54,-254.31 88.22,-263.99 95.19,-264.57"/>
<text text-anchor="middle" x="102" y="-282" font-family="SF Pro Text Bold 10" font-size="10.00">%20</text>
</g>
<!-- n0x5edaa691b430 -->
<g id="node29" class="node">
<title>n0x5edaa691b430</title>
<path fill="#e8eef9" stroke="#1f1d31" d="M297,-1224C297,-1224 267,-1224 267,-1224 261,-1224 255,-1218 255,-1212 255,-1212 255,-1200 255,-1200 255,-1194 261,-1188 267,-1188 267,-1188 297,-1188 297,-1188 303,-1188 309,-1194 309,-1200 309,-1200 309,-1212 309,-1212 309,-1218 303,-1224 297,-1224"/>
<text text-anchor="middle" x="282" y="-1203.2" font-family="SF Pro Text Bold 10" font-size="11.00" fill="#000000">load</text>
</g>
<!-- n0x5edaa691b3b0&#45;&gt;n0x5edaa691b430 -->
<g id="edge47" class="edge">
<title>n0x5edaa691b3b0&#45;&gt;n0x5edaa691b430</title>
<path fill="none" stroke="#ff0000" stroke-width="3" d="M346.51,-1284.58C334.26,-1269.84 316.56,-1248.56 302.8,-1232.01"/>
<polygon fill="#ff0000" stroke="#ff0000" stroke-width="3" points="305.48,-1229.76 296.4,-1224.31 300.1,-1234.24 305.48,-1229.76"/>
</g>
<!-- n0x5edaa691b3b0&#45;&gt;n0x5edaa691b430 -->
<g id="edge50" class="edge">
<title>n0x5edaa691b3b0&#45;&gt;n0x5edaa691b430</title>
<path fill="none" stroke="#0000ff" d="M352.39,-1284.92C346.53,-1274.09 338.19,-1260.09 329,-1249 323.79,-1242.72 317.64,-1236.54 311.52,-1230.93"/>
<polygon fill="#0000ff" stroke="#0000ff" points="313.68,-1228.17 303.87,-1224.16 309.04,-1233.41 313.68,-1228.17"/>
<text text-anchor="middle" x="345.5" y="-1252" font-family="SF Pro Text Bold 10" font-size="10.00">%7</text>
</g>
<!-- n0x5edaa691b3b0&#45;&gt;n0x5edaa691b430 -->
<g id="edge53" class="edge">
<title>n0x5edaa691b3b0&#45;&gt;n0x5edaa691b430</title>
<path fill="none" stroke="#00ff00" d="M333.77,-1288.89C321.62,-1281.83 308.04,-1272.07 299,-1260 293.34,-1252.44 289.52,-1242.93 286.97,-1234.05"/>
<polygon fill="#00ff00" stroke="#00ff00" points="290.3,-1232.96 284.51,-1224.09 283.5,-1234.63 290.3,-1232.96"/>
<text text-anchor="middle" x="306.5" y="-1252" font-family="SF Pro Text Bold 10" font-size="10.00">%7</text>
</g>
<!-- n0x5edaa691b4d0 -->
<g id="node30" class="node">
<title>n0x5edaa691b4d0</title>
<path fill="#e8eef9" stroke="#1f1d31" d="M376,-1127C376,-1127 346,-1127 346,-1127 340,-1127 334,-1121 334,-1115 334,-1115 334,-1103 334,-1103 334,-1097 340,-1091 346,-1091 346,-1091 376,-1091 376,-1091 382,-1091 388,-1097 388,-1103 388,-1103 388,-1115 388,-1115 388,-1121 382,-1127 376,-1127"/>
<text text-anchor="middle" x="361" y="-1106.2" font-family="SF Pro Text Bold 10" font-size="11.00" fill="#000000">icmp</text>
</g>
<!-- n0x5edaa691b430&#45;&gt;n0x5edaa691b4d0 -->
<g id="edge48" class="edge">
<title>n0x5edaa691b430&#45;&gt;n0x5edaa691b4d0</title>
<path fill="none" stroke="#ff0000" stroke-width="3" d="M289.81,-1187.82C295.2,-1176.95 303,-1162.94 312,-1152 317.21,-1145.67 323.44,-1139.53 329.68,-1133.99"/>
<polygon fill="#ff0000" stroke="#ff0000" stroke-width="3" points="332.17,-1136.47 337.52,-1127.32 327.64,-1131.14 332.17,-1136.47"/>
</g>
<!-- n0x5edaa691b430&#45;&gt;n0x5edaa691b4d0 -->
<g id="edge52" class="edge">
<title>n0x5edaa691b430&#45;&gt;n0x5edaa691b4d0</title>
<path fill="none" stroke="#0000ff" d="M296.49,-1187.58C308.74,-1172.84 326.44,-1151.56 340.2,-1135.01"/>
<polygon fill="#0000ff" stroke="#0000ff" points="342.9,-1137.24 346.6,-1127.31 337.52,-1132.76 342.9,-1137.24"/>
<text text-anchor="middle" x="332" y="-1155" font-family="SF Pro Text Bold 10" font-size="10.00">%8</text>
</g>
<!-- n0x5edaa691b430&#45;&gt;n0x5edaa691b4d0 -->
<g id="edge55" class="edge">
<title>n0x5edaa691b430&#45;&gt;n0x5edaa691b4d0</title>
<path fill="none" stroke="#00ff00" d="M277.9,-1187.86C276.24,-1176.74 276.09,-1162.44 283,-1152 293.21,-1136.57 304.67,-1143.7 321,-1135 322.54,-1134.18 324.1,-1133.32 325.67,-1132.44"/>
<polygon fill="#00ff00" stroke="#00ff00" points="327.76,-1135.27 334.62,-1127.2 324.22,-1129.23 327.76,-1135.27"/>
<text text-anchor="middle" x="291" y="-1155" font-family="SF Pro Text Bold 10" font-size="10.00">%8</text>
</g>
<!-- n0x5edaa691b5f0 -->
<g id="node31" class="node">
<title>n0x5edaa691b5f0</title>
<path fill="#e8eef9" stroke="#1f1d31" d="M310,-1030C310,-1030 280,-1030 280,-1030 274,-1030 268,-1024 268,-1018 268,-1018 268,-1006 268,-1006 268,-1000 274,-994 280,-994 280,-994 310,-994 310,-994 316,-994 322,-1000 322,-1006 322,-1006 322,-1018 322,-1018 322,-1024 316,-1030 310,-1030"/>
<text text-anchor="middle" x="295" y="-1009.2" font-family="SF Pro Text Bold 10" font-size="11.00" fill="#000000">br</text>
</g>
<!-- n0x5edaa691b4d0&#45;&gt;n0x5edaa691b5f0 -->
<g id="edge49" class="edge">
<title>n0x5edaa691b4d0&#45;&gt;n0x5edaa691b5f0</title>
<path fill="none" stroke="#ff0000" stroke-width="3" d="M333.94,-1096.13C321.47,-1089.2 307.75,-1079.19 300,-1066 295.54,-1058.41 293.71,-1049.13 293.17,-1040.46"/>
<polygon fill="#ff0000" stroke="#ff0000" stroke-width="3" points="296.66,-1040.32 293.05,-1030.36 289.66,-1040.4 296.66,-1040.32"/>
</g>
<!-- n0x5edaa691b4d0&#45;&gt;n0x5edaa691b5f0 -->
<g id="edge54" class="edge">
<title>n0x5edaa691b4d0&#45;&gt;n0x5edaa691b5f0</title>
<path fill="none" stroke="#0000ff" d="M344.79,-1090.63C338.3,-1083.29 330.96,-1074.49 325,-1066 319.11,-1057.61 313.38,-1047.97 308.53,-1039.24"/>
<polygon fill="#0000ff" stroke="#0000ff" points="311.49,-1037.35 303.65,-1030.22 305.33,-1040.68 311.49,-1037.35"/>
<text text-anchor="middle" x="333" y="-1058" font-family="SF Pro Text Bold 10" font-size="10.00">%9</text>
</g>
<!-- n0x5edaa691b4d0&#45;&gt;n0x5edaa691b5f0 -->
<g id="edge57" class="edge">
<title>n0x5edaa691b4d0&#45;&gt;n0x5edaa691b5f0</title>
<path fill="none" stroke="#00ff00" d="M357.57,-1090.74C354.83,-1079.84 350.24,-1065.82 343,-1055 338.58,-1048.4 332.87,-1042.2 326.94,-1036.7"/>
<polygon fill="#00ff00" stroke="#00ff00" points="329.23,-1034.05 319.39,-1030.12 324.63,-1039.33 329.23,-1034.05"/>
<text text-anchor="middle" x="357" y="-1058" font-family="SF Pro Text Bold 10" font-size="10.00">%9</text>
</g>
<!-- n0x5edaa691a7e0 -->
<g id="node36" class="node">
<title>n0x5edaa691a7e0</title>
<path fill="#e8eef9" stroke="#1f1d31" d="M495.5,-933C495.5,-933 424.5,-933 424.5,-933 418.5,-933 412.5,-927 412.5,-921 412.5,-921 412.5,-909 412.5,-909 412.5,-903 418.5,-897 424.5,-897 424.5,-897 495.5,-897 495.5,-897 501.5,-897 507.5,-903 507.5,-909 507.5,-909 507.5,-921 507.5,-921 507.5,-927 501.5,-933 495.5,-933"/>
<text text-anchor="middle" x="460" y="-912.2" font-family="SF Pro Text Bold 10" font-size="11.00" fill="#000000">getelementptr</text>
</g>
<!-- n0x5edaa691b5f0&#45;&gt;n0x5edaa691a7e0 -->
<g id="edge101" class="edge">
<title>n0x5edaa691b5f0&#45;&gt;n0x5edaa691a7e0</title>
<path fill="none" stroke="#ea00ff" stroke-width="5" d="M322.25,-995.31C349.21,-979.79 390.73,-955.88 421.15,-938.37"/>
<polygon fill="#ea00ff" stroke="#ea00ff" stroke-width="5" points="423.72,-941.94 430.2,-933.16 419.35,-934.36 423.72,-941.94"/>
</g>
<!-- n0x5edaa691b5f0&#45;&gt;n0x5edaa69199d0 -->
<g id="edge102" class="edge">
<title>n0x5edaa691b5f0&#45;&gt;n0x5edaa69199d0</title>
<path fill="none" stroke="#ea00ff" stroke-width="5" d="M267.89,-998.19C232.38,-981.4 169.98,-951.91 130.38,-933.19"/>
<polygon fill="#ea00ff" stroke="#ea00ff" stroke-width="5" points="132.23,-929.23 121.32,-928.91 128.49,-937.14 132.23,-929.23"/>
</g>
<!-- n0x5edaa691abf8 -->
<g id="node32" class="node">
<title>n0x5edaa691abf8</title>
<path fill="#00eef9" stroke="#1f1d31" d="M376,-1408C376,-1408 266,-1408 266,-1408 260,-1408 254,-1402 254,-1396 254,-1396 254,-1384 254,-1384 254,-1378 260,-1372 266,-1372 266,-1372 376,-1372 376,-1372 382,-1372 388,-1378 388,-1384 388,-1384 388,-1396 388,-1396 388,-1402 382,-1408 376,-1408"/>
<text text-anchor="middle" x="321" y="-1387.2" font-family="SF Pro Text Bold 10" font-size="11.00" fill="#000000">ptr @__errno_location</text>
</g>
<!-- n0x5edaa691abf8&#45;&gt;n0x5edaa691b3b0 -->
<g id="edge51" class="edge">
<title>n0x5edaa691abf8&#45;&gt;n0x5edaa691b3b0</title>
<path fill="none" stroke="#00ff00" d="M329.09,-1371.8C334.68,-1359.93 342.21,-1343.93 348.55,-1330.45"/>
<polygon fill="#00ff00" stroke="#00ff00" points="351.83,-1331.71 352.92,-1321.18 345.49,-1328.73 351.83,-1331.71"/>
</g>
<!-- nconst_0x5edaa691b4d0_1 -->
<g id="node33" class="node">
<title>nconst_0x5edaa691b4d0_1</title>
<path fill="#00eef9" stroke="#1f1d31" d="M376,-1224C376,-1224 346,-1224 346,-1224 340,-1224 334,-1218 334,-1212 334,-1212 334,-1200 334,-1200 334,-1194 340,-1188 346,-1188 346,-1188 376,-1188 376,-1188 382,-1188 388,-1194 388,-1200 388,-1200 388,-1212 388,-1212 388,-1218 382,-1224 376,-1224"/>
<text text-anchor="middle" x="361" y="-1203.2" font-family="SF Pro Text Bold 10" font-size="11.00" fill="#000000">i32 0</text>
</g>
<!-- nconst_0x5edaa691b4d0_1&#45;&gt;n0x5edaa691b4d0 -->
<g id="edge56" class="edge">
<title>nconst_0x5edaa691b4d0_1&#45;&gt;n0x5edaa691b4d0</title>
<path fill="none" stroke="#00ff00" d="M361,-1187.58C361,-1173.65 361,-1153.86 361,-1137.76"/>
<polygon fill="#00ff00" stroke="#00ff00" points="364.5,-1137.31 361,-1127.31 357.5,-1137.31 364.5,-1137.31"/>
</g>
<!-- n0x5edaa691ab60 -->
<g id="node34" class="node">
<title>n0x5edaa691ab60</title>
<path fill="#00eef9" stroke="#1f1d31" d="M296.5,-1127C296.5,-1127 251.5,-1127 251.5,-1127 245.5,-1127 239.5,-1121 239.5,-1115 239.5,-1115 239.5,-1103 239.5,-1103 239.5,-1097 245.5,-1091 251.5,-1091 251.5,-1091 296.5,-1091 296.5,-1091 302.5,-1091 308.5,-1097 308.5,-1103 308.5,-1103 308.5,-1115 308.5,-1115 308.5,-1121 302.5,-1127 296.5,-1127"/>
<text text-anchor="middle" x="274" y="-1106.2" font-family="SF Pro Text Bold 10" font-size="11.00" fill="#000000">label %18</text>
</g>
<!-- n0x5edaa691ab60&#45;&gt;n0x5edaa691b5f0 -->
<g id="edge58" class="edge">
<title>n0x5edaa691ab60&#45;&gt;n0x5edaa691b5f0</title>
<path fill="none" stroke="#00ff00" d="M268.17,-1090.99C265.42,-1080.45 263.45,-1066.73 267,-1055 268.68,-1049.44 271.37,-1043.95 274.43,-1038.86"/>
<polygon fill="#00ff00" stroke="#00ff00" points="277.56,-1040.47 280.2,-1030.2 271.74,-1036.58 277.56,-1040.47"/>
<text text-anchor="middle" x="277.5" y="-1058" font-family="SF Pro Text Bold 10" font-size="10.00">%18</text>
</g>
<!-- n0x5edaa691aac0 -->
<g id="node35" class="node">
<title>n0x5edaa691aac0</title>
<path fill="#00eef9" stroke="#1f1d31" d="M202.5,-1127C202.5,-1127 157.5,-1127 157.5,-1127 151.5,-1127 145.5,-1121 145.5,-1115 145.5,-1115 145.5,-1103 145.5,-1103 145.5,-1097 151.5,-1091 157.5,-1091 157.5,-1091 202.5,-1091 202.5,-1091 208.5,-1091 214.5,-1097 214.5,-1103 214.5,-1103 214.5,-1115 214.5,-1115 214.5,-1121 208.5,-1127 202.5,-1127"/>
<text text-anchor="middle" x="180" y="-1106.2" font-family="SF Pro Text Bold 10" font-size="11.00" fill="#000000">label %10</text>
</g>
<!-- n0x5edaa691aac0&#45;&gt;n0x5edaa691b5f0 -->
<g id="edge59" class="edge">
<title>n0x5edaa691aac0&#45;&gt;n0x5edaa691b5f0</title>
<path fill="none" stroke="#00ff00" d="M198.23,-1090.86C209.71,-1080.27 224.96,-1066.54 239,-1055 246.67,-1048.7 255.14,-1042.15 263.12,-1036.15"/>
<polygon fill="#00ff00" stroke="#00ff00" points="265.28,-1038.9 271.21,-1030.12 261.1,-1033.29 265.28,-1038.9"/>
<text text-anchor="middle" x="249.5" y="-1058" font-family="SF Pro Text Bold 10" font-size="10.00">%10</text>
</g>
<!-- n0x5edaa691a860 -->
<g id="node37" class="node">
<title>n0x5edaa691a860</title>
<path fill="#e8eef9" stroke="#1f1d31" d="M715,-836C715,-836 685,-836 685,-836 679,-836 673,-830 673,-824 673,-824 673,-812 673,-812 673,-806 679,-800 685,-800 685,-800 715,-800 715,-800 721,-800 727,-806 727,-812 727,-812 727,-824 727,-824 727,-830 721,-836 715,-836"/>
<text text-anchor="middle" x="700" y="-815.2" font-family="SF Pro Text Bold 10" font-size="11.00" fill="#000000">load</text>
</g>
<!-- n0x5edaa691a7e0&#45;&gt;n0x5edaa691a860 -->
<g id="edge60" class="edge">
<title>n0x5edaa691a7e0&#45;&gt;n0x5edaa691a860</title>
<path fill="none" stroke="#ff0000" stroke-width="3" d="M505.03,-896.88C545.67,-881.33 607.02,-857.58 660,-836 661.18,-835.52 662.38,-835.03 663.59,-834.53"/>
<polygon fill="#ff0000" stroke="#ff0000" stroke-width="3" points="665.05,-837.71 672.94,-830.63 662.36,-831.25 665.05,-837.71"/>
</g>
<!-- n0x5edaa691a7e0&#45;&gt;n0x5edaa691a860 -->
<g id="edge67" class="edge">
<title>n0x5edaa691a7e0&#45;&gt;n0x5edaa691a860</title>
<path fill="none" stroke="#0000ff" d="M507.57,-900.53C532.68,-892.98 563.85,-882.89 591,-872 615.73,-862.08 642.66,-849.01 663.56,-838.33"/>
<polygon fill="#0000ff" stroke="#0000ff" points="665.43,-841.31 672.71,-833.61 662.22,-835.08 665.43,-841.31"/>
<text text-anchor="middle" x="625.5" y="-864" font-family="SF Pro Text Bold 10" font-size="10.00">%11</text>
</g>
<!-- n0x5edaa691a7e0&#45;&gt;n0x5edaa691a860 -->
<g id="edge71" class="edge">
<title>n0x5edaa691a7e0&#45;&gt;n0x5edaa691a860</title>
<path fill="none" stroke="#00ff00" d="M483.55,-896.93C500.68,-885.26 524.82,-870.28 548,-861 595.35,-842.04 611.44,-851.59 660,-836 661.04,-835.67 662.09,-835.31 663.15,-834.95"/>
<polygon fill="#00ff00" stroke="#00ff00" points="664.57,-838.16 672.71,-831.38 662.11,-831.6 664.57,-838.16"/>
<text text-anchor="middle" x="557.5" y="-864" font-family="SF Pro Text Bold 10" font-size="10.00">%11</text>
</g>
<!-- n0x5edaa68f4dd0 -->
<g id="node38" class="node">
<title>n0x5edaa68f4dd0</title>
<path fill="#e8eef9" stroke="#1f1d31" d="M715,-739C715,-739 685,-739 685,-739 679,-739 673,-733 673,-727 673,-727 673,-715 673,-715 673,-709 679,-703 685,-703 685,-703 715,-703 715,-703 721,-703 727,-709 727,-715 727,-715 727,-727 727,-727 727,-733 721,-739 715,-739"/>
<text text-anchor="middle" x="700" y="-718.2" font-family="SF Pro Text Bold 10" font-size="11.00" fill="#000000">call</text>
</g>
<!-- n0x5edaa691a860&#45;&gt;n0x5edaa68f4dd0 -->
<g id="edge61" class="edge">
<title>n0x5edaa691a860&#45;&gt;n0x5edaa68f4dd0</title>
<path fill="none" stroke="#ff0000" stroke-width="3" d="M700,-799.58C700,-785.65 700,-765.86 700,-749.76"/>
<polygon fill="#ff0000" stroke="#ff0000" stroke-width="3" points="703.5,-749.31 700,-739.31 696.5,-749.31 703.5,-749.31"/>
</g>
<!-- n0x5edaa691a860&#45;&gt;n0x5edaa68f4dd0 -->
<g id="edge70" class="edge">
<title>n0x5edaa691a860&#45;&gt;n0x5edaa68f4dd0</title>
<path fill="none" stroke="#0000ff" d="M701.18,-799.82C701.76,-789.45 702.28,-775.97 702,-764 701.89,-759.27 701.7,-754.25 701.49,-749.39"/>
<polygon fill="#0000ff" stroke="#0000ff" points="704.98,-748.98 701,-739.16 697.99,-749.31 704.98,-748.98"/>
<text text-anchor="middle" x="713.5" y="-767" font-family="SF Pro Text Bold 10" font-size="10.00">%12</text>
</g>
<!-- n0x5edaa691a860&#45;&gt;n0x5edaa68f4dd0 -->
<g id="edge73" class="edge">
<title>n0x5edaa691a860&#45;&gt;n0x5edaa68f4dd0</title>
<path fill="none" stroke="#00ff00" d="M715.84,-799.96C721.46,-792.8 727.1,-784.05 730,-775 733.02,-765.58 729.83,-755.98 724.56,-747.57"/>
<polygon fill="#00ff00" stroke="#00ff00" points="727.24,-745.3 718.5,-739.31 721.59,-749.44 727.24,-745.3"/>
<text text-anchor="middle" x="742.5" y="-767" font-family="SF Pro Text Bold 10" font-size="10.00">%12</text>
</g>
<!-- n0x5edaa6771400 -->
<g id="node39" class="node">
<title>n0x5edaa6771400</title>
<path fill="#e8eef9" stroke="#1f1d31" d="M715,-642C715,-642 685,-642 685,-642 679,-642 673,-636 673,-630 673,-630 673,-618 673,-618 673,-612 679,-606 685,-606 685,-606 715,-606 715,-606 721,-606 727,-612 727,-618 727,-618 727,-630 727,-630 727,-636 721,-642 715,-642"/>
<text text-anchor="middle" x="700" y="-621.2" font-family="SF Pro Text Bold 10" font-size="11.00" fill="#000000">shl</text>
</g>
<!-- n0x5edaa68f4dd0&#45;&gt;n0x5edaa6771400 -->
<g id="edge62" class="edge">
<title>n0x5edaa68f4dd0&#45;&gt;n0x5edaa6771400</title>
<path fill="none" stroke="#ff0000" stroke-width="3" d="M700,-702.58C700,-688.65 700,-668.86 700,-652.76"/>
<polygon fill="#ff0000" stroke="#ff0000" stroke-width="3" points="703.5,-652.31 700,-642.31 696.5,-652.31 703.5,-652.31"/>
</g>
<!-- n0x5edaa68f4dd0&#45;&gt;n0x5edaa6771400 -->
<g id="edge72" class="edge">
<title>n0x5edaa68f4dd0&#45;&gt;n0x5edaa6771400</title>
<path fill="none" stroke="#0000ff" d="M701.18,-702.82C701.76,-692.45 702.28,-678.97 702,-667 701.89,-662.27 701.7,-657.25 701.49,-652.39"/>
<polygon fill="#0000ff" stroke="#0000ff" points="704.98,-651.98 701,-642.16 697.99,-652.31 704.98,-651.98"/>
<text text-anchor="middle" x="713.5" y="-670" font-family="SF Pro Text Bold 10" font-size="10.00">%13</text>
</g>
<!-- n0x5edaa68f4dd0&#45;&gt;n0x5edaa6771400 -->
<g id="edge78" class="edge">
<title>n0x5edaa68f4dd0&#45;&gt;n0x5edaa6771400</title>
<path fill="none" stroke="#00ff00" d="M685.72,-702.72C680.66,-695.53 675.59,-686.82 673,-678 670.31,-668.83 673.09,-659.37 677.74,-651.02"/>
<polygon fill="#00ff00" stroke="#00ff00" points="680.79,-652.75 683.35,-642.46 674.94,-648.91 680.79,-652.75"/>
<text text-anchor="middle" x="683.5" y="-670" font-family="SF Pro Text Bold 10" font-size="10.00">%13</text>
</g>
<!-- n0x5edaa68a3640 -->
<g id="node40" class="node">
<title>n0x5edaa68a3640</title>
<path fill="#e8eef9" stroke="#1f1d31" d="M715,-545C715,-545 685,-545 685,-545 679,-545 673,-539 673,-533 673,-533 673,-521 673,-521 673,-515 679,-509 685,-509 685,-509 715,-509 715,-509 721,-509 727,-515 727,-521 727,-521 727,-533 727,-533 727,-539 721,-545 715,-545"/>
<text text-anchor="middle" x="700" y="-524.2" font-family="SF Pro Text Bold 10" font-size="11.00" fill="#000000">ashr</text>
</g>
<!-- n0x5edaa6771400&#45;&gt;n0x5edaa68a3640 -->
<g id="edge63" class="edge">
<title>n0x5edaa6771400&#45;&gt;n0x5edaa68a3640</title>
<path fill="none" stroke="#ff0000" stroke-width="3" d="M700,-605.58C700,-591.65 700,-571.86 700,-555.76"/>
<polygon fill="#ff0000" stroke="#ff0000" stroke-width="3" points="703.5,-555.31 700,-545.31 696.5,-555.31 703.5,-555.31"/>
</g>
<!-- n0x5edaa6771400&#45;&gt;n0x5edaa68a3640 -->
<g id="edge77" class="edge">
<title>n0x5edaa6771400&#45;&gt;n0x5edaa68a3640</title>
<path fill="none" stroke="#0000ff" d="M701.18,-605.82C701.76,-595.45 702.28,-581.97 702,-570 701.89,-565.27 701.7,-560.25 701.49,-555.39"/>
<polygon fill="#0000ff" stroke="#0000ff" points="704.98,-554.98 701,-545.16 697.99,-555.31 704.98,-554.98"/>
<text text-anchor="middle" x="713.5" y="-573" font-family="SF Pro Text Bold 10" font-size="10.00">%14</text>
</g>
<!-- n0x5edaa6771400&#45;&gt;n0x5edaa68a3640 -->
<g id="edge82" class="edge">
<title>n0x5edaa6771400&#45;&gt;n0x5edaa68a3640</title>
<path fill="none" stroke="#00ff00" d="M685.72,-605.72C680.66,-598.53 675.59,-589.82 673,-581 670.31,-571.83 673.09,-562.37 677.74,-554.02"/>
<polygon fill="#00ff00" stroke="#00ff00" points="680.79,-555.75 683.35,-545.46 674.94,-551.91 680.79,-555.75"/>
<text text-anchor="middle" x="683.5" y="-573" font-family="SF Pro Text Bold 10" font-size="10.00">%14</text>
</g>
<!-- n0x5edaa691b830 -->
<g id="node41" class="node">
<title>n0x5edaa691b830</title>
<path fill="#e8eef9" stroke="#1f1d31" d="M796,-448C796,-448 766,-448 766,-448 760,-448 754,-442 754,-436 754,-436 754,-424 754,-424 754,-418 760,-412 766,-412 766,-412 796,-412 796,-412 802,-412 808,-418 808,-424 808,-424 808,-436 808,-436 808,-442 802,-448 796,-448"/>
<text text-anchor="middle" x="781" y="-427.2" font-family="SF Pro Text Bold 10" font-size="11.00" fill="#000000">call</text>
</g>
<!-- n0x5edaa68a3640&#45;&gt;n0x5edaa691b830 -->
<g id="edge64" class="edge">
<title>n0x5edaa68a3640&#45;&gt;n0x5edaa691b830</title>
<path fill="none" stroke="#ff0000" stroke-width="3" d="M697.73,-508.91C697.13,-497.81 698.11,-483.51 705,-473 710.05,-465.29 727.63,-455.35 744.62,-447.08"/>
<polygon fill="#ff0000" stroke="#ff0000" stroke-width="3" points="746.36,-450.13 753.9,-442.68 743.37,-443.8 746.36,-450.13"/>
</g>
<!-- n0x5edaa68a3640&#45;&gt;n0x5edaa691b830 -->
<g id="edge80" class="edge">
<title>n0x5edaa68a3640&#45;&gt;n0x5edaa691b830</title>
<path fill="none" stroke="#0000ff" d="M707.74,-508.75C713.1,-497.86 720.89,-483.85 730,-473 735.39,-466.58 741.87,-460.4 748.36,-454.84"/>
<polygon fill="#0000ff" stroke="#0000ff" points="751,-457.21 756.53,-448.18 746.57,-451.79 751,-457.21"/>
<text text-anchor="middle" x="740.5" y="-476" font-family="SF Pro Text Bold 10" font-size="10.00">%15</text>
</g>
<!-- n0x5edaa68a3640&#45;&gt;n0x5edaa691b830 -->
<g id="edge86" class="edge">
<title>n0x5edaa68a3640&#45;&gt;n0x5edaa691b830</title>
<path fill="none" stroke="#00ff00" d="M725.88,-508.89C735.18,-501.92 745.27,-493.3 753,-484 759.55,-476.12 765.2,-466.47 769.67,-457.57"/>
<polygon fill="#00ff00" stroke="#00ff00" points="772.93,-458.87 774.06,-448.33 766.61,-455.87 772.93,-458.87"/>
<text text-anchor="middle" x="771.5" y="-476" font-family="SF Pro Text Bold 10" font-size="10.00">%15</text>
</g>
<!-- n0x5edaa67b9f80 -->
<g id="node42" class="node">
<title>n0x5edaa67b9f80</title>
<path fill="#e8eef9" stroke="#1f1d31" d="M771,-351C771,-351 741,-351 741,-351 735,-351 729,-345 729,-339 729,-339 729,-327 729,-327 729,-321 735,-315 741,-315 741,-315 771,-315 771,-315 777,-315 783,-321 783,-327 783,-327 783,-339 783,-339 783,-345 777,-351 771,-351"/>
<text text-anchor="middle" x="756" y="-330.2" font-family="SF Pro Text Bold 10" font-size="11.00" fill="#000000">call</text>
</g>
<!-- n0x5edaa68a3640&#45;&gt;n0x5edaa67b9f80 -->
<g id="edge81" class="edge">
<title>n0x5edaa68a3640&#45;&gt;n0x5edaa67b9f80</title>
<path fill="none" stroke="#0000ff" d="M672.78,-524.71C600.83,-520.08 413.92,-499.55 456,-412 467.1,-388.92 477.6,-386.42 501,-376 573.32,-343.79 667.09,-336.03 718.38,-334.32"/>
<polygon fill="#0000ff" stroke="#0000ff" points="718.76,-337.81 728.66,-334.04 718.57,-330.81 718.76,-337.81"/>
<text text-anchor="middle" x="466.5" y="-427.5" font-family="SF Pro Text Bold 10" font-size="10.00">%15</text>
</g>
<!-- n0x5edaa68a3640&#45;&gt;n0x5edaa67b9f80 -->
<g id="edge88" class="edge">
<title>n0x5edaa68a3640&#45;&gt;n0x5edaa67b9f80</title>
<path fill="none" stroke="#00ff00" d="M672.61,-520.82C612.25,-508.17 476.45,-472.26 520,-412 565.62,-348.88 664.2,-335.99 718.4,-333.88"/>
<polygon fill="#00ff00" stroke="#00ff00" points="718.73,-337.37 728.62,-333.59 718.53,-330.37 718.73,-337.37"/>
<text text-anchor="middle" x="530.5" y="-427.5" font-family="SF Pro Text Bold 10" font-size="10.00">%15</text>
</g>
<!-- n0x5edaa691b830&#45;&gt;n0x5edaa6915ee0 -->
<g id="edge85" class="edge">
<title>n0x5edaa691b830&#45;&gt;n0x5edaa6915ee0</title>
<path fill="none" stroke="#ff8800" stroke-width="3" stroke-dasharray="5,2" d="M808.17,-435.3C851.9,-443.94 933,-467.81 933,-526 933,-722 933,-722 933,-722 933,-809.76 1618.18,-751.39 1736.37,-780.87"/>
<polygon fill="#ff8800" stroke="#ff8800" stroke-width="3" points="1735.41,-784.23 1746,-784 1737.58,-777.58 1735.41,-784.23"/>
</g>
<!-- n0x5edaa691b830&#45;&gt;n0x5edaa67b9f80 -->
<g id="edge65" class="edge">
<title>n0x5edaa691b830&#45;&gt;n0x5edaa67b9f80</title>
<path fill="none" stroke="#ff0000" stroke-width="3" d="M771.21,-411.96C767.39,-404.52 763.36,-395.56 761,-387 758.75,-378.86 757.47,-369.77 756.76,-361.46"/>
<polygon fill="#ff0000" stroke="#ff0000" stroke-width="3" points="760.25,-361.22 756.12,-351.46 753.26,-361.66 760.25,-361.22"/>
</g>
<!-- n0x5edaa691b830&#45;&gt;n0x5edaa67b9f80 -->
<g id="edge84" class="edge">
<title>n0x5edaa691b830&#45;&gt;n0x5edaa67b9f80</title>
<path fill="none" stroke="#0000ff" d="M776.41,-411.58C772.71,-397.51 767.44,-377.48 763.18,-361.29"/>
<polygon fill="#0000ff" stroke="#0000ff" points="766.49,-360.09 760.56,-351.31 759.72,-361.88 766.49,-360.09"/>
<text text-anchor="middle" x="780.5" y="-379" font-family="SF Pro Text Bold 10" font-size="10.00">%16</text>
</g>
<!-- n0x5edaa691b830&#45;&gt;n0x5edaa67b9f80 -->
<g id="edge89" class="edge">
<title>n0x5edaa691b830&#45;&gt;n0x5edaa67b9f80</title>
<path fill="none" stroke="#00ff00" d="M753.8,-412.56C745.18,-405.81 736.68,-397.18 732,-387 727.93,-378.15 730.33,-368.44 734.91,-359.78"/>
<polygon fill="#00ff00" stroke="#00ff00" points="737.94,-361.54 740.29,-351.21 732.01,-357.82 737.94,-361.54"/>
<text text-anchor="middle" x="742.5" y="-379" font-family="SF Pro Text Bold 10" font-size="10.00">%16</text>
</g>
<!-- n0x5edaa67b9f80&#45;&gt;n0x5edaa691bd10 -->
<g id="edge66" class="edge">
<title>n0x5edaa67b9f80&#45;&gt;n0x5edaa691bd10</title>
<path fill="none" stroke="#ff0000" stroke-width="3" d="M756,-314.58C756,-300.65 756,-280.86 756,-264.76"/>
<polygon fill="#ff0000" stroke="#ff0000" stroke-width="3" points="759.5,-264.31 756,-254.31 752.5,-264.31 759.5,-264.31"/>
</g>
<!-- n0x5edaa691bd10&#45;&gt;n0x5edaa6915838 -->
<g id="edge104" class="edge">
<title>n0x5edaa691bd10&#45;&gt;n0x5edaa6915838</title>
<path fill="none" stroke="#ea00ff" stroke-width="5" d="M756,-217.58C756,-203.65 756,-183.86 756,-167.76"/>
<polygon fill="#ea00ff" stroke="#ea00ff" stroke-width="5" points="760.38,-167.31 756,-157.31 751.63,-167.31 760.38,-167.31"/>
<text text-anchor="middle" x="769" y="-185" font-family="SF Pro Text Bold 10" font-size="10.00">i32 0</text>
</g>
<!-- n0x5edaa67e46c8 -->
<g id="node44" class="node">
<title>n0x5edaa67e46c8</title>
<path fill="#00eef9" stroke="#1f1d31" d="M543,-1030C543,-1030 513,-1030 513,-1030 507,-1030 501,-1024 501,-1018 501,-1018 501,-1006 501,-1006 501,-1000 507,-994 513,-994 513,-994 543,-994 543,-994 549,-994 555,-1000 555,-1006 555,-1006 555,-1018 555,-1018 555,-1024 549,-1030 543,-1030"/>
<text text-anchor="middle" x="528" y="-1009.2" font-family="SF Pro Text Bold 10" font-size="11.00" fill="#000000">ptr %1</text>
</g>
<!-- n0x5edaa67e46c8&#45;&gt;n0x5edaa691a7e0 -->
<g id="edge68" class="edge">
<title>n0x5edaa67e46c8&#45;&gt;n0x5edaa691a7e0</title>
<path fill="none" stroke="#00ff00" d="M515.53,-993.58C505.08,-978.98 490.02,-957.95 478.22,-941.46"/>
<polygon fill="#00ff00" stroke="#00ff00" points="481.06,-939.41 472.39,-933.31 475.37,-943.48 481.06,-939.41"/>
<text text-anchor="middle" x="504" y="-961" font-family="SF Pro Text Bold 10" font-size="10.00">%1</text>
</g>
<!-- nconst_0x5edaa691a7e0_1 -->
<g id="node45" class="node">
<title>nconst_0x5edaa691a7e0_1</title>
<path fill="#00eef9" stroke="#1f1d31" d="M464,-1030C464,-1030 434,-1030 434,-1030 428,-1030 422,-1024 422,-1018 422,-1018 422,-1006 422,-1006 422,-1000 428,-994 434,-994 434,-994 464,-994 464,-994 470,-994 476,-1000 476,-1006 476,-1006 476,-1018 476,-1018 476,-1024 470,-1030 464,-1030"/>
<text text-anchor="middle" x="449" y="-1009.2" font-family="SF Pro Text Bold 10" font-size="11.00" fill="#000000">i64 1</text>
</g>
<!-- nconst_0x5edaa691a7e0_1&#45;&gt;n0x5edaa691a7e0 -->
<g id="edge69" class="edge">
<title>nconst_0x5edaa691a7e0_1&#45;&gt;n0x5edaa691a7e0</title>
<path fill="none" stroke="#00ff00" d="M451.02,-993.58C452.65,-979.51 454.97,-959.48 456.84,-943.29"/>
<polygon fill="#00ff00" stroke="#00ff00" points="460.32,-943.65 458,-933.31 453.37,-942.85 460.32,-943.65"/>
</g>
<!-- nconst_0x5edaa68f4dd0_1 -->
<g id="node46" class="node">
<title>nconst_0x5edaa68f4dd0_1</title>
<path fill="#00eef9" stroke="#1f1d31" d="M635.5,-836C635.5,-836 604.5,-836 604.5,-836 598.5,-836 592.5,-830 592.5,-824 592.5,-824 592.5,-812 592.5,-812 592.5,-806 598.5,-800 604.5,-800 604.5,-800 635.5,-800 635.5,-800 641.5,-800 647.5,-806 647.5,-812 647.5,-812 647.5,-824 647.5,-824 647.5,-830 641.5,-836 635.5,-836"/>
<text text-anchor="middle" x="620" y="-815.2" font-family="SF Pro Text Bold 10" font-size="11.00" fill="#000000">ptr null</text>
</g>
<!-- nconst_0x5edaa68f4dd0_1&#45;&gt;n0x5edaa68f4dd0 -->
<g id="edge74" class="edge">
<title>nconst_0x5edaa68f4dd0_1&#45;&gt;n0x5edaa68f4dd0</title>
<path fill="none" stroke="#00ff00" d="M634.67,-799.58C647.08,-784.84 665,-763.56 678.94,-747.01"/>
<polygon fill="#00ff00" stroke="#00ff00" points="681.66,-749.22 685.42,-739.31 676.3,-744.71 681.66,-749.22"/>
</g>
<!-- nconst_0x5edaa68f4dd0_2 -->
<g id="node47" class="node">
<title>nconst_0x5edaa68f4dd0_2</title>
<path fill="#00eef9" stroke="#1f1d31" d="M555,-836C555,-836 525,-836 525,-836 519,-836 513,-830 513,-824 513,-824 513,-812 513,-812 513,-806 519,-800 525,-800 525,-800 555,-800 555,-800 561,-800 567,-806 567,-812 567,-812 567,-824 567,-824 567,-830 561,-836 555,-836"/>
<text text-anchor="middle" x="540" y="-815.2" font-family="SF Pro Text Bold 10" font-size="11.00" fill="#000000">i32 10</text>
</g>
<!-- nconst_0x5edaa68f4dd0_2&#45;&gt;n0x5edaa68f4dd0 -->
<g id="edge75" class="edge">
<title>nconst_0x5edaa68f4dd0_2&#45;&gt;n0x5edaa68f4dd0</title>
<path fill="none" stroke="#00ff00" d="M559.3,-799.68C565.67,-794.35 572.94,-788.66 580,-784 606.78,-766.33 639.22,-749.83 663.61,-738.31"/>
<polygon fill="#00ff00" stroke="#00ff00" points="665.29,-741.39 672.87,-733.99 662.33,-735.04 665.29,-741.39"/>
</g>
<!-- n0x5edaa6918778 -->
<g id="node48" class="node">
<title>n0x5edaa6918778</title>
<path fill="#00eef9" stroke="#1f1d31" d="M476,-836C476,-836 424,-836 424,-836 418,-836 412,-830 412,-824 412,-824 412,-812 412,-812 412,-806 418,-800 424,-800 424,-800 476,-800 476,-800 482,-800 488,-806 488,-812 488,-812 488,-824 488,-824 488,-830 482,-836 476,-836"/>
<text text-anchor="middle" x="450" y="-815.2" font-family="SF Pro Text Bold 10" font-size="11.00" fill="#000000">ptr @strtol</text>
</g>
<!-- n0x5edaa6918778&#45;&gt;n0x5edaa68f4dd0 -->
<g id="edge76" class="edge">
<title>n0x5edaa6918778&#45;&gt;n0x5edaa68f4dd0</title>
<path fill="none" stroke="#00ff00" d="M472.53,-799.99C480.84,-794.31 490.54,-788.32 500,-784 567.18,-753.29 590.31,-763.5 660,-739 661.03,-738.64 662.08,-738.26 663.13,-737.87"/>
<polygon fill="#00ff00" stroke="#00ff00" points="664.59,-741.06 672.64,-734.17 662.05,-734.54 664.59,-741.06"/>
</g>
<!-- nconst_0x5edaa6771400_1 -->
<g id="node49" class="node">
<title>nconst_0x5edaa6771400_1</title>
<path fill="#00eef9" stroke="#1f1d31" d="M636,-739C636,-739 606,-739 606,-739 600,-739 594,-733 594,-727 594,-727 594,-715 594,-715 594,-709 600,-703 606,-703 606,-703 636,-703 636,-703 642,-703 648,-709 648,-715 648,-715 648,-727 648,-727 648,-733 642,-739 636,-739"/>
<text text-anchor="middle" x="621" y="-718.2" font-family="SF Pro Text Bold 10" font-size="11.00" fill="#000000">i64 32</text>
</g>
<!-- nconst_0x5edaa6771400_1&#45;&gt;n0x5edaa6771400 -->
<g id="edge79" class="edge">
<title>nconst_0x5edaa6771400_1&#45;&gt;n0x5edaa6771400</title>
<path fill="none" stroke="#00ff00" d="M635.49,-702.58C647.74,-687.84 665.44,-666.56 679.2,-650.01"/>
<polygon fill="#00ff00" stroke="#00ff00" points="681.9,-652.24 685.6,-642.31 676.52,-647.76 681.9,-652.24"/>
</g>
<!-- nconst_0x5edaa68a3640_1 -->
<g id="node50" class="node">
<title>nconst_0x5edaa68a3640_1</title>
<path fill="#00eef9" stroke="#1f1d31" d="M636,-642C636,-642 606,-642 606,-642 600,-642 594,-636 594,-630 594,-630 594,-618 594,-618 594,-612 600,-606 606,-606 606,-606 636,-606 636,-606 642,-606 648,-612 648,-618 648,-618 648,-630 648,-630 648,-636 642,-642 636,-642"/>
<text text-anchor="middle" x="621" y="-621.2" font-family="SF Pro Text Bold 10" font-size="11.00" fill="#000000">i64 32</text>
</g>
<!-- nconst_0x5edaa68a3640_1&#45;&gt;n0x5edaa68a3640 -->
<g id="edge83" class="edge">
<title>nconst_0x5edaa68a3640_1&#45;&gt;n0x5edaa68a3640</title>
<path fill="none" stroke="#00ff00" d="M635.49,-605.58C647.74,-590.84 665.44,-569.56 679.2,-553.01"/>
<polygon fill="#00ff00" stroke="#00ff00" points="681.9,-555.24 685.6,-545.31 676.52,-550.76 681.9,-555.24"/>
</g>
<!-- n0x5edaa691b660 -->
<g id="node51" class="node">
<title>n0x5edaa691b660</title>
<path fill="#00eef9" stroke="#1f1d31" d="M716.5,-448C716.5,-448 667.5,-448 667.5,-448 661.5,-448 655.5,-442 655.5,-436 655.5,-436 655.5,-424 655.5,-424 655.5,-418 661.5,-412 667.5,-412 667.5,-412 716.5,-412 716.5,-412 722.5,-412 728.5,-418 728.5,-424 728.5,-424 728.5,-436 728.5,-436 728.5,-442 722.5,-448 716.5,-448"/>
<text text-anchor="middle" x="692" y="-427.2" font-family="SF Pro Text Bold 10" font-size="11.00" fill="#000000">ptr @.str.1</text>
</g>
<!-- n0x5edaa691b660&#45;&gt;n0x5edaa67b9f80 -->
<g id="edge87" class="edge">
<title>n0x5edaa691b660&#45;&gt;n0x5edaa67b9f80</title>
<path fill="none" stroke="#00ff00" d="M701.64,-412C707.76,-401.46 716.02,-387.73 724,-376 727.72,-370.53 731.89,-364.8 735.95,-359.4"/>
<polygon fill="#00ff00" stroke="#00ff00" points="738.88,-361.33 742.18,-351.26 733.32,-357.08 738.88,-361.33"/>
</g>
<!-- n0x5edaa69190b8 -->
<g id="node52" class="node">
<title>n0x5edaa69190b8</title>
<path fill="#00eef9" stroke="#1f1d31" d="M618,-448C618,-448 566,-448 566,-448 560,-448 554,-442 554,-436 554,-436 554,-424 554,-424 554,-418 560,-412 566,-412 566,-412 618,-412 618,-412 624,-412 630,-418 630,-424 630,-424 630,-436 630,-436 630,-442 624,-448 618,-448"/>
<text text-anchor="middle" x="592" y="-427.2" font-family="SF Pro Text Bold 10" font-size="11.00" fill="#000000">ptr @printf</text>
</g>
<!-- n0x5edaa69190b8&#45;&gt;n0x5edaa67b9f80 -->
<g id="edge90" class="edge">
<title>n0x5edaa69190b8&#45;&gt;n0x5edaa67b9f80</title>
<path fill="none" stroke="#00ff00" d="M621.7,-411.8C649.39,-395.76 690.73,-371.81 720.23,-354.72"/>
<polygon fill="#00ff00" stroke="#00ff00" points="722.07,-357.7 728.97,-349.66 718.56,-351.64 722.07,-357.7"/>
</g>
<!-- n0x5edaa69199d0&#45;&gt;n0x5edaa691ba70 -->
<g id="edge92" class="edge">
<title>n0x5edaa69199d0&#45;&gt;n0x5edaa691ba70</title>
<path fill="none" stroke="#ff0000" stroke-width="3" d="M71.02,-896.72C50.95,-879.48 25,-851 25,-819 25,-819 25,-819 25,-332 25,-304 44.87,-278.69 63.28,-261.25"/>
<polygon fill="#ff0000" stroke="#ff0000" stroke-width="3" points="65.94,-263.57 71.02,-254.28 61.25,-258.37 65.94,-263.57"/>
</g>
<!-- n0x5edaa691ba70&#45;&gt;n0x5edaa6915838 -->
<g id="edge105" class="edge">
<title>n0x5edaa691ba70&#45;&gt;n0x5edaa6915838</title>
<path fill="none" stroke="#ea00ff" stroke-width="5" d="M121.19,-231.1C225.34,-216.15 599.1,-162.52 718.82,-145.34"/>
<polygon fill="#ea00ff" stroke="#ea00ff" stroke-width="5" points="719.68,-149.63 728.95,-143.88 718.43,-140.97 719.68,-149.63"/>
<text text-anchor="middle" x="457.5" y="-185" font-family="SF Pro Text Bold 10" font-size="10.00">i32 1</text>
</g>
<!-- n0x5edaa6918640 -->
<g id="node55" class="node">
<title>n0x5edaa6918640</title>
<path fill="#00eef9" stroke="#1f1d31" d="M73.5,-1030C73.5,-1030 36.5,-1030 36.5,-1030 30.5,-1030 24.5,-1024 24.5,-1018 24.5,-1018 24.5,-1006 24.5,-1006 24.5,-1000 30.5,-994 36.5,-994 36.5,-994 73.5,-994 73.5,-994 79.5,-994 85.5,-1000 85.5,-1006 85.5,-1006 85.5,-1018 85.5,-1018 85.5,-1024 79.5,-1030 73.5,-1030"/>
<text text-anchor="middle" x="55" y="-1009.2" font-family="SF Pro Text Bold 10" font-size="11.00" fill="#000000">ptr @str</text>
</g>
<!-- n0x5edaa6918640&#45;&gt;n0x5edaa69199d0 -->
<g id="edge93" class="edge">
<title>n0x5edaa6918640&#45;&gt;n0x5edaa69199d0</title>
<path fill="none" stroke="#00ff00" d="M62.15,-993.58C67.98,-979.38 76.31,-959.1 82.98,-942.83"/>
<polygon fill="#00ff00" stroke="#00ff00" points="86.33,-943.89 86.89,-933.31 79.86,-941.24 86.33,-943.89"/>
</g>
<!-- n0x5edaa691bfd0 -->
<g id="node57" class="node">
<title>n0x5edaa691bfd0</title>
<path fill="#e8eef9" stroke="#1f1d31" d="M771,-60C771,-60 741,-60 741,-60 735,-60 729,-54 729,-48 729,-48 729,-36 729,-36 729,-30 735,-24 741,-24 741,-24 771,-24 771,-24 777,-24 783,-30 783,-36 783,-36 783,-48 783,-48 783,-54 777,-60 771,-60"/>
<text text-anchor="middle" x="756" y="-39.2" font-family="SF Pro Text Bold 10" font-size="11.00" fill="#000000">ret</text>
</g>
<!-- n0x5edaa6915838&#45;&gt;n0x5edaa691bfd0 -->
<g id="edge96" class="edge">
<title>n0x5edaa6915838&#45;&gt;n0x5edaa691bfd0</title>
<path fill="none" stroke="#ff0000" stroke-width="3" d="M756,-120.58C756,-106.65 756,-86.86 756,-70.76"/>
<polygon fill="#ff0000" stroke="#ff0000" stroke-width="3" points="759.5,-70.31 756,-60.31 752.5,-70.31 759.5,-70.31"/>
</g>
<!-- n0x5edaa6915838&#45;&gt;n0x5edaa691bfd0 -->
<g id="edge97" class="edge">
<title>n0x5edaa6915838&#45;&gt;n0x5edaa691bfd0</title>
<path fill="none" stroke="#0000ff" d="M757.18,-120.82C757.76,-110.45 758.28,-96.97 758,-85 757.89,-80.27 757.7,-75.25 757.49,-70.39"/>
<polygon fill="#0000ff" stroke="#0000ff" points="760.98,-69.98 757,-60.16 753.99,-70.31 760.98,-69.98"/>
<text text-anchor="middle" x="769.5" y="-88" font-family="SF Pro Text Bold 10" font-size="10.00">%21</text>
</g>
<!-- n0x5edaa6915838&#45;&gt;n0x5edaa691bfd0 -->
<g id="edge98" class="edge">
<title>n0x5edaa6915838&#45;&gt;n0x5edaa691bfd0</title>
<path fill="none" stroke="#00ff00" d="M771.84,-120.96C777.46,-113.8 783.1,-105.05 786,-96 789.02,-86.58 785.83,-76.98 780.56,-68.57"/>
<polygon fill="#00ff00" stroke="#00ff00" points="783.24,-66.3 774.5,-60.31 777.59,-70.44 783.24,-66.3"/>
<text text-anchor="middle" x="797.5" y="-88" font-family="SF Pro Text Bold 10" font-size="10.00">%21</text>
</g>
</g>
</svg>
