<?xml version="1.0" encoding="UTF-8" standalone="no"?>
<!DOCTYPE svg PUBLIC "-//W3C//DTD SVG 1.1//EN"
 "http://www.w3.org/Graphics/SVG/1.1/DTD/svg11.dtd">
<!-- Generated by graphviz version 2.43.0 (0)
 -->
<!-- Title: examples/factO1/fact.c Pages: 1 -->
<svg width="2116pt" height="1691pt"
 viewBox="0.00 0.00 2115.85 1691.20" xmlns="http://www.w3.org/2000/svg" xmlns:xlink="http://www.w3.org/1999/xlink">
<g id="graph0" class="graph" transform="scale(1 1) rotate(0) translate(21.6 1669.6)">
<title>examples/factO1/fact.c</title>
<polygon fill="white" stroke="transparent" points="-21.6,21.6 -21.6,-1669.6 2094.25,-1669.6 2094.25,21.6 -21.6,21.6"/>
<g id="clust1" class="cluster">
<title>cluster_1101278241130363025</title>
<path fill="#e3e3e3" stroke="#000000" stroke-width="2" d="M1169,-881C1169,-881 1986,-881 1986,-881 1992,-881 1998,-887 1998,-893 1998,-893 1998,-1628 1998,-1628 1998,-1634 1992,-1640 1986,-1640 1986,-1640 1169,-1640 1169,-1640 1163,-1640 1157,-1634 1157,-1628 1157,-1628 1157,-893 1157,-893 1157,-887 1163,-881 1169,-881"/>
<text text-anchor="start" x="1165" y="-1626.6" font-family="SF Pro Text Bold 10" font-weight="bold" font-size="13.00">fact</text>
</g>
<g id="clust2" class="cluster">
<title>cluster_1_1</title>
<path fill="#a4a4a4" stroke="#000000" stroke-width="2" d="M1518,-1461C1518,-1461 1572,-1461 1572,-1461 1578,-1461 1584,-1467 1584,-1473 1584,-1473 1584,-1598 1584,-1598 1584,-1604 1578,-1610 1572,-1610 1572,-1610 1518,-1610 1518,-1610 1512,-1610 1506,-1604 1506,-1598 1506,-1598 1506,-1473 1506,-1473 1506,-1467 1512,-1461 1518,-1461"/>
</g>
<g id="clust3" class="cluster">
<title>cluster_1_2</title>
<path fill="#a4a4a4" stroke="#000000" stroke-width="2" d="M1334,-889C1334,-889 1921,-889 1921,-889 1927,-889 1933,-895 1933,-901 1933,-901 1933,-1404 1933,-1404 1933,-1410 1927,-1416 1921,-1416 1921,-1416 1334,-1416 1334,-1416 1328,-1416 1322,-1410 1322,-1404 1322,-1404 1322,-901 1322,-901 1322,-895 1328,-889 1334,-889"/>
</g>
<g id="clust4" class="cluster">
<title>cluster_1_3</title>
<path fill="#a4a4a4" stroke="#000000" stroke-width="2" d="M1674,-1461C1674,-1461 1807,-1461 1807,-1461 1813,-1461 1819,-1467 1819,-1473 1819,-1473 1819,-1598 1819,-1598 1819,-1604 1813,-1610 1807,-1610 1807,-1610 1674,-1610 1674,-1610 1668,-1610 1662,-1604 1662,-1598 1662,-1598 1662,-1473 1662,-1473 1662,-1467 1668,-1461 1674,-1461"/>
</g>
<g id="clust5" class="cluster">
<title>cluster_1_4</title>
<path fill="#a4a4a4" stroke="#000000" stroke-width="2" d="M1177,-889C1177,-889 1302,-889 1302,-889 1308,-889 1314,-895 1314,-901 1314,-901 1314,-929 1314,-929 1314,-935 1308,-941 1302,-941 1302,-941 1177,-941 1177,-941 1171,-941 1165,-935 1165,-929 1165,-929 1165,-901 1165,-901 1165,-895 1171,-889 1177,-889"/>
</g>
<g id="clust6" class="cluster">
<title>cluster_11868120863286193964</title>
<path fill="#e3e3e3" stroke="#000000" stroke-width="2" d="M20,-8C20,-8 1137,-8 1137,-8 1143,-8 1149,-14 1149,-20 1149,-20 1149,-1628 1149,-1628 1149,-1634 1143,-1640 1137,-1640 1137,-1640 20,-1640 20,-1640 14,-1640 8,-1634 8,-1628 8,-1628 8,-20 8,-20 8,-14 14,-8 20,-8"/>
<text text-anchor="start" x="16" y="-1626.6" font-family="SF Pro Text Bold 10" font-weight="bold" font-size="13.00">main</text>
</g>
<g id="clust11" class="cluster">
<title>cluster_2_5</title>
<path fill="#a4a4a4" stroke="#000000" stroke-width="2" d="M448,-210C448,-210 716,-210 716,-210 722,-210 728,-216 728,-222 728,-222 728,-444 728,-444 728,-450 722,-456 716,-456 716,-456 448,-456 448,-456 442,-456 436,-450 436,-444 436,-444 436,-222 436,-222 436,-216 442,-210 448,-210"/>
</g>
<g id="clust7" class="cluster">
<title>cluster_2_1</title>
<path fill="#a4a4a4" stroke="#000000" stroke-width="2" d="M715,-1364C715,-1364 938,-1364 938,-1364 944,-1364 950,-1370 950,-1376 950,-1376 950,-1598 950,-1598 950,-1604 944,-1610 938,-1610 938,-1610 715,-1610 715,-1610 709,-1610 703,-1604 703,-1598 703,-1598 703,-1376 703,-1376 703,-1370 709,-1364 715,-1364"/>
</g>
<g id="clust8" class="cluster">
<title>cluster_2_2</title>
<path fill="#a4a4a4" stroke="#000000" stroke-width="2" d="M970,-1180C970,-1180 1129,-1180 1129,-1180 1135,-1180 1141,-1186 1141,-1192 1141,-1192 1141,-1404 1141,-1404 1141,-1410 1135,-1416 1129,-1416 1129,-1416 970,-1416 970,-1416 964,-1416 958,-1410 958,-1404 958,-1404 958,-1192 958,-1192 958,-1186 964,-1180 970,-1180"/>
</g>
<g id="clust9" class="cluster">
<title>cluster_2_3</title>
<path fill="#a4a4a4" stroke="#000000" stroke-width="2" d="M448,-986C448,-986 683,-986 683,-986 689,-986 695,-992 695,-998 695,-998 695,-1404 695,-1404 695,-1410 689,-1416 683,-1416 683,-1416 448,-1416 448,-1416 442,-1416 436,-1410 436,-1404 436,-1404 436,-998 436,-998 436,-992 442,-986 448,-986"/>
</g>
<g id="clust10" class="cluster">
<title>cluster_2_4</title>
<path fill="#a4a4a4" stroke="#000000" stroke-width="2" d="M28,-210C28,-210 416,-210 416,-210 422,-210 428,-216 428,-222 428,-222 428,-1026 428,-1026 428,-1032 422,-1038 416,-1038 416,-1038 28,-1038 28,-1038 22,-1038 16,-1032 16,-1026 16,-1026 16,-222 16,-222 16,-216 22,-210 28,-210"/>
</g>
<g id="clust12" class="cluster">
<title>cluster_2_6</title>
<path fill="#a4a4a4" stroke="#000000" stroke-width="2" d="M543,-16C543,-16 665,-16 665,-16 671,-16 677,-22 677,-28 677,-28 677,-153 677,-153 677,-159 671,-165 665,-165 665,-165 543,-165 543,-165 537,-165 531,-159 531,-153 531,-153 531,-28 531,-28 531,-22 537,-16 543,-16"/>
</g>
<!-- n0x6238305f9ee0 -->
<g id="node1" class="node">
<title>n0x6238305f9ee0</title>
<path fill="#e8eef9" stroke="#1f1d31" d="M1560,-1505C1560,-1505 1530,-1505 1530,-1505 1524,-1505 1518,-1499 1518,-1493 1518,-1493 1518,-1481 1518,-1481 1518,-1475 1524,-1469 1530,-1469 1530,-1469 1560,-1469 1560,-1469 1566,-1469 1572,-1475 1572,-1481 1572,-1481 1572,-1493 1572,-1493 1572,-1499 1566,-1505 1560,-1505"/>
<text text-anchor="middle" x="1545" y="-1484.2" font-family="SF Pro Text Bold 10" font-size="11.00" fill="#000000">br</text>
</g>
<!-- n0x6238305ff6c8 -->
<g id="node3" class="node">
<title>n0x6238305ff6c8</title>
<path fill="#e8eef9" stroke="#1f1d31" d="M1637,-1408C1637,-1408 1607,-1408 1607,-1408 1601,-1408 1595,-1402 1595,-1396 1595,-1396 1595,-1384 1595,-1384 1595,-1378 1601,-1372 1607,-1372 1607,-1372 1637,-1372 1637,-1372 1643,-1372 1649,-1378 1649,-1384 1649,-1384 1649,-1396 1649,-1396 1649,-1402 1643,-1408 1637,-1408"/>
<text text-anchor="middle" x="1622" y="-1387.2" font-family="SF Pro Text Bold 10" font-size="11.00" fill="#000000">phi</text>
</g>
<!-- n0x6238305f9ee0&#45;&gt;n0x6238305ff6c8 -->
<g id="edge30" class="edge">
<title>n0x6238305f9ee0&#45;&gt;n0x6238305ff6c8</title>
<path fill="none" stroke="#ea00ff" stroke-width="5" d="M1559.12,-1468.58C1570.95,-1453.98 1588,-1432.95 1601.36,-1416.46"/>
<polygon fill="#ea00ff" stroke="#ea00ff" stroke-width="5" points="1605.07,-1418.84 1607.97,-1408.31 1598.27,-1413.33 1605.07,-1418.84"/>
<text text-anchor="middle" x="1597.5" y="-1436" font-family="SF Pro Text Bold 10" font-size="10.00">i64 1</text>
</g>
<!-- n0x6238305f97d8 -->
<g id="node4" class="node">
<title>n0x6238305f97d8</title>
<path fill="#e8eef9" stroke="#1f1d31" d="M1637,-1321C1637,-1321 1607,-1321 1607,-1321 1601,-1321 1595,-1315 1595,-1309 1595,-1309 1595,-1297 1595,-1297 1595,-1291 1601,-1285 1607,-1285 1607,-1285 1637,-1285 1637,-1285 1643,-1285 1649,-1291 1649,-1297 1649,-1297 1649,-1309 1649,-1309 1649,-1315 1643,-1321 1637,-1321"/>
<text text-anchor="middle" x="1622" y="-1300.2" font-family="SF Pro Text Bold 10" font-size="11.00" fill="#000000">phi</text>
</g>
<!-- n0x6238305f9ee0&#45;&gt;n0x6238305f97d8 -->
<g id="edge32" class="edge">
<title>n0x6238305f9ee0&#45;&gt;n0x6238305f97d8</title>
<path fill="none" stroke="#ea00ff" stroke-width="5" d="M1541.32,-1468.76C1536.96,-1444.12 1532.23,-1398.03 1549,-1364 1557.05,-1347.67 1571.83,-1334.22 1586.01,-1324.23"/>
<polygon fill="#ea00ff" stroke="#ea00ff" stroke-width="5" points="1588.78,-1327.64 1594.68,-1318.46 1583.93,-1320.35 1588.78,-1327.64"/>
<text text-anchor="middle" x="1566" y="-1387.5" font-family="SF Pro Text Bold 10" font-size="10.00">i64 %0</text>
</g>
<!-- n0x6238305f9ec0 -->
<g id="node2" class="node">
<title>n0x6238305f9ec0</title>
<path fill="#00eef9" stroke="#1f1d31" d="M1564,-1602C1564,-1602 1526,-1602 1526,-1602 1520,-1602 1514,-1596 1514,-1590 1514,-1590 1514,-1578 1514,-1578 1514,-1572 1520,-1566 1526,-1566 1526,-1566 1564,-1566 1564,-1566 1570,-1566 1576,-1572 1576,-1578 1576,-1578 1576,-1590 1576,-1590 1576,-1596 1570,-1602 1564,-1602"/>
<text text-anchor="middle" x="1545" y="-1581.2" font-family="SF Pro Text Bold 10" font-size="11.00" fill="#000000">label %2</text>
</g>
<!-- n0x6238305f9ec0&#45;&gt;n0x6238305f9ee0 -->
<g id="edge1" class="edge">
<title>n0x6238305f9ec0&#45;&gt;n0x6238305f9ee0</title>
<path fill="none" stroke="#00ff00" d="M1545,-1565.58C1545,-1551.65 1545,-1531.86 1545,-1515.76"/>
<polygon fill="#00ff00" stroke="#00ff00" points="1548.5,-1515.31 1545,-1505.31 1541.5,-1515.31 1548.5,-1515.31"/>
<text text-anchor="middle" x="1553" y="-1533" font-family="SF Pro Text Bold 10" font-size="10.00">%2</text>
</g>
<!-- n0x6238305ff6c8&#45;&gt;n0x6238305f97d8 -->
<g id="edge2" class="edge">
<title>n0x6238305ff6c8&#45;&gt;n0x6238305f97d8</title>
<path fill="none" stroke="#ff0000" stroke-width="3" d="M1622,-1371.8C1622,-1360.16 1622,-1344.55 1622,-1331.24"/>
<polygon fill="#ff0000" stroke="#ff0000" stroke-width="3" points="1625.5,-1331.18 1622,-1321.18 1618.5,-1331.18 1625.5,-1331.18"/>
</g>
<!-- n0x6238305fe040 -->
<g id="node7" class="node">
<title>n0x6238305fe040</title>
<path fill="#e8eef9" stroke="#1f1d31" d="M1425,-1030C1425,-1030 1395,-1030 1395,-1030 1389,-1030 1383,-1024 1383,-1018 1383,-1018 1383,-1006 1383,-1006 1383,-1000 1389,-994 1395,-994 1395,-994 1425,-994 1425,-994 1431,-994 1437,-1000 1437,-1006 1437,-1006 1437,-1018 1437,-1018 1437,-1024 1431,-1030 1425,-1030"/>
<text text-anchor="middle" x="1410" y="-1009.2" font-family="SF Pro Text Bold 10" font-size="11.00" fill="#000000">mul</text>
</g>
<!-- n0x6238305ff6c8&#45;&gt;n0x6238305fe040 -->
<g id="edge5" class="edge">
<title>n0x6238305ff6c8&#45;&gt;n0x6238305fe040</title>
<path fill="none" stroke="#0000ff" d="M1600.9,-1371.75C1597.06,-1368.98 1593,-1366.28 1589,-1364 1570.65,-1353.53 1564.98,-1352.87 1545,-1346 1506.14,-1332.64 1483.77,-1351.28 1456,-1321 1383.23,-1241.67 1395.83,-1099.43 1405.02,-1040.12"/>
<polygon fill="#0000ff" stroke="#0000ff" points="1408.51,-1040.48 1406.68,-1030.05 1401.6,-1039.35 1408.51,-1040.48"/>
<text text-anchor="middle" x="1415" y="-1203.5" font-family="SF Pro Text Bold 10" font-size="10.00">%3</text>
</g>
<!-- n0x6238305ff6c8&#45;&gt;n0x6238305fe040 -->
<g id="edge27" class="edge">
<title>n0x6238305ff6c8&#45;&gt;n0x6238305fe040</title>
<path fill="none" stroke="#00ff00" d="M1601.86,-1371.81C1597.79,-1368.9 1593.4,-1366.13 1589,-1364 1520.82,-1330.93 1482.38,-1369.32 1424,-1321 1387.25,-1290.58 1388.48,-1270.55 1378,-1224 1363.25,-1158.49 1385.42,-1079.99 1399.63,-1039.72"/>
<polygon fill="#00ff00" stroke="#00ff00" points="1403,-1040.7 1403.13,-1030.11 1396.42,-1038.31 1403,-1040.7"/>
<text text-anchor="middle" x="1386" y="-1203.5" font-family="SF Pro Text Bold 10" font-size="10.00">%3</text>
</g>
<!-- n0x6238305f9c20 -->
<g id="node8" class="node">
<title>n0x6238305f9c20</title>
<path fill="#e8eef9" stroke="#1f1d31" d="M1815,-933C1815,-933 1785,-933 1785,-933 1779,-933 1773,-927 1773,-921 1773,-921 1773,-909 1773,-909 1773,-903 1779,-897 1785,-897 1785,-897 1815,-897 1815,-897 1821,-897 1827,-903 1827,-909 1827,-909 1827,-921 1827,-921 1827,-927 1821,-933 1815,-933"/>
<text text-anchor="middle" x="1800" y="-912.2" font-family="SF Pro Text Bold 10" font-size="11.00" fill="#000000">mul</text>
</g>
<!-- n0x6238305ff6c8&#45;&gt;n0x6238305f9c20 -->
<g id="edge6" class="edge">
<title>n0x6238305ff6c8&#45;&gt;n0x6238305f9c20</title>
<path fill="none" stroke="#0000ff" d="M1646.29,-1371.89C1650.18,-1369.22 1654.19,-1366.51 1658,-1364 1744.14,-1307.32 1808.77,-1321.26 1843,-1224 1862.87,-1167.55 1872.3,-1150.26 1864,-1091 1857.27,-1042.94 1850.26,-1031.73 1834,-986 1828.7,-971.09 1821.13,-955.17 1814.48,-942.28"/>
<polygon fill="#0000ff" stroke="#0000ff" points="1817.39,-940.3 1809.62,-933.09 1811.2,-943.56 1817.39,-940.3"/>
<text text-anchor="middle" x="1873" y="-1155" font-family="SF Pro Text Bold 10" font-size="10.00">%3</text>
</g>
<!-- n0x6238305ff6c8&#45;&gt;n0x6238305f9c20 -->
<g id="edge22" class="edge">
<title>n0x6238305ff6c8&#45;&gt;n0x6238305f9c20</title>
<path fill="none" stroke="#00ff00" d="M1600.77,-1371.97C1596.94,-1369.17 1592.92,-1366.41 1589,-1364 1573.42,-1354.43 1568.73,-1353.38 1552,-1346 1524.44,-1333.85 1507.75,-1344.58 1489,-1321 1442.66,-1262.73 1449.59,-1050.94 1486,-986 1495.74,-968.62 1502.75,-965.98 1521,-958 1602,-922.59 1707.45,-916.24 1762.62,-915.56"/>
<polygon fill="#00ff00" stroke="#00ff00" points="1762.99,-919.06 1772.97,-915.5 1762.94,-912.06 1762.99,-919.06"/>
<text text-anchor="middle" x="1464" y="-1155" font-family="SF Pro Text Bold 10" font-size="10.00">%3</text>
</g>
<!-- n0x623830455490 -->
<g id="node5" class="node">
<title>n0x623830455490</title>
<path fill="#e8eef9" stroke="#1f1d31" d="M1558,-1224C1558,-1224 1528,-1224 1528,-1224 1522,-1224 1516,-1218 1516,-1212 1516,-1212 1516,-1200 1516,-1200 1516,-1194 1522,-1188 1528,-1188 1528,-1188 1558,-1188 1558,-1188 1564,-1188 1570,-1194 1570,-1200 1570,-1200 1570,-1212 1570,-1212 1570,-1218 1564,-1224 1558,-1224"/>
<text text-anchor="middle" x="1543" y="-1203.2" font-family="SF Pro Text Bold 10" font-size="11.00" fill="#000000">icmp</text>
</g>
<!-- n0x6238305f97d8&#45;&gt;n0x623830455490 -->
<g id="edge3" class="edge">
<title>n0x6238305f97d8&#45;&gt;n0x623830455490</title>
<path fill="none" stroke="#ff0000" stroke-width="3" d="M1612.3,-1284.54C1605.99,-1273.83 1597.24,-1260.08 1588,-1249 1583.01,-1243.02 1577.22,-1237.04 1571.48,-1231.55"/>
<polygon fill="#ff0000" stroke="#ff0000" stroke-width="3" points="1573.48,-1228.63 1563.77,-1224.4 1568.73,-1233.77 1573.48,-1228.63"/>
</g>
<!-- n0x6238305f97d8&#45;&gt;n0x623830455490 -->
<g id="edge7" class="edge">
<title>n0x6238305f97d8&#45;&gt;n0x623830455490</title>
<path fill="none" stroke="#0000ff" d="M1615.39,-1284.69C1610.7,-1273.77 1603.71,-1259.75 1595,-1249 1589.59,-1242.33 1582.96,-1236 1576.27,-1230.38"/>
<polygon fill="#0000ff" stroke="#0000ff" points="1578.45,-1227.64 1568.45,-1224.12 1574.07,-1233.11 1578.45,-1227.64"/>
<text text-anchor="middle" x="1610" y="-1252" font-family="SF Pro Text Bold 10" font-size="10.00">%4</text>
</g>
<!-- n0x6238305f97d8&#45;&gt;n0x623830455490 -->
<g id="edge11" class="edge">
<title>n0x6238305f97d8&#45;&gt;n0x623830455490</title>
<path fill="none" stroke="#00ff00" d="M1594.79,-1285.85C1584.75,-1278.88 1573.91,-1270.01 1566,-1260 1559.95,-1252.34 1555.17,-1242.84 1551.58,-1234"/>
<polygon fill="#00ff00" stroke="#00ff00" points="1554.79,-1232.6 1548.02,-1224.45 1548.23,-1235.04 1554.79,-1232.6"/>
<text text-anchor="middle" x="1574" y="-1252" font-family="SF Pro Text Bold 10" font-size="10.00">%4</text>
</g>
<!-- n0x6238305f97d8&#45;&gt;n0x6238305f9c20 -->
<g id="edge8" class="edge">
<title>n0x6238305f97d8&#45;&gt;n0x6238305f9c20</title>
<path fill="none" stroke="#0000ff" d="M1649,-1302.09C1686.62,-1300.89 1755.31,-1293.78 1801,-1260 1815.9,-1248.99 1816.15,-1241.58 1822,-1224 1830.61,-1198.11 1827.44,-1190.24 1829,-1163 1829.28,-1158.12 1829.92,-1156.8 1829,-1152 1826.74,-1140.25 1821.79,-1138.64 1819,-1127 1803.54,-1062.46 1800.43,-984.06 1799.95,-943.42"/>
<polygon fill="#0000ff" stroke="#0000ff" points="1803.45,-943.2 1799.87,-933.23 1796.45,-943.25 1803.45,-943.2"/>
<text text-anchor="middle" x="1827" y="-1106.5" font-family="SF Pro Text Bold 10" font-size="10.00">%4</text>
</g>
<!-- n0x6238305f97d8&#45;&gt;n0x6238305f9c20 -->
<g id="edge23" class="edge">
<title>n0x6238305f97d8&#45;&gt;n0x6238305f9c20</title>
<path fill="none" stroke="#00ff00" d="M1649.32,-1302.88C1689.29,-1302.78 1764.24,-1297.13 1813,-1260 1827.39,-1249.04 1827.08,-1241.41 1832,-1224 1860.58,-1122.91 1826.89,-996.69 1809.33,-942.61"/>
<polygon fill="#00ff00" stroke="#00ff00" points="1812.64,-941.46 1806.16,-933.08 1806,-943.67 1812.64,-941.46"/>
<text text-anchor="middle" x="1850" y="-1106.5" font-family="SF Pro Text Bold 10" font-size="10.00">%4</text>
</g>
<!-- n0x6238305f9d80 -->
<g id="node9" class="node">
<title>n0x6238305f9d80</title>
<path fill="#e8eef9" stroke="#1f1d31" d="M1558,-1030C1558,-1030 1528,-1030 1528,-1030 1522,-1030 1516,-1024 1516,-1018 1516,-1018 1516,-1006 1516,-1006 1516,-1000 1522,-994 1528,-994 1528,-994 1558,-994 1558,-994 1564,-994 1570,-1000 1570,-1006 1570,-1006 1570,-1018 1570,-1018 1570,-1024 1564,-1030 1558,-1030"/>
<text text-anchor="middle" x="1543" y="-1009.2" font-family="SF Pro Text Bold 10" font-size="11.00" fill="#000000">add</text>
</g>
<!-- n0x6238305f97d8&#45;&gt;n0x6238305f9d80 -->
<g id="edge9" class="edge">
<title>n0x6238305f97d8&#45;&gt;n0x6238305f9d80</title>
<path fill="none" stroke="#0000ff" d="M1649.02,-1298.77C1689.83,-1293.27 1764.13,-1280.64 1780,-1260 1809.3,-1221.89 1799.51,-1192.75 1774,-1152 1764.42,-1136.7 1753.73,-1140.72 1742,-1127 1718.21,-1099.18 1730.9,-1077.47 1702,-1055 1666.66,-1027.52 1614.97,-1017.95 1580.21,-1014.65"/>
<polygon fill="#0000ff" stroke="#0000ff" points="1580.26,-1011.15 1570.01,-1013.82 1579.69,-1018.12 1580.26,-1011.15"/>
<text text-anchor="middle" x="1788" y="-1155" font-family="SF Pro Text Bold 10" font-size="10.00">%4</text>
</g>
<!-- n0x6238305f97d8&#45;&gt;n0x6238305f9d80 -->
<g id="edge19" class="edge">
<title>n0x6238305f97d8&#45;&gt;n0x6238305f9d80</title>
<path fill="none" stroke="#00ff00" d="M1649,-1298.58C1691.22,-1292.7 1770.08,-1279.41 1790,-1260 1824.59,-1226.3 1823.49,-1195.25 1802,-1152 1793.81,-1135.52 1782.04,-1139.98 1769,-1127 1740.47,-1098.58 1747.69,-1077.06 1714,-1055 1673.26,-1028.33 1617.02,-1018.59 1580.34,-1015.03"/>
<polygon fill="#00ff00" stroke="#00ff00" points="1580.34,-1011.52 1570.08,-1014.15 1579.75,-1018.5 1580.34,-1011.52"/>
<text text-anchor="middle" x="1815" y="-1155" font-family="SF Pro Text Bold 10" font-size="10.00">%4</text>
</g>
<!-- n0x623830513d70 -->
<g id="node6" class="node">
<title>n0x623830513d70</title>
<path fill="#e8eef9" stroke="#1f1d31" d="M1558,-1127C1558,-1127 1528,-1127 1528,-1127 1522,-1127 1516,-1121 1516,-1115 1516,-1115 1516,-1103 1516,-1103 1516,-1097 1522,-1091 1528,-1091 1528,-1091 1558,-1091 1558,-1091 1564,-1091 1570,-1097 1570,-1103 1570,-1103 1570,-1115 1570,-1115 1570,-1121 1564,-1127 1558,-1127"/>
<text text-anchor="middle" x="1543" y="-1106.2" font-family="SF Pro Text Bold 10" font-size="11.00" fill="#000000">br</text>
</g>
<!-- n0x623830455490&#45;&gt;n0x623830513d70 -->
<g id="edge4" class="edge">
<title>n0x623830455490&#45;&gt;n0x623830513d70</title>
<path fill="none" stroke="#ff0000" stroke-width="3" d="M1543,-1187.58C1543,-1173.65 1543,-1153.86 1543,-1137.76"/>
<polygon fill="#ff0000" stroke="#ff0000" stroke-width="3" points="1546.5,-1137.31 1543,-1127.31 1539.5,-1137.31 1546.5,-1137.31"/>
</g>
<!-- n0x623830455490&#45;&gt;n0x623830513d70 -->
<g id="edge10" class="edge">
<title>n0x623830455490&#45;&gt;n0x623830513d70</title>
<path fill="none" stroke="#0000ff" d="M1544.18,-1187.82C1544.76,-1177.45 1545.28,-1163.97 1545,-1152 1544.89,-1147.27 1544.7,-1142.25 1544.49,-1137.39"/>
<polygon fill="#0000ff" stroke="#0000ff" points="1547.98,-1136.98 1544,-1127.16 1540.99,-1137.31 1547.98,-1136.98"/>
<text text-anchor="middle" x="1553" y="-1155" font-family="SF Pro Text Bold 10" font-size="10.00">%5</text>
</g>
<!-- n0x623830455490&#45;&gt;n0x623830513d70 -->
<g id="edge13" class="edge">
<title>n0x623830455490&#45;&gt;n0x623830513d70</title>
<path fill="none" stroke="#00ff00" d="M1555.46,-1187.91C1560.04,-1180.61 1564.67,-1171.77 1567,-1163 1569.44,-1153.82 1566.85,-1144.24 1562.6,-1135.79"/>
<polygon fill="#00ff00" stroke="#00ff00" points="1565.58,-1133.96 1557.49,-1127.13 1559.56,-1137.52 1565.58,-1133.96"/>
<text text-anchor="middle" x="1575" y="-1155" font-family="SF Pro Text Bold 10" font-size="10.00">%5</text>
</g>
<!-- n0x623830513d70&#45;&gt;n0x6238305fe040 -->
<g id="edge35" class="edge">
<title>n0x623830513d70&#45;&gt;n0x6238305fe040</title>
<path fill="none" stroke="#ea00ff" stroke-width="5" d="M1518.91,-1090.8C1497.45,-1075.46 1465.86,-1052.9 1442.22,-1036.02"/>
<polygon fill="#ea00ff" stroke="#ea00ff" stroke-width="5" points="1444.59,-1032.33 1433.91,-1030.08 1439.5,-1039.45 1444.59,-1032.33"/>
</g>
<!-- n0x623830513d70&#45;&gt;n0x6238305f9d80 -->
<g id="edge34" class="edge">
<title>n0x623830513d70&#45;&gt;n0x6238305f9d80</title>
<path fill="none" stroke="#ea00ff" stroke-width="5" d="M1543,-1090.58C1543,-1076.65 1543,-1056.86 1543,-1040.76"/>
<polygon fill="#ea00ff" stroke="#ea00ff" stroke-width="5" points="1547.38,-1040.31 1543,-1030.31 1538.63,-1040.31 1547.38,-1040.31"/>
</g>
<!-- n0x6238305fa2f0 -->
<g id="node16" class="node">
<title>n0x6238305fa2f0</title>
<path fill="#e8eef9" stroke="#1f1d31" d="M1215,-933C1215,-933 1185,-933 1185,-933 1179,-933 1173,-927 1173,-921 1173,-921 1173,-909 1173,-909 1173,-903 1179,-897 1185,-897 1185,-897 1215,-897 1215,-897 1221,-897 1227,-903 1227,-909 1227,-909 1227,-921 1227,-921 1227,-927 1221,-933 1215,-933"/>
<text text-anchor="middle" x="1200" y="-912.2" font-family="SF Pro Text Bold 10" font-size="11.00" fill="#000000">ret</text>
</g>
<!-- n0x6238305fe040&#45;&gt;n0x6238305fa2f0 -->
<g id="edge25" class="edge">
<title>n0x6238305fe040&#45;&gt;n0x6238305fa2f0</title>
<path fill="none" stroke="#ff0000" stroke-width="3" d="M1394.93,-993.84C1383.34,-981.8 1366.26,-966.41 1348,-958 1303.87,-937.67 1285.52,-958 1240,-941 1237.73,-940.15 1235.46,-939.17 1233.21,-938.09"/>
<polygon fill="#ff0000" stroke="#ff0000" stroke-width="3" points="1234.63,-934.88 1224.16,-933.24 1231.32,-941.05 1234.63,-934.88"/>
</g>
<!-- n0x6238305fe040&#45;&gt;n0x6238305fa2f0 -->
<g id="edge26" class="edge">
<title>n0x6238305fe040&#45;&gt;n0x6238305fa2f0</title>
<path fill="none" stroke="#0000ff" d="M1382.91,-1006.01C1353.68,-999.93 1306.3,-988.05 1269,-969 1253.66,-961.17 1238.3,-949.8 1225.98,-939.59"/>
<polygon fill="#0000ff" stroke="#0000ff" points="1228.23,-936.92 1218.35,-933.11 1223.7,-942.25 1228.23,-936.92"/>
<text text-anchor="middle" x="1279.5" y="-961" font-family="SF Pro Text Bold 10" font-size="10.00">%10</text>
</g>
<!-- n0x6238305fe040&#45;&gt;n0x6238305fa2f0 -->
<g id="edge29" class="edge">
<title>n0x6238305fe040&#45;&gt;n0x6238305fa2f0</title>
<path fill="none" stroke="#00ff00" d="M1382.69,-997.74C1359,-986.47 1323.63,-970.23 1292,-958 1269.32,-949.23 1262.03,-951.3 1240,-941 1238.16,-940.14 1236.31,-939.22 1234.46,-938.24"/>
<polygon fill="#00ff00" stroke="#00ff00" points="1235.73,-934.95 1225.3,-933.09 1232.3,-941.05 1235.73,-934.95"/>
<text text-anchor="middle" x="1328.5" y="-961" font-family="SF Pro Text Bold 10" font-size="10.00">%10</text>
</g>
<!-- n0x6238305f9c20&#45;&gt;n0x6238305ff6c8 -->
<g id="edge21" class="edge">
<title>n0x6238305f9c20&#45;&gt;n0x6238305ff6c8</title>
<path fill="none" stroke="#0000ff" d="M1772.95,-918.22C1706.36,-924.29 1537.5,-943.65 1504,-986 1480.91,-1015.19 1483.85,-1289.7 1504,-1321 1518.54,-1343.58 1535.23,-1333.52 1559,-1346 1572.77,-1353.23 1576.12,-1355.29 1589,-1364 1589.92,-1364.62 1590.86,-1365.26 1591.79,-1365.92"/>
<polygon fill="#0000ff" stroke="#0000ff" points="1590.07,-1368.99 1600.23,-1371.99 1594.16,-1363.31 1590.07,-1368.99"/>
<text text-anchor="middle" x="1495" y="-1155" font-family="SF Pro Text Bold 10" font-size="10.00">%8</text>
</g>
<!-- n0x6238305fe9d0 -->
<g id="node13" class="node">
<title>n0x6238305fe9d0</title>
<path fill="#e8eef9" stroke="#1f1d31" d="M1714,-1505C1714,-1505 1684,-1505 1684,-1505 1678,-1505 1672,-1499 1672,-1493 1672,-1493 1672,-1481 1672,-1481 1672,-1475 1678,-1469 1684,-1469 1684,-1469 1714,-1469 1714,-1469 1720,-1469 1726,-1475 1726,-1481 1726,-1481 1726,-1493 1726,-1493 1726,-1499 1720,-1505 1714,-1505"/>
<text text-anchor="middle" x="1699" y="-1484.2" font-family="SF Pro Text Bold 10" font-size="11.00" fill="#000000">br</text>
</g>
<!-- n0x6238305f9c20&#45;&gt;n0x6238305fe9d0 -->
<g id="edge17" class="edge">
<title>n0x6238305f9c20&#45;&gt;n0x6238305fe9d0</title>
<path fill="none" stroke="#ff0000" stroke-width="3" d="M1827.12,-919.39C1873.23,-926.85 1962,-949.21 1962,-1011 1962,-1391 1962,-1391 1962,-1391 1962,-1438.43 1808.79,-1468.8 1736.25,-1480.52"/>
<polygon fill="#ff0000" stroke="#ff0000" stroke-width="3" points="1735.49,-1477.1 1726.16,-1482.12 1736.58,-1484.01 1735.49,-1477.1"/>
</g>
<!-- n0x6238305f9d80&#45;&gt;n0x6238305f97d8 -->
<g id="edge18" class="edge">
<title>n0x6238305f9d80&#45;&gt;n0x6238305f97d8</title>
<path fill="none" stroke="#0000ff" d="M1570.07,-1029.6C1623.38,-1062.95 1738.58,-1138.41 1759,-1180 1767.62,-1197.55 1768.83,-1207.09 1759,-1224 1737.62,-1260.77 1691.7,-1281.65 1658.92,-1292.37"/>
<polygon fill="#0000ff" stroke="#0000ff" points="1657.73,-1289.08 1649.21,-1295.38 1659.8,-1295.76 1657.73,-1289.08"/>
<text text-anchor="middle" x="1753.5" y="-1155" font-family="SF Pro Text Bold 10" font-size="10.00">%7</text>
</g>
<!-- n0x6238305f9d80&#45;&gt;n0x6238305f9c20 -->
<g id="edge16" class="edge">
<title>n0x6238305f9d80&#45;&gt;n0x6238305f9c20</title>
<path fill="none" stroke="#ff0000" stroke-width="3" d="M1570.02,-1001.01C1616.39,-983.87 1711.16,-948.84 1763.41,-929.53"/>
<polygon fill="#ff0000" stroke="#ff0000" stroke-width="3" points="1764.79,-932.75 1772.96,-926 1762.37,-926.18 1764.79,-932.75"/>
</g>
<!-- n0x623830455470 -->
<g id="node10" class="node">
<title>n0x623830455470</title>
<path fill="#00eef9" stroke="#1f1d31" d="M1558,-1321C1558,-1321 1528,-1321 1528,-1321 1522,-1321 1516,-1315 1516,-1309 1516,-1309 1516,-1297 1516,-1297 1516,-1291 1522,-1285 1528,-1285 1528,-1285 1558,-1285 1558,-1285 1564,-1285 1570,-1291 1570,-1297 1570,-1297 1570,-1309 1570,-1309 1570,-1315 1564,-1321 1558,-1321"/>
<text text-anchor="middle" x="1543" y="-1300.2" font-family="SF Pro Text Bold 10" font-size="11.00" fill="#000000">i64 2</text>
</g>
<!-- n0x623830455470&#45;&gt;n0x623830455490 -->
<g id="edge12" class="edge">
<title>n0x623830455470&#45;&gt;n0x623830455490</title>
<path fill="none" stroke="#00ff00" d="M1543,-1284.58C1543,-1270.65 1543,-1250.86 1543,-1234.76"/>
<polygon fill="#00ff00" stroke="#00ff00" points="1546.5,-1234.31 1543,-1224.31 1539.5,-1234.31 1546.5,-1234.31"/>
</g>
<!-- n0x623830513d30 -->
<g id="node11" class="node">
<title>n0x623830513d30</title>
<path fill="#00eef9" stroke="#1f1d31" d="M1734.5,-1224C1734.5,-1224 1695.5,-1224 1695.5,-1224 1689.5,-1224 1683.5,-1218 1683.5,-1212 1683.5,-1212 1683.5,-1200 1683.5,-1200 1683.5,-1194 1689.5,-1188 1695.5,-1188 1695.5,-1188 1734.5,-1188 1734.5,-1188 1740.5,-1188 1746.5,-1194 1746.5,-1200 1746.5,-1200 1746.5,-1212 1746.5,-1212 1746.5,-1218 1740.5,-1224 1734.5,-1224"/>
<text text-anchor="middle" x="1715" y="-1203.2" font-family="SF Pro Text Bold 10" font-size="11.00" fill="#000000">label %6</text>
</g>
<!-- n0x623830513d30&#45;&gt;n0x623830513d70 -->
<g id="edge14" class="edge">
<title>n0x623830513d30&#45;&gt;n0x623830513d70</title>
<path fill="none" stroke="#00ff00" d="M1685.21,-1188C1680.46,-1185.31 1675.6,-1182.57 1671,-1180 1640.08,-1162.73 1604.75,-1143.44 1579.05,-1129.49"/>
<polygon fill="#00ff00" stroke="#00ff00" points="1580.51,-1126.3 1570.05,-1124.61 1577.17,-1132.45 1580.51,-1126.3"/>
<text text-anchor="middle" x="1647" y="-1155" font-family="SF Pro Text Bold 10" font-size="10.00">%6</text>
</g>
<!-- n0x623830513d50 -->
<g id="node12" class="node">
<title>n0x623830513d50</title>
<path fill="#00eef9" stroke="#1f1d31" d="M1646.5,-1224C1646.5,-1224 1607.5,-1224 1607.5,-1224 1601.5,-1224 1595.5,-1218 1595.5,-1212 1595.5,-1212 1595.5,-1200 1595.5,-1200 1595.5,-1194 1601.5,-1188 1607.5,-1188 1607.5,-1188 1646.5,-1188 1646.5,-1188 1652.5,-1188 1658.5,-1194 1658.5,-1200 1658.5,-1200 1658.5,-1212 1658.5,-1212 1658.5,-1218 1652.5,-1224 1646.5,-1224"/>
<text text-anchor="middle" x="1627" y="-1203.2" font-family="SF Pro Text Bold 10" font-size="11.00" fill="#000000">label %9</text>
</g>
<!-- n0x623830513d50&#45;&gt;n0x623830513d70 -->
<g id="edge15" class="edge">
<title>n0x623830513d50&#45;&gt;n0x623830513d70</title>
<path fill="none" stroke="#00ff00" d="M1615.88,-1187.61C1608.72,-1176.91 1598.93,-1163.17 1589,-1152 1583.55,-1145.86 1577.28,-1139.67 1571.16,-1133.99"/>
<polygon fill="#00ff00" stroke="#00ff00" points="1573.33,-1131.24 1563.57,-1127.13 1568.64,-1136.43 1573.33,-1131.24"/>
<text text-anchor="middle" x="1606" y="-1155" font-family="SF Pro Text Bold 10" font-size="10.00">%9</text>
</g>
<!-- n0x6238305fe9d0&#45;&gt;n0x6238305ff6c8 -->
<g id="edge31" class="edge">
<title>n0x6238305fe9d0&#45;&gt;n0x6238305ff6c8</title>
<path fill="none" stroke="#ea00ff" stroke-width="5" d="M1680.72,-1468.66C1673.35,-1461.33 1664.96,-1452.52 1658,-1444 1651.03,-1435.47 1644.07,-1425.61 1638.15,-1416.73"/>
<polygon fill="#ea00ff" stroke="#ea00ff" stroke-width="5" points="1641.75,-1414.24 1632.62,-1408.25 1634.42,-1419.02 1641.75,-1414.24"/>
<text text-anchor="middle" x="1675" y="-1436" font-family="SF Pro Text Bold 10" font-size="10.00">i64 %8</text>
</g>
<!-- n0x6238305fe9d0&#45;&gt;n0x6238305f97d8 -->
<g id="edge33" class="edge">
<title>n0x6238305fe9d0&#45;&gt;n0x6238305f97d8</title>
<path fill="none" stroke="#ea00ff" stroke-width="5" d="M1698.84,-1468.55C1698.38,-1458.08 1697.14,-1444.6 1694,-1433 1683.46,-1394.02 1658.65,-1354.2 1641.11,-1329.31"/>
<polygon fill="#ea00ff" stroke="#ea00ff" stroke-width="5" points="1644.64,-1326.72 1635.25,-1321.15 1637.53,-1331.83 1644.64,-1326.72"/>
<text text-anchor="middle" x="1704" y="-1387.5" font-family="SF Pro Text Bold 10" font-size="10.00">i64 %7</text>
</g>
<!-- n0x6238305f9d60 -->
<g id="node14" class="node">
<title>n0x6238305f9d60</title>
<path fill="#00eef9" stroke="#1f1d31" d="M1799,-1602C1799,-1602 1769,-1602 1769,-1602 1763,-1602 1757,-1596 1757,-1590 1757,-1590 1757,-1578 1757,-1578 1757,-1572 1763,-1566 1769,-1566 1769,-1566 1799,-1566 1799,-1566 1805,-1566 1811,-1572 1811,-1578 1811,-1578 1811,-1590 1811,-1590 1811,-1596 1805,-1602 1799,-1602"/>
<text text-anchor="middle" x="1784" y="-1581.2" font-family="SF Pro Text Bold 10" font-size="11.00" fill="#000000">i64 &#45;1</text>
</g>
<!-- n0x6238305f9d60&#45;&gt;n0x6238305f9d80 -->
<g id="edge20" class="edge">
<title>n0x6238305f9d60&#45;&gt;n0x6238305f9d80</title>
<path fill="none" stroke="#00ff00" d="M1798.48,-1565.84C1836.27,-1519.24 1935,-1385.1 1935,-1255.5 1935,-1255.5 1935,-1255.5 1935,-1108 1935,-1035.45 1678.21,-1018.11 1580.3,-1014.13"/>
<polygon fill="#00ff00" stroke="#00ff00" points="1580.38,-1010.63 1570.25,-1013.75 1580.11,-1017.63 1580.38,-1010.63"/>
</g>
<!-- n0x6238305fe9b0 -->
<g id="node15" class="node">
<title>n0x6238305fe9b0</title>
<path fill="#00eef9" stroke="#1f1d31" d="M1720,-1602C1720,-1602 1682,-1602 1682,-1602 1676,-1602 1670,-1596 1670,-1590 1670,-1590 1670,-1578 1670,-1578 1670,-1572 1676,-1566 1682,-1566 1682,-1566 1720,-1566 1720,-1566 1726,-1566 1732,-1572 1732,-1578 1732,-1578 1732,-1590 1732,-1590 1732,-1596 1726,-1602 1720,-1602"/>
<text text-anchor="middle" x="1701" y="-1581.2" font-family="SF Pro Text Bold 10" font-size="11.00" fill="#000000">label %2</text>
</g>
<!-- n0x6238305fe9b0&#45;&gt;n0x6238305fe9d0 -->
<g id="edge24" class="edge">
<title>n0x6238305fe9b0&#45;&gt;n0x6238305fe9d0</title>
<path fill="none" stroke="#00ff00" d="M1700.63,-1565.58C1700.34,-1551.65 1699.92,-1531.86 1699.58,-1515.76"/>
<polygon fill="#00ff00" stroke="#00ff00" points="1703.07,-1515.24 1699.36,-1505.31 1696.08,-1515.39 1703.07,-1515.24"/>
<text text-anchor="middle" x="1708" y="-1533" font-family="SF Pro Text Bold 10" font-size="10.00">%2</text>
</g>
<!-- n0x6238305fe020 -->
<g id="node17" class="node">
<title>n0x6238305fe020</title>
<path fill="#00eef9" stroke="#1f1d31" d="M1294,-933C1294,-933 1264,-933 1264,-933 1258,-933 1252,-927 1252,-921 1252,-921 1252,-909 1252,-909 1252,-903 1258,-897 1264,-897 1264,-897 1294,-897 1294,-897 1300,-897 1306,-903 1306,-909 1306,-909 1306,-921 1306,-921 1306,-927 1300,-933 1294,-933"/>
<text text-anchor="middle" x="1279" y="-912.2" font-family="SF Pro Text Bold 10" font-size="11.00" fill="#000000">i64 1</text>
</g>
<!-- n0x6238305fe020&#45;&gt;n0x6238305fe040 -->
<g id="edge28" class="edge">
<title>n0x6238305fe020&#45;&gt;n0x6238305fe040</title>
<path fill="none" stroke="#00ff00" d="M1301.75,-933.2C1306.31,-936.11 1311.18,-938.87 1316,-941 1345.28,-953.94 1361.35,-937.57 1386,-958 1394.08,-964.7 1399.56,-974.69 1403.21,-984.2"/>
<polygon fill="#00ff00" stroke="#00ff00" points="1399.92,-985.39 1406.39,-993.77 1406.56,-983.18 1399.92,-985.39"/>
</g>
<!-- n0x6238305fcba0 -->
<g id="node18" class="node">
<title>n0x6238305fcba0</title>
<path fill="#e8eef9" stroke="#1f1d31" d="M930,-1505C930,-1505 900,-1505 900,-1505 894,-1505 888,-1499 888,-1493 888,-1493 888,-1481 888,-1481 888,-1475 894,-1469 900,-1469 900,-1469 930,-1469 930,-1469 936,-1469 942,-1475 942,-1481 942,-1481 942,-1493 942,-1493 942,-1499 936,-1505 930,-1505"/>
<text text-anchor="middle" x="915" y="-1484.2" font-family="SF Pro Text Bold 10" font-size="11.00" fill="#000000">icmp</text>
</g>
<!-- n0x6238305fccc0 -->
<g id="node19" class="node">
<title>n0x6238305fccc0</title>
<path fill="#e8eef9" stroke="#1f1d31" d="M864,-1408C864,-1408 834,-1408 834,-1408 828,-1408 822,-1402 822,-1396 822,-1396 822,-1384 822,-1384 822,-1378 828,-1372 834,-1372 834,-1372 864,-1372 864,-1372 870,-1372 876,-1378 876,-1384 876,-1384 876,-1396 876,-1396 876,-1402 870,-1408 864,-1408"/>
<text text-anchor="middle" x="849" y="-1387.2" font-family="SF Pro Text Bold 10" font-size="11.00" fill="#000000">br</text>
</g>
<!-- n0x6238305fcba0&#45;&gt;n0x6238305fccc0 -->
<g id="edge36" class="edge">
<title>n0x6238305fcba0&#45;&gt;n0x6238305fccc0</title>
<path fill="none" stroke="#ff0000" stroke-width="3" d="M887.79,-1468.78C872.54,-1458.88 856.16,-1447.69 854,-1444 849.54,-1436.41 847.71,-1427.13 847.17,-1418.46"/>
<polygon fill="#ff0000" stroke="#ff0000" stroke-width="3" points="850.66,-1418.32 847.05,-1408.36 843.66,-1418.4 850.66,-1418.32"/>
</g>
<!-- n0x6238305fcba0&#45;&gt;n0x6238305fccc0 -->
<g id="edge37" class="edge">
<title>n0x6238305fcba0&#45;&gt;n0x6238305fccc0</title>
<path fill="none" stroke="#0000ff" d="M898.79,-1468.63C892.3,-1461.29 884.96,-1452.49 879,-1444 873.11,-1435.61 867.38,-1425.97 862.53,-1417.24"/>
<polygon fill="#0000ff" stroke="#0000ff" points="865.49,-1415.35 857.65,-1408.22 859.33,-1418.68 865.49,-1415.35"/>
<text text-anchor="middle" x="887" y="-1436" font-family="SF Pro Text Bold 10" font-size="10.00">%3</text>
</g>
<!-- n0x6238305fcba0&#45;&gt;n0x6238305fccc0 -->
<g id="edge40" class="edge">
<title>n0x6238305fcba0&#45;&gt;n0x6238305fccc0</title>
<path fill="none" stroke="#00ff00" d="M911.57,-1468.74C908.83,-1457.84 904.24,-1443.82 897,-1433 892.58,-1426.4 886.87,-1420.2 880.94,-1414.7"/>
<polygon fill="#00ff00" stroke="#00ff00" points="883.23,-1412.05 873.39,-1408.12 878.63,-1417.33 883.23,-1412.05"/>
<text text-anchor="middle" x="910" y="-1436" font-family="SF Pro Text Bold 10" font-size="10.00">%3</text>
</g>
<!-- n0x6238305ff950 -->
<g id="node24" class="node">
<title>n0x6238305ff950</title>
<path fill="#e8eef9" stroke="#1f1d31" d="M1103,-1321C1103,-1321 1073,-1321 1073,-1321 1067,-1321 1061,-1315 1061,-1309 1061,-1309 1061,-1297 1061,-1297 1061,-1291 1067,-1285 1073,-1285 1073,-1285 1103,-1285 1103,-1285 1109,-1285 1115,-1291 1115,-1297 1115,-1297 1115,-1309 1115,-1309 1115,-1315 1109,-1321 1103,-1321"/>
<text text-anchor="middle" x="1088" y="-1300.2" font-family="SF Pro Text Bold 10" font-size="11.00" fill="#000000">call</text>
</g>
<!-- n0x6238305fccc0&#45;&gt;n0x6238305ff950 -->
<g id="edge99" class="edge">
<title>n0x6238305fccc0&#45;&gt;n0x6238305ff950</title>
<path fill="none" stroke="#ea00ff" stroke-width="5" d="M876.11,-1380.58C914.8,-1368.37 987.95,-1344.64 1049,-1321 1049.84,-1320.67 1050.7,-1320.34 1051.55,-1320"/>
<polygon fill="#ea00ff" stroke="#ea00ff" stroke-width="5" points="1053.26,-1324.03 1060.84,-1316.18 1049.93,-1315.93 1053.26,-1324.03"/>
</g>
<!-- n0x6238305ff3b0 -->
<g id="node29" class="node">
<title>n0x6238305ff3b0</title>
<path fill="#e8eef9" stroke="#1f1d31" d="M675,-1321C675,-1321 645,-1321 645,-1321 639,-1321 633,-1315 633,-1309 633,-1309 633,-1297 633,-1297 633,-1291 639,-1285 645,-1285 645,-1285 675,-1285 675,-1285 681,-1285 687,-1291 687,-1297 687,-1297 687,-1309 687,-1309 687,-1315 681,-1321 675,-1321"/>
<text text-anchor="middle" x="660" y="-1300.2" font-family="SF Pro Text Bold 10" font-size="11.00" fill="#000000">call</text>
</g>
<!-- n0x6238305fccc0&#45;&gt;n0x6238305ff3b0 -->
<g id="edge100" class="edge">
<title>n0x6238305fccc0&#45;&gt;n0x6238305ff3b0</title>
<path fill="none" stroke="#ea00ff" stroke-width="5" d="M821.92,-1376.82C788.94,-1361.99 733.1,-1336.87 696.38,-1320.36"/>
<polygon fill="#ea00ff" stroke="#ea00ff" stroke-width="5" points="697.94,-1316.27 687.03,-1316.16 694.35,-1324.25 697.94,-1316.27"/>
</g>
<!-- n0x6238305fcb60 -->
<g id="node20" class="node">
<title>n0x6238305fcb60</title>
<path fill="#00eef9" stroke="#1f1d31" d="M930,-1602C930,-1602 900,-1602 900,-1602 894,-1602 888,-1596 888,-1590 888,-1590 888,-1578 888,-1578 888,-1572 894,-1566 900,-1566 900,-1566 930,-1566 930,-1566 936,-1566 942,-1572 942,-1578 942,-1578 942,-1590 942,-1590 942,-1596 936,-1602 930,-1602"/>
<text text-anchor="middle" x="915" y="-1581.2" font-family="SF Pro Text Bold 10" font-size="11.00" fill="#000000">i32 %0</text>
</g>
<!-- n0x6238305fcb60&#45;&gt;n0x6238305fcba0 -->
<g id="edge38" class="edge">
<title>n0x6238305fcb60&#45;&gt;n0x6238305fcba0</title>
<path fill="none" stroke="#00ff00" d="M915,-1565.58C915,-1551.65 915,-1531.86 915,-1515.76"/>
<polygon fill="#00ff00" stroke="#00ff00" points="918.5,-1515.31 915,-1505.31 911.5,-1515.31 918.5,-1515.31"/>
<text text-anchor="middle" x="923" y="-1533" font-family="SF Pro Text Bold 10" font-size="10.00">%0</text>
</g>
<!-- n0x6238305fcb80 -->
<g id="node21" class="node">
<title>n0x6238305fcb80</title>
<path fill="#00eef9" stroke="#1f1d31" d="M851,-1602C851,-1602 821,-1602 821,-1602 815,-1602 809,-1596 809,-1590 809,-1590 809,-1578 809,-1578 809,-1572 815,-1566 821,-1566 821,-1566 851,-1566 851,-1566 857,-1566 863,-1572 863,-1578 863,-1578 863,-1590 863,-1590 863,-1596 857,-1602 851,-1602"/>
<text text-anchor="middle" x="836" y="-1581.2" font-family="SF Pro Text Bold 10" font-size="11.00" fill="#000000">i32 2</text>
</g>
<!-- n0x6238305fcb80&#45;&gt;n0x6238305fcba0 -->
<g id="edge39" class="edge">
<title>n0x6238305fcb80&#45;&gt;n0x6238305fcba0</title>
<path fill="none" stroke="#00ff00" d="M850.49,-1565.58C862.74,-1550.84 880.44,-1529.56 894.2,-1513.01"/>
<polygon fill="#00ff00" stroke="#00ff00" points="896.9,-1515.24 900.6,-1505.31 891.52,-1510.76 896.9,-1515.24"/>
</g>
<!-- n0x6238305fcc80 -->
<g id="node22" class="node">
<title>n0x6238305fcc80</title>
<path fill="#00eef9" stroke="#1f1d31" d="M850.5,-1505C850.5,-1505 811.5,-1505 811.5,-1505 805.5,-1505 799.5,-1499 799.5,-1493 799.5,-1493 799.5,-1481 799.5,-1481 799.5,-1475 805.5,-1469 811.5,-1469 811.5,-1469 850.5,-1469 850.5,-1469 856.5,-1469 862.5,-1475 862.5,-1481 862.5,-1481 862.5,-1493 862.5,-1493 862.5,-1499 856.5,-1505 850.5,-1505"/>
<text text-anchor="middle" x="831" y="-1484.2" font-family="SF Pro Text Bold 10" font-size="11.00" fill="#000000">label %4</text>
</g>
<!-- n0x6238305fcc80&#45;&gt;n0x6238305fccc0 -->
<g id="edge41" class="edge">
<title>n0x6238305fcc80&#45;&gt;n0x6238305fccc0</title>
<path fill="none" stroke="#00ff00" d="M826.39,-1468.58C824.36,-1458.13 823.02,-1444.64 826,-1433 827.39,-1427.56 829.65,-1422.07 832.22,-1416.94"/>
<polygon fill="#00ff00" stroke="#00ff00" points="835.29,-1418.61 837.06,-1408.16 829.16,-1415.23 835.29,-1418.61"/>
<text text-anchor="middle" x="834" y="-1436" font-family="SF Pro Text Bold 10" font-size="10.00">%4</text>
</g>
<!-- n0x6238305fcca0 -->
<g id="node23" class="node">
<title>n0x6238305fcca0</title>
<path fill="#00eef9" stroke="#1f1d31" d="M762.5,-1505C762.5,-1505 723.5,-1505 723.5,-1505 717.5,-1505 711.5,-1499 711.5,-1493 711.5,-1493 711.5,-1481 711.5,-1481 711.5,-1475 717.5,-1469 723.5,-1469 723.5,-1469 762.5,-1469 762.5,-1469 768.5,-1469 774.5,-1475 774.5,-1481 774.5,-1481 774.5,-1493 774.5,-1493 774.5,-1499 768.5,-1505 762.5,-1505"/>
<text text-anchor="middle" x="743" y="-1484.2" font-family="SF Pro Text Bold 10" font-size="11.00" fill="#000000">label %6</text>
</g>
<!-- n0x6238305fcca0&#45;&gt;n0x6238305fccc0 -->
<g id="edge42" class="edge">
<title>n0x6238305fcca0&#45;&gt;n0x6238305fccc0</title>
<path fill="none" stroke="#00ff00" d="M762.12,-1468.8C773.66,-1458.43 788.67,-1444.94 802,-1433 808.56,-1427.12 815.64,-1420.79 822.27,-1414.86"/>
<polygon fill="#00ff00" stroke="#00ff00" points="824.66,-1417.43 829.78,-1408.15 819.99,-1412.21 824.66,-1417.43"/>
<text text-anchor="middle" x="810" y="-1436" font-family="SF Pro Text Bold 10" font-size="10.00">%6</text>
</g>
<!-- n0x6238305fcc10 -->
<g id="node25" class="node">
<title>n0x6238305fcc10</title>
<path fill="#e8eef9" stroke="#1f1d31" d="M1008,-1224C1008,-1224 978,-1224 978,-1224 972,-1224 966,-1218 966,-1212 966,-1212 966,-1200 966,-1200 966,-1194 972,-1188 978,-1188 978,-1188 1008,-1188 1008,-1188 1014,-1188 1020,-1194 1020,-1200 1020,-1200 1020,-1212 1020,-1212 1020,-1218 1014,-1224 1008,-1224"/>
<text text-anchor="middle" x="993" y="-1203.2" font-family="SF Pro Text Bold 10" font-size="11.00" fill="#000000">br</text>
</g>
<!-- n0x6238305ff950&#45;&gt;n0x6238305fcc10 -->
<g id="edge43" class="edge">
<title>n0x6238305ff950&#45;&gt;n0x6238305fcc10</title>
<path fill="none" stroke="#ff0000" stroke-width="3" d="M1070.58,-1284.58C1055.71,-1269.71 1034.17,-1248.17 1017.56,-1231.56"/>
<polygon fill="#ff0000" stroke="#ff0000" stroke-width="3" points="1019.86,-1228.91 1010.31,-1224.31 1014.91,-1233.86 1019.86,-1228.91"/>
</g>
<!-- n0x6238305f9838 -->
<g id="node60" class="node">
<title>n0x6238305f9838</title>
<path fill="#e8eef9" stroke="#1f1d31" d="M581,-157C581,-157 551,-157 551,-157 545,-157 539,-151 539,-145 539,-145 539,-133 539,-133 539,-127 545,-121 551,-121 551,-121 581,-121 581,-121 587,-121 593,-127 593,-133 593,-133 593,-145 593,-145 593,-151 587,-157 581,-157"/>
<text text-anchor="middle" x="566" y="-136.2" font-family="SF Pro Text Bold 10" font-size="11.00" fill="#000000">phi</text>
</g>
<!-- n0x6238305fcc10&#45;&gt;n0x6238305f9838 -->
<g id="edge103" class="edge">
<title>n0x6238305fcc10&#45;&gt;n0x6238305f9838</title>
<path fill="none" stroke="#ea00ff" stroke-width="5" d="M965.79,-1197.46C929.29,-1185.5 869,-1158.41 869,-1110 869,-1110 869,-1110 869,-235 869,-179.93 684.47,-152.96 603.42,-143.77"/>
<polygon fill="#ea00ff" stroke="#ea00ff" stroke-width="5" points="603.58,-139.38 593.16,-142.63 602.62,-148.08 603.58,-139.38"/>
<text text-anchor="middle" x="881.5" y="-670" font-family="SF Pro Text Bold 10" font-size="10.00">i32 1</text>
</g>
<!-- n0x6238305ff910 -->
<g id="node26" class="node">
<title>n0x6238305ff910</title>
<path fill="#00eef9" stroke="#1f1d31" d="M1120.5,-1408C1120.5,-1408 1073.5,-1408 1073.5,-1408 1067.5,-1408 1061.5,-1402 1061.5,-1396 1061.5,-1396 1061.5,-1384 1061.5,-1384 1061.5,-1378 1067.5,-1372 1073.5,-1372 1073.5,-1372 1120.5,-1372 1120.5,-1372 1126.5,-1372 1132.5,-1378 1132.5,-1384 1132.5,-1384 1132.5,-1396 1132.5,-1396 1132.5,-1402 1126.5,-1408 1120.5,-1408"/>
<text text-anchor="middle" x="1097" y="-1387.2" font-family="SF Pro Text Bold 10" font-size="11.00" fill="#000000">ptr @str.2</text>
</g>
<!-- n0x6238305ff910&#45;&gt;n0x6238305ff950 -->
<g id="edge44" class="edge">
<title>n0x6238305ff910&#45;&gt;n0x6238305ff950</title>
<path fill="none" stroke="#00ff00" d="M1095.18,-1371.8C1093.95,-1360.16 1092.29,-1344.55 1090.88,-1331.24"/>
<polygon fill="#00ff00" stroke="#00ff00" points="1094.35,-1330.75 1089.82,-1321.18 1087.39,-1331.49 1094.35,-1330.75"/>
</g>
<!-- n0x6238305ff930 -->
<g id="node27" class="node">
<title>n0x6238305ff930</title>
<path fill="#00eef9" stroke="#1f1d31" d="M1024,-1408C1024,-1408 978,-1408 978,-1408 972,-1408 966,-1402 966,-1396 966,-1396 966,-1384 966,-1384 966,-1378 972,-1372 978,-1372 978,-1372 1024,-1372 1024,-1372 1030,-1372 1036,-1378 1036,-1384 1036,-1384 1036,-1396 1036,-1396 1036,-1402 1030,-1408 1024,-1408"/>
<text text-anchor="middle" x="1001" y="-1387.2" font-family="SF Pro Text Bold 10" font-size="11.00" fill="#000000">ptr @puts</text>
</g>
<!-- n0x6238305ff930&#45;&gt;n0x6238305ff950 -->
<g id="edge45" class="edge">
<title>n0x6238305ff930&#45;&gt;n0x6238305ff950</title>
<path fill="none" stroke="#00ff00" d="M1018.61,-1371.8C1031.34,-1359.36 1048.73,-1342.36 1062.92,-1328.5"/>
<polygon fill="#00ff00" stroke="#00ff00" points="1065.71,-1330.67 1070.42,-1321.18 1060.82,-1325.66 1065.71,-1330.67"/>
</g>
<!-- n0x6238305fcbf0 -->
<g id="node28" class="node">
<title>n0x6238305fcbf0</title>
<path fill="#00eef9" stroke="#1f1d31" d="M1024,-1321C1024,-1321 978,-1321 978,-1321 972,-1321 966,-1315 966,-1309 966,-1309 966,-1297 966,-1297 966,-1291 972,-1285 978,-1285 978,-1285 1024,-1285 1024,-1285 1030,-1285 1036,-1291 1036,-1297 1036,-1297 1036,-1309 1036,-1309 1036,-1315 1030,-1321 1024,-1321"/>
<text text-anchor="middle" x="1001" y="-1300.2" font-family="SF Pro Text Bold 10" font-size="11.00" fill="#000000">label %20</text>
</g>
<!-- n0x6238305fcbf0&#45;&gt;n0x6238305fcc10 -->
<g id="edge46" class="edge">
<title>n0x6238305fcbf0&#45;&gt;n0x6238305fcc10</title>
<path fill="none" stroke="#00ff00" d="M999.53,-1284.58C998.35,-1270.51 996.66,-1250.48 995.3,-1234.29"/>
<polygon fill="#00ff00" stroke="#00ff00" points="998.78,-1233.99 994.46,-1224.31 991.81,-1234.57 998.78,-1233.99"/>
<text text-anchor="middle" x="1008" y="-1252" font-family="SF Pro Text Bold 10" font-size="10.00">%20</text>
</g>
<!-- n0x6238305ff430 -->
<g id="node30" class="node">
<title>n0x6238305ff430</title>
<path fill="#e8eef9" stroke="#1f1d31" d="M590,-1224C590,-1224 560,-1224 560,-1224 554,-1224 548,-1218 548,-1212 548,-1212 548,-1200 548,-1200 548,-1194 554,-1188 560,-1188 560,-1188 590,-1188 590,-1188 596,-1188 602,-1194 602,-1200 602,-1200 602,-1212 602,-1212 602,-1218 596,-1224 590,-1224"/>
<text text-anchor="middle" x="575" y="-1203.2" font-family="SF Pro Text Bold 10" font-size="11.00" fill="#000000">load</text>
</g>
<!-- n0x6238305ff3b0&#45;&gt;n0x6238305ff430 -->
<g id="edge47" class="edge">
<title>n0x6238305ff3b0&#45;&gt;n0x6238305ff430</title>
<path fill="none" stroke="#ff0000" stroke-width="3" d="M661.55,-1284.83C661.7,-1273.7 660.17,-1259.39 653,-1249 643.18,-1234.77 626.95,-1224.94 611.83,-1218.39"/>
<polygon fill="#ff0000" stroke="#ff0000" stroke-width="3" points="612.72,-1214.98 602.14,-1214.55 610.14,-1221.49 612.72,-1214.98"/>
</g>
<!-- n0x6238305ff3b0&#45;&gt;n0x6238305ff430 -->
<g id="edge50" class="edge">
<title>n0x6238305ff3b0&#45;&gt;n0x6238305ff430</title>
<path fill="none" stroke="#0000ff" d="M632.82,-1293.08C616.8,-1286.43 597.48,-1275.76 586,-1260 580.59,-1252.58 577.71,-1243.09 576.21,-1234.21"/>
<polygon fill="#0000ff" stroke="#0000ff" points="579.68,-1233.73 575.02,-1224.21 572.73,-1234.55 579.68,-1233.73"/>
<text text-anchor="middle" x="593.5" y="-1252" font-family="SF Pro Text Bold 10" font-size="10.00">%7</text>
</g>
<!-- n0x6238305ff3b0&#45;&gt;n0x6238305ff430 -->
<g id="edge53" class="edge">
<title>n0x6238305ff3b0&#45;&gt;n0x6238305ff430</title>
<path fill="none" stroke="#00ff00" d="M644.41,-1284.58C631.23,-1269.84 612.18,-1248.56 597.38,-1232.01"/>
<polygon fill="#00ff00" stroke="#00ff00" points="599.77,-1229.43 590.49,-1224.31 594.55,-1234.1 599.77,-1229.43"/>
<text text-anchor="middle" x="627.5" y="-1252" font-family="SF Pro Text Bold 10" font-size="10.00">%7</text>
</g>
<!-- n0x6238305ff4d0 -->
<g id="node31" class="node">
<title>n0x6238305ff4d0</title>
<path fill="#e8eef9" stroke="#1f1d31" d="M486,-1127C486,-1127 456,-1127 456,-1127 450,-1127 444,-1121 444,-1115 444,-1115 444,-1103 444,-1103 444,-1097 450,-1091 456,-1091 456,-1091 486,-1091 486,-1091 492,-1091 498,-1097 498,-1103 498,-1103 498,-1115 498,-1115 498,-1121 492,-1127 486,-1127"/>
<text text-anchor="middle" x="471" y="-1106.2" font-family="SF Pro Text Bold 10" font-size="11.00" fill="#000000">icmp</text>
</g>
<!-- n0x6238305ff430&#45;&gt;n0x6238305ff4d0 -->
<g id="edge48" class="edge">
<title>n0x6238305ff430&#45;&gt;n0x6238305ff4d0</title>
<path fill="none" stroke="#ff0000" stroke-width="3" d="M576.45,-1187.6C576.48,-1176.37 574.7,-1162.04 567,-1152 565.98,-1150.67 534.31,-1136.95 507.62,-1125.54"/>
<polygon fill="#ff0000" stroke="#ff0000" stroke-width="3" points="508.65,-1122.18 498.08,-1121.48 505.91,-1128.62 508.65,-1122.18"/>
</g>
<!-- n0x6238305ff430&#45;&gt;n0x6238305ff4d0 -->
<g id="edge52" class="edge">
<title>n0x6238305ff430&#45;&gt;n0x6238305ff4d0</title>
<path fill="none" stroke="#0000ff" d="M547.86,-1193.23C533.36,-1186.01 515.89,-1175.69 503,-1163 495.19,-1155.31 488.52,-1145.33 483.33,-1136.11"/>
<polygon fill="#0000ff" stroke="#0000ff" points="486.41,-1134.45 478.64,-1127.26 480.23,-1137.73 486.41,-1134.45"/>
<text text-anchor="middle" x="511" y="-1155" font-family="SF Pro Text Bold 10" font-size="10.00">%8</text>
</g>
<!-- n0x6238305ff430&#45;&gt;n0x6238305ff4d0 -->
<g id="edge55" class="edge">
<title>n0x6238305ff430&#45;&gt;n0x6238305ff4d0</title>
<path fill="none" stroke="#00ff00" d="M558.3,-1187.95C547.79,-1177.38 533.84,-1163.66 521,-1152 514.37,-1145.97 507.06,-1139.66 500.13,-1133.82"/>
<polygon fill="#00ff00" stroke="#00ff00" points="502.15,-1130.95 492.23,-1127.22 497.66,-1136.32 502.15,-1130.95"/>
<text text-anchor="middle" x="539" y="-1155" font-family="SF Pro Text Bold 10" font-size="10.00">%8</text>
</g>
<!-- n0x6238305ff5f0 -->
<g id="node32" class="node">
<title>n0x6238305ff5f0</title>
<path fill="#e8eef9" stroke="#1f1d31" d="M552,-1030C552,-1030 522,-1030 522,-1030 516,-1030 510,-1024 510,-1018 510,-1018 510,-1006 510,-1006 510,-1000 516,-994 522,-994 522,-994 552,-994 552,-994 558,-994 564,-1000 564,-1006 564,-1006 564,-1018 564,-1018 564,-1024 558,-1030 552,-1030"/>
<text text-anchor="middle" x="537" y="-1009.2" font-family="SF Pro Text Bold 10" font-size="11.00" fill="#000000">br</text>
</g>
<!-- n0x6238305ff4d0&#45;&gt;n0x6238305ff5f0 -->
<g id="edge49" class="edge">
<title>n0x6238305ff4d0&#45;&gt;n0x6238305ff5f0</title>
<path fill="none" stroke="#ff0000" stroke-width="3" d="M498.06,-1096.13C510.53,-1089.2 524.25,-1079.19 532,-1066 536.46,-1058.41 538.29,-1049.13 538.83,-1040.46"/>
<polygon fill="#ff0000" stroke="#ff0000" stroke-width="3" points="542.34,-1040.4 538.95,-1030.36 535.34,-1040.32 542.34,-1040.4"/>
</g>
<!-- n0x6238305ff4d0&#45;&gt;n0x6238305ff5f0 -->
<g id="edge54" class="edge">
<title>n0x6238305ff4d0&#45;&gt;n0x6238305ff5f0</title>
<path fill="none" stroke="#0000ff" d="M465.48,-1090.7C463.06,-1079.78 461.95,-1065.77 468,-1055 475.19,-1042.21 488.02,-1032.86 500.69,-1026.27"/>
<polygon fill="#0000ff" stroke="#0000ff" points="502.26,-1029.4 509.8,-1021.96 499.26,-1023.08 502.26,-1029.4"/>
<text text-anchor="middle" x="476" y="-1058" font-family="SF Pro Text Bold 10" font-size="10.00">%9</text>
</g>
<!-- n0x6238305ff4d0&#45;&gt;n0x6238305ff5f0 -->
<g id="edge57" class="edge">
<title>n0x6238305ff4d0&#45;&gt;n0x6238305ff5f0</title>
<path fill="none" stroke="#00ff00" d="M483.11,-1090.58C493.15,-1076.11 507.59,-1055.33 519,-1038.92"/>
<polygon fill="#00ff00" stroke="#00ff00" points="522.14,-1040.52 524.97,-1030.31 516.39,-1036.53 522.14,-1040.52"/>
<text text-anchor="middle" x="513" y="-1058" font-family="SF Pro Text Bold 10" font-size="10.00">%9</text>
</g>
<!-- n0x6238305fe7e0 -->
<g id="node37" class="node">
<title>n0x6238305fe7e0</title>
<path fill="#e8eef9" stroke="#1f1d31" d="M407.5,-933C407.5,-933 336.5,-933 336.5,-933 330.5,-933 324.5,-927 324.5,-921 324.5,-921 324.5,-909 324.5,-909 324.5,-903 330.5,-897 336.5,-897 336.5,-897 407.5,-897 407.5,-897 413.5,-897 419.5,-903 419.5,-909 419.5,-909 419.5,-921 419.5,-921 419.5,-927 413.5,-933 407.5,-933"/>
<text text-anchor="middle" x="372" y="-912.2" font-family="SF Pro Text Bold 10" font-size="11.00" fill="#000000">getelementptr</text>
</g>
<!-- n0x6238305ff5f0&#45;&gt;n0x6238305fe7e0 -->
<g id="edge101" class="edge">
<title>n0x6238305ff5f0&#45;&gt;n0x6238305fe7e0</title>
<path fill="none" stroke="#ea00ff" stroke-width="5" d="M509.75,-995.31C482.79,-979.79 441.27,-955.88 410.85,-938.37"/>
<polygon fill="#ea00ff" stroke="#ea00ff" stroke-width="5" points="412.65,-934.36 401.8,-933.16 408.28,-941.94 412.65,-934.36"/>
</g>
<!-- n0x6238305fd9d0 -->
<g id="node55" class="node">
<title>n0x6238305fd9d0</title>
<path fill="#e8eef9" stroke="#1f1d31" d="M581,-351C581,-351 551,-351 551,-351 545,-351 539,-345 539,-339 539,-339 539,-327 539,-327 539,-321 545,-315 551,-315 551,-315 581,-315 581,-315 587,-315 593,-321 593,-327 593,-327 593,-339 593,-339 593,-345 587,-351 581,-351"/>
<text text-anchor="middle" x="566" y="-330.2" font-family="SF Pro Text Bold 10" font-size="11.00" fill="#000000">call</text>
</g>
<!-- n0x6238305ff5f0&#45;&gt;n0x6238305fd9d0 -->
<g id="edge102" class="edge">
<title>n0x6238305ff5f0&#45;&gt;n0x6238305fd9d0</title>
<path fill="none" stroke="#ea00ff" stroke-width="5" d="M537,-993.84C537,-974.81 537,-943.21 537,-916 537,-916 537,-916 537,-429 537,-405.03 545.55,-379.08 553.37,-360.37"/>
<polygon fill="#ea00ff" stroke="#ea00ff" stroke-width="5" points="557.45,-361.95 557.46,-351.03 549.44,-358.44 557.45,-361.95"/>
</g>
<!-- n0x6238305ff390 -->
<g id="node33" class="node">
<title>n0x6238305ff390</title>
<path fill="#00eef9" stroke="#1f1d31" d="M675,-1408C675,-1408 565,-1408 565,-1408 559,-1408 553,-1402 553,-1396 553,-1396 553,-1384 553,-1384 553,-1378 559,-1372 565,-1372 565,-1372 675,-1372 675,-1372 681,-1372 687,-1378 687,-1384 687,-1384 687,-1396 687,-1396 687,-1402 681,-1408 675,-1408"/>
<text text-anchor="middle" x="620" y="-1387.2" font-family="SF Pro Text Bold 10" font-size="11.00" fill="#000000">ptr @__errno_location</text>
</g>
<!-- n0x6238305ff390&#45;&gt;n0x6238305ff3b0 -->
<g id="edge51" class="edge">
<title>n0x6238305ff390&#45;&gt;n0x6238305ff3b0</title>
<path fill="none" stroke="#00ff00" d="M628.09,-1371.8C633.68,-1359.93 641.21,-1343.93 647.55,-1330.45"/>
<polygon fill="#00ff00" stroke="#00ff00" points="650.83,-1331.71 651.92,-1321.18 644.49,-1328.73 650.83,-1331.71"/>
</g>
<!-- n0x6238305ff4b0 -->
<g id="node34" class="node">
<title>n0x6238305ff4b0</title>
<path fill="#00eef9" stroke="#1f1d31" d="M486,-1224C486,-1224 456,-1224 456,-1224 450,-1224 444,-1218 444,-1212 444,-1212 444,-1200 444,-1200 444,-1194 450,-1188 456,-1188 456,-1188 486,-1188 486,-1188 492,-1188 498,-1194 498,-1200 498,-1200 498,-1212 498,-1212 498,-1218 492,-1224 486,-1224"/>
<text text-anchor="middle" x="471" y="-1203.2" font-family="SF Pro Text Bold 10" font-size="11.00" fill="#000000">i32 0</text>
</g>
<!-- n0x6238305ff4b0&#45;&gt;n0x6238305ff4d0 -->
<g id="edge56" class="edge">
<title>n0x6238305ff4b0&#45;&gt;n0x6238305ff4d0</title>
<path fill="none" stroke="#00ff00" d="M471,-1187.58C471,-1173.65 471,-1153.86 471,-1137.76"/>
<polygon fill="#00ff00" stroke="#00ff00" points="474.5,-1137.31 471,-1127.31 467.5,-1137.31 474.5,-1137.31"/>
</g>
<!-- n0x6238305ff5b0 -->
<g id="node35" class="node">
<title>n0x6238305ff5b0</title>
<path fill="#00eef9" stroke="#1f1d31" d="M674.5,-1127C674.5,-1127 629.5,-1127 629.5,-1127 623.5,-1127 617.5,-1121 617.5,-1115 617.5,-1115 617.5,-1103 617.5,-1103 617.5,-1097 623.5,-1091 629.5,-1091 629.5,-1091 674.5,-1091 674.5,-1091 680.5,-1091 686.5,-1097 686.5,-1103 686.5,-1103 686.5,-1115 686.5,-1115 686.5,-1121 680.5,-1127 674.5,-1127"/>
<text text-anchor="middle" x="652" y="-1106.2" font-family="SF Pro Text Bold 10" font-size="11.00" fill="#000000">label %18</text>
</g>
<!-- n0x6238305ff5b0&#45;&gt;n0x6238305ff5f0 -->
<g id="edge58" class="edge">
<title>n0x6238305ff5b0&#45;&gt;n0x6238305ff5f0</title>
<path fill="none" stroke="#00ff00" d="M631.17,-1090.8C612.77,-1075.6 585.78,-1053.29 565.4,-1036.46"/>
<polygon fill="#00ff00" stroke="#00ff00" points="567.61,-1033.75 557.67,-1030.08 563.15,-1039.14 567.61,-1033.75"/>
<text text-anchor="middle" x="607.5" y="-1058" font-family="SF Pro Text Bold 10" font-size="10.00">%18</text>
</g>
<!-- n0x6238305ff5d0 -->
<g id="node36" class="node">
<title>n0x6238305ff5d0</title>
<path fill="#00eef9" stroke="#1f1d31" d="M580.5,-1127C580.5,-1127 535.5,-1127 535.5,-1127 529.5,-1127 523.5,-1121 523.5,-1115 523.5,-1115 523.5,-1103 523.5,-1103 523.5,-1097 529.5,-1091 535.5,-1091 535.5,-1091 580.5,-1091 580.5,-1091 586.5,-1091 592.5,-1097 592.5,-1103 592.5,-1103 592.5,-1115 592.5,-1115 592.5,-1121 586.5,-1127 580.5,-1127"/>
<text text-anchor="middle" x="558" y="-1106.2" font-family="SF Pro Text Bold 10" font-size="11.00" fill="#000000">label %10</text>
</g>
<!-- n0x6238305ff5d0&#45;&gt;n0x6238305ff5f0 -->
<g id="edge59" class="edge">
<title>n0x6238305ff5d0&#45;&gt;n0x6238305ff5f0</title>
<path fill="none" stroke="#00ff00" d="M554.15,-1090.58C551.04,-1076.51 546.61,-1056.48 543.03,-1040.29"/>
<polygon fill="#00ff00" stroke="#00ff00" points="546.4,-1039.32 540.83,-1030.31 539.57,-1040.83 546.4,-1039.32"/>
<text text-anchor="middle" x="558.5" y="-1058" font-family="SF Pro Text Bold 10" font-size="10.00">%10</text>
</g>
<!-- n0x6238305fe860 -->
<g id="node38" class="node">
<title>n0x6238305fe860</title>
<path fill="#e8eef9" stroke="#1f1d31" d="M336,-836C336,-836 306,-836 306,-836 300,-836 294,-830 294,-824 294,-824 294,-812 294,-812 294,-806 300,-800 306,-800 306,-800 336,-800 336,-800 342,-800 348,-806 348,-812 348,-812 348,-824 348,-824 348,-830 342,-836 336,-836"/>
<text text-anchor="middle" x="321" y="-815.2" font-family="SF Pro Text Bold 10" font-size="11.00" fill="#000000">load</text>
</g>
<!-- n0x6238305fe7e0&#45;&gt;n0x6238305fe860 -->
<g id="edge60" class="edge">
<title>n0x6238305fe7e0&#45;&gt;n0x6238305fe860</title>
<path fill="none" stroke="#ff0000" stroke-width="3" d="M346.47,-896.59C338.58,-889.86 330.73,-881.48 326,-872 322.07,-864.12 320.37,-854.77 319.79,-846.12"/>
<polygon fill="#ff0000" stroke="#ff0000" stroke-width="3" points="323.29,-846 319.56,-836.09 316.29,-846.16 323.29,-846"/>
</g>
<!-- n0x6238305fe7e0&#45;&gt;n0x6238305fe860 -->
<g id="edge67" class="edge">
<title>n0x6238305fe7e0&#45;&gt;n0x6238305fe860</title>
<path fill="none" stroke="#0000ff" d="M362.65,-896.58C354.95,-882.25 343.93,-861.71 335.16,-845.37"/>
<polygon fill="#0000ff" stroke="#0000ff" points="338.11,-843.47 330.29,-836.31 331.94,-846.78 338.11,-843.47"/>
<text text-anchor="middle" x="357.5" y="-864" font-family="SF Pro Text Bold 10" font-size="10.00">%11</text>
</g>
<!-- n0x6238305fe7e0&#45;&gt;n0x6238305fe860 -->
<g id="edge71" class="edge">
<title>n0x6238305fe7e0&#45;&gt;n0x6238305fe860</title>
<path fill="none" stroke="#00ff00" d="M375.59,-896.96C377.02,-886.15 377.26,-872.15 372,-861 368.42,-853.41 362.72,-846.74 356.41,-841.06"/>
<polygon fill="#00ff00" stroke="#00ff00" points="358.18,-837.99 348.2,-834.43 353.78,-843.44 358.18,-837.99"/>
<text text-anchor="middle" x="384.5" y="-864" font-family="SF Pro Text Bold 10" font-size="10.00">%11</text>
</g>
<!-- n0x6238305d8ef0 -->
<g id="node39" class="node">
<title>n0x6238305d8ef0</title>
<path fill="#e8eef9" stroke="#1f1d31" d="M307,-739C307,-739 277,-739 277,-739 271,-739 265,-733 265,-727 265,-727 265,-715 265,-715 265,-709 271,-703 277,-703 277,-703 307,-703 307,-703 313,-703 319,-709 319,-715 319,-715 319,-727 319,-727 319,-733 313,-739 307,-739"/>
<text text-anchor="middle" x="292" y="-718.2" font-family="SF Pro Text Bold 10" font-size="11.00" fill="#000000">call</text>
</g>
<!-- n0x6238305fe860&#45;&gt;n0x6238305d8ef0 -->
<g id="edge61" class="edge">
<title>n0x6238305fe860&#45;&gt;n0x6238305d8ef0</title>
<path fill="none" stroke="#ff0000" stroke-width="3" d="M308.96,-799.79C304.44,-792.47 299.74,-783.65 297,-775 294.41,-766.82 293.04,-757.61 292.35,-749.18"/>
<polygon fill="#ff0000" stroke="#ff0000" stroke-width="3" points="295.84,-748.86 291.79,-739.07 288.85,-749.25 295.84,-748.86"/>
</g>
<!-- n0x6238305fe860&#45;&gt;n0x6238305d8ef0 -->
<g id="edge70" class="edge">
<title>n0x6238305fe860&#45;&gt;n0x6238305d8ef0</title>
<path fill="none" stroke="#0000ff" d="M315.68,-799.58C311.39,-785.51 305.27,-765.48 300.33,-749.29"/>
<polygon fill="#0000ff" stroke="#0000ff" points="303.55,-747.86 297.29,-739.31 296.86,-749.9 303.55,-747.86"/>
<text text-anchor="middle" x="318.5" y="-767" font-family="SF Pro Text Bold 10" font-size="10.00">%12</text>
</g>
<!-- n0x6238305fe860&#45;&gt;n0x6238305d8ef0 -->
<g id="edge73" class="edge">
<title>n0x6238305fe860&#45;&gt;n0x6238305d8ef0</title>
<path fill="none" stroke="#00ff00" d="M331.1,-799.89C336,-789.31 339.88,-775.58 335,-764 332.28,-757.54 328.02,-751.58 323.23,-746.29"/>
<polygon fill="#00ff00" stroke="#00ff00" points="325.5,-743.62 315.93,-739.07 320.57,-748.59 325.5,-743.62"/>
<text text-anchor="middle" x="347.5" y="-767" font-family="SF Pro Text Bold 10" font-size="10.00">%12</text>
</g>
<!-- n0x623830455400 -->
<g id="node40" class="node">
<title>n0x623830455400</title>
<path fill="#e8eef9" stroke="#1f1d31" d="M307,-642C307,-642 277,-642 277,-642 271,-642 265,-636 265,-630 265,-630 265,-618 265,-618 265,-612 271,-606 277,-606 277,-606 307,-606 307,-606 313,-606 319,-612 319,-618 319,-618 319,-630 319,-630 319,-636 313,-642 307,-642"/>
<text text-anchor="middle" x="292" y="-621.2" font-family="SF Pro Text Bold 10" font-size="11.00" fill="#000000">shl</text>
</g>
<!-- n0x6238305d8ef0&#45;&gt;n0x623830455400 -->
<g id="edge62" class="edge">
<title>n0x6238305d8ef0&#45;&gt;n0x623830455400</title>
<path fill="none" stroke="#ff0000" stroke-width="3" d="M292,-702.58C292,-688.65 292,-668.86 292,-652.76"/>
<polygon fill="#ff0000" stroke="#ff0000" stroke-width="3" points="295.5,-652.31 292,-642.31 288.5,-652.31 295.5,-652.31"/>
</g>
<!-- n0x6238305d8ef0&#45;&gt;n0x623830455400 -->
<g id="edge72" class="edge">
<title>n0x6238305d8ef0&#45;&gt;n0x623830455400</title>
<path fill="none" stroke="#0000ff" d="M293.18,-702.82C293.76,-692.45 294.28,-678.97 294,-667 293.89,-662.27 293.7,-657.25 293.49,-652.39"/>
<polygon fill="#0000ff" stroke="#0000ff" points="296.98,-651.98 293,-642.16 289.99,-652.31 296.98,-651.98"/>
<text text-anchor="middle" x="305.5" y="-670" font-family="SF Pro Text Bold 10" font-size="10.00">%13</text>
</g>
<!-- n0x6238305d8ef0&#45;&gt;n0x623830455400 -->
<g id="edge78" class="edge">
<title>n0x6238305d8ef0&#45;&gt;n0x623830455400</title>
<path fill="none" stroke="#00ff00" d="M277.72,-702.72C272.66,-695.53 267.59,-686.82 265,-678 262.31,-668.83 265.09,-659.37 269.74,-651.02"/>
<polygon fill="#00ff00" stroke="#00ff00" points="272.79,-652.75 275.35,-642.46 266.94,-648.91 272.79,-652.75"/>
<text text-anchor="middle" x="275.5" y="-670" font-family="SF Pro Text Bold 10" font-size="10.00">%13</text>
</g>
<!-- n0x623830587640 -->
<g id="node41" class="node">
<title>n0x623830587640</title>
<path fill="#e8eef9" stroke="#1f1d31" d="M307,-545C307,-545 277,-545 277,-545 271,-545 265,-539 265,-533 265,-533 265,-521 265,-521 265,-515 271,-509 277,-509 277,-509 307,-509 307,-509 313,-509 319,-515 319,-521 319,-521 319,-533 319,-533 319,-539 313,-545 307,-545"/>
<text text-anchor="middle" x="292" y="-524.2" font-family="SF Pro Text Bold 10" font-size="11.00" fill="#000000">ashr</text>
</g>
<!-- n0x623830455400&#45;&gt;n0x623830587640 -->
<g id="edge63" class="edge">
<title>n0x623830455400&#45;&gt;n0x623830587640</title>
<path fill="none" stroke="#ff0000" stroke-width="3" d="M292,-605.58C292,-591.65 292,-571.86 292,-555.76"/>
<polygon fill="#ff0000" stroke="#ff0000" stroke-width="3" points="295.5,-555.31 292,-545.31 288.5,-555.31 295.5,-555.31"/>
</g>
<!-- n0x623830455400&#45;&gt;n0x623830587640 -->
<g id="edge77" class="edge">
<title>n0x623830455400&#45;&gt;n0x623830587640</title>
<path fill="none" stroke="#0000ff" d="M293.18,-605.82C293.76,-595.45 294.28,-581.97 294,-570 293.89,-565.27 293.7,-560.25 293.49,-555.39"/>
<polygon fill="#0000ff" stroke="#0000ff" points="296.98,-554.98 293,-545.16 289.99,-555.31 296.98,-554.98"/>
<text text-anchor="middle" x="305.5" y="-573" font-family="SF Pro Text Bold 10" font-size="10.00">%14</text>
</g>
<!-- n0x623830455400&#45;&gt;n0x623830587640 -->
<g id="edge82" class="edge">
<title>n0x623830455400&#45;&gt;n0x623830587640</title>
<path fill="none" stroke="#00ff00" d="M277.72,-605.72C272.66,-598.53 267.59,-589.82 265,-581 262.31,-571.83 265.09,-562.37 269.74,-554.02"/>
<polygon fill="#00ff00" stroke="#00ff00" points="272.79,-555.75 275.35,-545.46 266.94,-551.91 272.79,-555.75"/>
<text text-anchor="middle" x="275.5" y="-573" font-family="SF Pro Text Bold 10" font-size="10.00">%14</text>
</g>
<!-- n0x6238305ff830 -->
<g id="node42" class="node">
<title>n0x6238305ff830</title>
<path fill="#e8eef9" stroke="#1f1d31" d="M307,-448C307,-448 277,-448 277,-448 271,-448 265,-442 265,-436 265,-436 265,-424 265,-424 265,-418 271,-412 277,-412 277,-412 307,-412 307,-412 313,-412 319,-418 319,-424 319,-424 319,-436 319,-436 319,-442 313,-448 307,-448"/>
<text text-anchor="middle" x="292" y="-427.2" font-family="SF Pro Text Bold 10" font-size="11.00" fill="#000000">call</text>
</g>
<!-- n0x623830587640&#45;&gt;n0x6238305ff830 -->
<g id="edge64" class="edge">
<title>n0x623830587640&#45;&gt;n0x6238305ff830</title>
<path fill="none" stroke="#ff0000" stroke-width="3" d="M292,-508.58C292,-494.65 292,-474.86 292,-458.76"/>
<polygon fill="#ff0000" stroke="#ff0000" stroke-width="3" points="295.5,-458.31 292,-448.31 288.5,-458.31 295.5,-458.31"/>
</g>
<!-- n0x623830587640&#45;&gt;n0x6238305ff830 -->
<g id="edge80" class="edge">
<title>n0x623830587640&#45;&gt;n0x6238305ff830</title>
<path fill="none" stroke="#0000ff" d="M293.18,-508.82C293.76,-498.45 294.28,-484.97 294,-473 293.89,-468.27 293.7,-463.25 293.49,-458.39"/>
<polygon fill="#0000ff" stroke="#0000ff" points="296.98,-457.98 293,-448.16 289.99,-458.31 296.98,-457.98"/>
<text text-anchor="middle" x="305.5" y="-476" font-family="SF Pro Text Bold 10" font-size="10.00">%15</text>
</g>
<!-- n0x623830587640&#45;&gt;n0x6238305ff830 -->
<g id="edge86" class="edge">
<title>n0x623830587640&#45;&gt;n0x6238305ff830</title>
<path fill="none" stroke="#00ff00" d="M307.84,-508.96C313.46,-501.8 319.1,-493.05 322,-484 325.02,-474.58 321.83,-464.98 316.56,-456.57"/>
<polygon fill="#00ff00" stroke="#00ff00" points="319.24,-454.3 310.5,-448.31 313.59,-458.44 319.24,-454.3"/>
<text text-anchor="middle" x="333.5" y="-476" font-family="SF Pro Text Bold 10" font-size="10.00">%15</text>
</g>
<!-- n0x62383049df80 -->
<g id="node43" class="node">
<title>n0x62383049df80</title>
<path fill="#e8eef9" stroke="#1f1d31" d="M338,-351C338,-351 308,-351 308,-351 302,-351 296,-345 296,-339 296,-339 296,-327 296,-327 296,-321 302,-315 308,-315 308,-315 338,-315 338,-315 344,-315 350,-321 350,-327 350,-327 350,-339 350,-339 350,-345 344,-351 338,-351"/>
<text text-anchor="middle" x="323" y="-330.2" font-family="SF Pro Text Bold 10" font-size="11.00" fill="#000000">call</text>
</g>
<!-- n0x623830587640&#45;&gt;n0x62383049df80 -->
<g id="edge81" class="edge">
<title>n0x623830587640&#45;&gt;n0x62383049df80</title>
<path fill="none" stroke="#0000ff" d="M264.77,-519.74C234.5,-511.15 187.23,-492.42 167,-456 157.5,-438.91 158.53,-429.63 167,-412 192.23,-359.5 228.7,-372.08 283,-351 284.19,-350.54 285.39,-350.07 286.61,-349.58"/>
<polygon fill="#0000ff" stroke="#0000ff" points="288.05,-352.77 295.98,-345.76 285.4,-346.29 288.05,-352.77"/>
<text text-anchor="middle" x="177.5" y="-427.5" font-family="SF Pro Text Bold 10" font-size="10.00">%15</text>
</g>
<!-- n0x623830587640&#45;&gt;n0x62383049df80 -->
<g id="edge88" class="edge">
<title>n0x623830587640&#45;&gt;n0x62383049df80</title>
<path fill="none" stroke="#00ff00" d="M270.65,-508.93C256.42,-496.09 238.92,-477.13 231,-456 224.14,-437.69 222.78,-429.74 231,-412 242.63,-386.9 266.76,-366.93 287.39,-353.48"/>
<polygon fill="#00ff00" stroke="#00ff00" points="289.34,-356.39 295.97,-348.12 285.64,-350.45 289.34,-356.39"/>
<text text-anchor="middle" x="241.5" y="-427.5" font-family="SF Pro Text Bold 10" font-size="10.00">%15</text>
</g>
<!-- n0x6238305ff830&#45;&gt;n0x6238305f9ee0 -->
<g id="edge85" class="edge">
<title>n0x6238305ff830&#45;&gt;n0x6238305f9ee0</title>
<path fill="none" stroke="#ff8800" stroke-width="3" stroke-dasharray="5,2" d="M316.24,-448.03C321.28,-451.02 326.68,-453.86 332,-456 561.17,-548.22 636.38,-509.94 876,-570 1350.21,-688.87 1588.76,-533.97 1931.9,-873.91"/>
<polygon fill="#ff8800" stroke="#ff8800" stroke-width="3" points="1929.45,-876.41 1939,-881 1934.4,-871.46 1929.45,-876.41"/>
</g>
<!-- n0x6238305ff830&#45;&gt;n0x62383049df80 -->
<g id="edge65" class="edge">
<title>n0x6238305ff830&#45;&gt;n0x62383049df80</title>
<path fill="none" stroke="#ff0000" stroke-width="3" d="M291.65,-411.88C291.91,-401.29 293.11,-387.56 297,-376 298.84,-370.51 301.52,-365 304.47,-359.85"/>
<polygon fill="#ff0000" stroke="#ff0000" stroke-width="3" points="307.62,-361.42 309.94,-351.08 301.68,-357.72 307.62,-361.42"/>
</g>
<!-- n0x6238305ff830&#45;&gt;n0x62383049df80 -->
<g id="edge84" class="edge">
<title>n0x6238305ff830&#45;&gt;n0x62383049df80</title>
<path fill="none" stroke="#0000ff" d="M297.69,-411.58C302.32,-397.38 308.94,-377.1 314.24,-360.83"/>
<polygon fill="#0000ff" stroke="#0000ff" points="317.58,-361.91 317.35,-351.31 310.92,-359.73 317.58,-361.91"/>
<text text-anchor="middle" x="319.5" y="-379" font-family="SF Pro Text Bold 10" font-size="10.00">%16</text>
</g>
<!-- n0x6238305ff830&#45;&gt;n0x62383049df80 -->
<g id="edge89" class="edge">
<title>n0x6238305ff830&#45;&gt;n0x62383049df80</title>
<path fill="none" stroke="#00ff00" d="M316.94,-411.63C324.53,-404.9 331.93,-396.51 336,-387 339.54,-378.74 338.67,-369.32 336.17,-360.74"/>
<polygon fill="#00ff00" stroke="#00ff00" points="339.39,-359.35 332.66,-351.17 332.82,-361.76 339.39,-359.35"/>
<text text-anchor="middle" x="348.5" y="-379" font-family="SF Pro Text Bold 10" font-size="10.00">%16</text>
</g>
<!-- n0x6238305ffd10 -->
<g id="node44" class="node">
<title>n0x6238305ffd10</title>
<path fill="#e8eef9" stroke="#1f1d31" d="M408,-254C408,-254 378,-254 378,-254 372,-254 366,-248 366,-242 366,-242 366,-230 366,-230 366,-224 372,-218 378,-218 378,-218 408,-218 408,-218 414,-218 420,-224 420,-230 420,-230 420,-242 420,-242 420,-248 414,-254 408,-254"/>
<text text-anchor="middle" x="393" y="-233.2" font-family="SF Pro Text Bold 10" font-size="11.00" fill="#000000">br</text>
</g>
<!-- n0x62383049df80&#45;&gt;n0x6238305ffd10 -->
<g id="edge66" class="edge">
<title>n0x62383049df80&#45;&gt;n0x6238305ffd10</title>
<path fill="none" stroke="#ff0000" stroke-width="3" d="M335.84,-314.58C346.59,-299.98 362.09,-278.95 374.24,-262.46"/>
<polygon fill="#ff0000" stroke="#ff0000" stroke-width="3" points="377.13,-264.44 380.24,-254.31 371.49,-260.29 377.13,-264.44"/>
</g>
<!-- n0x6238305ffd10&#45;&gt;n0x6238305f9838 -->
<g id="edge104" class="edge">
<title>n0x6238305ffd10&#45;&gt;n0x6238305f9838</title>
<path fill="none" stroke="#ea00ff" stroke-width="5" d="M417.42,-217.91C421.56,-215.18 425.86,-212.45 430,-210 462.9,-190.51 501.83,-170.79 529.59,-157.28"/>
<polygon fill="#ea00ff" stroke="#ea00ff" stroke-width="5" points="531.82,-161.06 538.91,-152.76 528,-153.18 531.82,-161.06"/>
<text text-anchor="middle" x="490" y="-185" font-family="SF Pro Text Bold 10" font-size="10.00">i32 0</text>
</g>
<!-- n0x6238305fe7a0 -->
<g id="node45" class="node">
<title>n0x6238305fe7a0</title>
<path fill="#00eef9" stroke="#1f1d31" d="M402,-1030C402,-1030 372,-1030 372,-1030 366,-1030 360,-1024 360,-1018 360,-1018 360,-1006 360,-1006 360,-1000 366,-994 372,-994 372,-994 402,-994 402,-994 408,-994 414,-1000 414,-1006 414,-1006 414,-1018 414,-1018 414,-1024 408,-1030 402,-1030"/>
<text text-anchor="middle" x="387" y="-1009.2" font-family="SF Pro Text Bold 10" font-size="11.00" fill="#000000">ptr %1</text>
</g>
<!-- n0x6238305fe7a0&#45;&gt;n0x6238305fe7e0 -->
<g id="edge68" class="edge">
<title>n0x6238305fe7a0&#45;&gt;n0x6238305fe7e0</title>
<path fill="none" stroke="#00ff00" d="M384.25,-993.58C382.03,-979.51 378.87,-959.48 376.31,-943.29"/>
<polygon fill="#00ff00" stroke="#00ff00" points="379.75,-942.65 374.73,-933.31 372.84,-943.74 379.75,-942.65"/>
<text text-anchor="middle" x="386" y="-961" font-family="SF Pro Text Bold 10" font-size="10.00">%1</text>
</g>
<!-- n0x6238305fe7c0 -->
<g id="node46" class="node">
<title>n0x6238305fe7c0</title>
<path fill="#00eef9" stroke="#1f1d31" d="M323,-1030C323,-1030 293,-1030 293,-1030 287,-1030 281,-1024 281,-1018 281,-1018 281,-1006 281,-1006 281,-1000 287,-994 293,-994 293,-994 323,-994 323,-994 329,-994 335,-1000 335,-1006 335,-1006 335,-1018 335,-1018 335,-1024 329,-1030 323,-1030"/>
<text text-anchor="middle" x="308" y="-1009.2" font-family="SF Pro Text Bold 10" font-size="11.00" fill="#000000">i64 1</text>
</g>
<!-- n0x6238305fe7c0&#45;&gt;n0x6238305fe7e0 -->
<g id="edge69" class="edge">
<title>n0x6238305fe7c0&#45;&gt;n0x6238305fe7e0</title>
<path fill="none" stroke="#00ff00" d="M319.74,-993.58C329.48,-979.11 343.48,-958.33 354.54,-941.92"/>
<polygon fill="#00ff00" stroke="#00ff00" points="357.65,-943.56 360.34,-933.31 351.85,-939.65 357.65,-943.56"/>
</g>
<!-- n0x6238305d8e90 -->
<g id="node47" class="node">
<title>n0x6238305d8e90</title>
<path fill="#00eef9" stroke="#1f1d31" d="M256.5,-836C256.5,-836 225.5,-836 225.5,-836 219.5,-836 213.5,-830 213.5,-824 213.5,-824 213.5,-812 213.5,-812 213.5,-806 219.5,-800 225.5,-800 225.5,-800 256.5,-800 256.5,-800 262.5,-800 268.5,-806 268.5,-812 268.5,-812 268.5,-824 268.5,-824 268.5,-830 262.5,-836 256.5,-836"/>
<text text-anchor="middle" x="241" y="-815.2" font-family="SF Pro Text Bold 10" font-size="11.00" fill="#000000">ptr null</text>
</g>
<!-- n0x6238305d8e90&#45;&gt;n0x6238305d8ef0 -->
<g id="edge74" class="edge">
<title>n0x6238305d8e90&#45;&gt;n0x6238305d8ef0</title>
<path fill="none" stroke="#00ff00" d="M250.35,-799.58C258.05,-785.25 269.07,-764.71 277.84,-748.37"/>
<polygon fill="#00ff00" stroke="#00ff00" points="281.06,-749.78 282.71,-739.31 274.89,-746.47 281.06,-749.78"/>
</g>
<!-- n0x6238305d8eb0 -->
<g id="node48" class="node">
<title>n0x6238305d8eb0</title>
<path fill="#00eef9" stroke="#1f1d31" d="M176,-836C176,-836 146,-836 146,-836 140,-836 134,-830 134,-824 134,-824 134,-812 134,-812 134,-806 140,-800 146,-800 146,-800 176,-800 176,-800 182,-800 188,-806 188,-812 188,-812 188,-824 188,-824 188,-830 182,-836 176,-836"/>
<text text-anchor="middle" x="161" y="-815.2" font-family="SF Pro Text Bold 10" font-size="11.00" fill="#000000">i32 10</text>
</g>
<!-- n0x6238305d8eb0&#45;&gt;n0x6238305d8ef0 -->
<g id="edge75" class="edge">
<title>n0x6238305d8eb0&#45;&gt;n0x6238305d8ef0</title>
<path fill="none" stroke="#00ff00" d="M184.72,-799.8C205.87,-784.46 236.98,-761.9 260.26,-745.02"/>
<polygon fill="#00ff00" stroke="#00ff00" points="262.41,-747.78 268.45,-739.08 258.3,-742.11 262.41,-747.78"/>
</g>
<!-- n0x6238305d8ed0 -->
<g id="node49" class="node">
<title>n0x6238305d8ed0</title>
<path fill="#00eef9" stroke="#1f1d31" d="M97,-836C97,-836 45,-836 45,-836 39,-836 33,-830 33,-824 33,-824 33,-812 33,-812 33,-806 39,-800 45,-800 45,-800 97,-800 97,-800 103,-800 109,-806 109,-812 109,-812 109,-824 109,-824 109,-830 103,-836 97,-836"/>
<text text-anchor="middle" x="71" y="-815.2" font-family="SF Pro Text Bold 10" font-size="11.00" fill="#000000">ptr @strtol</text>
</g>
<!-- n0x6238305d8ed0&#45;&gt;n0x6238305d8ef0 -->
<g id="edge76" class="edge">
<title>n0x6238305d8ed0&#45;&gt;n0x6238305d8ef0</title>
<path fill="none" stroke="#00ff00" d="M109.24,-800.56C150.3,-782.91 215.06,-755.07 255.46,-737.71"/>
<polygon fill="#00ff00" stroke="#00ff00" points="256.87,-740.91 264.68,-733.75 254.11,-734.48 256.87,-740.91"/>
</g>
<!-- n0x6238304553e0 -->
<g id="node50" class="node">
<title>n0x6238304553e0</title>
<path fill="#00eef9" stroke="#1f1d31" d="M228,-739C228,-739 198,-739 198,-739 192,-739 186,-733 186,-727 186,-727 186,-715 186,-715 186,-709 192,-703 198,-703 198,-703 228,-703 228,-703 234,-703 240,-709 240,-715 240,-715 240,-727 240,-727 240,-733 234,-739 228,-739"/>
<text text-anchor="middle" x="213" y="-718.2" font-family="SF Pro Text Bold 10" font-size="11.00" fill="#000000">i64 32</text>
</g>
<!-- n0x6238304553e0&#45;&gt;n0x623830455400 -->
<g id="edge79" class="edge">
<title>n0x6238304553e0&#45;&gt;n0x623830455400</title>
<path fill="none" stroke="#00ff00" d="M227.49,-702.58C239.74,-687.84 257.44,-666.56 271.2,-650.01"/>
<polygon fill="#00ff00" stroke="#00ff00" points="273.9,-652.24 277.6,-642.31 268.52,-647.76 273.9,-652.24"/>
</g>
<!-- n0x623830587620 -->
<g id="node51" class="node">
<title>n0x623830587620</title>
<path fill="#00eef9" stroke="#1f1d31" d="M228,-642C228,-642 198,-642 198,-642 192,-642 186,-636 186,-630 186,-630 186,-618 186,-618 186,-612 192,-606 198,-606 198,-606 228,-606 228,-606 234,-606 240,-612 240,-618 240,-618 240,-630 240,-630 240,-636 234,-642 228,-642"/>
<text text-anchor="middle" x="213" y="-621.2" font-family="SF Pro Text Bold 10" font-size="11.00" fill="#000000">i64 32</text>
</g>
<!-- n0x623830587620&#45;&gt;n0x623830587640 -->
<g id="edge83" class="edge">
<title>n0x623830587620&#45;&gt;n0x623830587640</title>
<path fill="none" stroke="#00ff00" d="M227.49,-605.58C239.74,-590.84 257.44,-569.56 271.2,-553.01"/>
<polygon fill="#00ff00" stroke="#00ff00" points="273.9,-555.24 277.6,-545.31 268.52,-550.76 273.9,-555.24"/>
</g>
<!-- n0x62383049df00 -->
<g id="node52" class="node">
<title>n0x62383049df00</title>
<path fill="#00eef9" stroke="#1f1d31" d="M85.5,-448C85.5,-448 36.5,-448 36.5,-448 30.5,-448 24.5,-442 24.5,-436 24.5,-436 24.5,-424 24.5,-424 24.5,-418 30.5,-412 36.5,-412 36.5,-412 85.5,-412 85.5,-412 91.5,-412 97.5,-418 97.5,-424 97.5,-424 97.5,-436 97.5,-436 97.5,-442 91.5,-448 85.5,-448"/>
<text text-anchor="middle" x="61" y="-427.2" font-family="SF Pro Text Bold 10" font-size="11.00" fill="#000000">ptr @.str.1</text>
</g>
<!-- n0x62383049df00&#45;&gt;n0x62383049df80 -->
<g id="edge87" class="edge">
<title>n0x62383049df00&#45;&gt;n0x62383049df80</title>
<path fill="none" stroke="#00ff00" d="M81.72,-411.79C97.13,-399.9 119.18,-384.71 141,-376 200.52,-352.25 221.56,-369.21 283,-351 284.05,-350.69 285.11,-350.36 286.17,-350.01"/>
<polygon fill="#00ff00" stroke="#00ff00" points="287.55,-353.24 295.76,-346.55 285.17,-346.65 287.55,-353.24"/>
</g>
<!-- n0x62383049df60 -->
<g id="node53" class="node">
<title>n0x62383049df60</title>
<path fill="#00eef9" stroke="#1f1d31" d="M408,-448C408,-448 356,-448 356,-448 350,-448 344,-442 344,-436 344,-436 344,-424 344,-424 344,-418 350,-412 356,-412 356,-412 408,-412 408,-412 414,-412 420,-418 420,-424 420,-424 420,-436 420,-436 420,-442 414,-448 408,-448"/>
<text text-anchor="middle" x="382" y="-427.2" font-family="SF Pro Text Bold 10" font-size="11.00" fill="#000000">ptr @printf</text>
</g>
<!-- n0x62383049df60&#45;&gt;n0x62383049df80 -->
<g id="edge90" class="edge">
<title>n0x62383049df60&#45;&gt;n0x62383049df80</title>
<path fill="none" stroke="#00ff00" d="M378.69,-411.89C376.09,-401.06 371.74,-387.05 365,-376 361.25,-369.85 356.41,-363.93 351.37,-358.57"/>
<polygon fill="#00ff00" stroke="#00ff00" points="353.48,-355.73 343.93,-351.15 348.54,-360.69 353.48,-355.73"/>
</g>
<!-- n0x6238305ffcf0 -->
<g id="node54" class="node">
<title>n0x6238305ffcf0</title>
<path fill="#00eef9" stroke="#1f1d31" d="M259,-351C259,-351 213,-351 213,-351 207,-351 201,-345 201,-339 201,-339 201,-327 201,-327 201,-321 207,-315 213,-315 213,-315 259,-315 259,-315 265,-315 271,-321 271,-327 271,-327 271,-339 271,-339 271,-345 265,-351 259,-351"/>
<text text-anchor="middle" x="236" y="-330.2" font-family="SF Pro Text Bold 10" font-size="11.00" fill="#000000">label %20</text>
</g>
<!-- n0x6238305ffcf0&#45;&gt;n0x6238305ffd10 -->
<g id="edge91" class="edge">
<title>n0x6238305ffcf0&#45;&gt;n0x6238305ffd10</title>
<path fill="none" stroke="#00ff00" d="M264.43,-314.8C290.43,-299.07 328.99,-275.73 357.1,-258.72"/>
<polygon fill="#00ff00" stroke="#00ff00" points="359.09,-261.61 365.83,-253.44 355.46,-255.62 359.09,-261.61"/>
<text text-anchor="middle" x="330" y="-282" font-family="SF Pro Text Bold 10" font-size="10.00">%20</text>
</g>
<!-- n0x6238305ffa70 -->
<g id="node56" class="node">
<title>n0x6238305ffa70</title>
<path fill="#e8eef9" stroke="#1f1d31" d="M581,-254C581,-254 551,-254 551,-254 545,-254 539,-248 539,-242 539,-242 539,-230 539,-230 539,-224 545,-218 551,-218 551,-218 581,-218 581,-218 587,-218 593,-224 593,-230 593,-230 593,-242 593,-242 593,-248 587,-254 581,-254"/>
<text text-anchor="middle" x="566" y="-233.2" font-family="SF Pro Text Bold 10" font-size="11.00" fill="#000000">br</text>
</g>
<!-- n0x6238305fd9d0&#45;&gt;n0x6238305ffa70 -->
<g id="edge92" class="edge">
<title>n0x6238305fd9d0&#45;&gt;n0x6238305ffa70</title>
<path fill="none" stroke="#ff0000" stroke-width="3" d="M566,-314.58C566,-300.65 566,-280.86 566,-264.76"/>
<polygon fill="#ff0000" stroke="#ff0000" stroke-width="3" points="569.5,-264.31 566,-254.31 562.5,-264.31 569.5,-264.31"/>
</g>
<!-- n0x6238305ffa70&#45;&gt;n0x6238305f9838 -->
<g id="edge105" class="edge">
<title>n0x6238305ffa70&#45;&gt;n0x6238305f9838</title>
<path fill="none" stroke="#ea00ff" stroke-width="5" d="M566,-217.58C566,-203.65 566,-183.86 566,-167.76"/>
<polygon fill="#ea00ff" stroke="#ea00ff" stroke-width="5" points="570.38,-167.31 566,-157.31 561.63,-167.31 570.38,-167.31"/>
<text text-anchor="middle" x="578.5" y="-185" font-family="SF Pro Text Bold 10" font-size="10.00">i32 1</text>
</g>
<!-- n0x6238305fd990 -->
<g id="node57" class="node">
<title>n0x6238305fd990</title>
<path fill="#00eef9" stroke="#1f1d31" d="M707.5,-448C707.5,-448 670.5,-448 670.5,-448 664.5,-448 658.5,-442 658.5,-436 658.5,-436 658.5,-424 658.5,-424 658.5,-418 664.5,-412 670.5,-412 670.5,-412 707.5,-412 707.5,-412 713.5,-412 719.5,-418 719.5,-424 719.5,-424 719.5,-436 719.5,-436 719.5,-442 713.5,-448 707.5,-448"/>
<text text-anchor="middle" x="689" y="-427.2" font-family="SF Pro Text Bold 10" font-size="11.00" fill="#000000">ptr @str</text>
</g>
<!-- n0x6238305fd990&#45;&gt;n0x6238305fd9d0 -->
<g id="edge93" class="edge">
<title>n0x6238305fd990&#45;&gt;n0x6238305fd9d0</title>
<path fill="none" stroke="#00ff00" d="M666.73,-411.8C646.96,-396.53 617.91,-374.1 596.09,-357.24"/>
<polygon fill="#00ff00" stroke="#00ff00" points="598.16,-354.42 588.11,-351.08 593.88,-359.96 598.16,-354.42"/>
</g>
<!-- n0x6238305fd9b0 -->
<g id="node58" class="node">
<title>n0x6238305fd9b0</title>
<path fill="#00eef9" stroke="#1f1d31" d="M621,-448C621,-448 575,-448 575,-448 569,-448 563,-442 563,-436 563,-436 563,-424 563,-424 563,-418 569,-412 575,-412 575,-412 621,-412 621,-412 627,-412 633,-418 633,-424 633,-424 633,-436 633,-436 633,-442 627,-448 621,-448"/>
<text text-anchor="middle" x="598" y="-427.2" font-family="SF Pro Text Bold 10" font-size="11.00" fill="#000000">ptr @puts</text>
</g>
<!-- n0x6238305fd9b0&#45;&gt;n0x6238305fd9d0 -->
<g id="edge94" class="edge">
<title>n0x6238305fd9b0&#45;&gt;n0x6238305fd9d0</title>
<path fill="none" stroke="#00ff00" d="M592.13,-411.58C587.35,-397.38 580.52,-377.1 575.04,-360.83"/>
<polygon fill="#00ff00" stroke="#00ff00" points="578.34,-359.67 571.83,-351.31 571.71,-361.91 578.34,-359.67"/>
</g>
<!-- n0x6238305ffa50 -->
<g id="node59" class="node">
<title>n0x6238305ffa50</title>
<path fill="#00eef9" stroke="#1f1d31" d="M502,-351C502,-351 456,-351 456,-351 450,-351 444,-345 444,-339 444,-339 444,-327 444,-327 444,-321 450,-315 456,-315 456,-315 502,-315 502,-315 508,-315 514,-321 514,-327 514,-327 514,-339 514,-339 514,-345 508,-351 502,-351"/>
<text text-anchor="middle" x="479" y="-330.2" font-family="SF Pro Text Bold 10" font-size="11.00" fill="#000000">label %20</text>
</g>
<!-- n0x6238305ffa50&#45;&gt;n0x6238305ffa70 -->
<g id="edge95" class="edge">
<title>n0x6238305ffa50&#45;&gt;n0x6238305ffa70</title>
<path fill="none" stroke="#00ff00" d="M494.96,-314.58C508.45,-299.84 527.94,-278.56 543.1,-262.01"/>
<polygon fill="#00ff00" stroke="#00ff00" points="545.97,-264.05 550.14,-254.31 540.81,-259.32 545.97,-264.05"/>
<text text-anchor="middle" x="536" y="-282" font-family="SF Pro Text Bold 10" font-size="10.00">%20</text>
</g>
<!-- n0x6238305fffd0 -->
<g id="node61" class="node">
<title>n0x6238305fffd0</title>
<path fill="#e8eef9" stroke="#1f1d31" d="M581,-60C581,-60 551,-60 551,-60 545,-60 539,-54 539,-48 539,-48 539,-36 539,-36 539,-30 545,-24 551,-24 551,-24 581,-24 581,-24 587,-24 593,-30 593,-36 593,-36 593,-48 593,-48 593,-54 587,-60 581,-60"/>
<text text-anchor="middle" x="566" y="-39.2" font-family="SF Pro Text Bold 10" font-size="11.00" fill="#000000">ret</text>
</g>
<!-- n0x6238305f9838&#45;&gt;n0x6238305fffd0 -->
<g id="edge96" class="edge">
<title>n0x6238305f9838&#45;&gt;n0x6238305fffd0</title>
<path fill="none" stroke="#ff0000" stroke-width="3" d="M566,-120.58C566,-106.65 566,-86.86 566,-70.76"/>
<polygon fill="#ff0000" stroke="#ff0000" stroke-width="3" points="569.5,-70.31 566,-60.31 562.5,-70.31 569.5,-70.31"/>
</g>
<!-- n0x6238305f9838&#45;&gt;n0x6238305fffd0 -->
<g id="edge97" class="edge">
<title>n0x6238305f9838&#45;&gt;n0x6238305fffd0</title>
<path fill="none" stroke="#0000ff" d="M567,-120.84C567.4,-113.23 567.81,-104.17 568,-96 568.2,-87.68 568.01,-78.63 567.68,-70.4"/>
<polygon fill="#0000ff" stroke="#0000ff" points="571.16,-70 567.18,-60.18 564.17,-70.34 571.16,-70"/>
<text text-anchor="middle" x="578.5" y="-88" font-family="SF Pro Text Bold 10" font-size="10.00">%21</text>
</g>
<!-- n0x6238305f9838&#45;&gt;n0x6238305fffd0 -->
<g id="edge98" class="edge">
<title>n0x6238305f9838&#45;&gt;n0x6238305fffd0</title>
<path fill="none" stroke="#00ff00" d="M581.32,-120.88C586.75,-113.71 592.2,-104.97 595,-96 597.92,-86.64 594.84,-77.04 589.75,-68.63"/>
<polygon fill="#00ff00" stroke="#00ff00" points="592.52,-66.49 583.88,-60.36 586.81,-70.54 592.52,-66.49"/>
<text text-anchor="middle" x="606.5" y="-88" font-family="SF Pro Text Bold 10" font-size="10.00">%21</text>
</g>
</g>
</svg>
