<?xml version="1.0" encoding="UTF-8" standalone="no"?>
<!DOCTYPE svg PUBLIC "-//W3C//DTD SVG 1.1//EN"
 "http://www.w3.org/Graphics/SVG/1.1/DTD/svg11.dtd">
<!-- Generated by graphviz version 2.43.0 (0)
 -->
<!-- Title: examples/factO1/fact.c Pages: 1 -->
<svg width="1998pt" height="1805pt"
 viewBox="0.00 0.00 1998.04 1805.20" xmlns="http://www.w3.org/2000/svg" xmlns:xlink="http://www.w3.org/1999/xlink">
<g id="graph0" class="graph" transform="scale(1 1) rotate(0) translate(21.6 1783.6)">
<title>examples/factO1/fact.c</title>
<polygon fill="white" stroke="transparent" points="-21.6,21.6 -21.6,-1783.6 1976.44,-1783.6 1976.44,21.6 -21.6,21.6"/>
<g id="clust1" class="cluster">
<title>cluster_func_1</title>
<path fill="#e3e3e3" stroke="#000000" stroke-width="2" d="M1264,-832C1264,-832 1905,-832 1905,-832 1911,-832 1917,-838 1917,-844 1917,-844 1917,-1742 1917,-1742 1917,-1748 1911,-1754 1905,-1754 1905,-1754 1264,-1754 1264,-1754 1258,-1754 1252,-1748 1252,-1742 1252,-1742 1252,-844 1252,-844 1252,-838 1258,-832 1264,-832"/>
<text text-anchor="middle" x="1584.5" y="-1734" font-family="SF Pro Text Bold 10" font-size="20.00">fact</text>
</g>
<g id="clust2" class="cluster">
<title>cluster_func_1_bb_1</title>
<path fill="#a4a4a4" stroke="#000000" stroke-width="2" d="M1360,-1458C1360,-1458 1432,-1458 1432,-1458 1438,-1458 1444,-1464 1444,-1470 1444,-1470 1444,-1601 1444,-1601 1444,-1607 1438,-1613 1432,-1613 1432,-1613 1360,-1613 1360,-1613 1354,-1613 1348,-1607 1348,-1601 1348,-1601 1348,-1470 1348,-1470 1348,-1464 1354,-1458 1360,-1458"/>
</g>
<g id="clust3" class="cluster">
<title>cluster_func_1_bb_2</title>
<path fill="#a4a4a4" stroke="#000000" stroke-width="2" d="M1385,-1046C1385,-1046 1668,-1046 1668,-1046 1674,-1046 1680,-1052 1680,-1058 1680,-1058 1680,-1395 1680,-1395 1680,-1401 1674,-1407 1668,-1407 1668,-1407 1385,-1407 1385,-1407 1379,-1407 1373,-1401 1373,-1395 1373,-1395 1373,-1058 1373,-1058 1373,-1052 1379,-1046 1385,-1046"/>
</g>
<g id="clust4" class="cluster">
<title>cluster_func_1_bb_3</title>
<path fill="#a4a4a4" stroke="#000000" stroke-width="2" d="M1700,-1355C1700,-1355 1851,-1355 1851,-1355 1857,-1355 1863,-1361 1863,-1367 1863,-1367 1863,-1704 1863,-1704 1863,-1710 1857,-1716 1851,-1716 1851,-1716 1700,-1716 1700,-1716 1694,-1716 1688,-1710 1688,-1704 1688,-1704 1688,-1367 1688,-1367 1688,-1361 1694,-1355 1700,-1355"/>
</g>
<g id="clust5" class="cluster">
<title>cluster_func_1_bb_4</title>
<path fill="#a4a4a4" stroke="#000000" stroke-width="2" d="M1272,-840C1272,-840 1353,-840 1353,-840 1359,-840 1365,-846 1365,-852 1365,-852 1365,-1086 1365,-1086 1365,-1092 1359,-1098 1353,-1098 1353,-1098 1272,-1098 1272,-1098 1266,-1098 1260,-1092 1260,-1086 1260,-1086 1260,-852 1260,-852 1260,-846 1266,-840 1272,-840"/>
</g>
<g id="clust6" class="cluster">
<title>cluster_func_2</title>
<path fill="#e3e3e3" stroke="#000000" stroke-width="2" d="M20,-8C20,-8 1232,-8 1232,-8 1238,-8 1244,-14 1244,-20 1244,-20 1244,-1742 1244,-1742 1244,-1748 1238,-1754 1232,-1754 1232,-1754 20,-1754 20,-1754 14,-1754 8,-1748 8,-1742 8,-1742 8,-20 8,-20 8,-14 14,-8 20,-8"/>
<text text-anchor="middle" x="626" y="-1734" font-family="SF Pro Text Bold 10" font-size="20.00">main</text>
</g>
<g id="clust7" class="cluster">
<title>cluster_func_2_bb_1</title>
<path fill="#a4a4a4" stroke="#000000" stroke-width="2" d="M735,-1458C735,-1458 991,-1458 991,-1458 997,-1458 1003,-1464 1003,-1470 1003,-1470 1003,-1704 1003,-1704 1003,-1710 997,-1716 991,-1716 991,-1716 735,-1716 735,-1716 729,-1716 723,-1710 723,-1704 723,-1704 723,-1470 723,-1470 723,-1464 729,-1458 735,-1458"/>
</g>
<g id="clust8" class="cluster">
<title>cluster_func_2_bb_2</title>
<path fill="#a4a4a4" stroke="#000000" stroke-width="2" d="M1023,-1252C1023,-1252 1224,-1252 1224,-1252 1230,-1252 1236,-1258 1236,-1264 1236,-1264 1236,-1498 1236,-1498 1236,-1504 1230,-1510 1224,-1510 1224,-1510 1023,-1510 1023,-1510 1017,-1510 1011,-1504 1011,-1498 1011,-1498 1011,-1264 1011,-1264 1011,-1258 1017,-1252 1023,-1252"/>
</g>
<g id="clust9" class="cluster">
<title>cluster_func_2_bb_3</title>
<path fill="#a4a4a4" stroke="#000000" stroke-width="2" d="M431,-1046C431,-1046 703,-1046 703,-1046 709,-1046 715,-1052 715,-1058 715,-1058 715,-1498 715,-1498 715,-1504 709,-1510 703,-1510 703,-1510 431,-1510 431,-1510 425,-1510 419,-1504 419,-1498 419,-1498 419,-1058 419,-1058 419,-1052 425,-1046 431,-1046"/>
</g>
<g id="clust10" class="cluster">
<title>cluster_func_2_bb_4</title>
<path fill="#a4a4a4" stroke="#000000" stroke-width="2" d="M28,-222C28,-222 399,-222 399,-222 405,-222 411,-228 411,-234 411,-234 411,-1086 411,-1086 411,-1092 405,-1098 399,-1098 399,-1098 28,-1098 28,-1098 22,-1098 16,-1092 16,-1086 16,-1086 16,-234 16,-234 16,-228 22,-222 28,-222"/>
</g>
<g id="clust11" class="cluster">
<title>cluster_func_2_bb_5</title>
<path fill="#a4a4a4" stroke="#000000" stroke-width="2" d="M432,-222C432,-222 672,-222 672,-222 678,-222 684,-228 684,-234 684,-234 684,-468 684,-468 684,-474 678,-480 672,-480 672,-480 432,-480 432,-480 426,-480 420,-474 420,-468 420,-468 420,-234 420,-234 420,-228 426,-222 432,-222"/>
</g>
<g id="clust12" class="cluster">
<title>cluster_func_2_bb_6</title>
<path fill="#a4a4a4" stroke="#000000" stroke-width="2" d="M626,-16C626,-16 707,-16 707,-16 713,-16 719,-22 719,-28 719,-28 719,-159 719,-159 719,-165 713,-171 707,-171 707,-171 626,-171 626,-171 620,-171 614,-165 614,-159 614,-159 614,-28 614,-28 614,-22 620,-16 626,-16"/>
</g>
<!-- n0x646e8a183e10 -->
<g id="node1" class="node">
<title>n0x646e8a183e10</title>
<path fill="#6d95df" stroke="#000000" d="M1411,-1502C1411,-1502 1381,-1502 1381,-1502 1375,-1502 1369,-1496 1369,-1490 1369,-1490 1369,-1478 1369,-1478 1369,-1472 1375,-1466 1381,-1466 1381,-1466 1411,-1466 1411,-1466 1417,-1466 1423,-1472 1423,-1478 1423,-1478 1423,-1490 1423,-1490 1423,-1496 1417,-1502 1411,-1502"/>
<text text-anchor="middle" x="1396" y="-1480.5" font-family="SF Pro Text Bold 10" font-size="15.00" fill="#000000">br</text>
</g>
<!-- n0x646e8a12c678 -->
<g id="node3" class="node">
<title>n0x646e8a12c678</title>
<path fill="#6d95df" stroke="#000000" d="M1606,-1399C1606,-1399 1576,-1399 1576,-1399 1570,-1399 1564,-1393 1564,-1387 1564,-1387 1564,-1375 1564,-1375 1564,-1369 1570,-1363 1576,-1363 1576,-1363 1606,-1363 1606,-1363 1612,-1363 1618,-1369 1618,-1375 1618,-1375 1618,-1387 1618,-1387 1618,-1393 1612,-1399 1606,-1399"/>
<text text-anchor="middle" x="1591" y="-1377.5" font-family="SF Pro Text Bold 10" font-size="15.00" fill="#000000">phi</text>
</g>
<!-- n0x646e8a183e10&#45;&gt;n0x646e8a12c678 -->
<g id="edge23" class="edge">
<title>n0x646e8a183e10&#45;&gt;n0x646e8a12c678</title>
<path fill="none" stroke="#ff8800" stroke-width="5" d="M1423.36,-1471.09C1441.58,-1462.98 1465.95,-1451.81 1487,-1441 1510.06,-1429.16 1535.37,-1414.84 1555.25,-1403.26"/>
<polygon fill="#ff8800" stroke="#ff8800" stroke-width="5" points="1557.55,-1406.99 1563.97,-1398.16 1553.13,-1399.43 1557.55,-1406.99"/>
<text text-anchor="middle" x="1533.5" y="-1429" font-family="SF Pro Text Bold 10" font-size="15.00">i64 1</text>
</g>
<!-- n0x646e8a1899f8 -->
<g id="node4" class="node">
<title>n0x646e8a1899f8</title>
<path fill="#6d95df" stroke="#000000" d="M1579,-1296C1579,-1296 1549,-1296 1549,-1296 1543,-1296 1537,-1290 1537,-1284 1537,-1284 1537,-1272 1537,-1272 1537,-1266 1543,-1260 1549,-1260 1549,-1260 1579,-1260 1579,-1260 1585,-1260 1591,-1266 1591,-1272 1591,-1272 1591,-1284 1591,-1284 1591,-1290 1585,-1296 1579,-1296"/>
<text text-anchor="middle" x="1564" y="-1274.5" font-family="SF Pro Text Bold 10" font-size="15.00" fill="#000000">phi</text>
</g>
<!-- n0x646e8a183e10&#45;&gt;n0x646e8a1899f8 -->
<g id="edge25" class="edge">
<title>n0x646e8a183e10&#45;&gt;n0x646e8a1899f8</title>
<path fill="none" stroke="#ff8800" stroke-width="5" d="M1392.47,-1465.85C1388.08,-1439.89 1383.46,-1389.93 1404,-1355 1429.61,-1311.44 1488.26,-1292.49 1526.99,-1284.5"/>
<polygon fill="#ff8800" stroke="#ff8800" stroke-width="5" points="1527.85,-1288.79 1536.85,-1282.61 1526.21,-1280.19 1527.85,-1288.79"/>
<text text-anchor="middle" x="1430.5" y="-1377.5" font-family="SF Pro Text Bold 10" font-size="15.00">i64 %0</text>
</g>
<!-- u0x646e8a183df0 -->
<g id="node2" class="node">
<title>u0x646e8a183df0</title>
<path fill="#db4040" stroke="#000000" d="M1424,-1605C1424,-1605 1368,-1605 1368,-1605 1362,-1605 1356,-1599 1356,-1593 1356,-1593 1356,-1581 1356,-1581 1356,-1575 1362,-1569 1368,-1569 1368,-1569 1424,-1569 1424,-1569 1430,-1569 1436,-1575 1436,-1581 1436,-1581 1436,-1593 1436,-1593 1436,-1599 1430,-1605 1424,-1605"/>
<text text-anchor="middle" x="1396" y="-1583.5" font-family="SF Pro Text Bold 10" font-size="15.00" fill="#000000">label %2</text>
</g>
<!-- u0x646e8a183df0&#45;&gt;n0x646e8a183e10 -->
<g id="edge1" class="edge">
<title>u0x646e8a183df0&#45;&gt;n0x646e8a183e10</title>
<path fill="none" stroke="#00b3ff" stroke-width="2" d="M1396,-1568.87C1396,-1553.41 1396,-1530.42 1396,-1512.41"/>
<polygon fill="#00b3ff" stroke="#00b3ff" stroke-width="2" points="1399.5,-1512.22 1396,-1502.22 1392.5,-1512.22 1399.5,-1512.22"/>
<text text-anchor="middle" x="1407.5" y="-1532" font-family="SF Pro Text Bold 10" font-size="15.00">%2</text>
</g>
<!-- n0x646e8a12c678&#45;&gt;n0x646e8a1899f8 -->
<g id="edge2" class="edge">
<title>n0x646e8a12c678&#45;&gt;n0x646e8a1899f8</title>
<path fill="none" stroke="#ff8800" stroke-width="5" d="M1586.42,-1362.87C1582.25,-1347.27 1576.03,-1323.98 1571.19,-1305.9"/>
<polygon fill="#ff8800" stroke="#ff8800" stroke-width="5" points="1575.41,-1304.75 1568.6,-1296.22 1566.96,-1307.01 1575.41,-1304.75"/>
</g>
<!-- n0x646e8a183b50 -->
<g id="node11" class="node">
<title>n0x646e8a183b50</title>
<path fill="#6d95df" stroke="#000000" d="M1738,-1502C1738,-1502 1708,-1502 1708,-1502 1702,-1502 1696,-1496 1696,-1490 1696,-1490 1696,-1478 1696,-1478 1696,-1472 1702,-1466 1708,-1466 1708,-1466 1738,-1466 1738,-1466 1744,-1466 1750,-1472 1750,-1478 1750,-1478 1750,-1490 1750,-1490 1750,-1496 1744,-1502 1738,-1502"/>
<text text-anchor="middle" x="1723" y="-1480.5" font-family="SF Pro Text Bold 10" font-size="15.00" fill="#000000">mul</text>
</g>
<!-- n0x646e8a12c678&#45;&gt;n0x646e8a183b50 -->
<g id="edge6" class="edge">
<title>n0x646e8a12c678&#45;&gt;n0x646e8a183b50</title>
<path fill="none" stroke="#00b3ff" stroke-width="2" d="M1613.5,-1399.22C1635.25,-1415.86 1668.37,-1441.2 1692.49,-1459.65"/>
<polygon fill="#00b3ff" stroke="#00b3ff" stroke-width="2" points="1690.54,-1462.57 1700.61,-1465.87 1694.79,-1457.01 1690.54,-1462.57"/>
<text text-anchor="middle" x="1675.5" y="-1429" font-family="SF Pro Text Bold 10" font-size="15.00">%3</text>
</g>
<!-- n0x646e8a187f70 -->
<g id="node15" class="node">
<title>n0x646e8a187f70</title>
<path fill="#6d95df" stroke="#000000" d="M1341,-987C1341,-987 1311,-987 1311,-987 1305,-987 1299,-981 1299,-975 1299,-975 1299,-963 1299,-963 1299,-957 1305,-951 1311,-951 1311,-951 1341,-951 1341,-951 1347,-951 1353,-957 1353,-963 1353,-963 1353,-975 1353,-975 1353,-981 1347,-987 1341,-987"/>
<text text-anchor="middle" x="1326" y="-965.5" font-family="SF Pro Text Bold 10" font-size="15.00" fill="#000000">mul</text>
</g>
<!-- n0x646e8a12c678&#45;&gt;n0x646e8a187f70 -->
<g id="edge5" class="edge">
<title>n0x646e8a12c678&#45;&gt;n0x646e8a187f70</title>
<path fill="none" stroke="#00b3ff" stroke-width="2" d="M1568.48,-1362.9C1508.05,-1317.02 1346.83,-1194.53 1346,-1193 1330.39,-1164.2 1338.15,-1078.61 1335,-1046 1333.44,-1029.88 1331.33,-1011.87 1329.54,-997.44"/>
<polygon fill="#00b3ff" stroke="#00b3ff" stroke-width="2" points="1332.97,-996.67 1328.25,-987.18 1326.02,-997.54 1332.97,-996.67"/>
<text text-anchor="middle" x="1357.5" y="-1171.5" font-family="SF Pro Text Bold 10" font-size="15.00">%3</text>
</g>
<!-- n0x646e89fdf490 -->
<g id="node5" class="node">
<title>n0x646e89fdf490</title>
<path fill="#6d95df" stroke="#000000" d="M1633,-1193C1633,-1193 1603,-1193 1603,-1193 1597,-1193 1591,-1187 1591,-1181 1591,-1181 1591,-1169 1591,-1169 1591,-1163 1597,-1157 1603,-1157 1603,-1157 1633,-1157 1633,-1157 1639,-1157 1645,-1163 1645,-1169 1645,-1169 1645,-1181 1645,-1181 1645,-1187 1639,-1193 1633,-1193"/>
<text text-anchor="middle" x="1618" y="-1171.5" font-family="SF Pro Text Bold 10" font-size="15.00" fill="#000000">icmp</text>
</g>
<!-- n0x646e8a1899f8&#45;&gt;n0x646e89fdf490 -->
<g id="edge3" class="edge">
<title>n0x646e8a1899f8&#45;&gt;n0x646e89fdf490</title>
<path fill="none" stroke="#ff8800" stroke-width="5" d="M1583.09,-1259.65C1589.91,-1252.59 1597.1,-1243.97 1602,-1235 1607.38,-1225.15 1611.05,-1213.37 1613.5,-1202.94"/>
<polygon fill="#ff8800" stroke="#ff8800" stroke-width="5" points="1617.8,-1203.76 1615.56,-1193.07 1609.23,-1201.96 1617.8,-1203.76"/>
</g>
<!-- n0x646e8a1899f8&#45;&gt;n0x646e89fdf490 -->
<g id="edge7" class="edge">
<title>n0x646e8a1899f8&#45;&gt;n0x646e89fdf490</title>
<path fill="none" stroke="#00b3ff" stroke-width="2" d="M1563.3,-1259.79C1563.49,-1247.5 1565.23,-1230.91 1572,-1218 1575.45,-1211.42 1580.37,-1205.34 1585.71,-1199.97"/>
<polygon fill="#00b3ff" stroke="#00b3ff" stroke-width="2" points="1588.18,-1202.46 1593.17,-1193.11 1583.44,-1197.31 1588.18,-1202.46"/>
<text text-anchor="middle" x="1584" y="-1223" font-family="SF Pro Text Bold 10" font-size="15.00">%4</text>
</g>
<!-- n0x646e8a183cb0 -->
<g id="node10" class="node">
<title>n0x646e8a183cb0</title>
<path fill="#6d95df" stroke="#000000" d="M1790,-1605C1790,-1605 1760,-1605 1760,-1605 1754,-1605 1748,-1599 1748,-1593 1748,-1593 1748,-1581 1748,-1581 1748,-1575 1754,-1569 1760,-1569 1760,-1569 1790,-1569 1790,-1569 1796,-1569 1802,-1575 1802,-1581 1802,-1581 1802,-1593 1802,-1593 1802,-1599 1796,-1605 1790,-1605"/>
<text text-anchor="middle" x="1775" y="-1583.5" font-family="SF Pro Text Bold 10" font-size="15.00" fill="#000000">add</text>
</g>
<!-- n0x646e8a1899f8&#45;&gt;n0x646e8a183cb0 -->
<g id="edge9" class="edge">
<title>n0x646e8a1899f8&#45;&gt;n0x646e8a183cb0</title>
<path fill="none" stroke="#00b3ff" stroke-width="2" d="M1591.3,-1291.36C1595.51,-1293.04 1599.84,-1294.65 1604,-1296 1651.7,-1311.42 1668.12,-1300.78 1714,-1321 1797.83,-1357.94 1832.54,-1373.53 1868,-1458 1876.95,-1479.31 1877.9,-1489.12 1868,-1510 1856.19,-1534.89 1831.8,-1554.33 1810.96,-1567.32"/>
<polygon fill="#00b3ff" stroke="#00b3ff" stroke-width="2" points="1809.09,-1564.36 1802.29,-1572.49 1812.67,-1570.37 1809.09,-1564.36"/>
<text text-anchor="middle" x="1871" y="-1429" font-family="SF Pro Text Bold 10" font-size="15.00">%4</text>
</g>
<!-- n0x646e8a1899f8&#45;&gt;n0x646e8a183b50 -->
<g id="edge8" class="edge">
<title>n0x646e8a1899f8&#45;&gt;n0x646e8a183b50</title>
<path fill="none" stroke="#00b3ff" stroke-width="2" d="M1551.08,-1296.01C1533.19,-1321.79 1505.51,-1371.51 1528,-1407 1536.88,-1421.01 1632.34,-1453.71 1686.32,-1471.3"/>
<polygon fill="#00b3ff" stroke="#00b3ff" stroke-width="2" points="1685.29,-1474.65 1695.89,-1474.41 1687.45,-1467.99 1685.29,-1474.65"/>
<text text-anchor="middle" x="1540" y="-1377.5" font-family="SF Pro Text Bold 10" font-size="15.00">%4</text>
</g>
<!-- n0x646e8a09dca0 -->
<g id="node6" class="node">
<title>n0x646e8a09dca0</title>
<path fill="#6d95df" stroke="#000000" d="M1633,-1090C1633,-1090 1603,-1090 1603,-1090 1597,-1090 1591,-1084 1591,-1078 1591,-1078 1591,-1066 1591,-1066 1591,-1060 1597,-1054 1603,-1054 1603,-1054 1633,-1054 1633,-1054 1639,-1054 1645,-1060 1645,-1066 1645,-1066 1645,-1078 1645,-1078 1645,-1084 1639,-1090 1633,-1090"/>
<text text-anchor="middle" x="1618" y="-1068.5" font-family="SF Pro Text Bold 10" font-size="15.00" fill="#000000">br</text>
</g>
<!-- n0x646e89fdf490&#45;&gt;n0x646e8a09dca0 -->
<g id="edge4" class="edge">
<title>n0x646e89fdf490&#45;&gt;n0x646e8a09dca0</title>
<path fill="none" stroke="#ff8800" stroke-width="5" d="M1618,-1156.87C1618,-1141.41 1618,-1118.42 1618,-1100.41"/>
<polygon fill="#ff8800" stroke="#ff8800" stroke-width="5" points="1622.38,-1100.22 1618,-1090.22 1613.63,-1100.22 1622.38,-1100.22"/>
</g>
<!-- n0x646e89fdf490&#45;&gt;n0x646e8a09dca0 -->
<g id="edge10" class="edge">
<title>n0x646e89fdf490&#45;&gt;n0x646e8a09dca0</title>
<path fill="none" stroke="#00b3ff" stroke-width="2" d="M1619,-1156.84C1619.4,-1149.23 1619.81,-1140.17 1620,-1132 1620.25,-1121.62 1619.99,-1110.21 1619.58,-1100.21"/>
<polygon fill="#00b3ff" stroke="#00b3ff" stroke-width="2" points="1623.07,-1099.86 1619.1,-1090.04 1616.07,-1100.19 1623.07,-1099.86"/>
<text text-anchor="middle" x="1631.5" y="-1120" font-family="SF Pro Text Bold 10" font-size="15.00">%5</text>
</g>
<!-- n0x646e8a09dca0&#45;&gt;n0x646e8a183cb0 -->
<g id="edge27" class="edge">
<title>n0x646e8a09dca0&#45;&gt;n0x646e8a183cb0</title>
<path fill="none" stroke="#ff8800" stroke-width="5" d="M1645.02,-1076.51C1717.01,-1086.61 1908,-1118.62 1908,-1174 1908,-1485 1908,-1485 1908,-1485 1908,-1533.51 1851.18,-1561.76 1811.82,-1575.5"/>
<polygon fill="#ff8800" stroke="#ff8800" stroke-width="5" points="1810.35,-1571.38 1802.24,-1578.69 1813.1,-1579.69 1810.35,-1571.38"/>
</g>
<!-- n0x646e8a09dca0&#45;&gt;n0x646e8a187f70 -->
<g id="edge28" class="edge">
<title>n0x646e8a09dca0&#45;&gt;n0x646e8a187f70</title>
<path fill="none" stroke="#ff8800" stroke-width="5" d="M1590.7,-1068.99C1534.03,-1064.41 1405.82,-1051.78 1369,-1029 1367.15,-1027.85 1354.87,-1010.91 1343.91,-995.47"/>
<polygon fill="#ff8800" stroke="#ff8800" stroke-width="5" points="1347.38,-992.8 1338.03,-987.16 1340.24,-997.85 1347.38,-992.8"/>
</g>
<!-- u0x646e89fdf470 -->
<g id="node7" class="node">
<title>u0x646e89fdf470</title>
<path fill="#db4040" stroke="#000000" d="M1660,-1296C1660,-1296 1628,-1296 1628,-1296 1622,-1296 1616,-1290 1616,-1284 1616,-1284 1616,-1272 1616,-1272 1616,-1266 1622,-1260 1628,-1260 1628,-1260 1660,-1260 1660,-1260 1666,-1260 1672,-1266 1672,-1272 1672,-1272 1672,-1284 1672,-1284 1672,-1290 1666,-1296 1660,-1296"/>
<text text-anchor="middle" x="1644" y="-1274.5" font-family="SF Pro Text Bold 10" font-size="15.00" fill="#000000">i64 2</text>
</g>
<!-- u0x646e89fdf470&#45;&gt;n0x646e89fdf490 -->
<g id="edge11" class="edge">
<title>u0x646e89fdf470&#45;&gt;n0x646e89fdf490</title>
<path fill="none" stroke="#00b3ff" stroke-width="2" d="M1639.59,-1259.87C1635.57,-1244.27 1629.58,-1220.98 1624.93,-1202.9"/>
<polygon fill="#00b3ff" stroke="#00b3ff" stroke-width="2" points="1628.31,-1202.03 1622.43,-1193.22 1621.54,-1203.77 1628.31,-1202.03"/>
</g>
<!-- u0x646e8a09dc60 -->
<g id="node8" class="node">
<title>u0x646e8a09dc60</title>
<path fill="#db4040" stroke="#000000" d="M1554,-1193C1554,-1193 1498,-1193 1498,-1193 1492,-1193 1486,-1187 1486,-1181 1486,-1181 1486,-1169 1486,-1169 1486,-1163 1492,-1157 1498,-1157 1498,-1157 1554,-1157 1554,-1157 1560,-1157 1566,-1163 1566,-1169 1566,-1169 1566,-1181 1566,-1181 1566,-1187 1560,-1193 1554,-1193"/>
<text text-anchor="middle" x="1526" y="-1171.5" font-family="SF Pro Text Bold 10" font-size="15.00" fill="#000000">label %6</text>
</g>
<!-- u0x646e8a09dc60&#45;&gt;n0x646e8a09dca0 -->
<g id="edge12" class="edge">
<title>u0x646e8a09dc60&#45;&gt;n0x646e8a09dca0</title>
<path fill="none" stroke="#00b3ff" stroke-width="2" d="M1541.61,-1156.87C1556.41,-1140.62 1578.81,-1116.02 1595.54,-1097.66"/>
<polygon fill="#00b3ff" stroke="#00b3ff" stroke-width="2" points="1598.17,-1099.97 1602.32,-1090.22 1593,-1095.25 1598.17,-1099.97"/>
<text text-anchor="middle" x="1589" y="-1120" font-family="SF Pro Text Bold 10" font-size="15.00">%6</text>
</g>
<!-- u0x646e8a09dc80 -->
<g id="node9" class="node">
<title>u0x646e8a09dc80</title>
<path fill="#db4040" stroke="#000000" d="M1449,-1193C1449,-1193 1393,-1193 1393,-1193 1387,-1193 1381,-1187 1381,-1181 1381,-1181 1381,-1169 1381,-1169 1381,-1163 1387,-1157 1393,-1157 1393,-1157 1449,-1157 1449,-1157 1455,-1157 1461,-1163 1461,-1169 1461,-1169 1461,-1181 1461,-1181 1461,-1187 1455,-1193 1449,-1193"/>
<text text-anchor="middle" x="1421" y="-1171.5" font-family="SF Pro Text Bold 10" font-size="15.00" fill="#000000">label %9</text>
</g>
<!-- u0x646e8a09dc80&#45;&gt;n0x646e8a09dca0 -->
<g id="edge13" class="edge">
<title>u0x646e8a09dc80&#45;&gt;n0x646e8a09dca0</title>
<path fill="none" stroke="#00b3ff" stroke-width="2" d="M1454.21,-1156.95C1477.18,-1145.17 1508.44,-1129.13 1536,-1115 1550.95,-1107.34 1567.43,-1098.9 1581.67,-1091.6"/>
<polygon fill="#00b3ff" stroke="#00b3ff" stroke-width="2" points="1583.36,-1094.67 1590.66,-1087 1580.17,-1088.44 1583.36,-1094.67"/>
<text text-anchor="middle" x="1548" y="-1120" font-family="SF Pro Text Bold 10" font-size="15.00">%9</text>
</g>
<!-- n0x646e8a183cb0&#45;&gt;n0x646e8a1899f8 -->
<g id="edge16" class="edge">
<title>n0x646e8a183cb0&#45;&gt;n0x646e8a1899f8</title>
<path fill="none" stroke="#00b3ff" stroke-width="2" d="M1747.54,-1583.07C1683.52,-1574.58 1524.83,-1543.63 1459,-1441 1446.31,-1421.21 1475.83,-1379.62 1522,-1321 1526.74,-1314.99 1532.26,-1308.93 1537.71,-1303.35"/>
<polygon fill="#00b3ff" stroke="#00b3ff" stroke-width="2" points="1540.39,-1305.63 1545.03,-1296.11 1535.46,-1300.66 1540.39,-1305.63"/>
<text text-anchor="middle" x="1470" y="-1429" font-family="SF Pro Text Bold 10" font-size="15.00">%7</text>
</g>
<!-- n0x646e8a183cb0&#45;&gt;n0x646e8a183b50 -->
<g id="edge14" class="edge">
<title>n0x646e8a183cb0&#45;&gt;n0x646e8a183b50</title>
<path fill="none" stroke="#ff8800" stroke-width="5" d="M1766.18,-1568.87C1758.04,-1553.05 1745.82,-1529.33 1736.46,-1511.15"/>
<polygon fill="#ff8800" stroke="#ff8800" stroke-width="5" points="1740.33,-1509.11 1731.86,-1502.22 1732.55,-1513.11 1740.33,-1509.11"/>
</g>
<!-- n0x646e8a183b50&#45;&gt;n0x646e8a12c678 -->
<g id="edge18" class="edge">
<title>n0x646e8a183b50&#45;&gt;n0x646e8a12c678</title>
<path fill="none" stroke="#00b3ff" stroke-width="2" d="M1695.66,-1477.78C1672.74,-1472.15 1640.4,-1461.17 1619,-1441 1609.68,-1432.22 1603.14,-1419.71 1598.73,-1408.46"/>
<polygon fill="#00b3ff" stroke="#00b3ff" stroke-width="2" points="1602.03,-1407.29 1595.39,-1399.03 1595.43,-1409.62 1602.03,-1407.29"/>
<text text-anchor="middle" x="1631" y="-1429" font-family="SF Pro Text Bold 10" font-size="15.00">%8</text>
</g>
<!-- n0x646e8a0df5e0 -->
<g id="node12" class="node">
<title>n0x646e8a0df5e0</title>
<path fill="#6d95df" stroke="#000000" d="M1738,-1399C1738,-1399 1708,-1399 1708,-1399 1702,-1399 1696,-1393 1696,-1387 1696,-1387 1696,-1375 1696,-1375 1696,-1369 1702,-1363 1708,-1363 1708,-1363 1738,-1363 1738,-1363 1744,-1363 1750,-1369 1750,-1375 1750,-1375 1750,-1387 1750,-1387 1750,-1393 1744,-1399 1738,-1399"/>
<text text-anchor="middle" x="1723" y="-1377.5" font-family="SF Pro Text Bold 10" font-size="15.00" fill="#000000">br</text>
</g>
<!-- n0x646e8a183b50&#45;&gt;n0x646e8a0df5e0 -->
<g id="edge15" class="edge">
<title>n0x646e8a183b50&#45;&gt;n0x646e8a0df5e0</title>
<path fill="none" stroke="#ff8800" stroke-width="5" d="M1723,-1465.87C1723,-1450.41 1723,-1427.42 1723,-1409.41"/>
<polygon fill="#ff8800" stroke="#ff8800" stroke-width="5" points="1727.38,-1409.22 1723,-1399.22 1718.63,-1409.22 1727.38,-1409.22"/>
</g>
<!-- n0x646e8a0df5e0&#45;&gt;n0x646e8a12c678 -->
<g id="edge24" class="edge">
<title>n0x646e8a0df5e0&#45;&gt;n0x646e8a12c678</title>
<path fill="none" stroke="#ff8800" stroke-width="5" d="M1695.55,-1381C1676.01,-1381 1649.51,-1381 1628.09,-1381"/>
<polygon fill="#ff8800" stroke="#ff8800" stroke-width="5" points="1628.03,-1376.63 1618.03,-1381 1628.03,-1385.38 1628.03,-1376.63"/>
<text text-anchor="middle" x="1657" y="-1389" font-family="SF Pro Text Bold 10" font-size="15.00">i64 %8</text>
</g>
<!-- n0x646e8a0df5e0&#45;&gt;n0x646e8a1899f8 -->
<g id="edge26" class="edge">
<title>n0x646e8a0df5e0&#45;&gt;n0x646e8a1899f8</title>
<path fill="none" stroke="#ff8800" stroke-width="5" d="M1698.01,-1362.93C1694.01,-1360.25 1689.9,-1357.53 1686,-1355 1657.29,-1336.37 1624.32,-1315.88 1599.9,-1300.88"/>
<polygon fill="#ff8800" stroke="#ff8800" stroke-width="5" points="1602.13,-1297.12 1591.32,-1295.62 1597.55,-1304.57 1602.13,-1297.12"/>
<text text-anchor="middle" x="1682" y="-1326" font-family="SF Pro Text Bold 10" font-size="15.00">i64 %7</text>
</g>
<!-- u0x646e8a183c90 -->
<g id="node13" class="node">
<title>u0x646e8a183c90</title>
<path fill="#db4040" stroke="#000000" d="M1793.5,-1708C1793.5,-1708 1756.5,-1708 1756.5,-1708 1750.5,-1708 1744.5,-1702 1744.5,-1696 1744.5,-1696 1744.5,-1684 1744.5,-1684 1744.5,-1678 1750.5,-1672 1756.5,-1672 1756.5,-1672 1793.5,-1672 1793.5,-1672 1799.5,-1672 1805.5,-1678 1805.5,-1684 1805.5,-1684 1805.5,-1696 1805.5,-1696 1805.5,-1702 1799.5,-1708 1793.5,-1708"/>
<text text-anchor="middle" x="1775" y="-1686.5" font-family="SF Pro Text Bold 10" font-size="15.00" fill="#000000">i64 &#45;1</text>
</g>
<!-- u0x646e8a183c90&#45;&gt;n0x646e8a183cb0 -->
<g id="edge17" class="edge">
<title>u0x646e8a183c90&#45;&gt;n0x646e8a183cb0</title>
<path fill="none" stroke="#00b3ff" stroke-width="2" d="M1775,-1671.87C1775,-1656.41 1775,-1633.42 1775,-1615.41"/>
<polygon fill="#00b3ff" stroke="#00b3ff" stroke-width="2" points="1778.5,-1615.22 1775,-1605.22 1771.5,-1615.22 1778.5,-1615.22"/>
</g>
<!-- u0x646e8a0df5c0 -->
<g id="node14" class="node">
<title>u0x646e8a0df5c0</title>
<path fill="#db4040" stroke="#000000" d="M1843,-1502C1843,-1502 1787,-1502 1787,-1502 1781,-1502 1775,-1496 1775,-1490 1775,-1490 1775,-1478 1775,-1478 1775,-1472 1781,-1466 1787,-1466 1787,-1466 1843,-1466 1843,-1466 1849,-1466 1855,-1472 1855,-1478 1855,-1478 1855,-1490 1855,-1490 1855,-1496 1849,-1502 1843,-1502"/>
<text text-anchor="middle" x="1815" y="-1480.5" font-family="SF Pro Text Bold 10" font-size="15.00" fill="#000000">label %2</text>
</g>
<!-- u0x646e8a0df5c0&#45;&gt;n0x646e8a0df5e0 -->
<g id="edge19" class="edge">
<title>u0x646e8a0df5c0&#45;&gt;n0x646e8a0df5e0</title>
<path fill="none" stroke="#00b3ff" stroke-width="2" d="M1799.39,-1465.87C1784.59,-1449.62 1762.19,-1425.02 1745.46,-1406.66"/>
<polygon fill="#00b3ff" stroke="#00b3ff" stroke-width="2" points="1748,-1404.25 1738.68,-1399.22 1742.83,-1408.97 1748,-1404.25"/>
<text text-anchor="middle" x="1785.5" y="-1429" font-family="SF Pro Text Bold 10" font-size="15.00">%2</text>
</g>
<!-- n0x646e8a184220 -->
<g id="node16" class="node">
<title>n0x646e8a184220</title>
<path fill="#6d95df" stroke="#000000" d="M1310,-884C1310,-884 1280,-884 1280,-884 1274,-884 1268,-878 1268,-872 1268,-872 1268,-860 1268,-860 1268,-854 1274,-848 1280,-848 1280,-848 1310,-848 1310,-848 1316,-848 1322,-854 1322,-860 1322,-860 1322,-872 1322,-872 1322,-878 1316,-884 1310,-884"/>
<text text-anchor="middle" x="1295" y="-862.5" font-family="SF Pro Text Bold 10" font-size="15.00" fill="#000000">ret</text>
</g>
<!-- n0x646e8a187f70&#45;&gt;n0x646e8a184220 -->
<g id="edge20" class="edge">
<title>n0x646e8a187f70&#45;&gt;n0x646e8a184220</title>
<path fill="none" stroke="#ff8800" stroke-width="5" d="M1312.89,-950.94C1307.99,-943.64 1302.91,-934.79 1300,-926 1296.67,-915.93 1295.21,-904.4 1294.66,-894.21"/>
<polygon fill="#ff8800" stroke="#ff8800" stroke-width="5" points="1299.03,-894.07 1294.37,-884.21 1290.28,-894.33 1299.03,-894.07"/>
</g>
<!-- n0x646e8a187f70&#45;&gt;n0x646e8a184220 -->
<g id="edge21" class="edge">
<title>n0x646e8a187f70&#45;&gt;n0x646e8a184220</title>
<path fill="none" stroke="#00b3ff" stroke-width="2" d="M1320.74,-950.87C1315.95,-935.27 1308.81,-911.98 1303.26,-893.9"/>
<polygon fill="#00b3ff" stroke="#00b3ff" stroke-width="2" points="1306.56,-892.75 1300.28,-884.22 1299.87,-894.8 1306.56,-892.75"/>
<text text-anchor="middle" x="1327.5" y="-914" font-family="SF Pro Text Bold 10" font-size="15.00">%10</text>
</g>
<!-- u0x646e8a187f50 -->
<g id="node17" class="node">
<title>u0x646e8a187f50</title>
<path fill="#db4040" stroke="#000000" d="M1310,-1090C1310,-1090 1280,-1090 1280,-1090 1274,-1090 1268,-1084 1268,-1078 1268,-1078 1268,-1066 1268,-1066 1268,-1060 1274,-1054 1280,-1054 1280,-1054 1310,-1054 1310,-1054 1316,-1054 1322,-1060 1322,-1066 1322,-1066 1322,-1078 1322,-1078 1322,-1084 1316,-1090 1310,-1090"/>
<text text-anchor="middle" x="1295" y="-1068.5" font-family="SF Pro Text Bold 10" font-size="15.00" fill="#000000">i64 1</text>
</g>
<!-- u0x646e8a187f50&#45;&gt;n0x646e8a187f70 -->
<g id="edge22" class="edge">
<title>u0x646e8a187f50&#45;&gt;n0x646e8a187f70</title>
<path fill="none" stroke="#00b3ff" stroke-width="2" d="M1300.26,-1053.87C1305.05,-1038.27 1312.19,-1014.98 1317.74,-996.9"/>
<polygon fill="#00b3ff" stroke="#00b3ff" stroke-width="2" points="1321.13,-997.8 1320.72,-987.22 1314.44,-995.75 1321.13,-997.8"/>
</g>
<!-- n0x646e8a186ad0 -->
<g id="node18" class="node">
<title>n0x646e8a186ad0</title>
<path fill="#6d95df" stroke="#000000" d="M773,-1605C773,-1605 743,-1605 743,-1605 737,-1605 731,-1599 731,-1593 731,-1593 731,-1581 731,-1581 731,-1575 737,-1569 743,-1569 743,-1569 773,-1569 773,-1569 779,-1569 785,-1575 785,-1581 785,-1581 785,-1593 785,-1593 785,-1599 779,-1605 773,-1605"/>
<text text-anchor="middle" x="758" y="-1583.5" font-family="SF Pro Text Bold 10" font-size="15.00" fill="#000000">icmp</text>
</g>
<!-- n0x646e8a186bf0 -->
<g id="node19" class="node">
<title>n0x646e8a186bf0</title>
<path fill="#6d95df" stroke="#000000" d="M773,-1502C773,-1502 743,-1502 743,-1502 737,-1502 731,-1496 731,-1490 731,-1490 731,-1478 731,-1478 731,-1472 737,-1466 743,-1466 743,-1466 773,-1466 773,-1466 779,-1466 785,-1472 785,-1478 785,-1478 785,-1490 785,-1490 785,-1496 779,-1502 773,-1502"/>
<text text-anchor="middle" x="758" y="-1480.5" font-family="SF Pro Text Bold 10" font-size="15.00" fill="#000000">br</text>
</g>
<!-- n0x646e8a186ad0&#45;&gt;n0x646e8a186bf0 -->
<g id="edge29" class="edge">
<title>n0x646e8a186ad0&#45;&gt;n0x646e8a186bf0</title>
<path fill="none" stroke="#ff8800" stroke-width="5" d="M758,-1568.87C758,-1553.41 758,-1530.42 758,-1512.41"/>
<polygon fill="#ff8800" stroke="#ff8800" stroke-width="5" points="762.38,-1512.22 758,-1502.22 753.63,-1512.22 762.38,-1512.22"/>
</g>
<!-- n0x646e8a186ad0&#45;&gt;n0x646e8a186bf0 -->
<g id="edge30" class="edge">
<title>n0x646e8a186ad0&#45;&gt;n0x646e8a186bf0</title>
<path fill="none" stroke="#00b3ff" stroke-width="2" d="M759,-1568.84C759.4,-1561.23 759.81,-1552.17 760,-1544 760.25,-1533.62 759.99,-1522.21 759.58,-1512.21"/>
<polygon fill="#00b3ff" stroke="#00b3ff" stroke-width="2" points="763.07,-1511.86 759.1,-1502.04 756.07,-1512.19 763.07,-1511.86"/>
<text text-anchor="middle" x="771.5" y="-1532" font-family="SF Pro Text Bold 10" font-size="15.00">%3</text>
</g>
<!-- n0x646e8a189880 -->
<g id="node24" class="node">
<title>n0x646e8a189880</title>
<path fill="#6d95df" stroke="#000000" d="M1176,-1399C1176,-1399 1146,-1399 1146,-1399 1140,-1399 1134,-1393 1134,-1387 1134,-1387 1134,-1375 1134,-1375 1134,-1369 1140,-1363 1146,-1363 1146,-1363 1176,-1363 1176,-1363 1182,-1363 1188,-1369 1188,-1375 1188,-1375 1188,-1387 1188,-1387 1188,-1393 1182,-1399 1176,-1399"/>
<text text-anchor="middle" x="1161" y="-1377.5" font-family="SF Pro Text Bold 10" font-size="15.00" fill="#000000">call</text>
</g>
<!-- n0x646e8a186bf0&#45;&gt;n0x646e8a189880 -->
<g id="edge80" class="edge">
<title>n0x646e8a186bf0&#45;&gt;n0x646e8a189880</title>
<path fill="none" stroke="#ff8800" stroke-width="5" d="M785.01,-1480.74C846.77,-1474.85 1002.18,-1455.96 1122,-1407 1124.12,-1406.13 1126.25,-1405.15 1128.36,-1404.09"/>
<polygon fill="#ff8800" stroke="#ff8800" stroke-width="5" points="1130.81,-1407.74 1137.41,-1399.04 1126.54,-1400.09 1130.81,-1407.74"/>
</g>
<!-- n0x646e8a1892e0 -->
<g id="node29" class="node">
<title>n0x646e8a1892e0</title>
<path fill="#6d95df" stroke="#000000" d="M638,-1399C638,-1399 608,-1399 608,-1399 602,-1399 596,-1393 596,-1387 596,-1387 596,-1375 596,-1375 596,-1369 602,-1363 608,-1363 608,-1363 638,-1363 638,-1363 644,-1363 650,-1369 650,-1375 650,-1375 650,-1387 650,-1387 650,-1393 644,-1399 638,-1399"/>
<text text-anchor="middle" x="623" y="-1377.5" font-family="SF Pro Text Bold 10" font-size="15.00" fill="#000000">call</text>
</g>
<!-- n0x646e8a186bf0&#45;&gt;n0x646e8a1892e0 -->
<g id="edge81" class="edge">
<title>n0x646e8a186bf0&#45;&gt;n0x646e8a1892e0</title>
<path fill="none" stroke="#ff8800" stroke-width="5" d="M735.1,-1465.87C712.89,-1449.25 679.03,-1423.92 654.33,-1405.44"/>
<polygon fill="#ff8800" stroke="#ff8800" stroke-width="5" points="656.64,-1401.7 646.01,-1399.22 651.4,-1408.71 656.64,-1401.7"/>
</g>
<!-- u0x646e8a186a90 -->
<g id="node20" class="node">
<title>u0x646e8a186a90</title>
<path fill="#db4040" stroke="#000000" d="M866,-1708C866,-1708 822,-1708 822,-1708 816,-1708 810,-1702 810,-1696 810,-1696 810,-1684 810,-1684 810,-1678 816,-1672 822,-1672 822,-1672 866,-1672 866,-1672 872,-1672 878,-1678 878,-1684 878,-1684 878,-1696 878,-1696 878,-1702 872,-1708 866,-1708"/>
<text text-anchor="middle" x="844" y="-1686.5" font-family="SF Pro Text Bold 10" font-size="15.00" fill="#000000">i32 %0</text>
</g>
<!-- u0x646e8a186a90&#45;&gt;n0x646e8a186ad0 -->
<g id="edge31" class="edge">
<title>u0x646e8a186a90&#45;&gt;n0x646e8a186ad0</title>
<path fill="none" stroke="#00b3ff" stroke-width="2" d="M829.41,-1671.87C815.7,-1655.76 795,-1631.46 779.42,-1613.15"/>
<polygon fill="#00b3ff" stroke="#00b3ff" stroke-width="2" points="781.81,-1610.56 772.66,-1605.22 776.48,-1615.1 781.81,-1610.56"/>
<text text-anchor="middle" x="818" y="-1635" font-family="SF Pro Text Bold 10" font-size="15.00">%0</text>
</g>
<!-- u0x646e8a186ab0 -->
<g id="node21" class="node">
<title>u0x646e8a186ab0</title>
<path fill="#db4040" stroke="#000000" d="M773,-1708C773,-1708 743,-1708 743,-1708 737,-1708 731,-1702 731,-1696 731,-1696 731,-1684 731,-1684 731,-1678 737,-1672 743,-1672 743,-1672 773,-1672 773,-1672 779,-1672 785,-1678 785,-1684 785,-1684 785,-1696 785,-1696 785,-1702 779,-1708 773,-1708"/>
<text text-anchor="middle" x="758" y="-1686.5" font-family="SF Pro Text Bold 10" font-size="15.00" fill="#000000">i32 2</text>
</g>
<!-- u0x646e8a186ab0&#45;&gt;n0x646e8a186ad0 -->
<g id="edge32" class="edge">
<title>u0x646e8a186ab0&#45;&gt;n0x646e8a186ad0</title>
<path fill="none" stroke="#00b3ff" stroke-width="2" d="M758,-1671.87C758,-1656.41 758,-1633.42 758,-1615.41"/>
<polygon fill="#00b3ff" stroke="#00b3ff" stroke-width="2" points="761.5,-1615.22 758,-1605.22 754.5,-1615.22 761.5,-1615.22"/>
</g>
<!-- u0x646e8a186bb0 -->
<g id="node22" class="node">
<title>u0x646e8a186bb0</title>
<path fill="#db4040" stroke="#000000" d="M983,-1605C983,-1605 927,-1605 927,-1605 921,-1605 915,-1599 915,-1593 915,-1593 915,-1581 915,-1581 915,-1575 921,-1569 927,-1569 927,-1569 983,-1569 983,-1569 989,-1569 995,-1575 995,-1581 995,-1581 995,-1593 995,-1593 995,-1599 989,-1605 983,-1605"/>
<text text-anchor="middle" x="955" y="-1583.5" font-family="SF Pro Text Bold 10" font-size="15.00" fill="#000000">label %4</text>
</g>
<!-- u0x646e8a186bb0&#45;&gt;n0x646e8a186bf0 -->
<g id="edge33" class="edge">
<title>u0x646e8a186bb0&#45;&gt;n0x646e8a186bf0</title>
<path fill="none" stroke="#00b3ff" stroke-width="2" d="M921.58,-1568.87C886.31,-1550.78 830.89,-1522.37 794.5,-1503.71"/>
<polygon fill="#00b3ff" stroke="#00b3ff" stroke-width="2" points="795.72,-1500.41 785.23,-1498.96 792.53,-1506.64 795.72,-1500.41"/>
<text text-anchor="middle" x="880" y="-1532" font-family="SF Pro Text Bold 10" font-size="15.00">%4</text>
</g>
<!-- u0x646e8a186bd0 -->
<g id="node23" class="node">
<title>u0x646e8a186bd0</title>
<path fill="#db4040" stroke="#000000" d="M878,-1605C878,-1605 822,-1605 822,-1605 816,-1605 810,-1599 810,-1593 810,-1593 810,-1581 810,-1581 810,-1575 816,-1569 822,-1569 822,-1569 878,-1569 878,-1569 884,-1569 890,-1575 890,-1581 890,-1581 890,-1593 890,-1593 890,-1599 884,-1605 878,-1605"/>
<text text-anchor="middle" x="850" y="-1583.5" font-family="SF Pro Text Bold 10" font-size="15.00" fill="#000000">label %6</text>
</g>
<!-- u0x646e8a186bd0&#45;&gt;n0x646e8a186bf0 -->
<g id="edge34" class="edge">
<title>u0x646e8a186bd0&#45;&gt;n0x646e8a186bf0</title>
<path fill="none" stroke="#00b3ff" stroke-width="2" d="M834.39,-1568.87C819.59,-1552.62 797.19,-1528.02 780.46,-1509.66"/>
<polygon fill="#00b3ff" stroke="#00b3ff" stroke-width="2" points="783,-1507.25 773.68,-1502.22 777.83,-1511.97 783,-1507.25"/>
<text text-anchor="middle" x="821" y="-1532" font-family="SF Pro Text Bold 10" font-size="15.00">%6</text>
</g>
<!-- n0x646e8a186b40 -->
<g id="node25" class="node">
<title>n0x646e8a186b40</title>
<path fill="#6d95df" stroke="#000000" d="M1079,-1296C1079,-1296 1049,-1296 1049,-1296 1043,-1296 1037,-1290 1037,-1284 1037,-1284 1037,-1272 1037,-1272 1037,-1266 1043,-1260 1049,-1260 1049,-1260 1079,-1260 1079,-1260 1085,-1260 1091,-1266 1091,-1272 1091,-1272 1091,-1284 1091,-1284 1091,-1290 1085,-1296 1079,-1296"/>
<text text-anchor="middle" x="1064" y="-1274.5" font-family="SF Pro Text Bold 10" font-size="15.00" fill="#000000">br</text>
</g>
<!-- n0x646e8a189880&#45;&gt;n0x646e8a186b40 -->
<g id="edge35" class="edge">
<title>n0x646e8a189880&#45;&gt;n0x646e8a186b40</title>
<path fill="none" stroke="#ff8800" stroke-width="5" d="M1144.55,-1362.87C1128.94,-1346.62 1105.32,-1322.02 1087.68,-1303.66"/>
<polygon fill="#ff8800" stroke="#ff8800" stroke-width="5" points="1090.62,-1300.4 1080.54,-1296.22 1084.31,-1306.46 1090.62,-1300.4"/>
</g>
<!-- n0x646e8a183768 -->
<g id="node60" class="node">
<title>n0x646e8a183768</title>
<path fill="#6d95df" stroke="#000000" d="M664,-163C664,-163 634,-163 634,-163 628,-163 622,-157 622,-151 622,-151 622,-139 622,-139 622,-133 628,-127 634,-127 634,-127 664,-127 664,-127 670,-127 676,-133 676,-139 676,-139 676,-151 676,-151 676,-157 670,-163 664,-163"/>
<text text-anchor="middle" x="649" y="-141.5" font-family="SF Pro Text Bold 10" font-size="15.00" fill="#000000">phi</text>
</g>
<!-- n0x646e8a186b40&#45;&gt;n0x646e8a183768 -->
<g id="edge84" class="edge">
<title>n0x646e8a186b40&#45;&gt;n0x646e8a183768</title>
<path fill="none" stroke="#ff8800" stroke-width="5" d="M1036.96,-1273.17C989.92,-1264.81 898,-1240.26 898,-1176 898,-1176 898,-1176 898,-247 898,-201.85 755.65,-167.24 686.21,-153.04"/>
<polygon fill="#ff8800" stroke="#ff8800" stroke-width="5" points="686.79,-148.69 676.12,-151.01 685.07,-157.27 686.79,-148.69"/>
<text text-anchor="middle" x="916" y="-708" font-family="SF Pro Text Bold 10" font-size="15.00">i32 1</text>
</g>
<!-- u0x646e8a189840 -->
<g id="node26" class="node">
<title>u0x646e8a189840</title>
<path fill="#db4040" stroke="#000000" d="M1216,-1502C1216,-1502 1148,-1502 1148,-1502 1142,-1502 1136,-1496 1136,-1490 1136,-1490 1136,-1478 1136,-1478 1136,-1472 1142,-1466 1148,-1466 1148,-1466 1216,-1466 1216,-1466 1222,-1466 1228,-1472 1228,-1478 1228,-1478 1228,-1490 1228,-1490 1228,-1496 1222,-1502 1216,-1502"/>
<text text-anchor="middle" x="1182" y="-1480.5" font-family="SF Pro Text Bold 10" font-size="15.00" fill="#000000">ptr @str.2</text>
</g>
<!-- u0x646e8a189840&#45;&gt;n0x646e8a189880 -->
<g id="edge36" class="edge">
<title>u0x646e8a189840&#45;&gt;n0x646e8a189880</title>
<path fill="none" stroke="#00b3ff" stroke-width="2" d="M1178.44,-1465.87C1175.21,-1450.34 1170.4,-1427.2 1166.65,-1409.16"/>
<polygon fill="#00b3ff" stroke="#00b3ff" stroke-width="2" points="1170.04,-1408.3 1164.58,-1399.22 1163.19,-1409.72 1170.04,-1408.3"/>
</g>
<!-- u0x646e8a189860 -->
<g id="node27" class="node">
<title>u0x646e8a189860</title>
<path fill="#db4040" stroke="#000000" d="M1098.5,-1502C1098.5,-1502 1031.5,-1502 1031.5,-1502 1025.5,-1502 1019.5,-1496 1019.5,-1490 1019.5,-1490 1019.5,-1478 1019.5,-1478 1019.5,-1472 1025.5,-1466 1031.5,-1466 1031.5,-1466 1098.5,-1466 1098.5,-1466 1104.5,-1466 1110.5,-1472 1110.5,-1478 1110.5,-1478 1110.5,-1490 1110.5,-1490 1110.5,-1496 1104.5,-1502 1098.5,-1502"/>
<text text-anchor="middle" x="1065" y="-1480.5" font-family="SF Pro Text Bold 10" font-size="15.00" fill="#000000">ptr @puts</text>
</g>
<!-- u0x646e8a189860&#45;&gt;n0x646e8a189880 -->
<g id="edge37" class="edge">
<title>u0x646e8a189860&#45;&gt;n0x646e8a189880</title>
<path fill="none" stroke="#00b3ff" stroke-width="2" d="M1081.29,-1465.87C1096.73,-1449.62 1120.11,-1425.02 1137.56,-1406.66"/>
<polygon fill="#00b3ff" stroke="#00b3ff" stroke-width="2" points="1140.28,-1408.88 1144.64,-1399.22 1135.21,-1404.05 1140.28,-1408.88"/>
</g>
<!-- u0x646e8a186b20 -->
<g id="node28" class="node">
<title>u0x646e8a186b20</title>
<path fill="#db4040" stroke="#000000" d="M1097,-1399C1097,-1399 1031,-1399 1031,-1399 1025,-1399 1019,-1393 1019,-1387 1019,-1387 1019,-1375 1019,-1375 1019,-1369 1025,-1363 1031,-1363 1031,-1363 1097,-1363 1097,-1363 1103,-1363 1109,-1369 1109,-1375 1109,-1375 1109,-1387 1109,-1387 1109,-1393 1103,-1399 1097,-1399"/>
<text text-anchor="middle" x="1064" y="-1377.5" font-family="SF Pro Text Bold 10" font-size="15.00" fill="#000000">label %20</text>
</g>
<!-- u0x646e8a186b20&#45;&gt;n0x646e8a186b40 -->
<g id="edge38" class="edge">
<title>u0x646e8a186b20&#45;&gt;n0x646e8a186b40</title>
<path fill="none" stroke="#00b3ff" stroke-width="2" d="M1064,-1362.87C1064,-1347.41 1064,-1324.42 1064,-1306.41"/>
<polygon fill="#00b3ff" stroke="#00b3ff" stroke-width="2" points="1067.5,-1306.22 1064,-1296.22 1060.5,-1306.22 1067.5,-1306.22"/>
<text text-anchor="middle" x="1081" y="-1326" font-family="SF Pro Text Bold 10" font-size="15.00">%20</text>
</g>
<!-- n0x646e8a189360 -->
<g id="node30" class="node">
<title>n0x646e8a189360</title>
<path fill="#6d95df" stroke="#000000" d="M614,-1296C614,-1296 584,-1296 584,-1296 578,-1296 572,-1290 572,-1284 572,-1284 572,-1272 572,-1272 572,-1266 578,-1260 584,-1260 584,-1260 614,-1260 614,-1260 620,-1260 626,-1266 626,-1272 626,-1272 626,-1284 626,-1284 626,-1290 620,-1296 614,-1296"/>
<text text-anchor="middle" x="599" y="-1274.5" font-family="SF Pro Text Bold 10" font-size="15.00" fill="#000000">load</text>
</g>
<!-- n0x646e8a1892e0&#45;&gt;n0x646e8a189360 -->
<g id="edge39" class="edge">
<title>n0x646e8a1892e0&#45;&gt;n0x646e8a189360</title>
<path fill="none" stroke="#ff8800" stroke-width="5" d="M613.67,-1362.91C610.04,-1355.47 606.22,-1346.52 604,-1338 601.36,-1327.85 600.03,-1316.41 599.38,-1306.33"/>
<polygon fill="#ff8800" stroke="#ff8800" stroke-width="5" points="603.74,-1305.84 598.92,-1296.04 595,-1306.23 603.74,-1305.84"/>
</g>
<!-- n0x646e8a1892e0&#45;&gt;n0x646e8a189360 -->
<g id="edge42" class="edge">
<title>n0x646e8a1892e0&#45;&gt;n0x646e8a189360</title>
<path fill="none" stroke="#00b3ff" stroke-width="2" d="M618.93,-1362.87C615.24,-1347.34 609.74,-1324.2 605.45,-1306.16"/>
<polygon fill="#00b3ff" stroke="#00b3ff" stroke-width="2" points="608.81,-1305.14 603.09,-1296.22 602,-1306.76 608.81,-1305.14"/>
<text text-anchor="middle" x="623" y="-1326" font-family="SF Pro Text Bold 10" font-size="15.00">%7</text>
</g>
<!-- n0x646e8a189400 -->
<g id="node31" class="node">
<title>n0x646e8a189400</title>
<path fill="#6d95df" stroke="#000000" d="M695,-1193C695,-1193 665,-1193 665,-1193 659,-1193 653,-1187 653,-1181 653,-1181 653,-1169 653,-1169 653,-1163 659,-1157 665,-1157 665,-1157 695,-1157 695,-1157 701,-1157 707,-1163 707,-1169 707,-1169 707,-1181 707,-1181 707,-1187 701,-1193 695,-1193"/>
<text text-anchor="middle" x="680" y="-1171.5" font-family="SF Pro Text Bold 10" font-size="15.00" fill="#000000">icmp</text>
</g>
<!-- n0x646e8a189360&#45;&gt;n0x646e8a189400 -->
<g id="edge40" class="edge">
<title>n0x646e8a189360&#45;&gt;n0x646e8a189400</title>
<path fill="none" stroke="#ff8800" stroke-width="5" d="M617.29,-1259.67C624.66,-1252.33 633.04,-1243.53 640,-1235 648.56,-1224.51 657.11,-1212.22 664.09,-1201.57"/>
<polygon fill="#ff8800" stroke="#ff8800" stroke-width="5" points="667.81,-1203.87 669.55,-1193.1 660.46,-1199.13 667.81,-1203.87"/>
</g>
<!-- n0x646e8a189360&#45;&gt;n0x646e8a189400 -->
<g id="edge44" class="edge">
<title>n0x646e8a189360&#45;&gt;n0x646e8a189400</title>
<path fill="none" stroke="#00b3ff" stroke-width="2" d="M598.57,-1259.81C599.06,-1247.21 601.5,-1230.24 610,-1218 614.62,-1211.35 629.07,-1202.27 643.64,-1194.25"/>
<polygon fill="#00b3ff" stroke="#00b3ff" stroke-width="2" points="645.49,-1197.23 652.65,-1189.43 642.18,-1191.06 645.49,-1197.23"/>
<text text-anchor="middle" x="622" y="-1223" font-family="SF Pro Text Bold 10" font-size="15.00">%8</text>
</g>
<!-- n0x646e8a189520 -->
<g id="node32" class="node">
<title>n0x646e8a189520</title>
<path fill="#6d95df" stroke="#000000" d="M664,-1090C664,-1090 634,-1090 634,-1090 628,-1090 622,-1084 622,-1078 622,-1078 622,-1066 622,-1066 622,-1060 628,-1054 634,-1054 634,-1054 664,-1054 664,-1054 670,-1054 676,-1060 676,-1066 676,-1066 676,-1078 676,-1078 676,-1084 670,-1090 664,-1090"/>
<text text-anchor="middle" x="649" y="-1068.5" font-family="SF Pro Text Bold 10" font-size="15.00" fill="#000000">br</text>
</g>
<!-- n0x646e8a189400&#45;&gt;n0x646e8a189520 -->
<g id="edge41" class="edge">
<title>n0x646e8a189400&#45;&gt;n0x646e8a189520</title>
<path fill="none" stroke="#ff8800" stroke-width="5" d="M666.89,-1156.94C661.99,-1149.64 656.91,-1140.79 654,-1132 650.67,-1121.93 649.21,-1110.4 648.66,-1100.21"/>
<polygon fill="#ff8800" stroke="#ff8800" stroke-width="5" points="653.03,-1100.07 648.37,-1090.21 644.28,-1100.33 653.03,-1100.07"/>
</g>
<!-- n0x646e8a189400&#45;&gt;n0x646e8a189520 -->
<g id="edge45" class="edge">
<title>n0x646e8a189400&#45;&gt;n0x646e8a189520</title>
<path fill="none" stroke="#00b3ff" stroke-width="2" d="M674.74,-1156.87C669.95,-1141.27 662.81,-1117.98 657.26,-1099.9"/>
<polygon fill="#00b3ff" stroke="#00b3ff" stroke-width="2" points="660.56,-1098.75 654.28,-1090.22 653.87,-1100.8 660.56,-1098.75"/>
<text text-anchor="middle" x="678" y="-1120" font-family="SF Pro Text Bold 10" font-size="15.00">%9</text>
</g>
<!-- n0x646e8a188710 -->
<g id="node37" class="node">
<title>n0x646e8a188710</title>
<path fill="#6d95df" stroke="#000000" d="M325.5,-987C325.5,-987 224.5,-987 224.5,-987 218.5,-987 212.5,-981 212.5,-975 212.5,-975 212.5,-963 212.5,-963 212.5,-957 218.5,-951 224.5,-951 224.5,-951 325.5,-951 325.5,-951 331.5,-951 337.5,-957 337.5,-963 337.5,-963 337.5,-975 337.5,-975 337.5,-981 331.5,-987 325.5,-987"/>
<text text-anchor="middle" x="275" y="-965.5" font-family="SF Pro Text Bold 10" font-size="15.00" fill="#000000">getelementptr</text>
</g>
<!-- n0x646e8a189520&#45;&gt;n0x646e8a188710 -->
<g id="edge82" class="edge">
<title>n0x646e8a189520&#45;&gt;n0x646e8a188710</title>
<path fill="none" stroke="#ff8800" stroke-width="5" d="M621.8,-1063.65C564.81,-1048.26 431.2,-1012.18 347.45,-989.57"/>
<polygon fill="#ff8800" stroke="#ff8800" stroke-width="5" points="348.54,-985.33 337.75,-986.95 346.26,-993.78 348.54,-985.33"/>
</g>
<!-- n0x646e8a187900 -->
<g id="node55" class="node">
<title>n0x646e8a187900</title>
<path fill="#6d95df" stroke="#000000" d="M664,-369C664,-369 634,-369 634,-369 628,-369 622,-363 622,-357 622,-357 622,-345 622,-345 622,-339 628,-333 634,-333 634,-333 664,-333 664,-333 670,-333 676,-339 676,-345 676,-345 676,-357 676,-357 676,-363 670,-369 664,-369"/>
<text text-anchor="middle" x="649" y="-347.5" font-family="SF Pro Text Bold 10" font-size="15.00" fill="#000000">call</text>
</g>
<!-- n0x646e8a189520&#45;&gt;n0x646e8a187900 -->
<g id="edge83" class="edge">
<title>n0x646e8a189520&#45;&gt;n0x646e8a187900</title>
<path fill="none" stroke="#ff8800" stroke-width="5" d="M649,-1053.84C649,-1033.75 649,-999.46 649,-970 649,-970 649,-970 649,-453 649,-428.03 649,-399.59 649,-379.26"/>
<polygon fill="#ff8800" stroke="#ff8800" stroke-width="5" points="653.38,-379.16 649,-369.16 644.63,-379.16 653.38,-379.16"/>
</g>
<!-- u0x646e8a1892c0 -->
<g id="node33" class="node">
<title>u0x646e8a1892c0</title>
<path fill="#db4040" stroke="#000000" d="M693.5,-1502C693.5,-1502 538.5,-1502 538.5,-1502 532.5,-1502 526.5,-1496 526.5,-1490 526.5,-1490 526.5,-1478 526.5,-1478 526.5,-1472 532.5,-1466 538.5,-1466 538.5,-1466 693.5,-1466 693.5,-1466 699.5,-1466 705.5,-1472 705.5,-1478 705.5,-1478 705.5,-1490 705.5,-1490 705.5,-1496 699.5,-1502 693.5,-1502"/>
<text text-anchor="middle" x="616" y="-1480.5" font-family="SF Pro Text Bold 10" font-size="15.00" fill="#000000">ptr @__errno_location</text>
</g>
<!-- u0x646e8a1892c0&#45;&gt;n0x646e8a1892e0 -->
<g id="edge43" class="edge">
<title>u0x646e8a1892c0&#45;&gt;n0x646e8a1892e0</title>
<path fill="none" stroke="#00b3ff" stroke-width="2" d="M617.19,-1465.87C618.26,-1450.41 619.85,-1427.42 621.1,-1409.41"/>
<polygon fill="#00b3ff" stroke="#00b3ff" stroke-width="2" points="624.61,-1409.44 621.81,-1399.22 617.62,-1408.95 624.61,-1409.44"/>
</g>
<!-- u0x646e8a1893e0 -->
<g id="node34" class="node">
<title>u0x646e8a1893e0</title>
<path fill="#db4040" stroke="#000000" d="M694.5,-1296C694.5,-1296 663.5,-1296 663.5,-1296 657.5,-1296 651.5,-1290 651.5,-1284 651.5,-1284 651.5,-1272 651.5,-1272 651.5,-1266 657.5,-1260 663.5,-1260 663.5,-1260 694.5,-1260 694.5,-1260 700.5,-1260 706.5,-1266 706.5,-1272 706.5,-1272 706.5,-1284 706.5,-1284 706.5,-1290 700.5,-1296 694.5,-1296"/>
<text text-anchor="middle" x="679" y="-1274.5" font-family="SF Pro Text Bold 10" font-size="15.00" fill="#000000">i32 0</text>
</g>
<!-- u0x646e8a1893e0&#45;&gt;n0x646e8a189400 -->
<g id="edge46" class="edge">
<title>u0x646e8a1893e0&#45;&gt;n0x646e8a189400</title>
<path fill="none" stroke="#00b3ff" stroke-width="2" d="M679.17,-1259.87C679.32,-1244.41 679.55,-1221.42 679.73,-1203.41"/>
<polygon fill="#00b3ff" stroke="#00b3ff" stroke-width="2" points="683.23,-1203.25 679.83,-1193.22 676.23,-1203.18 683.23,-1203.25"/>
</g>
<!-- u0x646e8a1894e0 -->
<g id="node35" class="node">
<title>u0x646e8a1894e0</title>
<path fill="#db4040" stroke="#000000" d="M616,-1193C616,-1193 552,-1193 552,-1193 546,-1193 540,-1187 540,-1181 540,-1181 540,-1169 540,-1169 540,-1163 546,-1157 552,-1157 552,-1157 616,-1157 616,-1157 622,-1157 628,-1163 628,-1169 628,-1169 628,-1181 628,-1181 628,-1187 622,-1193 616,-1193"/>
<text text-anchor="middle" x="584" y="-1171.5" font-family="SF Pro Text Bold 10" font-size="15.00" fill="#000000">label %18</text>
</g>
<!-- u0x646e8a1894e0&#45;&gt;n0x646e8a189520 -->
<g id="edge47" class="edge">
<title>u0x646e8a1894e0&#45;&gt;n0x646e8a189520</title>
<path fill="none" stroke="#00b3ff" stroke-width="2" d="M591.05,-1156.85C596.36,-1144.74 604.21,-1128.34 613,-1115 616.83,-1109.18 621.39,-1103.29 625.94,-1097.83"/>
<polygon fill="#00b3ff" stroke="#00b3ff" stroke-width="2" points="628.65,-1100.05 632.54,-1090.2 623.35,-1095.47 628.65,-1100.05"/>
<text text-anchor="middle" x="628.5" y="-1120" font-family="SF Pro Text Bold 10" font-size="15.00">%18</text>
</g>
<!-- u0x646e8a189500 -->
<g id="node36" class="node">
<title>u0x646e8a189500</title>
<path fill="#db4040" stroke="#000000" d="M503,-1193C503,-1193 439,-1193 439,-1193 433,-1193 427,-1187 427,-1181 427,-1181 427,-1169 427,-1169 427,-1163 433,-1157 439,-1157 439,-1157 503,-1157 503,-1157 509,-1157 515,-1163 515,-1169 515,-1169 515,-1181 515,-1181 515,-1187 509,-1193 503,-1193"/>
<text text-anchor="middle" x="471" y="-1171.5" font-family="SF Pro Text Bold 10" font-size="15.00" fill="#000000">label %10</text>
</g>
<!-- u0x646e8a189500&#45;&gt;n0x646e8a189520 -->
<g id="edge48" class="edge">
<title>u0x646e8a189500&#45;&gt;n0x646e8a189520</title>
<path fill="none" stroke="#00b3ff" stroke-width="2" d="M497.25,-1156.84C516.12,-1144.72 542.31,-1128.32 566,-1115 581.01,-1106.56 597.92,-1097.86 612.54,-1090.59"/>
<polygon fill="#00b3ff" stroke="#00b3ff" stroke-width="2" points="614.36,-1093.6 621.77,-1086.03 611.26,-1087.32 614.36,-1093.6"/>
<text text-anchor="middle" x="581.5" y="-1120" font-family="SF Pro Text Bold 10" font-size="15.00">%10</text>
</g>
<!-- n0x646e8a188790 -->
<g id="node38" class="node">
<title>n0x646e8a188790</title>
<path fill="#6d95df" stroke="#000000" d="M259,-884C259,-884 229,-884 229,-884 223,-884 217,-878 217,-872 217,-872 217,-860 217,-860 217,-854 223,-848 229,-848 229,-848 259,-848 259,-848 265,-848 271,-854 271,-860 271,-860 271,-872 271,-872 271,-878 265,-884 259,-884"/>
<text text-anchor="middle" x="244" y="-862.5" font-family="SF Pro Text Bold 10" font-size="15.00" fill="#000000">load</text>
</g>
<!-- n0x646e8a188710&#45;&gt;n0x646e8a188790 -->
<g id="edge49" class="edge">
<title>n0x646e8a188710&#45;&gt;n0x646e8a188790</title>
<path fill="none" stroke="#ff8800" stroke-width="5" d="M261.89,-950.94C256.99,-943.64 251.91,-934.79 249,-926 245.67,-915.93 244.21,-904.4 243.66,-894.21"/>
<polygon fill="#ff8800" stroke="#ff8800" stroke-width="5" points="248.03,-894.07 243.37,-884.21 239.28,-894.33 248.03,-894.07"/>
</g>
<!-- n0x646e8a188710&#45;&gt;n0x646e8a188790 -->
<g id="edge56" class="edge">
<title>n0x646e8a188710&#45;&gt;n0x646e8a188790</title>
<path fill="none" stroke="#00b3ff" stroke-width="2" d="M269.74,-950.87C264.95,-935.27 257.81,-911.98 252.26,-893.9"/>
<polygon fill="#00b3ff" stroke="#00b3ff" stroke-width="2" points="255.56,-892.75 249.28,-884.22 248.87,-894.8 255.56,-892.75"/>
<text text-anchor="middle" x="275" y="-914" font-family="SF Pro Text Bold 10" font-size="15.00">%11</text>
</g>
<!-- n0x646e8a12ab90 -->
<g id="node39" class="node">
<title>n0x646e8a12ab90</title>
<path fill="#6d95df" stroke="#000000" d="M218,-781C218,-781 188,-781 188,-781 182,-781 176,-775 176,-769 176,-769 176,-757 176,-757 176,-751 182,-745 188,-745 188,-745 218,-745 218,-745 224,-745 230,-751 230,-757 230,-757 230,-769 230,-769 230,-775 224,-781 218,-781"/>
<text text-anchor="middle" x="203" y="-759.5" font-family="SF Pro Text Bold 10" font-size="15.00" fill="#000000">call</text>
</g>
<!-- n0x646e8a188790&#45;&gt;n0x646e8a12ab90 -->
<g id="edge50" class="edge">
<title>n0x646e8a188790&#45;&gt;n0x646e8a12ab90</title>
<path fill="none" stroke="#ff8800" stroke-width="5" d="M227.82,-847.85C221.93,-840.68 215.79,-831.95 212,-823 207.8,-813.09 205.52,-801.5 204.3,-791.24"/>
<polygon fill="#ff8800" stroke="#ff8800" stroke-width="5" points="208.65,-790.7 203.38,-781.14 199.93,-791.5 208.65,-790.7"/>
</g>
<!-- n0x646e8a188790&#45;&gt;n0x646e8a12ab90 -->
<g id="edge59" class="edge">
<title>n0x646e8a188790&#45;&gt;n0x646e8a12ab90</title>
<path fill="none" stroke="#00b3ff" stroke-width="2" d="M237.04,-847.87C230.68,-832.2 221.17,-808.77 213.82,-790.65"/>
<polygon fill="#00b3ff" stroke="#00b3ff" stroke-width="2" points="216.99,-789.17 209.99,-781.22 210.51,-791.8 216.99,-789.17"/>
<text text-anchor="middle" x="240.5" y="-811" font-family="SF Pro Text Bold 10" font-size="15.00">%12</text>
</g>
<!-- n0x646e89fdf400 -->
<g id="node40" class="node">
<title>n0x646e89fdf400</title>
<path fill="#6d95df" stroke="#000000" d="M182,-678C182,-678 152,-678 152,-678 146,-678 140,-672 140,-666 140,-666 140,-654 140,-654 140,-648 146,-642 152,-642 152,-642 182,-642 182,-642 188,-642 194,-648 194,-654 194,-654 194,-666 194,-666 194,-672 188,-678 182,-678"/>
<text text-anchor="middle" x="167" y="-656.5" font-family="SF Pro Text Bold 10" font-size="15.00" fill="#000000">shl</text>
</g>
<!-- n0x646e8a12ab90&#45;&gt;n0x646e89fdf400 -->
<g id="edge51" class="edge">
<title>n0x646e8a12ab90&#45;&gt;n0x646e89fdf400</title>
<path fill="none" stroke="#ff8800" stroke-width="5" d="M187.03,-744.9C181.28,-737.74 175.39,-728.99 172,-720 168.24,-710 166.7,-698.4 166.21,-688.15"/>
<polygon fill="#ff8800" stroke="#ff8800" stroke-width="5" points="170.58,-687.99 166.03,-678.07 161.84,-688.15 170.58,-687.99"/>
</g>
<!-- n0x646e8a12ab90&#45;&gt;n0x646e89fdf400 -->
<g id="edge60" class="edge">
<title>n0x646e8a12ab90&#45;&gt;n0x646e89fdf400</title>
<path fill="none" stroke="#00b3ff" stroke-width="2" d="M196.89,-744.87C191.31,-729.2 182.96,-705.77 176.5,-687.65"/>
<polygon fill="#00b3ff" stroke="#00b3ff" stroke-width="2" points="179.79,-686.46 173.14,-678.22 173.2,-688.81 179.79,-686.46"/>
<text text-anchor="middle" x="202.5" y="-708" font-family="SF Pro Text Bold 10" font-size="15.00">%13</text>
</g>
<!-- n0x646e8a151390 -->
<g id="node41" class="node">
<title>n0x646e8a151390</title>
<path fill="#6d95df" stroke="#000000" d="M148,-575C148,-575 118,-575 118,-575 112,-575 106,-569 106,-563 106,-563 106,-551 106,-551 106,-545 112,-539 118,-539 118,-539 148,-539 148,-539 154,-539 160,-545 160,-551 160,-551 160,-563 160,-563 160,-569 154,-575 148,-575"/>
<text text-anchor="middle" x="133" y="-553.5" font-family="SF Pro Text Bold 10" font-size="15.00" fill="#000000">ashr</text>
</g>
<!-- n0x646e89fdf400&#45;&gt;n0x646e8a151390 -->
<g id="edge52" class="edge">
<title>n0x646e89fdf400&#45;&gt;n0x646e8a151390</title>
<path fill="none" stroke="#ff8800" stroke-width="5" d="M152.07,-641.75C146.69,-634.56 141.17,-625.84 138,-617 134.39,-606.95 132.89,-595.33 132.38,-585.08"/>
<polygon fill="#ff8800" stroke="#ff8800" stroke-width="5" points="136.75,-584.92 132.16,-575.02 128,-585.11 136.75,-584.92"/>
</g>
<!-- n0x646e89fdf400&#45;&gt;n0x646e8a151390 -->
<g id="edge64" class="edge">
<title>n0x646e89fdf400&#45;&gt;n0x646e8a151390</title>
<path fill="none" stroke="#00b3ff" stroke-width="2" d="M161.23,-641.87C155.98,-626.27 148.14,-602.98 142.06,-584.9"/>
<polygon fill="#00b3ff" stroke="#00b3ff" stroke-width="2" points="145.3,-583.58 138.8,-575.22 138.67,-585.81 145.3,-583.58"/>
<text text-anchor="middle" x="168.5" y="-605" font-family="SF Pro Text Bold 10" font-size="15.00">%14</text>
</g>
<!-- n0x646e8a189760 -->
<g id="node42" class="node">
<title>n0x646e8a189760</title>
<path fill="#6d95df" stroke="#000000" d="M147,-472C147,-472 117,-472 117,-472 111,-472 105,-466 105,-460 105,-460 105,-448 105,-448 105,-442 111,-436 117,-436 117,-436 147,-436 147,-436 153,-436 159,-442 159,-448 159,-448 159,-460 159,-460 159,-466 153,-472 147,-472"/>
<text text-anchor="middle" x="132" y="-450.5" font-family="SF Pro Text Bold 10" font-size="15.00" fill="#000000">call</text>
</g>
<!-- n0x646e8a151390&#45;&gt;n0x646e8a189760 -->
<g id="edge53" class="edge">
<title>n0x646e8a151390&#45;&gt;n0x646e8a189760</title>
<path fill="none" stroke="#ff8800" stroke-width="5" d="M132.83,-538.87C132.68,-523.41 132.45,-500.42 132.27,-482.41"/>
<polygon fill="#ff8800" stroke="#ff8800" stroke-width="5" points="136.64,-482.17 132.17,-472.22 127.89,-482.26 136.64,-482.17"/>
</g>
<!-- n0x646e8a151390&#45;&gt;n0x646e8a189760 -->
<g id="edge66" class="edge">
<title>n0x646e8a151390&#45;&gt;n0x646e8a189760</title>
<path fill="none" stroke="#00b3ff" stroke-width="2" d="M133.66,-538.96C134.02,-527.17 134.34,-511.13 134,-497 133.89,-492.27 133.7,-487.25 133.49,-482.39"/>
<polygon fill="#00b3ff" stroke="#00b3ff" stroke-width="2" points="136.98,-481.98 133,-472.16 129.99,-482.31 136.98,-481.98"/>
<text text-anchor="middle" x="150.5" y="-502" font-family="SF Pro Text Bold 10" font-size="15.00">%15</text>
</g>
<!-- n0x646e8a027eb0 -->
<g id="node43" class="node">
<title>n0x646e8a027eb0</title>
<path fill="#6d95df" stroke="#000000" d="M230,-369C230,-369 200,-369 200,-369 194,-369 188,-363 188,-357 188,-357 188,-345 188,-345 188,-339 194,-333 200,-333 200,-333 230,-333 230,-333 236,-333 242,-339 242,-345 242,-345 242,-357 242,-357 242,-363 236,-369 230,-369"/>
<text text-anchor="middle" x="215" y="-347.5" font-family="SF Pro Text Bold 10" font-size="15.00" fill="#000000">call</text>
</g>
<!-- n0x646e8a151390&#45;&gt;n0x646e8a027eb0 -->
<g id="edge67" class="edge">
<title>n0x646e8a151390&#45;&gt;n0x646e8a027eb0</title>
<path fill="none" stroke="#00b3ff" stroke-width="2" d="M109.79,-538.76C81.7,-515.66 40.54,-473.27 61,-436 77.73,-405.52 96.59,-410.85 127,-394 143.43,-384.89 162.15,-375.79 178.09,-368.4"/>
<polygon fill="#00b3ff" stroke="#00b3ff" stroke-width="2" points="179.98,-371.38 187.61,-364.03 177.06,-365.02 179.98,-371.38"/>
<text text-anchor="middle" x="76.5" y="-450.5" font-family="SF Pro Text Bold 10" font-size="15.00">%15</text>
</g>
<!-- n0x646e8a189760&#45;&gt;n0x646e8a183e10 -->
<g id="edge70" class="edge">
<title>n0x646e8a189760&#45;&gt;n0x646e8a183e10</title>
<path fill="none" stroke="#ff8800" stroke-width="5" stroke-dasharray="5,2" d="M155.52,-472.22C160.45,-475.2 165.74,-477.98 171,-480 479.65,-598.31 590.4,-498.54 905,-600 1213.9,-699.63 1441.63,-714.11 1627.23,-826.74"/>
<polygon fill="#ff8800" stroke="#ff8800" stroke-width="5" points="1624.95,-830.47 1635.75,-832 1629.54,-823.03 1624.95,-830.47"/>
</g>
<!-- n0x646e8a189760&#45;&gt;n0x646e8a027eb0 -->
<g id="edge54" class="edge">
<title>n0x646e8a189760&#45;&gt;n0x646e8a027eb0</title>
<path fill="none" stroke="#ff8800" stroke-width="5" d="M151.78,-435.89C159.71,-428.59 168.68,-419.75 176,-411 184.61,-400.7 192.99,-388.43 199.75,-377.75"/>
<polygon fill="#ff8800" stroke="#ff8800" stroke-width="5" points="203.48,-380.05 205.03,-369.24 196.04,-375.44 203.48,-380.05"/>
</g>
<!-- n0x646e8a189760&#45;&gt;n0x646e8a027eb0 -->
<g id="edge69" class="edge">
<title>n0x646e8a189760&#45;&gt;n0x646e8a027eb0</title>
<path fill="none" stroke="#00b3ff" stroke-width="2" d="M130.08,-435.82C129.55,-423.22 130.77,-406.24 139,-394 144.15,-386.35 161.73,-376.42 178.69,-368.13"/>
<polygon fill="#00b3ff" stroke="#00b3ff" stroke-width="2" points="180.44,-371.18 187.97,-363.73 177.43,-364.86 180.44,-371.18"/>
<text text-anchor="middle" x="154.5" y="-399" font-family="SF Pro Text Bold 10" font-size="15.00">%16</text>
</g>
<!-- n0x646e8a189c40 -->
<g id="node44" class="node">
<title>n0x646e8a189c40</title>
<path fill="#6d95df" stroke="#000000" d="M230,-266C230,-266 200,-266 200,-266 194,-266 188,-260 188,-254 188,-254 188,-242 188,-242 188,-236 194,-230 200,-230 200,-230 230,-230 230,-230 236,-230 242,-236 242,-242 242,-242 242,-254 242,-254 242,-260 236,-266 230,-266"/>
<text text-anchor="middle" x="215" y="-244.5" font-family="SF Pro Text Bold 10" font-size="15.00" fill="#000000">br</text>
</g>
<!-- n0x646e8a027eb0&#45;&gt;n0x646e8a189c40 -->
<g id="edge55" class="edge">
<title>n0x646e8a027eb0&#45;&gt;n0x646e8a189c40</title>
<path fill="none" stroke="#ff8800" stroke-width="5" d="M215,-332.87C215,-317.41 215,-294.42 215,-276.41"/>
<polygon fill="#ff8800" stroke="#ff8800" stroke-width="5" points="219.38,-276.22 215,-266.22 210.63,-276.22 219.38,-276.22"/>
</g>
<!-- n0x646e8a189c40&#45;&gt;n0x646e8a183768 -->
<g id="edge85" class="edge">
<title>n0x646e8a189c40&#45;&gt;n0x646e8a183768</title>
<path fill="none" stroke="#ff8800" stroke-width="5" d="M242.15,-240.68C317.04,-223.25 526.67,-174.47 612.08,-154.59"/>
<polygon fill="#ff8800" stroke="#ff8800" stroke-width="5" points="613.11,-158.84 621.86,-152.32 611.13,-150.32 613.11,-158.84"/>
<text text-anchor="middle" x="476.5" y="-193" font-family="SF Pro Text Bold 10" font-size="15.00">i32 0</text>
</g>
<!-- u0x646e8a1886d0 -->
<g id="node45" class="node">
<title>u0x646e8a1886d0</title>
<path fill="#db4040" stroke="#000000" d="M335.5,-1090C335.5,-1090 296.5,-1090 296.5,-1090 290.5,-1090 284.5,-1084 284.5,-1078 284.5,-1078 284.5,-1066 284.5,-1066 284.5,-1060 290.5,-1054 296.5,-1054 296.5,-1054 335.5,-1054 335.5,-1054 341.5,-1054 347.5,-1060 347.5,-1066 347.5,-1066 347.5,-1078 347.5,-1078 347.5,-1084 341.5,-1090 335.5,-1090"/>
<text text-anchor="middle" x="316" y="-1068.5" font-family="SF Pro Text Bold 10" font-size="15.00" fill="#000000">ptr %1</text>
</g>
<!-- u0x646e8a1886d0&#45;&gt;n0x646e8a188710 -->
<g id="edge57" class="edge">
<title>u0x646e8a1886d0&#45;&gt;n0x646e8a188710</title>
<path fill="none" stroke="#00b3ff" stroke-width="2" d="M309.04,-1053.87C302.68,-1038.2 293.17,-1014.77 285.82,-996.65"/>
<polygon fill="#00b3ff" stroke="#00b3ff" stroke-width="2" points="288.99,-995.17 281.99,-987.22 282.51,-997.8 288.99,-995.17"/>
<text text-anchor="middle" x="307.5" y="-1017" font-family="SF Pro Text Bold 10" font-size="15.00">%1</text>
</g>
<!-- u0x646e8a1886f0 -->
<g id="node46" class="node">
<title>u0x646e8a1886f0</title>
<path fill="#db4040" stroke="#000000" d="M247,-1090C247,-1090 217,-1090 217,-1090 211,-1090 205,-1084 205,-1078 205,-1078 205,-1066 205,-1066 205,-1060 211,-1054 217,-1054 217,-1054 247,-1054 247,-1054 253,-1054 259,-1060 259,-1066 259,-1066 259,-1078 259,-1078 259,-1084 253,-1090 247,-1090"/>
<text text-anchor="middle" x="232" y="-1068.5" font-family="SF Pro Text Bold 10" font-size="15.00" fill="#000000">i64 1</text>
</g>
<!-- u0x646e8a1886f0&#45;&gt;n0x646e8a188710 -->
<g id="edge58" class="edge">
<title>u0x646e8a1886f0&#45;&gt;n0x646e8a188710</title>
<path fill="none" stroke="#00b3ff" stroke-width="2" d="M239.29,-1053.87C245.97,-1038.2 255.94,-1014.77 263.65,-996.65"/>
<polygon fill="#00b3ff" stroke="#00b3ff" stroke-width="2" points="266.97,-997.79 267.67,-987.22 260.53,-995.05 266.97,-997.79"/>
</g>
<!-- u0x646e8a12ab30 -->
<g id="node47" class="node">
<title>u0x646e8a12ab30</title>
<path fill="#db4040" stroke="#000000" d="M179.5,-884C179.5,-884 132.5,-884 132.5,-884 126.5,-884 120.5,-878 120.5,-872 120.5,-872 120.5,-860 120.5,-860 120.5,-854 126.5,-848 132.5,-848 132.5,-848 179.5,-848 179.5,-848 185.5,-848 191.5,-854 191.5,-860 191.5,-860 191.5,-872 191.5,-872 191.5,-878 185.5,-884 179.5,-884"/>
<text text-anchor="middle" x="156" y="-862.5" font-family="SF Pro Text Bold 10" font-size="15.00" fill="#000000">ptr null</text>
</g>
<!-- u0x646e8a12ab30&#45;&gt;n0x646e8a12ab90 -->
<g id="edge61" class="edge">
<title>u0x646e8a12ab30&#45;&gt;n0x646e8a12ab90</title>
<path fill="none" stroke="#00b3ff" stroke-width="2" d="M163.97,-847.87C171.27,-832.2 182.17,-808.77 190.6,-790.65"/>
<polygon fill="#00b3ff" stroke="#00b3ff" stroke-width="2" points="193.94,-791.76 194.99,-781.22 187.6,-788.81 193.94,-791.76"/>
</g>
<!-- u0x646e8a12ab50 -->
<g id="node48" class="node">
<title>u0x646e8a12ab50</title>
<path fill="#db4040" stroke="#000000" d="M83,-884C83,-884 45,-884 45,-884 39,-884 33,-878 33,-872 33,-872 33,-860 33,-860 33,-854 39,-848 45,-848 45,-848 83,-848 83,-848 89,-848 95,-854 95,-860 95,-860 95,-872 95,-872 95,-878 89,-884 83,-884"/>
<text text-anchor="middle" x="64" y="-862.5" font-family="SF Pro Text Bold 10" font-size="15.00" fill="#000000">i32 10</text>
</g>
<!-- u0x646e8a12ab50&#45;&gt;n0x646e8a12ab90 -->
<g id="edge62" class="edge">
<title>u0x646e8a12ab50&#45;&gt;n0x646e8a12ab90</title>
<path fill="none" stroke="#00b3ff" stroke-width="2" d="M86.76,-847.78C93.57,-842.67 101.07,-837.08 108,-832 128.53,-816.96 151.75,-800.33 170.1,-787.28"/>
<polygon fill="#00b3ff" stroke="#00b3ff" stroke-width="2" points="172.56,-789.82 178.68,-781.18 168.5,-784.12 172.56,-789.82"/>
</g>
<!-- u0x646e8a12ab70 -->
<g id="node49" class="node">
<title>u0x646e8a12ab70</title>
<path fill="#db4040" stroke="#000000" d="M382,-884C382,-884 308,-884 308,-884 302,-884 296,-878 296,-872 296,-872 296,-860 296,-860 296,-854 302,-848 308,-848 308,-848 382,-848 382,-848 388,-848 394,-854 394,-860 394,-860 394,-872 394,-872 394,-878 388,-884 382,-884"/>
<text text-anchor="middle" x="345" y="-862.5" font-family="SF Pro Text Bold 10" font-size="15.00" fill="#000000">ptr @strtol</text>
</g>
<!-- u0x646e8a12ab70&#45;&gt;n0x646e8a12ab90 -->
<g id="edge63" class="edge">
<title>u0x646e8a12ab70&#45;&gt;n0x646e8a12ab90</title>
<path fill="none" stroke="#00b3ff" stroke-width="2" d="M320.91,-847.87C297.45,-831.18 261.62,-805.7 235.62,-787.2"/>
<polygon fill="#00b3ff" stroke="#00b3ff" stroke-width="2" points="237.38,-784.16 227.21,-781.22 233.33,-789.87 237.38,-784.16"/>
</g>
<!-- u0x646e89fdf3e0 -->
<g id="node50" class="node">
<title>u0x646e89fdf3e0</title>
<path fill="#db4040" stroke="#000000" d="M138.5,-781C138.5,-781 97.5,-781 97.5,-781 91.5,-781 85.5,-775 85.5,-769 85.5,-769 85.5,-757 85.5,-757 85.5,-751 91.5,-745 97.5,-745 97.5,-745 138.5,-745 138.5,-745 144.5,-745 150.5,-751 150.5,-757 150.5,-757 150.5,-769 150.5,-769 150.5,-775 144.5,-781 138.5,-781"/>
<text text-anchor="middle" x="118" y="-759.5" font-family="SF Pro Text Bold 10" font-size="15.00" fill="#000000">i64 32</text>
</g>
<!-- u0x646e89fdf3e0&#45;&gt;n0x646e89fdf400 -->
<g id="edge65" class="edge">
<title>u0x646e89fdf3e0&#45;&gt;n0x646e89fdf400</title>
<path fill="none" stroke="#00b3ff" stroke-width="2" d="M126.31,-744.87C133.91,-729.2 145.28,-705.77 154.07,-687.65"/>
<polygon fill="#00b3ff" stroke="#00b3ff" stroke-width="2" points="157.43,-688.74 158.65,-678.22 151.13,-685.69 157.43,-688.74"/>
</g>
<!-- u0x646e8a151370 -->
<g id="node51" class="node">
<title>u0x646e8a151370</title>
<path fill="#db4040" stroke="#000000" d="M102.5,-678C102.5,-678 61.5,-678 61.5,-678 55.5,-678 49.5,-672 49.5,-666 49.5,-666 49.5,-654 49.5,-654 49.5,-648 55.5,-642 61.5,-642 61.5,-642 102.5,-642 102.5,-642 108.5,-642 114.5,-648 114.5,-654 114.5,-654 114.5,-666 114.5,-666 114.5,-672 108.5,-678 102.5,-678"/>
<text text-anchor="middle" x="82" y="-656.5" font-family="SF Pro Text Bold 10" font-size="15.00" fill="#000000">i64 32</text>
</g>
<!-- u0x646e8a151370&#45;&gt;n0x646e8a151390 -->
<g id="edge68" class="edge">
<title>u0x646e8a151370&#45;&gt;n0x646e8a151390</title>
<path fill="none" stroke="#00b3ff" stroke-width="2" d="M90.65,-641.87C98.64,-626.05 110.61,-602.33 119.8,-584.15"/>
<polygon fill="#00b3ff" stroke="#00b3ff" stroke-width="2" points="122.92,-585.72 124.31,-575.22 116.67,-582.57 122.92,-585.72"/>
</g>
<!-- u0x646e8a027e30 -->
<g id="node52" class="node">
<title>u0x646e8a027e30</title>
<path fill="#db4040" stroke="#000000" d="M391,-472C391,-472 321,-472 321,-472 315,-472 309,-466 309,-460 309,-460 309,-448 309,-448 309,-442 315,-436 321,-436 321,-436 391,-436 391,-436 397,-436 403,-442 403,-448 403,-448 403,-460 403,-460 403,-466 397,-472 391,-472"/>
<text text-anchor="middle" x="356" y="-450.5" font-family="SF Pro Text Bold 10" font-size="15.00" fill="#000000">ptr @.str.1</text>
</g>
<!-- u0x646e8a027e30&#45;&gt;n0x646e8a027eb0 -->
<g id="edge71" class="edge">
<title>u0x646e8a027e30&#45;&gt;n0x646e8a027eb0</title>
<path fill="none" stroke="#00b3ff" stroke-width="2" d="M332.08,-435.87C308.79,-419.18 273.21,-393.7 247.39,-375.2"/>
<polygon fill="#00b3ff" stroke="#00b3ff" stroke-width="2" points="249.2,-372.2 239.04,-369.22 245.13,-377.89 249.2,-372.2"/>
</g>
<!-- u0x646e8a027e90 -->
<g id="node53" class="node">
<title>u0x646e8a027e90</title>
<path fill="#db4040" stroke="#000000" d="M272,-472C272,-472 196,-472 196,-472 190,-472 184,-466 184,-460 184,-460 184,-448 184,-448 184,-442 190,-436 196,-436 196,-436 272,-436 272,-436 278,-436 284,-442 284,-448 284,-448 284,-460 284,-460 284,-466 278,-472 272,-472"/>
<text text-anchor="middle" x="234" y="-450.5" font-family="SF Pro Text Bold 10" font-size="15.00" fill="#000000">ptr @printf</text>
</g>
<!-- u0x646e8a027e90&#45;&gt;n0x646e8a027eb0 -->
<g id="edge72" class="edge">
<title>u0x646e8a027e90&#45;&gt;n0x646e8a027eb0</title>
<path fill="none" stroke="#00b3ff" stroke-width="2" d="M230.78,-435.87C227.86,-420.34 223.5,-397.2 220.11,-379.16"/>
<polygon fill="#00b3ff" stroke="#00b3ff" stroke-width="2" points="223.53,-378.4 218.24,-369.22 216.65,-379.69 223.53,-378.4"/>
</g>
<!-- u0x646e8a189c20 -->
<g id="node54" class="node">
<title>u0x646e8a189c20</title>
<path fill="#db4040" stroke="#000000" d="M151,-369C151,-369 85,-369 85,-369 79,-369 73,-363 73,-357 73,-357 73,-345 73,-345 73,-339 79,-333 85,-333 85,-333 151,-333 151,-333 157,-333 163,-339 163,-345 163,-345 163,-357 163,-357 163,-363 157,-369 151,-369"/>
<text text-anchor="middle" x="118" y="-347.5" font-family="SF Pro Text Bold 10" font-size="15.00" fill="#000000">label %20</text>
</g>
<!-- u0x646e8a189c20&#45;&gt;n0x646e8a189c40 -->
<g id="edge73" class="edge">
<title>u0x646e8a189c20&#45;&gt;n0x646e8a189c40</title>
<path fill="none" stroke="#00b3ff" stroke-width="2" d="M134.45,-332.87C150.06,-316.62 173.68,-292.02 191.32,-273.66"/>
<polygon fill="#00b3ff" stroke="#00b3ff" stroke-width="2" points="194.06,-275.85 198.46,-266.22 189.01,-271.01 194.06,-275.85"/>
<text text-anchor="middle" x="190" y="-296" font-family="SF Pro Text Bold 10" font-size="15.00">%20</text>
</g>
<!-- n0x646e8a1899a0 -->
<g id="node56" class="node">
<title>n0x646e8a1899a0</title>
<path fill="#6d95df" stroke="#000000" d="M664,-266C664,-266 634,-266 634,-266 628,-266 622,-260 622,-254 622,-254 622,-242 622,-242 622,-236 628,-230 634,-230 634,-230 664,-230 664,-230 670,-230 676,-236 676,-242 676,-242 676,-254 676,-254 676,-260 670,-266 664,-266"/>
<text text-anchor="middle" x="649" y="-244.5" font-family="SF Pro Text Bold 10" font-size="15.00" fill="#000000">br</text>
</g>
<!-- n0x646e8a187900&#45;&gt;n0x646e8a1899a0 -->
<g id="edge74" class="edge">
<title>n0x646e8a187900&#45;&gt;n0x646e8a1899a0</title>
<path fill="none" stroke="#ff8800" stroke-width="5" d="M649,-332.87C649,-317.41 649,-294.42 649,-276.41"/>
<polygon fill="#ff8800" stroke="#ff8800" stroke-width="5" points="653.38,-276.22 649,-266.22 644.63,-276.22 653.38,-276.22"/>
</g>
<!-- n0x646e8a1899a0&#45;&gt;n0x646e8a183768 -->
<g id="edge86" class="edge">
<title>n0x646e8a1899a0&#45;&gt;n0x646e8a183768</title>
<path fill="none" stroke="#ff8800" stroke-width="5" d="M649,-229.87C649,-214.41 649,-191.42 649,-173.41"/>
<polygon fill="#ff8800" stroke="#ff8800" stroke-width="5" points="653.38,-173.22 649,-163.22 644.63,-173.22 653.38,-173.22"/>
<text text-anchor="middle" x="667" y="-193" font-family="SF Pro Text Bold 10" font-size="15.00">i32 1</text>
</g>
<!-- u0x646e8a1878c0 -->
<g id="node57" class="node">
<title>u0x646e8a1878c0</title>
<path fill="#db4040" stroke="#000000" d="M611,-472C611,-472 557,-472 557,-472 551,-472 545,-466 545,-460 545,-460 545,-448 545,-448 545,-442 551,-436 557,-436 557,-436 611,-436 611,-436 617,-436 623,-442 623,-448 623,-448 623,-460 623,-460 623,-466 617,-472 611,-472"/>
<text text-anchor="middle" x="584" y="-450.5" font-family="SF Pro Text Bold 10" font-size="15.00" fill="#000000">ptr @str</text>
</g>
<!-- u0x646e8a1878c0&#45;&gt;n0x646e8a187900 -->
<g id="edge75" class="edge">
<title>u0x646e8a1878c0&#45;&gt;n0x646e8a187900</title>
<path fill="none" stroke="#00b3ff" stroke-width="2" d="M595.03,-435.87C605.3,-419.91 620.75,-395.9 632.49,-377.65"/>
<polygon fill="#00b3ff" stroke="#00b3ff" stroke-width="2" points="635.45,-379.52 637.92,-369.22 629.56,-375.73 635.45,-379.52"/>
</g>
<!-- u0x646e8a1878e0 -->
<g id="node58" class="node">
<title>u0x646e8a1878e0</title>
<path fill="#db4040" stroke="#000000" d="M507.5,-472C507.5,-472 440.5,-472 440.5,-472 434.5,-472 428.5,-466 428.5,-460 428.5,-460 428.5,-448 428.5,-448 428.5,-442 434.5,-436 440.5,-436 440.5,-436 507.5,-436 507.5,-436 513.5,-436 519.5,-442 519.5,-448 519.5,-448 519.5,-460 519.5,-460 519.5,-466 513.5,-472 507.5,-472"/>
<text text-anchor="middle" x="474" y="-450.5" font-family="SF Pro Text Bold 10" font-size="15.00" fill="#000000">ptr @puts</text>
</g>
<!-- u0x646e8a1878e0&#45;&gt;n0x646e8a187900 -->
<g id="edge76" class="edge">
<title>u0x646e8a1878e0&#45;&gt;n0x646e8a187900</title>
<path fill="none" stroke="#00b3ff" stroke-width="2" d="M503.69,-435.87C533.9,-418.43 580.77,-391.38 613.07,-372.74"/>
<polygon fill="#00b3ff" stroke="#00b3ff" stroke-width="2" points="614.85,-375.75 621.76,-367.72 611.35,-369.69 614.85,-375.75"/>
</g>
<!-- u0x646e8a189980 -->
<g id="node59" class="node">
<title>u0x646e8a189980</title>
<path fill="#db4040" stroke="#000000" d="M585,-369C585,-369 519,-369 519,-369 513,-369 507,-363 507,-357 507,-357 507,-345 507,-345 507,-339 513,-333 519,-333 519,-333 585,-333 585,-333 591,-333 597,-339 597,-345 597,-345 597,-357 597,-357 597,-363 591,-369 585,-369"/>
<text text-anchor="middle" x="552" y="-347.5" font-family="SF Pro Text Bold 10" font-size="15.00" fill="#000000">label %20</text>
</g>
<!-- u0x646e8a189980&#45;&gt;n0x646e8a1899a0 -->
<g id="edge77" class="edge">
<title>u0x646e8a189980&#45;&gt;n0x646e8a1899a0</title>
<path fill="none" stroke="#00b3ff" stroke-width="2" d="M568.45,-332.87C584.06,-316.62 607.68,-292.02 625.32,-273.66"/>
<polygon fill="#00b3ff" stroke="#00b3ff" stroke-width="2" points="628.06,-275.85 632.46,-266.22 623.01,-271.01 628.06,-275.85"/>
<text text-anchor="middle" x="623" y="-296" font-family="SF Pro Text Bold 10" font-size="15.00">%20</text>
</g>
<!-- n0x646e8a189f00 -->
<g id="node61" class="node">
<title>n0x646e8a189f00</title>
<path fill="#6d95df" stroke="#000000" d="M664,-60C664,-60 634,-60 634,-60 628,-60 622,-54 622,-48 622,-48 622,-36 622,-36 622,-30 628,-24 634,-24 634,-24 664,-24 664,-24 670,-24 676,-30 676,-36 676,-36 676,-48 676,-48 676,-54 670,-60 664,-60"/>
<text text-anchor="middle" x="649" y="-38.5" font-family="SF Pro Text Bold 10" font-size="15.00" fill="#000000">ret</text>
</g>
<!-- n0x646e8a183768&#45;&gt;n0x646e8a189f00 -->
<g id="edge78" class="edge">
<title>n0x646e8a183768&#45;&gt;n0x646e8a189f00</title>
<path fill="none" stroke="#ff8800" stroke-width="5" d="M649,-126.87C649,-111.41 649,-88.42 649,-70.41"/>
<polygon fill="#ff8800" stroke="#ff8800" stroke-width="5" points="653.38,-70.22 649,-60.22 644.63,-70.22 653.38,-70.22"/>
</g>
<!-- n0x646e8a183768&#45;&gt;n0x646e8a189f00 -->
<g id="edge79" class="edge">
<title>n0x646e8a183768&#45;&gt;n0x646e8a189f00</title>
<path fill="none" stroke="#00b3ff" stroke-width="2" d="M650.1,-126.96C650.73,-115.18 651.34,-99.14 651,-85 650.89,-80.27 650.7,-75.25 650.49,-70.39"/>
<polygon fill="#00b3ff" stroke="#00b3ff" stroke-width="2" points="653.98,-69.98 650,-60.16 646.99,-70.31 653.98,-69.98"/>
<text text-anchor="middle" x="666.5" y="-90" font-family="SF Pro Text Bold 10" font-size="15.00">%21</text>
</g>
</g>
</svg>
