<?xml version="1.0" encoding="UTF-8" standalone="no"?>
<!DOCTYPE svg PUBLIC "-//W3C//DTD SVG 1.1//EN"
 "http://www.w3.org/Graphics/SVG/1.1/DTD/svg11.dtd">
<!-- Generated by graphviz version 2.43.0 (0)
 -->
<!-- Title: /home/sevsol/Projects/4sem/lisitsyn/llvm&#45;ir&#45;dumper/wt/graph_serialization_v2/examples/calc/calc.c Pages: 1 -->
<svg width="2063pt" height="1473pt"
 viewBox="0.00 0.00 2063.03 1473.20" xmlns="http://www.w3.org/2000/svg" xmlns:xlink="http://www.w3.org/1999/xlink">
<g id="graph0" class="graph" transform="scale(1 1) rotate(0) translate(21.6 1451.6)">
<title>/home/sevsol/Projects/4sem/lisitsyn/llvm&#45;ir&#45;dumper/wt/graph_serialization_v2/examples/calc/calc.c</title>
<polygon fill="white" stroke="transparent" points="-21.6,21.6 -21.6,-1451.6 2041.43,-1451.6 2041.43,21.6 -21.6,21.6"/>
<g id="clust1" class="cluster">
<title>cluster_func_0</title>
<path fill="#e3e3e3" stroke="#000000" stroke-width="2" d="M1372,-8C1372,-8 1986,-8 1986,-8 1992,-8 1998,-14 1998,-20 1998,-20 1998,-1410 1998,-1410 1998,-1416 1992,-1422 1986,-1422 1986,-1422 1372,-1422 1372,-1422 1366,-1422 1360,-1416 1360,-1410 1360,-1410 1360,-20 1360,-20 1360,-14 1366,-8 1372,-8"/>
<text text-anchor="middle" x="1679" y="-1402" font-family="SF Pro Text Bold 10" font-size="20.00">main</text>
</g>
<g id="clust2" class="cluster">
<title>cluster_func_0_bb_0</title>
<path fill="#a4a4a4" stroke="#000000" stroke-width="2" d="M1380,-16C1380,-16 1978,-16 1978,-16 1984,-16 1990,-22 1990,-28 1990,-28 1990,-1372 1990,-1372 1990,-1378 1984,-1384 1978,-1384 1978,-1384 1380,-1384 1380,-1384 1374,-1384 1368,-1378 1368,-1372 1368,-1372 1368,-28 1368,-28 1368,-22 1374,-16 1380,-16"/>
<text text-anchor="middle" x="1679" y="-1368" font-family="SF Pro Text Bold 10" font-size="15.00">label %0</text>
</g>
<g id="clust4" class="cluster">
<title>cluster_func_2</title>
<path fill="#e3e3e3" stroke="#000000" stroke-width="2" d="M20,-8C20,-8 791,-8 791,-8 797,-8 803,-14 803,-20 803,-20 803,-1410 803,-1410 803,-1416 797,-1422 791,-1422 791,-1422 20,-1422 20,-1422 14,-1422 8,-1416 8,-1410 8,-1410 8,-20 8,-20 8,-14 14,-8 20,-8"/>
<text text-anchor="middle" x="405.5" y="-1402" font-family="SF Pro Text Bold 10" font-size="20.00">func</text>
</g>
<g id="clust5" class="cluster">
<title>cluster_func_2_bb_1</title>
<path fill="#a4a4a4" stroke="#000000" stroke-width="2" d="M28,-16C28,-16 783,-16 783,-16 789,-16 795,-22 795,-28 795,-28 795,-1372 795,-1372 795,-1378 789,-1384 783,-1384 783,-1384 28,-1384 28,-1384 22,-1384 16,-1378 16,-1372 16,-1372 16,-28 16,-28 16,-22 22,-16 28,-16"/>
<text text-anchor="middle" x="405.5" y="-1368" font-family="SF Pro Text Bold 10" font-size="15.00">label %2</text>
</g>
<!-- node_0 -->
<g id="node1" class="node">
<title>node_0</title>
<path fill="#6d95df" stroke="#000000" d="M1820,-1220C1820,-1220 1782,-1220 1782,-1220 1776,-1220 1770,-1214 1770,-1208 1770,-1208 1770,-1196 1770,-1196 1770,-1190 1776,-1184 1782,-1184 1782,-1184 1820,-1184 1820,-1184 1826,-1184 1832,-1190 1832,-1196 1832,-1196 1832,-1208 1832,-1208 1832,-1214 1826,-1220 1820,-1220"/>
<text text-anchor="middle" x="1801" y="-1198.5" font-family="SF Pro Text Bold 10" font-size="15.00" fill="#000000">alloca</text>
</g>
<!-- node_1 -->
<g id="node2" class="node">
<title>node_1</title>
<path fill="#6d95df" stroke="#000000" d="M1816.5,-1073C1816.5,-1073 1785.5,-1073 1785.5,-1073 1779.5,-1073 1773.5,-1067 1773.5,-1061 1773.5,-1061 1773.5,-1049 1773.5,-1049 1773.5,-1043 1779.5,-1037 1785.5,-1037 1785.5,-1037 1816.5,-1037 1816.5,-1037 1822.5,-1037 1828.5,-1043 1828.5,-1049 1828.5,-1049 1828.5,-1061 1828.5,-1061 1828.5,-1067 1822.5,-1073 1816.5,-1073"/>
<text text-anchor="middle" x="1801" y="-1051.5" font-family="SF Pro Text Bold 10" font-size="15.00" fill="#000000">store</text>
</g>
<!-- node_0&#45;&gt;node_1 -->
<g id="edge1" class="edge">
<title>node_0&#45;&gt;node_1</title>
<path fill="none" stroke="#ff3636" stroke-width="3" d="M1801,-1183.8C1801,-1158.94 1801,-1112.74 1801,-1083.23"/>
<polygon fill="#ff3636" stroke="#ff3636" stroke-width="3" points="1804.5,-1083.18 1801,-1073.18 1797.5,-1083.18 1804.5,-1083.18"/>
</g>
<!-- node_0&#45;&gt;node_1 -->
<g id="edge17" class="edge">
<title>node_0&#45;&gt;node_1</title>
<path fill="none" stroke="#00b3ff" stroke-width="2" d="M1801.68,-1183.89C1802.16,-1171 1802.75,-1152.89 1803,-1137 1803.28,-1119.06 1802.78,-1098.89 1802.22,-1083.16"/>
<polygon fill="#00b3ff" stroke="#00b3ff" stroke-width="2" points="1805.71,-1082.92 1801.82,-1073.06 1798.72,-1083.19 1805.71,-1082.92"/>
<text text-anchor="middle" x="1813.5" y="-1125" font-family="SF Pro Text Bold 10" font-size="15.00">%1</text>
</g>
<!-- node_2 -->
<g id="node3" class="node">
<title>node_2</title>
<path fill="#6d95df" stroke="#000000" d="M1816,-926C1816,-926 1786,-926 1786,-926 1780,-926 1774,-920 1774,-914 1774,-914 1774,-902 1774,-902 1774,-896 1780,-890 1786,-890 1786,-890 1816,-890 1816,-890 1822,-890 1828,-896 1828,-902 1828,-902 1828,-914 1828,-914 1828,-920 1822,-926 1816,-926"/>
<text text-anchor="middle" x="1801" y="-904.5" font-family="SF Pro Text Bold 10" font-size="15.00" fill="#000000">call</text>
</g>
<!-- node_1&#45;&gt;node_2 -->
<g id="edge2" class="edge">
<title>node_1&#45;&gt;node_2</title>
<path fill="none" stroke="#ff3636" stroke-width="3" d="M1801,-1036.8C1801,-1011.94 1801,-965.74 1801,-936.23"/>
<polygon fill="#ff3636" stroke="#ff3636" stroke-width="3" points="1804.5,-936.18 1801,-926.18 1797.5,-936.18 1804.5,-936.18"/>
</g>
<!-- node_3 -->
<g id="node4" class="node">
<title>node_3</title>
<path fill="#6d95df" stroke="#000000" d="M1816,-779C1816,-779 1786,-779 1786,-779 1780,-779 1774,-773 1774,-767 1774,-767 1774,-755 1774,-755 1774,-749 1780,-743 1786,-743 1786,-743 1816,-743 1816,-743 1822,-743 1828,-749 1828,-755 1828,-755 1828,-767 1828,-767 1828,-773 1822,-779 1816,-779"/>
<text text-anchor="middle" x="1801" y="-757.5" font-family="SF Pro Text Bold 10" font-size="15.00" fill="#000000">call</text>
</g>
<!-- node_2&#45;&gt;node_3 -->
<g id="edge3" class="edge">
<title>node_2&#45;&gt;node_3</title>
<path fill="none" stroke="#ff3636" stroke-width="3" d="M1801,-889.8C1801,-864.94 1801,-818.74 1801,-789.23"/>
<polygon fill="#ff3636" stroke="#ff3636" stroke-width="3" points="1804.5,-789.18 1801,-779.18 1797.5,-789.18 1804.5,-789.18"/>
</g>
<!-- node_4 -->
<g id="node5" class="node">
<title>node_4</title>
<path fill="#6d95df" stroke="#000000" d="M1816,-632C1816,-632 1786,-632 1786,-632 1780,-632 1774,-626 1774,-620 1774,-620 1774,-608 1774,-608 1774,-602 1780,-596 1786,-596 1786,-596 1816,-596 1816,-596 1822,-596 1828,-602 1828,-608 1828,-608 1828,-620 1828,-620 1828,-626 1822,-632 1816,-632"/>
<text text-anchor="middle" x="1801" y="-610.5" font-family="SF Pro Text Bold 10" font-size="15.00" fill="#000000">call</text>
</g>
<!-- node_2&#45;&gt;node_4 -->
<g id="edge20" class="edge">
<title>node_2&#45;&gt;node_4</title>
<path fill="none" stroke="#00b3ff" stroke-width="2" d="M1812.16,-889.66C1826.77,-865.85 1851.61,-821.16 1861,-779 1872.27,-728.42 1841.74,-672.27 1820.21,-640.54"/>
<polygon fill="#00b3ff" stroke="#00b3ff" stroke-width="2" points="1823.01,-638.45 1814.41,-632.26 1817.28,-642.46 1823.01,-638.45"/>
<text text-anchor="middle" x="1874.5" y="-757.5" font-family="SF Pro Text Bold 10" font-size="15.00">%2</text>
</g>
<!-- node_9 -->
<g id="node25" class="node">
<title>node_9</title>
<path fill="#6d95df" stroke="#000000" d="M422,-1220C422,-1220 384,-1220 384,-1220 378,-1220 372,-1214 372,-1208 372,-1208 372,-1196 372,-1196 372,-1190 378,-1184 384,-1184 384,-1184 422,-1184 422,-1184 428,-1184 434,-1190 434,-1196 434,-1196 434,-1208 434,-1208 434,-1214 428,-1220 422,-1220"/>
<text text-anchor="middle" x="403" y="-1198.5" font-family="SF Pro Text Bold 10" font-size="15.00" fill="#000000">alloca</text>
</g>
<!-- node_2&#45;&gt;node_9 -->
<g id="edge21" class="edge">
<title>node_2&#45;&gt;node_9</title>
<path fill="none" stroke="#ff8800" stroke-width="5" stroke-dasharray="5,2" d="M1773.98,-918.16C1764.04,-921.16 1752.61,-924.19 1742,-926 1563.17,-956.53 1087.02,-887.54 927,-973 846.4,-1016.05 881.33,-1089.94 803,-1137 742.91,-1173.1 533.84,-1191.79 444.26,-1198.29"/>
<polygon fill="#ff8800" stroke="#ff8800" stroke-width="5" points="443.86,-1193.93 434.2,-1199 444.48,-1202.66 443.86,-1193.93"/>
</g>
<!-- node_3&#45;&gt;node_4 -->
<g id="edge4" class="edge">
<title>node_3&#45;&gt;node_4</title>
<path fill="none" stroke="#ff3636" stroke-width="3" d="M1801,-742.8C1801,-717.94 1801,-671.74 1801,-642.23"/>
<polygon fill="#ff3636" stroke="#ff3636" stroke-width="3" points="1804.5,-642.18 1801,-632.18 1797.5,-642.18 1804.5,-642.18"/>
</g>
<!-- node_3&#45;&gt;node_4 -->
<g id="edge25" class="edge">
<title>node_3&#45;&gt;node_4</title>
<path fill="none" stroke="#00b3ff" stroke-width="2" d="M1801.68,-742.89C1802.16,-730 1802.75,-711.89 1803,-696 1803.28,-678.06 1802.78,-657.89 1802.22,-642.16"/>
<polygon fill="#00b3ff" stroke="#00b3ff" stroke-width="2" points="1805.71,-641.92 1801.82,-632.06 1798.72,-642.19 1805.71,-641.92"/>
<text text-anchor="middle" x="1814.5" y="-684" font-family="SF Pro Text Bold 10" font-size="15.00">%3</text>
</g>
<!-- node_3&#45;&gt;node_9 -->
<g id="edge26" class="edge">
<title>node_3&#45;&gt;node_9</title>
<path fill="none" stroke="#ff8800" stroke-width="5" stroke-dasharray="5,2" d="M1817.41,-779.18C1846.66,-811.84 1901.16,-883.44 1861,-926 1799.28,-991.41 1136.3,-939.11 1053,-973 949.98,-1014.91 965.26,-1091.01 864,-1137 789.29,-1170.93 542.96,-1191.31 444.35,-1198.28"/>
<polygon fill="#ff8800" stroke="#ff8800" stroke-width="5" points="443.85,-1193.93 434.17,-1198.99 444.45,-1202.66 443.85,-1193.93"/>
</g>
<!-- node_5 -->
<g id="node6" class="node">
<title>node_5</title>
<path fill="#6d95df" stroke="#000000" d="M1816,-501C1816,-501 1786,-501 1786,-501 1780,-501 1774,-495 1774,-489 1774,-489 1774,-477 1774,-477 1774,-471 1780,-465 1786,-465 1786,-465 1816,-465 1816,-465 1822,-465 1828,-471 1828,-477 1828,-477 1828,-489 1828,-489 1828,-495 1822,-501 1816,-501"/>
<text text-anchor="middle" x="1801" y="-479.5" font-family="SF Pro Text Bold 10" font-size="15.00" fill="#000000">call</text>
</g>
<!-- node_4&#45;&gt;node_5 -->
<g id="edge5" class="edge">
<title>node_4&#45;&gt;node_5</title>
<path fill="none" stroke="#ff3636" stroke-width="3" d="M1801,-595.87C1801,-574.28 1801,-536.91 1801,-511.35"/>
<polygon fill="#ff3636" stroke="#ff3636" stroke-width="3" points="1804.5,-511.2 1801,-501.2 1797.5,-511.2 1804.5,-511.2"/>
</g>
<!-- node_6 -->
<g id="node7" class="node">
<title>node_6</title>
<path fill="#6d95df" stroke="#000000" d="M1816,-354C1816,-354 1786,-354 1786,-354 1780,-354 1774,-348 1774,-342 1774,-342 1774,-330 1774,-330 1774,-324 1780,-318 1786,-318 1786,-318 1816,-318 1816,-318 1822,-318 1828,-324 1828,-330 1828,-330 1828,-342 1828,-342 1828,-348 1822,-354 1816,-354"/>
<text text-anchor="middle" x="1801" y="-332.5" font-family="SF Pro Text Bold 10" font-size="15.00" fill="#000000">add</text>
</g>
<!-- node_4&#45;&gt;node_6 -->
<g id="edge30" class="edge">
<title>node_4&#45;&gt;node_6</title>
<path fill="none" stroke="#00b3ff" stroke-width="2" d="M1813.67,-595.89C1828.41,-574.83 1851.87,-537.37 1861,-501 1873.62,-450.74 1842.64,-394.48 1820.65,-362.64"/>
<polygon fill="#00b3ff" stroke="#00b3ff" stroke-width="2" points="1823.39,-360.45 1814.73,-354.34 1817.69,-364.51 1823.39,-360.45"/>
<text text-anchor="middle" x="1875" y="-479.5" font-family="SF Pro Text Bold 10" font-size="15.00">%4</text>
</g>
<!-- node_4&#45;&gt;node_9 -->
<g id="edge31" class="edge">
<title>node_4&#45;&gt;node_9</title>
<path fill="none" stroke="#ff8800" stroke-width="5" stroke-dasharray="5,2" d="M1819.77,-632.23C1832.7,-644.59 1849.84,-661.99 1863,-679 1931.75,-767.88 1993.88,-844.05 1917,-926 1861.01,-985.68 1259.72,-947.37 1182,-973 1054.39,-1015.09 1054.35,-1091.26 928,-1137 838.91,-1169.25 552.26,-1191.1 444.49,-1198.35"/>
<polygon fill="#ff8800" stroke="#ff8800" stroke-width="5" points="444.02,-1194 434.33,-1199.03 444.6,-1202.73 444.02,-1194"/>
</g>
<!-- node_5&#45;&gt;node_6 -->
<g id="edge6" class="edge">
<title>node_5&#45;&gt;node_6</title>
<path fill="none" stroke="#ff3636" stroke-width="3" d="M1801,-464.8C1801,-439.94 1801,-393.74 1801,-364.23"/>
<polygon fill="#ff3636" stroke="#ff3636" stroke-width="3" points="1804.5,-364.18 1801,-354.18 1797.5,-364.18 1804.5,-364.18"/>
</g>
<!-- node_5&#45;&gt;node_6 -->
<g id="edge33" class="edge">
<title>node_5&#45;&gt;node_6</title>
<path fill="none" stroke="#00b3ff" stroke-width="2" d="M1801.82,-464.94C1802.51,-448.54 1803.34,-423.08 1803,-401 1802.81,-388.95 1802.42,-375.64 1802.04,-364.29"/>
<polygon fill="#00b3ff" stroke="#00b3ff" stroke-width="2" points="1805.53,-363.98 1801.68,-354.11 1798.54,-364.23 1805.53,-363.98"/>
<text text-anchor="middle" x="1814.5" y="-406" font-family="SF Pro Text Bold 10" font-size="15.00">%5</text>
</g>
<!-- node_5&#45;&gt;node_9 -->
<g id="edge34" class="edge">
<title>node_5&#45;&gt;node_9</title>
<path fill="none" stroke="#ff8800" stroke-width="5" stroke-dasharray="5,2" d="M1819.38,-501.36C1887.02,-567.15 2111.38,-803.6 1978,-926 1767.24,-1119.42 1622.75,-972.74 1344,-1037 1187.19,-1073.15 1153.92,-1106.03 996,-1137 791.3,-1177.15 541.56,-1193.74 444.42,-1198.99"/>
<polygon fill="#ff8800" stroke="#ff8800" stroke-width="5" points="443.9,-1194.64 434.15,-1199.53 444.37,-1203.37 443.9,-1194.64"/>
</g>
<!-- node_7 -->
<g id="node8" class="node">
<title>node_7</title>
<path fill="#6d95df" stroke="#000000" d="M1816,-207C1816,-207 1786,-207 1786,-207 1780,-207 1774,-201 1774,-195 1774,-195 1774,-183 1774,-183 1774,-177 1780,-171 1786,-171 1786,-171 1816,-171 1816,-171 1822,-171 1828,-177 1828,-183 1828,-183 1828,-195 1828,-195 1828,-201 1822,-207 1816,-207"/>
<text text-anchor="middle" x="1801" y="-185.5" font-family="SF Pro Text Bold 10" font-size="15.00" fill="#000000">call</text>
</g>
<!-- node_6&#45;&gt;node_7 -->
<g id="edge7" class="edge">
<title>node_6&#45;&gt;node_7</title>
<path fill="none" stroke="#ff3636" stroke-width="3" d="M1801,-317.8C1801,-292.94 1801,-246.74 1801,-217.23"/>
<polygon fill="#ff3636" stroke="#ff3636" stroke-width="3" points="1804.5,-217.18 1801,-207.18 1797.5,-217.18 1804.5,-217.18"/>
</g>
<!-- node_6&#45;&gt;node_7 -->
<g id="edge38" class="edge">
<title>node_6&#45;&gt;node_7</title>
<path fill="none" stroke="#00b3ff" stroke-width="2" d="M1801.68,-317.89C1802.16,-305 1802.75,-286.89 1803,-271 1803.28,-253.06 1802.78,-232.89 1802.22,-217.16"/>
<polygon fill="#00b3ff" stroke="#00b3ff" stroke-width="2" points="1805.71,-216.92 1801.82,-207.06 1798.72,-217.19 1805.71,-216.92"/>
<text text-anchor="middle" x="1815" y="-259" font-family="SF Pro Text Bold 10" font-size="15.00">%6</text>
</g>
<!-- node_8 -->
<g id="node9" class="node">
<title>node_8</title>
<path fill="#6d95df" stroke="#000000" d="M1816,-60C1816,-60 1786,-60 1786,-60 1780,-60 1774,-54 1774,-48 1774,-48 1774,-36 1774,-36 1774,-30 1780,-24 1786,-24 1786,-24 1816,-24 1816,-24 1822,-24 1828,-30 1828,-36 1828,-36 1828,-48 1828,-48 1828,-54 1822,-60 1816,-60"/>
<text text-anchor="middle" x="1801" y="-38.5" font-family="SF Pro Text Bold 10" font-size="15.00" fill="#000000">ret</text>
</g>
<!-- node_7&#45;&gt;node_8 -->
<g id="edge8" class="edge">
<title>node_7&#45;&gt;node_8</title>
<path fill="none" stroke="#ff3636" stroke-width="3" d="M1801,-170.8C1801,-145.94 1801,-99.74 1801,-70.23"/>
<polygon fill="#ff3636" stroke="#ff3636" stroke-width="3" points="1804.5,-70.18 1801,-60.18 1797.5,-70.18 1804.5,-70.18"/>
</g>
<!-- node_18 -->
<g id="node10" class="node">
<title>node_18</title>
<path fill="#d66868" stroke="#000000" d="M1816,-1351C1816,-1351 1786,-1351 1786,-1351 1780,-1351 1774,-1345 1774,-1339 1774,-1339 1774,-1327 1774,-1327 1774,-1321 1780,-1315 1786,-1315 1786,-1315 1816,-1315 1816,-1315 1822,-1315 1828,-1321 1828,-1327 1828,-1327 1828,-1339 1828,-1339 1828,-1345 1822,-1351 1816,-1351"/>
<text text-anchor="middle" x="1801" y="-1329.5" font-family="SF Pro Text Bold 10" font-size="15.00" fill="#000000">i32 1</text>
</g>
<!-- node_18&#45;&gt;node_0 -->
<g id="edge18" class="edge">
<title>node_18&#45;&gt;node_0</title>
<path fill="none" stroke="#00b3ff" stroke-width="2" d="M1801,-1314.87C1801,-1293.28 1801,-1255.91 1801,-1230.35"/>
<polygon fill="#00b3ff" stroke="#00b3ff" stroke-width="2" points="1804.5,-1230.2 1801,-1220.2 1797.5,-1230.2 1804.5,-1230.2"/>
</g>
<!-- node_19 -->
<g id="node11" class="node">
<title>node_19</title>
<path fill="#d66868" stroke="#000000" d="M1692.5,-1220C1692.5,-1220 1661.5,-1220 1661.5,-1220 1655.5,-1220 1649.5,-1214 1649.5,-1208 1649.5,-1208 1649.5,-1196 1649.5,-1196 1649.5,-1190 1655.5,-1184 1661.5,-1184 1661.5,-1184 1692.5,-1184 1692.5,-1184 1698.5,-1184 1704.5,-1190 1704.5,-1196 1704.5,-1196 1704.5,-1208 1704.5,-1208 1704.5,-1214 1698.5,-1220 1692.5,-1220"/>
<text text-anchor="middle" x="1677" y="-1198.5" font-family="SF Pro Text Bold 10" font-size="15.00" fill="#000000">i32 0</text>
</g>
<!-- node_19&#45;&gt;node_1 -->
<g id="edge19" class="edge">
<title>node_19&#45;&gt;node_1</title>
<path fill="none" stroke="#00b3ff" stroke-width="2" d="M1691.71,-1183.8C1713.53,-1158.29 1754.57,-1110.3 1779.68,-1080.93"/>
<polygon fill="#00b3ff" stroke="#00b3ff" stroke-width="2" points="1782.47,-1083.06 1786.31,-1073.18 1777.15,-1078.51 1782.47,-1083.06"/>
</g>
<!-- node_20 -->
<g id="node12" class="node">
<title>node_20</title>
<path fill="#d66868" stroke="#000000" d="M1696,-1073C1696,-1073 1666,-1073 1666,-1073 1660,-1073 1654,-1067 1654,-1061 1654,-1061 1654,-1049 1654,-1049 1654,-1043 1660,-1037 1666,-1037 1666,-1037 1696,-1037 1696,-1037 1702,-1037 1708,-1043 1708,-1049 1708,-1049 1708,-1061 1708,-1061 1708,-1067 1702,-1073 1696,-1073"/>
<text text-anchor="middle" x="1681" y="-1051.5" font-family="SF Pro Text Bold 10" font-size="15.00" fill="#000000">i32 3</text>
</g>
<!-- node_20&#45;&gt;node_2 -->
<g id="edge22" class="edge">
<title>node_20&#45;&gt;node_2</title>
<path fill="none" stroke="#00b3ff" stroke-width="2" d="M1695.24,-1036.8C1716.35,-1011.29 1756.07,-963.3 1780.37,-933.93"/>
<polygon fill="#00b3ff" stroke="#00b3ff" stroke-width="2" points="1783.1,-936.12 1786.78,-926.18 1777.71,-931.65 1783.1,-936.12"/>
</g>
<!-- node_21 -->
<g id="node13" class="node">
<title>node_21</title>
<path fill="#d66868" stroke="#000000" d="M1576.5,-1073C1576.5,-1073 1545.5,-1073 1545.5,-1073 1539.5,-1073 1533.5,-1067 1533.5,-1061 1533.5,-1061 1533.5,-1049 1533.5,-1049 1533.5,-1043 1539.5,-1037 1545.5,-1037 1545.5,-1037 1576.5,-1037 1576.5,-1037 1582.5,-1037 1588.5,-1043 1588.5,-1049 1588.5,-1049 1588.5,-1061 1588.5,-1061 1588.5,-1067 1582.5,-1073 1576.5,-1073"/>
<text text-anchor="middle" x="1561" y="-1051.5" font-family="SF Pro Text Bold 10" font-size="15.00" fill="#000000">i32 4</text>
</g>
<!-- node_21&#45;&gt;node_2 -->
<g id="edge23" class="edge">
<title>node_21&#45;&gt;node_2</title>
<path fill="none" stroke="#00b3ff" stroke-width="2" d="M1588.53,-1037.37C1632.11,-1011.04 1716.99,-959.76 1765.23,-930.61"/>
<polygon fill="#00b3ff" stroke="#00b3ff" stroke-width="2" points="1767.04,-933.61 1773.79,-925.44 1763.42,-927.61 1767.04,-933.61"/>
</g>
<!-- node_22 -->
<g id="node14" class="node">
<title>node_22</title>
<path fill="#d66868" stroke="#000000" d="M1456,-1073C1456,-1073 1388,-1073 1388,-1073 1382,-1073 1376,-1067 1376,-1061 1376,-1061 1376,-1049 1376,-1049 1376,-1043 1382,-1037 1388,-1037 1388,-1037 1456,-1037 1456,-1037 1462,-1037 1468,-1043 1468,-1049 1468,-1049 1468,-1061 1468,-1061 1468,-1067 1462,-1073 1456,-1073"/>
<text text-anchor="middle" x="1422" y="-1051.5" font-family="SF Pro Text Bold 10" font-size="15.00" fill="#000000">ptr @func</text>
</g>
<!-- node_22&#45;&gt;node_2 -->
<g id="edge24" class="edge">
<title>node_22&#45;&gt;node_2</title>
<path fill="none" stroke="#00b3ff" stroke-width="2" d="M1466.59,-1036.94C1542.12,-1008.04 1693.85,-949.99 1763.94,-923.18"/>
<polygon fill="#00b3ff" stroke="#00b3ff" stroke-width="2" points="1765.58,-926.3 1773.67,-919.46 1763.08,-919.76 1765.58,-926.3"/>
</g>
<!-- node_23 -->
<g id="node15" class="node">
<title>node_23</title>
<path fill="#d66868" stroke="#000000" d="M1697,-926C1697,-926 1667,-926 1667,-926 1661,-926 1655,-920 1655,-914 1655,-914 1655,-902 1655,-902 1655,-896 1661,-890 1667,-890 1667,-890 1697,-890 1697,-890 1703,-890 1709,-896 1709,-902 1709,-902 1709,-914 1709,-914 1709,-920 1703,-926 1697,-926"/>
<text text-anchor="middle" x="1682" y="-904.5" font-family="SF Pro Text Bold 10" font-size="15.00" fill="#000000">i32 5</text>
</g>
<!-- node_23&#45;&gt;node_3 -->
<g id="edge27" class="edge">
<title>node_23&#45;&gt;node_3</title>
<path fill="none" stroke="#00b3ff" stroke-width="2" d="M1696.12,-889.8C1717.05,-864.29 1756.44,-816.3 1780.54,-786.93"/>
<polygon fill="#00b3ff" stroke="#00b3ff" stroke-width="2" points="1783.26,-789.13 1786.9,-779.18 1777.85,-784.69 1783.26,-789.13"/>
</g>
<!-- node_24 -->
<g id="node16" class="node">
<title>node_24</title>
<path fill="#d66868" stroke="#000000" d="M1577.5,-926C1577.5,-926 1546.5,-926 1546.5,-926 1540.5,-926 1534.5,-920 1534.5,-914 1534.5,-914 1534.5,-902 1534.5,-902 1534.5,-896 1540.5,-890 1546.5,-890 1546.5,-890 1577.5,-890 1577.5,-890 1583.5,-890 1589.5,-896 1589.5,-902 1589.5,-902 1589.5,-914 1589.5,-914 1589.5,-920 1583.5,-926 1577.5,-926"/>
<text text-anchor="middle" x="1562" y="-904.5" font-family="SF Pro Text Bold 10" font-size="15.00" fill="#000000">i32 6</text>
</g>
<!-- node_24&#45;&gt;node_3 -->
<g id="edge28" class="edge">
<title>node_24&#45;&gt;node_3</title>
<path fill="none" stroke="#00b3ff" stroke-width="2" d="M1589.88,-890.08C1633.26,-863.76 1716.9,-813.02 1764.85,-783.93"/>
<polygon fill="#00b3ff" stroke="#00b3ff" stroke-width="2" points="1766.93,-786.77 1773.66,-778.59 1763.3,-780.78 1766.93,-786.77"/>
</g>
<!-- node_25 -->
<g id="node17" class="node">
<title>node_25</title>
<path fill="#d66868" stroke="#000000" d="M1457,-926C1457,-926 1389,-926 1389,-926 1383,-926 1377,-920 1377,-914 1377,-914 1377,-902 1377,-902 1377,-896 1383,-890 1389,-890 1389,-890 1457,-890 1457,-890 1463,-890 1469,-896 1469,-902 1469,-902 1469,-914 1469,-914 1469,-920 1463,-926 1457,-926"/>
<text text-anchor="middle" x="1423" y="-904.5" font-family="SF Pro Text Bold 10" font-size="15.00" fill="#000000">ptr @func</text>
</g>
<!-- node_25&#45;&gt;node_3 -->
<g id="edge29" class="edge">
<title>node_25&#45;&gt;node_3</title>
<path fill="none" stroke="#00b3ff" stroke-width="2" d="M1467.47,-889.94C1542.81,-861.04 1694.13,-802.99 1764.04,-776.18"/>
<polygon fill="#00b3ff" stroke="#00b3ff" stroke-width="2" points="1765.66,-779.3 1773.74,-772.46 1763.15,-772.77 1765.66,-779.3"/>
</g>
<!-- node_26 -->
<g id="node18" class="node">
<title>node_26</title>
<path fill="#d66868" stroke="#000000" d="M1697,-779C1697,-779 1629,-779 1629,-779 1623,-779 1617,-773 1617,-767 1617,-767 1617,-755 1617,-755 1617,-749 1623,-743 1629,-743 1629,-743 1697,-743 1697,-743 1703,-743 1709,-749 1709,-755 1709,-755 1709,-767 1709,-767 1709,-773 1703,-779 1697,-779"/>
<text text-anchor="middle" x="1663" y="-757.5" font-family="SF Pro Text Bold 10" font-size="15.00" fill="#000000">ptr @func</text>
</g>
<!-- node_26&#45;&gt;node_4 -->
<g id="edge32" class="edge">
<title>node_26&#45;&gt;node_4</title>
<path fill="none" stroke="#00b3ff" stroke-width="2" d="M1679.37,-742.8C1703.75,-717.18 1749.72,-668.89 1777.63,-639.56"/>
<polygon fill="#00b3ff" stroke="#00b3ff" stroke-width="2" points="1780.29,-641.84 1784.65,-632.18 1775.22,-637.01 1780.29,-641.84"/>
</g>
<!-- node_27 -->
<g id="node19" class="node">
<title>node_27</title>
<path fill="#d66868" stroke="#000000" d="M1697,-632C1697,-632 1667,-632 1667,-632 1661,-632 1655,-626 1655,-620 1655,-620 1655,-608 1655,-608 1655,-602 1661,-596 1667,-596 1667,-596 1697,-596 1697,-596 1703,-596 1709,-602 1709,-608 1709,-608 1709,-620 1709,-620 1709,-626 1703,-632 1697,-632"/>
<text text-anchor="middle" x="1682" y="-610.5" font-family="SF Pro Text Bold 10" font-size="15.00" fill="#000000">i32 3</text>
</g>
<!-- node_27&#45;&gt;node_5 -->
<g id="edge35" class="edge">
<title>node_27&#45;&gt;node_5</title>
<path fill="none" stroke="#00b3ff" stroke-width="2" d="M1697.8,-595.87C1718.43,-573.51 1754.67,-534.22 1778.25,-508.66"/>
<polygon fill="#00b3ff" stroke="#00b3ff" stroke-width="2" points="1780.92,-510.92 1785.13,-501.2 1775.78,-506.18 1780.92,-510.92"/>
</g>
<!-- node_28 -->
<g id="node20" class="node">
<title>node_28</title>
<path fill="#d66868" stroke="#000000" d="M1577.5,-632C1577.5,-632 1546.5,-632 1546.5,-632 1540.5,-632 1534.5,-626 1534.5,-620 1534.5,-620 1534.5,-608 1534.5,-608 1534.5,-602 1540.5,-596 1546.5,-596 1546.5,-596 1577.5,-596 1577.5,-596 1583.5,-596 1589.5,-602 1589.5,-608 1589.5,-608 1589.5,-620 1589.5,-620 1589.5,-626 1583.5,-632 1577.5,-632"/>
<text text-anchor="middle" x="1562" y="-610.5" font-family="SF Pro Text Bold 10" font-size="15.00" fill="#000000">i32 4</text>
</g>
<!-- node_28&#45;&gt;node_5 -->
<g id="edge36" class="edge">
<title>node_28&#45;&gt;node_5</title>
<path fill="none" stroke="#00b3ff" stroke-width="2" d="M1589.88,-597.95C1633.26,-574.54 1716.9,-529.39 1764.85,-503.51"/>
<polygon fill="#00b3ff" stroke="#00b3ff" stroke-width="2" points="1766.52,-506.59 1773.66,-498.76 1763.2,-500.43 1766.52,-506.59"/>
</g>
<!-- node_29 -->
<g id="node21" class="node">
<title>node_29</title>
<path fill="#d66868" stroke="#000000" d="M1457,-632C1457,-632 1389,-632 1389,-632 1383,-632 1377,-626 1377,-620 1377,-620 1377,-608 1377,-608 1377,-602 1383,-596 1389,-596 1389,-596 1457,-596 1457,-596 1463,-596 1469,-602 1469,-608 1469,-608 1469,-620 1469,-620 1469,-626 1463,-632 1457,-632"/>
<text text-anchor="middle" x="1423" y="-610.5" font-family="SF Pro Text Bold 10" font-size="15.00" fill="#000000">ptr @func</text>
</g>
<!-- node_29&#45;&gt;node_5 -->
<g id="edge37" class="edge">
<title>node_29&#45;&gt;node_5</title>
<path fill="none" stroke="#00b3ff" stroke-width="2" d="M1469.35,-597.18C1545.26,-571.28 1694.58,-520.32 1763.95,-496.64"/>
<polygon fill="#00b3ff" stroke="#00b3ff" stroke-width="2" points="1765.25,-499.9 1773.59,-493.36 1762.99,-493.27 1765.25,-499.9"/>
</g>
<!-- node_30 -->
<g id="node22" class="node">
<title>node_30</title>
<path fill="#d66868" stroke="#000000" d="M1696.5,-354C1696.5,-354 1637.5,-354 1637.5,-354 1631.5,-354 1625.5,-348 1625.5,-342 1625.5,-342 1625.5,-330 1625.5,-330 1625.5,-324 1631.5,-318 1637.5,-318 1637.5,-318 1696.5,-318 1696.5,-318 1702.5,-318 1708.5,-324 1708.5,-330 1708.5,-330 1708.5,-342 1708.5,-342 1708.5,-348 1702.5,-354 1696.5,-354"/>
<text text-anchor="middle" x="1667" y="-332.5" font-family="SF Pro Text Bold 10" font-size="15.00" fill="#000000">ptr @.str</text>
</g>
<!-- node_30&#45;&gt;node_7 -->
<g id="edge39" class="edge">
<title>node_30&#45;&gt;node_7</title>
<path fill="none" stroke="#00b3ff" stroke-width="2" d="M1682.9,-317.8C1706.57,-292.18 1751.2,-243.89 1778.3,-214.56"/>
<polygon fill="#00b3ff" stroke="#00b3ff" stroke-width="2" points="1780.91,-216.9 1785.12,-207.18 1775.77,-212.15 1780.91,-216.9"/>
</g>
<!-- node_31 -->
<g id="node23" class="node">
<title>node_31</title>
<path fill="#d66868" stroke="#000000" d="M1548,-354C1548,-354 1472,-354 1472,-354 1466,-354 1460,-348 1460,-342 1460,-342 1460,-330 1460,-330 1460,-324 1466,-318 1472,-318 1472,-318 1548,-318 1548,-318 1554,-318 1560,-324 1560,-330 1560,-330 1560,-342 1560,-342 1560,-348 1554,-354 1548,-354"/>
<text text-anchor="middle" x="1510" y="-332.5" font-family="SF Pro Text Bold 10" font-size="15.00" fill="#000000">ptr @printf</text>
</g>
<!-- node_31&#45;&gt;node_7 -->
<g id="edge40" class="edge">
<title>node_31&#45;&gt;node_7</title>
<path fill="none" stroke="#00b3ff" stroke-width="2" d="M1544.24,-317.94C1599.48,-290.41 1707.82,-236.43 1764.49,-208.19"/>
<polygon fill="#00b3ff" stroke="#00b3ff" stroke-width="2" points="1766.39,-211.15 1773.78,-203.56 1763.27,-204.89 1766.39,-211.15"/>
</g>
<!-- node_32 -->
<g id="node24" class="node">
<title>node_32</title>
<path fill="#d66868" stroke="#000000" d="M1696.5,-207C1696.5,-207 1665.5,-207 1665.5,-207 1659.5,-207 1653.5,-201 1653.5,-195 1653.5,-195 1653.5,-183 1653.5,-183 1653.5,-177 1659.5,-171 1665.5,-171 1665.5,-171 1696.5,-171 1696.5,-171 1702.5,-171 1708.5,-177 1708.5,-183 1708.5,-183 1708.5,-195 1708.5,-195 1708.5,-201 1702.5,-207 1696.5,-207"/>
<text text-anchor="middle" x="1681" y="-185.5" font-family="SF Pro Text Bold 10" font-size="15.00" fill="#000000">i32 0</text>
</g>
<!-- node_32&#45;&gt;node_8 -->
<g id="edge41" class="edge">
<title>node_32&#45;&gt;node_8</title>
<path fill="none" stroke="#00b3ff" stroke-width="2" d="M1695.24,-170.8C1716.35,-145.29 1756.07,-97.3 1780.37,-67.93"/>
<polygon fill="#00b3ff" stroke="#00b3ff" stroke-width="2" points="1783.1,-70.12 1786.78,-60.18 1777.71,-65.65 1783.1,-70.12"/>
</g>
<!-- node_10 -->
<g id="node26" class="node">
<title>node_10</title>
<path fill="#6d95df" stroke="#000000" d="M422,-1073C422,-1073 384,-1073 384,-1073 378,-1073 372,-1067 372,-1061 372,-1061 372,-1049 372,-1049 372,-1043 378,-1037 384,-1037 384,-1037 422,-1037 422,-1037 428,-1037 434,-1043 434,-1049 434,-1049 434,-1061 434,-1061 434,-1067 428,-1073 422,-1073"/>
<text text-anchor="middle" x="403" y="-1051.5" font-family="SF Pro Text Bold 10" font-size="15.00" fill="#000000">alloca</text>
</g>
<!-- node_9&#45;&gt;node_10 -->
<g id="edge9" class="edge">
<title>node_9&#45;&gt;node_10</title>
<path fill="none" stroke="#ff3636" stroke-width="3" d="M403,-1183.8C403,-1158.94 403,-1112.74 403,-1083.23"/>
<polygon fill="#ff3636" stroke="#ff3636" stroke-width="3" points="406.5,-1083.18 403,-1073.18 399.5,-1083.18 406.5,-1083.18"/>
</g>
<!-- node_11 -->
<g id="node27" class="node">
<title>node_11</title>
<path fill="#6d95df" stroke="#000000" d="M418.5,-926C418.5,-926 387.5,-926 387.5,-926 381.5,-926 375.5,-920 375.5,-914 375.5,-914 375.5,-902 375.5,-902 375.5,-896 381.5,-890 387.5,-890 387.5,-890 418.5,-890 418.5,-890 424.5,-890 430.5,-896 430.5,-902 430.5,-902 430.5,-914 430.5,-914 430.5,-920 424.5,-926 418.5,-926"/>
<text text-anchor="middle" x="403" y="-904.5" font-family="SF Pro Text Bold 10" font-size="15.00" fill="#000000">store</text>
</g>
<!-- node_9&#45;&gt;node_11 -->
<g id="edge43" class="edge">
<title>node_9&#45;&gt;node_11</title>
<path fill="none" stroke="#00b3ff" stroke-width="2" d="M414.72,-1183.75C430.05,-1160.04 456.12,-1115.46 466,-1073 477.82,-1022.22 445.77,-966.14 423.16,-934.47"/>
<polygon fill="#00b3ff" stroke="#00b3ff" stroke-width="2" points="425.83,-932.19 417.08,-926.21 420.19,-936.34 425.83,-932.19"/>
<text text-anchor="middle" x="480.5" y="-1051.5" font-family="SF Pro Text Bold 10" font-size="15.00">%3</text>
</g>
<!-- node_13 -->
<g id="node29" class="node">
<title>node_13</title>
<path fill="#6d95df" stroke="#000000" d="M418,-632C418,-632 388,-632 388,-632 382,-632 376,-626 376,-620 376,-620 376,-608 376,-608 376,-602 382,-596 388,-596 388,-596 418,-596 418,-596 424,-596 430,-602 430,-608 430,-608 430,-620 430,-620 430,-626 424,-632 418,-632"/>
<text text-anchor="middle" x="403" y="-610.5" font-family="SF Pro Text Bold 10" font-size="15.00" fill="#000000">load</text>
</g>
<!-- node_9&#45;&gt;node_13 -->
<g id="edge42" class="edge">
<title>node_9&#45;&gt;node_13</title>
<path fill="none" stroke="#00b3ff" stroke-width="2" d="M434.12,-1200.54C504.94,-1197.61 677.73,-1179.35 752,-1073 874.06,-898.22 550.58,-696.81 439.15,-634.42"/>
<polygon fill="#00b3ff" stroke="#00b3ff" stroke-width="2" points="440.71,-631.29 430.27,-629.5 437.32,-637.41 440.71,-631.29"/>
<text text-anchor="middle" x="777.5" y="-904.5" font-family="SF Pro Text Bold 10" font-size="15.00">%3</text>
</g>
<!-- node_10&#45;&gt;node_11 -->
<g id="edge10" class="edge">
<title>node_10&#45;&gt;node_11</title>
<path fill="none" stroke="#ff3636" stroke-width="3" d="M403,-1036.8C403,-1011.94 403,-965.74 403,-936.23"/>
<polygon fill="#ff3636" stroke="#ff3636" stroke-width="3" points="406.5,-936.18 403,-926.18 399.5,-936.18 406.5,-936.18"/>
</g>
<!-- node_12 -->
<g id="node28" class="node">
<title>node_12</title>
<path fill="#6d95df" stroke="#000000" d="M418.5,-779C418.5,-779 387.5,-779 387.5,-779 381.5,-779 375.5,-773 375.5,-767 375.5,-767 375.5,-755 375.5,-755 375.5,-749 381.5,-743 387.5,-743 387.5,-743 418.5,-743 418.5,-743 424.5,-743 430.5,-749 430.5,-755 430.5,-755 430.5,-767 430.5,-767 430.5,-773 424.5,-779 418.5,-779"/>
<text text-anchor="middle" x="403" y="-757.5" font-family="SF Pro Text Bold 10" font-size="15.00" fill="#000000">store</text>
</g>
<!-- node_10&#45;&gt;node_12 -->
<g id="edge46" class="edge">
<title>node_10&#45;&gt;node_12</title>
<path fill="none" stroke="#00b3ff" stroke-width="2" d="M371.97,-1046.09C302.17,-1026.67 142.42,-972.15 189,-890 226.86,-823.24 314.91,-787.56 365.48,-771.93"/>
<polygon fill="#00b3ff" stroke="#00b3ff" stroke-width="2" points="366.79,-775.19 375.37,-768.98 364.79,-768.48 366.79,-775.19"/>
<text text-anchor="middle" x="201" y="-904.5" font-family="SF Pro Text Bold 10" font-size="15.00">%4</text>
</g>
<!-- node_14 -->
<g id="node30" class="node">
<title>node_14</title>
<path fill="#6d95df" stroke="#000000" d="M418,-501C418,-501 388,-501 388,-501 382,-501 376,-495 376,-489 376,-489 376,-477 376,-477 376,-471 382,-465 388,-465 388,-465 418,-465 418,-465 424,-465 430,-471 430,-477 430,-477 430,-489 430,-489 430,-495 424,-501 418,-501"/>
<text text-anchor="middle" x="403" y="-479.5" font-family="SF Pro Text Bold 10" font-size="15.00" fill="#000000">load</text>
</g>
<!-- node_10&#45;&gt;node_14 -->
<g id="edge45" class="edge">
<title>node_10&#45;&gt;node_14</title>
<path fill="none" stroke="#00b3ff" stroke-width="2" d="M371.8,-1051.85C328,-1047.32 247.95,-1033.28 197,-990 161.44,-959.79 152.77,-935.03 165,-890 208.35,-730.35 332.01,-569.26 381.82,-508.88"/>
<polygon fill="#00b3ff" stroke="#00b3ff" stroke-width="2" points="384.64,-510.97 388.35,-501.04 379.26,-506.49 384.64,-510.97"/>
<text text-anchor="middle" x="237" y="-757.5" font-family="SF Pro Text Bold 10" font-size="15.00">%4</text>
</g>
<!-- node_11&#45;&gt;node_12 -->
<g id="edge11" class="edge">
<title>node_11&#45;&gt;node_12</title>
<path fill="none" stroke="#ff3636" stroke-width="3" d="M403,-889.8C403,-864.94 403,-818.74 403,-789.23"/>
<polygon fill="#ff3636" stroke="#ff3636" stroke-width="3" points="406.5,-789.18 403,-779.18 399.5,-789.18 406.5,-789.18"/>
</g>
<!-- node_12&#45;&gt;node_13 -->
<g id="edge12" class="edge">
<title>node_12&#45;&gt;node_13</title>
<path fill="none" stroke="#ff3636" stroke-width="3" d="M403,-742.8C403,-717.94 403,-671.74 403,-642.23"/>
<polygon fill="#ff3636" stroke="#ff3636" stroke-width="3" points="406.5,-642.18 403,-632.18 399.5,-642.18 406.5,-642.18"/>
</g>
<!-- node_13&#45;&gt;node_14 -->
<g id="edge13" class="edge">
<title>node_13&#45;&gt;node_14</title>
<path fill="none" stroke="#ff3636" stroke-width="3" d="M403,-595.87C403,-574.28 403,-536.91 403,-511.35"/>
<polygon fill="#ff3636" stroke="#ff3636" stroke-width="3" points="406.5,-511.2 403,-501.2 399.5,-511.2 406.5,-511.2"/>
</g>
<!-- node_16 -->
<g id="node32" class="node">
<title>node_16</title>
<path fill="#6d95df" stroke="#000000" d="M418,-207C418,-207 388,-207 388,-207 382,-207 376,-201 376,-195 376,-195 376,-183 376,-183 376,-177 382,-171 388,-171 388,-171 418,-171 418,-171 424,-171 430,-177 430,-183 430,-183 430,-195 430,-195 430,-201 424,-207 418,-207"/>
<text text-anchor="middle" x="403" y="-185.5" font-family="SF Pro Text Bold 10" font-size="15.00" fill="#000000">add</text>
</g>
<!-- node_13&#45;&gt;node_16 -->
<g id="edge50" class="edge">
<title>node_13&#45;&gt;node_16</title>
<path fill="none" stroke="#00b3ff" stroke-width="2" d="M430.16,-605.27C485.33,-587.88 603.49,-541.12 581,-465 550.37,-361.32 467.09,-259.99 426.23,-214.68"/>
<polygon fill="#00b3ff" stroke="#00b3ff" stroke-width="2" points="428.68,-212.17 419.35,-207.14 423.51,-216.89 428.68,-212.17"/>
<text text-anchor="middle" x="575.5" y="-406" font-family="SF Pro Text Bold 10" font-size="15.00">%5</text>
</g>
<!-- node_15 -->
<g id="node31" class="node">
<title>node_15</title>
<path fill="#6d95df" stroke="#000000" d="M418,-354C418,-354 388,-354 388,-354 382,-354 376,-348 376,-342 376,-342 376,-330 376,-330 376,-324 382,-318 388,-318 388,-318 418,-318 418,-318 424,-318 430,-324 430,-330 430,-330 430,-342 430,-342 430,-348 424,-354 418,-354"/>
<text text-anchor="middle" x="403" y="-332.5" font-family="SF Pro Text Bold 10" font-size="15.00" fill="#000000">mul</text>
</g>
<!-- node_14&#45;&gt;node_15 -->
<g id="edge14" class="edge">
<title>node_14&#45;&gt;node_15</title>
<path fill="none" stroke="#ff3636" stroke-width="3" d="M403,-464.8C403,-439.94 403,-393.74 403,-364.23"/>
<polygon fill="#ff3636" stroke="#ff3636" stroke-width="3" points="406.5,-364.18 403,-354.18 399.5,-364.18 406.5,-364.18"/>
</g>
<!-- node_14&#45;&gt;node_15 -->
<g id="edge51" class="edge">
<title>node_14&#45;&gt;node_15</title>
<path fill="none" stroke="#00b3ff" stroke-width="2" d="M403.82,-464.94C404.51,-448.54 405.34,-423.08 405,-401 404.81,-388.95 404.42,-375.64 404.04,-364.29"/>
<polygon fill="#00b3ff" stroke="#00b3ff" stroke-width="2" points="407.53,-363.98 403.68,-354.11 400.54,-364.23 407.53,-363.98"/>
<text text-anchor="middle" x="418" y="-406" font-family="SF Pro Text Bold 10" font-size="15.00">%6</text>
</g>
<!-- node_15&#45;&gt;node_16 -->
<g id="edge15" class="edge">
<title>node_15&#45;&gt;node_16</title>
<path fill="none" stroke="#ff3636" stroke-width="3" d="M403,-317.8C403,-292.94 403,-246.74 403,-217.23"/>
<polygon fill="#ff3636" stroke="#ff3636" stroke-width="3" points="406.5,-217.18 403,-207.18 399.5,-217.18 406.5,-217.18"/>
</g>
<!-- node_15&#45;&gt;node_16 -->
<g id="edge52" class="edge">
<title>node_15&#45;&gt;node_16</title>
<path fill="none" stroke="#00b3ff" stroke-width="2" d="M403.68,-317.89C404.16,-305 404.75,-286.89 405,-271 405.28,-253.06 404.78,-232.89 404.22,-217.16"/>
<polygon fill="#00b3ff" stroke="#00b3ff" stroke-width="2" points="407.71,-216.92 403.82,-207.06 400.72,-217.19 407.71,-216.92"/>
<text text-anchor="middle" x="417" y="-259" font-family="SF Pro Text Bold 10" font-size="15.00">%7</text>
</g>
<!-- node_17 -->
<g id="node33" class="node">
<title>node_17</title>
<path fill="#6d95df" stroke="#000000" d="M418,-60C418,-60 388,-60 388,-60 382,-60 376,-54 376,-48 376,-48 376,-36 376,-36 376,-30 382,-24 388,-24 388,-24 418,-24 418,-24 424,-24 430,-30 430,-36 430,-36 430,-48 430,-48 430,-54 424,-60 418,-60"/>
<text text-anchor="middle" x="403" y="-38.5" font-family="SF Pro Text Bold 10" font-size="15.00" fill="#000000">ret</text>
</g>
<!-- node_16&#45;&gt;node_17 -->
<g id="edge16" class="edge">
<title>node_16&#45;&gt;node_17</title>
<path fill="none" stroke="#ff3636" stroke-width="3" d="M403,-170.8C403,-145.94 403,-99.74 403,-70.23"/>
<polygon fill="#ff3636" stroke="#ff3636" stroke-width="3" points="406.5,-70.18 403,-60.18 399.5,-70.18 406.5,-70.18"/>
</g>
<!-- node_16&#45;&gt;node_17 -->
<g id="edge54" class="edge">
<title>node_16&#45;&gt;node_17</title>
<path fill="none" stroke="#00b3ff" stroke-width="2" d="M403.68,-170.89C404.16,-158 404.75,-139.89 405,-124 405.28,-106.06 404.78,-85.89 404.22,-70.16"/>
<polygon fill="#00b3ff" stroke="#00b3ff" stroke-width="2" points="407.71,-69.92 403.82,-60.06 400.72,-70.19 407.71,-69.92"/>
<text text-anchor="middle" x="418" y="-112" font-family="SF Pro Text Bold 10" font-size="15.00">%8</text>
</g>
<!-- node_33 -->
<g id="node34" class="node">
<title>node_33</title>
<path fill="#d66868" stroke="#000000" d="M418,-1351C418,-1351 388,-1351 388,-1351 382,-1351 376,-1345 376,-1339 376,-1339 376,-1327 376,-1327 376,-1321 382,-1315 388,-1315 388,-1315 418,-1315 418,-1315 424,-1315 430,-1321 430,-1327 430,-1327 430,-1339 430,-1339 430,-1345 424,-1351 418,-1351"/>
<text text-anchor="middle" x="403" y="-1329.5" font-family="SF Pro Text Bold 10" font-size="15.00" fill="#000000">i32 1</text>
</g>
<!-- node_33&#45;&gt;node_9 -->
<g id="edge44" class="edge">
<title>node_33&#45;&gt;node_9</title>
<path fill="none" stroke="#00b3ff" stroke-width="2" d="M403,-1314.87C403,-1293.28 403,-1255.91 403,-1230.35"/>
<polygon fill="#00b3ff" stroke="#00b3ff" stroke-width="2" points="406.5,-1230.2 403,-1220.2 399.5,-1230.2 406.5,-1230.2"/>
</g>
<!-- node_34 -->
<g id="node35" class="node">
<title>node_34</title>
<path fill="#d66868" stroke="#000000" d="M295,-1220C295,-1220 265,-1220 265,-1220 259,-1220 253,-1214 253,-1208 253,-1208 253,-1196 253,-1196 253,-1190 259,-1184 265,-1184 265,-1184 295,-1184 295,-1184 301,-1184 307,-1190 307,-1196 307,-1196 307,-1208 307,-1208 307,-1214 301,-1220 295,-1220"/>
<text text-anchor="middle" x="280" y="-1198.5" font-family="SF Pro Text Bold 10" font-size="15.00" fill="#000000">i32 1</text>
</g>
<!-- node_34&#45;&gt;node_10 -->
<g id="edge47" class="edge">
<title>node_34&#45;&gt;node_10</title>
<path fill="none" stroke="#00b3ff" stroke-width="2" d="M294.59,-1183.8C316.23,-1158.29 356.94,-1110.3 381.85,-1080.93"/>
<polygon fill="#00b3ff" stroke="#00b3ff" stroke-width="2" points="384.63,-1083.07 388.43,-1073.18 379.29,-1078.54 384.63,-1083.07"/>
</g>
<!-- node_35 -->
<g id="node36" class="node">
<title>node_35</title>
<path fill="#d66868" stroke="#000000" d="M708,-1073C708,-1073 664,-1073 664,-1073 658,-1073 652,-1067 652,-1061 652,-1061 652,-1049 652,-1049 652,-1043 658,-1037 664,-1037 664,-1037 708,-1037 708,-1037 714,-1037 720,-1043 720,-1049 720,-1049 720,-1061 720,-1061 720,-1067 714,-1073 708,-1073"/>
<text text-anchor="middle" x="686" y="-1051.5" font-family="SF Pro Text Bold 10" font-size="15.00" fill="#000000">i32 %0</text>
</g>
<!-- node_35&#45;&gt;node_11 -->
<g id="edge48" class="edge">
<title>node_35&#45;&gt;node_11</title>
<path fill="none" stroke="#00b3ff" stroke-width="2" d="M667.53,-1036.84C647.48,-1018.94 613.91,-991.03 581,-973 535.19,-947.91 477.6,-929.29 440.54,-918.79"/>
<polygon fill="#00b3ff" stroke="#00b3ff" stroke-width="2" points="441.24,-915.35 430.66,-916.04 439.36,-922.09 441.24,-915.35"/>
<text text-anchor="middle" x="618" y="-978" font-family="SF Pro Text Bold 10" font-size="15.00">%0</text>
</g>
<!-- node_36 -->
<g id="node37" class="node">
<title>node_36</title>
<path fill="#d66868" stroke="#000000" d="M298.5,-926C298.5,-926 257.5,-926 257.5,-926 251.5,-926 245.5,-920 245.5,-914 245.5,-914 245.5,-902 245.5,-902 245.5,-896 251.5,-890 257.5,-890 257.5,-890 298.5,-890 298.5,-890 304.5,-890 310.5,-896 310.5,-902 310.5,-902 310.5,-914 310.5,-914 310.5,-920 304.5,-926 298.5,-926"/>
<text text-anchor="middle" x="278" y="-904.5" font-family="SF Pro Text Bold 10" font-size="15.00" fill="#000000">i32 %1</text>
</g>
<!-- node_36&#45;&gt;node_12 -->
<g id="edge49" class="edge">
<title>node_36&#45;&gt;node_12</title>
<path fill="none" stroke="#00b3ff" stroke-width="2" d="M292.83,-889.8C314.82,-864.29 356.19,-816.3 381.51,-786.93"/>
<polygon fill="#00b3ff" stroke="#00b3ff" stroke-width="2" points="384.31,-789.04 388.19,-779.18 379.01,-784.47 384.31,-789.04"/>
<text text-anchor="middle" x="355.5" y="-831" font-family="SF Pro Text Bold 10" font-size="15.00">%1</text>
</g>
<!-- node_37 -->
<g id="node38" class="node">
<title>node_37</title>
<path fill="#d66868" stroke="#000000" d="M537,-501C537,-501 507,-501 507,-501 501,-501 495,-495 495,-489 495,-489 495,-477 495,-477 495,-471 501,-465 507,-465 507,-465 537,-465 537,-465 543,-465 549,-471 549,-477 549,-477 549,-489 549,-489 549,-495 543,-501 537,-501"/>
<text text-anchor="middle" x="522" y="-479.5" font-family="SF Pro Text Bold 10" font-size="15.00" fill="#000000">i32 2</text>
</g>
<!-- node_37&#45;&gt;node_15 -->
<g id="edge53" class="edge">
<title>node_37&#45;&gt;node_15</title>
<path fill="none" stroke="#00b3ff" stroke-width="2" d="M507.88,-464.8C486.95,-439.29 447.56,-391.3 423.46,-361.93"/>
<polygon fill="#00b3ff" stroke="#00b3ff" stroke-width="2" points="426.15,-359.69 417.1,-354.18 420.74,-364.13 426.15,-359.69"/>
</g>
</g>
</svg>
