<?xml version="1.0" encoding="UTF-8" standalone="no"?>
<!DOCTYPE svg PUBLIC "-//W3C//DTD SVG 1.1//EN"
 "http://www.w3.org/Graphics/SVG/1.1/DTD/svg11.dtd">
<!-- Generated by graphviz version 2.43.0 (0)
 -->
<!-- Title: examples/fact/O1/fact.c Pages: 1 -->
<svg width="2242pt" height="2502pt"
 viewBox="0.00 0.00 2242.20 2502.20" xmlns="http://www.w3.org/2000/svg" xmlns:xlink="http://www.w3.org/1999/xlink">
<g id="graph0" class="graph" transform="scale(1 1) rotate(0) translate(21.6 2480.6)">
<title>examples/fact/O1/fact.c</title>
<polygon fill="white" stroke="transparent" points="-21.6,21.6 -21.6,-2480.6 2220.6,-2480.6 2220.6,21.6 -21.6,21.6"/>
<g id="clust1" class="cluster">
<title>cluster_func_1</title>
<path fill="#e3e3e3" stroke="#000000" stroke-width="2" d="M20,-1446C20,-1446 871,-1446 871,-1446 877,-1446 883,-1452 883,-1458 883,-1458 883,-2439 883,-2439 883,-2445 877,-2451 871,-2451 871,-2451 20,-2451 20,-2451 14,-2451 8,-2445 8,-2439 8,-2439 8,-1458 8,-1458 8,-1452 14,-1446 20,-1446"/>
<text text-anchor="middle" x="445.5" y="-2431" font-family="SF Pro Text Bold 10" font-size="20.00">fact</text>
</g>
<g id="clust2" class="cluster">
<title>cluster_func_1_bb_1</title>
<path fill="#a4a4a4" stroke="#000000" stroke-width="2" d="M252,-2336C252,-2336 305,-2336 305,-2336 311,-2336 317,-2342 317,-2348 317,-2348 317,-2401 317,-2401 317,-2407 311,-2413 305,-2413 305,-2413 252,-2413 252,-2413 246,-2413 240,-2407 240,-2401 240,-2401 240,-2348 240,-2348 240,-2342 246,-2336 252,-2336"/>
<text text-anchor="middle" x="278.5" y="-2397" font-family="SF Pro Text Bold 10" font-size="15.00">label %1</text>
</g>
<g id="clust3" class="cluster">
<title>cluster_func_1_bb_2</title>
<path fill="#a4a4a4" stroke="#000000" stroke-width="2" d="M181,-1748C181,-1748 441,-1748 441,-1748 447,-1748 453,-1754 453,-1760 453,-1760 453,-2254 453,-2254 453,-2260 447,-2266 441,-2266 441,-2266 181,-2266 181,-2266 175,-2266 169,-2260 169,-2254 169,-2254 169,-1760 169,-1760 169,-1754 175,-1748 181,-1748"/>
<text text-anchor="middle" x="311" y="-2250" font-family="SF Pro Text Bold 10" font-size="15.00">label %2</text>
</g>
<g id="clust4" class="cluster">
<title>cluster_func_1_bb_3</title>
<path fill="#a4a4a4" stroke="#000000" stroke-width="2" d="M555,-1895C555,-1895 863,-1895 863,-1895 869,-1895 875,-1901 875,-1907 875,-1907 875,-2401 875,-2401 875,-2407 869,-2413 863,-2413 863,-2413 555,-2413 555,-2413 549,-2413 543,-2407 543,-2401 543,-2401 543,-1907 543,-1907 543,-1901 549,-1895 555,-1895"/>
<text text-anchor="middle" x="709" y="-2397" font-family="SF Pro Text Bold 10" font-size="15.00">label %6</text>
</g>
<g id="clust5" class="cluster">
<title>cluster_func_1_bb_4</title>
<path fill="#a4a4a4" stroke="#000000" stroke-width="2" d="M28,-1454C28,-1454 149,-1454 149,-1454 155,-1454 161,-1460 161,-1466 161,-1466 161,-1813 161,-1813 161,-1819 155,-1825 149,-1825 149,-1825 28,-1825 28,-1825 22,-1825 16,-1819 16,-1813 16,-1813 16,-1466 16,-1466 16,-1460 22,-1454 28,-1454"/>
<text text-anchor="middle" x="88.5" y="-1809" font-family="SF Pro Text Bold 10" font-size="15.00">label %9</text>
</g>
<g id="clust6" class="cluster">
<title>cluster_func_2</title>
<path fill="#e3e3e3" stroke="#000000" stroke-width="2" d="M903,-8C903,-8 2179,-8 2179,-8 2185,-8 2191,-14 2191,-20 2191,-20 2191,-2439 2191,-2439 2191,-2445 2185,-2451 2179,-2451 2179,-2451 903,-2451 903,-2451 897,-2451 891,-2445 891,-2439 891,-2439 891,-20 891,-20 891,-14 897,-8 903,-8"/>
<text text-anchor="middle" x="1541" y="-2431" font-family="SF Pro Text Bold 10" font-size="20.00">main</text>
</g>
<g id="clust7" class="cluster">
<title>cluster_func_2_bb_1</title>
<path fill="#a4a4a4" stroke="#000000" stroke-width="2" d="M1719,-2042C1719,-2042 1898,-2042 1898,-2042 1904,-2042 1910,-2048 1910,-2054 1910,-2054 1910,-2401 1910,-2401 1910,-2407 1904,-2413 1898,-2413 1898,-2413 1719,-2413 1719,-2413 1713,-2413 1707,-2407 1707,-2401 1707,-2401 1707,-2054 1707,-2054 1707,-2048 1713,-2042 1719,-2042"/>
<text text-anchor="middle" x="1808.5" y="-2397" font-family="SF Pro Text Bold 10" font-size="15.00">label %2</text>
</g>
<g id="clust8" class="cluster">
<title>cluster_func_2_bb_2</title>
<path fill="#a4a4a4" stroke="#000000" stroke-width="2" d="M1930,-1748C1930,-1748 2171,-1748 2171,-1748 2177,-1748 2183,-1754 2183,-1760 2183,-1760 2183,-2107 2183,-2107 2183,-2113 2177,-2119 2171,-2119 2171,-2119 1930,-2119 1930,-2119 1924,-2119 1918,-2113 1918,-2107 1918,-2107 1918,-1760 1918,-1760 1918,-1754 1924,-1748 1930,-1748"/>
<text text-anchor="middle" x="2050.5" y="-2103" font-family="SF Pro Text Bold 10" font-size="15.00">label %4</text>
</g>
<g id="clust9" class="cluster">
<title>cluster_func_2_bb_3</title>
<path fill="#a4a4a4" stroke="#000000" stroke-width="2" d="M1515,-1454C1515,-1454 1687,-1454 1687,-1454 1693,-1454 1699,-1460 1699,-1466 1699,-1466 1699,-2107 1699,-2107 1699,-2113 1693,-2119 1687,-2119 1687,-2119 1515,-2119 1515,-2119 1509,-2119 1503,-2113 1503,-2107 1503,-2107 1503,-1466 1503,-1466 1503,-1460 1509,-1454 1515,-1454"/>
<text text-anchor="middle" x="1601" y="-2103" font-family="SF Pro Text Bold 10" font-size="15.00">label %6</text>
</g>
<g id="clust10" class="cluster">
<title>cluster_func_2_bb_4</title>
<path fill="#a4a4a4" stroke="#000000" stroke-width="2" d="M911,-294C911,-294 1483,-294 1483,-294 1489,-294 1495,-300 1495,-306 1495,-306 1495,-1519 1495,-1519 1495,-1525 1489,-1531 1483,-1531 1483,-1531 911,-1531 911,-1531 905,-1531 899,-1525 899,-1519 899,-1519 899,-306 899,-306 899,-300 905,-294 911,-294"/>
<text text-anchor="middle" x="1197" y="-1515" font-family="SF Pro Text Bold 10" font-size="15.00">label %10</text>
</g>
<g id="clust11" class="cluster">
<title>cluster_func_2_bb_5</title>
<path fill="#a4a4a4" stroke="#000000" stroke-width="2" d="M1515,-294C1515,-294 1835,-294 1835,-294 1841,-294 1847,-300 1847,-306 1847,-306 1847,-637 1847,-637 1847,-643 1841,-649 1835,-649 1835,-649 1515,-649 1515,-649 1509,-649 1503,-643 1503,-637 1503,-637 1503,-306 1503,-306 1503,-300 1509,-294 1515,-294"/>
<text text-anchor="middle" x="1675" y="-633" font-family="SF Pro Text Bold 10" font-size="15.00">label %18</text>
</g>
<g id="clust12" class="cluster">
<title>cluster_func_2_bb_6</title>
<path fill="#a4a4a4" stroke="#000000" stroke-width="2" d="M1789,-16C1789,-16 1910,-16 1910,-16 1916,-16 1922,-22 1922,-28 1922,-28 1922,-228 1922,-228 1922,-234 1916,-240 1910,-240 1910,-240 1789,-240 1789,-240 1783,-240 1777,-234 1777,-228 1777,-228 1777,-28 1777,-28 1777,-22 1783,-16 1789,-16"/>
<text text-anchor="middle" x="1849.5" y="-224" font-family="SF Pro Text Bold 10" font-size="15.00">label %20</text>
</g>
<!-- n0x5afb23322e10 -->
<g id="node1" class="node">
<title>n0x5afb23322e10</title>
<path fill="#6d95df" stroke="#000000" d="M293,-2380C293,-2380 263,-2380 263,-2380 257,-2380 251,-2374 251,-2368 251,-2368 251,-2356 251,-2356 251,-2350 257,-2344 263,-2344 263,-2344 293,-2344 293,-2344 299,-2344 305,-2350 305,-2356 305,-2356 305,-2368 305,-2368 305,-2374 299,-2380 293,-2380"/>
<text text-anchor="middle" x="278" y="-2358.5" font-family="SF Pro Text Bold 10" font-size="15.00" fill="#000000">br</text>
</g>
<!-- n0x5afb23325878 -->
<g id="node2" class="node">
<title>n0x5afb23325878</title>
<path fill="#6d95df" stroke="#000000" d="M293,-2233C293,-2233 263,-2233 263,-2233 257,-2233 251,-2227 251,-2221 251,-2221 251,-2209 251,-2209 251,-2203 257,-2197 263,-2197 263,-2197 293,-2197 293,-2197 299,-2197 305,-2203 305,-2209 305,-2209 305,-2221 305,-2221 305,-2227 299,-2233 293,-2233"/>
<text text-anchor="middle" x="278" y="-2211.5" font-family="SF Pro Text Bold 10" font-size="15.00" fill="#000000">phi</text>
</g>
<!-- n0x5afb23322e10&#45;&gt;n0x5afb23325878 -->
<g id="edge19" class="edge">
<title>n0x5afb23322e10&#45;&gt;n0x5afb23325878</title>
<path fill="none" stroke="#ff8800" stroke-width="5" d="M278,-2343.8C278,-2318.94 278,-2272.74 278,-2243.23"/>
<polygon fill="#ff8800" stroke="#ff8800" stroke-width="5" points="282.38,-2243.18 278,-2233.18 273.63,-2243.18 282.38,-2243.18"/>
</g>
<!-- n0x5afb232dbf38 -->
<g id="node3" class="node">
<title>n0x5afb232dbf38</title>
<path fill="#6d95df" stroke="#000000" d="M433,-2086C433,-2086 403,-2086 403,-2086 397,-2086 391,-2080 391,-2074 391,-2074 391,-2062 391,-2062 391,-2056 397,-2050 403,-2050 403,-2050 433,-2050 433,-2050 439,-2050 445,-2056 445,-2062 445,-2062 445,-2074 445,-2074 445,-2080 439,-2086 433,-2086"/>
<text text-anchor="middle" x="418" y="-2064.5" font-family="SF Pro Text Bold 10" font-size="15.00" fill="#000000">phi</text>
</g>
<!-- n0x5afb23322e10&#45;&gt;n0x5afb232dbf38 -->
<g id="edge21" class="edge">
<title>n0x5afb23322e10&#45;&gt;n0x5afb232dbf38</title>
<path fill="none" stroke="#00b3ff" stroke-width="2" d="M289.76,-2343.99C302.36,-2325.36 322.5,-2294.35 337,-2266 367.23,-2206.92 394.88,-2133.86 408.71,-2095.45"/>
<polygon fill="#00b3ff" stroke="#00b3ff" stroke-width="2" points="412.02,-2096.62 412.08,-2086.02 405.42,-2094.26 412.02,-2096.62"/>
<text text-anchor="middle" x="395.5" y="-2211.5" font-family="SF Pro Text Bold 10" font-size="15.00">i64 %0</text>
</g>
<!-- n0x5afb23325878&#45;&gt;n0x5afb232dbf38 -->
<g id="edge1" class="edge">
<title>n0x5afb23325878&#45;&gt;n0x5afb232dbf38</title>
<path fill="none" stroke="#ff3636" stroke-width="3" d="M250.9,-2202.47C218.44,-2187.12 171.24,-2158.89 195,-2133 219.58,-2106.22 324.38,-2132.83 358,-2119 371.99,-2113.25 385.18,-2103.01 395.61,-2093.29"/>
<polygon fill="#ff3636" stroke="#ff3636" stroke-width="3" points="398.32,-2095.54 403.02,-2086.05 393.42,-2090.54 398.32,-2095.54"/>
</g>
<!-- n0x5afb23322b50 -->
<g id="node8" class="node">
<title>n0x5afb23322b50</title>
<path fill="#6d95df" stroke="#000000" d="M721,-2086C721,-2086 691,-2086 691,-2086 685,-2086 679,-2080 679,-2074 679,-2074 679,-2062 679,-2062 679,-2056 685,-2050 691,-2050 691,-2050 721,-2050 721,-2050 727,-2050 733,-2056 733,-2062 733,-2062 733,-2074 733,-2074 733,-2080 727,-2086 721,-2086"/>
<text text-anchor="middle" x="706" y="-2064.5" font-family="SF Pro Text Bold 10" font-size="15.00" fill="#000000">mul</text>
</g>
<!-- n0x5afb23325878&#45;&gt;n0x5afb23322b50 -->
<g id="edge5" class="edge">
<title>n0x5afb23325878&#45;&gt;n0x5afb23322b50</title>
<path fill="none" stroke="#00b3ff" stroke-width="2" d="M305.06,-2207.84C319.56,-2204.57 337.74,-2200.51 354,-2197 454.28,-2175.36 485.04,-2188.83 580,-2150 615.53,-2135.47 651.97,-2110.77 676.47,-2092.46"/>
<polygon fill="#00b3ff" stroke="#00b3ff" stroke-width="2" points="678.76,-2095.11 684.61,-2086.27 674.53,-2089.53 678.76,-2095.11"/>
<text text-anchor="middle" x="624.5" y="-2138" font-family="SF Pro Text Bold 10" font-size="15.00">%3</text>
</g>
<!-- n0x5afb23326f70 -->
<g id="node11" class="node">
<title>n0x5afb23326f70</title>
<path fill="#6d95df" stroke="#000000" d="M141,-1645C141,-1645 111,-1645 111,-1645 105,-1645 99,-1639 99,-1633 99,-1633 99,-1621 99,-1621 99,-1615 105,-1609 111,-1609 111,-1609 141,-1609 141,-1609 147,-1609 153,-1615 153,-1621 153,-1621 153,-1633 153,-1633 153,-1639 147,-1645 141,-1645"/>
<text text-anchor="middle" x="126" y="-1623.5" font-family="SF Pro Text Bold 10" font-size="15.00" fill="#000000">mul</text>
</g>
<!-- n0x5afb23325878&#45;&gt;n0x5afb23326f70 -->
<g id="edge4" class="edge">
<title>n0x5afb23325878&#45;&gt;n0x5afb23326f70</title>
<path fill="none" stroke="#00b3ff" stroke-width="2" d="M305.11,-2202.68C310.34,-2200.67 315.81,-2198.68 321,-2197 401.72,-2170.91 451.9,-2215.34 506,-2150 529.28,-2121.89 529.45,-2019.52 515,-1986 441.97,-1816.58 243.81,-1692.5 162.03,-1647.01"/>
<polygon fill="#00b3ff" stroke="#00b3ff" stroke-width="2" points="163.56,-1643.86 153.11,-1642.1 160.19,-1649.99 163.56,-1643.86"/>
<text text-anchor="middle" x="502.5" y="-1917.5" font-family="SF Pro Text Bold 10" font-size="15.00">%3</text>
</g>
<!-- n0x5afb2317e490 -->
<g id="node4" class="node">
<title>n0x5afb2317e490</title>
<path fill="#6d95df" stroke="#000000" d="M312,-1939C312,-1939 282,-1939 282,-1939 276,-1939 270,-1933 270,-1927 270,-1927 270,-1915 270,-1915 270,-1909 276,-1903 282,-1903 282,-1903 312,-1903 312,-1903 318,-1903 324,-1909 324,-1915 324,-1915 324,-1927 324,-1927 324,-1933 318,-1939 312,-1939"/>
<text text-anchor="middle" x="297" y="-1917.5" font-family="SF Pro Text Bold 10" font-size="15.00" fill="#000000">icmp</text>
</g>
<!-- n0x5afb232dbf38&#45;&gt;n0x5afb2317e490 -->
<g id="edge2" class="edge">
<title>n0x5afb232dbf38&#45;&gt;n0x5afb2317e490</title>
<path fill="none" stroke="#ff3636" stroke-width="3" d="M390.79,-2055.66C359.9,-2042.19 312.42,-2019.47 302,-2003 292.05,-1987.28 291.04,-1966.22 292.39,-1949.51"/>
<polygon fill="#ff3636" stroke="#ff3636" stroke-width="3" points="295.9,-1949.6 293.54,-1939.27 288.94,-1948.81 295.9,-1949.6"/>
</g>
<!-- n0x5afb232dbf38&#45;&gt;n0x5afb2317e490 -->
<g id="edge6" class="edge">
<title>n0x5afb232dbf38&#45;&gt;n0x5afb2317e490</title>
<path fill="none" stroke="#00b3ff" stroke-width="2" d="M400.57,-2049.88C388.02,-2037.29 370.93,-2019.56 357,-2003 341.98,-1985.15 326.33,-1963.92 314.78,-1947.68"/>
<polygon fill="#00b3ff" stroke="#00b3ff" stroke-width="2" points="317.44,-1945.38 308.82,-1939.22 311.72,-1949.41 317.44,-1945.38"/>
<text text-anchor="middle" x="369" y="-1991" font-family="SF Pro Text Bold 10" font-size="15.00">%4</text>
</g>
<!-- n0x5afb23322cb0 -->
<g id="node7" class="node">
<title>n0x5afb23322cb0</title>
<path fill="#6d95df" stroke="#000000" d="M595,-2233C595,-2233 565,-2233 565,-2233 559,-2233 553,-2227 553,-2221 553,-2221 553,-2209 553,-2209 553,-2203 559,-2197 565,-2197 565,-2197 595,-2197 595,-2197 601,-2197 607,-2203 607,-2209 607,-2209 607,-2221 607,-2221 607,-2227 601,-2233 595,-2233"/>
<text text-anchor="middle" x="580" y="-2211.5" font-family="SF Pro Text Bold 10" font-size="15.00" fill="#000000">add</text>
</g>
<!-- n0x5afb232dbf38&#45;&gt;n0x5afb23322cb0 -->
<g id="edge8" class="edge">
<title>n0x5afb232dbf38&#45;&gt;n0x5afb23322cb0</title>
<path fill="none" stroke="#00b3ff" stroke-width="2" d="M445.18,-2084.93C466.63,-2096.63 497.71,-2111.7 527,-2119 552.92,-2125.46 748.67,-2113.57 767,-2133 813.78,-2182.59 684.19,-2203.42 617.24,-2210.69"/>
<polygon fill="#00b3ff" stroke="#00b3ff" stroke-width="2" points="616.65,-2207.23 607.06,-2211.74 617.37,-2214.19 616.65,-2207.23"/>
<text text-anchor="middle" x="788" y="-2138" font-family="SF Pro Text Bold 10" font-size="15.00">%4</text>
</g>
<!-- n0x5afb232dbf38&#45;&gt;n0x5afb23322b50 -->
<g id="edge7" class="edge">
<title>n0x5afb232dbf38&#45;&gt;n0x5afb23322b50</title>
<path fill="none" stroke="#00b3ff" stroke-width="2" d="M445.09,-2068C496.77,-2068 609.49,-2068 668.42,-2068"/>
<polygon fill="#00b3ff" stroke="#00b3ff" stroke-width="2" points="668.77,-2071.5 678.77,-2068 668.77,-2064.5 668.77,-2071.5"/>
<text text-anchor="middle" x="562" y="-2076" font-family="SF Pro Text Bold 10" font-size="15.00">%4</text>
</g>
<!-- n0x5afb2323cca0 -->
<g id="node5" class="node">
<title>n0x5afb2323cca0</title>
<path fill="#6d95df" stroke="#000000" d="M219,-1792C219,-1792 189,-1792 189,-1792 183,-1792 177,-1786 177,-1780 177,-1780 177,-1768 177,-1768 177,-1762 183,-1756 189,-1756 189,-1756 219,-1756 219,-1756 225,-1756 231,-1762 231,-1768 231,-1768 231,-1780 231,-1780 231,-1786 225,-1792 219,-1792"/>
<text text-anchor="middle" x="204" y="-1770.5" font-family="SF Pro Text Bold 10" font-size="15.00" fill="#000000">br</text>
</g>
<!-- n0x5afb2317e490&#45;&gt;n0x5afb2323cca0 -->
<g id="edge3" class="edge">
<title>n0x5afb2317e490&#45;&gt;n0x5afb2323cca0</title>
<path fill="none" stroke="#ff3636" stroke-width="3" d="M269.69,-1904.14C252.75,-1892.87 231.99,-1876.17 220,-1856 210.39,-1839.83 206.43,-1818.95 204.85,-1802.44"/>
<polygon fill="#ff3636" stroke="#ff3636" stroke-width="3" points="208.33,-1802.03 204.12,-1792.31 201.35,-1802.54 208.33,-1802.03"/>
</g>
<!-- n0x5afb2317e490&#45;&gt;n0x5afb2323cca0 -->
<g id="edge9" class="edge">
<title>n0x5afb2317e490&#45;&gt;n0x5afb2323cca0</title>
<path fill="none" stroke="#00b3ff" stroke-width="2" d="M285.97,-1902.8C269.75,-1877.51 239.35,-1830.11 220.48,-1800.69"/>
<polygon fill="#00b3ff" stroke="#00b3ff" stroke-width="2" points="223.36,-1798.71 215.02,-1792.18 217.47,-1802.49 223.36,-1798.71"/>
<text text-anchor="middle" x="265.5" y="-1844" font-family="SF Pro Text Bold 10" font-size="15.00">%5</text>
</g>
<!-- n0x5afb2323cca0&#45;&gt;n0x5afb23322cb0 -->
<g id="edge23" class="edge">
<title>n0x5afb2323cca0&#45;&gt;n0x5afb23322cb0</title>
<path fill="none" stroke="#ff8800" stroke-width="5" d="M199.58,-1792.22C186.54,-1847.3 154.15,-2021.31 237,-2119 257.14,-2142.75 458.26,-2188.01 542.84,-2206.17"/>
<polygon fill="#ff8800" stroke="#ff8800" stroke-width="5" points="542.09,-2210.48 552.79,-2208.3 543.92,-2201.93 542.09,-2210.48"/>
</g>
<!-- n0x5afb2323cca0&#45;&gt;n0x5afb23326f70 -->
<g id="edge24" class="edge">
<title>n0x5afb2323cca0&#45;&gt;n0x5afb23326f70</title>
<path fill="none" stroke="#ff8800" stroke-width="5" d="M194.75,-1755.8C181.2,-1730.62 155.87,-1683.52 140.03,-1654.07"/>
<polygon fill="#ff8800" stroke="#ff8800" stroke-width="5" points="143.83,-1651.91 135.24,-1645.18 136.13,-1656.06 143.83,-1651.91"/>
</g>
<!-- u0x5afb2317e470 -->
<g id="node6" class="node">
<title>u0x5afb2317e470</title>
<path fill="#d66868" stroke="#000000" d="M314,-2086C314,-2086 282,-2086 282,-2086 276,-2086 270,-2080 270,-2074 270,-2074 270,-2062 270,-2062 270,-2056 276,-2050 282,-2050 282,-2050 314,-2050 314,-2050 320,-2050 326,-2056 326,-2062 326,-2062 326,-2074 326,-2074 326,-2080 320,-2086 314,-2086"/>
<text text-anchor="middle" x="298" y="-2064.5" font-family="SF Pro Text Bold 10" font-size="15.00" fill="#000000">i64 2</text>
</g>
<!-- u0x5afb2317e470&#45;&gt;n0x5afb2317e490 -->
<g id="edge10" class="edge">
<title>u0x5afb2317e470&#45;&gt;n0x5afb2317e490</title>
<path fill="none" stroke="#00b3ff" stroke-width="2" d="M296.98,-2049.89C296.26,-2037.01 295.37,-2018.9 295,-2003 294.58,-1985.06 295.07,-1964.89 295.68,-1949.16"/>
<polygon fill="#00b3ff" stroke="#00b3ff" stroke-width="2" points="299.18,-1949.2 296.1,-1939.07 292.18,-1948.91 299.18,-1949.2"/>
</g>
<!-- n0x5afb23322cb0&#45;&gt;n0x5afb232dbf38 -->
<g id="edge13" class="edge">
<title>n0x5afb23322cb0&#45;&gt;n0x5afb232dbf38</title>
<path fill="none" stroke="#00b3ff" stroke-width="2" d="M560.78,-2196.8C532.04,-2171.07 477.74,-2122.47 445.02,-2093.18"/>
<polygon fill="#00b3ff" stroke="#00b3ff" stroke-width="2" points="446.98,-2090.24 437.19,-2086.18 442.31,-2095.46 446.98,-2090.24"/>
<text text-anchor="middle" x="515" y="-2138" font-family="SF Pro Text Bold 10" font-size="15.00">%7</text>
</g>
<!-- n0x5afb23322cb0&#45;&gt;n0x5afb23322b50 -->
<g id="edge11" class="edge">
<title>n0x5afb23322cb0&#45;&gt;n0x5afb23322b50</title>
<path fill="none" stroke="#ff3636" stroke-width="3" d="M607.07,-2212.01C671.19,-2206.68 829.33,-2189.7 861,-2150 896.03,-2106.1 799.5,-2083.35 743.25,-2074.11"/>
<polygon fill="#ff3636" stroke="#ff3636" stroke-width="3" points="743.68,-2070.63 733.26,-2072.53 742.59,-2077.54 743.68,-2070.63"/>
</g>
<!-- n0x5afb23322b50&#45;&gt;n0x5afb23325878 -->
<g id="edge15" class="edge">
<title>n0x5afb23322b50&#45;&gt;n0x5afb23325878</title>
<path fill="none" stroke="#00b3ff" stroke-width="2" d="M699.58,-2086.04C691.51,-2104.95 675.77,-2134.78 652,-2150 539.09,-2222.31 485.71,-2171.91 354,-2197 341.34,-2199.41 327.57,-2202.38 315.28,-2205.17"/>
<polygon fill="#00b3ff" stroke="#00b3ff" stroke-width="2" points="314.32,-2201.79 305.35,-2207.44 315.88,-2208.62 314.32,-2201.79"/>
<text text-anchor="middle" x="681" y="-2138" font-family="SF Pro Text Bold 10" font-size="15.00">%8</text>
</g>
<!-- n0x5afb233230c0 -->
<g id="node9" class="node">
<title>n0x5afb233230c0</title>
<path fill="#6d95df" stroke="#000000" d="M593,-1939C593,-1939 563,-1939 563,-1939 557,-1939 551,-1933 551,-1927 551,-1927 551,-1915 551,-1915 551,-1909 557,-1903 563,-1903 563,-1903 593,-1903 593,-1903 599,-1903 605,-1909 605,-1915 605,-1915 605,-1927 605,-1927 605,-1933 599,-1939 593,-1939"/>
<text text-anchor="middle" x="578" y="-1917.5" font-family="SF Pro Text Bold 10" font-size="15.00" fill="#000000">br</text>
</g>
<!-- n0x5afb23322b50&#45;&gt;n0x5afb233230c0 -->
<g id="edge12" class="edge">
<title>n0x5afb23322b50&#45;&gt;n0x5afb233230c0</title>
<path fill="none" stroke="#ff3636" stroke-width="3" d="M690.81,-2049.8C668.3,-2024.29 625.93,-1976.3 600.01,-1946.93"/>
<polygon fill="#ff3636" stroke="#ff3636" stroke-width="3" points="602.41,-1944.36 593.17,-1939.18 597.16,-1948.99 602.41,-1944.36"/>
</g>
<!-- n0x5afb233230c0&#45;&gt;n0x5afb23325878 -->
<g id="edge20" class="edge">
<title>n0x5afb233230c0&#45;&gt;n0x5afb23325878</title>
<path fill="none" stroke="#ff8800" stroke-width="5" d="M579.86,-1939.14C583.41,-1981.38 586.24,-2091.33 528,-2150 461.54,-2216.96 411.13,-2169.13 321,-2197 318.88,-2197.66 316.72,-2198.37 314.55,-2199.12"/>
<polygon fill="#ff8800" stroke="#ff8800" stroke-width="5" points="312.97,-2195.03 305.07,-2202.57 315.97,-2203.25 312.97,-2195.03"/>
</g>
<!-- n0x5afb233230c0&#45;&gt;n0x5afb232dbf38 -->
<g id="edge22" class="edge">
<title>n0x5afb233230c0&#45;&gt;n0x5afb232dbf38</title>
<path fill="none" stroke="#00b3ff" stroke-width="2" d="M559.04,-1939.18C530.67,-1964.89 477.05,-2013.49 444.72,-2042.79"/>
<polygon fill="#00b3ff" stroke="#00b3ff" stroke-width="2" points="442.04,-2040.49 436.98,-2049.8 446.74,-2045.68 442.04,-2040.49"/>
<text text-anchor="middle" x="529" y="-1991" font-family="SF Pro Text Bold 10" font-size="15.00">i64 %7</text>
</g>
<!-- u0x5afb23322c90 -->
<g id="node10" class="node">
<title>u0x5afb23322c90</title>
<path fill="#d66868" stroke="#000000" d="M600.5,-2380C600.5,-2380 563.5,-2380 563.5,-2380 557.5,-2380 551.5,-2374 551.5,-2368 551.5,-2368 551.5,-2356 551.5,-2356 551.5,-2350 557.5,-2344 563.5,-2344 563.5,-2344 600.5,-2344 600.5,-2344 606.5,-2344 612.5,-2350 612.5,-2356 612.5,-2356 612.5,-2368 612.5,-2368 612.5,-2374 606.5,-2380 600.5,-2380"/>
<text text-anchor="middle" x="582" y="-2358.5" font-family="SF Pro Text Bold 10" font-size="15.00" fill="#000000">i64 &#45;1</text>
</g>
<!-- u0x5afb23322c90&#45;&gt;n0x5afb23322cb0 -->
<g id="edge14" class="edge">
<title>u0x5afb23322c90&#45;&gt;n0x5afb23322cb0</title>
<path fill="none" stroke="#00b3ff" stroke-width="2" d="M581.76,-2343.8C581.42,-2318.94 580.78,-2272.74 580.38,-2243.23"/>
<polygon fill="#00b3ff" stroke="#00b3ff" stroke-width="2" points="583.87,-2243.13 580.24,-2233.18 576.88,-2243.23 583.87,-2243.13"/>
</g>
<!-- n0x5afb23323220 -->
<g id="node12" class="node">
<title>n0x5afb23323220</title>
<path fill="#6d95df" stroke="#000000" d="M66,-1498C66,-1498 36,-1498 36,-1498 30,-1498 24,-1492 24,-1486 24,-1486 24,-1474 24,-1474 24,-1468 30,-1462 36,-1462 36,-1462 66,-1462 66,-1462 72,-1462 78,-1468 78,-1474 78,-1474 78,-1486 78,-1486 78,-1492 72,-1498 66,-1498"/>
<text text-anchor="middle" x="51" y="-1476.5" font-family="SF Pro Text Bold 10" font-size="15.00" fill="#000000">ret</text>
</g>
<!-- n0x5afb23326f70&#45;&gt;n0x5afb23323220 -->
<g id="edge16" class="edge">
<title>n0x5afb23326f70&#45;&gt;n0x5afb23323220</title>
<path fill="none" stroke="#ff3636" stroke-width="3" d="M98.88,-1609.05C83.41,-1597.76 65.3,-1581.46 56,-1562 48.02,-1545.32 46.91,-1524.45 47.72,-1508.07"/>
<polygon fill="#ff3636" stroke="#ff3636" stroke-width="3" points="51.22,-1508.28 48.48,-1498.05 44.24,-1507.76 51.22,-1508.28"/>
</g>
<!-- n0x5afb23326f70&#45;&gt;n0x5afb23323220 -->
<g id="edge17" class="edge">
<title>n0x5afb23326f70&#45;&gt;n0x5afb23323220</title>
<path fill="none" stroke="#00b3ff" stroke-width="2" d="M117.1,-1608.8C104.08,-1583.62 79.72,-1536.52 64.49,-1507.07"/>
<polygon fill="#00b3ff" stroke="#00b3ff" stroke-width="2" points="67.59,-1505.45 59.89,-1498.18 61.37,-1508.67 67.59,-1505.45"/>
<text text-anchor="middle" x="106.5" y="-1550" font-family="SF Pro Text Bold 10" font-size="15.00">%10</text>
</g>
<!-- u0x5afb23326f50 -->
<g id="node13" class="node">
<title>u0x5afb23326f50</title>
<path fill="#d66868" stroke="#000000" d="M100,-1792C100,-1792 70,-1792 70,-1792 64,-1792 58,-1786 58,-1780 58,-1780 58,-1768 58,-1768 58,-1762 64,-1756 70,-1756 70,-1756 100,-1756 100,-1756 106,-1756 112,-1762 112,-1768 112,-1768 112,-1780 112,-1780 112,-1786 106,-1792 100,-1792"/>
<text text-anchor="middle" x="85" y="-1770.5" font-family="SF Pro Text Bold 10" font-size="15.00" fill="#000000">i64 1</text>
</g>
<!-- u0x5afb23326f50&#45;&gt;n0x5afb23326f70 -->
<g id="edge18" class="edge">
<title>u0x5afb23326f50&#45;&gt;n0x5afb23326f70</title>
<path fill="none" stroke="#00b3ff" stroke-width="2" d="M89.86,-1755.8C96.92,-1730.83 110.07,-1684.34 118.41,-1654.84"/>
<polygon fill="#00b3ff" stroke="#00b3ff" stroke-width="2" points="121.79,-1655.76 121.14,-1645.18 115.05,-1653.85 121.79,-1655.76"/>
</g>
<!-- n0x5afb23325ad0 -->
<g id="node14" class="node">
<title>n0x5afb23325ad0</title>
<path fill="#6d95df" stroke="#000000" d="M1810,-2233C1810,-2233 1780,-2233 1780,-2233 1774,-2233 1768,-2227 1768,-2221 1768,-2221 1768,-2209 1768,-2209 1768,-2203 1774,-2197 1780,-2197 1780,-2197 1810,-2197 1810,-2197 1816,-2197 1822,-2203 1822,-2209 1822,-2209 1822,-2221 1822,-2221 1822,-2227 1816,-2233 1810,-2233"/>
<text text-anchor="middle" x="1795" y="-2211.5" font-family="SF Pro Text Bold 10" font-size="15.00" fill="#000000">icmp</text>
</g>
<!-- n0x5afb23325bf0 -->
<g id="node15" class="node">
<title>n0x5afb23325bf0</title>
<path fill="#6d95df" stroke="#000000" d="M1810,-2086C1810,-2086 1780,-2086 1780,-2086 1774,-2086 1768,-2080 1768,-2074 1768,-2074 1768,-2062 1768,-2062 1768,-2056 1774,-2050 1780,-2050 1780,-2050 1810,-2050 1810,-2050 1816,-2050 1822,-2056 1822,-2062 1822,-2062 1822,-2074 1822,-2074 1822,-2080 1816,-2086 1810,-2086"/>
<text text-anchor="middle" x="1795" y="-2064.5" font-family="SF Pro Text Bold 10" font-size="15.00" fill="#000000">br</text>
</g>
<!-- n0x5afb23325ad0&#45;&gt;n0x5afb23325bf0 -->
<g id="edge25" class="edge">
<title>n0x5afb23325ad0&#45;&gt;n0x5afb23325bf0</title>
<path fill="none" stroke="#ff3636" stroke-width="3" d="M1795,-2196.8C1795,-2171.94 1795,-2125.74 1795,-2096.23"/>
<polygon fill="#ff3636" stroke="#ff3636" stroke-width="3" points="1798.5,-2096.18 1795,-2086.18 1791.5,-2096.18 1798.5,-2096.18"/>
</g>
<!-- n0x5afb23325ad0&#45;&gt;n0x5afb23325bf0 -->
<g id="edge26" class="edge">
<title>n0x5afb23325ad0&#45;&gt;n0x5afb23325bf0</title>
<path fill="none" stroke="#00b3ff" stroke-width="2" d="M1795.68,-2196.89C1796.16,-2184 1796.75,-2165.89 1797,-2150 1797.28,-2132.06 1796.78,-2111.89 1796.22,-2096.16"/>
<polygon fill="#00b3ff" stroke="#00b3ff" stroke-width="2" points="1799.71,-2095.92 1795.82,-2086.06 1792.72,-2096.19 1799.71,-2095.92"/>
<text text-anchor="middle" x="1808.5" y="-2138" font-family="SF Pro Text Bold 10" font-size="15.00">%3</text>
</g>
<!-- n0x5afb23328880 -->
<g id="node18" class="node">
<title>n0x5afb23328880</title>
<path fill="#6d95df" stroke="#000000" d="M1968,-1939C1968,-1939 1938,-1939 1938,-1939 1932,-1939 1926,-1933 1926,-1927 1926,-1927 1926,-1915 1926,-1915 1926,-1909 1932,-1903 1938,-1903 1938,-1903 1968,-1903 1968,-1903 1974,-1903 1980,-1909 1980,-1915 1980,-1915 1980,-1927 1980,-1927 1980,-1933 1974,-1939 1968,-1939"/>
<text text-anchor="middle" x="1953" y="-1917.5" font-family="SF Pro Text Bold 10" font-size="15.00" fill="#000000">call</text>
</g>
<!-- n0x5afb23325bf0&#45;&gt;n0x5afb23328880 -->
<g id="edge69" class="edge">
<title>n0x5afb23325bf0&#45;&gt;n0x5afb23328880</title>
<path fill="none" stroke="#ff8800" stroke-width="5" d="M1813.75,-2049.8C1841.78,-2024.07 1894.73,-1975.47 1926.65,-1946.18"/>
<polygon fill="#ff8800" stroke="#ff8800" stroke-width="5" points="1929.87,-1949.17 1934.28,-1939.18 1923.95,-1942.72 1929.87,-1949.17"/>
</g>
<!-- n0x5afb233282e0 -->
<g id="node22" class="node">
<title>n0x5afb233282e0</title>
<path fill="#6d95df" stroke="#000000" d="M1679,-1939C1679,-1939 1649,-1939 1649,-1939 1643,-1939 1637,-1933 1637,-1927 1637,-1927 1637,-1915 1637,-1915 1637,-1909 1643,-1903 1649,-1903 1649,-1903 1679,-1903 1679,-1903 1685,-1903 1691,-1909 1691,-1915 1691,-1915 1691,-1927 1691,-1927 1691,-1933 1685,-1939 1679,-1939"/>
<text text-anchor="middle" x="1664" y="-1917.5" font-family="SF Pro Text Bold 10" font-size="15.00" fill="#000000">call</text>
</g>
<!-- n0x5afb23325bf0&#45;&gt;n0x5afb233282e0 -->
<g id="edge70" class="edge">
<title>n0x5afb23325bf0&#45;&gt;n0x5afb233282e0</title>
<path fill="none" stroke="#ff8800" stroke-width="5" d="M1779.46,-2049.8C1756.41,-2024.29 1713.05,-1976.3 1686.53,-1946.93"/>
<polygon fill="#ff8800" stroke="#ff8800" stroke-width="5" points="1689.47,-1943.67 1679.52,-1939.18 1682.98,-1949.53 1689.47,-1943.67"/>
</g>
<!-- u0x5afb23325a90 -->
<g id="node16" class="node">
<title>u0x5afb23325a90</title>
<path fill="#d66868" stroke="#000000" d="M1890,-2380C1890,-2380 1846,-2380 1846,-2380 1840,-2380 1834,-2374 1834,-2368 1834,-2368 1834,-2356 1834,-2356 1834,-2350 1840,-2344 1846,-2344 1846,-2344 1890,-2344 1890,-2344 1896,-2344 1902,-2350 1902,-2356 1902,-2356 1902,-2368 1902,-2368 1902,-2374 1896,-2380 1890,-2380"/>
<text text-anchor="middle" x="1868" y="-2358.5" font-family="SF Pro Text Bold 10" font-size="15.00" fill="#000000">i32 %0</text>
</g>
<!-- u0x5afb23325a90&#45;&gt;n0x5afb23325ad0 -->
<g id="edge27" class="edge">
<title>u0x5afb23325a90&#45;&gt;n0x5afb23325ad0</title>
<path fill="none" stroke="#00b3ff" stroke-width="2" d="M1859.34,-2343.8C1846.72,-2318.72 1823.16,-2271.93 1808.32,-2242.46"/>
<polygon fill="#00b3ff" stroke="#00b3ff" stroke-width="2" points="1811.27,-2240.54 1803.65,-2233.18 1805.02,-2243.69 1811.27,-2240.54"/>
<text text-anchor="middle" x="1845" y="-2285" font-family="SF Pro Text Bold 10" font-size="15.00">%0</text>
</g>
<!-- u0x5afb23325ab0 -->
<g id="node17" class="node">
<title>u0x5afb23325ab0</title>
<path fill="#d66868" stroke="#000000" d="M1757,-2380C1757,-2380 1727,-2380 1727,-2380 1721,-2380 1715,-2374 1715,-2368 1715,-2368 1715,-2356 1715,-2356 1715,-2350 1721,-2344 1727,-2344 1727,-2344 1757,-2344 1757,-2344 1763,-2344 1769,-2350 1769,-2356 1769,-2356 1769,-2368 1769,-2368 1769,-2374 1763,-2380 1757,-2380"/>
<text text-anchor="middle" x="1742" y="-2358.5" font-family="SF Pro Text Bold 10" font-size="15.00" fill="#000000">i32 2</text>
</g>
<!-- u0x5afb23325ab0&#45;&gt;n0x5afb23325ad0 -->
<g id="edge28" class="edge">
<title>u0x5afb23325ab0&#45;&gt;n0x5afb23325ad0</title>
<path fill="none" stroke="#00b3ff" stroke-width="2" d="M1748.29,-2343.8C1757.41,-2318.83 1774.41,-2272.34 1785.19,-2242.84"/>
<polygon fill="#00b3ff" stroke="#00b3ff" stroke-width="2" points="1788.57,-2243.77 1788.72,-2233.18 1782,-2241.37 1788.57,-2243.77"/>
</g>
<!-- n0x5afb23325b40 -->
<g id="node19" class="node">
<title>n0x5afb23325b40</title>
<path fill="#6d95df" stroke="#000000" d="M1968,-1792C1968,-1792 1938,-1792 1938,-1792 1932,-1792 1926,-1786 1926,-1780 1926,-1780 1926,-1768 1926,-1768 1926,-1762 1932,-1756 1938,-1756 1938,-1756 1968,-1756 1968,-1756 1974,-1756 1980,-1762 1980,-1768 1980,-1768 1980,-1780 1980,-1780 1980,-1786 1974,-1792 1968,-1792"/>
<text text-anchor="middle" x="1953" y="-1770.5" font-family="SF Pro Text Bold 10" font-size="15.00" fill="#000000">br</text>
</g>
<!-- n0x5afb23328880&#45;&gt;n0x5afb23325b40 -->
<g id="edge29" class="edge">
<title>n0x5afb23328880&#45;&gt;n0x5afb23325b40</title>
<path fill="none" stroke="#ff3636" stroke-width="3" d="M1953,-1902.8C1953,-1877.94 1953,-1831.74 1953,-1802.23"/>
<polygon fill="#ff3636" stroke="#ff3636" stroke-width="3" points="1956.5,-1802.18 1953,-1792.18 1949.5,-1802.18 1956.5,-1802.18"/>
</g>
<!-- n0x5afb23322708 -->
<g id="node49" class="node">
<title>n0x5afb23322708</title>
<path fill="#6d95df" stroke="#000000" d="M1827,-207C1827,-207 1797,-207 1797,-207 1791,-207 1785,-201 1785,-195 1785,-195 1785,-183 1785,-183 1785,-177 1791,-171 1797,-171 1797,-171 1827,-171 1827,-171 1833,-171 1839,-177 1839,-183 1839,-183 1839,-195 1839,-195 1839,-201 1833,-207 1827,-207"/>
<text text-anchor="middle" x="1812" y="-185.5" font-family="SF Pro Text Bold 10" font-size="15.00" fill="#000000">phi</text>
</g>
<!-- n0x5afb23325b40&#45;&gt;n0x5afb23322708 -->
<g id="edge73" class="edge">
<title>n0x5afb23325b40&#45;&gt;n0x5afb23322708</title>
<path fill="none" stroke="#ff8800" stroke-width="5" d="M1948.26,-1755.74C1941.26,-1728.73 1929,-1674.69 1929,-1628 1929,-1628 1929,-1628 1929,-319 1929,-270.15 1882.4,-231.58 1848.02,-209.77"/>
<polygon fill="#ff8800" stroke="#ff8800" stroke-width="5" points="1849.95,-205.82 1839.14,-204.33 1845.38,-213.28 1849.95,-205.82"/>
</g>
<!-- u0x5afb23328840 -->
<g id="node20" class="node">
<title>u0x5afb23328840</title>
<path fill="#d66868" stroke="#000000" d="M2163,-2086C2163,-2086 2095,-2086 2095,-2086 2089,-2086 2083,-2080 2083,-2074 2083,-2074 2083,-2062 2083,-2062 2083,-2056 2089,-2050 2095,-2050 2095,-2050 2163,-2050 2163,-2050 2169,-2050 2175,-2056 2175,-2062 2175,-2062 2175,-2074 2175,-2074 2175,-2080 2169,-2086 2163,-2086"/>
<text text-anchor="middle" x="2129" y="-2064.5" font-family="SF Pro Text Bold 10" font-size="15.00" fill="#000000">ptr @str.2</text>
</g>
<!-- u0x5afb23328840&#45;&gt;n0x5afb23328880 -->
<g id="edge30" class="edge">
<title>u0x5afb23328840&#45;&gt;n0x5afb23328880</title>
<path fill="none" stroke="#00b3ff" stroke-width="2" d="M2108.12,-2049.8C2076.76,-2023.96 2017.41,-1975.06 1981.9,-1945.81"/>
<polygon fill="#00b3ff" stroke="#00b3ff" stroke-width="2" points="1983.8,-1942.84 1973.85,-1939.18 1979.35,-1948.24 1983.8,-1942.84"/>
</g>
<!-- u0x5afb23328860 -->
<g id="node21" class="node">
<title>u0x5afb23328860</title>
<path fill="#d66868" stroke="#000000" d="M2005.5,-2086C2005.5,-2086 1938.5,-2086 1938.5,-2086 1932.5,-2086 1926.5,-2080 1926.5,-2074 1926.5,-2074 1926.5,-2062 1926.5,-2062 1926.5,-2056 1932.5,-2050 1938.5,-2050 1938.5,-2050 2005.5,-2050 2005.5,-2050 2011.5,-2050 2017.5,-2056 2017.5,-2062 2017.5,-2062 2017.5,-2074 2017.5,-2074 2017.5,-2080 2011.5,-2086 2005.5,-2086"/>
<text text-anchor="middle" x="1972" y="-2064.5" font-family="SF Pro Text Bold 10" font-size="15.00" fill="#000000">ptr @puts</text>
</g>
<!-- u0x5afb23328860&#45;&gt;n0x5afb23328880 -->
<g id="edge31" class="edge">
<title>u0x5afb23328860&#45;&gt;n0x5afb23328880</title>
<path fill="none" stroke="#00b3ff" stroke-width="2" d="M1969.75,-2049.8C1966.49,-2024.94 1960.44,-1978.74 1956.57,-1949.23"/>
<polygon fill="#00b3ff" stroke="#00b3ff" stroke-width="2" points="1960.02,-1948.64 1955.25,-1939.18 1953.08,-1949.55 1960.02,-1948.64"/>
</g>
<!-- n0x5afb23328360 -->
<g id="node23" class="node">
<title>n0x5afb23328360</title>
<path fill="#6d95df" stroke="#000000" d="M1674,-1792C1674,-1792 1644,-1792 1644,-1792 1638,-1792 1632,-1786 1632,-1780 1632,-1780 1632,-1768 1632,-1768 1632,-1762 1638,-1756 1644,-1756 1644,-1756 1674,-1756 1674,-1756 1680,-1756 1686,-1762 1686,-1768 1686,-1768 1686,-1780 1686,-1780 1686,-1786 1680,-1792 1674,-1792"/>
<text text-anchor="middle" x="1659" y="-1770.5" font-family="SF Pro Text Bold 10" font-size="15.00" fill="#000000">load</text>
</g>
<!-- n0x5afb233282e0&#45;&gt;n0x5afb23328360 -->
<g id="edge32" class="edge">
<title>n0x5afb233282e0&#45;&gt;n0x5afb23328360</title>
<path fill="none" stroke="#ff3636" stroke-width="3" d="M1640.23,-1902.74C1626.51,-1891.24 1610.53,-1874.81 1603,-1856 1594.63,-1835.08 1609.72,-1814.23 1626.34,-1798.92"/>
<polygon fill="#ff3636" stroke="#ff3636" stroke-width="3" points="1628.72,-1801.49 1634,-1792.3 1624.15,-1796.19 1628.72,-1801.49"/>
</g>
<!-- n0x5afb233282e0&#45;&gt;n0x5afb23328360 -->
<g id="edge35" class="edge">
<title>n0x5afb233282e0&#45;&gt;n0x5afb23328360</title>
<path fill="none" stroke="#00b3ff" stroke-width="2" d="M1663.41,-1902.8C1662.55,-1877.94 1660.96,-1831.74 1659.94,-1802.23"/>
<polygon fill="#00b3ff" stroke="#00b3ff" stroke-width="2" points="1663.44,-1802.05 1659.59,-1792.18 1656.44,-1802.3 1663.44,-1802.05"/>
<text text-anchor="middle" x="1672" y="-1844" font-family="SF Pro Text Bold 10" font-size="15.00">%7</text>
</g>
<!-- n0x5afb23328400 -->
<g id="node24" class="node">
<title>n0x5afb23328400</title>
<path fill="#6d95df" stroke="#000000" d="M1644,-1645C1644,-1645 1614,-1645 1614,-1645 1608,-1645 1602,-1639 1602,-1633 1602,-1633 1602,-1621 1602,-1621 1602,-1615 1608,-1609 1614,-1609 1614,-1609 1644,-1609 1644,-1609 1650,-1609 1656,-1615 1656,-1621 1656,-1621 1656,-1633 1656,-1633 1656,-1639 1650,-1645 1644,-1645"/>
<text text-anchor="middle" x="1629" y="-1623.5" font-family="SF Pro Text Bold 10" font-size="15.00" fill="#000000">icmp</text>
</g>
<!-- n0x5afb23328360&#45;&gt;n0x5afb23328400 -->
<g id="edge33" class="edge">
<title>n0x5afb23328360&#45;&gt;n0x5afb23328400</title>
<path fill="none" stroke="#ff3636" stroke-width="3" d="M1659.47,-1755.72C1659.56,-1739.17 1658.76,-1713.6 1654,-1692 1651.2,-1679.3 1646.25,-1665.8 1641.49,-1654.5"/>
<polygon fill="#ff3636" stroke="#ff3636" stroke-width="3" points="1644.63,-1652.95 1637.41,-1645.2 1638.22,-1655.76 1644.63,-1652.95"/>
</g>
<!-- n0x5afb23328360&#45;&gt;n0x5afb23328400 -->
<g id="edge37" class="edge">
<title>n0x5afb23328360&#45;&gt;n0x5afb23328400</title>
<path fill="none" stroke="#00b3ff" stroke-width="2" d="M1642.87,-1755.81C1632.7,-1743.73 1620.48,-1726.64 1615,-1709 1609.51,-1691.34 1613.17,-1670.8 1618.12,-1654.82"/>
<polygon fill="#00b3ff" stroke="#00b3ff" stroke-width="2" points="1621.54,-1655.65 1621.48,-1645.06 1614.92,-1653.38 1621.54,-1655.65"/>
<text text-anchor="middle" x="1627" y="-1697" font-family="SF Pro Text Bold 10" font-size="15.00">%8</text>
</g>
<!-- n0x5afb23328520 -->
<g id="node25" class="node">
<title>n0x5afb23328520</title>
<path fill="#6d95df" stroke="#000000" d="M1611,-1498C1611,-1498 1581,-1498 1581,-1498 1575,-1498 1569,-1492 1569,-1486 1569,-1486 1569,-1474 1569,-1474 1569,-1468 1575,-1462 1581,-1462 1581,-1462 1611,-1462 1611,-1462 1617,-1462 1623,-1468 1623,-1474 1623,-1474 1623,-1486 1623,-1486 1623,-1492 1617,-1498 1611,-1498"/>
<text text-anchor="middle" x="1596" y="-1476.5" font-family="SF Pro Text Bold 10" font-size="15.00" fill="#000000">br</text>
</g>
<!-- n0x5afb23328400&#45;&gt;n0x5afb23328520 -->
<g id="edge34" class="edge">
<title>n0x5afb23328400&#45;&gt;n0x5afb23328520</title>
<path fill="none" stroke="#ff3636" stroke-width="3" d="M1619.56,-1608.92C1613.1,-1596.35 1605.02,-1578.62 1601,-1562 1596.75,-1544.42 1595.51,-1524.1 1595.32,-1508.21"/>
<polygon fill="#ff3636" stroke="#ff3636" stroke-width="3" points="1598.82,-1508.02 1595.34,-1498.01 1591.82,-1508 1598.82,-1508.02"/>
</g>
<!-- n0x5afb23328400&#45;&gt;n0x5afb23328520 -->
<g id="edge38" class="edge">
<title>n0x5afb23328400&#45;&gt;n0x5afb23328520</title>
<path fill="none" stroke="#00b3ff" stroke-width="2" d="M1625.08,-1608.8C1619.43,-1583.94 1608.91,-1537.74 1602.2,-1508.23"/>
<polygon fill="#00b3ff" stroke="#00b3ff" stroke-width="2" points="1605.54,-1507.15 1599.91,-1498.18 1598.72,-1508.71 1605.54,-1507.15"/>
<text text-anchor="middle" x="1625" y="-1550" font-family="SF Pro Text Bold 10" font-size="15.00">%9</text>
</g>
<!-- n0x5afb23327710 -->
<g id="node28" class="node">
<title>n0x5afb23327710</title>
<path fill="#6d95df" stroke="#000000" d="M1474.5,-1351C1474.5,-1351 1373.5,-1351 1373.5,-1351 1367.5,-1351 1361.5,-1345 1361.5,-1339 1361.5,-1339 1361.5,-1327 1361.5,-1327 1361.5,-1321 1367.5,-1315 1373.5,-1315 1373.5,-1315 1474.5,-1315 1474.5,-1315 1480.5,-1315 1486.5,-1321 1486.5,-1327 1486.5,-1327 1486.5,-1339 1486.5,-1339 1486.5,-1345 1480.5,-1351 1474.5,-1351"/>
<text text-anchor="middle" x="1424" y="-1329.5" font-family="SF Pro Text Bold 10" font-size="15.00" fill="#000000">getelementptr</text>
</g>
<!-- n0x5afb23328520&#45;&gt;n0x5afb23327710 -->
<g id="edge71" class="edge">
<title>n0x5afb23328520&#45;&gt;n0x5afb23327710</title>
<path fill="none" stroke="#ff8800" stroke-width="5" d="M1575.59,-1461.8C1544.95,-1435.96 1486.94,-1387.06 1452.25,-1357.81"/>
<polygon fill="#ff8800" stroke="#ff8800" stroke-width="5" points="1454.85,-1354.28 1444.38,-1351.18 1449.21,-1360.97 1454.85,-1354.28"/>
</g>
<!-- n0x5afb23326900 -->
<g id="node45" class="node">
<title>n0x5afb23326900</title>
<path fill="#6d95df" stroke="#000000" d="M1827,-469C1827,-469 1797,-469 1797,-469 1791,-469 1785,-463 1785,-457 1785,-457 1785,-445 1785,-445 1785,-439 1791,-433 1797,-433 1797,-433 1827,-433 1827,-433 1833,-433 1839,-439 1839,-445 1839,-445 1839,-457 1839,-457 1839,-463 1833,-469 1827,-469"/>
<text text-anchor="middle" x="1812" y="-447.5" font-family="SF Pro Text Bold 10" font-size="15.00" fill="#000000">call</text>
</g>
<!-- n0x5afb23328520&#45;&gt;n0x5afb23326900 -->
<g id="edge72" class="edge">
<title>n0x5afb23328520&#45;&gt;n0x5afb23326900</title>
<path fill="none" stroke="#ff8800" stroke-width="5" d="M1623.36,-1474C1681.48,-1461.64 1812,-1423.88 1812,-1334 1812,-1334 1812,-1334 1812,-597 1812,-556.15 1812,-508.83 1812,-479.65"/>
<polygon fill="#ff8800" stroke="#ff8800" stroke-width="5" points="1816.38,-479.41 1812,-469.41 1807.63,-479.41 1816.38,-479.41"/>
</g>
<!-- u0x5afb233282c0 -->
<g id="node26" class="node">
<title>u0x5afb233282c0</title>
<path fill="#d66868" stroke="#000000" d="M1678.5,-2086C1678.5,-2086 1523.5,-2086 1523.5,-2086 1517.5,-2086 1511.5,-2080 1511.5,-2074 1511.5,-2074 1511.5,-2062 1511.5,-2062 1511.5,-2056 1517.5,-2050 1523.5,-2050 1523.5,-2050 1678.5,-2050 1678.5,-2050 1684.5,-2050 1690.5,-2056 1690.5,-2062 1690.5,-2062 1690.5,-2074 1690.5,-2074 1690.5,-2080 1684.5,-2086 1678.5,-2086"/>
<text text-anchor="middle" x="1601" y="-2064.5" font-family="SF Pro Text Bold 10" font-size="15.00" fill="#000000">ptr @__errno_location</text>
</g>
<!-- u0x5afb233282c0&#45;&gt;n0x5afb233282e0 -->
<g id="edge36" class="edge">
<title>u0x5afb233282c0&#45;&gt;n0x5afb233282e0</title>
<path fill="none" stroke="#00b3ff" stroke-width="2" d="M1608.47,-2049.8C1619.37,-2024.72 1639.7,-1977.93 1652.51,-1948.46"/>
<polygon fill="#00b3ff" stroke="#00b3ff" stroke-width="2" points="1655.76,-1949.75 1656.54,-1939.18 1649.34,-1946.96 1655.76,-1949.75"/>
</g>
<!-- u0x5afb233283e0 -->
<g id="node27" class="node">
<title>u0x5afb233283e0</title>
<path fill="#d66868" stroke="#000000" d="M1554.5,-1792C1554.5,-1792 1523.5,-1792 1523.5,-1792 1517.5,-1792 1511.5,-1786 1511.5,-1780 1511.5,-1780 1511.5,-1768 1511.5,-1768 1511.5,-1762 1517.5,-1756 1523.5,-1756 1523.5,-1756 1554.5,-1756 1554.5,-1756 1560.5,-1756 1566.5,-1762 1566.5,-1768 1566.5,-1768 1566.5,-1780 1566.5,-1780 1566.5,-1786 1560.5,-1792 1554.5,-1792"/>
<text text-anchor="middle" x="1539" y="-1770.5" font-family="SF Pro Text Bold 10" font-size="15.00" fill="#000000">i32 0</text>
</g>
<!-- u0x5afb233283e0&#45;&gt;n0x5afb23328400 -->
<g id="edge39" class="edge">
<title>u0x5afb233283e0&#45;&gt;n0x5afb23328400</title>
<path fill="none" stroke="#00b3ff" stroke-width="2" d="M1549.68,-1755.8C1565.38,-1730.51 1594.79,-1683.11 1613.05,-1653.69"/>
<polygon fill="#00b3ff" stroke="#00b3ff" stroke-width="2" points="1616.04,-1655.52 1618.34,-1645.18 1610.09,-1651.83 1616.04,-1655.52"/>
</g>
<!-- n0x5afb23327790 -->
<g id="node29" class="node">
<title>n0x5afb23327790</title>
<path fill="#6d95df" stroke="#000000" d="M1312,-1204C1312,-1204 1282,-1204 1282,-1204 1276,-1204 1270,-1198 1270,-1192 1270,-1192 1270,-1180 1270,-1180 1270,-1174 1276,-1168 1282,-1168 1282,-1168 1312,-1168 1312,-1168 1318,-1168 1324,-1174 1324,-1180 1324,-1180 1324,-1192 1324,-1192 1324,-1198 1318,-1204 1312,-1204"/>
<text text-anchor="middle" x="1297" y="-1182.5" font-family="SF Pro Text Bold 10" font-size="15.00" fill="#000000">load</text>
</g>
<!-- n0x5afb23327710&#45;&gt;n0x5afb23327790 -->
<g id="edge40" class="edge">
<title>n0x5afb23327710&#45;&gt;n0x5afb23327790</title>
<path fill="none" stroke="#ff3636" stroke-width="3" d="M1388.46,-1314.88C1368.7,-1303.84 1344.95,-1287.84 1329,-1268 1316.29,-1252.19 1308.11,-1230.71 1303.21,-1213.84"/>
<polygon fill="#ff3636" stroke="#ff3636" stroke-width="3" points="1306.55,-1212.77 1300.57,-1204.02 1299.79,-1214.59 1306.55,-1212.77"/>
</g>
<!-- n0x5afb23327710&#45;&gt;n0x5afb23327790 -->
<g id="edge47" class="edge">
<title>n0x5afb23327710&#45;&gt;n0x5afb23327790</title>
<path fill="none" stroke="#00b3ff" stroke-width="2" d="M1408.93,-1314.8C1386.59,-1289.29 1344.56,-1241.3 1318.84,-1211.93"/>
<polygon fill="#00b3ff" stroke="#00b3ff" stroke-width="2" points="1321.27,-1209.4 1312.05,-1204.18 1316,-1214.01 1321.27,-1209.4"/>
<text text-anchor="middle" x="1378" y="-1256" font-family="SF Pro Text Bold 10" font-size="15.00">%11</text>
</g>
<!-- n0x5afb2328d3a0 -->
<g id="node30" class="node">
<title>n0x5afb2328d3a0</title>
<path fill="#6d95df" stroke="#000000" d="M1244,-1057C1244,-1057 1214,-1057 1214,-1057 1208,-1057 1202,-1051 1202,-1045 1202,-1045 1202,-1033 1202,-1033 1202,-1027 1208,-1021 1214,-1021 1214,-1021 1244,-1021 1244,-1021 1250,-1021 1256,-1027 1256,-1033 1256,-1033 1256,-1045 1256,-1045 1256,-1051 1250,-1057 1244,-1057"/>
<text text-anchor="middle" x="1229" y="-1035.5" font-family="SF Pro Text Bold 10" font-size="15.00" fill="#000000">call</text>
</g>
<!-- n0x5afb23327790&#45;&gt;n0x5afb2328d3a0 -->
<g id="edge41" class="edge">
<title>n0x5afb23327790&#45;&gt;n0x5afb2328d3a0</title>
<path fill="none" stroke="#ff3636" stroke-width="3" d="M1273.2,-1167.99C1259.12,-1156.47 1242.45,-1139.94 1234,-1121 1226.58,-1104.38 1225.38,-1083.9 1226.01,-1067.7"/>
<polygon fill="#ff3636" stroke="#ff3636" stroke-width="3" points="1229.53,-1067.47 1226.68,-1057.26 1222.54,-1067.02 1229.53,-1067.47"/>
</g>
<!-- n0x5afb23327790&#45;&gt;n0x5afb2328d3a0 -->
<g id="edge50" class="edge">
<title>n0x5afb23327790&#45;&gt;n0x5afb2328d3a0</title>
<path fill="none" stroke="#00b3ff" stroke-width="2" d="M1288.93,-1167.8C1277.17,-1142.72 1255.23,-1095.93 1241.41,-1066.46"/>
<polygon fill="#00b3ff" stroke="#00b3ff" stroke-width="2" points="1244.47,-1064.75 1237.06,-1057.18 1238.13,-1067.72 1244.47,-1064.75"/>
<text text-anchor="middle" x="1280.5" y="-1109" font-family="SF Pro Text Bold 10" font-size="15.00">%12</text>
</g>
<!-- n0x5afb2317e400 -->
<g id="node31" class="node">
<title>n0x5afb2317e400</title>
<path fill="#6d95df" stroke="#000000" d="M1178,-910C1178,-910 1148,-910 1148,-910 1142,-910 1136,-904 1136,-898 1136,-898 1136,-886 1136,-886 1136,-880 1142,-874 1148,-874 1148,-874 1178,-874 1178,-874 1184,-874 1190,-880 1190,-886 1190,-886 1190,-898 1190,-898 1190,-904 1184,-910 1178,-910"/>
<text text-anchor="middle" x="1163" y="-888.5" font-family="SF Pro Text Bold 10" font-size="15.00" fill="#000000">shl</text>
</g>
<!-- n0x5afb2328d3a0&#45;&gt;n0x5afb2317e400 -->
<g id="edge42" class="edge">
<title>n0x5afb2328d3a0&#45;&gt;n0x5afb2317e400</title>
<path fill="none" stroke="#ff3636" stroke-width="3" d="M1205.94,-1020.83C1192.31,-1009.25 1176.17,-992.71 1168,-974 1160.72,-957.32 1159.51,-936.85 1160.11,-920.66"/>
<polygon fill="#ff3636" stroke="#ff3636" stroke-width="3" points="1163.63,-920.43 1160.75,-910.23 1156.64,-920 1163.63,-920.43"/>
</g>
<!-- n0x5afb2328d3a0&#45;&gt;n0x5afb2317e400 -->
<g id="edge51" class="edge">
<title>n0x5afb2328d3a0&#45;&gt;n0x5afb2317e400</title>
<path fill="none" stroke="#00b3ff" stroke-width="2" d="M1221.17,-1020.8C1209.76,-995.72 1188.46,-948.93 1175.04,-919.46"/>
<polygon fill="#00b3ff" stroke="#00b3ff" stroke-width="2" points="1178.15,-917.83 1170.82,-910.18 1171.78,-920.73 1178.15,-917.83"/>
<text text-anchor="middle" x="1212.5" y="-962" font-family="SF Pro Text Bold 10" font-size="15.00">%13</text>
</g>
<!-- n0x5afb232b4f10 -->
<g id="node32" class="node">
<title>n0x5afb232b4f10</title>
<path fill="#6d95df" stroke="#000000" d="M1110,-763C1110,-763 1080,-763 1080,-763 1074,-763 1068,-757 1068,-751 1068,-751 1068,-739 1068,-739 1068,-733 1074,-727 1080,-727 1080,-727 1110,-727 1110,-727 1116,-727 1122,-733 1122,-739 1122,-739 1122,-751 1122,-751 1122,-757 1116,-763 1110,-763"/>
<text text-anchor="middle" x="1095" y="-741.5" font-family="SF Pro Text Bold 10" font-size="15.00" fill="#000000">ashr</text>
</g>
<!-- n0x5afb2317e400&#45;&gt;n0x5afb232b4f10 -->
<g id="edge43" class="edge">
<title>n0x5afb2317e400&#45;&gt;n0x5afb232b4f10</title>
<path fill="none" stroke="#ff3636" stroke-width="3" d="M1139.2,-873.99C1125.12,-862.47 1108.45,-845.94 1100,-827 1092.58,-810.38 1091.38,-789.9 1092.01,-773.7"/>
<polygon fill="#ff3636" stroke="#ff3636" stroke-width="3" points="1095.53,-773.47 1092.68,-763.26 1088.54,-773.02 1095.53,-773.47"/>
</g>
<!-- n0x5afb2317e400&#45;&gt;n0x5afb232b4f10 -->
<g id="edge55" class="edge">
<title>n0x5afb2317e400&#45;&gt;n0x5afb232b4f10</title>
<path fill="none" stroke="#00b3ff" stroke-width="2" d="M1154.93,-873.8C1143.17,-848.72 1121.23,-801.93 1107.41,-772.46"/>
<polygon fill="#00b3ff" stroke="#00b3ff" stroke-width="2" points="1110.47,-770.75 1103.06,-763.18 1104.13,-773.72 1110.47,-770.75"/>
<text text-anchor="middle" x="1146.5" y="-815" font-family="SF Pro Text Bold 10" font-size="15.00">%14</text>
</g>
<!-- n0x5afb23328760 -->
<g id="node33" class="node">
<title>n0x5afb23328760</title>
<path fill="#6d95df" stroke="#000000" d="M1110,-616C1110,-616 1080,-616 1080,-616 1074,-616 1068,-610 1068,-604 1068,-604 1068,-592 1068,-592 1068,-586 1074,-580 1080,-580 1080,-580 1110,-580 1110,-580 1116,-580 1122,-586 1122,-592 1122,-592 1122,-604 1122,-604 1122,-610 1116,-616 1110,-616"/>
<text text-anchor="middle" x="1095" y="-594.5" font-family="SF Pro Text Bold 10" font-size="15.00" fill="#000000">call</text>
</g>
<!-- n0x5afb232b4f10&#45;&gt;n0x5afb23328760 -->
<g id="edge44" class="edge">
<title>n0x5afb232b4f10&#45;&gt;n0x5afb23328760</title>
<path fill="none" stroke="#ff3636" stroke-width="3" d="M1095,-726.8C1095,-701.94 1095,-655.74 1095,-626.23"/>
<polygon fill="#ff3636" stroke="#ff3636" stroke-width="3" points="1098.5,-626.18 1095,-616.18 1091.5,-626.18 1098.5,-626.18"/>
</g>
<!-- n0x5afb232b4f10&#45;&gt;n0x5afb23328760 -->
<g id="edge57" class="edge">
<title>n0x5afb232b4f10&#45;&gt;n0x5afb23328760</title>
<path fill="none" stroke="#00b3ff" stroke-width="2" d="M1095.68,-726.89C1096.16,-714 1096.75,-695.89 1097,-680 1097.28,-662.06 1096.78,-641.89 1096.22,-626.16"/>
<polygon fill="#00b3ff" stroke="#00b3ff" stroke-width="2" points="1099.71,-625.92 1095.82,-616.06 1092.72,-626.19 1099.71,-625.92"/>
<text text-anchor="middle" x="1112.5" y="-668" font-family="SF Pro Text Bold 10" font-size="15.00">%15</text>
</g>
<!-- n0x5afb231c6eb0 -->
<g id="node34" class="node">
<title>n0x5afb231c6eb0</title>
<path fill="#6d95df" stroke="#000000" d="M1223,-469C1223,-469 1193,-469 1193,-469 1187,-469 1181,-463 1181,-457 1181,-457 1181,-445 1181,-445 1181,-439 1187,-433 1193,-433 1193,-433 1223,-433 1223,-433 1229,-433 1235,-439 1235,-445 1235,-445 1235,-457 1235,-457 1235,-463 1229,-469 1223,-469"/>
<text text-anchor="middle" x="1208" y="-447.5" font-family="SF Pro Text Bold 10" font-size="15.00" fill="#000000">call</text>
</g>
<!-- n0x5afb232b4f10&#45;&gt;n0x5afb231c6eb0 -->
<g id="edge58" class="edge">
<title>n0x5afb232b4f10&#45;&gt;n0x5afb231c6eb0</title>
<path fill="none" stroke="#00b3ff" stroke-width="2" d="M1070.54,-726.91C1048.67,-710 1018.12,-681.92 1005,-649 993.65,-620.51 991.89,-607.72 1005,-580 1036.58,-513.23 1121.78,-477.55 1171.18,-461.92"/>
<polygon fill="#00b3ff" stroke="#00b3ff" stroke-width="2" points="1172.31,-465.24 1180.86,-458.98 1170.27,-458.54 1172.31,-465.24"/>
<text text-anchor="middle" x="1020.5" y="-594.5" font-family="SF Pro Text Bold 10" font-size="15.00">%15</text>
</g>
<!-- n0x5afb23328760&#45;&gt;n0x5afb23322e10 -->
<g id="edge61" class="edge">
<title>n0x5afb23328760&#45;&gt;n0x5afb23322e10</title>
<path fill="none" stroke="#ff8800" stroke-width="5" stroke-dasharray="5,2" d="M1084.65,-616.22C1059.92,-658.38 997.64,-770.88 973,-874 828.9,-1477.1 1305.53,-1815.93 879,-2266 839.86,-2307.3 440.84,-2346.38 315.48,-2357.72"/>
<polygon fill="#ff8800" stroke="#ff8800" stroke-width="5" points="314.8,-2353.38 305.23,-2358.64 315.58,-2362.1 314.8,-2353.38"/>
</g>
<!-- n0x5afb23328760&#45;&gt;n0x5afb231c6eb0 -->
<g id="edge45" class="edge">
<title>n0x5afb23328760&#45;&gt;n0x5afb231c6eb0</title>
<path fill="none" stroke="#ff3636" stroke-width="3" d="M1112.05,-580C1124.27,-567.46 1140.83,-549.75 1154,-533 1167.93,-515.29 1181.99,-494.06 1192.28,-477.78"/>
<polygon fill="#ff3636" stroke="#ff3636" stroke-width="3" points="1195.25,-479.63 1197.58,-469.29 1189.31,-475.92 1195.25,-479.63"/>
</g>
<!-- n0x5afb23328760&#45;&gt;n0x5afb231c6eb0 -->
<g id="edge60" class="edge">
<title>n0x5afb23328760&#45;&gt;n0x5afb231c6eb0</title>
<path fill="none" stroke="#00b3ff" stroke-width="2" d="M1093.58,-579.74C1092.99,-562.28 1094.52,-535.19 1107,-516 1122.25,-492.55 1149.43,-476.05 1171.75,-465.69"/>
<polygon fill="#00b3ff" stroke="#00b3ff" stroke-width="2" points="1173.24,-468.86 1180.97,-461.62 1170.41,-462.45 1173.24,-468.86"/>
<text text-anchor="middle" x="1122.5" y="-521" font-family="SF Pro Text Bold 10" font-size="15.00">%16</text>
</g>
<!-- n0x5afb23328c40 -->
<g id="node35" class="node">
<title>n0x5afb23328c40</title>
<path fill="#6d95df" stroke="#000000" d="M1475,-338C1475,-338 1445,-338 1445,-338 1439,-338 1433,-332 1433,-326 1433,-326 1433,-314 1433,-314 1433,-308 1439,-302 1445,-302 1445,-302 1475,-302 1475,-302 1481,-302 1487,-308 1487,-314 1487,-314 1487,-326 1487,-326 1487,-332 1481,-338 1475,-338"/>
<text text-anchor="middle" x="1460" y="-316.5" font-family="SF Pro Text Bold 10" font-size="15.00" fill="#000000">br</text>
</g>
<!-- n0x5afb231c6eb0&#45;&gt;n0x5afb23328c40 -->
<g id="edge46" class="edge">
<title>n0x5afb231c6eb0&#45;&gt;n0x5afb23328c40</title>
<path fill="none" stroke="#ff3636" stroke-width="3" d="M1235.45,-435.95C1281.2,-412.53 1373.05,-365.51 1423.96,-339.45"/>
<polygon fill="#ff3636" stroke="#ff3636" stroke-width="3" points="1425.66,-342.51 1432.97,-334.84 1422.47,-336.28 1425.66,-342.51"/>
</g>
<!-- n0x5afb23328c40&#45;&gt;n0x5afb23322708 -->
<g id="edge74" class="edge">
<title>n0x5afb23328c40&#45;&gt;n0x5afb23322708</title>
<path fill="none" stroke="#ff8800" stroke-width="5" d="M1478.91,-301.97C1482.74,-299.05 1486.87,-296.24 1491,-294 1586.95,-242.08 1713.17,-210.66 1774.84,-197.4"/>
<polygon fill="#ff8800" stroke="#ff8800" stroke-width="5" points="1776,-201.62 1784.88,-195.27 1774.19,-193.06 1776,-201.62"/>
</g>
<!-- u0x5afb233276d0 -->
<g id="node36" class="node">
<title>u0x5afb233276d0</title>
<path fill="#d66868" stroke="#000000" d="M1466.5,-1498C1466.5,-1498 1427.5,-1498 1427.5,-1498 1421.5,-1498 1415.5,-1492 1415.5,-1486 1415.5,-1486 1415.5,-1474 1415.5,-1474 1415.5,-1468 1421.5,-1462 1427.5,-1462 1427.5,-1462 1466.5,-1462 1466.5,-1462 1472.5,-1462 1478.5,-1468 1478.5,-1474 1478.5,-1474 1478.5,-1486 1478.5,-1486 1478.5,-1492 1472.5,-1498 1466.5,-1498"/>
<text text-anchor="middle" x="1447" y="-1476.5" font-family="SF Pro Text Bold 10" font-size="15.00" fill="#000000">ptr %1</text>
</g>
<!-- u0x5afb233276d0&#45;&gt;n0x5afb23327710 -->
<g id="edge48" class="edge">
<title>u0x5afb233276d0&#45;&gt;n0x5afb23327710</title>
<path fill="none" stroke="#00b3ff" stroke-width="2" d="M1444.27,-1461.8C1440.33,-1436.94 1433,-1390.74 1428.32,-1361.23"/>
<polygon fill="#00b3ff" stroke="#00b3ff" stroke-width="2" points="1431.75,-1360.51 1426.73,-1351.18 1424.84,-1361.61 1431.75,-1360.51"/>
<text text-anchor="middle" x="1446.5" y="-1403" font-family="SF Pro Text Bold 10" font-size="15.00">%1</text>
</g>
<!-- u0x5afb233276f0 -->
<g id="node37" class="node">
<title>u0x5afb233276f0</title>
<path fill="#d66868" stroke="#000000" d="M1338,-1498C1338,-1498 1308,-1498 1308,-1498 1302,-1498 1296,-1492 1296,-1486 1296,-1486 1296,-1474 1296,-1474 1296,-1468 1302,-1462 1308,-1462 1308,-1462 1338,-1462 1338,-1462 1344,-1462 1350,-1468 1350,-1474 1350,-1474 1350,-1486 1350,-1486 1350,-1492 1344,-1498 1338,-1498"/>
<text text-anchor="middle" x="1323" y="-1476.5" font-family="SF Pro Text Bold 10" font-size="15.00" fill="#000000">i64 1</text>
</g>
<!-- u0x5afb233276f0&#45;&gt;n0x5afb23327710 -->
<g id="edge49" class="edge">
<title>u0x5afb233276f0&#45;&gt;n0x5afb23327710</title>
<path fill="none" stroke="#00b3ff" stroke-width="2" d="M1334.98,-1461.8C1352.6,-1436.51 1385.61,-1389.11 1406.11,-1359.69"/>
<polygon fill="#00b3ff" stroke="#00b3ff" stroke-width="2" points="1409.19,-1361.39 1412.03,-1351.18 1403.45,-1357.39 1409.19,-1361.39"/>
</g>
<!-- u0x5afb2328d340 -->
<g id="node38" class="node">
<title>u0x5afb2328d340</title>
<path fill="#d66868" stroke="#000000" d="M1192.5,-1204C1192.5,-1204 1145.5,-1204 1145.5,-1204 1139.5,-1204 1133.5,-1198 1133.5,-1192 1133.5,-1192 1133.5,-1180 1133.5,-1180 1133.5,-1174 1139.5,-1168 1145.5,-1168 1145.5,-1168 1192.5,-1168 1192.5,-1168 1198.5,-1168 1204.5,-1174 1204.5,-1180 1204.5,-1180 1204.5,-1192 1204.5,-1192 1204.5,-1198 1198.5,-1204 1192.5,-1204"/>
<text text-anchor="middle" x="1169" y="-1182.5" font-family="SF Pro Text Bold 10" font-size="15.00" fill="#000000">ptr null</text>
</g>
<!-- u0x5afb2328d340&#45;&gt;n0x5afb2328d3a0 -->
<g id="edge52" class="edge">
<title>u0x5afb2328d340&#45;&gt;n0x5afb2328d3a0</title>
<path fill="none" stroke="#00b3ff" stroke-width="2" d="M1176.12,-1167.8C1186.49,-1142.72 1205.86,-1095.93 1218.05,-1066.46"/>
<polygon fill="#00b3ff" stroke="#00b3ff" stroke-width="2" points="1221.3,-1067.76 1221.89,-1057.18 1214.83,-1065.08 1221.3,-1067.76"/>
</g>
<!-- u0x5afb2328d360 -->
<g id="node39" class="node">
<title>u0x5afb2328d360</title>
<path fill="#d66868" stroke="#000000" d="M1056,-1204C1056,-1204 1018,-1204 1018,-1204 1012,-1204 1006,-1198 1006,-1192 1006,-1192 1006,-1180 1006,-1180 1006,-1174 1012,-1168 1018,-1168 1018,-1168 1056,-1168 1056,-1168 1062,-1168 1068,-1174 1068,-1180 1068,-1180 1068,-1192 1068,-1192 1068,-1198 1062,-1204 1056,-1204"/>
<text text-anchor="middle" x="1037" y="-1182.5" font-family="SF Pro Text Bold 10" font-size="15.00" fill="#000000">i32 10</text>
</g>
<!-- u0x5afb2328d360&#45;&gt;n0x5afb2328d3a0 -->
<g id="edge53" class="edge">
<title>u0x5afb2328d360&#45;&gt;n0x5afb2328d3a0</title>
<path fill="none" stroke="#00b3ff" stroke-width="2" d="M1059.78,-1167.8C1094.13,-1141.85 1159.29,-1092.65 1197.96,-1063.44"/>
<polygon fill="#00b3ff" stroke="#00b3ff" stroke-width="2" points="1200.38,-1066 1206.25,-1057.18 1196.16,-1060.41 1200.38,-1066"/>
</g>
<!-- u0x5afb2328d380 -->
<g id="node40" class="node">
<title>u0x5afb2328d380</title>
<path fill="#d66868" stroke="#000000" d="M1475,-1204C1475,-1204 1401,-1204 1401,-1204 1395,-1204 1389,-1198 1389,-1192 1389,-1192 1389,-1180 1389,-1180 1389,-1174 1395,-1168 1401,-1168 1401,-1168 1475,-1168 1475,-1168 1481,-1168 1487,-1174 1487,-1180 1487,-1180 1487,-1192 1487,-1192 1487,-1198 1481,-1204 1475,-1204"/>
<text text-anchor="middle" x="1438" y="-1182.5" font-family="SF Pro Text Bold 10" font-size="15.00" fill="#000000">ptr @strtol</text>
</g>
<!-- u0x5afb2328d380&#45;&gt;n0x5afb2328d3a0 -->
<g id="edge54" class="edge">
<title>u0x5afb2328d380&#45;&gt;n0x5afb2328d3a0</title>
<path fill="none" stroke="#00b3ff" stroke-width="2" d="M1413.2,-1167.8C1375.57,-1141.69 1303.99,-1092.03 1262,-1062.89"/>
<polygon fill="#00b3ff" stroke="#00b3ff" stroke-width="2" points="1263.97,-1060.01 1253.76,-1057.18 1259.98,-1065.76 1263.97,-1060.01"/>
</g>
<!-- u0x5afb2317e3e0 -->
<g id="node41" class="node">
<title>u0x5afb2317e3e0</title>
<path fill="#d66868" stroke="#000000" d="M1124.5,-1057C1124.5,-1057 1083.5,-1057 1083.5,-1057 1077.5,-1057 1071.5,-1051 1071.5,-1045 1071.5,-1045 1071.5,-1033 1071.5,-1033 1071.5,-1027 1077.5,-1021 1083.5,-1021 1083.5,-1021 1124.5,-1021 1124.5,-1021 1130.5,-1021 1136.5,-1027 1136.5,-1033 1136.5,-1033 1136.5,-1045 1136.5,-1045 1136.5,-1051 1130.5,-1057 1124.5,-1057"/>
<text text-anchor="middle" x="1104" y="-1035.5" font-family="SF Pro Text Bold 10" font-size="15.00" fill="#000000">i64 32</text>
</g>
<!-- u0x5afb2317e3e0&#45;&gt;n0x5afb2317e400 -->
<g id="edge56" class="edge">
<title>u0x5afb2317e3e0&#45;&gt;n0x5afb2317e400</title>
<path fill="none" stroke="#00b3ff" stroke-width="2" d="M1111,-1020.8C1121.2,-995.72 1140.24,-948.93 1152.24,-919.46"/>
<polygon fill="#00b3ff" stroke="#00b3ff" stroke-width="2" points="1155.48,-920.76 1156.01,-910.18 1149,-918.12 1155.48,-920.76"/>
</g>
<!-- u0x5afb232b4ef0 -->
<g id="node42" class="node">
<title>u0x5afb232b4ef0</title>
<path fill="#d66868" stroke="#000000" d="M1058.5,-910C1058.5,-910 1017.5,-910 1017.5,-910 1011.5,-910 1005.5,-904 1005.5,-898 1005.5,-898 1005.5,-886 1005.5,-886 1005.5,-880 1011.5,-874 1017.5,-874 1017.5,-874 1058.5,-874 1058.5,-874 1064.5,-874 1070.5,-880 1070.5,-886 1070.5,-886 1070.5,-898 1070.5,-898 1070.5,-904 1064.5,-910 1058.5,-910"/>
<text text-anchor="middle" x="1038" y="-888.5" font-family="SF Pro Text Bold 10" font-size="15.00" fill="#000000">i64 32</text>
</g>
<!-- u0x5afb232b4ef0&#45;&gt;n0x5afb232b4f10 -->
<g id="edge59" class="edge">
<title>u0x5afb232b4ef0&#45;&gt;n0x5afb232b4f10</title>
<path fill="none" stroke="#00b3ff" stroke-width="2" d="M1044.76,-873.8C1054.58,-848.83 1072.85,-802.34 1084.45,-772.84"/>
<polygon fill="#00b3ff" stroke="#00b3ff" stroke-width="2" points="1087.85,-773.77 1088.25,-763.18 1081.33,-771.21 1087.85,-773.77"/>
</g>
<!-- u0x5afb231c6e30 -->
<g id="node43" class="node">
<title>u0x5afb231c6e30</title>
<path fill="#d66868" stroke="#000000" d="M1434,-616C1434,-616 1364,-616 1364,-616 1358,-616 1352,-610 1352,-604 1352,-604 1352,-592 1352,-592 1352,-586 1358,-580 1364,-580 1364,-580 1434,-580 1434,-580 1440,-580 1446,-586 1446,-592 1446,-592 1446,-604 1446,-604 1446,-610 1440,-616 1434,-616"/>
<text text-anchor="middle" x="1399" y="-594.5" font-family="SF Pro Text Bold 10" font-size="15.00" fill="#000000">ptr @.str.1</text>
</g>
<!-- u0x5afb231c6e30&#45;&gt;n0x5afb231c6eb0 -->
<g id="edge62" class="edge">
<title>u0x5afb231c6e30&#45;&gt;n0x5afb231c6eb0</title>
<path fill="none" stroke="#00b3ff" stroke-width="2" d="M1376.34,-579.8C1342.16,-553.85 1277.35,-504.65 1238.88,-475.44"/>
<polygon fill="#00b3ff" stroke="#00b3ff" stroke-width="2" points="1240.71,-472.44 1230.63,-469.18 1236.48,-478.01 1240.71,-472.44"/>
</g>
<!-- u0x5afb231c6e90 -->
<g id="node44" class="node">
<title>u0x5afb231c6e90</title>
<path fill="#d66868" stroke="#000000" d="M1275,-616C1275,-616 1199,-616 1199,-616 1193,-616 1187,-610 1187,-604 1187,-604 1187,-592 1187,-592 1187,-586 1193,-580 1199,-580 1199,-580 1275,-580 1275,-580 1281,-580 1287,-586 1287,-592 1287,-592 1287,-604 1287,-604 1287,-610 1281,-616 1275,-616"/>
<text text-anchor="middle" x="1237" y="-594.5" font-family="SF Pro Text Bold 10" font-size="15.00" fill="#000000">ptr @printf</text>
</g>
<!-- u0x5afb231c6e90&#45;&gt;n0x5afb231c6eb0 -->
<g id="edge63" class="edge">
<title>u0x5afb231c6e90&#45;&gt;n0x5afb231c6eb0</title>
<path fill="none" stroke="#00b3ff" stroke-width="2" d="M1233.56,-579.8C1228.59,-554.94 1219.35,-508.74 1213.45,-479.23"/>
<polygon fill="#00b3ff" stroke="#00b3ff" stroke-width="2" points="1216.83,-478.3 1211.44,-469.18 1209.97,-479.67 1216.83,-478.3"/>
</g>
<!-- n0x5afb233289a0 -->
<g id="node46" class="node">
<title>n0x5afb233289a0</title>
<path fill="#6d95df" stroke="#000000" d="M1827,-338C1827,-338 1797,-338 1797,-338 1791,-338 1785,-332 1785,-326 1785,-326 1785,-314 1785,-314 1785,-308 1791,-302 1797,-302 1797,-302 1827,-302 1827,-302 1833,-302 1839,-308 1839,-314 1839,-314 1839,-326 1839,-326 1839,-332 1833,-338 1827,-338"/>
<text text-anchor="middle" x="1812" y="-316.5" font-family="SF Pro Text Bold 10" font-size="15.00" fill="#000000">br</text>
</g>
<!-- n0x5afb23326900&#45;&gt;n0x5afb233289a0 -->
<g id="edge64" class="edge">
<title>n0x5afb23326900&#45;&gt;n0x5afb233289a0</title>
<path fill="none" stroke="#ff3636" stroke-width="3" d="M1812,-432.87C1812,-411.28 1812,-373.91 1812,-348.35"/>
<polygon fill="#ff3636" stroke="#ff3636" stroke-width="3" points="1815.5,-348.2 1812,-338.2 1808.5,-348.2 1815.5,-348.2"/>
</g>
<!-- n0x5afb233289a0&#45;&gt;n0x5afb23322708 -->
<g id="edge75" class="edge">
<title>n0x5afb233289a0&#45;&gt;n0x5afb23322708</title>
<path fill="none" stroke="#ff8800" stroke-width="5" d="M1812,-301.87C1812,-280.28 1812,-242.91 1812,-217.35"/>
<polygon fill="#ff8800" stroke="#ff8800" stroke-width="5" points="1816.38,-217.2 1812,-207.2 1807.63,-217.2 1816.38,-217.2"/>
</g>
<!-- u0x5afb233268c0 -->
<g id="node47" class="node">
<title>u0x5afb233268c0</title>
<path fill="#d66868" stroke="#000000" d="M1734,-616C1734,-616 1680,-616 1680,-616 1674,-616 1668,-610 1668,-604 1668,-604 1668,-592 1668,-592 1668,-586 1674,-580 1680,-580 1680,-580 1734,-580 1734,-580 1740,-580 1746,-586 1746,-592 1746,-592 1746,-604 1746,-604 1746,-610 1740,-616 1734,-616"/>
<text text-anchor="middle" x="1707" y="-594.5" font-family="SF Pro Text Bold 10" font-size="15.00" fill="#000000">ptr @str</text>
</g>
<!-- u0x5afb233268c0&#45;&gt;n0x5afb23326900 -->
<g id="edge65" class="edge">
<title>u0x5afb233268c0&#45;&gt;n0x5afb23326900</title>
<path fill="none" stroke="#00b3ff" stroke-width="2" d="M1719.46,-579.8C1737.85,-554.4 1772.39,-506.71 1793.67,-477.31"/>
<polygon fill="#00b3ff" stroke="#00b3ff" stroke-width="2" points="1796.53,-479.33 1799.56,-469.18 1790.86,-475.23 1796.53,-479.33"/>
</g>
<!-- u0x5afb233268e0 -->
<g id="node48" class="node">
<title>u0x5afb233268e0</title>
<path fill="#d66868" stroke="#000000" d="M1590.5,-616C1590.5,-616 1523.5,-616 1523.5,-616 1517.5,-616 1511.5,-610 1511.5,-604 1511.5,-604 1511.5,-592 1511.5,-592 1511.5,-586 1517.5,-580 1523.5,-580 1523.5,-580 1590.5,-580 1590.5,-580 1596.5,-580 1602.5,-586 1602.5,-592 1602.5,-592 1602.5,-604 1602.5,-604 1602.5,-610 1596.5,-616 1590.5,-616"/>
<text text-anchor="middle" x="1557" y="-594.5" font-family="SF Pro Text Bold 10" font-size="15.00" fill="#000000">ptr @puts</text>
</g>
<!-- u0x5afb233268e0&#45;&gt;n0x5afb23326900 -->
<g id="edge66" class="edge">
<title>u0x5afb233268e0&#45;&gt;n0x5afb23326900</title>
<path fill="none" stroke="#00b3ff" stroke-width="2" d="M1587,-579.94C1634.1,-553.16 1725.22,-501.34 1775.86,-472.55"/>
<polygon fill="#00b3ff" stroke="#00b3ff" stroke-width="2" points="1777.86,-475.44 1784.82,-467.45 1774.4,-469.35 1777.86,-475.44"/>
</g>
<!-- n0x5afb23328f00 -->
<g id="node50" class="node">
<title>n0x5afb23328f00</title>
<path fill="#6d95df" stroke="#000000" d="M1827,-60C1827,-60 1797,-60 1797,-60 1791,-60 1785,-54 1785,-48 1785,-48 1785,-36 1785,-36 1785,-30 1791,-24 1797,-24 1797,-24 1827,-24 1827,-24 1833,-24 1839,-30 1839,-36 1839,-36 1839,-48 1839,-48 1839,-54 1833,-60 1827,-60"/>
<text text-anchor="middle" x="1812" y="-38.5" font-family="SF Pro Text Bold 10" font-size="15.00" fill="#000000">ret</text>
</g>
<!-- n0x5afb23322708&#45;&gt;n0x5afb23328f00 -->
<g id="edge67" class="edge">
<title>n0x5afb23322708&#45;&gt;n0x5afb23328f00</title>
<path fill="none" stroke="#ff3636" stroke-width="3" d="M1812,-170.8C1812,-145.94 1812,-99.74 1812,-70.23"/>
<polygon fill="#ff3636" stroke="#ff3636" stroke-width="3" points="1815.5,-70.18 1812,-60.18 1808.5,-70.18 1815.5,-70.18"/>
</g>
<!-- n0x5afb23322708&#45;&gt;n0x5afb23328f00 -->
<g id="edge68" class="edge">
<title>n0x5afb23322708&#45;&gt;n0x5afb23328f00</title>
<path fill="none" stroke="#00b3ff" stroke-width="2" d="M1812.68,-170.89C1813.16,-158 1813.75,-139.89 1814,-124 1814.28,-106.06 1813.78,-85.89 1813.22,-70.16"/>
<polygon fill="#00b3ff" stroke="#00b3ff" stroke-width="2" points="1816.71,-69.92 1812.82,-60.06 1809.72,-70.19 1816.71,-69.92"/>
<text text-anchor="middle" x="1829.5" y="-112" font-family="SF Pro Text Bold 10" font-size="15.00">%21</text>
</g>
</g>
</svg>
