<?xml version="1.0" encoding="UTF-8" standalone="no"?>
<!DOCTYPE svg PUBLIC "-//W3C//DTD SVG 1.1//EN"
 "http://www.w3.org/Graphics/SVG/1.1/DTD/svg11.dtd">
<!-- Generated by graphviz version 2.43.0 (0)
 -->
<!-- Title: /home/sevsol/Projects/4sem/lisitsyn/llvm&#45;ir&#45;dumper/wt/graph_serialization_v2/examples/calc/calc.c Pages: 1 -->
<svg width="2069pt" height="1512pt"
 viewBox="0.00 0.00 2069.20 1512.20" xmlns="http://www.w3.org/2000/svg" xmlns:xlink="http://www.w3.org/1999/xlink">
<g id="graph0" class="graph" transform="scale(1 1) rotate(0) translate(21.6 1490.6)">
<title>/home/sevsol/Projects/4sem/lisitsyn/llvm&#45;ir&#45;dumper/wt/graph_serialization_v2/examples/calc/calc.c</title>
<polygon fill="white" stroke="transparent" points="-21.6,21.6 -21.6,-1490.6 2047.6,-1490.6 2047.6,21.6 -21.6,21.6"/>
<g id="clust1" class="cluster">
<title>cluster_func_0</title>
<path fill="#e3e3e3" stroke="#000000" stroke-width="2" d="M1379,-8C1379,-8 1993,-8 1993,-8 1999,-8 2005,-14 2005,-20 2005,-20 2005,-1449 2005,-1449 2005,-1455 1999,-1461 1993,-1461 1993,-1461 1379,-1461 1379,-1461 1373,-1461 1367,-1455 1367,-1449 1367,-1449 1367,-20 1367,-20 1367,-14 1373,-8 1379,-8"/>
<text text-anchor="middle" x="1686" y="-1441" font-family="SF Pro Text Bold 10" font-size="20.00">main</text>
<text text-anchor="middle" x="1686" y="-1419" font-family="SF Pro Text Bold 10" font-size="20.00">calls=1</text>
</g>
<g id="clust2" class="cluster">
<title>cluster_func_0_bb_0</title>
<path fill="#9ab799" stroke="#000000" stroke-width="2" d="M1387,-16C1387,-16 1985,-16 1985,-16 1991,-16 1997,-22 1997,-28 1997,-28 1997,-1389 1997,-1389 1997,-1395 1991,-1401 1985,-1401 1985,-1401 1387,-1401 1387,-1401 1381,-1401 1375,-1395 1375,-1389 1375,-1389 1375,-28 1375,-28 1375,-22 1381,-16 1387,-16"/>
<text text-anchor="middle" x="1686" y="-1385" font-family="SF Pro Text Bold 10" font-size="15.00">label %0</text>
<text text-anchor="middle" x="1686" y="-1368" font-family="SF Pro Text Bold 10" font-size="15.00">count=1</text>
</g>
<g id="clust4" class="cluster">
<title>cluster_func_2</title>
<path fill="#e3e3e3" stroke="#000000" stroke-width="2" d="M20,-8C20,-8 791,-8 791,-8 797,-8 803,-14 803,-20 803,-20 803,-1449 803,-1449 803,-1455 797,-1461 791,-1461 791,-1461 20,-1461 20,-1461 14,-1461 8,-1455 8,-1449 8,-1449 8,-20 8,-20 8,-14 14,-8 20,-8"/>
<text text-anchor="middle" x="405.5" y="-1441" font-family="SF Pro Text Bold 10" font-size="20.00">func</text>
<text text-anchor="middle" x="405.5" y="-1419" font-family="SF Pro Text Bold 10" font-size="20.00">calls=4</text>
</g>
<g id="clust5" class="cluster">
<title>cluster_func_2_bb_1</title>
<path fill="#f4a261" stroke="#000000" stroke-width="2" d="M28,-16C28,-16 783,-16 783,-16 789,-16 795,-22 795,-28 795,-28 795,-1389 795,-1389 795,-1395 789,-1401 783,-1401 783,-1401 28,-1401 28,-1401 22,-1401 16,-1395 16,-1389 16,-1389 16,-28 16,-28 16,-22 22,-16 28,-16"/>
<text text-anchor="middle" x="405.5" y="-1385" font-family="SF Pro Text Bold 10" font-size="15.00">label %2</text>
<text text-anchor="middle" x="405.5" y="-1368" font-family="SF Pro Text Bold 10" font-size="15.00">count=4</text>
</g>
<!-- node_0 -->
<g id="node1" class="node">
<title>node_0</title>
<path fill="#6d95df" stroke="#000000" d="M1827,-1220C1827,-1220 1789,-1220 1789,-1220 1783,-1220 1777,-1214 1777,-1208 1777,-1208 1777,-1196 1777,-1196 1777,-1190 1783,-1184 1789,-1184 1789,-1184 1827,-1184 1827,-1184 1833,-1184 1839,-1190 1839,-1196 1839,-1196 1839,-1208 1839,-1208 1839,-1214 1833,-1220 1827,-1220"/>
<text text-anchor="middle" x="1808" y="-1198.5" font-family="SF Pro Text Bold 10" font-size="15.00" fill="#000000">alloca</text>
</g>
<!-- node_1 -->
<g id="node2" class="node">
<title>node_1</title>
<path fill="#6d95df" stroke="#000000" d="M1823.5,-1073C1823.5,-1073 1792.5,-1073 1792.5,-1073 1786.5,-1073 1780.5,-1067 1780.5,-1061 1780.5,-1061 1780.5,-1049 1780.5,-1049 1780.5,-1043 1786.5,-1037 1792.5,-1037 1792.5,-1037 1823.5,-1037 1823.5,-1037 1829.5,-1037 1835.5,-1043 1835.5,-1049 1835.5,-1049 1835.5,-1061 1835.5,-1061 1835.5,-1067 1829.5,-1073 1823.5,-1073"/>
<text text-anchor="middle" x="1808" y="-1051.5" font-family="SF Pro Text Bold 10" font-size="15.00" fill="#000000">store</text>
</g>
<!-- node_0&#45;&gt;node_1 -->
<g id="edge1" class="edge">
<title>node_0&#45;&gt;node_1</title>
<path fill="none" stroke="#ff3636" stroke-width="3" d="M1808,-1183.8C1808,-1158.94 1808,-1112.74 1808,-1083.23"/>
<polygon fill="#ff3636" stroke="#ff3636" stroke-width="3" points="1811.5,-1083.18 1808,-1073.18 1804.5,-1083.18 1811.5,-1083.18"/>
</g>
<!-- node_0&#45;&gt;node_1 -->
<g id="edge17" class="edge">
<title>node_0&#45;&gt;node_1</title>
<path fill="none" stroke="#00b3ff" stroke-width="2" d="M1808.68,-1183.89C1809.16,-1171 1809.75,-1152.89 1810,-1137 1810.28,-1119.06 1809.78,-1098.89 1809.22,-1083.16"/>
<polygon fill="#00b3ff" stroke="#00b3ff" stroke-width="2" points="1812.71,-1082.92 1808.82,-1073.06 1805.72,-1083.19 1812.71,-1082.92"/>
<text text-anchor="middle" x="1820.5" y="-1125" font-family="SF Pro Text Bold 10" font-size="15.00">%1</text>
</g>
<!-- node_2 -->
<g id="node3" class="node">
<title>node_2</title>
<path fill="#6d95df" stroke="#000000" d="M1823,-926C1823,-926 1793,-926 1793,-926 1787,-926 1781,-920 1781,-914 1781,-914 1781,-902 1781,-902 1781,-896 1787,-890 1793,-890 1793,-890 1823,-890 1823,-890 1829,-890 1835,-896 1835,-902 1835,-902 1835,-914 1835,-914 1835,-920 1829,-926 1823,-926"/>
<text text-anchor="middle" x="1808" y="-904.5" font-family="SF Pro Text Bold 10" font-size="15.00" fill="#000000">call</text>
</g>
<!-- node_1&#45;&gt;node_2 -->
<g id="edge2" class="edge">
<title>node_1&#45;&gt;node_2</title>
<path fill="none" stroke="#ff3636" stroke-width="3" d="M1808,-1036.8C1808,-1011.94 1808,-965.74 1808,-936.23"/>
<polygon fill="#ff3636" stroke="#ff3636" stroke-width="3" points="1811.5,-936.18 1808,-926.18 1804.5,-936.18 1811.5,-936.18"/>
</g>
<!-- node_3 -->
<g id="node4" class="node">
<title>node_3</title>
<path fill="#6d95df" stroke="#000000" d="M1823,-779C1823,-779 1793,-779 1793,-779 1787,-779 1781,-773 1781,-767 1781,-767 1781,-755 1781,-755 1781,-749 1787,-743 1793,-743 1793,-743 1823,-743 1823,-743 1829,-743 1835,-749 1835,-755 1835,-755 1835,-767 1835,-767 1835,-773 1829,-779 1823,-779"/>
<text text-anchor="middle" x="1808" y="-757.5" font-family="SF Pro Text Bold 10" font-size="15.00" fill="#000000">call</text>
</g>
<!-- node_2&#45;&gt;node_3 -->
<g id="edge3" class="edge">
<title>node_2&#45;&gt;node_3</title>
<path fill="none" stroke="#ff3636" stroke-width="3" d="M1808,-889.8C1808,-864.94 1808,-818.74 1808,-789.23"/>
<polygon fill="#ff3636" stroke="#ff3636" stroke-width="3" points="1811.5,-789.18 1808,-779.18 1804.5,-789.18 1811.5,-789.18"/>
</g>
<!-- node_4 -->
<g id="node5" class="node">
<title>node_4</title>
<path fill="#6d95df" stroke="#000000" d="M1823,-632C1823,-632 1793,-632 1793,-632 1787,-632 1781,-626 1781,-620 1781,-620 1781,-608 1781,-608 1781,-602 1787,-596 1793,-596 1793,-596 1823,-596 1823,-596 1829,-596 1835,-602 1835,-608 1835,-608 1835,-620 1835,-620 1835,-626 1829,-632 1823,-632"/>
<text text-anchor="middle" x="1808" y="-610.5" font-family="SF Pro Text Bold 10" font-size="15.00" fill="#000000">call</text>
</g>
<!-- node_2&#45;&gt;node_4 -->
<g id="edge20" class="edge">
<title>node_2&#45;&gt;node_4</title>
<path fill="none" stroke="#00b3ff" stroke-width="2" d="M1819.16,-889.66C1833.77,-865.85 1858.61,-821.16 1868,-779 1879.27,-728.42 1848.74,-672.27 1827.21,-640.54"/>
<polygon fill="#00b3ff" stroke="#00b3ff" stroke-width="2" points="1830.01,-638.45 1821.41,-632.26 1824.28,-642.46 1830.01,-638.45"/>
<text text-anchor="middle" x="1881.5" y="-757.5" font-family="SF Pro Text Bold 10" font-size="15.00">%2</text>
</g>
<!-- node_9 -->
<g id="node25" class="node">
<title>node_9</title>
<path fill="#6d95df" stroke="#000000" d="M422,-1220C422,-1220 384,-1220 384,-1220 378,-1220 372,-1214 372,-1208 372,-1208 372,-1196 372,-1196 372,-1190 378,-1184 384,-1184 384,-1184 422,-1184 422,-1184 428,-1184 434,-1190 434,-1196 434,-1196 434,-1208 434,-1208 434,-1214 428,-1220 422,-1220"/>
<text text-anchor="middle" x="403" y="-1198.5" font-family="SF Pro Text Bold 10" font-size="15.00" fill="#000000">alloca</text>
</g>
<!-- node_2&#45;&gt;node_9 -->
<g id="edge21" class="edge">
<title>node_2&#45;&gt;node_9</title>
<path fill="none" stroke="#ff8800" stroke-width="5" stroke-dasharray="5,2" d="M1780.98,-918.16C1771.04,-921.17 1759.61,-924.19 1749,-926 1567.76,-956.87 1084.52,-885.18 923,-973 843.65,-1016.14 880.05,-1089.88 803,-1137 743.2,-1173.57 533.96,-1192 444.3,-1198.36"/>
<polygon fill="#ff8800" stroke="#ff8800" stroke-width="5" points="443.9,-1194 434.23,-1199.06 444.51,-1202.73 443.9,-1194"/>
<text text-anchor="middle" x="872" y="-1051.5" font-family="SF Pro Text Bold 10" font-size="15.00">1</text>
</g>
<!-- node_3&#45;&gt;node_4 -->
<g id="edge4" class="edge">
<title>node_3&#45;&gt;node_4</title>
<path fill="none" stroke="#ff3636" stroke-width="3" d="M1808,-742.8C1808,-717.94 1808,-671.74 1808,-642.23"/>
<polygon fill="#ff3636" stroke="#ff3636" stroke-width="3" points="1811.5,-642.18 1808,-632.18 1804.5,-642.18 1811.5,-642.18"/>
</g>
<!-- node_3&#45;&gt;node_4 -->
<g id="edge25" class="edge">
<title>node_3&#45;&gt;node_4</title>
<path fill="none" stroke="#00b3ff" stroke-width="2" d="M1808.68,-742.89C1809.16,-730 1809.75,-711.89 1810,-696 1810.28,-678.06 1809.78,-657.89 1809.22,-642.16"/>
<polygon fill="#00b3ff" stroke="#00b3ff" stroke-width="2" points="1812.71,-641.92 1808.82,-632.06 1805.72,-642.19 1812.71,-641.92"/>
<text text-anchor="middle" x="1821.5" y="-684" font-family="SF Pro Text Bold 10" font-size="15.00">%3</text>
</g>
<!-- node_3&#45;&gt;node_9 -->
<g id="edge26" class="edge">
<title>node_3&#45;&gt;node_9</title>
<path fill="none" stroke="#ff8800" stroke-width="5" stroke-dasharray="5,2" d="M1824.41,-779.18C1853.67,-811.85 1908.17,-883.45 1868,-926 1805.5,-992.19 1134.25,-938.5 1050,-973 947.7,-1014.89 963.52,-1091.01 863,-1137 788.54,-1171.07 542.7,-1191.36 444.27,-1198.29"/>
<polygon fill="#ff8800" stroke="#ff8800" stroke-width="5" points="443.79,-1193.94 434.11,-1199 444.39,-1202.67 443.79,-1193.94"/>
<text text-anchor="middle" x="1054" y="-978" font-family="SF Pro Text Bold 10" font-size="15.00">1</text>
</g>
<!-- node_5 -->
<g id="node6" class="node">
<title>node_5</title>
<path fill="#6d95df" stroke="#000000" d="M1823,-501C1823,-501 1793,-501 1793,-501 1787,-501 1781,-495 1781,-489 1781,-489 1781,-477 1781,-477 1781,-471 1787,-465 1793,-465 1793,-465 1823,-465 1823,-465 1829,-465 1835,-471 1835,-477 1835,-477 1835,-489 1835,-489 1835,-495 1829,-501 1823,-501"/>
<text text-anchor="middle" x="1808" y="-479.5" font-family="SF Pro Text Bold 10" font-size="15.00" fill="#000000">call</text>
</g>
<!-- node_4&#45;&gt;node_5 -->
<g id="edge5" class="edge">
<title>node_4&#45;&gt;node_5</title>
<path fill="none" stroke="#ff3636" stroke-width="3" d="M1808,-595.87C1808,-574.28 1808,-536.91 1808,-511.35"/>
<polygon fill="#ff3636" stroke="#ff3636" stroke-width="3" points="1811.5,-511.2 1808,-501.2 1804.5,-511.2 1811.5,-511.2"/>
</g>
<!-- node_6 -->
<g id="node7" class="node">
<title>node_6</title>
<path fill="#6d95df" stroke="#000000" d="M1823,-354C1823,-354 1793,-354 1793,-354 1787,-354 1781,-348 1781,-342 1781,-342 1781,-330 1781,-330 1781,-324 1787,-318 1793,-318 1793,-318 1823,-318 1823,-318 1829,-318 1835,-324 1835,-330 1835,-330 1835,-342 1835,-342 1835,-348 1829,-354 1823,-354"/>
<text text-anchor="middle" x="1808" y="-332.5" font-family="SF Pro Text Bold 10" font-size="15.00" fill="#000000">add</text>
</g>
<!-- node_4&#45;&gt;node_6 -->
<g id="edge30" class="edge">
<title>node_4&#45;&gt;node_6</title>
<path fill="none" stroke="#00b3ff" stroke-width="2" d="M1820.67,-595.89C1835.41,-574.83 1858.87,-537.37 1868,-501 1880.62,-450.74 1849.64,-394.48 1827.65,-362.64"/>
<polygon fill="#00b3ff" stroke="#00b3ff" stroke-width="2" points="1830.39,-360.45 1821.73,-354.34 1824.69,-364.51 1830.39,-360.45"/>
<text text-anchor="middle" x="1882" y="-479.5" font-family="SF Pro Text Bold 10" font-size="15.00">%4</text>
</g>
<!-- node_4&#45;&gt;node_9 -->
<g id="edge31" class="edge">
<title>node_4&#45;&gt;node_9</title>
<path fill="none" stroke="#ff8800" stroke-width="5" stroke-dasharray="5,2" d="M1826.77,-632.23C1839.7,-644.59 1856.84,-661.99 1870,-679 1938.75,-767.88 2000.88,-844.05 1924,-926 1867.93,-985.76 1265.98,-947.82 1188,-973 1057.63,-1015.1 1056.1,-1091.15 927,-1137 837.88,-1168.65 551.9,-1190.86 444.39,-1198.29"/>
<polygon fill="#ff8800" stroke="#ff8800" stroke-width="5" points="443.93,-1193.93 434.25,-1198.98 444.53,-1202.66 443.93,-1193.93"/>
<text text-anchor="middle" x="1953" y="-904.5" font-family="SF Pro Text Bold 10" font-size="15.00">1</text>
</g>
<!-- node_5&#45;&gt;node_6 -->
<g id="edge6" class="edge">
<title>node_5&#45;&gt;node_6</title>
<path fill="none" stroke="#ff3636" stroke-width="3" d="M1808,-464.8C1808,-439.94 1808,-393.74 1808,-364.23"/>
<polygon fill="#ff3636" stroke="#ff3636" stroke-width="3" points="1811.5,-364.18 1808,-354.18 1804.5,-364.18 1811.5,-364.18"/>
</g>
<!-- node_5&#45;&gt;node_6 -->
<g id="edge33" class="edge">
<title>node_5&#45;&gt;node_6</title>
<path fill="none" stroke="#00b3ff" stroke-width="2" d="M1808.82,-464.94C1809.51,-448.54 1810.34,-423.08 1810,-401 1809.81,-388.95 1809.42,-375.64 1809.04,-364.29"/>
<polygon fill="#00b3ff" stroke="#00b3ff" stroke-width="2" points="1812.53,-363.98 1808.68,-354.11 1805.54,-364.23 1812.53,-363.98"/>
<text text-anchor="middle" x="1821.5" y="-406" font-family="SF Pro Text Bold 10" font-size="15.00">%5</text>
</g>
<!-- node_5&#45;&gt;node_9 -->
<g id="edge34" class="edge">
<title>node_5&#45;&gt;node_9</title>
<path fill="none" stroke="#ff8800" stroke-width="5" stroke-dasharray="5,2" d="M1825.19,-501.05C1890.57,-567.73 2113.2,-812.79 1973,-926 1754.53,-1102.42 1624.7,-974.19 1351,-1037 1191.24,-1073.66 1156.94,-1105.87 996,-1137 791.2,-1176.61 541.52,-1193.51 444.41,-1198.92"/>
<polygon fill="#ff8800" stroke="#ff8800" stroke-width="5" points="443.89,-1194.56 434.14,-1199.48 444.36,-1203.3 443.89,-1194.56"/>
<text text-anchor="middle" x="2022" y="-831" font-family="SF Pro Text Bold 10" font-size="15.00">1</text>
</g>
<!-- node_7 -->
<g id="node8" class="node">
<title>node_7</title>
<path fill="#6d95df" stroke="#000000" d="M1823,-207C1823,-207 1793,-207 1793,-207 1787,-207 1781,-201 1781,-195 1781,-195 1781,-183 1781,-183 1781,-177 1787,-171 1793,-171 1793,-171 1823,-171 1823,-171 1829,-171 1835,-177 1835,-183 1835,-183 1835,-195 1835,-195 1835,-201 1829,-207 1823,-207"/>
<text text-anchor="middle" x="1808" y="-185.5" font-family="SF Pro Text Bold 10" font-size="15.00" fill="#000000">call</text>
</g>
<!-- node_6&#45;&gt;node_7 -->
<g id="edge7" class="edge">
<title>node_6&#45;&gt;node_7</title>
<path fill="none" stroke="#ff3636" stroke-width="3" d="M1808,-317.8C1808,-292.94 1808,-246.74 1808,-217.23"/>
<polygon fill="#ff3636" stroke="#ff3636" stroke-width="3" points="1811.5,-217.18 1808,-207.18 1804.5,-217.18 1811.5,-217.18"/>
</g>
<!-- node_6&#45;&gt;node_7 -->
<g id="edge38" class="edge">
<title>node_6&#45;&gt;node_7</title>
<path fill="none" stroke="#00b3ff" stroke-width="2" d="M1808.82,-317.94C1809.51,-301.54 1810.34,-276.08 1810,-254 1809.81,-241.95 1809.42,-228.64 1809.04,-217.29"/>
<polygon fill="#00b3ff" stroke="#00b3ff" stroke-width="2" points="1812.53,-216.98 1808.68,-207.11 1805.54,-217.23 1812.53,-216.98"/>
<text text-anchor="middle" x="1822" y="-259" font-family="SF Pro Text Bold 10" font-size="15.00">%6</text>
</g>
<!-- node_8 -->
<g id="node9" class="node">
<title>node_8</title>
<path fill="#6d95df" stroke="#000000" d="M1823,-60C1823,-60 1793,-60 1793,-60 1787,-60 1781,-54 1781,-48 1781,-48 1781,-36 1781,-36 1781,-30 1787,-24 1793,-24 1793,-24 1823,-24 1823,-24 1829,-24 1835,-30 1835,-36 1835,-36 1835,-48 1835,-48 1835,-54 1829,-60 1823,-60"/>
<text text-anchor="middle" x="1808" y="-38.5" font-family="SF Pro Text Bold 10" font-size="15.00" fill="#000000">ret</text>
</g>
<!-- node_7&#45;&gt;node_8 -->
<g id="edge8" class="edge">
<title>node_7&#45;&gt;node_8</title>
<path fill="none" stroke="#ff3636" stroke-width="3" d="M1808,-170.8C1808,-145.94 1808,-99.74 1808,-70.23"/>
<polygon fill="#ff3636" stroke="#ff3636" stroke-width="3" points="1811.5,-70.18 1808,-60.18 1804.5,-70.18 1811.5,-70.18"/>
</g>
<!-- node_18 -->
<g id="node10" class="node">
<title>node_18</title>
<path fill="#d66868" stroke="#000000" d="M1823,-1351C1823,-1351 1793,-1351 1793,-1351 1787,-1351 1781,-1345 1781,-1339 1781,-1339 1781,-1327 1781,-1327 1781,-1321 1787,-1315 1793,-1315 1793,-1315 1823,-1315 1823,-1315 1829,-1315 1835,-1321 1835,-1327 1835,-1327 1835,-1339 1835,-1339 1835,-1345 1829,-1351 1823,-1351"/>
<text text-anchor="middle" x="1808" y="-1329.5" font-family="SF Pro Text Bold 10" font-size="15.00" fill="#000000">i32 1</text>
</g>
<!-- node_18&#45;&gt;node_0 -->
<g id="edge18" class="edge">
<title>node_18&#45;&gt;node_0</title>
<path fill="none" stroke="#00b3ff" stroke-width="2" d="M1808,-1314.87C1808,-1293.28 1808,-1255.91 1808,-1230.35"/>
<polygon fill="#00b3ff" stroke="#00b3ff" stroke-width="2" points="1811.5,-1230.2 1808,-1220.2 1804.5,-1230.2 1811.5,-1230.2"/>
</g>
<!-- node_19 -->
<g id="node11" class="node">
<title>node_19</title>
<path fill="#d66868" stroke="#000000" d="M1699.5,-1220C1699.5,-1220 1668.5,-1220 1668.5,-1220 1662.5,-1220 1656.5,-1214 1656.5,-1208 1656.5,-1208 1656.5,-1196 1656.5,-1196 1656.5,-1190 1662.5,-1184 1668.5,-1184 1668.5,-1184 1699.5,-1184 1699.5,-1184 1705.5,-1184 1711.5,-1190 1711.5,-1196 1711.5,-1196 1711.5,-1208 1711.5,-1208 1711.5,-1214 1705.5,-1220 1699.5,-1220"/>
<text text-anchor="middle" x="1684" y="-1198.5" font-family="SF Pro Text Bold 10" font-size="15.00" fill="#000000">i32 0</text>
</g>
<!-- node_19&#45;&gt;node_1 -->
<g id="edge19" class="edge">
<title>node_19&#45;&gt;node_1</title>
<path fill="none" stroke="#00b3ff" stroke-width="2" d="M1698.71,-1183.8C1720.53,-1158.29 1761.57,-1110.3 1786.68,-1080.93"/>
<polygon fill="#00b3ff" stroke="#00b3ff" stroke-width="2" points="1789.47,-1083.06 1793.31,-1073.18 1784.15,-1078.51 1789.47,-1083.06"/>
</g>
<!-- node_20 -->
<g id="node12" class="node">
<title>node_20</title>
<path fill="#d66868" stroke="#000000" d="M1703,-1073C1703,-1073 1673,-1073 1673,-1073 1667,-1073 1661,-1067 1661,-1061 1661,-1061 1661,-1049 1661,-1049 1661,-1043 1667,-1037 1673,-1037 1673,-1037 1703,-1037 1703,-1037 1709,-1037 1715,-1043 1715,-1049 1715,-1049 1715,-1061 1715,-1061 1715,-1067 1709,-1073 1703,-1073"/>
<text text-anchor="middle" x="1688" y="-1051.5" font-family="SF Pro Text Bold 10" font-size="15.00" fill="#000000">i32 3</text>
</g>
<!-- node_20&#45;&gt;node_2 -->
<g id="edge22" class="edge">
<title>node_20&#45;&gt;node_2</title>
<path fill="none" stroke="#00b3ff" stroke-width="2" d="M1702.24,-1036.8C1723.35,-1011.29 1763.07,-963.3 1787.37,-933.93"/>
<polygon fill="#00b3ff" stroke="#00b3ff" stroke-width="2" points="1790.1,-936.12 1793.78,-926.18 1784.71,-931.65 1790.1,-936.12"/>
</g>
<!-- node_21 -->
<g id="node13" class="node">
<title>node_21</title>
<path fill="#d66868" stroke="#000000" d="M1583.5,-1073C1583.5,-1073 1552.5,-1073 1552.5,-1073 1546.5,-1073 1540.5,-1067 1540.5,-1061 1540.5,-1061 1540.5,-1049 1540.5,-1049 1540.5,-1043 1546.5,-1037 1552.5,-1037 1552.5,-1037 1583.5,-1037 1583.5,-1037 1589.5,-1037 1595.5,-1043 1595.5,-1049 1595.5,-1049 1595.5,-1061 1595.5,-1061 1595.5,-1067 1589.5,-1073 1583.5,-1073"/>
<text text-anchor="middle" x="1568" y="-1051.5" font-family="SF Pro Text Bold 10" font-size="15.00" fill="#000000">i32 4</text>
</g>
<!-- node_21&#45;&gt;node_2 -->
<g id="edge23" class="edge">
<title>node_21&#45;&gt;node_2</title>
<path fill="none" stroke="#00b3ff" stroke-width="2" d="M1595.53,-1037.37C1639.11,-1011.04 1723.99,-959.76 1772.23,-930.61"/>
<polygon fill="#00b3ff" stroke="#00b3ff" stroke-width="2" points="1774.04,-933.61 1780.79,-925.44 1770.42,-927.61 1774.04,-933.61"/>
</g>
<!-- node_22 -->
<g id="node14" class="node">
<title>node_22</title>
<path fill="#d66868" stroke="#000000" d="M1463,-1073C1463,-1073 1395,-1073 1395,-1073 1389,-1073 1383,-1067 1383,-1061 1383,-1061 1383,-1049 1383,-1049 1383,-1043 1389,-1037 1395,-1037 1395,-1037 1463,-1037 1463,-1037 1469,-1037 1475,-1043 1475,-1049 1475,-1049 1475,-1061 1475,-1061 1475,-1067 1469,-1073 1463,-1073"/>
<text text-anchor="middle" x="1429" y="-1051.5" font-family="SF Pro Text Bold 10" font-size="15.00" fill="#000000">ptr @func</text>
</g>
<!-- node_22&#45;&gt;node_2 -->
<g id="edge24" class="edge">
<title>node_22&#45;&gt;node_2</title>
<path fill="none" stroke="#00b3ff" stroke-width="2" d="M1473.59,-1036.94C1549.12,-1008.04 1700.85,-949.99 1770.94,-923.18"/>
<polygon fill="#00b3ff" stroke="#00b3ff" stroke-width="2" points="1772.58,-926.3 1780.67,-919.46 1770.08,-919.76 1772.58,-926.3"/>
</g>
<!-- node_23 -->
<g id="node15" class="node">
<title>node_23</title>
<path fill="#d66868" stroke="#000000" d="M1704,-926C1704,-926 1674,-926 1674,-926 1668,-926 1662,-920 1662,-914 1662,-914 1662,-902 1662,-902 1662,-896 1668,-890 1674,-890 1674,-890 1704,-890 1704,-890 1710,-890 1716,-896 1716,-902 1716,-902 1716,-914 1716,-914 1716,-920 1710,-926 1704,-926"/>
<text text-anchor="middle" x="1689" y="-904.5" font-family="SF Pro Text Bold 10" font-size="15.00" fill="#000000">i32 5</text>
</g>
<!-- node_23&#45;&gt;node_3 -->
<g id="edge27" class="edge">
<title>node_23&#45;&gt;node_3</title>
<path fill="none" stroke="#00b3ff" stroke-width="2" d="M1703.12,-889.8C1724.05,-864.29 1763.44,-816.3 1787.54,-786.93"/>
<polygon fill="#00b3ff" stroke="#00b3ff" stroke-width="2" points="1790.26,-789.13 1793.9,-779.18 1784.85,-784.69 1790.26,-789.13"/>
</g>
<!-- node_24 -->
<g id="node16" class="node">
<title>node_24</title>
<path fill="#d66868" stroke="#000000" d="M1584.5,-926C1584.5,-926 1553.5,-926 1553.5,-926 1547.5,-926 1541.5,-920 1541.5,-914 1541.5,-914 1541.5,-902 1541.5,-902 1541.5,-896 1547.5,-890 1553.5,-890 1553.5,-890 1584.5,-890 1584.5,-890 1590.5,-890 1596.5,-896 1596.5,-902 1596.5,-902 1596.5,-914 1596.5,-914 1596.5,-920 1590.5,-926 1584.5,-926"/>
<text text-anchor="middle" x="1569" y="-904.5" font-family="SF Pro Text Bold 10" font-size="15.00" fill="#000000">i32 6</text>
</g>
<!-- node_24&#45;&gt;node_3 -->
<g id="edge28" class="edge">
<title>node_24&#45;&gt;node_3</title>
<path fill="none" stroke="#00b3ff" stroke-width="2" d="M1596.88,-890.08C1640.26,-863.76 1723.9,-813.02 1771.85,-783.93"/>
<polygon fill="#00b3ff" stroke="#00b3ff" stroke-width="2" points="1773.93,-786.77 1780.66,-778.59 1770.3,-780.78 1773.93,-786.77"/>
</g>
<!-- node_25 -->
<g id="node17" class="node">
<title>node_25</title>
<path fill="#d66868" stroke="#000000" d="M1464,-926C1464,-926 1396,-926 1396,-926 1390,-926 1384,-920 1384,-914 1384,-914 1384,-902 1384,-902 1384,-896 1390,-890 1396,-890 1396,-890 1464,-890 1464,-890 1470,-890 1476,-896 1476,-902 1476,-902 1476,-914 1476,-914 1476,-920 1470,-926 1464,-926"/>
<text text-anchor="middle" x="1430" y="-904.5" font-family="SF Pro Text Bold 10" font-size="15.00" fill="#000000">ptr @func</text>
</g>
<!-- node_25&#45;&gt;node_3 -->
<g id="edge29" class="edge">
<title>node_25&#45;&gt;node_3</title>
<path fill="none" stroke="#00b3ff" stroke-width="2" d="M1474.47,-889.94C1549.81,-861.04 1701.13,-802.99 1771.04,-776.18"/>
<polygon fill="#00b3ff" stroke="#00b3ff" stroke-width="2" points="1772.66,-779.3 1780.74,-772.46 1770.15,-772.77 1772.66,-779.3"/>
</g>
<!-- node_26 -->
<g id="node18" class="node">
<title>node_26</title>
<path fill="#d66868" stroke="#000000" d="M1704,-779C1704,-779 1636,-779 1636,-779 1630,-779 1624,-773 1624,-767 1624,-767 1624,-755 1624,-755 1624,-749 1630,-743 1636,-743 1636,-743 1704,-743 1704,-743 1710,-743 1716,-749 1716,-755 1716,-755 1716,-767 1716,-767 1716,-773 1710,-779 1704,-779"/>
<text text-anchor="middle" x="1670" y="-757.5" font-family="SF Pro Text Bold 10" font-size="15.00" fill="#000000">ptr @func</text>
</g>
<!-- node_26&#45;&gt;node_4 -->
<g id="edge32" class="edge">
<title>node_26&#45;&gt;node_4</title>
<path fill="none" stroke="#00b3ff" stroke-width="2" d="M1686.37,-742.8C1710.75,-717.18 1756.72,-668.89 1784.63,-639.56"/>
<polygon fill="#00b3ff" stroke="#00b3ff" stroke-width="2" points="1787.29,-641.84 1791.65,-632.18 1782.22,-637.01 1787.29,-641.84"/>
</g>
<!-- node_27 -->
<g id="node19" class="node">
<title>node_27</title>
<path fill="#d66868" stroke="#000000" d="M1704,-632C1704,-632 1674,-632 1674,-632 1668,-632 1662,-626 1662,-620 1662,-620 1662,-608 1662,-608 1662,-602 1668,-596 1674,-596 1674,-596 1704,-596 1704,-596 1710,-596 1716,-602 1716,-608 1716,-608 1716,-620 1716,-620 1716,-626 1710,-632 1704,-632"/>
<text text-anchor="middle" x="1689" y="-610.5" font-family="SF Pro Text Bold 10" font-size="15.00" fill="#000000">i32 3</text>
</g>
<!-- node_27&#45;&gt;node_5 -->
<g id="edge35" class="edge">
<title>node_27&#45;&gt;node_5</title>
<path fill="none" stroke="#00b3ff" stroke-width="2" d="M1704.8,-595.87C1725.43,-573.51 1761.67,-534.22 1785.25,-508.66"/>
<polygon fill="#00b3ff" stroke="#00b3ff" stroke-width="2" points="1787.92,-510.92 1792.13,-501.2 1782.78,-506.18 1787.92,-510.92"/>
</g>
<!-- node_28 -->
<g id="node20" class="node">
<title>node_28</title>
<path fill="#d66868" stroke="#000000" d="M1584.5,-632C1584.5,-632 1553.5,-632 1553.5,-632 1547.5,-632 1541.5,-626 1541.5,-620 1541.5,-620 1541.5,-608 1541.5,-608 1541.5,-602 1547.5,-596 1553.5,-596 1553.5,-596 1584.5,-596 1584.5,-596 1590.5,-596 1596.5,-602 1596.5,-608 1596.5,-608 1596.5,-620 1596.5,-620 1596.5,-626 1590.5,-632 1584.5,-632"/>
<text text-anchor="middle" x="1569" y="-610.5" font-family="SF Pro Text Bold 10" font-size="15.00" fill="#000000">i32 4</text>
</g>
<!-- node_28&#45;&gt;node_5 -->
<g id="edge36" class="edge">
<title>node_28&#45;&gt;node_5</title>
<path fill="none" stroke="#00b3ff" stroke-width="2" d="M1596.88,-597.95C1640.26,-574.54 1723.9,-529.39 1771.85,-503.51"/>
<polygon fill="#00b3ff" stroke="#00b3ff" stroke-width="2" points="1773.52,-506.59 1780.66,-498.76 1770.2,-500.43 1773.52,-506.59"/>
</g>
<!-- node_29 -->
<g id="node21" class="node">
<title>node_29</title>
<path fill="#d66868" stroke="#000000" d="M1464,-632C1464,-632 1396,-632 1396,-632 1390,-632 1384,-626 1384,-620 1384,-620 1384,-608 1384,-608 1384,-602 1390,-596 1396,-596 1396,-596 1464,-596 1464,-596 1470,-596 1476,-602 1476,-608 1476,-608 1476,-620 1476,-620 1476,-626 1470,-632 1464,-632"/>
<text text-anchor="middle" x="1430" y="-610.5" font-family="SF Pro Text Bold 10" font-size="15.00" fill="#000000">ptr @func</text>
</g>
<!-- node_29&#45;&gt;node_5 -->
<g id="edge37" class="edge">
<title>node_29&#45;&gt;node_5</title>
<path fill="none" stroke="#00b3ff" stroke-width="2" d="M1476.35,-597.18C1552.26,-571.28 1701.58,-520.32 1770.95,-496.64"/>
<polygon fill="#00b3ff" stroke="#00b3ff" stroke-width="2" points="1772.25,-499.9 1780.59,-493.36 1769.99,-493.27 1772.25,-499.9"/>
</g>
<!-- node_30 -->
<g id="node22" class="node">
<title>node_30</title>
<path fill="#d66868" stroke="#000000" d="M1703.5,-354C1703.5,-354 1644.5,-354 1644.5,-354 1638.5,-354 1632.5,-348 1632.5,-342 1632.5,-342 1632.5,-330 1632.5,-330 1632.5,-324 1638.5,-318 1644.5,-318 1644.5,-318 1703.5,-318 1703.5,-318 1709.5,-318 1715.5,-324 1715.5,-330 1715.5,-330 1715.5,-342 1715.5,-342 1715.5,-348 1709.5,-354 1703.5,-354"/>
<text text-anchor="middle" x="1674" y="-332.5" font-family="SF Pro Text Bold 10" font-size="15.00" fill="#000000">ptr @.str</text>
</g>
<!-- node_30&#45;&gt;node_7 -->
<g id="edge39" class="edge">
<title>node_30&#45;&gt;node_7</title>
<path fill="none" stroke="#00b3ff" stroke-width="2" d="M1689.9,-317.8C1713.57,-292.18 1758.2,-243.89 1785.3,-214.56"/>
<polygon fill="#00b3ff" stroke="#00b3ff" stroke-width="2" points="1787.91,-216.9 1792.12,-207.18 1782.77,-212.15 1787.91,-216.9"/>
</g>
<!-- node_31 -->
<g id="node23" class="node">
<title>node_31</title>
<path fill="#d66868" stroke="#000000" d="M1555,-354C1555,-354 1479,-354 1479,-354 1473,-354 1467,-348 1467,-342 1467,-342 1467,-330 1467,-330 1467,-324 1473,-318 1479,-318 1479,-318 1555,-318 1555,-318 1561,-318 1567,-324 1567,-330 1567,-330 1567,-342 1567,-342 1567,-348 1561,-354 1555,-354"/>
<text text-anchor="middle" x="1517" y="-332.5" font-family="SF Pro Text Bold 10" font-size="15.00" fill="#000000">ptr @printf</text>
</g>
<!-- node_31&#45;&gt;node_7 -->
<g id="edge40" class="edge">
<title>node_31&#45;&gt;node_7</title>
<path fill="none" stroke="#00b3ff" stroke-width="2" d="M1551.24,-317.94C1606.48,-290.41 1714.82,-236.43 1771.49,-208.19"/>
<polygon fill="#00b3ff" stroke="#00b3ff" stroke-width="2" points="1773.39,-211.15 1780.78,-203.56 1770.27,-204.89 1773.39,-211.15"/>
</g>
<!-- node_32 -->
<g id="node24" class="node">
<title>node_32</title>
<path fill="#d66868" stroke="#000000" d="M1703.5,-207C1703.5,-207 1672.5,-207 1672.5,-207 1666.5,-207 1660.5,-201 1660.5,-195 1660.5,-195 1660.5,-183 1660.5,-183 1660.5,-177 1666.5,-171 1672.5,-171 1672.5,-171 1703.5,-171 1703.5,-171 1709.5,-171 1715.5,-177 1715.5,-183 1715.5,-183 1715.5,-195 1715.5,-195 1715.5,-201 1709.5,-207 1703.5,-207"/>
<text text-anchor="middle" x="1688" y="-185.5" font-family="SF Pro Text Bold 10" font-size="15.00" fill="#000000">i32 0</text>
</g>
<!-- node_32&#45;&gt;node_8 -->
<g id="edge41" class="edge">
<title>node_32&#45;&gt;node_8</title>
<path fill="none" stroke="#00b3ff" stroke-width="2" d="M1702.24,-170.8C1723.35,-145.29 1763.07,-97.3 1787.37,-67.93"/>
<polygon fill="#00b3ff" stroke="#00b3ff" stroke-width="2" points="1790.1,-70.12 1793.78,-60.18 1784.71,-65.65 1790.1,-70.12"/>
</g>
<!-- node_10 -->
<g id="node26" class="node">
<title>node_10</title>
<path fill="#6d95df" stroke="#000000" d="M422,-1073C422,-1073 384,-1073 384,-1073 378,-1073 372,-1067 372,-1061 372,-1061 372,-1049 372,-1049 372,-1043 378,-1037 384,-1037 384,-1037 422,-1037 422,-1037 428,-1037 434,-1043 434,-1049 434,-1049 434,-1061 434,-1061 434,-1067 428,-1073 422,-1073"/>
<text text-anchor="middle" x="403" y="-1051.5" font-family="SF Pro Text Bold 10" font-size="15.00" fill="#000000">alloca</text>
</g>
<!-- node_9&#45;&gt;node_10 -->
<g id="edge9" class="edge">
<title>node_9&#45;&gt;node_10</title>
<path fill="none" stroke="#ff3636" stroke-width="3" d="M403,-1183.8C403,-1158.94 403,-1112.74 403,-1083.23"/>
<polygon fill="#ff3636" stroke="#ff3636" stroke-width="3" points="406.5,-1083.18 403,-1073.18 399.5,-1083.18 406.5,-1083.18"/>
</g>
<!-- node_11 -->
<g id="node27" class="node">
<title>node_11</title>
<path fill="#6d95df" stroke="#000000" d="M418.5,-926C418.5,-926 387.5,-926 387.5,-926 381.5,-926 375.5,-920 375.5,-914 375.5,-914 375.5,-902 375.5,-902 375.5,-896 381.5,-890 387.5,-890 387.5,-890 418.5,-890 418.5,-890 424.5,-890 430.5,-896 430.5,-902 430.5,-902 430.5,-914 430.5,-914 430.5,-920 424.5,-926 418.5,-926"/>
<text text-anchor="middle" x="403" y="-904.5" font-family="SF Pro Text Bold 10" font-size="15.00" fill="#000000">store</text>
</g>
<!-- node_9&#45;&gt;node_11 -->
<g id="edge43" class="edge">
<title>node_9&#45;&gt;node_11</title>
<path fill="none" stroke="#00b3ff" stroke-width="2" d="M414.72,-1183.75C430.05,-1160.04 456.12,-1115.46 466,-1073 477.82,-1022.22 445.77,-966.14 423.16,-934.47"/>
<polygon fill="#00b3ff" stroke="#00b3ff" stroke-width="2" points="425.83,-932.19 417.08,-926.21 420.19,-936.34 425.83,-932.19"/>
<text text-anchor="middle" x="480.5" y="-1051.5" font-family="SF Pro Text Bold 10" font-size="15.00">%3</text>
</g>
<!-- node_13 -->
<g id="node29" class="node">
<title>node_13</title>
<path fill="#6d95df" stroke="#000000" d="M418,-632C418,-632 388,-632 388,-632 382,-632 376,-626 376,-620 376,-620 376,-608 376,-608 376,-602 382,-596 388,-596 388,-596 418,-596 418,-596 424,-596 430,-602 430,-608 430,-608 430,-620 430,-620 430,-626 424,-632 418,-632"/>
<text text-anchor="middle" x="403" y="-610.5" font-family="SF Pro Text Bold 10" font-size="15.00" fill="#000000">load</text>
</g>
<!-- node_9&#45;&gt;node_13 -->
<g id="edge42" class="edge">
<title>node_9&#45;&gt;node_13</title>
<path fill="none" stroke="#00b3ff" stroke-width="2" d="M434.12,-1200.54C504.94,-1197.61 677.73,-1179.35 752,-1073 874.06,-898.22 550.58,-696.81 439.15,-634.42"/>
<polygon fill="#00b3ff" stroke="#00b3ff" stroke-width="2" points="440.71,-631.29 430.27,-629.5 437.32,-637.41 440.71,-631.29"/>
<text text-anchor="middle" x="777.5" y="-904.5" font-family="SF Pro Text Bold 10" font-size="15.00">%3</text>
</g>
<!-- node_10&#45;&gt;node_11 -->
<g id="edge10" class="edge">
<title>node_10&#45;&gt;node_11</title>
<path fill="none" stroke="#ff3636" stroke-width="3" d="M403,-1036.8C403,-1011.94 403,-965.74 403,-936.23"/>
<polygon fill="#ff3636" stroke="#ff3636" stroke-width="3" points="406.5,-936.18 403,-926.18 399.5,-936.18 406.5,-936.18"/>
</g>
<!-- node_12 -->
<g id="node28" class="node">
<title>node_12</title>
<path fill="#6d95df" stroke="#000000" d="M418.5,-779C418.5,-779 387.5,-779 387.5,-779 381.5,-779 375.5,-773 375.5,-767 375.5,-767 375.5,-755 375.5,-755 375.5,-749 381.5,-743 387.5,-743 387.5,-743 418.5,-743 418.5,-743 424.5,-743 430.5,-749 430.5,-755 430.5,-755 430.5,-767 430.5,-767 430.5,-773 424.5,-779 418.5,-779"/>
<text text-anchor="middle" x="403" y="-757.5" font-family="SF Pro Text Bold 10" font-size="15.00" fill="#000000">store</text>
</g>
<!-- node_10&#45;&gt;node_12 -->
<g id="edge46" class="edge">
<title>node_10&#45;&gt;node_12</title>
<path fill="none" stroke="#00b3ff" stroke-width="2" d="M371.97,-1046.09C302.17,-1026.67 142.42,-972.15 189,-890 226.86,-823.24 314.91,-787.56 365.48,-771.93"/>
<polygon fill="#00b3ff" stroke="#00b3ff" stroke-width="2" points="366.79,-775.19 375.37,-768.98 364.79,-768.48 366.79,-775.19"/>
<text text-anchor="middle" x="201" y="-904.5" font-family="SF Pro Text Bold 10" font-size="15.00">%4</text>
</g>
<!-- node_14 -->
<g id="node30" class="node">
<title>node_14</title>
<path fill="#6d95df" stroke="#000000" d="M418,-501C418,-501 388,-501 388,-501 382,-501 376,-495 376,-489 376,-489 376,-477 376,-477 376,-471 382,-465 388,-465 388,-465 418,-465 418,-465 424,-465 430,-471 430,-477 430,-477 430,-489 430,-489 430,-495 424,-501 418,-501"/>
<text text-anchor="middle" x="403" y="-479.5" font-family="SF Pro Text Bold 10" font-size="15.00" fill="#000000">load</text>
</g>
<!-- node_10&#45;&gt;node_14 -->
<g id="edge45" class="edge">
<title>node_10&#45;&gt;node_14</title>
<path fill="none" stroke="#00b3ff" stroke-width="2" d="M371.8,-1051.85C328,-1047.32 247.95,-1033.28 197,-990 161.44,-959.79 152.77,-935.03 165,-890 208.35,-730.35 332.01,-569.26 381.82,-508.88"/>
<polygon fill="#00b3ff" stroke="#00b3ff" stroke-width="2" points="384.64,-510.97 388.35,-501.04 379.26,-506.49 384.64,-510.97"/>
<text text-anchor="middle" x="237" y="-757.5" font-family="SF Pro Text Bold 10" font-size="15.00">%4</text>
</g>
<!-- node_11&#45;&gt;node_12 -->
<g id="edge11" class="edge">
<title>node_11&#45;&gt;node_12</title>
<path fill="none" stroke="#ff3636" stroke-width="3" d="M403,-889.8C403,-864.94 403,-818.74 403,-789.23"/>
<polygon fill="#ff3636" stroke="#ff3636" stroke-width="3" points="406.5,-789.18 403,-779.18 399.5,-789.18 406.5,-789.18"/>
</g>
<!-- node_12&#45;&gt;node_13 -->
<g id="edge12" class="edge">
<title>node_12&#45;&gt;node_13</title>
<path fill="none" stroke="#ff3636" stroke-width="3" d="M403,-742.8C403,-717.94 403,-671.74 403,-642.23"/>
<polygon fill="#ff3636" stroke="#ff3636" stroke-width="3" points="406.5,-642.18 403,-632.18 399.5,-642.18 406.5,-642.18"/>
</g>
<!-- node_13&#45;&gt;node_14 -->
<g id="edge13" class="edge">
<title>node_13&#45;&gt;node_14</title>
<path fill="none" stroke="#ff3636" stroke-width="3" d="M403,-595.87C403,-574.28 403,-536.91 403,-511.35"/>
<polygon fill="#ff3636" stroke="#ff3636" stroke-width="3" points="406.5,-511.2 403,-501.2 399.5,-511.2 406.5,-511.2"/>
</g>
<!-- node_16 -->
<g id="node32" class="node">
<title>node_16</title>
<path fill="#6d95df" stroke="#000000" d="M418,-207C418,-207 388,-207 388,-207 382,-207 376,-201 376,-195 376,-195 376,-183 376,-183 376,-177 382,-171 388,-171 388,-171 418,-171 418,-171 424,-171 430,-177 430,-183 430,-183 430,-195 430,-195 430,-201 424,-207 418,-207"/>
<text text-anchor="middle" x="403" y="-185.5" font-family="SF Pro Text Bold 10" font-size="15.00" fill="#000000">add</text>
</g>
<!-- node_13&#45;&gt;node_16 -->
<g id="edge50" class="edge">
<title>node_13&#45;&gt;node_16</title>
<path fill="none" stroke="#00b3ff" stroke-width="2" d="M430.16,-605.27C485.33,-587.88 603.49,-541.12 581,-465 550.37,-361.32 467.09,-259.99 426.23,-214.68"/>
<polygon fill="#00b3ff" stroke="#00b3ff" stroke-width="2" points="428.68,-212.17 419.35,-207.14 423.51,-216.89 428.68,-212.17"/>
<text text-anchor="middle" x="575.5" y="-406" font-family="SF Pro Text Bold 10" font-size="15.00">%5</text>
</g>
<!-- node_15 -->
<g id="node31" class="node">
<title>node_15</title>
<path fill="#6d95df" stroke="#000000" d="M418,-354C418,-354 388,-354 388,-354 382,-354 376,-348 376,-342 376,-342 376,-330 376,-330 376,-324 382,-318 388,-318 388,-318 418,-318 418,-318 424,-318 430,-324 430,-330 430,-330 430,-342 430,-342 430,-348 424,-354 418,-354"/>
<text text-anchor="middle" x="403" y="-332.5" font-family="SF Pro Text Bold 10" font-size="15.00" fill="#000000">mul</text>
</g>
<!-- node_14&#45;&gt;node_15 -->
<g id="edge14" class="edge">
<title>node_14&#45;&gt;node_15</title>
<path fill="none" stroke="#ff3636" stroke-width="3" d="M403,-464.8C403,-439.94 403,-393.74 403,-364.23"/>
<polygon fill="#ff3636" stroke="#ff3636" stroke-width="3" points="406.5,-364.18 403,-354.18 399.5,-364.18 406.5,-364.18"/>
</g>
<!-- node_14&#45;&gt;node_15 -->
<g id="edge51" class="edge">
<title>node_14&#45;&gt;node_15</title>
<path fill="none" stroke="#00b3ff" stroke-width="2" d="M403.82,-464.94C404.51,-448.54 405.34,-423.08 405,-401 404.81,-388.95 404.42,-375.64 404.04,-364.29"/>
<polygon fill="#00b3ff" stroke="#00b3ff" stroke-width="2" points="407.53,-363.98 403.68,-354.11 400.54,-364.23 407.53,-363.98"/>
<text text-anchor="middle" x="418" y="-406" font-family="SF Pro Text Bold 10" font-size="15.00">%6</text>
</g>
<!-- node_15&#45;&gt;node_16 -->
<g id="edge15" class="edge">
<title>node_15&#45;&gt;node_16</title>
<path fill="none" stroke="#ff3636" stroke-width="3" d="M403,-317.8C403,-292.94 403,-246.74 403,-217.23"/>
<polygon fill="#ff3636" stroke="#ff3636" stroke-width="3" points="406.5,-217.18 403,-207.18 399.5,-217.18 406.5,-217.18"/>
</g>
<!-- node_15&#45;&gt;node_16 -->
<g id="edge52" class="edge">
<title>node_15&#45;&gt;node_16</title>
<path fill="none" stroke="#00b3ff" stroke-width="2" d="M403.68,-317.89C404.16,-305 404.75,-286.89 405,-271 405.28,-253.06 404.78,-232.89 404.22,-217.16"/>
<polygon fill="#00b3ff" stroke="#00b3ff" stroke-width="2" points="407.71,-216.92 403.82,-207.06 400.72,-217.19 407.71,-216.92"/>
<text text-anchor="middle" x="417" y="-259" font-family="SF Pro Text Bold 10" font-size="15.00">%7</text>
</g>
<!-- node_17 -->
<g id="node33" class="node">
<title>node_17</title>
<path fill="#6d95df" stroke="#000000" d="M418,-60C418,-60 388,-60 388,-60 382,-60 376,-54 376,-48 376,-48 376,-36 376,-36 376,-30 382,-24 388,-24 388,-24 418,-24 418,-24 424,-24 430,-30 430,-36 430,-36 430,-48 430,-48 430,-54 424,-60 418,-60"/>
<text text-anchor="middle" x="403" y="-38.5" font-family="SF Pro Text Bold 10" font-size="15.00" fill="#000000">ret</text>
</g>
<!-- node_16&#45;&gt;node_17 -->
<g id="edge16" class="edge">
<title>node_16&#45;&gt;node_17</title>
<path fill="none" stroke="#ff3636" stroke-width="3" d="M403,-170.8C403,-145.94 403,-99.74 403,-70.23"/>
<polygon fill="#ff3636" stroke="#ff3636" stroke-width="3" points="406.5,-70.18 403,-60.18 399.5,-70.18 406.5,-70.18"/>
</g>
<!-- node_16&#45;&gt;node_17 -->
<g id="edge54" class="edge">
<title>node_16&#45;&gt;node_17</title>
<path fill="none" stroke="#00b3ff" stroke-width="2" d="M403.68,-170.89C404.16,-158 404.75,-139.89 405,-124 405.28,-106.06 404.78,-85.89 404.22,-70.16"/>
<polygon fill="#00b3ff" stroke="#00b3ff" stroke-width="2" points="407.71,-69.92 403.82,-60.06 400.72,-70.19 407.71,-69.92"/>
<text text-anchor="middle" x="418" y="-112" font-family="SF Pro Text Bold 10" font-size="15.00">%8</text>
</g>
<!-- node_33 -->
<g id="node34" class="node">
<title>node_33</title>
<path fill="#d66868" stroke="#000000" d="M418,-1351C418,-1351 388,-1351 388,-1351 382,-1351 376,-1345 376,-1339 376,-1339 376,-1327 376,-1327 376,-1321 382,-1315 388,-1315 388,-1315 418,-1315 418,-1315 424,-1315 430,-1321 430,-1327 430,-1327 430,-1339 430,-1339 430,-1345 424,-1351 418,-1351"/>
<text text-anchor="middle" x="403" y="-1329.5" font-family="SF Pro Text Bold 10" font-size="15.00" fill="#000000">i32 1</text>
</g>
<!-- node_33&#45;&gt;node_9 -->
<g id="edge44" class="edge">
<title>node_33&#45;&gt;node_9</title>
<path fill="none" stroke="#00b3ff" stroke-width="2" d="M403,-1314.87C403,-1293.28 403,-1255.91 403,-1230.35"/>
<polygon fill="#00b3ff" stroke="#00b3ff" stroke-width="2" points="406.5,-1230.2 403,-1220.2 399.5,-1230.2 406.5,-1230.2"/>
</g>
<!-- node_34 -->
<g id="node35" class="node">
<title>node_34</title>
<path fill="#d66868" stroke="#000000" d="M295,-1220C295,-1220 265,-1220 265,-1220 259,-1220 253,-1214 253,-1208 253,-1208 253,-1196 253,-1196 253,-1190 259,-1184 265,-1184 265,-1184 295,-1184 295,-1184 301,-1184 307,-1190 307,-1196 307,-1196 307,-1208 307,-1208 307,-1214 301,-1220 295,-1220"/>
<text text-anchor="middle" x="280" y="-1198.5" font-family="SF Pro Text Bold 10" font-size="15.00" fill="#000000">i32 1</text>
</g>
<!-- node_34&#45;&gt;node_10 -->
<g id="edge47" class="edge">
<title>node_34&#45;&gt;node_10</title>
<path fill="none" stroke="#00b3ff" stroke-width="2" d="M294.59,-1183.8C316.23,-1158.29 356.94,-1110.3 381.85,-1080.93"/>
<polygon fill="#00b3ff" stroke="#00b3ff" stroke-width="2" points="384.63,-1083.07 388.43,-1073.18 379.29,-1078.54 384.63,-1083.07"/>
</g>
<!-- node_35 -->
<g id="node36" class="node">
<title>node_35</title>
<path fill="#d66868" stroke="#000000" d="M708,-1073C708,-1073 664,-1073 664,-1073 658,-1073 652,-1067 652,-1061 652,-1061 652,-1049 652,-1049 652,-1043 658,-1037 664,-1037 664,-1037 708,-1037 708,-1037 714,-1037 720,-1043 720,-1049 720,-1049 720,-1061 720,-1061 720,-1067 714,-1073 708,-1073"/>
<text text-anchor="middle" x="686" y="-1051.5" font-family="SF Pro Text Bold 10" font-size="15.00" fill="#000000">i32 %0</text>
</g>
<!-- node_35&#45;&gt;node_11 -->
<g id="edge48" class="edge">
<title>node_35&#45;&gt;node_11</title>
<path fill="none" stroke="#00b3ff" stroke-width="2" d="M667.53,-1036.84C647.48,-1018.94 613.91,-991.03 581,-973 535.19,-947.91 477.6,-929.29 440.54,-918.79"/>
<polygon fill="#00b3ff" stroke="#00b3ff" stroke-width="2" points="441.24,-915.35 430.66,-916.04 439.36,-922.09 441.24,-915.35"/>
<text text-anchor="middle" x="618" y="-978" font-family="SF Pro Text Bold 10" font-size="15.00">%0</text>
</g>
<!-- node_36 -->
<g id="node37" class="node">
<title>node_36</title>
<path fill="#d66868" stroke="#000000" d="M298.5,-926C298.5,-926 257.5,-926 257.5,-926 251.5,-926 245.5,-920 245.5,-914 245.5,-914 245.5,-902 245.5,-902 245.5,-896 251.5,-890 257.5,-890 257.5,-890 298.5,-890 298.5,-890 304.5,-890 310.5,-896 310.5,-902 310.5,-902 310.5,-914 310.5,-914 310.5,-920 304.5,-926 298.5,-926"/>
<text text-anchor="middle" x="278" y="-904.5" font-family="SF Pro Text Bold 10" font-size="15.00" fill="#000000">i32 %1</text>
</g>
<!-- node_36&#45;&gt;node_12 -->
<g id="edge49" class="edge">
<title>node_36&#45;&gt;node_12</title>
<path fill="none" stroke="#00b3ff" stroke-width="2" d="M292.83,-889.8C314.82,-864.29 356.19,-816.3 381.51,-786.93"/>
<polygon fill="#00b3ff" stroke="#00b3ff" stroke-width="2" points="384.31,-789.04 388.19,-779.18 379.01,-784.47 384.31,-789.04"/>
<text text-anchor="middle" x="355.5" y="-831" font-family="SF Pro Text Bold 10" font-size="15.00">%1</text>
</g>
<!-- node_37 -->
<g id="node38" class="node">
<title>node_37</title>
<path fill="#d66868" stroke="#000000" d="M537,-501C537,-501 507,-501 507,-501 501,-501 495,-495 495,-489 495,-489 495,-477 495,-477 495,-471 501,-465 507,-465 507,-465 537,-465 537,-465 543,-465 549,-471 549,-477 549,-477 549,-489 549,-489 549,-495 543,-501 537,-501"/>
<text text-anchor="middle" x="522" y="-479.5" font-family="SF Pro Text Bold 10" font-size="15.00" fill="#000000">i32 2</text>
</g>
<!-- node_37&#45;&gt;node_15 -->
<g id="edge53" class="edge">
<title>node_37&#45;&gt;node_15</title>
<path fill="none" stroke="#00b3ff" stroke-width="2" d="M507.88,-464.8C486.95,-439.29 447.56,-391.3 423.46,-361.93"/>
<polygon fill="#00b3ff" stroke="#00b3ff" stroke-width="2" points="426.15,-359.69 417.1,-354.18 420.74,-364.13 426.15,-359.69"/>
</g>
</g>
</svg>
