<?xml version="1.0" encoding="UTF-8" standalone="no"?>
<!DOCTYPE svg PUBLIC "-//W3C//DTD SVG 1.1//EN"
 "http://www.w3.org/Graphics/SVG/1.1/DTD/svg11.dtd">
<!-- Generated by graphviz version 2.43.0 (0)
 -->
<!-- Title: /home/sevsol/Projects/4sem/lisitsyn/llvm&#45;ir&#45;dumper/wt/graph_serialization_v2/examples/fact/fact.c Pages: 1 -->
<svg width="2876pt" height="3499pt"
 viewBox="0.00 0.00 2876.20 3499.20" xmlns="http://www.w3.org/2000/svg" xmlns:xlink="http://www.w3.org/1999/xlink">
<g id="graph0" class="graph" transform="scale(1 1) rotate(0) translate(21.6 3477.6)">
<title>/home/sevsol/Projects/4sem/lisitsyn/llvm&#45;ir&#45;dumper/wt/graph_serialization_v2/examples/fact/fact.c</title>
<polygon fill="white" stroke="transparent" points="-21.6,21.6 -21.6,-3477.6 2854.6,-3477.6 2854.6,21.6 -21.6,21.6"/>
<g id="clust1" class="cluster">
<title>cluster_func_0</title>
<path fill="#e3e3e3" stroke="#000000" stroke-width="2" d="M20,-1855C20,-1855 1072,-1855 1072,-1855 1078,-1855 1084,-1861 1084,-1867 1084,-1867 1084,-3436 1084,-3436 1084,-3442 1078,-3448 1072,-3448 1072,-3448 20,-3448 20,-3448 14,-3448 8,-3442 8,-3436 8,-3436 8,-1867 8,-1867 8,-1861 14,-1855 20,-1855"/>
<text text-anchor="middle" x="546" y="-3428" font-family="SF Pro Text Bold 10" font-size="20.00">fact</text>
</g>
<g id="clust2" class="cluster">
<title>cluster_func_0_bb_0</title>
<path fill="#a4a4a4" stroke="#000000" stroke-width="2" d="M793,-3039C793,-3039 976,-3039 976,-3039 982,-3039 988,-3045 988,-3051 988,-3051 988,-3398 988,-3398 988,-3404 982,-3410 976,-3410 976,-3410 793,-3410 793,-3410 787,-3410 781,-3404 781,-3398 781,-3398 781,-3051 781,-3051 781,-3045 787,-3039 793,-3039"/>
<text text-anchor="middle" x="884.5" y="-3394" font-family="SF Pro Text Bold 10" font-size="15.00">label %1</text>
</g>
<g id="clust3" class="cluster">
<title>cluster_func_0_bb_1</title>
<path fill="#a4a4a4" stroke="#000000" stroke-width="2" d="M28,-2157C28,-2157 898,-2157 898,-2157 904,-2157 910,-2163 910,-2169 910,-2169 910,-2957 910,-2957 910,-2963 904,-2969 898,-2969 898,-2969 28,-2969 28,-2969 22,-2969 16,-2963 16,-2957 16,-2957 16,-2169 16,-2169 16,-2163 22,-2157 28,-2157"/>
<text text-anchor="middle" x="463" y="-2953" font-family="SF Pro Text Bold 10" font-size="15.00">label %3</text>
</g>
<g id="clust4" class="cluster">
<title>cluster_func_0_bb_2</title>
<path fill="#a4a4a4" stroke="#000000" stroke-width="2" d="M878,-1863C878,-1863 999,-1863 999,-1863 1005,-1863 1011,-1869 1011,-1875 1011,-1875 1011,-2075 1011,-2075 1011,-2081 1005,-2087 999,-2087 999,-2087 878,-2087 878,-2087 872,-2087 866,-2081 866,-2075 866,-2075 866,-1875 866,-1875 866,-1869 872,-1863 878,-1863"/>
<text text-anchor="middle" x="938.5" y="-2071" font-family="SF Pro Text Bold 10" font-size="15.00">label %9</text>
</g>
<g id="clust5" class="cluster">
<title>cluster_func_1</title>
<path fill="#e3e3e3" stroke="#000000" stroke-width="2" d="M1104,-8C1104,-8 2813,-8 2813,-8 2819,-8 2825,-14 2825,-20 2825,-20 2825,-3436 2825,-3436 2825,-3442 2819,-3448 2813,-3448 2813,-3448 1104,-3448 1104,-3448 1098,-3448 1092,-3442 1092,-3436 1092,-3436 1092,-20 1092,-20 1092,-14 1098,-8 1104,-8"/>
<text text-anchor="middle" x="1958.5" y="-3428" font-family="SF Pro Text Bold 10" font-size="20.00">main</text>
</g>
<g id="clust6" class="cluster">
<title>cluster_func_1_bb_3</title>
<path fill="#a4a4a4" stroke="#000000" stroke-width="2" d="M2626,-3039C2626,-3039 2805,-3039 2805,-3039 2811,-3039 2817,-3045 2817,-3051 2817,-3051 2817,-3398 2817,-3398 2817,-3404 2811,-3410 2805,-3410 2805,-3410 2626,-3410 2626,-3410 2620,-3410 2614,-3404 2614,-3398 2614,-3398 2614,-3051 2614,-3051 2614,-3045 2620,-3039 2626,-3039"/>
<text text-anchor="middle" x="2715.5" y="-3394" font-family="SF Pro Text Bold 10" font-size="15.00">label %2</text>
</g>
<g id="clust7" class="cluster">
<title>cluster_func_1_bb_4</title>
<path fill="#a4a4a4" stroke="#000000" stroke-width="2" d="M2338,-310C2338,-310 2687,-310 2687,-310 2693,-310 2699,-316 2699,-322 2699,-322 2699,-653 2699,-653 2699,-659 2693,-665 2687,-665 2687,-665 2338,-665 2338,-665 2332,-665 2326,-659 2326,-653 2326,-653 2326,-322 2326,-322 2326,-316 2332,-310 2338,-310"/>
<text text-anchor="middle" x="2512.5" y="-649" font-family="SF Pro Text Bold 10" font-size="15.00">label %4</text>
</g>
<g id="clust8" class="cluster">
<title>cluster_func_1_bb_5</title>
<path fill="#a4a4a4" stroke="#000000" stroke-width="2" d="M2260,-2451C2260,-2451 2594,-2451 2594,-2451 2600,-2451 2606,-2457 2606,-2463 2606,-2463 2606,-3104 2606,-3104 2606,-3110 2600,-3116 2594,-3116 2594,-3116 2260,-3116 2260,-3116 2254,-3116 2248,-3110 2248,-3104 2248,-3104 2248,-2463 2248,-2463 2248,-2457 2254,-2451 2260,-2451"/>
<text text-anchor="middle" x="2427" y="-3100" font-family="SF Pro Text Bold 10" font-size="15.00">label %6</text>
</g>
<g id="clust9" class="cluster">
<title>cluster_func_1_bb_6</title>
<path fill="#a4a4a4" stroke="#000000" stroke-width="2" d="M1887,-1585C1887,-1585 2213,-1585 2213,-1585 2219,-1585 2225,-1591 2225,-1597 2225,-1597 2225,-2516 2225,-2516 2225,-2522 2219,-2528 2213,-2528 2213,-2528 1887,-2528 1887,-2528 1881,-2528 1875,-2522 1875,-2516 1875,-2516 1875,-1597 1875,-1597 1875,-1591 1881,-1585 1887,-1585"/>
<text text-anchor="middle" x="2050" y="-2512" font-family="SF Pro Text Bold 10" font-size="15.00">label %10</text>
</g>
<g id="clust10" class="cluster">
<title>cluster_func_1_bb_7</title>
<path fill="#a4a4a4" stroke="#000000" stroke-width="2" d="M1399,-735C1399,-735 2262,-735 2262,-735 2268,-735 2274,-741 2274,-747 2274,-747 2274,-1503 2274,-1503 2274,-1509 2268,-1515 2262,-1515 2262,-1515 1399,-1515 1399,-1515 1393,-1515 1387,-1509 1387,-1503 1387,-1503 1387,-747 1387,-747 1387,-741 1393,-735 1399,-735"/>
<text text-anchor="middle" x="1830.5" y="-1499" font-family="SF Pro Text Bold 10" font-size="15.00">label %16</text>
</g>
<g id="clust11" class="cluster">
<title>cluster_func_1_bb_8</title>
<path fill="#a4a4a4" stroke="#000000" stroke-width="2" d="M1507,-310C1507,-310 1954,-310 1954,-310 1960,-310 1966,-316 1966,-322 1966,-322 1966,-653 1966,-653 1966,-659 1960,-665 1954,-665 1954,-665 1507,-665 1507,-665 1501,-665 1495,-659 1495,-653 1495,-653 1495,-322 1495,-322 1495,-316 1501,-310 1507,-310"/>
<text text-anchor="middle" x="1730.5" y="-649" font-family="SF Pro Text Bold 10" font-size="15.00">label %22</text>
</g>
<g id="clust12" class="cluster">
<title>cluster_func_1_bb_9</title>
<path fill="#a4a4a4" stroke="#000000" stroke-width="2" d="M1986,-310C1986,-310 2306,-310 2306,-310 2312,-310 2318,-316 2318,-322 2318,-322 2318,-653 2318,-653 2318,-659 2312,-665 2306,-665 2306,-665 1986,-665 1986,-665 1980,-665 1974,-659 1974,-653 1974,-653 1974,-322 1974,-322 1974,-316 1980,-310 1986,-310"/>
<text text-anchor="middle" x="2146" y="-649" font-family="SF Pro Text Bold 10" font-size="15.00">label %25</text>
</g>
<g id="clust13" class="cluster">
<title>cluster_func_1_bb_10</title>
<path fill="#a4a4a4" stroke="#000000" stroke-width="2" d="M2219,-16C2219,-16 2343,-16 2343,-16 2349,-16 2355,-22 2355,-28 2355,-28 2355,-228 2355,-228 2355,-234 2349,-240 2343,-240 2343,-240 2219,-240 2219,-240 2213,-240 2207,-234 2207,-228 2207,-228 2207,-28 2207,-28 2207,-22 2213,-16 2219,-16"/>
<text text-anchor="middle" x="2281" y="-224" font-family="SF Pro Text Bold 10" font-size="15.00">label %27</text>
</g>
<!-- node_0 -->
<g id="node1" class="node">
<title>node_0</title>
<path fill="#6d95df" stroke="#000000" d="M880,-3230C880,-3230 850,-3230 850,-3230 844,-3230 838,-3224 838,-3218 838,-3218 838,-3206 838,-3206 838,-3200 844,-3194 850,-3194 850,-3194 880,-3194 880,-3194 886,-3194 892,-3200 892,-3206 892,-3206 892,-3218 892,-3218 892,-3224 886,-3230 880,-3230"/>
<text text-anchor="middle" x="865" y="-3208.5" font-family="SF Pro Text Bold 10" font-size="15.00" fill="#000000">icmp</text>
</g>
<!-- node_1 -->
<g id="node2" class="node">
<title>node_1</title>
<path fill="#6d95df" stroke="#000000" d="M880,-3083C880,-3083 850,-3083 850,-3083 844,-3083 838,-3077 838,-3071 838,-3071 838,-3059 838,-3059 838,-3053 844,-3047 850,-3047 850,-3047 880,-3047 880,-3047 886,-3047 892,-3053 892,-3059 892,-3059 892,-3071 892,-3071 892,-3077 886,-3083 880,-3083"/>
<text text-anchor="middle" x="865" y="-3061.5" font-family="SF Pro Text Bold 10" font-size="15.00" fill="#000000">br</text>
</g>
<!-- node_0&#45;&gt;node_1 -->
<g id="edge1" class="edge">
<title>node_0&#45;&gt;node_1</title>
<path fill="none" stroke="#ff3636" stroke-width="3" d="M865,-3193.8C865,-3168.94 865,-3122.74 865,-3093.23"/>
<polygon fill="#ff3636" stroke="#ff3636" stroke-width="3" points="868.5,-3093.18 865,-3083.18 861.5,-3093.18 868.5,-3093.18"/>
</g>
<!-- node_0&#45;&gt;node_1 -->
<g id="edge42" class="edge">
<title>node_0&#45;&gt;node_1</title>
<path fill="none" stroke="#00b3ff" stroke-width="2" d="M865.82,-3193.94C866.51,-3177.54 867.34,-3152.08 867,-3130 866.81,-3117.95 866.42,-3104.64 866.04,-3093.29"/>
<polygon fill="#00b3ff" stroke="#00b3ff" stroke-width="2" points="869.53,-3092.98 865.68,-3083.11 862.54,-3093.23 869.53,-3092.98"/>
<text text-anchor="middle" x="878.5" y="-3135" font-family="SF Pro Text Bold 10" font-size="15.00">%2</text>
</g>
<!-- node_2 -->
<g id="node5" class="node">
<title>node_2</title>
<path fill="#6d95df" stroke="#000000" d="M723,-2936C723,-2936 693,-2936 693,-2936 687,-2936 681,-2930 681,-2924 681,-2924 681,-2912 681,-2912 681,-2906 687,-2900 693,-2900 693,-2900 723,-2900 723,-2900 729,-2900 735,-2906 735,-2912 735,-2912 735,-2924 735,-2924 735,-2930 729,-2936 723,-2936"/>
<text text-anchor="middle" x="708" y="-2914.5" font-family="SF Pro Text Bold 10" font-size="15.00" fill="#000000">phi</text>
</g>
<!-- node_1&#45;&gt;node_2 -->
<g id="edge28" class="edge">
<title>node_1&#45;&gt;node_2</title>
<path fill="none" stroke="#ff8800" stroke-width="5" d="M837.97,-3060.07C804.6,-3053.69 748.77,-3037.76 720,-3000 708.48,-2984.88 705.72,-2963.46 705.71,-2946.44"/>
<polygon fill="#ff8800" stroke="#ff8800" stroke-width="5" points="710.1,-2946.14 706.04,-2936.01 701.35,-2945.86 710.1,-2946.14"/>
</g>
<!-- node_1&#45;&gt;node_2 -->
<g id="edge49" class="edge">
<title>node_1&#45;&gt;node_2</title>
<path fill="none" stroke="#00b3ff" stroke-width="2" d="M846.24,-3046.93C832.12,-3034.07 812.31,-3015.97 795,-3000 774.35,-2980.95 751.06,-2959.25 733.77,-2943.11"/>
<polygon fill="#00b3ff" stroke="#00b3ff" stroke-width="2" points="735.98,-2940.38 726.29,-2936.11 731.2,-2945.5 735.98,-2940.38"/>
<text text-anchor="middle" x="821.5" y="-2988" font-family="SF Pro Text Bold 10" font-size="15.00">i64 %0</text>
</g>
<!-- node_3 -->
<g id="node6" class="node">
<title>node_3</title>
<path fill="#6d95df" stroke="#000000" d="M823,-2789C823,-2789 793,-2789 793,-2789 787,-2789 781,-2783 781,-2777 781,-2777 781,-2765 781,-2765 781,-2759 787,-2753 793,-2753 793,-2753 823,-2753 823,-2753 829,-2753 835,-2759 835,-2765 835,-2765 835,-2777 835,-2777 835,-2783 829,-2789 823,-2789"/>
<text text-anchor="middle" x="808" y="-2767.5" font-family="SF Pro Text Bold 10" font-size="15.00" fill="#000000">phi</text>
</g>
<!-- node_1&#45;&gt;node_3 -->
<g id="edge52" class="edge">
<title>node_1&#45;&gt;node_3</title>
<path fill="none" stroke="#00b3ff" stroke-width="2" d="M864.83,-3046.84C864.46,-3030.38 863.34,-3004.87 860,-2983 849.72,-2915.73 828.11,-2838.5 816.24,-2798.75"/>
<polygon fill="#00b3ff" stroke="#00b3ff" stroke-width="2" points="819.55,-2797.58 813.31,-2789.02 812.84,-2799.6 819.55,-2797.58"/>
<text text-anchor="middle" x="875.5" y="-2914.5" font-family="SF Pro Text Bold 10" font-size="15.00">i64 1</text>
</g>
<!-- node_8 -->
<g id="node13" class="node">
<title>node_8</title>
<path fill="#6d95df" stroke="#000000" d="M916,-2054C916,-2054 886,-2054 886,-2054 880,-2054 874,-2048 874,-2042 874,-2042 874,-2030 874,-2030 874,-2024 880,-2018 886,-2018 886,-2018 916,-2018 916,-2018 922,-2018 928,-2024 928,-2030 928,-2030 928,-2042 928,-2042 928,-2048 922,-2054 916,-2054"/>
<text text-anchor="middle" x="901" y="-2032.5" font-family="SF Pro Text Bold 10" font-size="15.00" fill="#000000">phi</text>
</g>
<!-- node_1&#45;&gt;node_8 -->
<g id="edge29" class="edge">
<title>node_1&#45;&gt;node_8</title>
<path fill="none" stroke="#ff8800" stroke-width="5" d="M888.12,-3046.92C918.48,-3022.32 968,-2973.81 968,-2919 968,-2919 968,-2919 968,-2182 968,-2136.71 940.73,-2090.19 920.98,-2062.44"/>
<polygon fill="#ff8800" stroke="#ff8800" stroke-width="5" points="924.32,-2059.6 914.88,-2054.12 917.27,-2064.77 924.32,-2059.6"/>
</g>
<!-- node_1&#45;&gt;node_8 -->
<g id="edge60" class="edge">
<title>node_1&#45;&gt;node_8</title>
<path fill="none" stroke="#00b3ff" stroke-width="2" d="M892.19,-3055.5C941.12,-3038.31 1039,-2994.5 1039,-2919 1039,-2919 1039,-2919 1039,-2182 1039,-2122.88 978.05,-2078.29 937.16,-2055.04"/>
<polygon fill="#00b3ff" stroke="#00b3ff" stroke-width="2" points="938.71,-2051.9 928.26,-2050.13 935.33,-2058.03 938.71,-2051.9"/>
<text text-anchor="middle" x="1057.5" y="-2547" font-family="SF Pro Text Bold 10" font-size="15.00">i64 1</text>
</g>
<!-- node_37 -->
<g id="node3" class="node">
<title>node_37</title>
<path fill="#d66868" stroke="#000000" d="M967.5,-3377C967.5,-3377 922.5,-3377 922.5,-3377 916.5,-3377 910.5,-3371 910.5,-3365 910.5,-3365 910.5,-3353 910.5,-3353 910.5,-3347 916.5,-3341 922.5,-3341 922.5,-3341 967.5,-3341 967.5,-3341 973.5,-3341 979.5,-3347 979.5,-3353 979.5,-3353 979.5,-3365 979.5,-3365 979.5,-3371 973.5,-3377 967.5,-3377"/>
<text text-anchor="middle" x="945" y="-3355.5" font-family="SF Pro Text Bold 10" font-size="15.00" fill="#000000">i64 %0</text>
</g>
<!-- node_37&#45;&gt;node_0 -->
<g id="edge43" class="edge">
<title>node_37&#45;&gt;node_0</title>
<path fill="none" stroke="#00b3ff" stroke-width="2" d="M935.51,-3340.8C921.62,-3315.62 895.63,-3268.52 879.38,-3239.07"/>
<polygon fill="#00b3ff" stroke="#00b3ff" stroke-width="2" points="882.37,-3237.25 874.48,-3230.18 876.25,-3240.63 882.37,-3237.25"/>
<text text-anchor="middle" x="919" y="-3282" font-family="SF Pro Text Bold 10" font-size="15.00">%0</text>
</g>
<!-- node_38 -->
<g id="node4" class="node">
<title>node_38</title>
<path fill="#d66868" stroke="#000000" d="M833,-3377C833,-3377 801,-3377 801,-3377 795,-3377 789,-3371 789,-3365 789,-3365 789,-3353 789,-3353 789,-3347 795,-3341 801,-3341 801,-3341 833,-3341 833,-3341 839,-3341 845,-3347 845,-3353 845,-3353 845,-3365 845,-3365 845,-3371 839,-3377 833,-3377"/>
<text text-anchor="middle" x="817" y="-3355.5" font-family="SF Pro Text Bold 10" font-size="15.00" fill="#000000">i64 2</text>
</g>
<!-- node_38&#45;&gt;node_0 -->
<g id="edge44" class="edge">
<title>node_38&#45;&gt;node_0</title>
<path fill="none" stroke="#00b3ff" stroke-width="2" d="M822.69,-3340.8C830.96,-3315.83 846.35,-3269.34 856.11,-3239.84"/>
<polygon fill="#00b3ff" stroke="#00b3ff" stroke-width="2" points="859.49,-3240.77 859.31,-3230.18 852.85,-3238.57 859.49,-3240.77"/>
</g>
<!-- node_2&#45;&gt;node_3 -->
<g id="edge2" class="edge">
<title>node_2&#45;&gt;node_3</title>
<path fill="none" stroke="#ff3636" stroke-width="3" d="M719.86,-2899.8C737.31,-2874.51 769.99,-2827.11 790.28,-2797.69"/>
<polygon fill="#ff3636" stroke="#ff3636" stroke-width="3" points="793.36,-2799.4 796.15,-2789.18 787.59,-2795.43 793.36,-2799.4"/>
</g>
<!-- node_4 -->
<g id="node7" class="node">
<title>node_4</title>
<path fill="#6d95df" stroke="#000000" d="M451,-2642C451,-2642 421,-2642 421,-2642 415,-2642 409,-2636 409,-2630 409,-2630 409,-2618 409,-2618 409,-2612 415,-2606 421,-2606 421,-2606 451,-2606 451,-2606 457,-2606 463,-2612 463,-2618 463,-2618 463,-2630 463,-2630 463,-2636 457,-2642 451,-2642"/>
<text text-anchor="middle" x="436" y="-2620.5" font-family="SF Pro Text Bold 10" font-size="15.00" fill="#000000">add</text>
</g>
<!-- node_2&#45;&gt;node_4 -->
<g id="edge46" class="edge">
<title>node_2&#45;&gt;node_4</title>
<path fill="none" stroke="#00b3ff" stroke-width="2" d="M698.12,-2899.54C679.92,-2868.22 638.84,-2801.27 594,-2753 555.62,-2711.69 503.62,-2672.1 469.95,-2648.17"/>
<polygon fill="#00b3ff" stroke="#00b3ff" stroke-width="2" points="471.57,-2645.03 461.38,-2642.13 467.54,-2650.75 471.57,-2645.03"/>
<text text-anchor="middle" x="636" y="-2767.5" font-family="SF Pro Text Bold 10" font-size="15.00">%4</text>
</g>
<!-- node_5 -->
<g id="node8" class="node">
<title>node_5</title>
<path fill="#6d95df" stroke="#000000" d="M451,-2495C451,-2495 421,-2495 421,-2495 415,-2495 409,-2489 409,-2483 409,-2483 409,-2471 409,-2471 409,-2465 415,-2459 421,-2459 421,-2459 451,-2459 451,-2459 457,-2459 463,-2465 463,-2471 463,-2471 463,-2483 463,-2483 463,-2489 457,-2495 451,-2495"/>
<text text-anchor="middle" x="436" y="-2473.5" font-family="SF Pro Text Bold 10" font-size="15.00" fill="#000000">mul</text>
</g>
<!-- node_2&#45;&gt;node_5 -->
<g id="edge47" class="edge">
<title>node_2&#45;&gt;node_5</title>
<path fill="none" stroke="#00b3ff" stroke-width="2" d="M680.75,-2914.44C634.91,-2909.13 540.75,-2893.77 473,-2853 439.59,-2832.89 433.2,-2822.35 413,-2789 370.01,-2718.03 357.96,-2686.99 376,-2606 384.33,-2568.61 404.8,-2529.24 419.51,-2504.2"/>
<polygon fill="#00b3ff" stroke="#00b3ff" stroke-width="2" points="422.69,-2505.71 424.84,-2495.34 416.69,-2502.11 422.69,-2505.71"/>
<text text-anchor="middle" x="385" y="-2694" font-family="SF Pro Text Bold 10" font-size="15.00">%4</text>
</g>
<!-- node_6 -->
<g id="node9" class="node">
<title>node_6</title>
<path fill="#6d95df" stroke="#000000" d="M135,-2348C135,-2348 105,-2348 105,-2348 99,-2348 93,-2342 93,-2336 93,-2336 93,-2324 93,-2324 93,-2318 99,-2312 105,-2312 105,-2312 135,-2312 135,-2312 141,-2312 147,-2318 147,-2324 147,-2324 147,-2336 147,-2336 147,-2342 141,-2348 135,-2348"/>
<text text-anchor="middle" x="120" y="-2326.5" font-family="SF Pro Text Bold 10" font-size="15.00" fill="#000000">icmp</text>
</g>
<!-- node_2&#45;&gt;node_6 -->
<g id="edge45" class="edge">
<title>node_2&#45;&gt;node_6</title>
<path fill="none" stroke="#00b3ff" stroke-width="2" d="M680.86,-2915.51C580.02,-2909.71 230.99,-2887.29 196,-2853 124.91,-2783.33 119.75,-2455.62 119.81,-2358.31"/>
<polygon fill="#00b3ff" stroke="#00b3ff" stroke-width="2" points="123.31,-2358.12 119.84,-2348.11 116.31,-2358.1 123.31,-2358.12"/>
<text text-anchor="middle" x="146" y="-2620.5" font-family="SF Pro Text Bold 10" font-size="15.00">%4</text>
</g>
<!-- node_3&#45;&gt;node_4 -->
<g id="edge3" class="edge">
<title>node_3&#45;&gt;node_4</title>
<path fill="none" stroke="#ff3636" stroke-width="3" d="M780.96,-2764.93C746.49,-2757.29 686.62,-2739.97 647,-2706 640.35,-2700.29 643.85,-2694.47 637,-2689 611.43,-2668.59 523.63,-2645.49 472.93,-2633.4"/>
<polygon fill="#ff3636" stroke="#ff3636" stroke-width="3" points="473.54,-2629.95 463.01,-2631.06 471.94,-2636.76 473.54,-2629.95"/>
</g>
<!-- node_3&#45;&gt;node_5 -->
<g id="edge50" class="edge">
<title>node_3&#45;&gt;node_5</title>
<path fill="none" stroke="#00b3ff" stroke-width="2" d="M785.63,-2752.93C753.67,-2728.49 693.13,-2682.06 642,-2642 578.68,-2592.38 505.07,-2533.48 465.24,-2501.51"/>
<polygon fill="#00b3ff" stroke="#00b3ff" stroke-width="2" points="467.25,-2498.64 457.27,-2495.11 462.87,-2504.1 467.25,-2498.64"/>
<text text-anchor="middle" x="653.5" y="-2620.5" font-family="SF Pro Text Bold 10" font-size="15.00">%5</text>
</g>
<!-- node_4&#45;&gt;node_2 -->
<g id="edge53" class="edge">
<title>node_4&#45;&gt;node_2</title>
<path fill="none" stroke="#00b3ff" stroke-width="2" d="M431.59,-2642.06C424.41,-2673.92 413.82,-2743.34 444,-2789 496.06,-2867.77 611.15,-2899.58 670.69,-2911.13"/>
<polygon fill="#00b3ff" stroke="#00b3ff" stroke-width="2" points="670.32,-2914.62 680.79,-2913 671.59,-2907.74 670.32,-2914.62"/>
<text text-anchor="middle" x="456" y="-2767.5" font-family="SF Pro Text Bold 10" font-size="15.00">%6</text>
</g>
<!-- node_4&#45;&gt;node_5 -->
<g id="edge4" class="edge">
<title>node_4&#45;&gt;node_5</title>
<path fill="none" stroke="#ff3636" stroke-width="3" d="M436,-2605.8C436,-2580.94 436,-2534.74 436,-2505.23"/>
<polygon fill="#ff3636" stroke="#ff3636" stroke-width="3" points="439.5,-2505.18 436,-2495.18 432.5,-2505.18 439.5,-2505.18"/>
</g>
<!-- node_5&#45;&gt;node_3 -->
<g id="edge56" class="edge">
<title>node_5&#45;&gt;node_3</title>
<path fill="none" stroke="#00b3ff" stroke-width="2" d="M463.09,-2488.11C510.09,-2506.53 608.27,-2548.98 677,-2606 726.43,-2647.01 769.89,-2709.29 792.17,-2744.11"/>
<polygon fill="#00b3ff" stroke="#00b3ff" stroke-width="2" points="789.33,-2746.16 797.63,-2752.75 795.25,-2742.43 789.33,-2746.16"/>
<text text-anchor="middle" x="724" y="-2620.5" font-family="SF Pro Text Bold 10" font-size="15.00">%7</text>
</g>
<!-- node_5&#45;&gt;node_6 -->
<g id="edge5" class="edge">
<title>node_5&#45;&gt;node_6</title>
<path fill="none" stroke="#ff3636" stroke-width="3" d="M408.78,-2463.51C351.97,-2437.44 220.71,-2377.21 156.59,-2347.79"/>
<polygon fill="#ff3636" stroke="#ff3636" stroke-width="3" points="157.81,-2344.5 147.26,-2343.51 154.89,-2350.86 157.81,-2344.5"/>
</g>
<!-- node_5&#45;&gt;node_8 -->
<g id="edge55" class="edge">
<title>node_5&#45;&gt;node_8</title>
<path fill="none" stroke="#00b3ff" stroke-width="2" d="M463.24,-2469.33C534.85,-2450.37 729.91,-2389.32 832,-2265 881.2,-2205.08 895.35,-2110.65 899.39,-2064.39"/>
<polygon fill="#00b3ff" stroke="#00b3ff" stroke-width="2" points="902.9,-2064.47 900.18,-2054.23 895.92,-2063.93 902.9,-2064.47"/>
<text text-anchor="middle" x="854" y="-2253" font-family="SF Pro Text Bold 10" font-size="15.00">%7</text>
</g>
<!-- node_7 -->
<g id="node10" class="node">
<title>node_7</title>
<path fill="#6d95df" stroke="#000000" d="M228,-2201C228,-2201 198,-2201 198,-2201 192,-2201 186,-2195 186,-2189 186,-2189 186,-2177 186,-2177 186,-2171 192,-2165 198,-2165 198,-2165 228,-2165 228,-2165 234,-2165 240,-2171 240,-2177 240,-2177 240,-2189 240,-2189 240,-2195 234,-2201 228,-2201"/>
<text text-anchor="middle" x="213" y="-2179.5" font-family="SF Pro Text Bold 10" font-size="15.00" fill="#000000">br</text>
</g>
<!-- node_6&#45;&gt;node_7 -->
<g id="edge6" class="edge">
<title>node_6&#45;&gt;node_7</title>
<path fill="none" stroke="#ff3636" stroke-width="3" d="M136.02,-2311.93C147.19,-2299.5 162.01,-2281.95 173,-2265 184.23,-2247.67 194.49,-2226.74 201.81,-2210.5"/>
<polygon fill="#ff3636" stroke="#ff3636" stroke-width="3" points="205.14,-2211.62 205.97,-2201.06 198.73,-2208.8 205.14,-2211.62"/>
</g>
<!-- node_6&#45;&gt;node_7 -->
<g id="edge57" class="edge">
<title>node_6&#45;&gt;node_7</title>
<path fill="none" stroke="#00b3ff" stroke-width="2" d="M119.27,-2311.68C119.32,-2294.41 121.53,-2267.69 133,-2248 143.5,-2229.98 161.17,-2215.03 177.24,-2204.13"/>
<polygon fill="#00b3ff" stroke="#00b3ff" stroke-width="2" points="179.45,-2206.87 185.94,-2198.5 175.65,-2200.99 179.45,-2206.87"/>
<text text-anchor="middle" x="145" y="-2253" font-family="SF Pro Text Bold 10" font-size="15.00">%8</text>
</g>
<!-- node_7&#45;&gt;node_2 -->
<g id="edge27" class="edge">
<title>node_7&#45;&gt;node_2</title>
<path fill="none" stroke="#ff8800" stroke-width="5" d="M213,-2201.41C213,-2228.63 213,-2282.93 213,-2329 213,-2772 213,-2772 213,-2772 213,-2867.3 555.21,-2904.37 670.56,-2914.15"/>
<polygon fill="#ff8800" stroke="#ff8800" stroke-width="5" points="670.35,-2918.53 680.68,-2914.99 671.08,-2909.81 670.35,-2918.53"/>
</g>
<!-- node_7&#45;&gt;node_2 -->
<g id="edge48" class="edge">
<title>node_7&#45;&gt;node_2</title>
<path fill="none" stroke="#00b3ff" stroke-width="2" d="M240.1,-2189.79C327.39,-2209.82 604.1,-2284.26 753,-2451 1056.59,-2790.97 919.54,-2681.77 868,-2789 842.57,-2841.91 783.45,-2879.79 744.63,-2900.04"/>
<polygon fill="#00b3ff" stroke="#00b3ff" stroke-width="2" points="742.57,-2897.16 735.23,-2904.8 745.73,-2903.4 742.57,-2897.16"/>
<text text-anchor="middle" x="872.5" y="-2547" font-family="SF Pro Text Bold 10" font-size="15.00">i64 %6</text>
</g>
<!-- node_7&#45;&gt;node_3 -->
<g id="edge51" class="edge">
<title>node_7&#45;&gt;node_3</title>
<path fill="none" stroke="#00b3ff" stroke-width="2" d="M240.08,-2197.82C327.26,-2243.64 603.55,-2399.5 751,-2606 781.19,-2648.28 796.56,-2707.96 803.39,-2742.45"/>
<polygon fill="#00b3ff" stroke="#00b3ff" stroke-width="2" points="800.03,-2743.53 805.31,-2752.71 806.91,-2742.24 800.03,-2743.53"/>
<text text-anchor="middle" x="711" y="-2473.5" font-family="SF Pro Text Bold 10" font-size="15.00">i64 %7</text>
</g>
<!-- node_7&#45;&gt;node_8 -->
<g id="edge30" class="edge">
<title>node_7&#45;&gt;node_8</title>
<path fill="none" stroke="#ff8800" stroke-width="5" d="M240.39,-2176.23C347.85,-2153.58 740.71,-2070.78 863.84,-2044.83"/>
<polygon fill="#ff8800" stroke="#ff8800" stroke-width="5" points="865.02,-2049.05 873.9,-2042.71 863.21,-2040.49 865.02,-2049.05"/>
</g>
<!-- node_7&#45;&gt;node_8 -->
<g id="edge61" class="edge">
<title>node_7&#45;&gt;node_8</title>
<path fill="none" stroke="#00b3ff" stroke-width="2" d="M240.37,-2177.82C300.93,-2168.42 450.77,-2144.38 575,-2118 680.43,-2095.61 803.53,-2063.33 863.85,-2047.11"/>
<polygon fill="#00b3ff" stroke="#00b3ff" stroke-width="2" points="864.93,-2050.45 873.67,-2044.47 863.1,-2043.69 864.93,-2050.45"/>
<text text-anchor="middle" x="672" y="-2106" font-family="SF Pro Text Bold 10" font-size="15.00">i64 %7</text>
</g>
<!-- node_39 -->
<g id="node11" class="node">
<title>node_39</title>
<path fill="#d66868" stroke="#000000" d="M549.5,-2789C549.5,-2789 512.5,-2789 512.5,-2789 506.5,-2789 500.5,-2783 500.5,-2777 500.5,-2777 500.5,-2765 500.5,-2765 500.5,-2759 506.5,-2753 512.5,-2753 512.5,-2753 549.5,-2753 549.5,-2753 555.5,-2753 561.5,-2759 561.5,-2765 561.5,-2765 561.5,-2777 561.5,-2777 561.5,-2783 555.5,-2789 549.5,-2789"/>
<text text-anchor="middle" x="531" y="-2767.5" font-family="SF Pro Text Bold 10" font-size="15.00" fill="#000000">i64 &#45;1</text>
</g>
<!-- node_39&#45;&gt;node_4 -->
<g id="edge54" class="edge">
<title>node_39&#45;&gt;node_4</title>
<path fill="none" stroke="#00b3ff" stroke-width="2" d="M519.73,-2752.8C503.16,-2727.51 472.11,-2680.11 452.83,-2650.69"/>
<polygon fill="#00b3ff" stroke="#00b3ff" stroke-width="2" points="455.66,-2648.63 447.26,-2642.18 449.81,-2652.46 455.66,-2648.63"/>
</g>
<!-- node_40 -->
<g id="node12" class="node">
<title>node_40</title>
<path fill="#d66868" stroke="#000000" d="M68,-2495C68,-2495 36,-2495 36,-2495 30,-2495 24,-2489 24,-2483 24,-2483 24,-2471 24,-2471 24,-2465 30,-2459 36,-2459 36,-2459 68,-2459 68,-2459 74,-2459 80,-2465 80,-2471 80,-2471 80,-2483 80,-2483 80,-2489 74,-2495 68,-2495"/>
<text text-anchor="middle" x="52" y="-2473.5" font-family="SF Pro Text Bold 10" font-size="15.00" fill="#000000">i64 3</text>
</g>
<!-- node_40&#45;&gt;node_6 -->
<g id="edge58" class="edge">
<title>node_40&#45;&gt;node_6</title>
<path fill="none" stroke="#00b3ff" stroke-width="2" d="M60.07,-2458.8C71.83,-2433.72 93.77,-2386.93 107.59,-2357.46"/>
<polygon fill="#00b3ff" stroke="#00b3ff" stroke-width="2" points="110.87,-2358.72 111.94,-2348.18 104.53,-2355.75 110.87,-2358.72"/>
</g>
<!-- node_9 -->
<g id="node14" class="node">
<title>node_9</title>
<path fill="#6d95df" stroke="#000000" d="M916,-1907C916,-1907 886,-1907 886,-1907 880,-1907 874,-1901 874,-1895 874,-1895 874,-1883 874,-1883 874,-1877 880,-1871 886,-1871 886,-1871 916,-1871 916,-1871 922,-1871 928,-1877 928,-1883 928,-1883 928,-1895 928,-1895 928,-1901 922,-1907 916,-1907"/>
<text text-anchor="middle" x="901" y="-1885.5" font-family="SF Pro Text Bold 10" font-size="15.00" fill="#000000">ret</text>
</g>
<!-- node_8&#45;&gt;node_9 -->
<g id="edge7" class="edge">
<title>node_8&#45;&gt;node_9</title>
<path fill="none" stroke="#ff3636" stroke-width="3" d="M901,-2017.8C901,-1992.94 901,-1946.74 901,-1917.23"/>
<polygon fill="#ff3636" stroke="#ff3636" stroke-width="3" points="904.5,-1917.18 901,-1907.18 897.5,-1917.18 904.5,-1917.18"/>
</g>
<!-- node_8&#45;&gt;node_9 -->
<g id="edge59" class="edge">
<title>node_8&#45;&gt;node_9</title>
<path fill="none" stroke="#00b3ff" stroke-width="2" d="M901.82,-2017.94C902.51,-2001.54 903.34,-1976.08 903,-1954 902.81,-1941.95 902.42,-1928.64 902.04,-1917.29"/>
<polygon fill="#00b3ff" stroke="#00b3ff" stroke-width="2" points="905.53,-1916.98 901.68,-1907.11 898.54,-1917.23 905.53,-1916.98"/>
<text text-anchor="middle" x="918.5" y="-1959" font-family="SF Pro Text Bold 10" font-size="15.00">%10</text>
</g>
<!-- node_10 -->
<g id="node15" class="node">
<title>node_10</title>
<path fill="#6d95df" stroke="#000000" d="M2679,-3230C2679,-3230 2649,-3230 2649,-3230 2643,-3230 2637,-3224 2637,-3218 2637,-3218 2637,-3206 2637,-3206 2637,-3200 2643,-3194 2649,-3194 2649,-3194 2679,-3194 2679,-3194 2685,-3194 2691,-3200 2691,-3206 2691,-3206 2691,-3218 2691,-3218 2691,-3224 2685,-3230 2679,-3230"/>
<text text-anchor="middle" x="2664" y="-3208.5" font-family="SF Pro Text Bold 10" font-size="15.00" fill="#000000">icmp</text>
</g>
<!-- node_11 -->
<g id="node16" class="node">
<title>node_11</title>
<path fill="#6d95df" stroke="#000000" d="M2679,-3083C2679,-3083 2649,-3083 2649,-3083 2643,-3083 2637,-3077 2637,-3071 2637,-3071 2637,-3059 2637,-3059 2637,-3053 2643,-3047 2649,-3047 2649,-3047 2679,-3047 2679,-3047 2685,-3047 2691,-3053 2691,-3059 2691,-3059 2691,-3071 2691,-3071 2691,-3077 2685,-3083 2679,-3083"/>
<text text-anchor="middle" x="2664" y="-3061.5" font-family="SF Pro Text Bold 10" font-size="15.00" fill="#000000">br</text>
</g>
<!-- node_10&#45;&gt;node_11 -->
<g id="edge8" class="edge">
<title>node_10&#45;&gt;node_11</title>
<path fill="none" stroke="#ff3636" stroke-width="3" d="M2664,-3193.8C2664,-3168.94 2664,-3122.74 2664,-3093.23"/>
<polygon fill="#ff3636" stroke="#ff3636" stroke-width="3" points="2667.5,-3093.18 2664,-3083.18 2660.5,-3093.18 2667.5,-3093.18"/>
</g>
<!-- node_10&#45;&gt;node_11 -->
<g id="edge62" class="edge">
<title>node_10&#45;&gt;node_11</title>
<path fill="none" stroke="#00b3ff" stroke-width="2" d="M2664.82,-3193.94C2665.51,-3177.54 2666.34,-3152.08 2666,-3130 2665.81,-3117.95 2665.42,-3104.64 2665.04,-3093.29"/>
<polygon fill="#00b3ff" stroke="#00b3ff" stroke-width="2" points="2668.53,-3092.98 2664.68,-3083.11 2661.54,-3093.23 2668.53,-3092.98"/>
<text text-anchor="middle" x="2677.5" y="-3135" font-family="SF Pro Text Bold 10" font-size="15.00">%3</text>
</g>
<!-- node_12 -->
<g id="node19" class="node">
<title>node_12</title>
<path fill="#6d95df" stroke="#000000" d="M2679,-485C2679,-485 2649,-485 2649,-485 2643,-485 2637,-479 2637,-473 2637,-473 2637,-461 2637,-461 2637,-455 2643,-449 2649,-449 2649,-449 2679,-449 2679,-449 2685,-449 2691,-455 2691,-461 2691,-461 2691,-473 2691,-473 2691,-479 2685,-485 2679,-485"/>
<text text-anchor="middle" x="2664" y="-463.5" font-family="SF Pro Text Bold 10" font-size="15.00" fill="#000000">call</text>
</g>
<!-- node_11&#45;&gt;node_12 -->
<g id="edge31" class="edge">
<title>node_11&#45;&gt;node_12</title>
<path fill="none" stroke="#ff8800" stroke-width="5" d="M2664,-3046.59C2664,-3019.37 2664,-2965.07 2664,-2919 2664,-2919 2664,-2919 2664,-613 2664,-572.15 2664,-524.83 2664,-495.65"/>
<polygon fill="#ff8800" stroke="#ff8800" stroke-width="5" points="2668.38,-495.41 2664,-485.41 2659.63,-495.41 2668.38,-495.41"/>
</g>
<!-- node_14 -->
<g id="node23" class="node">
<title>node_14</title>
<path fill="#6d95df" stroke="#000000" d="M2586,-2936C2586,-2936 2556,-2936 2556,-2936 2550,-2936 2544,-2930 2544,-2924 2544,-2924 2544,-2912 2544,-2912 2544,-2906 2550,-2900 2556,-2900 2556,-2900 2586,-2900 2586,-2900 2592,-2900 2598,-2906 2598,-2912 2598,-2912 2598,-2924 2598,-2924 2598,-2930 2592,-2936 2586,-2936"/>
<text text-anchor="middle" x="2571" y="-2914.5" font-family="SF Pro Text Bold 10" font-size="15.00" fill="#000000">call</text>
</g>
<!-- node_11&#45;&gt;node_14 -->
<g id="edge32" class="edge">
<title>node_11&#45;&gt;node_14</title>
<path fill="none" stroke="#ff8800" stroke-width="5" d="M2652.97,-3046.8C2636.75,-3021.51 2606.35,-2974.11 2587.48,-2944.69"/>
<polygon fill="#ff8800" stroke="#ff8800" stroke-width="5" points="2591.1,-2942.24 2582.02,-2936.18 2583.74,-2946.96 2591.1,-2942.24"/>
</g>
<!-- node_41 -->
<g id="node17" class="node">
<title>node_41</title>
<path fill="#d66868" stroke="#000000" d="M2797,-3377C2797,-3377 2753,-3377 2753,-3377 2747,-3377 2741,-3371 2741,-3365 2741,-3365 2741,-3353 2741,-3353 2741,-3347 2747,-3341 2753,-3341 2753,-3341 2797,-3341 2797,-3341 2803,-3341 2809,-3347 2809,-3353 2809,-3353 2809,-3365 2809,-3365 2809,-3371 2803,-3377 2797,-3377"/>
<text text-anchor="middle" x="2775" y="-3355.5" font-family="SF Pro Text Bold 10" font-size="15.00" fill="#000000">i32 %0</text>
</g>
<!-- node_41&#45;&gt;node_10 -->
<g id="edge63" class="edge">
<title>node_41&#45;&gt;node_10</title>
<path fill="none" stroke="#00b3ff" stroke-width="2" d="M2761.83,-3340.8C2742.39,-3315.4 2705.88,-3267.71 2683.38,-3238.31"/>
<polygon fill="#00b3ff" stroke="#00b3ff" stroke-width="2" points="2686.01,-3235.99 2677.15,-3230.18 2680.45,-3240.25 2686.01,-3235.99"/>
<text text-anchor="middle" x="2734" y="-3282" font-family="SF Pro Text Bold 10" font-size="15.00">%0</text>
</g>
<!-- node_42 -->
<g id="node18" class="node">
<title>node_42</title>
<path fill="#d66868" stroke="#000000" d="M2664,-3377C2664,-3377 2634,-3377 2634,-3377 2628,-3377 2622,-3371 2622,-3365 2622,-3365 2622,-3353 2622,-3353 2622,-3347 2628,-3341 2634,-3341 2634,-3341 2664,-3341 2664,-3341 2670,-3341 2676,-3347 2676,-3353 2676,-3353 2676,-3365 2676,-3365 2676,-3371 2670,-3377 2664,-3377"/>
<text text-anchor="middle" x="2649" y="-3355.5" font-family="SF Pro Text Bold 10" font-size="15.00" fill="#000000">i32 2</text>
</g>
<!-- node_42&#45;&gt;node_10 -->
<g id="edge64" class="edge">
<title>node_42&#45;&gt;node_10</title>
<path fill="none" stroke="#00b3ff" stroke-width="2" d="M2650.78,-3340.8C2653.35,-3315.94 2658.13,-3269.74 2661.18,-3240.23"/>
<polygon fill="#00b3ff" stroke="#00b3ff" stroke-width="2" points="2664.68,-3240.49 2662.22,-3230.18 2657.71,-3239.77 2664.68,-3240.49"/>
</g>
<!-- node_13 -->
<g id="node20" class="node">
<title>node_13</title>
<path fill="#6d95df" stroke="#000000" d="M2376,-354C2376,-354 2346,-354 2346,-354 2340,-354 2334,-348 2334,-342 2334,-342 2334,-330 2334,-330 2334,-324 2340,-318 2346,-318 2346,-318 2376,-318 2376,-318 2382,-318 2388,-324 2388,-330 2388,-330 2388,-342 2388,-342 2388,-348 2382,-354 2376,-354"/>
<text text-anchor="middle" x="2361" y="-332.5" font-family="SF Pro Text Bold 10" font-size="15.00" fill="#000000">br</text>
</g>
<!-- node_12&#45;&gt;node_13 -->
<g id="edge9" class="edge">
<title>node_12&#45;&gt;node_13</title>
<path fill="none" stroke="#ff3636" stroke-width="3" d="M2636.84,-454.44C2582.24,-431.19 2459.14,-378.78 2397.54,-352.56"/>
<polygon fill="#ff3636" stroke="#ff3636" stroke-width="3" points="2398.78,-349.28 2388.2,-348.58 2396.03,-355.72 2398.78,-349.28"/>
</g>
<!-- node_35 -->
<g id="node56" class="node">
<title>node_35</title>
<path fill="#6d95df" stroke="#000000" d="M2257,-207C2257,-207 2227,-207 2227,-207 2221,-207 2215,-201 2215,-195 2215,-195 2215,-183 2215,-183 2215,-177 2221,-171 2227,-171 2227,-171 2257,-171 2257,-171 2263,-171 2269,-177 2269,-183 2269,-183 2269,-195 2269,-195 2269,-201 2263,-207 2257,-207"/>
<text text-anchor="middle" x="2242" y="-185.5" font-family="SF Pro Text Bold 10" font-size="15.00" fill="#000000">phi</text>
</g>
<!-- node_13&#45;&gt;node_35 -->
<g id="edge39" class="edge">
<title>node_13&#45;&gt;node_35</title>
<path fill="none" stroke="#ff8800" stroke-width="5" d="M2347.43,-317.84C2334.36,-301.37 2313.99,-275.86 2296,-254 2285.27,-240.96 2273.15,-226.57 2263.12,-214.75"/>
<polygon fill="#ff8800" stroke="#ff8800" stroke-width="5" points="2266.36,-211.8 2256.55,-207.02 2259.7,-217.47 2266.36,-211.8"/>
</g>
<!-- node_13&#45;&gt;node_35 -->
<g id="edge105" class="edge">
<title>node_13&#45;&gt;node_35</title>
<path fill="none" stroke="#00b3ff" stroke-width="2" d="M2354.42,-317.7C2347.33,-300.45 2334.89,-273.74 2319,-254 2306.7,-238.72 2290.28,-224.47 2275.76,-213.32"/>
<polygon fill="#00b3ff" stroke="#00b3ff" stroke-width="2" points="2277.59,-210.31 2267.48,-207.13 2273.39,-215.92 2277.59,-210.31"/>
<text text-anchor="middle" x="2348" y="-259" font-family="SF Pro Text Bold 10" font-size="15.00">i32 1</text>
</g>
<!-- node_43 -->
<g id="node21" class="node">
<title>node_43</title>
<path fill="#d66868" stroke="#000000" d="M2586,-632C2586,-632 2518,-632 2518,-632 2512,-632 2506,-626 2506,-620 2506,-620 2506,-608 2506,-608 2506,-602 2512,-596 2518,-596 2518,-596 2586,-596 2586,-596 2592,-596 2598,-602 2598,-608 2598,-608 2598,-620 2598,-620 2598,-626 2592,-632 2586,-632"/>
<text text-anchor="middle" x="2552" y="-610.5" font-family="SF Pro Text Bold 10" font-size="15.00" fill="#000000">ptr @str.2</text>
</g>
<!-- node_43&#45;&gt;node_12 -->
<g id="edge65" class="edge">
<title>node_43&#45;&gt;node_12</title>
<path fill="none" stroke="#00b3ff" stroke-width="2" d="M2565.29,-595.8C2584.91,-570.4 2621.74,-522.71 2644.45,-493.31"/>
<polygon fill="#00b3ff" stroke="#00b3ff" stroke-width="2" points="2647.39,-495.23 2650.73,-485.18 2641.85,-490.95 2647.39,-495.23"/>
</g>
<!-- node_44 -->
<g id="node22" class="node">
<title>node_44</title>
<path fill="#d66868" stroke="#000000" d="M2428.5,-632C2428.5,-632 2361.5,-632 2361.5,-632 2355.5,-632 2349.5,-626 2349.5,-620 2349.5,-620 2349.5,-608 2349.5,-608 2349.5,-602 2355.5,-596 2361.5,-596 2361.5,-596 2428.5,-596 2428.5,-596 2434.5,-596 2440.5,-602 2440.5,-608 2440.5,-608 2440.5,-620 2440.5,-620 2440.5,-626 2434.5,-632 2428.5,-632"/>
<text text-anchor="middle" x="2395" y="-610.5" font-family="SF Pro Text Bold 10" font-size="15.00" fill="#000000">ptr @puts</text>
</g>
<!-- node_44&#45;&gt;node_12 -->
<g id="edge66" class="edge">
<title>node_44&#45;&gt;node_12</title>
<path fill="none" stroke="#00b3ff" stroke-width="2" d="M2426.65,-595.94C2476.96,-568.82 2574.89,-516.03 2627.88,-487.47"/>
<polygon fill="#00b3ff" stroke="#00b3ff" stroke-width="2" points="2629.77,-490.43 2636.91,-482.6 2626.45,-484.26 2629.77,-490.43"/>
</g>
<!-- node_15 -->
<g id="node24" class="node">
<title>node_15</title>
<path fill="#6d95df" stroke="#000000" d="M2501,-2789C2501,-2789 2471,-2789 2471,-2789 2465,-2789 2459,-2783 2459,-2777 2459,-2777 2459,-2765 2459,-2765 2459,-2759 2465,-2753 2471,-2753 2471,-2753 2501,-2753 2501,-2753 2507,-2753 2513,-2759 2513,-2765 2513,-2765 2513,-2777 2513,-2777 2513,-2783 2507,-2789 2501,-2789"/>
<text text-anchor="middle" x="2486" y="-2767.5" font-family="SF Pro Text Bold 10" font-size="15.00" fill="#000000">load</text>
</g>
<!-- node_14&#45;&gt;node_15 -->
<g id="edge10" class="edge">
<title>node_14&#45;&gt;node_15</title>
<path fill="none" stroke="#ff3636" stroke-width="3" d="M2543.68,-2903.1C2525.32,-2892.17 2502.47,-2875.1 2491,-2853 2482.48,-2836.59 2481.38,-2815.71 2482.33,-2799.27"/>
<polygon fill="#ff3636" stroke="#ff3636" stroke-width="3" points="2485.83,-2799.45 2483.2,-2789.19 2478.86,-2798.85 2485.83,-2799.45"/>
</g>
<!-- node_14&#45;&gt;node_15 -->
<g id="edge67" class="edge">
<title>node_14&#45;&gt;node_15</title>
<path fill="none" stroke="#00b3ff" stroke-width="2" d="M2560.92,-2899.8C2546.15,-2874.62 2518.55,-2827.52 2501.28,-2798.07"/>
<polygon fill="#00b3ff" stroke="#00b3ff" stroke-width="2" points="2504.15,-2796.04 2496.07,-2789.18 2498.11,-2799.58 2504.15,-2796.04"/>
<text text-anchor="middle" x="2542" y="-2841" font-family="SF Pro Text Bold 10" font-size="15.00">%7</text>
</g>
<!-- node_16 -->
<g id="node25" class="node">
<title>node_16</title>
<path fill="#6d95df" stroke="#000000" d="M2375,-2642C2375,-2642 2345,-2642 2345,-2642 2339,-2642 2333,-2636 2333,-2630 2333,-2630 2333,-2618 2333,-2618 2333,-2612 2339,-2606 2345,-2606 2345,-2606 2375,-2606 2375,-2606 2381,-2606 2387,-2612 2387,-2618 2387,-2618 2387,-2630 2387,-2630 2387,-2636 2381,-2642 2375,-2642"/>
<text text-anchor="middle" x="2360" y="-2620.5" font-family="SF Pro Text Bold 10" font-size="15.00" fill="#000000">icmp</text>
</g>
<!-- node_15&#45;&gt;node_16 -->
<g id="edge11" class="edge">
<title>node_15&#45;&gt;node_16</title>
<path fill="none" stroke="#ff3636" stroke-width="3" d="M2458.61,-2755.77C2439.04,-2744.46 2413.23,-2727.08 2396,-2706 2383.01,-2690.12 2373.79,-2668.81 2367.93,-2652.03"/>
<polygon fill="#ff3636" stroke="#ff3636" stroke-width="3" points="2371.17,-2650.67 2364.71,-2642.26 2364.52,-2652.85 2371.17,-2650.67"/>
</g>
<!-- node_15&#45;&gt;node_16 -->
<g id="edge69" class="edge">
<title>node_15&#45;&gt;node_16</title>
<path fill="none" stroke="#00b3ff" stroke-width="2" d="M2471.05,-2752.8C2448.89,-2727.29 2407.18,-2679.3 2381.67,-2649.93"/>
<polygon fill="#00b3ff" stroke="#00b3ff" stroke-width="2" points="2384.13,-2647.43 2374.93,-2642.18 2378.85,-2652.02 2384.13,-2647.43"/>
<text text-anchor="middle" x="2438" y="-2694" font-family="SF Pro Text Bold 10" font-size="15.00">%8</text>
</g>
<!-- node_17 -->
<g id="node26" class="node">
<title>node_17</title>
<path fill="#6d95df" stroke="#000000" d="M2298,-2495C2298,-2495 2268,-2495 2268,-2495 2262,-2495 2256,-2489 2256,-2483 2256,-2483 2256,-2471 2256,-2471 2256,-2465 2262,-2459 2268,-2459 2268,-2459 2298,-2459 2298,-2459 2304,-2459 2310,-2465 2310,-2471 2310,-2471 2310,-2483 2310,-2483 2310,-2489 2304,-2495 2298,-2495"/>
<text text-anchor="middle" x="2283" y="-2473.5" font-family="SF Pro Text Bold 10" font-size="15.00" fill="#000000">br</text>
</g>
<!-- node_16&#45;&gt;node_17 -->
<g id="edge12" class="edge">
<title>node_16&#45;&gt;node_17</title>
<path fill="none" stroke="#ff3636" stroke-width="3" d="M2333.05,-2605.96C2317.65,-2594.65 2299.54,-2578.35 2290,-2559 2281.81,-2542.38 2280.17,-2521.52 2280.53,-2505.12"/>
<polygon fill="#ff3636" stroke="#ff3636" stroke-width="3" points="2284.03,-2505.24 2281,-2495.08 2277.04,-2504.91 2284.03,-2505.24"/>
</g>
<!-- node_16&#45;&gt;node_17 -->
<g id="edge70" class="edge">
<title>node_16&#45;&gt;node_17</title>
<path fill="none" stroke="#00b3ff" stroke-width="2" d="M2350.86,-2605.8C2337.49,-2580.62 2312.48,-2533.52 2296.85,-2504.07"/>
<polygon fill="#00b3ff" stroke="#00b3ff" stroke-width="2" points="2299.9,-2502.37 2292.12,-2495.18 2293.72,-2505.65 2299.9,-2502.37"/>
<text text-anchor="middle" x="2335" y="-2547" font-family="SF Pro Text Bold 10" font-size="15.00">%9</text>
</g>
<!-- node_18 -->
<g id="node29" class="node">
<title>node_18</title>
<path fill="#6d95df" stroke="#000000" d="M2204.5,-2348C2204.5,-2348 2103.5,-2348 2103.5,-2348 2097.5,-2348 2091.5,-2342 2091.5,-2336 2091.5,-2336 2091.5,-2324 2091.5,-2324 2091.5,-2318 2097.5,-2312 2103.5,-2312 2103.5,-2312 2204.5,-2312 2204.5,-2312 2210.5,-2312 2216.5,-2318 2216.5,-2324 2216.5,-2324 2216.5,-2336 2216.5,-2336 2216.5,-2342 2210.5,-2348 2204.5,-2348"/>
<text text-anchor="middle" x="2154" y="-2326.5" font-family="SF Pro Text Bold 10" font-size="15.00" fill="#000000">getelementptr</text>
</g>
<!-- node_17&#45;&gt;node_18 -->
<g id="edge33" class="edge">
<title>node_17&#45;&gt;node_18</title>
<path fill="none" stroke="#ff8800" stroke-width="5" d="M2267.7,-2458.8C2245,-2433.29 2202.3,-2385.3 2176.18,-2355.93"/>
<polygon fill="#ff8800" stroke="#ff8800" stroke-width="5" points="2179.2,-2352.74 2169.28,-2348.18 2172.66,-2358.56 2179.2,-2352.74"/>
</g>
<!-- node_33 -->
<g id="node52" class="node">
<title>node_33</title>
<path fill="#6d95df" stroke="#000000" d="M2298,-485C2298,-485 2268,-485 2268,-485 2262,-485 2256,-479 2256,-473 2256,-473 2256,-461 2256,-461 2256,-455 2262,-449 2268,-449 2268,-449 2298,-449 2298,-449 2304,-449 2310,-455 2310,-461 2310,-461 2310,-473 2310,-473 2310,-479 2304,-485 2298,-485"/>
<text text-anchor="middle" x="2283" y="-463.5" font-family="SF Pro Text Bold 10" font-size="15.00" fill="#000000">call</text>
</g>
<!-- node_17&#45;&gt;node_33 -->
<g id="edge38" class="edge">
<title>node_17&#45;&gt;node_33</title>
<path fill="none" stroke="#ff8800" stroke-width="5" d="M2283,-2458.59C2283,-2431.37 2283,-2377.07 2283,-2331 2283,-2331 2283,-2331 2283,-613 2283,-572.15 2283,-524.83 2283,-495.65"/>
<polygon fill="#ff8800" stroke="#ff8800" stroke-width="5" points="2287.38,-495.41 2283,-485.41 2278.63,-495.41 2287.38,-495.41"/>
</g>
<!-- node_45 -->
<g id="node27" class="node">
<title>node_45</title>
<path fill="#d66868" stroke="#000000" d="M2559.5,-3083C2559.5,-3083 2404.5,-3083 2404.5,-3083 2398.5,-3083 2392.5,-3077 2392.5,-3071 2392.5,-3071 2392.5,-3059 2392.5,-3059 2392.5,-3053 2398.5,-3047 2404.5,-3047 2404.5,-3047 2559.5,-3047 2559.5,-3047 2565.5,-3047 2571.5,-3053 2571.5,-3059 2571.5,-3059 2571.5,-3071 2571.5,-3071 2571.5,-3077 2565.5,-3083 2559.5,-3083"/>
<text text-anchor="middle" x="2482" y="-3061.5" font-family="SF Pro Text Bold 10" font-size="15.00" fill="#000000">ptr @__errno_location</text>
</g>
<!-- node_45&#45;&gt;node_14 -->
<g id="edge68" class="edge">
<title>node_45&#45;&gt;node_14</title>
<path fill="none" stroke="#00b3ff" stroke-width="2" d="M2492.56,-3046.8C2508.02,-3021.62 2536.92,-2974.52 2555,-2945.07"/>
<polygon fill="#00b3ff" stroke="#00b3ff" stroke-width="2" points="2558.21,-2946.53 2560.45,-2936.18 2552.24,-2942.87 2558.21,-2946.53"/>
</g>
<!-- node_46 -->
<g id="node28" class="node">
<title>node_46</title>
<path fill="#d66868" stroke="#000000" d="M2375.5,-2789C2375.5,-2789 2344.5,-2789 2344.5,-2789 2338.5,-2789 2332.5,-2783 2332.5,-2777 2332.5,-2777 2332.5,-2765 2332.5,-2765 2332.5,-2759 2338.5,-2753 2344.5,-2753 2344.5,-2753 2375.5,-2753 2375.5,-2753 2381.5,-2753 2387.5,-2759 2387.5,-2765 2387.5,-2765 2387.5,-2777 2387.5,-2777 2387.5,-2783 2381.5,-2789 2375.5,-2789"/>
<text text-anchor="middle" x="2360" y="-2767.5" font-family="SF Pro Text Bold 10" font-size="15.00" fill="#000000">i32 0</text>
</g>
<!-- node_46&#45;&gt;node_16 -->
<g id="edge71" class="edge">
<title>node_46&#45;&gt;node_16</title>
<path fill="none" stroke="#00b3ff" stroke-width="2" d="M2360,-2752.8C2360,-2727.94 2360,-2681.74 2360,-2652.23"/>
<polygon fill="#00b3ff" stroke="#00b3ff" stroke-width="2" points="2363.5,-2652.18 2360,-2642.18 2356.5,-2652.18 2363.5,-2652.18"/>
</g>
<!-- node_19 -->
<g id="node30" class="node">
<title>node_19</title>
<path fill="#6d95df" stroke="#000000" d="M2133,-2201C2133,-2201 2103,-2201 2103,-2201 2097,-2201 2091,-2195 2091,-2189 2091,-2189 2091,-2177 2091,-2177 2091,-2171 2097,-2165 2103,-2165 2103,-2165 2133,-2165 2133,-2165 2139,-2165 2145,-2171 2145,-2177 2145,-2177 2145,-2189 2145,-2189 2145,-2195 2139,-2201 2133,-2201"/>
<text text-anchor="middle" x="2118" y="-2179.5" font-family="SF Pro Text Bold 10" font-size="15.00" fill="#000000">load</text>
</g>
<!-- node_18&#45;&gt;node_19 -->
<g id="edge13" class="edge">
<title>node_18&#45;&gt;node_19</title>
<path fill="none" stroke="#ff3636" stroke-width="3" d="M2143.37,-2311.79C2136.24,-2299.29 2127.38,-2281.72 2123,-2265 2118.41,-2247.5 2117.17,-2227.19 2117.07,-2211.28"/>
<polygon fill="#ff3636" stroke="#ff3636" stroke-width="3" points="2120.57,-2211.08 2117.16,-2201.06 2113.57,-2211.03 2120.57,-2211.08"/>
</g>
<!-- node_18&#45;&gt;node_19 -->
<g id="edge72" class="edge">
<title>node_18&#45;&gt;node_19</title>
<path fill="none" stroke="#00b3ff" stroke-width="2" d="M2149.73,-2311.8C2143.56,-2286.94 2132.09,-2240.74 2124.76,-2211.23"/>
<polygon fill="#00b3ff" stroke="#00b3ff" stroke-width="2" points="2128.07,-2210.04 2122.27,-2201.18 2121.28,-2211.73 2128.07,-2210.04"/>
<text text-anchor="middle" x="2151" y="-2253" font-family="SF Pro Text Bold 10" font-size="15.00">%11</text>
</g>
<!-- node_20 -->
<g id="node31" class="node">
<title>node_20</title>
<path fill="#6d95df" stroke="#000000" d="M2088,-2054C2088,-2054 2058,-2054 2058,-2054 2052,-2054 2046,-2048 2046,-2042 2046,-2042 2046,-2030 2046,-2030 2046,-2024 2052,-2018 2058,-2018 2058,-2018 2088,-2018 2088,-2018 2094,-2018 2100,-2024 2100,-2030 2100,-2030 2100,-2042 2100,-2042 2100,-2048 2094,-2054 2088,-2054"/>
<text text-anchor="middle" x="2073" y="-2032.5" font-family="SF Pro Text Bold 10" font-size="15.00" fill="#000000">call</text>
</g>
<!-- node_19&#45;&gt;node_20 -->
<g id="edge14" class="edge">
<title>node_19&#45;&gt;node_20</title>
<path fill="none" stroke="#ff3636" stroke-width="3" d="M2104.05,-2164.98C2094.87,-2152.72 2083.56,-2135.34 2078,-2118 2072.48,-2100.78 2071.24,-2080.46 2071.37,-2064.48"/>
<polygon fill="#ff3636" stroke="#ff3636" stroke-width="3" points="2074.88,-2064.29 2071.65,-2054.2 2067.88,-2064.1 2074.88,-2064.29"/>
</g>
<!-- node_19&#45;&gt;node_20 -->
<g id="edge75" class="edge">
<title>node_19&#45;&gt;node_20</title>
<path fill="none" stroke="#00b3ff" stroke-width="2" d="M2112.66,-2164.8C2104.91,-2139.83 2090.48,-2093.34 2081.33,-2063.84"/>
<polygon fill="#00b3ff" stroke="#00b3ff" stroke-width="2" points="2084.64,-2062.69 2078.33,-2054.18 2077.95,-2064.77 2084.64,-2062.69"/>
<text text-anchor="middle" x="2111.5" y="-2106" font-family="SF Pro Text Bold 10" font-size="15.00">%12</text>
</g>
<!-- node_21 -->
<g id="node32" class="node">
<title>node_21</title>
<path fill="#6d95df" stroke="#000000" d="M2044,-1907C2044,-1907 2014,-1907 2014,-1907 2008,-1907 2002,-1901 2002,-1895 2002,-1895 2002,-1883 2002,-1883 2002,-1877 2008,-1871 2014,-1871 2014,-1871 2044,-1871 2044,-1871 2050,-1871 2056,-1877 2056,-1883 2056,-1883 2056,-1895 2056,-1895 2056,-1901 2050,-1907 2044,-1907"/>
<text text-anchor="middle" x="2029" y="-1885.5" font-family="SF Pro Text Bold 10" font-size="15.00" fill="#000000">sext</text>
</g>
<!-- node_20&#45;&gt;node_21 -->
<g id="edge15" class="edge">
<title>node_20&#45;&gt;node_21</title>
<path fill="none" stroke="#ff3636" stroke-width="3" d="M2059.41,-2017.93C2050.45,-2005.64 2039.42,-1988.25 2034,-1971 2028.58,-1953.74 2027.34,-1933.43 2027.45,-1917.46"/>
<polygon fill="#ff3636" stroke="#ff3636" stroke-width="3" points="2030.95,-1917.27 2027.7,-1907.19 2023.95,-1917.1 2030.95,-1917.27"/>
</g>
<!-- node_20&#45;&gt;node_21 -->
<g id="edge77" class="edge">
<title>node_20&#45;&gt;node_21</title>
<path fill="none" stroke="#00b3ff" stroke-width="2" d="M2067.78,-2017.8C2060.2,-1992.83 2046.1,-1946.34 2037.14,-1916.84"/>
<polygon fill="#00b3ff" stroke="#00b3ff" stroke-width="2" points="2040.47,-1915.73 2034.21,-1907.18 2033.77,-1917.77 2040.47,-1915.73"/>
<text text-anchor="middle" x="2067.5" y="-1959" font-family="SF Pro Text Bold 10" font-size="15.00">%13</text>
</g>
<!-- node_22 -->
<g id="node33" class="node">
<title>node_22</title>
<path fill="#6d95df" stroke="#000000" d="M2020,-1776C2020,-1776 1990,-1776 1990,-1776 1984,-1776 1978,-1770 1978,-1764 1978,-1764 1978,-1752 1978,-1752 1978,-1746 1984,-1740 1990,-1740 1990,-1740 2020,-1740 2020,-1740 2026,-1740 2032,-1746 2032,-1752 2032,-1752 2032,-1764 2032,-1764 2032,-1770 2026,-1776 2020,-1776"/>
<text text-anchor="middle" x="2005" y="-1754.5" font-family="SF Pro Text Bold 10" font-size="15.00" fill="#000000">icmp</text>
</g>
<!-- node_20&#45;&gt;node_22 -->
<g id="edge76" class="edge">
<title>node_20&#45;&gt;node_22</title>
<path fill="none" stroke="#00b3ff" stroke-width="2" d="M2082.06,-2017.91C2088.2,-2005.33 2095.76,-1987.6 2099,-1971 2105.55,-1937.48 2113.24,-1910.81 2089,-1855 2076.75,-1826.79 2053.07,-1800.94 2033.97,-1783.19"/>
<polygon fill="#00b3ff" stroke="#00b3ff" stroke-width="2" points="2036.14,-1780.43 2026.38,-1776.32 2031.45,-1785.63 2036.14,-1780.43"/>
<text text-anchor="middle" x="2119.5" y="-1885.5" font-family="SF Pro Text Bold 10" font-size="15.00">%13</text>
</g>
<!-- node_21&#45;&gt;node_22 -->
<g id="edge16" class="edge">
<title>node_21&#45;&gt;node_22</title>
<path fill="none" stroke="#ff3636" stroke-width="3" d="M2025.81,-1870.87C2021.8,-1849.28 2014.84,-1811.91 2010.09,-1786.35"/>
<polygon fill="#ff3636" stroke="#ff3636" stroke-width="3" points="2013.47,-1785.39 2008.2,-1776.2 2006.59,-1786.67 2013.47,-1785.39"/>
</g>
<!-- node_24 -->
<g id="node39" class="node">
<title>node_24</title>
<path fill="#6d95df" stroke="#000000" d="M1949,-1482C1949,-1482 1919,-1482 1919,-1482 1913,-1482 1907,-1476 1907,-1470 1907,-1470 1907,-1458 1907,-1458 1907,-1452 1913,-1446 1919,-1446 1919,-1446 1949,-1446 1949,-1446 1955,-1446 1961,-1452 1961,-1458 1961,-1458 1961,-1470 1961,-1470 1961,-1476 1955,-1482 1949,-1482"/>
<text text-anchor="middle" x="1934" y="-1460.5" font-family="SF Pro Text Bold 10" font-size="15.00" fill="#000000">phi</text>
</g>
<!-- node_21&#45;&gt;node_24 -->
<g id="edge79" class="edge">
<title>node_21&#45;&gt;node_24</title>
<path fill="none" stroke="#00b3ff" stroke-width="2" d="M2038.4,-1870.75C2052.24,-1843.2 2075.37,-1787.54 2065,-1740 2043.6,-1641.91 1981.9,-1538.07 1951.44,-1490.95"/>
<polygon fill="#00b3ff" stroke="#00b3ff" stroke-width="2" points="1954.18,-1488.76 1945.78,-1482.3 1948.33,-1492.59 1954.18,-1488.76"/>
<text text-anchor="middle" x="2066.5" y="-1681" font-family="SF Pro Text Bold 10" font-size="15.00">%14</text>
</g>
<!-- node_31 -->
<g id="node48" class="node">
<title>node_31</title>
<path fill="#6d95df" stroke="#000000" d="M1869,-485C1869,-485 1839,-485 1839,-485 1833,-485 1827,-479 1827,-473 1827,-473 1827,-461 1827,-461 1827,-455 1833,-449 1839,-449 1839,-449 1869,-449 1869,-449 1875,-449 1881,-455 1881,-461 1881,-461 1881,-473 1881,-473 1881,-479 1875,-485 1869,-485"/>
<text text-anchor="middle" x="1854" y="-463.5" font-family="SF Pro Text Bold 10" font-size="15.00" fill="#000000">call</text>
</g>
<!-- node_21&#45;&gt;node_31 -->
<g id="edge80" class="edge">
<title>node_21&#45;&gt;node_31</title>
<path fill="none" stroke="#00b3ff" stroke-width="2" d="M2003.58,-1870.91C1993.52,-1864.93 1981.61,-1858.77 1970,-1855 1798.67,-1799.3 1165,-1939.16 1165,-1759 1165,-1759 1165,-1759 1165,-613 1165,-478.54 1673.82,-468.1 1816.95,-467.82"/>
<polygon fill="#00b3ff" stroke="#00b3ff" stroke-width="2" points="1816.99,-471.32 1826.99,-467.82 1816.99,-464.32 1816.99,-471.32"/>
<text text-anchor="middle" x="1180.5" y="-1182.5" font-family="SF Pro Text Bold 10" font-size="15.00">%14</text>
</g>
<!-- node_23 -->
<g id="node34" class="node">
<title>node_23</title>
<path fill="#6d95df" stroke="#000000" d="M1949,-1629C1949,-1629 1919,-1629 1919,-1629 1913,-1629 1907,-1623 1907,-1617 1907,-1617 1907,-1605 1907,-1605 1907,-1599 1913,-1593 1919,-1593 1919,-1593 1949,-1593 1949,-1593 1955,-1593 1961,-1599 1961,-1605 1961,-1605 1961,-1617 1961,-1617 1961,-1623 1955,-1629 1949,-1629"/>
<text text-anchor="middle" x="1934" y="-1607.5" font-family="SF Pro Text Bold 10" font-size="15.00" fill="#000000">br</text>
</g>
<!-- node_22&#45;&gt;node_23 -->
<g id="edge17" class="edge">
<title>node_22&#45;&gt;node_23</title>
<path fill="none" stroke="#ff3636" stroke-width="3" d="M1979.74,-1739.97C1965.08,-1728.56 1947.81,-1712.14 1939,-1693 1931.32,-1676.31 1930.17,-1655.6 1930.88,-1639.3"/>
<polygon fill="#ff3636" stroke="#ff3636" stroke-width="3" points="1934.38,-1639.53 1931.58,-1629.31 1927.39,-1639.04 1934.38,-1639.53"/>
</g>
<!-- node_22&#45;&gt;node_23 -->
<g id="edge81" class="edge">
<title>node_22&#45;&gt;node_23</title>
<path fill="none" stroke="#00b3ff" stroke-width="2" d="M1996.58,-1739.8C1984.3,-1714.72 1961.39,-1667.93 1946.95,-1638.46"/>
<polygon fill="#00b3ff" stroke="#00b3ff" stroke-width="2" points="1949.95,-1636.62 1942.41,-1629.18 1943.67,-1639.7 1949.95,-1636.62"/>
<text text-anchor="middle" x="1986.5" y="-1681" font-family="SF Pro Text Bold 10" font-size="15.00">%15</text>
</g>
<!-- node_23&#45;&gt;node_24 -->
<g id="edge35" class="edge">
<title>node_23&#45;&gt;node_24</title>
<path fill="none" stroke="#ff8800" stroke-width="5" d="M1934,-1592.8C1934,-1567.94 1934,-1521.74 1934,-1492.23"/>
<polygon fill="#ff8800" stroke="#ff8800" stroke-width="5" points="1938.38,-1492.18 1934,-1482.18 1929.63,-1492.18 1938.38,-1492.18"/>
</g>
<!-- node_23&#45;&gt;node_24 -->
<g id="edge87" class="edge">
<title>node_23&#45;&gt;node_24</title>
<path fill="none" stroke="#00b3ff" stroke-width="2" d="M1906.88,-1595.82C1889.08,-1584.86 1867.26,-1567.87 1857,-1546 1844.84,-1520.07 1872.29,-1497.12 1897.73,-1482.33"/>
<polygon fill="#00b3ff" stroke="#00b3ff" stroke-width="2" points="1899.51,-1485.34 1906.57,-1477.44 1896.13,-1479.21 1899.51,-1485.34"/>
<text text-anchor="middle" x="1887.5" y="-1534" font-family="SF Pro Text Bold 10" font-size="15.00">i64 %14</text>
</g>
<!-- node_25 -->
<g id="node40" class="node">
<title>node_25</title>
<path fill="#6d95df" stroke="#000000" d="M1474,-1351C1474,-1351 1444,-1351 1444,-1351 1438,-1351 1432,-1345 1432,-1339 1432,-1339 1432,-1327 1432,-1327 1432,-1321 1438,-1315 1444,-1315 1444,-1315 1474,-1315 1474,-1315 1480,-1315 1486,-1321 1486,-1327 1486,-1327 1486,-1339 1486,-1339 1486,-1345 1480,-1351 1474,-1351"/>
<text text-anchor="middle" x="1459" y="-1329.5" font-family="SF Pro Text Bold 10" font-size="15.00" fill="#000000">phi</text>
</g>
<!-- node_23&#45;&gt;node_25 -->
<g id="edge90" class="edge">
<title>node_23&#45;&gt;node_25</title>
<path fill="none" stroke="#00b3ff" stroke-width="2" d="M1906.76,-1594.17C1825.76,-1547.1 1586.39,-1408.02 1495.01,-1354.93"/>
<polygon fill="#00b3ff" stroke="#00b3ff" stroke-width="2" points="1496.54,-1351.76 1486.13,-1349.77 1493.02,-1357.82 1496.54,-1351.76"/>
<text text-anchor="middle" x="1786.5" y="-1460.5" font-family="SF Pro Text Bold 10" font-size="15.00">i64 1</text>
</g>
<!-- node_30 -->
<g id="node47" class="node">
<title>node_30</title>
<path fill="#6d95df" stroke="#000000" d="M1869,-632C1869,-632 1839,-632 1839,-632 1833,-632 1827,-626 1827,-620 1827,-620 1827,-608 1827,-608 1827,-602 1833,-596 1839,-596 1839,-596 1869,-596 1869,-596 1875,-596 1881,-602 1881,-608 1881,-608 1881,-620 1881,-620 1881,-626 1875,-632 1869,-632"/>
<text text-anchor="middle" x="1854" y="-610.5" font-family="SF Pro Text Bold 10" font-size="15.00" fill="#000000">phi</text>
</g>
<!-- node_23&#45;&gt;node_30 -->
<g id="edge36" class="edge">
<title>node_23&#45;&gt;node_30</title>
<path fill="none" stroke="#ff8800" stroke-width="5" d="M1906.83,-1609.41C1789.11,-1606.12 1329,-1585.57 1329,-1465 1329,-1465 1329,-1465 1329,-760 1329,-738.28 1350.64,-742.57 1371,-735 1505.11,-685.15 1546.59,-700.73 1688,-679 1735.4,-671.72 1751.14,-684.41 1795,-665 1808.5,-659.03 1821.29,-648.96 1831.49,-639.42"/>
<polygon fill="#ff8800" stroke="#ff8800" stroke-width="5" points="1834.67,-642.42 1838.75,-632.3 1828.55,-636.17 1834.67,-642.42"/>
</g>
<!-- node_23&#45;&gt;node_30 -->
<g id="edge98" class="edge">
<title>node_23&#45;&gt;node_30</title>
<path fill="none" stroke="#00b3ff" stroke-width="2" d="M1906.82,-1610.04C1781.1,-1609.53 1262,-1599.27 1262,-1465 1262,-1465 1262,-1465 1262,-760 1262,-735.15 1288.8,-743.89 1312,-735 1399.8,-701.37 1423.17,-693.89 1516,-679 1577.29,-669.17 1737.27,-687.83 1795,-665 1808.93,-659.49 1821.92,-649.29 1832.15,-639.53"/>
<polygon fill="#00b3ff" stroke="#00b3ff" stroke-width="2" points="1834.83,-641.8 1839.4,-632.24 1829.87,-636.86 1834.83,-641.8"/>
<text text-anchor="middle" x="1280.5" y="-1109" font-family="SF Pro Text Bold 10" font-size="15.00">i64 1</text>
</g>
<!-- node_47 -->
<g id="node35" class="node">
<title>node_47</title>
<path fill="#d66868" stroke="#000000" d="M2176.5,-2495C2176.5,-2495 2137.5,-2495 2137.5,-2495 2131.5,-2495 2125.5,-2489 2125.5,-2483 2125.5,-2483 2125.5,-2471 2125.5,-2471 2125.5,-2465 2131.5,-2459 2137.5,-2459 2137.5,-2459 2176.5,-2459 2176.5,-2459 2182.5,-2459 2188.5,-2465 2188.5,-2471 2188.5,-2471 2188.5,-2483 2188.5,-2483 2188.5,-2489 2182.5,-2495 2176.5,-2495"/>
<text text-anchor="middle" x="2157" y="-2473.5" font-family="SF Pro Text Bold 10" font-size="15.00" fill="#000000">ptr %1</text>
</g>
<!-- node_47&#45;&gt;node_18 -->
<g id="edge73" class="edge">
<title>node_47&#45;&gt;node_18</title>
<path fill="none" stroke="#00b3ff" stroke-width="2" d="M2156.64,-2458.8C2156.13,-2433.94 2155.17,-2387.74 2154.56,-2358.23"/>
<polygon fill="#00b3ff" stroke="#00b3ff" stroke-width="2" points="2158.06,-2358.11 2154.36,-2348.18 2151.06,-2358.25 2158.06,-2358.11"/>
<text text-anchor="middle" x="2165.5" y="-2400" font-family="SF Pro Text Bold 10" font-size="15.00">%1</text>
</g>
<!-- node_48 -->
<g id="node36" class="node">
<title>node_48</title>
<path fill="#d66868" stroke="#000000" d="M2048,-2495C2048,-2495 2018,-2495 2018,-2495 2012,-2495 2006,-2489 2006,-2483 2006,-2483 2006,-2471 2006,-2471 2006,-2465 2012,-2459 2018,-2459 2018,-2459 2048,-2459 2048,-2459 2054,-2459 2060,-2465 2060,-2471 2060,-2471 2060,-2483 2060,-2483 2060,-2489 2054,-2495 2048,-2495"/>
<text text-anchor="middle" x="2033" y="-2473.5" font-family="SF Pro Text Bold 10" font-size="15.00" fill="#000000">i64 1</text>
</g>
<!-- node_48&#45;&gt;node_18 -->
<g id="edge74" class="edge">
<title>node_48&#45;&gt;node_18</title>
<path fill="none" stroke="#00b3ff" stroke-width="2" d="M2047.36,-2458.8C2068.64,-2433.29 2108.69,-2385.3 2133.19,-2355.93"/>
<polygon fill="#00b3ff" stroke="#00b3ff" stroke-width="2" points="2135.94,-2358.1 2139.66,-2348.18 2130.57,-2353.62 2135.94,-2358.1"/>
</g>
<!-- node_49 -->
<g id="node37" class="node">
<title>node_49</title>
<path fill="#d66868" stroke="#000000" d="M2014,-2201C2014,-2201 1952,-2201 1952,-2201 1946,-2201 1940,-2195 1940,-2189 1940,-2189 1940,-2177 1940,-2177 1940,-2171 1946,-2165 1952,-2165 1952,-2165 2014,-2165 2014,-2165 2020,-2165 2026,-2171 2026,-2177 2026,-2177 2026,-2189 2026,-2189 2026,-2195 2020,-2201 2014,-2201"/>
<text text-anchor="middle" x="1983" y="-2179.5" font-family="SF Pro Text Bold 10" font-size="15.00" fill="#000000">ptr @atoi</text>
</g>
<!-- node_49&#45;&gt;node_20 -->
<g id="edge78" class="edge">
<title>node_49&#45;&gt;node_20</title>
<path fill="none" stroke="#00b3ff" stroke-width="2" d="M1993.68,-2164.8C2009.38,-2139.51 2038.79,-2092.11 2057.05,-2062.69"/>
<polygon fill="#00b3ff" stroke="#00b3ff" stroke-width="2" points="2060.04,-2064.52 2062.34,-2054.18 2054.09,-2060.83 2060.04,-2064.52"/>
</g>
<!-- node_50 -->
<g id="node38" class="node">
<title>node_50</title>
<path fill="#d66868" stroke="#000000" d="M1925,-1907C1925,-1907 1895,-1907 1895,-1907 1889,-1907 1883,-1901 1883,-1895 1883,-1895 1883,-1883 1883,-1883 1883,-1877 1889,-1871 1895,-1871 1895,-1871 1925,-1871 1925,-1871 1931,-1871 1937,-1877 1937,-1883 1937,-1883 1937,-1895 1937,-1895 1937,-1901 1931,-1907 1925,-1907"/>
<text text-anchor="middle" x="1910" y="-1885.5" font-family="SF Pro Text Bold 10" font-size="15.00" fill="#000000">i32 2</text>
</g>
<!-- node_50&#45;&gt;node_22 -->
<g id="edge82" class="edge">
<title>node_50&#45;&gt;node_22</title>
<path fill="none" stroke="#00b3ff" stroke-width="2" d="M1922.62,-1870.87C1938.94,-1848.7 1967.52,-1809.9 1986.35,-1784.32"/>
<polygon fill="#00b3ff" stroke="#00b3ff" stroke-width="2" points="1989.22,-1786.33 1992.33,-1776.2 1983.58,-1782.18 1989.22,-1786.33"/>
</g>
<!-- node_24&#45;&gt;node_25 -->
<g id="edge18" class="edge">
<title>node_24&#45;&gt;node_25</title>
<path fill="none" stroke="#ff3636" stroke-width="3" d="M1906.78,-1455.78C1840.41,-1438.15 1665.01,-1391.39 1519,-1351 1511.53,-1348.93 1503.54,-1346.69 1495.91,-1344.54"/>
<polygon fill="#ff3636" stroke="#ff3636" stroke-width="3" points="1496.74,-1341.13 1486.16,-1341.77 1494.83,-1347.87 1496.74,-1341.13"/>
</g>
<!-- node_26 -->
<g id="node41" class="node">
<title>node_26</title>
<path fill="#6d95df" stroke="#000000" d="M1829,-1204C1829,-1204 1799,-1204 1799,-1204 1793,-1204 1787,-1198 1787,-1192 1787,-1192 1787,-1180 1787,-1180 1787,-1174 1793,-1168 1799,-1168 1799,-1168 1829,-1168 1829,-1168 1835,-1168 1841,-1174 1841,-1180 1841,-1180 1841,-1192 1841,-1192 1841,-1198 1835,-1204 1829,-1204"/>
<text text-anchor="middle" x="1814" y="-1182.5" font-family="SF Pro Text Bold 10" font-size="15.00" fill="#000000">add</text>
</g>
<!-- node_24&#45;&gt;node_26 -->
<g id="edge85" class="edge">
<title>node_24&#45;&gt;node_26</title>
<path fill="none" stroke="#00b3ff" stroke-width="2" d="M1926.49,-1445.73C1906.16,-1398.98 1849.93,-1269.64 1825.54,-1213.54"/>
<polygon fill="#00b3ff" stroke="#00b3ff" stroke-width="2" points="1828.7,-1212.03 1821.5,-1204.26 1822.28,-1214.82 1828.7,-1212.03"/>
<text text-anchor="middle" x="1899" y="-1329.5" font-family="SF Pro Text Bold 10" font-size="15.00">%17</text>
</g>
<!-- node_27 -->
<g id="node42" class="node">
<title>node_27</title>
<path fill="#6d95df" stroke="#000000" d="M1829,-1057C1829,-1057 1799,-1057 1799,-1057 1793,-1057 1787,-1051 1787,-1045 1787,-1045 1787,-1033 1787,-1033 1787,-1027 1793,-1021 1799,-1021 1799,-1021 1829,-1021 1829,-1021 1835,-1021 1841,-1027 1841,-1033 1841,-1033 1841,-1045 1841,-1045 1841,-1051 1835,-1057 1829,-1057"/>
<text text-anchor="middle" x="1814" y="-1035.5" font-family="SF Pro Text Bold 10" font-size="15.00" fill="#000000">mul</text>
</g>
<!-- node_24&#45;&gt;node_27 -->
<g id="edge84" class="edge">
<title>node_24&#45;&gt;node_27</title>
<path fill="none" stroke="#00b3ff" stroke-width="2" d="M1935.38,-1445.93C1937.21,-1418.16 1939.24,-1361.65 1930,-1315 1910.84,-1218.26 1856.06,-1113.38 1829.21,-1065.92"/>
<polygon fill="#00b3ff" stroke="#00b3ff" stroke-width="2" points="1832.23,-1064.16 1824.23,-1057.21 1826.16,-1067.63 1832.23,-1064.16"/>
<text text-anchor="middle" x="1932" y="-1256" font-family="SF Pro Text Bold 10" font-size="15.00">%17</text>
</g>
<!-- node_28 -->
<g id="node43" class="node">
<title>node_28</title>
<path fill="#6d95df" stroke="#000000" d="M1869,-926C1869,-926 1839,-926 1839,-926 1833,-926 1827,-920 1827,-914 1827,-914 1827,-902 1827,-902 1827,-896 1833,-890 1839,-890 1839,-890 1869,-890 1869,-890 1875,-890 1881,-896 1881,-902 1881,-902 1881,-914 1881,-914 1881,-920 1875,-926 1869,-926"/>
<text text-anchor="middle" x="1854" y="-904.5" font-family="SF Pro Text Bold 10" font-size="15.00" fill="#000000">icmp</text>
</g>
<!-- node_24&#45;&gt;node_28 -->
<g id="edge83" class="edge">
<title>node_24&#45;&gt;node_28</title>
<path fill="none" stroke="#00b3ff" stroke-width="2" d="M1942.9,-1445.89C1973.44,-1384.71 2068.08,-1172.38 1995,-1021 1973.45,-976.35 1924.49,-944.04 1890.35,-925.91"/>
<polygon fill="#00b3ff" stroke="#00b3ff" stroke-width="2" points="1891.64,-922.64 1881.15,-921.18 1888.44,-928.87 1891.64,-922.64"/>
<text text-anchor="middle" x="2036" y="-1182.5" font-family="SF Pro Text Bold 10" font-size="15.00">%17</text>
</g>
<!-- node_25&#45;&gt;node_26 -->
<g id="edge19" class="edge">
<title>node_25&#45;&gt;node_26</title>
<path fill="none" stroke="#ff3636" stroke-width="3" d="M1486.15,-1324.19C1496.43,-1321.26 1508.24,-1317.94 1519,-1315 1598.35,-1293.34 1632.42,-1317.64 1698,-1268 1704.99,-1262.71 1701.84,-1257.23 1708,-1251 1727.97,-1230.8 1755.56,-1214.4 1777.59,-1203.27"/>
<polygon fill="#ff3636" stroke="#ff3636" stroke-width="3" points="1779.21,-1206.37 1786.65,-1198.82 1776.13,-1200.08 1779.21,-1206.37"/>
</g>
<!-- node_25&#45;&gt;node_27 -->
<g id="edge88" class="edge">
<title>node_25&#45;&gt;node_27</title>
<path fill="none" stroke="#00b3ff" stroke-width="2" d="M1468.4,-1314.91C1486.35,-1283.31 1528.01,-1214.72 1576,-1168 1635.56,-1110.01 1726.69,-1070.98 1777.15,-1052.44"/>
<polygon fill="#00b3ff" stroke="#00b3ff" stroke-width="2" points="1778.46,-1055.69 1786.68,-1049 1776.09,-1049.1 1778.46,-1055.69"/>
<text text-anchor="middle" x="1591.5" y="-1182.5" font-family="SF Pro Text Bold 10" font-size="15.00">%18</text>
</g>
<!-- node_26&#45;&gt;node_24 -->
<g id="edge91" class="edge">
<title>node_26&#45;&gt;node_24</title>
<path fill="none" stroke="#00b3ff" stroke-width="2" d="M1811.1,-1204.21C1806.71,-1235.13 1801.01,-1301.48 1823,-1351 1839.44,-1388.03 1873.97,-1419.67 1900.17,-1439.78"/>
<polygon fill="#00b3ff" stroke="#00b3ff" stroke-width="2" points="1898.25,-1442.72 1908.36,-1445.9 1902.44,-1437.11 1898.25,-1442.72"/>
<text text-anchor="middle" x="1838.5" y="-1329.5" font-family="SF Pro Text Bold 10" font-size="15.00">%19</text>
</g>
<!-- node_26&#45;&gt;node_27 -->
<g id="edge20" class="edge">
<title>node_26&#45;&gt;node_27</title>
<path fill="none" stroke="#ff3636" stroke-width="3" d="M1814,-1167.8C1814,-1142.94 1814,-1096.74 1814,-1067.23"/>
<polygon fill="#ff3636" stroke="#ff3636" stroke-width="3" points="1817.5,-1067.18 1814,-1057.18 1810.5,-1067.18 1817.5,-1067.18"/>
</g>
<!-- node_27&#45;&gt;node_25 -->
<g id="edge94" class="edge">
<title>node_27&#45;&gt;node_25</title>
<path fill="none" stroke="#00b3ff" stroke-width="2" d="M1793.92,-1057.16C1758.72,-1087.19 1683.47,-1151.12 1619,-1204 1573.93,-1240.97 1521.01,-1283.05 1488.75,-1308.56"/>
<polygon fill="#00b3ff" stroke="#00b3ff" stroke-width="2" points="1486.29,-1306.04 1480.61,-1314.98 1490.63,-1311.53 1486.29,-1306.04"/>
<text text-anchor="middle" x="1677" y="-1182.5" font-family="SF Pro Text Bold 10" font-size="15.00">%20</text>
</g>
<!-- node_27&#45;&gt;node_28 -->
<g id="edge21" class="edge">
<title>node_27&#45;&gt;node_28</title>
<path fill="none" stroke="#ff3636" stroke-width="3" d="M1819.31,-1020.87C1826.04,-999.18 1837.7,-961.58 1845.62,-936.01"/>
<polygon fill="#ff3636" stroke="#ff3636" stroke-width="3" points="1849.05,-936.79 1848.67,-926.2 1842.36,-934.72 1849.05,-936.79"/>
</g>
<!-- node_27&#45;&gt;node_30 -->
<g id="edge93" class="edge">
<title>node_27&#45;&gt;node_30</title>
<path fill="none" stroke="#00b3ff" stroke-width="2" d="M1787,-1035.14C1683.35,-1023.06 1321.49,-969.99 1416,-826 1506.11,-688.71 1602.07,-738.83 1755,-679 1772.54,-672.14 1778.65,-674.36 1795,-665 1807.32,-657.95 1819.53,-648.19 1829.62,-639.17"/>
<polygon fill="#00b3ff" stroke="#00b3ff" stroke-width="2" points="1832.24,-641.51 1837.21,-632.15 1827.49,-636.37 1832.24,-641.51"/>
<text text-anchor="middle" x="1433" y="-831" font-family="SF Pro Text Bold 10" font-size="15.00">%20</text>
</g>
<!-- node_29 -->
<g id="node44" class="node">
<title>node_29</title>
<path fill="#6d95df" stroke="#000000" d="M1869,-779C1869,-779 1839,-779 1839,-779 1833,-779 1827,-773 1827,-767 1827,-767 1827,-755 1827,-755 1827,-749 1833,-743 1839,-743 1839,-743 1869,-743 1869,-743 1875,-743 1881,-749 1881,-755 1881,-755 1881,-767 1881,-767 1881,-773 1875,-779 1869,-779"/>
<text text-anchor="middle" x="1854" y="-757.5" font-family="SF Pro Text Bold 10" font-size="15.00" fill="#000000">br</text>
</g>
<!-- node_28&#45;&gt;node_29 -->
<g id="edge22" class="edge">
<title>node_28&#45;&gt;node_29</title>
<path fill="none" stroke="#ff3636" stroke-width="3" d="M1854,-889.8C1854,-864.94 1854,-818.74 1854,-789.23"/>
<polygon fill="#ff3636" stroke="#ff3636" stroke-width="3" points="1857.5,-789.18 1854,-779.18 1850.5,-789.18 1857.5,-789.18"/>
</g>
<!-- node_28&#45;&gt;node_29 -->
<g id="edge95" class="edge">
<title>node_28&#45;&gt;node_29</title>
<path fill="none" stroke="#00b3ff" stroke-width="2" d="M1836.55,-889.74C1825.74,-877.76 1812.84,-860.82 1807,-843 1800.4,-822.87 1812.69,-802.25 1826.36,-786.85"/>
<polygon fill="#00b3ff" stroke="#00b3ff" stroke-width="2" points="1829.18,-788.96 1833.53,-779.31 1824.11,-784.14 1829.18,-788.96"/>
<text text-anchor="middle" x="1822.5" y="-831" font-family="SF Pro Text Bold 10" font-size="15.00">%21</text>
</g>
<!-- node_29&#45;&gt;node_24 -->
<g id="edge34" class="edge">
<title>node_29&#45;&gt;node_24</title>
<path fill="none" stroke="#ff8800" stroke-width="5" d="M1881.1,-763.47C1951.37,-768.88 2134,-793.82 2134,-907 2134,-1334 2134,-1334 2134,-1334 2134,-1410.59 2029.14,-1443.9 1971.27,-1456.45"/>
<polygon fill="#ff8800" stroke="#ff8800" stroke-width="5" points="1970.3,-1452.18 1961.39,-1458.49 1972.07,-1460.75 1970.3,-1452.18"/>
</g>
<!-- node_29&#45;&gt;node_24 -->
<g id="edge86" class="edge">
<title>node_29&#45;&gt;node_24</title>
<path fill="none" stroke="#00b3ff" stroke-width="2" d="M1881.21,-764.2C1930.62,-769.12 2037.25,-784.1 2116,-826 2163.22,-851.12 2205,-853.52 2205,-907 2205,-1334 2205,-1334 2205,-1334 2205,-1436.18 2045.97,-1457.51 1971.56,-1461.9"/>
<polygon fill="#00b3ff" stroke="#00b3ff" stroke-width="2" points="1971.03,-1458.42 1961.23,-1462.43 1971.39,-1465.41 1971.03,-1458.42"/>
<text text-anchor="middle" x="2235.5" y="-1109" font-family="SF Pro Text Bold 10" font-size="15.00">i64 %19</text>
</g>
<!-- node_29&#45;&gt;node_25 -->
<g id="edge89" class="edge">
<title>node_29&#45;&gt;node_25</title>
<path fill="none" stroke="#00b3ff" stroke-width="2" d="M1835.08,-779.26C1821.71,-791.77 1803.65,-809.35 1789,-826 1662.87,-969.35 1634.78,-1009.04 1529,-1168 1505.39,-1203.48 1497.39,-1211.66 1481,-1251 1473.74,-1268.43 1468.19,-1288.98 1464.48,-1305.01"/>
<polygon fill="#00b3ff" stroke="#00b3ff" stroke-width="2" points="1461.05,-1304.3 1462.31,-1314.82 1467.89,-1305.81 1461.05,-1304.3"/>
<text text-anchor="middle" x="1660.5" y="-1035.5" font-family="SF Pro Text Bold 10" font-size="15.00">i64 %20</text>
</g>
<!-- node_29&#45;&gt;node_30 -->
<g id="edge37" class="edge">
<title>node_29&#45;&gt;node_30</title>
<path fill="none" stroke="#ff8800" stroke-width="5" d="M1854,-742.8C1854,-717.94 1854,-671.74 1854,-642.23"/>
<polygon fill="#ff8800" stroke="#ff8800" stroke-width="5" points="1858.38,-642.18 1854,-632.18 1849.63,-642.18 1858.38,-642.18"/>
</g>
<!-- node_29&#45;&gt;node_30 -->
<g id="edge99" class="edge">
<title>node_29&#45;&gt;node_30</title>
<path fill="none" stroke="#00b3ff" stroke-width="2" d="M1826.76,-748.12C1798.31,-733.85 1759.81,-708.18 1775,-679 1780.01,-669.38 1786.41,-671.63 1795,-665 1805.74,-656.72 1817.19,-647.19 1827.11,-638.69"/>
<polygon fill="#00b3ff" stroke="#00b3ff" stroke-width="2" points="1829.43,-641.31 1834.71,-632.13 1824.85,-636.02 1829.43,-641.31"/>
<text text-anchor="middle" x="1806.5" y="-684" font-family="SF Pro Text Bold 10" font-size="15.00">i64 %20</text>
</g>
<!-- node_51 -->
<g id="node45" class="node">
<title>node_51</title>
<path fill="#d66868" stroke="#000000" d="M1600.5,-1351C1600.5,-1351 1563.5,-1351 1563.5,-1351 1557.5,-1351 1551.5,-1345 1551.5,-1339 1551.5,-1339 1551.5,-1327 1551.5,-1327 1551.5,-1321 1557.5,-1315 1563.5,-1315 1563.5,-1315 1600.5,-1315 1600.5,-1315 1606.5,-1315 1612.5,-1321 1612.5,-1327 1612.5,-1327 1612.5,-1339 1612.5,-1339 1612.5,-1345 1606.5,-1351 1600.5,-1351"/>
<text text-anchor="middle" x="1582" y="-1329.5" font-family="SF Pro Text Bold 10" font-size="15.00" fill="#000000">i64 &#45;1</text>
</g>
<!-- node_51&#45;&gt;node_26 -->
<g id="edge92" class="edge">
<title>node_51&#45;&gt;node_26</title>
<path fill="none" stroke="#00b3ff" stroke-width="2" d="M1612.53,-1322.98C1642.33,-1313.07 1687.75,-1294.9 1720,-1268 1727.1,-1262.08 1725.62,-1257.69 1732,-1251 1746.4,-1235.89 1764.52,-1221.38 1780.05,-1210"/>
<polygon fill="#00b3ff" stroke="#00b3ff" stroke-width="2" points="1782.3,-1212.7 1788.38,-1204.02 1778.22,-1207.01 1782.3,-1212.7"/>
</g>
<!-- node_52 -->
<g id="node46" class="node">
<title>node_52</title>
<path fill="#d66868" stroke="#000000" d="M1950,-1057C1950,-1057 1918,-1057 1918,-1057 1912,-1057 1906,-1051 1906,-1045 1906,-1045 1906,-1033 1906,-1033 1906,-1027 1912,-1021 1918,-1021 1918,-1021 1950,-1021 1950,-1021 1956,-1021 1962,-1027 1962,-1033 1962,-1033 1962,-1045 1962,-1045 1962,-1051 1956,-1057 1950,-1057"/>
<text text-anchor="middle" x="1934" y="-1035.5" font-family="SF Pro Text Bold 10" font-size="15.00" fill="#000000">i64 3</text>
</g>
<!-- node_52&#45;&gt;node_28 -->
<g id="edge96" class="edge">
<title>node_52&#45;&gt;node_28</title>
<path fill="none" stroke="#00b3ff" stroke-width="2" d="M1923.38,-1020.87C1909.75,-998.9 1885.98,-960.57 1870.12,-934.99"/>
<polygon fill="#00b3ff" stroke="#00b3ff" stroke-width="2" points="1872.91,-932.85 1864.67,-926.2 1866.96,-936.54 1872.91,-932.85"/>
</g>
<!-- node_30&#45;&gt;node_31 -->
<g id="edge23" class="edge">
<title>node_30&#45;&gt;node_31</title>
<path fill="none" stroke="#ff3636" stroke-width="3" d="M1854,-595.8C1854,-570.94 1854,-524.74 1854,-495.23"/>
<polygon fill="#ff3636" stroke="#ff3636" stroke-width="3" points="1857.5,-495.18 1854,-485.18 1850.5,-495.18 1857.5,-495.18"/>
</g>
<!-- node_30&#45;&gt;node_31 -->
<g id="edge97" class="edge">
<title>node_30&#45;&gt;node_31</title>
<path fill="none" stroke="#00b3ff" stroke-width="2" d="M1854.82,-595.94C1855.51,-579.54 1856.34,-554.08 1856,-532 1855.81,-519.95 1855.42,-506.64 1855.04,-495.29"/>
<polygon fill="#00b3ff" stroke="#00b3ff" stroke-width="2" points="1858.53,-494.98 1854.68,-485.11 1851.54,-495.23 1858.53,-494.98"/>
<text text-anchor="middle" x="1872.5" y="-537" font-family="SF Pro Text Bold 10" font-size="15.00">%23</text>
</g>
<!-- node_32 -->
<g id="node49" class="node">
<title>node_32</title>
<path fill="#6d95df" stroke="#000000" d="M1946,-354C1946,-354 1916,-354 1916,-354 1910,-354 1904,-348 1904,-342 1904,-342 1904,-330 1904,-330 1904,-324 1910,-318 1916,-318 1916,-318 1946,-318 1946,-318 1952,-318 1958,-324 1958,-330 1958,-330 1958,-342 1958,-342 1958,-348 1952,-354 1946,-354"/>
<text text-anchor="middle" x="1931" y="-332.5" font-family="SF Pro Text Bold 10" font-size="15.00" fill="#000000">br</text>
</g>
<!-- node_31&#45;&gt;node_32 -->
<g id="edge24" class="edge">
<title>node_31&#45;&gt;node_32</title>
<path fill="none" stroke="#ff3636" stroke-width="3" d="M1864.23,-448.87C1877.34,-426.9 1900.22,-388.57 1915.48,-362.99"/>
<polygon fill="#ff3636" stroke="#ff3636" stroke-width="3" points="1918.61,-364.58 1920.73,-354.2 1912.6,-360.99 1918.61,-364.58"/>
</g>
<!-- node_32&#45;&gt;node_35 -->
<g id="edge40" class="edge">
<title>node_32&#45;&gt;node_35</title>
<path fill="none" stroke="#ff8800" stroke-width="5" d="M1951.27,-317.76C1954.76,-315.05 1958.42,-312.36 1962,-310 2042.15,-256.99 2149.57,-218.78 2205.18,-201.06"/>
<polygon fill="#ff8800" stroke="#ff8800" stroke-width="5" points="2206.71,-205.17 2214.94,-198 2204.09,-196.82 2206.71,-205.17"/>
</g>
<!-- node_32&#45;&gt;node_35 -->
<g id="edge106" class="edge">
<title>node_32&#45;&gt;node_35</title>
<path fill="none" stroke="#00b3ff" stroke-width="2" d="M1950.33,-317.87C1954.06,-315.02 1958.04,-312.26 1962,-310 2004.87,-285.53 2020.44,-290 2066,-271 2114.81,-250.65 2170.05,-224.74 2205.41,-207.78"/>
<polygon fill="#00b3ff" stroke="#00b3ff" stroke-width="2" points="2207.34,-210.74 2214.84,-203.25 2204.31,-204.43 2207.34,-210.74"/>
<text text-anchor="middle" x="2123.5" y="-259" font-family="SF Pro Text Bold 10" font-size="15.00">i32 0</text>
</g>
<!-- node_53 -->
<g id="node50" class="node">
<title>node_53</title>
<path fill="#d66868" stroke="#000000" d="M1750,-632C1750,-632 1680,-632 1680,-632 1674,-632 1668,-626 1668,-620 1668,-620 1668,-608 1668,-608 1668,-602 1674,-596 1680,-596 1680,-596 1750,-596 1750,-596 1756,-596 1762,-602 1762,-608 1762,-608 1762,-620 1762,-620 1762,-626 1756,-632 1750,-632"/>
<text text-anchor="middle" x="1715" y="-610.5" font-family="SF Pro Text Bold 10" font-size="15.00" fill="#000000">ptr @.str.1</text>
</g>
<!-- node_53&#45;&gt;node_31 -->
<g id="edge100" class="edge">
<title>node_53&#45;&gt;node_31</title>
<path fill="none" stroke="#00b3ff" stroke-width="2" d="M1731.49,-595.8C1756.05,-570.18 1802.34,-521.89 1830.46,-492.56"/>
<polygon fill="#00b3ff" stroke="#00b3ff" stroke-width="2" points="1833.14,-494.82 1837.53,-485.18 1828.08,-489.98 1833.14,-494.82"/>
</g>
<!-- node_54 -->
<g id="node51" class="node">
<title>node_54</title>
<path fill="#d66868" stroke="#000000" d="M1591,-632C1591,-632 1515,-632 1515,-632 1509,-632 1503,-626 1503,-620 1503,-620 1503,-608 1503,-608 1503,-602 1509,-596 1515,-596 1515,-596 1591,-596 1591,-596 1597,-596 1603,-602 1603,-608 1603,-608 1603,-620 1603,-620 1603,-626 1597,-632 1591,-632"/>
<text text-anchor="middle" x="1553" y="-610.5" font-family="SF Pro Text Bold 10" font-size="15.00" fill="#000000">ptr @printf</text>
</g>
<!-- node_54&#45;&gt;node_31 -->
<g id="edge101" class="edge">
<title>node_54&#45;&gt;node_31</title>
<path fill="none" stroke="#00b3ff" stroke-width="2" d="M1588.41,-595.94C1645.97,-568.21 1759.24,-513.65 1817.49,-485.59"/>
<polygon fill="#00b3ff" stroke="#00b3ff" stroke-width="2" points="1819.2,-488.65 1826.69,-481.15 1816.16,-482.34 1819.2,-488.65"/>
</g>
<!-- node_34 -->
<g id="node53" class="node">
<title>node_34</title>
<path fill="#6d95df" stroke="#000000" d="M2257,-354C2257,-354 2227,-354 2227,-354 2221,-354 2215,-348 2215,-342 2215,-342 2215,-330 2215,-330 2215,-324 2221,-318 2227,-318 2227,-318 2257,-318 2257,-318 2263,-318 2269,-324 2269,-330 2269,-330 2269,-342 2269,-342 2269,-348 2263,-354 2257,-354"/>
<text text-anchor="middle" x="2242" y="-332.5" font-family="SF Pro Text Bold 10" font-size="15.00" fill="#000000">br</text>
</g>
<!-- node_33&#45;&gt;node_34 -->
<g id="edge25" class="edge">
<title>node_33&#45;&gt;node_34</title>
<path fill="none" stroke="#ff3636" stroke-width="3" d="M2277.56,-448.87C2270.66,-427.18 2258.71,-389.58 2250.58,-364.01"/>
<polygon fill="#ff3636" stroke="#ff3636" stroke-width="3" points="2253.83,-362.67 2247.47,-354.2 2247.16,-364.79 2253.83,-362.67"/>
</g>
<!-- node_34&#45;&gt;node_35 -->
<g id="edge41" class="edge">
<title>node_34&#45;&gt;node_35</title>
<path fill="none" stroke="#ff8800" stroke-width="5" d="M2242,-317.8C2242,-292.94 2242,-246.74 2242,-217.23"/>
<polygon fill="#ff8800" stroke="#ff8800" stroke-width="5" points="2246.38,-217.18 2242,-207.18 2237.63,-217.18 2246.38,-217.18"/>
</g>
<!-- node_34&#45;&gt;node_35 -->
<g id="edge107" class="edge">
<title>node_34&#45;&gt;node_35</title>
<path fill="none" stroke="#00b3ff" stroke-width="2" d="M2242.82,-317.94C2243.51,-301.54 2244.34,-276.08 2244,-254 2243.81,-241.95 2243.42,-228.64 2243.04,-217.29"/>
<polygon fill="#00b3ff" stroke="#00b3ff" stroke-width="2" points="2246.53,-216.98 2242.68,-207.11 2239.54,-217.23 2246.53,-216.98"/>
<text text-anchor="middle" x="2262" y="-259" font-family="SF Pro Text Bold 10" font-size="15.00">i32 1</text>
</g>
<!-- node_55 -->
<g id="node54" class="node">
<title>node_55</title>
<path fill="#d66868" stroke="#000000" d="M2205,-632C2205,-632 2151,-632 2151,-632 2145,-632 2139,-626 2139,-620 2139,-620 2139,-608 2139,-608 2139,-602 2145,-596 2151,-596 2151,-596 2205,-596 2205,-596 2211,-596 2217,-602 2217,-608 2217,-608 2217,-620 2217,-620 2217,-626 2211,-632 2205,-632"/>
<text text-anchor="middle" x="2178" y="-610.5" font-family="SF Pro Text Bold 10" font-size="15.00" fill="#000000">ptr @str</text>
</g>
<!-- node_55&#45;&gt;node_33 -->
<g id="edge102" class="edge">
<title>node_55&#45;&gt;node_33</title>
<path fill="none" stroke="#00b3ff" stroke-width="2" d="M2190.46,-595.8C2208.85,-570.4 2243.39,-522.71 2264.67,-493.31"/>
<polygon fill="#00b3ff" stroke="#00b3ff" stroke-width="2" points="2267.53,-495.33 2270.56,-485.18 2261.86,-491.23 2267.53,-495.33"/>
</g>
<!-- node_56 -->
<g id="node55" class="node">
<title>node_56</title>
<path fill="#d66868" stroke="#000000" d="M2061.5,-632C2061.5,-632 1994.5,-632 1994.5,-632 1988.5,-632 1982.5,-626 1982.5,-620 1982.5,-620 1982.5,-608 1982.5,-608 1982.5,-602 1988.5,-596 1994.5,-596 1994.5,-596 2061.5,-596 2061.5,-596 2067.5,-596 2073.5,-602 2073.5,-608 2073.5,-608 2073.5,-620 2073.5,-620 2073.5,-626 2067.5,-632 2061.5,-632"/>
<text text-anchor="middle" x="2028" y="-610.5" font-family="SF Pro Text Bold 10" font-size="15.00" fill="#000000">ptr @puts</text>
</g>
<!-- node_56&#45;&gt;node_33 -->
<g id="edge103" class="edge">
<title>node_56&#45;&gt;node_33</title>
<path fill="none" stroke="#00b3ff" stroke-width="2" d="M2058,-595.94C2105.1,-569.16 2196.22,-517.34 2246.86,-488.55"/>
<polygon fill="#00b3ff" stroke="#00b3ff" stroke-width="2" points="2248.86,-491.44 2255.82,-483.45 2245.4,-485.35 2248.86,-491.44"/>
</g>
<!-- node_36 -->
<g id="node57" class="node">
<title>node_36</title>
<path fill="#6d95df" stroke="#000000" d="M2257,-60C2257,-60 2227,-60 2227,-60 2221,-60 2215,-54 2215,-48 2215,-48 2215,-36 2215,-36 2215,-30 2221,-24 2227,-24 2227,-24 2257,-24 2257,-24 2263,-24 2269,-30 2269,-36 2269,-36 2269,-48 2269,-48 2269,-54 2263,-60 2257,-60"/>
<text text-anchor="middle" x="2242" y="-38.5" font-family="SF Pro Text Bold 10" font-size="15.00" fill="#000000">ret</text>
</g>
<!-- node_35&#45;&gt;node_36 -->
<g id="edge26" class="edge">
<title>node_35&#45;&gt;node_36</title>
<path fill="none" stroke="#ff3636" stroke-width="3" d="M2242,-170.8C2242,-145.94 2242,-99.74 2242,-70.23"/>
<polygon fill="#ff3636" stroke="#ff3636" stroke-width="3" points="2245.5,-70.18 2242,-60.18 2238.5,-70.18 2245.5,-70.18"/>
</g>
<!-- node_35&#45;&gt;node_36 -->
<g id="edge104" class="edge">
<title>node_35&#45;&gt;node_36</title>
<path fill="none" stroke="#00b3ff" stroke-width="2" d="M2242.82,-170.94C2243.51,-154.54 2244.34,-129.08 2244,-107 2243.81,-94.95 2243.42,-81.64 2243.04,-70.29"/>
<polygon fill="#00b3ff" stroke="#00b3ff" stroke-width="2" points="2246.53,-69.98 2242.68,-60.11 2239.54,-70.23 2246.53,-69.98"/>
<text text-anchor="middle" x="2261" y="-112" font-family="SF Pro Text Bold 10" font-size="15.00">%28</text>
</g>
</g>
</svg>
