<?xml version="1.0" encoding="UTF-8" standalone="no"?>
<!DOCTYPE svg PUBLIC "-//W3C//DTD SVG 1.1//EN"
 "http://www.w3.org/Graphics/SVG/1.1/DTD/svg11.dtd">
<!-- Generated by graphviz version 2.43.0 (0)
 -->
<!-- Title: /home/sevsol/Projects/4sem/lisitsyn/llvm&#45;ir&#45;dumper/wt/graph_serialization_v2/examples/fact/fact.c Pages: 1 -->
<svg width="2974pt" height="3615pt"
 viewBox="0.00 0.00 2974.20 3615.20" xmlns="http://www.w3.org/2000/svg" xmlns:xlink="http://www.w3.org/1999/xlink">
<g id="graph0" class="graph" transform="scale(1 1) rotate(0) translate(21.6 3593.6)">
<title>/home/sevsol/Projects/4sem/lisitsyn/llvm&#45;ir&#45;dumper/wt/graph_serialization_v2/examples/fact/fact.c</title>
<polygon fill="white" stroke="transparent" points="-21.6,21.6 -21.6,-3593.6 2952.6,-3593.6 2952.6,21.6 -21.6,21.6"/>
<g id="clust1" class="cluster">
<title>cluster_func_0</title>
<path fill="#e3e3e3" stroke="#000000" stroke-width="2" d="M20,-1888C20,-1888 1097,-1888 1097,-1888 1103,-1888 1109,-1894 1109,-1900 1109,-1900 1109,-3552 1109,-3552 1109,-3558 1103,-3564 1097,-3564 1097,-3564 20,-3564 20,-3564 14,-3564 8,-3558 8,-3552 8,-3552 8,-1900 8,-1900 8,-1894 14,-1888 20,-1888"/>
<text text-anchor="middle" x="558.5" y="-3544" font-family="SF Pro Text Bold 10" font-size="20.00">fact</text>
<text text-anchor="middle" x="558.5" y="-3522" font-family="SF Pro Text Bold 10" font-size="20.00">calls=0</text>
</g>
<g id="clust2" class="cluster">
<title>cluster_func_0_bb_0</title>
<path fill="#56c7c3" stroke="#000000" stroke-width="2" d="M808,-3105C808,-3105 991,-3105 991,-3105 997,-3105 1003,-3111 1003,-3117 1003,-3117 1003,-3492 1003,-3492 1003,-3498 997,-3504 991,-3504 991,-3504 808,-3504 808,-3504 802,-3504 796,-3498 796,-3492 796,-3492 796,-3117 796,-3117 796,-3111 802,-3105 808,-3105"/>
<text text-anchor="middle" x="899.5" y="-3488" font-family="SF Pro Text Bold 10" font-size="15.00">label %1</text>
<text text-anchor="middle" x="899.5" y="-3471" font-family="SF Pro Text Bold 10" font-size="15.00">count=0</text>
</g>
<g id="clust3" class="cluster">
<title>cluster_func_0_bb_1</title>
<path fill="#56c7c3" stroke="#000000" stroke-width="2" d="M28,-2201C28,-2201 898,-2201 898,-2201 904,-2201 910,-2207 910,-2213 910,-2213 910,-3029 910,-3029 910,-3035 904,-3041 898,-3041 898,-3041 28,-3041 28,-3041 22,-3041 16,-3035 16,-3029 16,-3029 16,-2213 16,-2213 16,-2207 22,-2201 28,-2201"/>
<text text-anchor="middle" x="463" y="-3025" font-family="SF Pro Text Bold 10" font-size="15.00">label %3</text>
<text text-anchor="middle" x="463" y="-3008" font-family="SF Pro Text Bold 10" font-size="15.00">count=0</text>
</g>
<g id="clust4" class="cluster">
<title>cluster_func_0_bb_2</title>
<path fill="#56c7c3" stroke="#000000" stroke-width="2" d="M893,-1896C893,-1896 1014,-1896 1014,-1896 1020,-1896 1026,-1902 1026,-1908 1026,-1908 1026,-2125 1026,-2125 1026,-2131 1020,-2137 1014,-2137 1014,-2137 893,-2137 893,-2137 887,-2137 881,-2131 881,-2125 881,-2125 881,-1908 881,-1908 881,-1902 887,-1896 893,-1896"/>
<text text-anchor="middle" x="953.5" y="-2121" font-family="SF Pro Text Bold 10" font-size="15.00">label %9</text>
<text text-anchor="middle" x="953.5" y="-2104" font-family="SF Pro Text Bold 10" font-size="15.00">count=0</text>
</g>
<g id="clust5" class="cluster">
<title>cluster_func_1</title>
<path fill="#e3e3e3" stroke="#000000" stroke-width="2" d="M1129,-8C1129,-8 2911,-8 2911,-8 2917,-8 2923,-14 2923,-20 2923,-20 2923,-3552 2923,-3552 2923,-3558 2917,-3564 2911,-3564 2911,-3564 1129,-3564 1129,-3564 1123,-3564 1117,-3558 1117,-3552 1117,-3552 1117,-20 1117,-20 1117,-14 1123,-8 1129,-8"/>
<text text-anchor="middle" x="2020" y="-3544" font-family="SF Pro Text Bold 10" font-size="20.00">main</text>
<text text-anchor="middle" x="2020" y="-3522" font-family="SF Pro Text Bold 10" font-size="20.00">calls=1</text>
</g>
<g id="clust6" class="cluster">
<title>cluster_func_1_bb_3</title>
<path fill="#a5b592" stroke="#000000" stroke-width="2" d="M2724,-3105C2724,-3105 2903,-3105 2903,-3105 2909,-3105 2915,-3111 2915,-3117 2915,-3117 2915,-3492 2915,-3492 2915,-3498 2909,-3504 2903,-3504 2903,-3504 2724,-3504 2724,-3504 2718,-3504 2712,-3498 2712,-3492 2712,-3492 2712,-3117 2712,-3117 2712,-3111 2718,-3105 2724,-3105"/>
<text text-anchor="middle" x="2813.5" y="-3488" font-family="SF Pro Text Bold 10" font-size="15.00">label %2</text>
<text text-anchor="middle" x="2813.5" y="-3471" font-family="SF Pro Text Bold 10" font-size="15.00">count=1</text>
</g>
<g id="clust7" class="cluster">
<title>cluster_func_1_bb_4</title>
<path fill="#56c7c3" stroke="#000000" stroke-width="2" d="M2436,-321C2436,-321 2785,-321 2785,-321 2791,-321 2797,-327 2797,-333 2797,-333 2797,-681 2797,-681 2797,-687 2791,-693 2785,-693 2785,-693 2436,-693 2436,-693 2430,-693 2424,-687 2424,-681 2424,-681 2424,-333 2424,-333 2424,-327 2430,-321 2436,-321"/>
<text text-anchor="middle" x="2610.5" y="-677" font-family="SF Pro Text Bold 10" font-size="15.00">label %4</text>
<text text-anchor="middle" x="2610.5" y="-660" font-family="SF Pro Text Bold 10" font-size="15.00">count=0</text>
</g>
<g id="clust8" class="cluster">
<title>cluster_func_1_bb_5</title>
<path fill="#a5b592" stroke="#000000" stroke-width="2" d="M2358,-2495C2358,-2495 2692,-2495 2692,-2495 2698,-2495 2704,-2501 2704,-2507 2704,-2507 2704,-3187 2704,-3187 2704,-3193 2698,-3199 2692,-3199 2692,-3199 2358,-3199 2358,-3199 2352,-3199 2346,-3193 2346,-3187 2346,-3187 2346,-2507 2346,-2507 2346,-2501 2352,-2495 2358,-2495"/>
<text text-anchor="middle" x="2525" y="-3183" font-family="SF Pro Text Bold 10" font-size="15.00">label %6</text>
<text text-anchor="middle" x="2525" y="-3166" font-family="SF Pro Text Bold 10" font-size="15.00">count=1</text>
</g>
<g id="clust9" class="cluster">
<title>cluster_func_1_bb_6</title>
<path fill="#a5b592" stroke="#000000" stroke-width="2" d="M1985,-1618C1985,-1618 2311,-1618 2311,-1618 2317,-1618 2323,-1624 2323,-1630 2323,-1630 2323,-2577 2323,-2577 2323,-2583 2317,-2589 2311,-2589 2311,-2589 1985,-2589 1985,-2589 1979,-2589 1973,-2583 1973,-2577 1973,-2577 1973,-1630 1973,-1630 1973,-1624 1979,-1618 1985,-1618"/>
<text text-anchor="middle" x="2148" y="-2573" font-family="SF Pro Text Bold 10" font-size="15.00">label %10</text>
<text text-anchor="middle" x="2148" y="-2556" font-family="SF Pro Text Bold 10" font-size="15.00">count=1</text>
</g>
<g id="clust10" class="cluster">
<title>cluster_func_1_bb_7</title>
<path fill="#f4a261" stroke="#000000" stroke-width="2" d="M1424,-757C1424,-757 2296,-757 2296,-757 2302,-757 2308,-763 2308,-769 2308,-769 2308,-1542 2308,-1542 2308,-1548 2302,-1554 2296,-1554 2296,-1554 1424,-1554 1424,-1554 1418,-1554 1412,-1548 1412,-1542 1412,-1542 1412,-769 1412,-769 1412,-763 1418,-757 1424,-757"/>
<text text-anchor="middle" x="1860" y="-1538" font-family="SF Pro Text Bold 10" font-size="15.00">label %16</text>
<text text-anchor="middle" x="1860" y="-1521" font-family="SF Pro Text Bold 10" font-size="15.00">count=3</text>
</g>
<g id="clust11" class="cluster">
<title>cluster_func_1_bb_8</title>
<path fill="#a5b592" stroke="#000000" stroke-width="2" d="M1605,-321C1605,-321 2052,-321 2052,-321 2058,-321 2064,-327 2064,-333 2064,-333 2064,-681 2064,-681 2064,-687 2058,-693 2052,-693 2052,-693 1605,-693 1605,-693 1599,-693 1593,-687 1593,-681 1593,-681 1593,-333 1593,-333 1593,-327 1599,-321 1605,-321"/>
<text text-anchor="middle" x="1828.5" y="-677" font-family="SF Pro Text Bold 10" font-size="15.00">label %22</text>
<text text-anchor="middle" x="1828.5" y="-660" font-family="SF Pro Text Bold 10" font-size="15.00">count=1</text>
</g>
<g id="clust12" class="cluster">
<title>cluster_func_1_bb_9</title>
<path fill="#56c7c3" stroke="#000000" stroke-width="2" d="M2084,-321C2084,-321 2404,-321 2404,-321 2410,-321 2416,-327 2416,-333 2416,-333 2416,-681 2416,-681 2416,-687 2410,-693 2404,-693 2404,-693 2084,-693 2084,-693 2078,-693 2072,-687 2072,-681 2072,-681 2072,-333 2072,-333 2072,-327 2078,-321 2084,-321"/>
<text text-anchor="middle" x="2244" y="-677" font-family="SF Pro Text Bold 10" font-size="15.00">label %25</text>
<text text-anchor="middle" x="2244" y="-660" font-family="SF Pro Text Bold 10" font-size="15.00">count=0</text>
</g>
<g id="clust13" class="cluster">
<title>cluster_func_1_bb_10</title>
<path fill="#a5b592" stroke="#000000" stroke-width="2" d="M2249,-16C2249,-16 2373,-16 2373,-16 2379,-16 2385,-22 2385,-28 2385,-28 2385,-245 2385,-245 2385,-251 2379,-257 2373,-257 2373,-257 2249,-257 2249,-257 2243,-257 2237,-251 2237,-245 2237,-245 2237,-28 2237,-28 2237,-22 2243,-16 2249,-16"/>
<text text-anchor="middle" x="2311" y="-241" font-family="SF Pro Text Bold 10" font-size="15.00">label %27</text>
<text text-anchor="middle" x="2311" y="-224" font-family="SF Pro Text Bold 10" font-size="15.00">count=1</text>
</g>
<!-- node_0 -->
<g id="node1" class="node">
<title>node_0</title>
<path fill="#6d95df" stroke="#000000" d="M895,-3307C895,-3307 865,-3307 865,-3307 859,-3307 853,-3301 853,-3295 853,-3295 853,-3283 853,-3283 853,-3277 859,-3271 865,-3271 865,-3271 895,-3271 895,-3271 901,-3271 907,-3277 907,-3283 907,-3283 907,-3295 907,-3295 907,-3301 901,-3307 895,-3307"/>
<text text-anchor="middle" x="880" y="-3285.5" font-family="SF Pro Text Bold 10" font-size="15.00" fill="#000000">icmp</text>
</g>
<!-- node_1 -->
<g id="node2" class="node">
<title>node_1</title>
<path fill="#6d95df" stroke="#000000" d="M895,-3149C895,-3149 865,-3149 865,-3149 859,-3149 853,-3143 853,-3137 853,-3137 853,-3125 853,-3125 853,-3119 859,-3113 865,-3113 865,-3113 895,-3113 895,-3113 901,-3113 907,-3119 907,-3125 907,-3125 907,-3137 907,-3137 907,-3143 901,-3149 895,-3149"/>
<text text-anchor="middle" x="880" y="-3127.5" font-family="SF Pro Text Bold 10" font-size="15.00" fill="#000000">br</text>
</g>
<!-- node_0&#45;&gt;node_1 -->
<g id="edge1" class="edge">
<title>node_0&#45;&gt;node_1</title>
<path fill="none" stroke="#ff3636" stroke-width="3" d="M880,-3270.71C880,-3243.77 880,-3191.54 880,-3159.42"/>
<polygon fill="#ff3636" stroke="#ff3636" stroke-width="3" points="883.5,-3159.37 880,-3149.37 876.5,-3159.37 883.5,-3159.37"/>
</g>
<!-- node_0&#45;&gt;node_1 -->
<g id="edge42" class="edge">
<title>node_0&#45;&gt;node_1</title>
<path fill="none" stroke="#00b3ff" stroke-width="2" d="M880.68,-3270.89C881.16,-3258 881.75,-3239.89 882,-3224 882.34,-3202.34 881.76,-3177.81 881.14,-3159.53"/>
<polygon fill="#00b3ff" stroke="#00b3ff" stroke-width="2" points="884.62,-3159.16 880.76,-3149.29 877.63,-3159.42 884.62,-3159.16"/>
<text text-anchor="middle" x="893.5" y="-3212" font-family="SF Pro Text Bold 10" font-size="15.00">%2</text>
</g>
<!-- node_2 -->
<g id="node5" class="node">
<title>node_2</title>
<path fill="#6d95df" stroke="#000000" d="M738,-2991C738,-2991 708,-2991 708,-2991 702,-2991 696,-2985 696,-2979 696,-2979 696,-2967 696,-2967 696,-2961 702,-2955 708,-2955 708,-2955 738,-2955 738,-2955 744,-2955 750,-2961 750,-2967 750,-2967 750,-2979 750,-2979 750,-2985 744,-2991 738,-2991"/>
<text text-anchor="middle" x="723" y="-2969.5" font-family="SF Pro Text Bold 10" font-size="15.00" fill="#000000">phi</text>
</g>
<!-- node_1&#45;&gt;node_2 -->
<g id="edge28" class="edge">
<title>node_1&#45;&gt;node_2</title>
<path fill="none" stroke="#ff8800" stroke-width="5" d="M852.77,-3127.44C816.9,-3122.45 754.97,-3107.92 726,-3066 713.06,-3047.28 713.59,-3020.92 716.6,-3001.21"/>
<polygon fill="#ff8800" stroke="#ff8800" stroke-width="5" points="720.92,-3001.93 718.41,-2991.31 712.31,-3000.36 720.92,-3001.93"/>
<text text-anchor="middle" x="731.5" y="-3054" font-family="SF Pro Text Bold 10" font-size="15.00">0</text>
</g>
<!-- node_1&#45;&gt;node_2 -->
<g id="edge49" class="edge">
<title>node_1&#45;&gt;node_2</title>
<path fill="none" stroke="#00b3ff" stroke-width="2" d="M860.64,-3112.98C846.39,-3100.29 826.67,-3082.39 810,-3066 787.51,-3043.88 762.89,-3017.65 745.61,-2998.87"/>
<polygon fill="#00b3ff" stroke="#00b3ff" stroke-width="2" points="748.01,-2996.32 738.67,-2991.31 742.85,-3001.05 748.01,-2996.32"/>
<text text-anchor="middle" x="836.5" y="-3054" font-family="SF Pro Text Bold 10" font-size="15.00">i64 %0</text>
</g>
<!-- node_3 -->
<g id="node6" class="node">
<title>node_3</title>
<path fill="#6d95df" stroke="#000000" d="M823,-2844C823,-2844 793,-2844 793,-2844 787,-2844 781,-2838 781,-2832 781,-2832 781,-2820 781,-2820 781,-2814 787,-2808 793,-2808 793,-2808 823,-2808 823,-2808 829,-2808 835,-2814 835,-2820 835,-2820 835,-2832 835,-2832 835,-2838 829,-2844 823,-2844"/>
<text text-anchor="middle" x="808" y="-2822.5" font-family="SF Pro Text Bold 10" font-size="15.00" fill="#000000">phi</text>
</g>
<!-- node_1&#45;&gt;node_3 -->
<g id="edge52" class="edge">
<title>node_1&#45;&gt;node_3</title>
<path fill="none" stroke="#00b3ff" stroke-width="2" d="M880.09,-3112.8C879.9,-3096.31 878.9,-3070.77 875,-3049 862.07,-2976.85 833.64,-2895.04 818.3,-2853.8"/>
<polygon fill="#00b3ff" stroke="#00b3ff" stroke-width="2" points="821.49,-2852.35 814.7,-2844.22 814.94,-2854.81 821.49,-2852.35"/>
<text text-anchor="middle" x="891.5" y="-2969.5" font-family="SF Pro Text Bold 10" font-size="15.00">i64 1</text>
</g>
<!-- node_8 -->
<g id="node13" class="node">
<title>node_8</title>
<path fill="#6d95df" stroke="#000000" d="M931,-2087C931,-2087 901,-2087 901,-2087 895,-2087 889,-2081 889,-2075 889,-2075 889,-2063 889,-2063 889,-2057 895,-2051 901,-2051 901,-2051 931,-2051 931,-2051 937,-2051 943,-2057 943,-2063 943,-2063 943,-2075 943,-2075 943,-2081 937,-2087 931,-2087"/>
<text text-anchor="middle" x="916" y="-2065.5" font-family="SF Pro Text Bold 10" font-size="15.00" fill="#000000">phi</text>
</g>
<!-- node_1&#45;&gt;node_8 -->
<g id="edge29" class="edge">
<title>node_1&#45;&gt;node_8</title>
<path fill="none" stroke="#ff8800" stroke-width="5" d="M901.34,-3112.8C931.51,-3086.4 983,-3032.74 983,-2974 983,-2974 983,-2974 983,-2226 983,-2176.85 954.57,-2125.54 934.75,-2095.74"/>
<polygon fill="#ff8800" stroke="#ff8800" stroke-width="5" points="938.17,-2092.99 928.92,-2087.21 930.95,-2097.93 938.17,-2092.99"/>
<text text-anchor="middle" x="988.5" y="-2602" font-family="SF Pro Text Bold 10" font-size="15.00">0</text>
</g>
<!-- node_1&#45;&gt;node_8 -->
<g id="edge60" class="edge">
<title>node_1&#45;&gt;node_8</title>
<path fill="none" stroke="#00b3ff" stroke-width="2" d="M907.15,-3121.28C958.33,-3102.94 1064,-3055.25 1064,-2974 1064,-2974 1064,-2974 1064,-2226 1064,-2161.17 995.9,-2112.51 952.09,-2087.92"/>
<polygon fill="#00b3ff" stroke="#00b3ff" stroke-width="2" points="953.6,-2084.75 943.15,-2083.04 950.25,-2090.9 953.6,-2084.75"/>
<text text-anchor="middle" x="1082.5" y="-2602" font-family="SF Pro Text Bold 10" font-size="15.00">i64 1</text>
</g>
<!-- node_37 -->
<g id="node3" class="node">
<title>node_37</title>
<path fill="#d66868" stroke="#000000" d="M982.5,-3454C982.5,-3454 937.5,-3454 937.5,-3454 931.5,-3454 925.5,-3448 925.5,-3442 925.5,-3442 925.5,-3430 925.5,-3430 925.5,-3424 931.5,-3418 937.5,-3418 937.5,-3418 982.5,-3418 982.5,-3418 988.5,-3418 994.5,-3424 994.5,-3430 994.5,-3430 994.5,-3442 994.5,-3442 994.5,-3448 988.5,-3454 982.5,-3454"/>
<text text-anchor="middle" x="960" y="-3432.5" font-family="SF Pro Text Bold 10" font-size="15.00" fill="#000000">i64 %0</text>
</g>
<!-- node_37&#45;&gt;node_0 -->
<g id="edge43" class="edge">
<title>node_37&#45;&gt;node_0</title>
<path fill="none" stroke="#00b3ff" stroke-width="2" d="M950.51,-3417.8C936.62,-3392.62 910.63,-3345.52 894.38,-3316.07"/>
<polygon fill="#00b3ff" stroke="#00b3ff" stroke-width="2" points="897.37,-3314.25 889.48,-3307.18 891.25,-3317.63 897.37,-3314.25"/>
<text text-anchor="middle" x="934" y="-3359" font-family="SF Pro Text Bold 10" font-size="15.00">%0</text>
</g>
<!-- node_38 -->
<g id="node4" class="node">
<title>node_38</title>
<path fill="#d66868" stroke="#000000" d="M848,-3454C848,-3454 816,-3454 816,-3454 810,-3454 804,-3448 804,-3442 804,-3442 804,-3430 804,-3430 804,-3424 810,-3418 816,-3418 816,-3418 848,-3418 848,-3418 854,-3418 860,-3424 860,-3430 860,-3430 860,-3442 860,-3442 860,-3448 854,-3454 848,-3454"/>
<text text-anchor="middle" x="832" y="-3432.5" font-family="SF Pro Text Bold 10" font-size="15.00" fill="#000000">i64 2</text>
</g>
<!-- node_38&#45;&gt;node_0 -->
<g id="edge44" class="edge">
<title>node_38&#45;&gt;node_0</title>
<path fill="none" stroke="#00b3ff" stroke-width="2" d="M837.69,-3417.8C845.96,-3392.83 861.35,-3346.34 871.11,-3316.84"/>
<polygon fill="#00b3ff" stroke="#00b3ff" stroke-width="2" points="874.49,-3317.77 874.31,-3307.18 867.85,-3315.57 874.49,-3317.77"/>
</g>
<!-- node_2&#45;&gt;node_3 -->
<g id="edge2" class="edge">
<title>node_2&#45;&gt;node_3</title>
<path fill="none" stroke="#ff3636" stroke-width="3" d="M733.08,-2954.8C747.85,-2929.62 775.45,-2882.52 792.72,-2853.07"/>
<polygon fill="#ff3636" stroke="#ff3636" stroke-width="3" points="795.89,-2854.58 797.93,-2844.18 789.85,-2851.04 795.89,-2854.58"/>
</g>
<!-- node_4 -->
<g id="node7" class="node">
<title>node_4</title>
<path fill="#6d95df" stroke="#000000" d="M451,-2697C451,-2697 421,-2697 421,-2697 415,-2697 409,-2691 409,-2685 409,-2685 409,-2673 409,-2673 409,-2667 415,-2661 421,-2661 421,-2661 451,-2661 451,-2661 457,-2661 463,-2667 463,-2673 463,-2673 463,-2685 463,-2685 463,-2691 457,-2697 451,-2697"/>
<text text-anchor="middle" x="436" y="-2675.5" font-family="SF Pro Text Bold 10" font-size="15.00" fill="#000000">add</text>
</g>
<!-- node_2&#45;&gt;node_4 -->
<g id="edge46" class="edge">
<title>node_2&#45;&gt;node_4</title>
<path fill="none" stroke="#00b3ff" stroke-width="2" d="M711.33,-2954.69C689.97,-2923.61 642.32,-2857.02 594,-2808 554.19,-2767.61 502.12,-2727.51 468.86,-2703.24"/>
<polygon fill="#00b3ff" stroke="#00b3ff" stroke-width="2" points="470.57,-2700.15 460.42,-2697.12 466.46,-2705.82 470.57,-2700.15"/>
<text text-anchor="middle" x="639" y="-2822.5" font-family="SF Pro Text Bold 10" font-size="15.00">%4</text>
</g>
<!-- node_5 -->
<g id="node8" class="node">
<title>node_5</title>
<path fill="#6d95df" stroke="#000000" d="M451,-2539C451,-2539 421,-2539 421,-2539 415,-2539 409,-2533 409,-2527 409,-2527 409,-2515 409,-2515 409,-2509 415,-2503 421,-2503 421,-2503 451,-2503 451,-2503 457,-2503 463,-2509 463,-2515 463,-2515 463,-2527 463,-2527 463,-2533 457,-2539 451,-2539"/>
<text text-anchor="middle" x="436" y="-2517.5" font-family="SF Pro Text Bold 10" font-size="15.00" fill="#000000">mul</text>
</g>
<!-- node_2&#45;&gt;node_5 -->
<g id="edge47" class="edge">
<title>node_2&#45;&gt;node_5</title>
<path fill="none" stroke="#00b3ff" stroke-width="2" d="M695.62,-2969.7C648.06,-2964.71 548.32,-2949.74 476,-2908 441.43,-2888.05 434.09,-2877.88 413,-2844 369.15,-2773.56 359.21,-2742.26 376,-2661 384.56,-2619.55 406.09,-2575.26 420.89,-2548.09"/>
<polygon fill="#00b3ff" stroke="#00b3ff" stroke-width="2" points="424.01,-2549.67 425.81,-2539.23 417.89,-2546.27 424.01,-2549.67"/>
<text text-anchor="middle" x="385" y="-2749" font-family="SF Pro Text Bold 10" font-size="15.00">%4</text>
</g>
<!-- node_6 -->
<g id="node9" class="node">
<title>node_6</title>
<path fill="#6d95df" stroke="#000000" d="M135,-2392C135,-2392 105,-2392 105,-2392 99,-2392 93,-2386 93,-2380 93,-2380 93,-2368 93,-2368 93,-2362 99,-2356 105,-2356 105,-2356 135,-2356 135,-2356 141,-2356 147,-2362 147,-2368 147,-2368 147,-2380 147,-2380 147,-2386 141,-2392 135,-2392"/>
<text text-anchor="middle" x="120" y="-2370.5" font-family="SF Pro Text Bold 10" font-size="15.00" fill="#000000">icmp</text>
</g>
<!-- node_2&#45;&gt;node_6 -->
<g id="edge45" class="edge">
<title>node_2&#45;&gt;node_6</title>
<path fill="none" stroke="#00b3ff" stroke-width="2" d="M695.83,-2970.54C593.2,-2964.8 233.07,-2942.32 196,-2908 121.21,-2838.77 118.69,-2500.71 119.59,-2402.07"/>
<polygon fill="#00b3ff" stroke="#00b3ff" stroke-width="2" points="123.09,-2402.05 119.7,-2392.01 116.09,-2401.97 123.09,-2402.05"/>
<text text-anchor="middle" x="145" y="-2675.5" font-family="SF Pro Text Bold 10" font-size="15.00">%4</text>
</g>
<!-- node_3&#45;&gt;node_4 -->
<g id="edge3" class="edge">
<title>node_3&#45;&gt;node_4</title>
<path fill="none" stroke="#ff3636" stroke-width="3" d="M780.96,-2819.93C746.49,-2812.29 686.62,-2794.97 647,-2761 640.35,-2755.29 643.85,-2749.47 637,-2744 611.43,-2723.59 523.63,-2700.49 472.93,-2688.4"/>
<polygon fill="#ff3636" stroke="#ff3636" stroke-width="3" points="473.54,-2684.95 463.01,-2686.06 471.94,-2691.76 473.54,-2684.95"/>
</g>
<!-- node_3&#45;&gt;node_5 -->
<g id="edge50" class="edge">
<title>node_3&#45;&gt;node_5</title>
<path fill="none" stroke="#00b3ff" stroke-width="2" d="M785.18,-2807.94C752.93,-2783.72 692.35,-2737.76 642,-2697 576.96,-2644.35 502.58,-2580.14 463.43,-2546.02"/>
<polygon fill="#00b3ff" stroke="#00b3ff" stroke-width="2" points="465.46,-2543.15 455.62,-2539.21 460.86,-2548.42 465.46,-2543.15"/>
<text text-anchor="middle" x="653.5" y="-2675.5" font-family="SF Pro Text Bold 10" font-size="15.00">%5</text>
</g>
<!-- node_4&#45;&gt;node_2 -->
<g id="edge53" class="edge">
<title>node_4&#45;&gt;node_2</title>
<path fill="none" stroke="#00b3ff" stroke-width="2" d="M431.5,-2697.12C424.17,-2729.08 413.34,-2798.66 444,-2844 499.88,-2926.62 623.19,-2956.85 685.46,-2967.13"/>
<polygon fill="#00b3ff" stroke="#00b3ff" stroke-width="2" points="685.21,-2970.64 695.63,-2968.73 686.29,-2963.72 685.21,-2970.64"/>
<text text-anchor="middle" x="456" y="-2822.5" font-family="SF Pro Text Bold 10" font-size="15.00">%6</text>
</g>
<!-- node_4&#45;&gt;node_5 -->
<g id="edge4" class="edge">
<title>node_4&#45;&gt;node_5</title>
<path fill="none" stroke="#ff3636" stroke-width="3" d="M436,-2660.71C436,-2633.77 436,-2581.54 436,-2549.42"/>
<polygon fill="#ff3636" stroke="#ff3636" stroke-width="3" points="439.5,-2549.37 436,-2539.37 432.5,-2549.37 439.5,-2549.37"/>
</g>
<!-- node_5&#45;&gt;node_3 -->
<g id="edge56" class="edge">
<title>node_5&#45;&gt;node_3</title>
<path fill="none" stroke="#00b3ff" stroke-width="2" d="M463.03,-2533.52C509.92,-2554.34 607.95,-2601.65 677,-2661 725.71,-2702.86 769.44,-2764.82 791.96,-2799.36"/>
<polygon fill="#00b3ff" stroke="#00b3ff" stroke-width="2" points="789.12,-2801.41 797.48,-2807.93 795.01,-2797.62 789.12,-2801.41"/>
<text text-anchor="middle" x="724" y="-2675.5" font-family="SF Pro Text Bold 10" font-size="15.00">%7</text>
</g>
<!-- node_5&#45;&gt;node_6 -->
<g id="edge5" class="edge">
<title>node_5&#45;&gt;node_6</title>
<path fill="none" stroke="#ff3636" stroke-width="3" d="M408.78,-2507.51C351.97,-2481.44 220.71,-2421.21 156.59,-2391.79"/>
<polygon fill="#ff3636" stroke="#ff3636" stroke-width="3" points="157.81,-2388.5 147.26,-2387.51 154.89,-2394.86 157.81,-2388.5"/>
</g>
<!-- node_5&#45;&gt;node_8 -->
<g id="edge55" class="edge">
<title>node_5&#45;&gt;node_8</title>
<path fill="none" stroke="#00b3ff" stroke-width="2" d="M463.01,-2514.05C536.4,-2496.45 741.09,-2437.64 847,-2309 898.95,-2245.9 911.8,-2145.47 914.97,-2097.4"/>
<polygon fill="#00b3ff" stroke="#00b3ff" stroke-width="2" points="918.48,-2097.34 915.55,-2087.16 911.49,-2096.94 918.48,-2097.34"/>
<text text-anchor="middle" x="870" y="-2297" font-family="SF Pro Text Bold 10" font-size="15.00">%7</text>
</g>
<!-- node_7 -->
<g id="node10" class="node">
<title>node_7</title>
<path fill="#6d95df" stroke="#000000" d="M228,-2245C228,-2245 198,-2245 198,-2245 192,-2245 186,-2239 186,-2233 186,-2233 186,-2221 186,-2221 186,-2215 192,-2209 198,-2209 198,-2209 228,-2209 228,-2209 234,-2209 240,-2215 240,-2221 240,-2221 240,-2233 240,-2233 240,-2239 234,-2245 228,-2245"/>
<text text-anchor="middle" x="213" y="-2223.5" font-family="SF Pro Text Bold 10" font-size="15.00" fill="#000000">br</text>
</g>
<!-- node_6&#45;&gt;node_7 -->
<g id="edge6" class="edge">
<title>node_6&#45;&gt;node_7</title>
<path fill="none" stroke="#ff3636" stroke-width="3" d="M136.02,-2355.93C147.19,-2343.5 162.01,-2325.95 173,-2309 184.23,-2291.67 194.49,-2270.74 201.81,-2254.5"/>
<polygon fill="#ff3636" stroke="#ff3636" stroke-width="3" points="205.14,-2255.62 205.97,-2245.06 198.73,-2252.8 205.14,-2255.62"/>
</g>
<!-- node_6&#45;&gt;node_7 -->
<g id="edge57" class="edge">
<title>node_6&#45;&gt;node_7</title>
<path fill="none" stroke="#00b3ff" stroke-width="2" d="M119.27,-2355.68C119.32,-2338.41 121.53,-2311.69 133,-2292 143.5,-2273.98 161.17,-2259.03 177.24,-2248.13"/>
<polygon fill="#00b3ff" stroke="#00b3ff" stroke-width="2" points="179.45,-2250.87 185.94,-2242.5 175.65,-2244.99 179.45,-2250.87"/>
<text text-anchor="middle" x="145" y="-2297" font-family="SF Pro Text Bold 10" font-size="15.00">%8</text>
</g>
<!-- node_7&#45;&gt;node_2 -->
<g id="edge27" class="edge">
<title>node_7&#45;&gt;node_2</title>
<path fill="none" stroke="#ff8800" stroke-width="5" d="M213,-2245.41C213,-2272.63 213,-2326.93 213,-2373 213,-2827 213,-2827 213,-2827 213,-2925.3 567.99,-2960.51 685.63,-2969.47"/>
<polygon fill="#ff8800" stroke="#ff8800" stroke-width="5" points="685.64,-2973.86 695.94,-2970.24 686.29,-2965.13 685.64,-2973.86"/>
<text text-anchor="middle" x="218.5" y="-2602" font-family="SF Pro Text Bold 10" font-size="15.00">0</text>
</g>
<!-- node_7&#45;&gt;node_2 -->
<g id="edge48" class="edge">
<title>node_7&#45;&gt;node_2</title>
<path fill="none" stroke="#00b3ff" stroke-width="2" d="M240.01,-2233.39C328.27,-2252.38 611.01,-2324.52 760,-2495 913.49,-2670.64 892.8,-2789.03 868,-2844 845.82,-2893.17 794.38,-2931.03 759.13,-2952.42"/>
<polygon fill="#00b3ff" stroke="#00b3ff" stroke-width="2" points="756.93,-2949.65 750.11,-2957.75 760.5,-2955.68 756.93,-2949.65"/>
<text text-anchor="middle" x="869.5" y="-2602" font-family="SF Pro Text Bold 10" font-size="15.00">i64 %6</text>
</g>
<!-- node_7&#45;&gt;node_3 -->
<g id="edge51" class="edge">
<title>node_7&#45;&gt;node_3</title>
<path fill="none" stroke="#00b3ff" stroke-width="2" d="M240.06,-2242.37C327.2,-2289.98 603.39,-2451.5 751,-2661 780.92,-2703.47 796.39,-2763.09 803.3,-2797.51"/>
<polygon fill="#00b3ff" stroke="#00b3ff" stroke-width="2" points="799.95,-2798.59 805.26,-2807.75 806.82,-2797.27 799.95,-2798.59"/>
<text text-anchor="middle" x="718" y="-2517.5" font-family="SF Pro Text Bold 10" font-size="15.00">i64 %7</text>
</g>
<!-- node_7&#45;&gt;node_8 -->
<g id="edge30" class="edge">
<title>node_7&#45;&gt;node_8</title>
<path fill="none" stroke="#ff8800" stroke-width="5" d="M240.13,-2219.98C348.98,-2195.83 754.18,-2105.91 879.1,-2078.19"/>
<polygon fill="#ff8800" stroke="#ff8800" stroke-width="5" points="880.14,-2082.44 888.95,-2076 878.24,-2073.9 880.14,-2082.44"/>
<text text-anchor="middle" x="570.5" y="-2150" font-family="SF Pro Text Bold 10" font-size="15.00">0</text>
</g>
<!-- node_7&#45;&gt;node_8 -->
<g id="edge61" class="edge">
<title>node_7&#45;&gt;node_8</title>
<path fill="none" stroke="#00b3ff" stroke-width="2" d="M240.31,-2222.43C302.93,-2214.03 461.49,-2191.46 592,-2162 697.41,-2138.21 819.48,-2100.82 879.22,-2081.87"/>
<polygon fill="#00b3ff" stroke="#00b3ff" stroke-width="2" points="880.48,-2085.14 888.95,-2078.77 878.36,-2078.47 880.48,-2085.14"/>
<text text-anchor="middle" x="681" y="-2150" font-family="SF Pro Text Bold 10" font-size="15.00">i64 %7</text>
</g>
<!-- node_39 -->
<g id="node11" class="node">
<title>node_39</title>
<path fill="#d66868" stroke="#000000" d="M549.5,-2844C549.5,-2844 512.5,-2844 512.5,-2844 506.5,-2844 500.5,-2838 500.5,-2832 500.5,-2832 500.5,-2820 500.5,-2820 500.5,-2814 506.5,-2808 512.5,-2808 512.5,-2808 549.5,-2808 549.5,-2808 555.5,-2808 561.5,-2814 561.5,-2820 561.5,-2820 561.5,-2832 561.5,-2832 561.5,-2838 555.5,-2844 549.5,-2844"/>
<text text-anchor="middle" x="531" y="-2822.5" font-family="SF Pro Text Bold 10" font-size="15.00" fill="#000000">i64 &#45;1</text>
</g>
<!-- node_39&#45;&gt;node_4 -->
<g id="edge54" class="edge">
<title>node_39&#45;&gt;node_4</title>
<path fill="none" stroke="#00b3ff" stroke-width="2" d="M519.73,-2807.8C503.16,-2782.51 472.11,-2735.11 452.83,-2705.69"/>
<polygon fill="#00b3ff" stroke="#00b3ff" stroke-width="2" points="455.66,-2703.63 447.26,-2697.18 449.81,-2707.46 455.66,-2703.63"/>
</g>
<!-- node_40 -->
<g id="node12" class="node">
<title>node_40</title>
<path fill="#d66868" stroke="#000000" d="M68,-2539C68,-2539 36,-2539 36,-2539 30,-2539 24,-2533 24,-2527 24,-2527 24,-2515 24,-2515 24,-2509 30,-2503 36,-2503 36,-2503 68,-2503 68,-2503 74,-2503 80,-2509 80,-2515 80,-2515 80,-2527 80,-2527 80,-2533 74,-2539 68,-2539"/>
<text text-anchor="middle" x="52" y="-2517.5" font-family="SF Pro Text Bold 10" font-size="15.00" fill="#000000">i64 3</text>
</g>
<!-- node_40&#45;&gt;node_6 -->
<g id="edge58" class="edge">
<title>node_40&#45;&gt;node_6</title>
<path fill="none" stroke="#00b3ff" stroke-width="2" d="M60.07,-2502.8C71.83,-2477.72 93.77,-2430.93 107.59,-2401.46"/>
<polygon fill="#00b3ff" stroke="#00b3ff" stroke-width="2" points="110.87,-2402.72 111.94,-2392.18 104.53,-2399.75 110.87,-2402.72"/>
</g>
<!-- node_9 -->
<g id="node14" class="node">
<title>node_9</title>
<path fill="#6d95df" stroke="#000000" d="M931,-1940C931,-1940 901,-1940 901,-1940 895,-1940 889,-1934 889,-1928 889,-1928 889,-1916 889,-1916 889,-1910 895,-1904 901,-1904 901,-1904 931,-1904 931,-1904 937,-1904 943,-1910 943,-1916 943,-1916 943,-1928 943,-1928 943,-1934 937,-1940 931,-1940"/>
<text text-anchor="middle" x="916" y="-1918.5" font-family="SF Pro Text Bold 10" font-size="15.00" fill="#000000">ret</text>
</g>
<!-- node_8&#45;&gt;node_9 -->
<g id="edge7" class="edge">
<title>node_8&#45;&gt;node_9</title>
<path fill="none" stroke="#ff3636" stroke-width="3" d="M916,-2050.8C916,-2025.94 916,-1979.74 916,-1950.23"/>
<polygon fill="#ff3636" stroke="#ff3636" stroke-width="3" points="919.5,-1950.18 916,-1940.18 912.5,-1950.18 919.5,-1950.18"/>
</g>
<!-- node_8&#45;&gt;node_9 -->
<g id="edge59" class="edge">
<title>node_8&#45;&gt;node_9</title>
<path fill="none" stroke="#00b3ff" stroke-width="2" d="M916.68,-2050.89C917.16,-2038 917.75,-2019.89 918,-2004 918.28,-1986.06 917.78,-1965.89 917.22,-1950.16"/>
<polygon fill="#00b3ff" stroke="#00b3ff" stroke-width="2" points="920.71,-1949.92 916.82,-1940.06 913.72,-1950.19 920.71,-1949.92"/>
<text text-anchor="middle" x="933.5" y="-1992" font-family="SF Pro Text Bold 10" font-size="15.00">%10</text>
</g>
<!-- node_10 -->
<g id="node15" class="node">
<title>node_10</title>
<path fill="#6d95df" stroke="#000000" d="M2777,-3307C2777,-3307 2747,-3307 2747,-3307 2741,-3307 2735,-3301 2735,-3295 2735,-3295 2735,-3283 2735,-3283 2735,-3277 2741,-3271 2747,-3271 2747,-3271 2777,-3271 2777,-3271 2783,-3271 2789,-3277 2789,-3283 2789,-3283 2789,-3295 2789,-3295 2789,-3301 2783,-3307 2777,-3307"/>
<text text-anchor="middle" x="2762" y="-3285.5" font-family="SF Pro Text Bold 10" font-size="15.00" fill="#000000">icmp</text>
</g>
<!-- node_11 -->
<g id="node16" class="node">
<title>node_11</title>
<path fill="#6d95df" stroke="#000000" d="M2777,-3149C2777,-3149 2747,-3149 2747,-3149 2741,-3149 2735,-3143 2735,-3137 2735,-3137 2735,-3125 2735,-3125 2735,-3119 2741,-3113 2747,-3113 2747,-3113 2777,-3113 2777,-3113 2783,-3113 2789,-3119 2789,-3125 2789,-3125 2789,-3137 2789,-3137 2789,-3143 2783,-3149 2777,-3149"/>
<text text-anchor="middle" x="2762" y="-3127.5" font-family="SF Pro Text Bold 10" font-size="15.00" fill="#000000">br</text>
</g>
<!-- node_10&#45;&gt;node_11 -->
<g id="edge8" class="edge">
<title>node_10&#45;&gt;node_11</title>
<path fill="none" stroke="#ff3636" stroke-width="3" d="M2762,-3270.71C2762,-3243.77 2762,-3191.54 2762,-3159.42"/>
<polygon fill="#ff3636" stroke="#ff3636" stroke-width="3" points="2765.5,-3159.37 2762,-3149.37 2758.5,-3159.37 2765.5,-3159.37"/>
</g>
<!-- node_10&#45;&gt;node_11 -->
<g id="edge62" class="edge">
<title>node_10&#45;&gt;node_11</title>
<path fill="none" stroke="#00b3ff" stroke-width="2" d="M2762.68,-3270.89C2763.16,-3258 2763.75,-3239.89 2764,-3224 2764.34,-3202.34 2763.76,-3177.81 2763.14,-3159.53"/>
<polygon fill="#00b3ff" stroke="#00b3ff" stroke-width="2" points="2766.62,-3159.16 2762.76,-3149.29 2759.63,-3159.42 2766.62,-3159.16"/>
<text text-anchor="middle" x="2775.5" y="-3212" font-family="SF Pro Text Bold 10" font-size="15.00">%3</text>
</g>
<!-- node_12 -->
<g id="node19" class="node">
<title>node_12</title>
<path fill="#6d95df" stroke="#000000" d="M2777,-496C2777,-496 2747,-496 2747,-496 2741,-496 2735,-490 2735,-484 2735,-484 2735,-472 2735,-472 2735,-466 2741,-460 2747,-460 2747,-460 2777,-460 2777,-460 2783,-460 2789,-466 2789,-472 2789,-472 2789,-484 2789,-484 2789,-490 2783,-496 2777,-496"/>
<text text-anchor="middle" x="2762" y="-474.5" font-family="SF Pro Text Bold 10" font-size="15.00" fill="#000000">call</text>
</g>
<!-- node_11&#45;&gt;node_12 -->
<g id="edge31" class="edge">
<title>node_11&#45;&gt;node_12</title>
<path fill="none" stroke="#ff8800" stroke-width="5" d="M2762,-3112.69C2762,-3083.9 2762,-3024.38 2762,-2974 2762,-2974 2762,-2974 2762,-624 2762,-583.15 2762,-535.83 2762,-506.65"/>
<polygon fill="#ff8800" stroke="#ff8800" stroke-width="5" points="2766.38,-506.41 2762,-496.41 2757.63,-506.41 2766.38,-506.41"/>
<text text-anchor="middle" x="2767.5" y="-1787.5" font-family="SF Pro Text Bold 10" font-size="15.00">0</text>
</g>
<!-- node_14 -->
<g id="node23" class="node">
<title>node_14</title>
<path fill="#6d95df" stroke="#000000" d="M2684,-2991C2684,-2991 2654,-2991 2654,-2991 2648,-2991 2642,-2985 2642,-2979 2642,-2979 2642,-2967 2642,-2967 2642,-2961 2648,-2955 2654,-2955 2654,-2955 2684,-2955 2684,-2955 2690,-2955 2696,-2961 2696,-2967 2696,-2967 2696,-2979 2696,-2979 2696,-2985 2690,-2991 2684,-2991"/>
<text text-anchor="middle" x="2669" y="-2969.5" font-family="SF Pro Text Bold 10" font-size="15.00" fill="#000000">call</text>
</g>
<!-- node_11&#45;&gt;node_14 -->
<g id="edge32" class="edge">
<title>node_11&#45;&gt;node_14</title>
<path fill="none" stroke="#ff8800" stroke-width="5" d="M2751.69,-3112.71C2735.42,-3085.42 2703.68,-3032.17 2684.61,-3000.18"/>
<polygon fill="#ff8800" stroke="#ff8800" stroke-width="5" points="2688.23,-2997.72 2679.35,-2991.37 2680.72,-3002.2 2688.23,-2997.72"/>
<text text-anchor="middle" x="2727" y="-3054" font-family="SF Pro Text Bold 10" font-size="15.00">1</text>
</g>
<!-- node_41 -->
<g id="node17" class="node">
<title>node_41</title>
<path fill="#d66868" stroke="#000000" d="M2895,-3454C2895,-3454 2851,-3454 2851,-3454 2845,-3454 2839,-3448 2839,-3442 2839,-3442 2839,-3430 2839,-3430 2839,-3424 2845,-3418 2851,-3418 2851,-3418 2895,-3418 2895,-3418 2901,-3418 2907,-3424 2907,-3430 2907,-3430 2907,-3442 2907,-3442 2907,-3448 2901,-3454 2895,-3454"/>
<text text-anchor="middle" x="2873" y="-3432.5" font-family="SF Pro Text Bold 10" font-size="15.00" fill="#000000">i32 %0</text>
</g>
<!-- node_41&#45;&gt;node_10 -->
<g id="edge63" class="edge">
<title>node_41&#45;&gt;node_10</title>
<path fill="none" stroke="#00b3ff" stroke-width="2" d="M2859.83,-3417.8C2840.39,-3392.4 2803.88,-3344.71 2781.38,-3315.31"/>
<polygon fill="#00b3ff" stroke="#00b3ff" stroke-width="2" points="2784.01,-3312.99 2775.15,-3307.18 2778.45,-3317.25 2784.01,-3312.99"/>
<text text-anchor="middle" x="2832" y="-3359" font-family="SF Pro Text Bold 10" font-size="15.00">%0</text>
</g>
<!-- node_42 -->
<g id="node18" class="node">
<title>node_42</title>
<path fill="#d66868" stroke="#000000" d="M2762,-3454C2762,-3454 2732,-3454 2732,-3454 2726,-3454 2720,-3448 2720,-3442 2720,-3442 2720,-3430 2720,-3430 2720,-3424 2726,-3418 2732,-3418 2732,-3418 2762,-3418 2762,-3418 2768,-3418 2774,-3424 2774,-3430 2774,-3430 2774,-3442 2774,-3442 2774,-3448 2768,-3454 2762,-3454"/>
<text text-anchor="middle" x="2747" y="-3432.5" font-family="SF Pro Text Bold 10" font-size="15.00" fill="#000000">i32 2</text>
</g>
<!-- node_42&#45;&gt;node_10 -->
<g id="edge64" class="edge">
<title>node_42&#45;&gt;node_10</title>
<path fill="none" stroke="#00b3ff" stroke-width="2" d="M2748.78,-3417.8C2751.35,-3392.94 2756.13,-3346.74 2759.18,-3317.23"/>
<polygon fill="#00b3ff" stroke="#00b3ff" stroke-width="2" points="2762.68,-3317.49 2760.22,-3307.18 2755.71,-3316.77 2762.68,-3317.49"/>
</g>
<!-- node_13 -->
<g id="node20" class="node">
<title>node_13</title>
<path fill="#6d95df" stroke="#000000" d="M2474,-365C2474,-365 2444,-365 2444,-365 2438,-365 2432,-359 2432,-353 2432,-353 2432,-341 2432,-341 2432,-335 2438,-329 2444,-329 2444,-329 2474,-329 2474,-329 2480,-329 2486,-335 2486,-341 2486,-341 2486,-353 2486,-353 2486,-359 2480,-365 2474,-365"/>
<text text-anchor="middle" x="2459" y="-343.5" font-family="SF Pro Text Bold 10" font-size="15.00" fill="#000000">br</text>
</g>
<!-- node_12&#45;&gt;node_13 -->
<g id="edge9" class="edge">
<title>node_12&#45;&gt;node_13</title>
<path fill="none" stroke="#ff3636" stroke-width="3" d="M2734.84,-465.44C2680.24,-442.19 2557.14,-389.78 2495.54,-363.56"/>
<polygon fill="#ff3636" stroke="#ff3636" stroke-width="3" points="2496.78,-360.28 2486.2,-359.58 2494.03,-366.72 2496.78,-360.28"/>
</g>
<!-- node_35 -->
<g id="node56" class="node">
<title>node_35</title>
<path fill="#6d95df" stroke="#000000" d="M2287,-207C2287,-207 2257,-207 2257,-207 2251,-207 2245,-201 2245,-195 2245,-195 2245,-183 2245,-183 2245,-177 2251,-171 2257,-171 2257,-171 2287,-171 2287,-171 2293,-171 2299,-177 2299,-183 2299,-183 2299,-195 2299,-195 2299,-201 2293,-207 2287,-207"/>
<text text-anchor="middle" x="2272" y="-185.5" font-family="SF Pro Text Bold 10" font-size="15.00" fill="#000000">phi</text>
</g>
<!-- node_13&#45;&gt;node_35 -->
<g id="edge39" class="edge">
<title>node_13&#45;&gt;node_35</title>
<path fill="none" stroke="#ff8800" stroke-width="5" d="M2438.27,-328.71C2404.77,-300.76 2338.63,-245.58 2300.64,-213.9"/>
<polygon fill="#ff8800" stroke="#ff8800" stroke-width="5" points="2303.02,-210.18 2292.53,-207.13 2297.41,-216.9 2303.02,-210.18"/>
<text text-anchor="middle" x="2387.5" y="-270" font-family="SF Pro Text Bold 10" font-size="15.00">0</text>
</g>
<!-- node_13&#45;&gt;node_35 -->
<g id="edge105" class="edge">
<title>node_13&#45;&gt;node_35</title>
<path fill="none" stroke="#00b3ff" stroke-width="2" d="M2451.58,-328.71C2443.28,-310.97 2428.42,-283.43 2409,-265 2379.76,-237.24 2338.27,-216.43 2308.62,-203.86"/>
<polygon fill="#00b3ff" stroke="#00b3ff" stroke-width="2" points="2309.63,-200.49 2299.06,-199.91 2306.96,-206.96 2309.63,-200.49"/>
<text text-anchor="middle" x="2440" y="-270" font-family="SF Pro Text Bold 10" font-size="15.00">i32 1</text>
</g>
<!-- node_43 -->
<g id="node21" class="node">
<title>node_43</title>
<path fill="#d66868" stroke="#000000" d="M2684,-643C2684,-643 2616,-643 2616,-643 2610,-643 2604,-637 2604,-631 2604,-631 2604,-619 2604,-619 2604,-613 2610,-607 2616,-607 2616,-607 2684,-607 2684,-607 2690,-607 2696,-613 2696,-619 2696,-619 2696,-631 2696,-631 2696,-637 2690,-643 2684,-643"/>
<text text-anchor="middle" x="2650" y="-621.5" font-family="SF Pro Text Bold 10" font-size="15.00" fill="#000000">ptr @str.2</text>
</g>
<!-- node_43&#45;&gt;node_12 -->
<g id="edge65" class="edge">
<title>node_43&#45;&gt;node_12</title>
<path fill="none" stroke="#00b3ff" stroke-width="2" d="M2663.29,-606.8C2682.91,-581.4 2719.74,-533.71 2742.45,-504.31"/>
<polygon fill="#00b3ff" stroke="#00b3ff" stroke-width="2" points="2745.39,-506.23 2748.73,-496.18 2739.85,-501.95 2745.39,-506.23"/>
</g>
<!-- node_44 -->
<g id="node22" class="node">
<title>node_44</title>
<path fill="#d66868" stroke="#000000" d="M2526.5,-643C2526.5,-643 2459.5,-643 2459.5,-643 2453.5,-643 2447.5,-637 2447.5,-631 2447.5,-631 2447.5,-619 2447.5,-619 2447.5,-613 2453.5,-607 2459.5,-607 2459.5,-607 2526.5,-607 2526.5,-607 2532.5,-607 2538.5,-613 2538.5,-619 2538.5,-619 2538.5,-631 2538.5,-631 2538.5,-637 2532.5,-643 2526.5,-643"/>
<text text-anchor="middle" x="2493" y="-621.5" font-family="SF Pro Text Bold 10" font-size="15.00" fill="#000000">ptr @puts</text>
</g>
<!-- node_44&#45;&gt;node_12 -->
<g id="edge66" class="edge">
<title>node_44&#45;&gt;node_12</title>
<path fill="none" stroke="#00b3ff" stroke-width="2" d="M2524.65,-606.94C2574.96,-579.82 2672.89,-527.03 2725.88,-498.47"/>
<polygon fill="#00b3ff" stroke="#00b3ff" stroke-width="2" points="2727.77,-501.43 2734.91,-493.6 2724.45,-495.26 2727.77,-501.43"/>
</g>
<!-- node_15 -->
<g id="node24" class="node">
<title>node_15</title>
<path fill="#6d95df" stroke="#000000" d="M2599,-2844C2599,-2844 2569,-2844 2569,-2844 2563,-2844 2557,-2838 2557,-2832 2557,-2832 2557,-2820 2557,-2820 2557,-2814 2563,-2808 2569,-2808 2569,-2808 2599,-2808 2599,-2808 2605,-2808 2611,-2814 2611,-2820 2611,-2820 2611,-2832 2611,-2832 2611,-2838 2605,-2844 2599,-2844"/>
<text text-anchor="middle" x="2584" y="-2822.5" font-family="SF Pro Text Bold 10" font-size="15.00" fill="#000000">load</text>
</g>
<!-- node_14&#45;&gt;node_15 -->
<g id="edge10" class="edge">
<title>node_14&#45;&gt;node_15</title>
<path fill="none" stroke="#ff3636" stroke-width="3" d="M2641.71,-2957.74C2623.68,-2946.74 2601.37,-2929.74 2590,-2908 2581.42,-2891.6 2580.06,-2870.73 2580.77,-2854.27"/>
<polygon fill="#ff3636" stroke="#ff3636" stroke-width="3" points="2584.27,-2854.42 2581.49,-2844.19 2577.29,-2853.92 2584.27,-2854.42"/>
</g>
<!-- node_14&#45;&gt;node_15 -->
<g id="edge67" class="edge">
<title>node_14&#45;&gt;node_15</title>
<path fill="none" stroke="#00b3ff" stroke-width="2" d="M2658.92,-2954.8C2644.15,-2929.62 2616.55,-2882.52 2599.28,-2853.07"/>
<polygon fill="#00b3ff" stroke="#00b3ff" stroke-width="2" points="2602.15,-2851.04 2594.07,-2844.18 2596.11,-2854.58 2602.15,-2851.04"/>
<text text-anchor="middle" x="2640" y="-2896" font-family="SF Pro Text Bold 10" font-size="15.00">%7</text>
</g>
<!-- node_16 -->
<g id="node25" class="node">
<title>node_16</title>
<path fill="#6d95df" stroke="#000000" d="M2473,-2697C2473,-2697 2443,-2697 2443,-2697 2437,-2697 2431,-2691 2431,-2685 2431,-2685 2431,-2673 2431,-2673 2431,-2667 2437,-2661 2443,-2661 2443,-2661 2473,-2661 2473,-2661 2479,-2661 2485,-2667 2485,-2673 2485,-2673 2485,-2685 2485,-2685 2485,-2691 2479,-2697 2473,-2697"/>
<text text-anchor="middle" x="2458" y="-2675.5" font-family="SF Pro Text Bold 10" font-size="15.00" fill="#000000">icmp</text>
</g>
<!-- node_15&#45;&gt;node_16 -->
<g id="edge11" class="edge">
<title>node_15&#45;&gt;node_16</title>
<path fill="none" stroke="#ff3636" stroke-width="3" d="M2556.61,-2810.77C2537.04,-2799.46 2511.23,-2782.08 2494,-2761 2481.01,-2745.12 2471.79,-2723.81 2465.93,-2707.03"/>
<polygon fill="#ff3636" stroke="#ff3636" stroke-width="3" points="2469.17,-2705.67 2462.71,-2697.26 2462.52,-2707.85 2469.17,-2705.67"/>
</g>
<!-- node_15&#45;&gt;node_16 -->
<g id="edge69" class="edge">
<title>node_15&#45;&gt;node_16</title>
<path fill="none" stroke="#00b3ff" stroke-width="2" d="M2569.05,-2807.8C2546.89,-2782.29 2505.18,-2734.3 2479.67,-2704.93"/>
<polygon fill="#00b3ff" stroke="#00b3ff" stroke-width="2" points="2482.13,-2702.43 2472.93,-2697.18 2476.85,-2707.02 2482.13,-2702.43"/>
<text text-anchor="middle" x="2536" y="-2749" font-family="SF Pro Text Bold 10" font-size="15.00">%8</text>
</g>
<!-- node_17 -->
<g id="node26" class="node">
<title>node_17</title>
<path fill="#6d95df" stroke="#000000" d="M2396,-2539C2396,-2539 2366,-2539 2366,-2539 2360,-2539 2354,-2533 2354,-2527 2354,-2527 2354,-2515 2354,-2515 2354,-2509 2360,-2503 2366,-2503 2366,-2503 2396,-2503 2396,-2503 2402,-2503 2408,-2509 2408,-2515 2408,-2515 2408,-2527 2408,-2527 2408,-2533 2402,-2539 2396,-2539"/>
<text text-anchor="middle" x="2381" y="-2517.5" font-family="SF Pro Text Bold 10" font-size="15.00" fill="#000000">br</text>
</g>
<!-- node_16&#45;&gt;node_17 -->
<g id="edge12" class="edge">
<title>node_16&#45;&gt;node_17</title>
<path fill="none" stroke="#ff3636" stroke-width="3" d="M2430.98,-2661C2415.55,-2649.7 2397.44,-2633.4 2388,-2614 2378.23,-2593.92 2377.02,-2568.43 2377.95,-2549.37"/>
<polygon fill="#ff3636" stroke="#ff3636" stroke-width="3" points="2381.45,-2549.48 2378.67,-2539.25 2374.47,-2548.98 2381.45,-2549.48"/>
</g>
<!-- node_16&#45;&gt;node_17 -->
<g id="edge70" class="edge">
<title>node_16&#45;&gt;node_17</title>
<path fill="none" stroke="#00b3ff" stroke-width="2" d="M2449.47,-2660.71C2436.05,-2633.53 2409.94,-2580.63 2394.12,-2548.59"/>
<polygon fill="#00b3ff" stroke="#00b3ff" stroke-width="2" points="2397.14,-2546.79 2389.57,-2539.37 2390.86,-2549.88 2397.14,-2546.79"/>
<text text-anchor="middle" x="2438" y="-2602" font-family="SF Pro Text Bold 10" font-size="15.00">%9</text>
</g>
<!-- node_18 -->
<g id="node29" class="node">
<title>node_18</title>
<path fill="#6d95df" stroke="#000000" d="M2302.5,-2392C2302.5,-2392 2201.5,-2392 2201.5,-2392 2195.5,-2392 2189.5,-2386 2189.5,-2380 2189.5,-2380 2189.5,-2368 2189.5,-2368 2189.5,-2362 2195.5,-2356 2201.5,-2356 2201.5,-2356 2302.5,-2356 2302.5,-2356 2308.5,-2356 2314.5,-2362 2314.5,-2368 2314.5,-2368 2314.5,-2380 2314.5,-2380 2314.5,-2386 2308.5,-2392 2302.5,-2392"/>
<text text-anchor="middle" x="2252" y="-2370.5" font-family="SF Pro Text Bold 10" font-size="15.00" fill="#000000">getelementptr</text>
</g>
<!-- node_17&#45;&gt;node_18 -->
<g id="edge33" class="edge">
<title>node_17&#45;&gt;node_18</title>
<path fill="none" stroke="#ff8800" stroke-width="5" d="M2365.7,-2502.8C2343,-2477.29 2300.3,-2429.3 2274.18,-2399.93"/>
<polygon fill="#ff8800" stroke="#ff8800" stroke-width="5" points="2277.2,-2396.74 2267.28,-2392.18 2270.66,-2402.56 2277.2,-2396.74"/>
<text text-anchor="middle" x="2324" y="-2444" font-family="SF Pro Text Bold 10" font-size="15.00">1</text>
</g>
<!-- node_33 -->
<g id="node52" class="node">
<title>node_33</title>
<path fill="#6d95df" stroke="#000000" d="M2396,-496C2396,-496 2366,-496 2366,-496 2360,-496 2354,-490 2354,-484 2354,-484 2354,-472 2354,-472 2354,-466 2360,-460 2366,-460 2366,-460 2396,-460 2396,-460 2402,-460 2408,-466 2408,-472 2408,-472 2408,-484 2408,-484 2408,-490 2402,-496 2396,-496"/>
<text text-anchor="middle" x="2381" y="-474.5" font-family="SF Pro Text Bold 10" font-size="15.00" fill="#000000">call</text>
</g>
<!-- node_17&#45;&gt;node_33 -->
<g id="edge38" class="edge">
<title>node_17&#45;&gt;node_33</title>
<path fill="none" stroke="#ff8800" stroke-width="5" d="M2381,-2502.59C2381,-2475.37 2381,-2421.07 2381,-2375 2381,-2375 2381,-2375 2381,-624 2381,-583.15 2381,-535.83 2381,-506.65"/>
<polygon fill="#ff8800" stroke="#ff8800" stroke-width="5" points="2385.38,-506.41 2381,-496.41 2376.63,-506.41 2385.38,-506.41"/>
<text text-anchor="middle" x="2386.5" y="-1482.5" font-family="SF Pro Text Bold 10" font-size="15.00">0</text>
</g>
<!-- node_45 -->
<g id="node27" class="node">
<title>node_45</title>
<path fill="#d66868" stroke="#000000" d="M2657.5,-3149C2657.5,-3149 2502.5,-3149 2502.5,-3149 2496.5,-3149 2490.5,-3143 2490.5,-3137 2490.5,-3137 2490.5,-3125 2490.5,-3125 2490.5,-3119 2496.5,-3113 2502.5,-3113 2502.5,-3113 2657.5,-3113 2657.5,-3113 2663.5,-3113 2669.5,-3119 2669.5,-3125 2669.5,-3125 2669.5,-3137 2669.5,-3137 2669.5,-3143 2663.5,-3149 2657.5,-3149"/>
<text text-anchor="middle" x="2580" y="-3127.5" font-family="SF Pro Text Bold 10" font-size="15.00" fill="#000000">ptr @__errno_location</text>
</g>
<!-- node_45&#45;&gt;node_14 -->
<g id="edge68" class="edge">
<title>node_45&#45;&gt;node_14</title>
<path fill="none" stroke="#00b3ff" stroke-width="2" d="M2589.86,-3112.71C2605.44,-3085.42 2635.81,-3032.17 2654.07,-3000.18"/>
<polygon fill="#00b3ff" stroke="#00b3ff" stroke-width="2" points="2657.18,-3001.79 2659.09,-2991.37 2651.1,-2998.32 2657.18,-3001.79"/>
</g>
<!-- node_46 -->
<g id="node28" class="node">
<title>node_46</title>
<path fill="#d66868" stroke="#000000" d="M2473.5,-2844C2473.5,-2844 2442.5,-2844 2442.5,-2844 2436.5,-2844 2430.5,-2838 2430.5,-2832 2430.5,-2832 2430.5,-2820 2430.5,-2820 2430.5,-2814 2436.5,-2808 2442.5,-2808 2442.5,-2808 2473.5,-2808 2473.5,-2808 2479.5,-2808 2485.5,-2814 2485.5,-2820 2485.5,-2820 2485.5,-2832 2485.5,-2832 2485.5,-2838 2479.5,-2844 2473.5,-2844"/>
<text text-anchor="middle" x="2458" y="-2822.5" font-family="SF Pro Text Bold 10" font-size="15.00" fill="#000000">i32 0</text>
</g>
<!-- node_46&#45;&gt;node_16 -->
<g id="edge71" class="edge">
<title>node_46&#45;&gt;node_16</title>
<path fill="none" stroke="#00b3ff" stroke-width="2" d="M2458,-2807.8C2458,-2782.94 2458,-2736.74 2458,-2707.23"/>
<polygon fill="#00b3ff" stroke="#00b3ff" stroke-width="2" points="2461.5,-2707.18 2458,-2697.18 2454.5,-2707.18 2461.5,-2707.18"/>
</g>
<!-- node_19 -->
<g id="node30" class="node">
<title>node_19</title>
<path fill="#6d95df" stroke="#000000" d="M2231,-2245C2231,-2245 2201,-2245 2201,-2245 2195,-2245 2189,-2239 2189,-2233 2189,-2233 2189,-2221 2189,-2221 2189,-2215 2195,-2209 2201,-2209 2201,-2209 2231,-2209 2231,-2209 2237,-2209 2243,-2215 2243,-2221 2243,-2221 2243,-2233 2243,-2233 2243,-2239 2237,-2245 2231,-2245"/>
<text text-anchor="middle" x="2216" y="-2223.5" font-family="SF Pro Text Bold 10" font-size="15.00" fill="#000000">load</text>
</g>
<!-- node_18&#45;&gt;node_19 -->
<g id="edge13" class="edge">
<title>node_18&#45;&gt;node_19</title>
<path fill="none" stroke="#ff3636" stroke-width="3" d="M2241.37,-2355.79C2234.24,-2343.29 2225.38,-2325.72 2221,-2309 2216.41,-2291.5 2215.17,-2271.19 2215.07,-2255.28"/>
<polygon fill="#ff3636" stroke="#ff3636" stroke-width="3" points="2218.57,-2255.08 2215.16,-2245.06 2211.57,-2255.03 2218.57,-2255.08"/>
</g>
<!-- node_18&#45;&gt;node_19 -->
<g id="edge72" class="edge">
<title>node_18&#45;&gt;node_19</title>
<path fill="none" stroke="#00b3ff" stroke-width="2" d="M2247.73,-2355.8C2241.56,-2330.94 2230.09,-2284.74 2222.76,-2255.23"/>
<polygon fill="#00b3ff" stroke="#00b3ff" stroke-width="2" points="2226.07,-2254.04 2220.27,-2245.18 2219.28,-2255.73 2226.07,-2254.04"/>
<text text-anchor="middle" x="2249" y="-2297" font-family="SF Pro Text Bold 10" font-size="15.00">%11</text>
</g>
<!-- node_20 -->
<g id="node31" class="node">
<title>node_20</title>
<path fill="#6d95df" stroke="#000000" d="M2186,-2087C2186,-2087 2156,-2087 2156,-2087 2150,-2087 2144,-2081 2144,-2075 2144,-2075 2144,-2063 2144,-2063 2144,-2057 2150,-2051 2156,-2051 2156,-2051 2186,-2051 2186,-2051 2192,-2051 2198,-2057 2198,-2063 2198,-2063 2198,-2075 2198,-2075 2198,-2081 2192,-2087 2186,-2087"/>
<text text-anchor="middle" x="2171" y="-2065.5" font-family="SF Pro Text Bold 10" font-size="15.00" fill="#000000">call</text>
</g>
<!-- node_19&#45;&gt;node_20 -->
<g id="edge14" class="edge">
<title>node_19&#45;&gt;node_20</title>
<path fill="none" stroke="#ff3636" stroke-width="3" d="M2202.01,-2209C2192.81,-2196.74 2181.49,-2179.36 2176,-2162 2169.34,-2140.96 2168.41,-2115.89 2168.96,-2097.23"/>
<polygon fill="#ff3636" stroke="#ff3636" stroke-width="3" points="2172.47,-2097.22 2169.43,-2087.07 2165.47,-2096.9 2172.47,-2097.22"/>
</g>
<!-- node_19&#45;&gt;node_20 -->
<g id="edge75" class="edge">
<title>node_19&#45;&gt;node_20</title>
<path fill="none" stroke="#00b3ff" stroke-width="2" d="M2211.01,-2208.71C2203.21,-2181.65 2188.04,-2129.09 2178.79,-2097.01"/>
<polygon fill="#00b3ff" stroke="#00b3ff" stroke-width="2" points="2182.14,-2096.01 2176.01,-2087.37 2175.42,-2097.95 2182.14,-2096.01"/>
<text text-anchor="middle" x="2212.5" y="-2150" font-family="SF Pro Text Bold 10" font-size="15.00">%12</text>
</g>
<!-- node_21 -->
<g id="node32" class="node">
<title>node_21</title>
<path fill="#6d95df" stroke="#000000" d="M2142,-1940C2142,-1940 2112,-1940 2112,-1940 2106,-1940 2100,-1934 2100,-1928 2100,-1928 2100,-1916 2100,-1916 2100,-1910 2106,-1904 2112,-1904 2112,-1904 2142,-1904 2142,-1904 2148,-1904 2154,-1910 2154,-1916 2154,-1916 2154,-1928 2154,-1928 2154,-1934 2148,-1940 2142,-1940"/>
<text text-anchor="middle" x="2127" y="-1918.5" font-family="SF Pro Text Bold 10" font-size="15.00" fill="#000000">sext</text>
</g>
<!-- node_20&#45;&gt;node_21 -->
<g id="edge15" class="edge">
<title>node_20&#45;&gt;node_21</title>
<path fill="none" stroke="#ff3636" stroke-width="3" d="M2157.41,-2050.93C2148.45,-2038.64 2137.42,-2021.25 2132,-2004 2126.58,-1986.74 2125.34,-1966.43 2125.45,-1950.46"/>
<polygon fill="#ff3636" stroke="#ff3636" stroke-width="3" points="2128.95,-1950.27 2125.7,-1940.19 2121.95,-1950.1 2128.95,-1950.27"/>
</g>
<!-- node_20&#45;&gt;node_21 -->
<g id="edge77" class="edge">
<title>node_20&#45;&gt;node_21</title>
<path fill="none" stroke="#00b3ff" stroke-width="2" d="M2165.78,-2050.8C2158.2,-2025.83 2144.1,-1979.34 2135.14,-1949.84"/>
<polygon fill="#00b3ff" stroke="#00b3ff" stroke-width="2" points="2138.47,-1948.73 2132.21,-1940.18 2131.77,-1950.77 2138.47,-1948.73"/>
<text text-anchor="middle" x="2165.5" y="-1992" font-family="SF Pro Text Bold 10" font-size="15.00">%13</text>
</g>
<!-- node_22 -->
<g id="node33" class="node">
<title>node_22</title>
<path fill="#6d95df" stroke="#000000" d="M2102,-1809C2102,-1809 2072,-1809 2072,-1809 2066,-1809 2060,-1803 2060,-1797 2060,-1797 2060,-1785 2060,-1785 2060,-1779 2066,-1773 2072,-1773 2072,-1773 2102,-1773 2102,-1773 2108,-1773 2114,-1779 2114,-1785 2114,-1785 2114,-1797 2114,-1797 2114,-1803 2108,-1809 2102,-1809"/>
<text text-anchor="middle" x="2087" y="-1787.5" font-family="SF Pro Text Bold 10" font-size="15.00" fill="#000000">icmp</text>
</g>
<!-- node_20&#45;&gt;node_22 -->
<g id="edge76" class="edge">
<title>node_20&#45;&gt;node_22</title>
<path fill="none" stroke="#00b3ff" stroke-width="2" d="M2180.06,-2050.91C2186.2,-2038.33 2193.76,-2020.6 2197,-2004 2203.69,-1969.74 2212.08,-1939.5 2187,-1888 2172.36,-1857.94 2144.15,-1832.23 2121.42,-1815.01"/>
<polygon fill="#00b3ff" stroke="#00b3ff" stroke-width="2" points="2123.46,-1812.16 2113.33,-1809.05 2119.31,-1817.8 2123.46,-1812.16"/>
<text text-anchor="middle" x="2218.5" y="-1918.5" font-family="SF Pro Text Bold 10" font-size="15.00">%13</text>
</g>
<!-- node_21&#45;&gt;node_22 -->
<g id="edge16" class="edge">
<title>node_21&#45;&gt;node_22</title>
<path fill="none" stroke="#ff3636" stroke-width="3" d="M2121.69,-1903.87C2114.96,-1882.18 2103.3,-1844.58 2095.38,-1819.01"/>
<polygon fill="#ff3636" stroke="#ff3636" stroke-width="3" points="2098.64,-1817.72 2092.33,-1809.2 2091.95,-1819.79 2098.64,-1817.72"/>
</g>
<!-- node_24 -->
<g id="node39" class="node">
<title>node_24</title>
<path fill="#6d95df" stroke="#000000" d="M2031,-1504C2031,-1504 2001,-1504 2001,-1504 1995,-1504 1989,-1498 1989,-1492 1989,-1492 1989,-1480 1989,-1480 1989,-1474 1995,-1468 2001,-1468 2001,-1468 2031,-1468 2031,-1468 2037,-1468 2043,-1474 2043,-1480 2043,-1480 2043,-1492 2043,-1492 2043,-1498 2037,-1504 2031,-1504"/>
<text text-anchor="middle" x="2016" y="-1482.5" font-family="SF Pro Text Bold 10" font-size="15.00" fill="#000000">phi</text>
</g>
<!-- node_21&#45;&gt;node_24 -->
<g id="edge79" class="edge">
<title>node_21&#45;&gt;node_24</title>
<path fill="none" stroke="#00b3ff" stroke-width="2" d="M2133.12,-1903.98C2142.23,-1876.29 2157.22,-1819.86 2147,-1773 2124.69,-1670.74 2062.37,-1561.3 2032.44,-1512.74"/>
<polygon fill="#00b3ff" stroke="#00b3ff" stroke-width="2" points="2035.34,-1510.77 2027.08,-1504.13 2029.4,-1514.47 2035.34,-1510.77"/>
<text text-anchor="middle" x="2149.5" y="-1714" font-family="SF Pro Text Bold 10" font-size="15.00">%14</text>
</g>
<!-- node_31 -->
<g id="node48" class="node">
<title>node_31</title>
<path fill="#6d95df" stroke="#000000" d="M1967,-496C1967,-496 1937,-496 1937,-496 1931,-496 1925,-490 1925,-484 1925,-484 1925,-472 1925,-472 1925,-466 1931,-460 1937,-460 1937,-460 1967,-460 1967,-460 1973,-460 1979,-466 1979,-472 1979,-472 1979,-484 1979,-484 1979,-490 1973,-496 1967,-496"/>
<text text-anchor="middle" x="1952" y="-474.5" font-family="SF Pro Text Bold 10" font-size="15.00" fill="#000000">call</text>
</g>
<!-- node_21&#45;&gt;node_31 -->
<g id="edge80" class="edge">
<title>node_21&#45;&gt;node_31</title>
<path fill="none" stroke="#00b3ff" stroke-width="2" d="M2101.6,-1903.84C2091.54,-1897.86 2079.63,-1891.72 2068,-1888 1974.52,-1858.11 1190,-1890.14 1190,-1792 1190,-1792 1190,-1792 1190,-1280.5 1190,-1183.19 1176,-1159.31 1176,-1062 1176,-1062 1176,-1062 1176,-624 1176,-547.96 1759.16,-494.79 1914.41,-481.98"/>
<polygon fill="#00b3ff" stroke="#00b3ff" stroke-width="2" points="1915.16,-485.43 1924.84,-481.13 1914.58,-478.46 1915.16,-485.43"/>
<text text-anchor="middle" x="1203.5" y="-1204.5" font-family="SF Pro Text Bold 10" font-size="15.00">%14</text>
</g>
<!-- node_23 -->
<g id="node34" class="node">
<title>node_23</title>
<path fill="#6d95df" stroke="#000000" d="M2031,-1662C2031,-1662 2001,-1662 2001,-1662 1995,-1662 1989,-1656 1989,-1650 1989,-1650 1989,-1638 1989,-1638 1989,-1632 1995,-1626 2001,-1626 2001,-1626 2031,-1626 2031,-1626 2037,-1626 2043,-1632 2043,-1638 2043,-1638 2043,-1650 2043,-1650 2043,-1656 2037,-1662 2031,-1662"/>
<text text-anchor="middle" x="2016" y="-1640.5" font-family="SF Pro Text Bold 10" font-size="15.00" fill="#000000">br</text>
</g>
<!-- node_22&#45;&gt;node_23 -->
<g id="edge17" class="edge">
<title>node_22&#45;&gt;node_23</title>
<path fill="none" stroke="#ff3636" stroke-width="3" d="M2061.74,-1772.97C2047.08,-1761.56 2029.81,-1745.14 2021,-1726 2013.32,-1709.31 2012.17,-1688.6 2012.88,-1672.3"/>
<polygon fill="#ff3636" stroke="#ff3636" stroke-width="3" points="2016.38,-1672.53 2013.58,-1662.31 2009.39,-1672.04 2016.38,-1672.53"/>
</g>
<!-- node_22&#45;&gt;node_23 -->
<g id="edge81" class="edge">
<title>node_22&#45;&gt;node_23</title>
<path fill="none" stroke="#00b3ff" stroke-width="2" d="M2078.58,-1772.8C2066.3,-1747.72 2043.39,-1700.93 2028.95,-1671.46"/>
<polygon fill="#00b3ff" stroke="#00b3ff" stroke-width="2" points="2031.95,-1669.62 2024.41,-1662.18 2025.67,-1672.7 2031.95,-1669.62"/>
<text text-anchor="middle" x="2068.5" y="-1714" font-family="SF Pro Text Bold 10" font-size="15.00">%15</text>
</g>
<!-- node_23&#45;&gt;node_24 -->
<g id="edge35" class="edge">
<title>node_23&#45;&gt;node_24</title>
<path fill="none" stroke="#ff8800" stroke-width="5" d="M2016,-1625.71C2016,-1598.77 2016,-1546.54 2016,-1514.42"/>
<polygon fill="#ff8800" stroke="#ff8800" stroke-width="5" points="2020.38,-1514.37 2016,-1504.37 2011.63,-1514.37 2020.38,-1514.37"/>
<text text-anchor="middle" x="2020" y="-1567" font-family="SF Pro Text Bold 10" font-size="15.00">1</text>
</g>
<!-- node_23&#45;&gt;node_24 -->
<g id="edge87" class="edge">
<title>node_23&#45;&gt;node_24</title>
<path fill="none" stroke="#00b3ff" stroke-width="2" d="M1988.52,-1630.49C1961.71,-1616.31 1926.63,-1591.32 1939,-1562 1947.71,-1541.36 1965.19,-1523.58 1981.29,-1510.52"/>
<polygon fill="#00b3ff" stroke="#00b3ff" stroke-width="2" points="1983.78,-1513.02 1989.54,-1504.13 1979.49,-1507.49 1983.78,-1513.02"/>
<text text-anchor="middle" x="1969.5" y="-1567" font-family="SF Pro Text Bold 10" font-size="15.00">i64 %14</text>
</g>
<!-- node_25 -->
<g id="node40" class="node">
<title>node_25</title>
<path fill="#6d95df" stroke="#000000" d="M1499,-1373C1499,-1373 1469,-1373 1469,-1373 1463,-1373 1457,-1367 1457,-1361 1457,-1361 1457,-1349 1457,-1349 1457,-1343 1463,-1337 1469,-1337 1469,-1337 1499,-1337 1499,-1337 1505,-1337 1511,-1343 1511,-1349 1511,-1349 1511,-1361 1511,-1361 1511,-1367 1505,-1373 1499,-1373"/>
<text text-anchor="middle" x="1484" y="-1351.5" font-family="SF Pro Text Bold 10" font-size="15.00" fill="#000000">phi</text>
</g>
<!-- node_23&#45;&gt;node_25 -->
<g id="edge90" class="edge">
<title>node_23&#45;&gt;node_25</title>
<path fill="none" stroke="#00b3ff" stroke-width="2" d="M1988.89,-1628.37C1900.39,-1580.63 1619.94,-1429.33 1519.89,-1375.36"/>
<polygon fill="#00b3ff" stroke="#00b3ff" stroke-width="2" points="1521.52,-1372.27 1511.06,-1370.6 1518.2,-1378.43 1521.52,-1372.27"/>
<text text-anchor="middle" x="1867.5" y="-1482.5" font-family="SF Pro Text Bold 10" font-size="15.00">i64 1</text>
</g>
<!-- node_30 -->
<g id="node47" class="node">
<title>node_30</title>
<path fill="#6d95df" stroke="#000000" d="M1967,-643C1967,-643 1937,-643 1937,-643 1931,-643 1925,-637 1925,-631 1925,-631 1925,-619 1925,-619 1925,-613 1931,-607 1937,-607 1937,-607 1967,-607 1967,-607 1973,-607 1979,-613 1979,-619 1979,-619 1979,-631 1979,-631 1979,-637 1973,-643 1967,-643"/>
<text text-anchor="middle" x="1952" y="-621.5" font-family="SF Pro Text Bold 10" font-size="15.00" fill="#000000">phi</text>
</g>
<!-- node_23&#45;&gt;node_30 -->
<g id="edge36" class="edge">
<title>node_23&#45;&gt;node_30</title>
<path fill="none" stroke="#ff8800" stroke-width="5" d="M1988.98,-1642.1C1882.96,-1638.12 1496.38,-1619.3 1396,-1554 1366.54,-1534.84 1354,-1522.14 1354,-1487 1354,-1487 1354,-1487 1354,-782 1354,-760.28 1375.56,-764.37 1396,-757 1547.5,-702.38 1593.86,-718.09 1754,-701 1784.77,-697.72 1865.18,-706.55 1893,-693 1911.4,-684.04 1926.52,-666.49 1936.85,-651.6"/>
<polygon fill="#ff8800" stroke="#ff8800" stroke-width="5" points="1940.52,-653.98 1942.36,-643.22 1933.21,-649.17 1940.52,-653.98"/>
<text text-anchor="middle" x="1359.5" y="-1131" font-family="SF Pro Text Bold 10" font-size="15.00">0</text>
</g>
<!-- node_23&#45;&gt;node_30 -->
<g id="edge98" class="edge">
<title>node_23&#45;&gt;node_30</title>
<path fill="none" stroke="#00b3ff" stroke-width="2" d="M1988.75,-1643.1C1856.41,-1642.88 1287,-1633.42 1287,-1487 1287,-1487 1287,-1487 1287,-1280.5 1287,-1215.32 1247.51,-1207.15 1236,-1143 1231.83,-1119.74 1247,-1077.21 1247,-1062 1247,-1062 1247,-1062 1247,-782 1247,-656.15 1852.88,-711.67 1893,-693 1911.68,-684.31 1926.87,-666.58 1937.15,-651.55"/>
<polygon fill="#00b3ff" stroke="#00b3ff" stroke-width="2" points="1940.13,-653.39 1942.63,-643.09 1934.26,-649.58 1940.13,-653.39"/>
<text text-anchor="middle" x="1254.5" y="-1131" font-family="SF Pro Text Bold 10" font-size="15.00">i64 1</text>
</g>
<!-- node_47 -->
<g id="node35" class="node">
<title>node_47</title>
<path fill="#d66868" stroke="#000000" d="M2275.5,-2539C2275.5,-2539 2236.5,-2539 2236.5,-2539 2230.5,-2539 2224.5,-2533 2224.5,-2527 2224.5,-2527 2224.5,-2515 2224.5,-2515 2224.5,-2509 2230.5,-2503 2236.5,-2503 2236.5,-2503 2275.5,-2503 2275.5,-2503 2281.5,-2503 2287.5,-2509 2287.5,-2515 2287.5,-2515 2287.5,-2527 2287.5,-2527 2287.5,-2533 2281.5,-2539 2275.5,-2539"/>
<text text-anchor="middle" x="2256" y="-2517.5" font-family="SF Pro Text Bold 10" font-size="15.00" fill="#000000">ptr %1</text>
</g>
<!-- node_47&#45;&gt;node_18 -->
<g id="edge73" class="edge">
<title>node_47&#45;&gt;node_18</title>
<path fill="none" stroke="#00b3ff" stroke-width="2" d="M2255.53,-2502.8C2254.84,-2477.94 2253.57,-2431.74 2252.75,-2402.23"/>
<polygon fill="#00b3ff" stroke="#00b3ff" stroke-width="2" points="2256.25,-2402.08 2252.47,-2392.18 2249.25,-2402.27 2256.25,-2402.08"/>
<text text-anchor="middle" x="2264.5" y="-2444" font-family="SF Pro Text Bold 10" font-size="15.00">%1</text>
</g>
<!-- node_48 -->
<g id="node36" class="node">
<title>node_48</title>
<path fill="#d66868" stroke="#000000" d="M2147,-2539C2147,-2539 2117,-2539 2117,-2539 2111,-2539 2105,-2533 2105,-2527 2105,-2527 2105,-2515 2105,-2515 2105,-2509 2111,-2503 2117,-2503 2117,-2503 2147,-2503 2147,-2503 2153,-2503 2159,-2509 2159,-2515 2159,-2515 2159,-2527 2159,-2527 2159,-2533 2153,-2539 2147,-2539"/>
<text text-anchor="middle" x="2132" y="-2517.5" font-family="SF Pro Text Bold 10" font-size="15.00" fill="#000000">i64 1</text>
</g>
<!-- node_48&#45;&gt;node_18 -->
<g id="edge74" class="edge">
<title>node_48&#45;&gt;node_18</title>
<path fill="none" stroke="#00b3ff" stroke-width="2" d="M2146.24,-2502.8C2167.35,-2477.29 2207.07,-2429.3 2231.37,-2399.93"/>
<polygon fill="#00b3ff" stroke="#00b3ff" stroke-width="2" points="2234.1,-2402.12 2237.78,-2392.18 2228.71,-2397.65 2234.1,-2402.12"/>
</g>
<!-- node_49 -->
<g id="node37" class="node">
<title>node_49</title>
<path fill="#d66868" stroke="#000000" d="M2112,-2245C2112,-2245 2050,-2245 2050,-2245 2044,-2245 2038,-2239 2038,-2233 2038,-2233 2038,-2221 2038,-2221 2038,-2215 2044,-2209 2050,-2209 2050,-2209 2112,-2209 2112,-2209 2118,-2209 2124,-2215 2124,-2221 2124,-2221 2124,-2233 2124,-2233 2124,-2239 2118,-2245 2112,-2245"/>
<text text-anchor="middle" x="2081" y="-2223.5" font-family="SF Pro Text Bold 10" font-size="15.00" fill="#000000">ptr @atoi</text>
</g>
<!-- node_49&#45;&gt;node_20 -->
<g id="edge78" class="edge">
<title>node_49&#45;&gt;node_20</title>
<path fill="none" stroke="#00b3ff" stroke-width="2" d="M2090.98,-2208.71C2106.72,-2181.42 2137.44,-2128.17 2155.9,-2096.18"/>
<polygon fill="#00b3ff" stroke="#00b3ff" stroke-width="2" points="2159.01,-2097.78 2160.98,-2087.37 2152.95,-2094.28 2159.01,-2097.78"/>
</g>
<!-- node_50 -->
<g id="node38" class="node">
<title>node_50</title>
<path fill="#d66868" stroke="#000000" d="M2023,-1940C2023,-1940 1993,-1940 1993,-1940 1987,-1940 1981,-1934 1981,-1928 1981,-1928 1981,-1916 1981,-1916 1981,-1910 1987,-1904 1993,-1904 1993,-1904 2023,-1904 2023,-1904 2029,-1904 2035,-1910 2035,-1916 2035,-1916 2035,-1928 2035,-1928 2035,-1934 2029,-1940 2023,-1940"/>
<text text-anchor="middle" x="2008" y="-1918.5" font-family="SF Pro Text Bold 10" font-size="15.00" fill="#000000">i32 2</text>
</g>
<!-- node_50&#45;&gt;node_22 -->
<g id="edge82" class="edge">
<title>node_50&#45;&gt;node_22</title>
<path fill="none" stroke="#00b3ff" stroke-width="2" d="M2018.49,-1903.87C2031.95,-1881.9 2055.42,-1843.57 2071.08,-1817.99"/>
<polygon fill="#00b3ff" stroke="#00b3ff" stroke-width="2" points="2074.23,-1819.56 2076.47,-1809.2 2068.26,-1815.9 2074.23,-1819.56"/>
</g>
<!-- node_24&#45;&gt;node_25 -->
<g id="edge18" class="edge">
<title>node_24&#45;&gt;node_25</title>
<path fill="none" stroke="#ff3636" stroke-width="3" d="M1988.76,-1478.97C1916.2,-1462.81 1712.31,-1416.79 1544,-1373 1536.5,-1371.05 1528.49,-1368.86 1520.86,-1366.71"/>
<polygon fill="#ff3636" stroke="#ff3636" stroke-width="3" points="1521.69,-1363.31 1511.11,-1363.95 1519.78,-1370.05 1521.69,-1363.31"/>
</g>
<!-- node_26 -->
<g id="node41" class="node">
<title>node_26</title>
<path fill="#6d95df" stroke="#000000" d="M1854,-1226C1854,-1226 1824,-1226 1824,-1226 1818,-1226 1812,-1220 1812,-1214 1812,-1214 1812,-1202 1812,-1202 1812,-1196 1818,-1190 1824,-1190 1824,-1190 1854,-1190 1854,-1190 1860,-1190 1866,-1196 1866,-1202 1866,-1202 1866,-1214 1866,-1214 1866,-1220 1860,-1226 1854,-1226"/>
<text text-anchor="middle" x="1839" y="-1204.5" font-family="SF Pro Text Bold 10" font-size="15.00" fill="#000000">add</text>
</g>
<!-- node_24&#45;&gt;node_26 -->
<g id="edge85" class="edge">
<title>node_24&#45;&gt;node_26</title>
<path fill="none" stroke="#00b3ff" stroke-width="2" d="M2004.93,-1467.73C1974.82,-1420.78 1891.31,-1290.57 1855.57,-1234.85"/>
<polygon fill="#00b3ff" stroke="#00b3ff" stroke-width="2" points="1858.41,-1232.79 1850.07,-1226.26 1852.52,-1236.57 1858.41,-1232.79"/>
<text text-anchor="middle" x="1958" y="-1351.5" font-family="SF Pro Text Bold 10" font-size="15.00">%17</text>
</g>
<!-- node_27 -->
<g id="node42" class="node">
<title>node_27</title>
<path fill="#6d95df" stroke="#000000" d="M1854,-1079C1854,-1079 1824,-1079 1824,-1079 1818,-1079 1812,-1073 1812,-1067 1812,-1067 1812,-1055 1812,-1055 1812,-1049 1818,-1043 1824,-1043 1824,-1043 1854,-1043 1854,-1043 1860,-1043 1866,-1049 1866,-1055 1866,-1055 1866,-1067 1866,-1067 1866,-1073 1860,-1079 1854,-1079"/>
<text text-anchor="middle" x="1839" y="-1057.5" font-family="SF Pro Text Bold 10" font-size="15.00" fill="#000000">mul</text>
</g>
<!-- node_24&#45;&gt;node_27 -->
<g id="edge84" class="edge">
<title>node_24&#45;&gt;node_27</title>
<path fill="none" stroke="#00b3ff" stroke-width="2" d="M2014.64,-1467.67C2012.04,-1439.56 2005.11,-1382.55 1989,-1337 1954.42,-1239.22 1888.12,-1134.51 1856.55,-1087.46"/>
<polygon fill="#00b3ff" stroke="#00b3ff" stroke-width="2" points="1859.39,-1085.42 1850.89,-1079.1 1853.6,-1089.34 1859.39,-1085.42"/>
<text text-anchor="middle" x="1984" y="-1278" font-family="SF Pro Text Bold 10" font-size="15.00">%17</text>
</g>
<!-- node_28 -->
<g id="node43" class="node">
<title>node_28</title>
<path fill="#6d95df" stroke="#000000" d="M1967,-948C1967,-948 1937,-948 1937,-948 1931,-948 1925,-942 1925,-936 1925,-936 1925,-924 1925,-924 1925,-918 1931,-912 1937,-912 1937,-912 1967,-912 1967,-912 1973,-912 1979,-918 1979,-924 1979,-924 1979,-936 1979,-936 1979,-942 1973,-948 1967,-948"/>
<text text-anchor="middle" x="1952" y="-926.5" font-family="SF Pro Text Bold 10" font-size="15.00" fill="#000000">icmp</text>
</g>
<!-- node_24&#45;&gt;node_28 -->
<g id="edge83" class="edge">
<title>node_24&#45;&gt;node_28</title>
<path fill="none" stroke="#00b3ff" stroke-width="2" d="M2019.61,-1467.67C2031.44,-1407.46 2065.72,-1202.33 2020,-1043 2010.64,-1010.38 1989.09,-977.74 1972.74,-956.18"/>
<polygon fill="#00b3ff" stroke="#00b3ff" stroke-width="2" points="1975.45,-953.96 1966.55,-948.21 1969.92,-958.25 1975.45,-953.96"/>
<text text-anchor="middle" x="2058" y="-1204.5" font-family="SF Pro Text Bold 10" font-size="15.00">%17</text>
</g>
<!-- node_25&#45;&gt;node_26 -->
<g id="edge19" class="edge">
<title>node_25&#45;&gt;node_26</title>
<path fill="none" stroke="#ff3636" stroke-width="3" d="M1511.15,-1346.19C1521.43,-1343.26 1533.24,-1339.94 1544,-1337 1623.35,-1315.34 1657.42,-1339.64 1723,-1290 1729.99,-1284.71 1726.84,-1279.23 1733,-1273 1752.97,-1252.8 1780.56,-1236.4 1802.59,-1225.27"/>
<polygon fill="#ff3636" stroke="#ff3636" stroke-width="3" points="1804.21,-1228.37 1811.65,-1220.82 1801.13,-1222.08 1804.21,-1228.37"/>
</g>
<!-- node_25&#45;&gt;node_27 -->
<g id="edge88" class="edge">
<title>node_25&#45;&gt;node_27</title>
<path fill="none" stroke="#00b3ff" stroke-width="2" d="M1493.4,-1336.91C1511.35,-1305.31 1553.01,-1236.72 1601,-1190 1660.56,-1132.01 1751.69,-1092.98 1802.15,-1074.44"/>
<polygon fill="#00b3ff" stroke="#00b3ff" stroke-width="2" points="1803.46,-1077.69 1811.68,-1071 1801.09,-1071.1 1803.46,-1077.69"/>
<text text-anchor="middle" x="1616.5" y="-1204.5" font-family="SF Pro Text Bold 10" font-size="15.00">%18</text>
</g>
<!-- node_26&#45;&gt;node_24 -->
<g id="edge91" class="edge">
<title>node_26&#45;&gt;node_24</title>
<path fill="none" stroke="#00b3ff" stroke-width="2" d="M1838.94,-1226.22C1839.6,-1257.73 1844.62,-1325.79 1874,-1373 1899.93,-1414.67 1947.13,-1447.21 1979.96,-1466.23"/>
<polygon fill="#00b3ff" stroke="#00b3ff" stroke-width="2" points="1978.39,-1469.36 1988.81,-1471.23 1981.83,-1463.27 1978.39,-1469.36"/>
<text text-anchor="middle" x="1889.5" y="-1351.5" font-family="SF Pro Text Bold 10" font-size="15.00">%19</text>
</g>
<!-- node_26&#45;&gt;node_27 -->
<g id="edge20" class="edge">
<title>node_26&#45;&gt;node_27</title>
<path fill="none" stroke="#ff3636" stroke-width="3" d="M1839,-1189.8C1839,-1164.94 1839,-1118.74 1839,-1089.23"/>
<polygon fill="#ff3636" stroke="#ff3636" stroke-width="3" points="1842.5,-1089.18 1839,-1079.18 1835.5,-1089.18 1842.5,-1089.18"/>
</g>
<!-- node_27&#45;&gt;node_25 -->
<g id="edge94" class="edge">
<title>node_27&#45;&gt;node_25</title>
<path fill="none" stroke="#00b3ff" stroke-width="2" d="M1818.92,-1079.16C1783.72,-1109.19 1708.47,-1173.12 1644,-1226 1598.93,-1262.97 1546.01,-1305.05 1513.75,-1330.56"/>
<polygon fill="#00b3ff" stroke="#00b3ff" stroke-width="2" points="1511.29,-1328.04 1505.61,-1336.98 1515.63,-1333.53 1511.29,-1328.04"/>
<text text-anchor="middle" x="1702" y="-1204.5" font-family="SF Pro Text Bold 10" font-size="15.00">%20</text>
</g>
<!-- node_27&#45;&gt;node_28 -->
<g id="edge21" class="edge">
<title>node_27&#45;&gt;node_28</title>
<path fill="none" stroke="#ff3636" stroke-width="3" d="M1854.01,-1042.87C1873.51,-1020.61 1907.71,-981.56 1930.11,-955.99"/>
<polygon fill="#ff3636" stroke="#ff3636" stroke-width="3" points="1932.98,-958.03 1936.93,-948.2 1927.71,-953.42 1932.98,-958.03"/>
</g>
<!-- node_27&#45;&gt;node_30 -->
<g id="edge93" class="edge">
<title>node_27&#45;&gt;node_30</title>
<path fill="none" stroke="#00b3ff" stroke-width="2" d="M1811.72,-1056.96C1707.04,-1044.17 1341.82,-988.81 1441,-848 1552.72,-689.4 1664.93,-752.39 1852,-701 1869.9,-696.08 1876.9,-702.24 1893,-693 1910.37,-683.04 1925.23,-666.07 1935.7,-651.7"/>
<polygon fill="#00b3ff" stroke="#00b3ff" stroke-width="2" points="1938.79,-653.38 1941.63,-643.18 1933.04,-649.39 1938.79,-653.38"/>
<text text-anchor="middle" x="1458" y="-853" font-family="SF Pro Text Bold 10" font-size="15.00">%20</text>
</g>
<!-- node_29 -->
<g id="node44" class="node">
<title>node_29</title>
<path fill="#6d95df" stroke="#000000" d="M1967,-801C1967,-801 1937,-801 1937,-801 1931,-801 1925,-795 1925,-789 1925,-789 1925,-777 1925,-777 1925,-771 1931,-765 1937,-765 1937,-765 1967,-765 1967,-765 1973,-765 1979,-771 1979,-777 1979,-777 1979,-789 1979,-789 1979,-795 1973,-801 1967,-801"/>
<text text-anchor="middle" x="1952" y="-779.5" font-family="SF Pro Text Bold 10" font-size="15.00" fill="#000000">br</text>
</g>
<!-- node_28&#45;&gt;node_29 -->
<g id="edge22" class="edge">
<title>node_28&#45;&gt;node_29</title>
<path fill="none" stroke="#ff3636" stroke-width="3" d="M1952,-911.8C1952,-886.94 1952,-840.74 1952,-811.23"/>
<polygon fill="#ff3636" stroke="#ff3636" stroke-width="3" points="1955.5,-811.18 1952,-801.18 1948.5,-811.18 1955.5,-811.18"/>
</g>
<!-- node_28&#45;&gt;node_29 -->
<g id="edge95" class="edge">
<title>node_28&#45;&gt;node_29</title>
<path fill="none" stroke="#00b3ff" stroke-width="2" d="M1934.55,-911.74C1923.74,-899.76 1910.84,-882.82 1905,-865 1898.4,-844.87 1910.69,-824.25 1924.36,-808.85"/>
<polygon fill="#00b3ff" stroke="#00b3ff" stroke-width="2" points="1927.18,-810.96 1931.53,-801.31 1922.11,-806.14 1927.18,-810.96"/>
<text text-anchor="middle" x="1920.5" y="-853" font-family="SF Pro Text Bold 10" font-size="15.00">%21</text>
</g>
<!-- node_29&#45;&gt;node_24 -->
<g id="edge34" class="edge">
<title>node_29&#45;&gt;node_24</title>
<path fill="none" stroke="#ff8800" stroke-width="5" d="M1979.06,-789.58C2035.17,-802.89 2159,-842.12 2159,-929 2159,-1356 2159,-1356 2159,-1356 2159,-1413.35 2094.8,-1451.76 2052.43,-1470.87"/>
<polygon fill="#ff8800" stroke="#ff8800" stroke-width="5" points="2050.66,-1466.87 2043.23,-1474.87 2054.15,-1474.89 2050.66,-1466.87"/>
<text text-anchor="middle" x="2164" y="-1131" font-family="SF Pro Text Bold 10" font-size="15.00">2</text>
</g>
<!-- node_29&#45;&gt;node_24 -->
<g id="edge86" class="edge">
<title>node_29&#45;&gt;node_24</title>
<path fill="none" stroke="#00b3ff" stroke-width="2" d="M1979,-785.17C2050.44,-789.85 2239,-813.16 2239,-929 2239,-1356 2239,-1356 2239,-1356 2239,-1440.74 2116.87,-1470.7 2053.37,-1480.56"/>
<polygon fill="#00b3ff" stroke="#00b3ff" stroke-width="2" points="2052.73,-1477.11 2043.34,-1482.02 2053.75,-1484.04 2052.73,-1477.11"/>
<text text-anchor="middle" x="2269.5" y="-1131" font-family="SF Pro Text Bold 10" font-size="15.00">i64 %19</text>
</g>
<!-- node_29&#45;&gt;node_25 -->
<g id="edge89" class="edge">
<title>node_29&#45;&gt;node_25</title>
<path fill="none" stroke="#00b3ff" stroke-width="2" d="M1931.97,-801.07C1870.37,-854.23 1680.34,-1023.19 1554,-1190 1528.27,-1223.97 1522.39,-1233.66 1506,-1273 1498.74,-1290.43 1493.19,-1310.98 1489.48,-1327.01"/>
<polygon fill="#00b3ff" stroke="#00b3ff" stroke-width="2" points="1486.05,-1326.3 1487.31,-1336.82 1492.89,-1327.81 1486.05,-1326.3"/>
<text text-anchor="middle" x="1709.5" y="-1057.5" font-family="SF Pro Text Bold 10" font-size="15.00">i64 %20</text>
</g>
<!-- node_29&#45;&gt;node_30 -->
<g id="edge37" class="edge">
<title>node_29&#45;&gt;node_30</title>
<path fill="none" stroke="#ff8800" stroke-width="5" d="M1952,-764.71C1952,-737.77 1952,-685.54 1952,-653.42"/>
<polygon fill="#ff8800" stroke="#ff8800" stroke-width="5" points="1956.38,-653.37 1952,-643.37 1947.63,-653.37 1956.38,-653.37"/>
<text text-anchor="middle" x="1956" y="-706" font-family="SF Pro Text Bold 10" font-size="15.00">1</text>
</g>
<!-- node_29&#45;&gt;node_30 -->
<g id="edge99" class="edge">
<title>node_29&#45;&gt;node_30</title>
<path fill="none" stroke="#00b3ff" stroke-width="2" d="M1924.91,-770.08C1895.26,-755.3 1854.28,-728.65 1873,-701 1878.37,-693.07 1885.18,-698.52 1893,-693 1909.04,-681.68 1923.66,-665.15 1934.33,-651.34"/>
<polygon fill="#00b3ff" stroke="#00b3ff" stroke-width="2" points="1937.26,-653.27 1940.44,-643.17 1931.65,-649.08 1937.26,-653.27"/>
<text text-anchor="middle" x="1904.5" y="-706" font-family="SF Pro Text Bold 10" font-size="15.00">i64 %20</text>
</g>
<!-- node_51 -->
<g id="node45" class="node">
<title>node_51</title>
<path fill="#d66868" stroke="#000000" d="M1625.5,-1373C1625.5,-1373 1588.5,-1373 1588.5,-1373 1582.5,-1373 1576.5,-1367 1576.5,-1361 1576.5,-1361 1576.5,-1349 1576.5,-1349 1576.5,-1343 1582.5,-1337 1588.5,-1337 1588.5,-1337 1625.5,-1337 1625.5,-1337 1631.5,-1337 1637.5,-1343 1637.5,-1349 1637.5,-1349 1637.5,-1361 1637.5,-1361 1637.5,-1367 1631.5,-1373 1625.5,-1373"/>
<text text-anchor="middle" x="1607" y="-1351.5" font-family="SF Pro Text Bold 10" font-size="15.00" fill="#000000">i64 &#45;1</text>
</g>
<!-- node_51&#45;&gt;node_26 -->
<g id="edge92" class="edge">
<title>node_51&#45;&gt;node_26</title>
<path fill="none" stroke="#00b3ff" stroke-width="2" d="M1637.53,-1344.98C1667.33,-1335.07 1712.75,-1316.9 1745,-1290 1752.1,-1284.08 1750.62,-1279.69 1757,-1273 1771.4,-1257.89 1789.52,-1243.38 1805.05,-1232"/>
<polygon fill="#00b3ff" stroke="#00b3ff" stroke-width="2" points="1807.3,-1234.7 1813.38,-1226.02 1803.22,-1229.01 1807.3,-1234.7"/>
</g>
<!-- node_52 -->
<g id="node46" class="node">
<title>node_52</title>
<path fill="#d66868" stroke="#000000" d="M1975,-1079C1975,-1079 1943,-1079 1943,-1079 1937,-1079 1931,-1073 1931,-1067 1931,-1067 1931,-1055 1931,-1055 1931,-1049 1937,-1043 1943,-1043 1943,-1043 1975,-1043 1975,-1043 1981,-1043 1987,-1049 1987,-1055 1987,-1055 1987,-1067 1987,-1067 1987,-1073 1981,-1079 1975,-1079"/>
<text text-anchor="middle" x="1959" y="-1057.5" font-family="SF Pro Text Bold 10" font-size="15.00" fill="#000000">i64 3</text>
</g>
<!-- node_52&#45;&gt;node_28 -->
<g id="edge96" class="edge">
<title>node_52&#45;&gt;node_28</title>
<path fill="none" stroke="#00b3ff" stroke-width="2" d="M1958.07,-1042.87C1956.9,-1021.28 1954.87,-983.91 1953.48,-958.35"/>
<polygon fill="#00b3ff" stroke="#00b3ff" stroke-width="2" points="1956.97,-958 1952.93,-948.2 1949.98,-958.38 1956.97,-958"/>
</g>
<!-- node_30&#45;&gt;node_31 -->
<g id="edge23" class="edge">
<title>node_30&#45;&gt;node_31</title>
<path fill="none" stroke="#ff3636" stroke-width="3" d="M1952,-606.8C1952,-581.94 1952,-535.74 1952,-506.23"/>
<polygon fill="#ff3636" stroke="#ff3636" stroke-width="3" points="1955.5,-506.18 1952,-496.18 1948.5,-506.18 1955.5,-506.18"/>
</g>
<!-- node_30&#45;&gt;node_31 -->
<g id="edge97" class="edge">
<title>node_30&#45;&gt;node_31</title>
<path fill="none" stroke="#00b3ff" stroke-width="2" d="M1952.68,-606.89C1953.16,-594 1953.75,-575.89 1954,-560 1954.28,-542.06 1953.78,-521.89 1953.22,-506.16"/>
<polygon fill="#00b3ff" stroke="#00b3ff" stroke-width="2" points="1956.71,-505.92 1952.82,-496.06 1949.72,-506.19 1956.71,-505.92"/>
<text text-anchor="middle" x="1970.5" y="-548" font-family="SF Pro Text Bold 10" font-size="15.00">%23</text>
</g>
<!-- node_32 -->
<g id="node49" class="node">
<title>node_32</title>
<path fill="#6d95df" stroke="#000000" d="M2044,-365C2044,-365 2014,-365 2014,-365 2008,-365 2002,-359 2002,-353 2002,-353 2002,-341 2002,-341 2002,-335 2008,-329 2014,-329 2014,-329 2044,-329 2044,-329 2050,-329 2056,-335 2056,-341 2056,-341 2056,-353 2056,-353 2056,-359 2050,-365 2044,-365"/>
<text text-anchor="middle" x="2029" y="-343.5" font-family="SF Pro Text Bold 10" font-size="15.00" fill="#000000">br</text>
</g>
<!-- node_31&#45;&gt;node_32 -->
<g id="edge24" class="edge">
<title>node_31&#45;&gt;node_32</title>
<path fill="none" stroke="#ff3636" stroke-width="3" d="M1962.23,-459.87C1975.34,-437.9 1998.22,-399.57 2013.48,-373.99"/>
<polygon fill="#ff3636" stroke="#ff3636" stroke-width="3" points="2016.61,-375.58 2018.73,-365.2 2010.6,-371.99 2016.61,-375.58"/>
</g>
<!-- node_32&#45;&gt;node_35 -->
<g id="edge40" class="edge">
<title>node_32&#45;&gt;node_35</title>
<path fill="none" stroke="#ff8800" stroke-width="5" d="M2027.93,-328.95C2027.75,-310.88 2030.31,-282.58 2046,-265 2094.7,-210.43 2184.02,-195.47 2234.56,-191.43"/>
<polygon fill="#ff8800" stroke="#ff8800" stroke-width="5" points="2235.06,-195.78 2244.73,-190.72 2234.45,-187.05 2235.06,-195.78"/>
<text text-anchor="middle" x="2050" y="-270" font-family="SF Pro Text Bold 10" font-size="15.00">1</text>
</g>
<!-- node_32&#45;&gt;node_35 -->
<g id="edge106" class="edge">
<title>node_32&#45;&gt;node_35</title>
<path fill="none" stroke="#00b3ff" stroke-width="2" d="M2049.4,-328.96C2052.88,-326.22 2056.5,-323.48 2060,-321 2119.71,-278.73 2193.03,-235.14 2235.94,-210.43"/>
<polygon fill="#00b3ff" stroke="#00b3ff" stroke-width="2" points="2237.94,-213.31 2244.87,-205.3 2234.46,-207.24 2237.94,-213.31"/>
<text text-anchor="middle" x="2158.5" y="-270" font-family="SF Pro Text Bold 10" font-size="15.00">i32 0</text>
</g>
<!-- node_53 -->
<g id="node50" class="node">
<title>node_53</title>
<path fill="#d66868" stroke="#000000" d="M1848,-643C1848,-643 1778,-643 1778,-643 1772,-643 1766,-637 1766,-631 1766,-631 1766,-619 1766,-619 1766,-613 1772,-607 1778,-607 1778,-607 1848,-607 1848,-607 1854,-607 1860,-613 1860,-619 1860,-619 1860,-631 1860,-631 1860,-637 1854,-643 1848,-643"/>
<text text-anchor="middle" x="1813" y="-621.5" font-family="SF Pro Text Bold 10" font-size="15.00" fill="#000000">ptr @.str.1</text>
</g>
<!-- node_53&#45;&gt;node_31 -->
<g id="edge100" class="edge">
<title>node_53&#45;&gt;node_31</title>
<path fill="none" stroke="#00b3ff" stroke-width="2" d="M1829.49,-606.8C1854.05,-581.18 1900.34,-532.89 1928.46,-503.56"/>
<polygon fill="#00b3ff" stroke="#00b3ff" stroke-width="2" points="1931.14,-505.82 1935.53,-496.18 1926.08,-500.98 1931.14,-505.82"/>
</g>
<!-- node_54 -->
<g id="node51" class="node">
<title>node_54</title>
<path fill="#d66868" stroke="#000000" d="M1689,-643C1689,-643 1613,-643 1613,-643 1607,-643 1601,-637 1601,-631 1601,-631 1601,-619 1601,-619 1601,-613 1607,-607 1613,-607 1613,-607 1689,-607 1689,-607 1695,-607 1701,-613 1701,-619 1701,-619 1701,-631 1701,-631 1701,-637 1695,-643 1689,-643"/>
<text text-anchor="middle" x="1651" y="-621.5" font-family="SF Pro Text Bold 10" font-size="15.00" fill="#000000">ptr @printf</text>
</g>
<!-- node_54&#45;&gt;node_31 -->
<g id="edge101" class="edge">
<title>node_54&#45;&gt;node_31</title>
<path fill="none" stroke="#00b3ff" stroke-width="2" d="M1686.41,-606.94C1743.97,-579.21 1857.24,-524.65 1915.49,-496.59"/>
<polygon fill="#00b3ff" stroke="#00b3ff" stroke-width="2" points="1917.2,-499.65 1924.69,-492.15 1914.16,-493.34 1917.2,-499.65"/>
</g>
<!-- node_34 -->
<g id="node53" class="node">
<title>node_34</title>
<path fill="#6d95df" stroke="#000000" d="M2287,-365C2287,-365 2257,-365 2257,-365 2251,-365 2245,-359 2245,-353 2245,-353 2245,-341 2245,-341 2245,-335 2251,-329 2257,-329 2257,-329 2287,-329 2287,-329 2293,-329 2299,-335 2299,-341 2299,-341 2299,-353 2299,-353 2299,-359 2293,-365 2287,-365"/>
<text text-anchor="middle" x="2272" y="-343.5" font-family="SF Pro Text Bold 10" font-size="15.00" fill="#000000">br</text>
</g>
<!-- node_33&#45;&gt;node_34 -->
<g id="edge25" class="edge">
<title>node_33&#45;&gt;node_34</title>
<path fill="none" stroke="#ff3636" stroke-width="3" d="M2366.53,-459.87C2347.71,-437.61 2314.72,-398.56 2293.12,-372.99"/>
<polygon fill="#ff3636" stroke="#ff3636" stroke-width="3" points="2295.66,-370.58 2286.53,-365.2 2290.31,-375.1 2295.66,-370.58"/>
</g>
<!-- node_34&#45;&gt;node_35 -->
<g id="edge41" class="edge">
<title>node_34&#45;&gt;node_35</title>
<path fill="none" stroke="#ff8800" stroke-width="5" d="M2271.66,-328.89C2271.42,-316 2271.12,-297.89 2271,-282 2270.83,-260.34 2271.12,-235.81 2271.43,-217.53"/>
<polygon fill="#ff8800" stroke="#ff8800" stroke-width="5" points="2275.81,-217.37 2271.62,-207.3 2267.06,-217.21 2275.81,-217.37"/>
<text text-anchor="middle" x="2276.5" y="-270" font-family="SF Pro Text Bold 10" font-size="15.00">0</text>
</g>
<!-- node_34&#45;&gt;node_35 -->
<g id="edge107" class="edge">
<title>node_34&#45;&gt;node_35</title>
<path fill="none" stroke="#00b3ff" stroke-width="2" d="M2276.14,-328.74C2278.98,-315.93 2282.51,-297.98 2284,-282 2286.03,-260.15 2282.5,-235.49 2278.75,-217.21"/>
<polygon fill="#00b3ff" stroke="#00b3ff" stroke-width="2" points="2282.13,-216.27 2276.56,-207.25 2275.29,-217.77 2282.13,-216.27"/>
<text text-anchor="middle" x="2302" y="-270" font-family="SF Pro Text Bold 10" font-size="15.00">i32 1</text>
</g>
<!-- node_55 -->
<g id="node54" class="node">
<title>node_55</title>
<path fill="#d66868" stroke="#000000" d="M2303,-643C2303,-643 2249,-643 2249,-643 2243,-643 2237,-637 2237,-631 2237,-631 2237,-619 2237,-619 2237,-613 2243,-607 2249,-607 2249,-607 2303,-607 2303,-607 2309,-607 2315,-613 2315,-619 2315,-619 2315,-631 2315,-631 2315,-637 2309,-643 2303,-643"/>
<text text-anchor="middle" x="2276" y="-621.5" font-family="SF Pro Text Bold 10" font-size="15.00" fill="#000000">ptr @str</text>
</g>
<!-- node_55&#45;&gt;node_33 -->
<g id="edge102" class="edge">
<title>node_55&#45;&gt;node_33</title>
<path fill="none" stroke="#00b3ff" stroke-width="2" d="M2288.46,-606.8C2306.85,-581.4 2341.39,-533.71 2362.67,-504.31"/>
<polygon fill="#00b3ff" stroke="#00b3ff" stroke-width="2" points="2365.53,-506.33 2368.56,-496.18 2359.86,-502.23 2365.53,-506.33"/>
</g>
<!-- node_56 -->
<g id="node55" class="node">
<title>node_56</title>
<path fill="#d66868" stroke="#000000" d="M2159.5,-643C2159.5,-643 2092.5,-643 2092.5,-643 2086.5,-643 2080.5,-637 2080.5,-631 2080.5,-631 2080.5,-619 2080.5,-619 2080.5,-613 2086.5,-607 2092.5,-607 2092.5,-607 2159.5,-607 2159.5,-607 2165.5,-607 2171.5,-613 2171.5,-619 2171.5,-619 2171.5,-631 2171.5,-631 2171.5,-637 2165.5,-643 2159.5,-643"/>
<text text-anchor="middle" x="2126" y="-621.5" font-family="SF Pro Text Bold 10" font-size="15.00" fill="#000000">ptr @puts</text>
</g>
<!-- node_56&#45;&gt;node_33 -->
<g id="edge103" class="edge">
<title>node_56&#45;&gt;node_33</title>
<path fill="none" stroke="#00b3ff" stroke-width="2" d="M2156,-606.94C2203.1,-580.16 2294.22,-528.34 2344.86,-499.55"/>
<polygon fill="#00b3ff" stroke="#00b3ff" stroke-width="2" points="2346.86,-502.44 2353.82,-494.45 2343.4,-496.35 2346.86,-502.44"/>
</g>
<!-- node_36 -->
<g id="node57" class="node">
<title>node_36</title>
<path fill="#6d95df" stroke="#000000" d="M2287,-60C2287,-60 2257,-60 2257,-60 2251,-60 2245,-54 2245,-48 2245,-48 2245,-36 2245,-36 2245,-30 2251,-24 2257,-24 2257,-24 2287,-24 2287,-24 2293,-24 2299,-30 2299,-36 2299,-36 2299,-48 2299,-48 2299,-54 2293,-60 2287,-60"/>
<text text-anchor="middle" x="2272" y="-38.5" font-family="SF Pro Text Bold 10" font-size="15.00" fill="#000000">ret</text>
</g>
<!-- node_35&#45;&gt;node_36 -->
<g id="edge26" class="edge">
<title>node_35&#45;&gt;node_36</title>
<path fill="none" stroke="#ff3636" stroke-width="3" d="M2272,-170.8C2272,-145.94 2272,-99.74 2272,-70.23"/>
<polygon fill="#ff3636" stroke="#ff3636" stroke-width="3" points="2275.5,-70.18 2272,-60.18 2268.5,-70.18 2275.5,-70.18"/>
</g>
<!-- node_35&#45;&gt;node_36 -->
<g id="edge104" class="edge">
<title>node_35&#45;&gt;node_36</title>
<path fill="none" stroke="#00b3ff" stroke-width="2" d="M2272.82,-170.94C2273.51,-154.54 2274.34,-129.08 2274,-107 2273.81,-94.95 2273.42,-81.64 2273.04,-70.29"/>
<polygon fill="#00b3ff" stroke="#00b3ff" stroke-width="2" points="2276.53,-69.98 2272.68,-60.11 2269.54,-70.23 2276.53,-69.98"/>
<text text-anchor="middle" x="2291" y="-112" font-family="SF Pro Text Bold 10" font-size="15.00">%28</text>
</g>
</g>
</svg>
