<?xml version="1.0" encoding="UTF-8" standalone="no"?>
<!DOCTYPE svg PUBLIC "-//W3C//DTD SVG 1.1//EN"
 "http://www.w3.org/Graphics/SVG/1.1/DTD/svg11.dtd">
<!-- Generated by graphviz version 2.43.0 (0)
 -->
<!-- Title: examples/calc/calc.c Pages: 1 -->
<svg width="470pt" height="442pt"
 viewBox="0.00 0.00 470.20 442.20" xmlns="http://www.w3.org/2000/svg" xmlns:xlink="http://www.w3.org/1999/xlink">
<g id="graph0" class="graph" transform="scale(1 1) rotate(0) translate(21.6 420.6)">
<title>examples/calc/calc.c</title>
<polygon fill="white" stroke="transparent" points="-21.6,21.6 -21.6,-420.6 448.6,-420.6 448.6,21.6 -21.6,21.6"/>
<g id="clust1" class="cluster">
<title>cluster_func_1</title>
<path fill="#e3e3e3" stroke="#000000" stroke-width="2" d="M20,-8C20,-8 407,-8 407,-8 413,-8 419,-14 419,-20 419,-20 419,-379 419,-379 419,-385 413,-391 407,-391 407,-391 20,-391 20,-391 14,-391 8,-385 8,-379 8,-379 8,-20 8,-20 8,-14 14,-8 20,-8"/>
<text text-anchor="middle" x="213.5" y="-371" font-family="SF Pro Text Bold 10" font-size="20.00">main</text>
</g>
<g id="clust2" class="cluster">
<title>cluster_func_1_bb_1</title>
<path fill="#a4a4a4" stroke="#000000" stroke-width="2" d="M28,-16C28,-16 399,-16 399,-16 405,-16 411,-22 411,-28 411,-28 411,-341 411,-341 411,-347 405,-353 399,-353 399,-353 28,-353 28,-353 22,-353 16,-347 16,-341 16,-341 16,-28 16,-28 16,-22 22,-16 28,-16"/>
<text text-anchor="middle" x="213.5" y="-337" font-family="SF Pro Text Bold 10" font-size="15.00">label %0</text>
</g>
<!-- n0x557bec3a83f0 -->
<g id="node1" class="node">
<title>n0x557bec3a83f0</title>
<path fill="#6d95df" stroke="#000000" d="M237,-190C237,-190 207,-190 207,-190 201,-190 195,-184 195,-178 195,-178 195,-166 195,-166 195,-160 201,-154 207,-154 207,-154 237,-154 237,-154 243,-154 249,-160 249,-166 249,-166 249,-178 249,-178 249,-184 243,-190 237,-190"/>
<text text-anchor="middle" x="222" y="-168.5" font-family="SF Pro Text Bold 10" font-size="15.00" fill="#000000">call</text>
</g>
<!-- n0x557bec339110 -->
<g id="node2" class="node">
<title>n0x557bec339110</title>
<path fill="#6d95df" stroke="#000000" d="M237,-60C237,-60 207,-60 207,-60 201,-60 195,-54 195,-48 195,-48 195,-36 195,-36 195,-30 201,-24 207,-24 207,-24 237,-24 237,-24 243,-24 249,-30 249,-36 249,-36 249,-48 249,-48 249,-54 243,-60 237,-60"/>
<text text-anchor="middle" x="222" y="-38.5" font-family="SF Pro Text Bold 10" font-size="15.00" fill="#000000">ret</text>
</g>
<!-- n0x557bec3a83f0&#45;&gt;n0x557bec339110 -->
<g id="edge1" class="edge">
<title>n0x557bec3a83f0&#45;&gt;n0x557bec339110</title>
<path fill="none" stroke="#ff3636" stroke-width="3" d="M222,-153.74C222,-132.36 222,-95.69 222,-70.44"/>
<polygon fill="#ff3636" stroke="#ff3636" stroke-width="3" points="225.5,-70.4 222,-60.4 218.5,-70.4 225.5,-70.4"/>
</g>
<!-- u0x557bec3a8390 -->
<g id="node3" class="node">
<title>u0x557bec3a8390</title>
<path fill="#d66868" stroke="#000000" d="M390.5,-320C390.5,-320 331.5,-320 331.5,-320 325.5,-320 319.5,-314 319.5,-308 319.5,-308 319.5,-296 319.5,-296 319.5,-290 325.5,-284 331.5,-284 331.5,-284 390.5,-284 390.5,-284 396.5,-284 402.5,-290 402.5,-296 402.5,-296 402.5,-308 402.5,-308 402.5,-314 396.5,-320 390.5,-320"/>
<text text-anchor="middle" x="361" y="-298.5" font-family="SF Pro Text Bold 10" font-size="15.00" fill="#000000">ptr @.str</text>
</g>
<!-- u0x557bec3a8390&#45;&gt;n0x557bec3a83f0 -->
<g id="edge2" class="edge">
<title>u0x557bec3a8390&#45;&gt;n0x557bec3a83f0</title>
<path fill="none" stroke="#00b3ff" stroke-width="2" d="M342.25,-283.74C318.11,-261.5 275.99,-222.72 248.56,-197.46"/>
<polygon fill="#00b3ff" stroke="#00b3ff" stroke-width="2" points="250.62,-194.6 240.89,-190.4 245.88,-199.75 250.62,-194.6"/>
</g>
<!-- u0x557bec3a83b0 -->
<g id="node4" class="node">
<title>u0x557bec3a83b0</title>
<path fill="#d66868" stroke="#000000" d="M242.5,-320C242.5,-320 201.5,-320 201.5,-320 195.5,-320 189.5,-314 189.5,-308 189.5,-308 189.5,-296 189.5,-296 189.5,-290 195.5,-284 201.5,-284 201.5,-284 242.5,-284 242.5,-284 248.5,-284 254.5,-290 254.5,-296 254.5,-296 254.5,-308 254.5,-308 254.5,-314 248.5,-320 242.5,-320"/>
<text text-anchor="middle" x="222" y="-298.5" font-family="SF Pro Text Bold 10" font-size="15.00" fill="#000000">i32 56</text>
</g>
<!-- u0x557bec3a83b0&#45;&gt;n0x557bec3a83f0 -->
<g id="edge3" class="edge">
<title>u0x557bec3a83b0&#45;&gt;n0x557bec3a83f0</title>
<path fill="none" stroke="#00b3ff" stroke-width="2" d="M222,-283.74C222,-262.36 222,-225.69 222,-200.44"/>
<polygon fill="#00b3ff" stroke="#00b3ff" stroke-width="2" points="225.5,-200.4 222,-190.4 218.5,-200.4 225.5,-200.4"/>
</g>
<!-- u0x557bec3a83d0 -->
<g id="node5" class="node">
<title>u0x557bec3a83d0</title>
<path fill="#d66868" stroke="#000000" d="M112,-320C112,-320 36,-320 36,-320 30,-320 24,-314 24,-308 24,-308 24,-296 24,-296 24,-290 30,-284 36,-284 36,-284 112,-284 112,-284 118,-284 124,-290 124,-296 124,-296 124,-308 124,-308 124,-314 118,-320 112,-320"/>
<text text-anchor="middle" x="74" y="-298.5" font-family="SF Pro Text Bold 10" font-size="15.00" fill="#000000">ptr @printf</text>
</g>
<!-- u0x557bec3a83d0&#45;&gt;n0x557bec3a83f0 -->
<g id="edge4" class="edge">
<title>u0x557bec3a83d0&#45;&gt;n0x557bec3a83f0</title>
<path fill="none" stroke="#00b3ff" stroke-width="2" d="M93.96,-283.74C119.78,-261.41 164.9,-222.39 194.1,-197.13"/>
<polygon fill="#00b3ff" stroke="#00b3ff" stroke-width="2" points="196.61,-199.59 201.88,-190.4 192.03,-194.29 196.61,-199.59"/>
</g>
<!-- u0x557bec3390f0 -->
<g id="node6" class="node">
<title>u0x557bec3390f0</title>
<path fill="#d66868" stroke="#000000" d="M117.5,-190C117.5,-190 86.5,-190 86.5,-190 80.5,-190 74.5,-184 74.5,-178 74.5,-178 74.5,-166 74.5,-166 74.5,-160 80.5,-154 86.5,-154 86.5,-154 117.5,-154 117.5,-154 123.5,-154 129.5,-160 129.5,-166 129.5,-166 129.5,-178 129.5,-178 129.5,-184 123.5,-190 117.5,-190"/>
<text text-anchor="middle" x="102" y="-168.5" font-family="SF Pro Text Bold 10" font-size="15.00" fill="#000000">i32 0</text>
</g>
<!-- u0x557bec3390f0&#45;&gt;n0x557bec339110 -->
<g id="edge5" class="edge">
<title>u0x557bec3390f0&#45;&gt;n0x557bec339110</title>
<path fill="none" stroke="#00b3ff" stroke-width="2" d="M118.18,-153.74C138.94,-131.6 175.08,-93.05 198.77,-67.78"/>
<polygon fill="#00b3ff" stroke="#00b3ff" stroke-width="2" points="201.4,-70.09 205.69,-60.4 196.3,-65.3 201.4,-70.09"/>
</g>
</g>
</svg>
