<?xml version="1.0" encoding="UTF-8" standalone="no"?>
<!DOCTYPE svg PUBLIC "-//W3C//DTD SVG 1.1//EN"
 "http://www.w3.org/Graphics/SVG/1.1/DTD/svg11.dtd">
<!-- Generated by graphviz version 2.43.0 (0)
 -->
<!-- Title: examples/calc/calc.c Pages: 1 -->
<svg width="390pt" height="329pt"
 viewBox="0.00 0.00 390.20 329.20" xmlns="http://www.w3.org/2000/svg" xmlns:xlink="http://www.w3.org/1999/xlink">
<g id="graph0" class="graph" transform="scale(1 1) rotate(0) translate(21.6 307.6)">
<title>examples/calc/calc.c</title>
<polygon fill="white" stroke="transparent" points="-21.6,21.6 -21.6,-307.6 368.6,-307.6 368.6,21.6 -21.6,21.6"/>
<g id="clust1" class="cluster">
<title>cluster_func_1</title>
<path fill="#e3e3e3" stroke="#000000" stroke-width="2" d="M20,-8C20,-8 327,-8 327,-8 333,-8 339,-14 339,-20 339,-20 339,-266 339,-266 339,-272 333,-278 327,-278 327,-278 20,-278 20,-278 14,-278 8,-272 8,-266 8,-266 8,-20 8,-20 8,-14 14,-8 20,-8"/>
<text text-anchor="middle" x="173.5" y="-258" font-family="SF Pro Text Bold 10" font-size="20.00">main</text>
</g>
<g id="clust2" class="cluster">
<title>cluster_func_1_bb_1</title>
<path fill="#a4a4a4" stroke="#000000" stroke-width="2" d="M28,-16C28,-16 319,-16 319,-16 325,-16 331,-22 331,-28 331,-28 331,-228 331,-228 331,-234 325,-240 319,-240 319,-240 28,-240 28,-240 22,-240 16,-234 16,-228 16,-228 16,-28 16,-28 16,-22 22,-16 28,-16"/>
</g>
<!-- n0x645f14ddd730 -->
<g id="node1" class="node">
<title>n0x645f14ddd730</title>
<path fill="#6d95df" stroke="#000000" d="M197,-146C197,-146 167,-146 167,-146 161,-146 155,-140 155,-134 155,-134 155,-122 155,-122 155,-116 161,-110 167,-110 167,-110 197,-110 197,-110 203,-110 209,-116 209,-122 209,-122 209,-134 209,-134 209,-140 203,-146 197,-146"/>
<text text-anchor="middle" x="182" y="-124.5" font-family="SF Pro Text Bold 10" font-size="15.00" fill="#000000">call</text>
</g>
<!-- n0x645f14d572d0 -->
<g id="node2" class="node">
<title>n0x645f14d572d0</title>
<path fill="#6d95df" stroke="#000000" d="M197,-60C197,-60 167,-60 167,-60 161,-60 155,-54 155,-48 155,-48 155,-36 155,-36 155,-30 161,-24 167,-24 167,-24 197,-24 197,-24 203,-24 209,-30 209,-36 209,-36 209,-48 209,-48 209,-54 203,-60 197,-60"/>
<text text-anchor="middle" x="182" y="-38.5" font-family="SF Pro Text Bold 10" font-size="15.00" fill="#000000">ret</text>
</g>
<!-- n0x645f14ddd730&#45;&gt;n0x645f14d572d0 -->
<g id="edge1" class="edge">
<title>n0x645f14ddd730&#45;&gt;n0x645f14d572d0</title>
<path fill="none" stroke="#ff8800" stroke-width="5" d="M182,-109.6C182,-98.26 182,-83.23 182,-70.32"/>
<polygon fill="#ff8800" stroke="#ff8800" stroke-width="5" points="186.38,-70.1 182,-60.1 177.63,-70.1 186.38,-70.1"/>
</g>
<!-- u0x645f14ddd6d0 -->
<g id="node3" class="node">
<title>u0x645f14ddd6d0</title>
<path fill="#db4040" stroke="#000000" d="M310.5,-232C310.5,-232 251.5,-232 251.5,-232 245.5,-232 239.5,-226 239.5,-220 239.5,-220 239.5,-208 239.5,-208 239.5,-202 245.5,-196 251.5,-196 251.5,-196 310.5,-196 310.5,-196 316.5,-196 322.5,-202 322.5,-208 322.5,-208 322.5,-220 322.5,-220 322.5,-226 316.5,-232 310.5,-232"/>
<text text-anchor="middle" x="281" y="-210.5" font-family="SF Pro Text Bold 10" font-size="15.00" fill="#000000">ptr @.str</text>
</g>
<!-- u0x645f14ddd6d0&#45;&gt;n0x645f14ddd730 -->
<g id="edge2" class="edge">
<title>u0x645f14ddd6d0&#45;&gt;n0x645f14ddd730</title>
<path fill="none" stroke="#00b3ff" stroke-width="2" d="M260.49,-195.6C245.92,-183.24 226.19,-166.49 210.15,-152.88"/>
<polygon fill="#00b3ff" stroke="#00b3ff" stroke-width="2" points="212.04,-149.9 202.15,-146.1 207.51,-155.23 212.04,-149.9"/>
</g>
<!-- u0x645f14ddd6f0 -->
<g id="node4" class="node">
<title>u0x645f14ddd6f0</title>
<path fill="#db4040" stroke="#000000" d="M202.5,-232C202.5,-232 161.5,-232 161.5,-232 155.5,-232 149.5,-226 149.5,-220 149.5,-220 149.5,-208 149.5,-208 149.5,-202 155.5,-196 161.5,-196 161.5,-196 202.5,-196 202.5,-196 208.5,-196 214.5,-202 214.5,-208 214.5,-208 214.5,-220 214.5,-220 214.5,-226 208.5,-232 202.5,-232"/>
<text text-anchor="middle" x="182" y="-210.5" font-family="SF Pro Text Bold 10" font-size="15.00" fill="#000000">i32 56</text>
</g>
<!-- u0x645f14ddd6f0&#45;&gt;n0x645f14ddd730 -->
<g id="edge3" class="edge">
<title>u0x645f14ddd6f0&#45;&gt;n0x645f14ddd730</title>
<path fill="none" stroke="#00b3ff" stroke-width="2" d="M182,-195.6C182,-184.26 182,-169.23 182,-156.32"/>
<polygon fill="#00b3ff" stroke="#00b3ff" stroke-width="2" points="185.5,-156.1 182,-146.1 178.5,-156.1 185.5,-156.1"/>
</g>
<!-- u0x645f14ddd710 -->
<g id="node5" class="node">
<title>u0x645f14ddd710</title>
<path fill="#db4040" stroke="#000000" d="M112,-232C112,-232 36,-232 36,-232 30,-232 24,-226 24,-220 24,-220 24,-208 24,-208 24,-202 30,-196 36,-196 36,-196 112,-196 112,-196 118,-196 124,-202 124,-208 124,-208 124,-220 124,-220 124,-226 118,-232 112,-232"/>
<text text-anchor="middle" x="74" y="-210.5" font-family="SF Pro Text Bold 10" font-size="15.00" fill="#000000">ptr @printf</text>
</g>
<!-- u0x645f14ddd710&#45;&gt;n0x645f14ddd730 -->
<g id="edge4" class="edge">
<title>u0x645f14ddd710&#45;&gt;n0x645f14ddd730</title>
<path fill="none" stroke="#00b3ff" stroke-width="2" d="M96.12,-195.8C112.13,-183.34 133.98,-166.35 151.63,-152.62"/>
<polygon fill="#00b3ff" stroke="#00b3ff" stroke-width="2" points="154.17,-155.08 159.91,-146.18 149.87,-149.56 154.17,-155.08"/>
</g>
<!-- u0x645f14d572b0 -->
<g id="node6" class="node">
<title>u0x645f14d572b0</title>
<path fill="#db4040" stroke="#000000" d="M117.5,-146C117.5,-146 86.5,-146 86.5,-146 80.5,-146 74.5,-140 74.5,-134 74.5,-134 74.5,-122 74.5,-122 74.5,-116 80.5,-110 86.5,-110 86.5,-110 117.5,-110 117.5,-110 123.5,-110 129.5,-116 129.5,-122 129.5,-122 129.5,-134 129.5,-134 129.5,-140 123.5,-146 117.5,-146"/>
<text text-anchor="middle" x="102" y="-124.5" font-family="SF Pro Text Bold 10" font-size="15.00" fill="#000000">i32 0</text>
</g>
<!-- u0x645f14d572b0&#45;&gt;n0x645f14d572d0 -->
<g id="edge5" class="edge">
<title>u0x645f14d572b0&#45;&gt;n0x645f14d572d0</title>
<path fill="none" stroke="#00b3ff" stroke-width="2" d="M118.58,-109.6C130.13,-97.46 145.71,-81.1 158.54,-67.64"/>
<polygon fill="#00b3ff" stroke="#00b3ff" stroke-width="2" points="161.36,-69.75 165.72,-60.1 156.29,-64.92 161.36,-69.75"/>
</g>
</g>
</svg>
