<?xml version="1.0" encoding="UTF-8" standalone="no"?>
<!DOCTYPE svg PUBLIC "-//W3C//DTD SVG 1.1//EN"
 "http://www.w3.org/Graphics/SVG/1.1/DTD/svg11.dtd">
<!-- Generated by graphviz version 2.43.0 (0)
 -->
<!-- Title: examples/calc/calc.c Pages: 1 -->
<svg width="1905pt" height="1473pt"
 viewBox="0.00 0.00 1904.51 1473.20" xmlns="http://www.w3.org/2000/svg" xmlns:xlink="http://www.w3.org/1999/xlink">
<g id="graph0" class="graph" transform="scale(1 1) rotate(0) translate(21.6 1451.6)">
<title>examples/calc/calc.c</title>
<polygon fill="white" stroke="transparent" points="-21.6,21.6 -21.6,-1451.6 1882.91,-1451.6 1882.91,21.6 -21.6,21.6"/>
<g id="clust1" class="cluster">
<title>cluster_func_1</title>
<path fill="#e3e3e3" stroke="#000000" stroke-width="2" d="M1299,-8C1299,-8 1829,-8 1829,-8 1835,-8 1841,-14 1841,-20 1841,-20 1841,-1410 1841,-1410 1841,-1416 1835,-1422 1829,-1422 1829,-1422 1299,-1422 1299,-1422 1293,-1422 1287,-1416 1287,-1410 1287,-1410 1287,-20 1287,-20 1287,-14 1293,-8 1299,-8"/>
<text text-anchor="middle" x="1564" y="-1402" font-family="SF Pro Text Bold 10" font-size="20.00">main</text>
</g>
<g id="clust2" class="cluster">
<title>cluster_func_1_bb_1</title>
<path fill="#a4a4a4" stroke="#000000" stroke-width="2" d="M1307,-16C1307,-16 1821,-16 1821,-16 1827,-16 1833,-22 1833,-28 1833,-28 1833,-1372 1833,-1372 1833,-1378 1827,-1384 1821,-1384 1821,-1384 1307,-1384 1307,-1384 1301,-1384 1295,-1378 1295,-1372 1295,-1372 1295,-28 1295,-28 1295,-22 1301,-16 1307,-16"/>
<text text-anchor="middle" x="1564" y="-1368" font-family="SF Pro Text Bold 10" font-size="15.00">label %0</text>
</g>
<g id="clust4" class="cluster">
<title>cluster_func_3</title>
<path fill="#e3e3e3" stroke="#000000" stroke-width="2" d="M20,-8C20,-8 791,-8 791,-8 797,-8 803,-14 803,-20 803,-20 803,-1410 803,-1410 803,-1416 797,-1422 791,-1422 791,-1422 20,-1422 20,-1422 14,-1422 8,-1416 8,-1410 8,-1410 8,-20 8,-20 8,-14 14,-8 20,-8"/>
<text text-anchor="middle" x="405.5" y="-1402" font-family="SF Pro Text Bold 10" font-size="20.00">func</text>
</g>
<g id="clust5" class="cluster">
<title>cluster_func_3_bb_1</title>
<path fill="#a4a4a4" stroke="#000000" stroke-width="2" d="M28,-16C28,-16 783,-16 783,-16 789,-16 795,-22 795,-28 795,-28 795,-1372 795,-1372 795,-1378 789,-1384 783,-1384 783,-1384 28,-1384 28,-1384 22,-1384 16,-1378 16,-1372 16,-1372 16,-28 16,-28 16,-22 22,-16 28,-16"/>
<text text-anchor="middle" x="405.5" y="-1368" font-family="SF Pro Text Bold 10" font-size="15.00">label %2</text>
</g>
<!-- n0x557bec35ab70 -->
<g id="node1" class="node">
<title>n0x557bec35ab70</title>
<path fill="#6d95df" stroke="#000000" d="M1663,-1220C1663,-1220 1625,-1220 1625,-1220 1619,-1220 1613,-1214 1613,-1208 1613,-1208 1613,-1196 1613,-1196 1613,-1190 1619,-1184 1625,-1184 1625,-1184 1663,-1184 1663,-1184 1669,-1184 1675,-1190 1675,-1196 1675,-1196 1675,-1208 1675,-1208 1675,-1214 1669,-1220 1663,-1220"/>
<text text-anchor="middle" x="1644" y="-1198.5" font-family="SF Pro Text Bold 10" font-size="15.00" fill="#000000">alloca</text>
</g>
<!-- n0x557bec3650a0 -->
<g id="node2" class="node">
<title>n0x557bec3650a0</title>
<path fill="#6d95df" stroke="#000000" d="M1659.5,-1073C1659.5,-1073 1628.5,-1073 1628.5,-1073 1622.5,-1073 1616.5,-1067 1616.5,-1061 1616.5,-1061 1616.5,-1049 1616.5,-1049 1616.5,-1043 1622.5,-1037 1628.5,-1037 1628.5,-1037 1659.5,-1037 1659.5,-1037 1665.5,-1037 1671.5,-1043 1671.5,-1049 1671.5,-1049 1671.5,-1061 1671.5,-1061 1671.5,-1067 1665.5,-1073 1659.5,-1073"/>
<text text-anchor="middle" x="1644" y="-1051.5" font-family="SF Pro Text Bold 10" font-size="15.00" fill="#000000">store</text>
</g>
<!-- n0x557bec35ab70&#45;&gt;n0x557bec3650a0 -->
<g id="edge1" class="edge">
<title>n0x557bec35ab70&#45;&gt;n0x557bec3650a0</title>
<path fill="none" stroke="#ff3636" stroke-width="3" d="M1644,-1183.8C1644,-1158.94 1644,-1112.74 1644,-1083.23"/>
<polygon fill="#ff3636" stroke="#ff3636" stroke-width="3" points="1647.5,-1083.18 1644,-1073.18 1640.5,-1083.18 1647.5,-1083.18"/>
</g>
<!-- n0x557bec35ab70&#45;&gt;n0x557bec3650a0 -->
<g id="edge9" class="edge">
<title>n0x557bec35ab70&#45;&gt;n0x557bec3650a0</title>
<path fill="none" stroke="#00b3ff" stroke-width="2" d="M1644.68,-1183.89C1645.16,-1171 1645.75,-1152.89 1646,-1137 1646.28,-1119.06 1645.78,-1098.89 1645.22,-1083.16"/>
<polygon fill="#00b3ff" stroke="#00b3ff" stroke-width="2" points="1648.71,-1082.92 1644.82,-1073.06 1641.72,-1083.19 1648.71,-1082.92"/>
<text text-anchor="middle" x="1656.5" y="-1125" font-family="SF Pro Text Bold 10" font-size="15.00">%1</text>
</g>
<!-- n0x557bec3a7f80 -->
<g id="node3" class="node">
<title>n0x557bec3a7f80</title>
<path fill="#6d95df" stroke="#000000" d="M1659,-926C1659,-926 1629,-926 1629,-926 1623,-926 1617,-920 1617,-914 1617,-914 1617,-902 1617,-902 1617,-896 1623,-890 1629,-890 1629,-890 1659,-890 1659,-890 1665,-890 1671,-896 1671,-902 1671,-902 1671,-914 1671,-914 1671,-920 1665,-926 1659,-926"/>
<text text-anchor="middle" x="1644" y="-904.5" font-family="SF Pro Text Bold 10" font-size="15.00" fill="#000000">call</text>
</g>
<!-- n0x557bec3650a0&#45;&gt;n0x557bec3a7f80 -->
<g id="edge2" class="edge">
<title>n0x557bec3650a0&#45;&gt;n0x557bec3a7f80</title>
<path fill="none" stroke="#ff3636" stroke-width="3" d="M1644,-1036.8C1644,-1011.94 1644,-965.74 1644,-936.23"/>
<polygon fill="#ff3636" stroke="#ff3636" stroke-width="3" points="1647.5,-936.18 1644,-926.18 1640.5,-936.18 1647.5,-936.18"/>
</g>
<!-- n0x557bec3a8070 -->
<g id="node4" class="node">
<title>n0x557bec3a8070</title>
<path fill="#6d95df" stroke="#000000" d="M1659,-779C1659,-779 1629,-779 1629,-779 1623,-779 1617,-773 1617,-767 1617,-767 1617,-755 1617,-755 1617,-749 1623,-743 1629,-743 1629,-743 1659,-743 1659,-743 1665,-743 1671,-749 1671,-755 1671,-755 1671,-767 1671,-767 1671,-773 1665,-779 1659,-779"/>
<text text-anchor="middle" x="1644" y="-757.5" font-family="SF Pro Text Bold 10" font-size="15.00" fill="#000000">call</text>
</g>
<!-- n0x557bec3a7f80&#45;&gt;n0x557bec3a8070 -->
<g id="edge3" class="edge">
<title>n0x557bec3a7f80&#45;&gt;n0x557bec3a8070</title>
<path fill="none" stroke="#ff3636" stroke-width="3" d="M1644,-889.8C1644,-864.94 1644,-818.74 1644,-789.23"/>
<polygon fill="#ff3636" stroke="#ff3636" stroke-width="3" points="1647.5,-789.18 1644,-779.18 1640.5,-789.18 1647.5,-789.18"/>
</g>
<!-- n0x557bec3a8130 -->
<g id="node5" class="node">
<title>n0x557bec3a8130</title>
<path fill="#6d95df" stroke="#000000" d="M1659,-632C1659,-632 1629,-632 1629,-632 1623,-632 1617,-626 1617,-620 1617,-620 1617,-608 1617,-608 1617,-602 1623,-596 1629,-596 1629,-596 1659,-596 1659,-596 1665,-596 1671,-602 1671,-608 1671,-608 1671,-620 1671,-620 1671,-626 1665,-632 1659,-632"/>
<text text-anchor="middle" x="1644" y="-610.5" font-family="SF Pro Text Bold 10" font-size="15.00" fill="#000000">call</text>
</g>
<!-- n0x557bec3a7f80&#45;&gt;n0x557bec3a8130 -->
<g id="edge12" class="edge">
<title>n0x557bec3a7f80&#45;&gt;n0x557bec3a8130</title>
<path fill="none" stroke="#00b3ff" stroke-width="2" d="M1655.16,-889.66C1669.77,-865.85 1694.61,-821.16 1704,-779 1715.27,-728.42 1684.74,-672.27 1663.21,-640.54"/>
<polygon fill="#00b3ff" stroke="#00b3ff" stroke-width="2" points="1666.01,-638.45 1657.41,-632.26 1660.28,-642.46 1666.01,-638.45"/>
<text text-anchor="middle" x="1717.5" y="-757.5" font-family="SF Pro Text Bold 10" font-size="15.00">%2</text>
</g>
<!-- n0x557bec3a27c0 -->
<g id="node21" class="node">
<title>n0x557bec3a27c0</title>
<path fill="#6d95df" stroke="#000000" d="M422,-1220C422,-1220 384,-1220 384,-1220 378,-1220 372,-1214 372,-1208 372,-1208 372,-1196 372,-1196 372,-1190 378,-1184 384,-1184 384,-1184 422,-1184 422,-1184 428,-1184 434,-1190 434,-1196 434,-1196 434,-1208 434,-1208 434,-1214 428,-1220 422,-1220"/>
<text text-anchor="middle" x="403" y="-1198.5" font-family="SF Pro Text Bold 10" font-size="15.00" fill="#000000">alloca</text>
</g>
<!-- n0x557bec3a7f80&#45;&gt;n0x557bec3a27c0 -->
<g id="edge13" class="edge">
<title>n0x557bec3a7f80&#45;&gt;n0x557bec3a27c0</title>
<path fill="none" stroke="#ff8800" stroke-width="5" stroke-dasharray="5,2" d="M1616.96,-918.08C1607.02,-921.07 1595.6,-924.12 1585,-926 1440.67,-951.66 1055.83,-903.06 927,-973 846.69,-1016.6 881.33,-1089.94 803,-1137 742.91,-1173.1 533.84,-1191.79 444.26,-1198.29"/>
<polygon fill="#ff8800" stroke="#ff8800" stroke-width="5" points="443.86,-1193.93 434.2,-1199 444.48,-1202.66 443.86,-1193.93"/>
</g>
<!-- n0x557bec3a8070&#45;&gt;n0x557bec3a8130 -->
<g id="edge4" class="edge">
<title>n0x557bec3a8070&#45;&gt;n0x557bec3a8130</title>
<path fill="none" stroke="#ff3636" stroke-width="3" d="M1644,-742.8C1644,-717.94 1644,-671.74 1644,-642.23"/>
<polygon fill="#ff3636" stroke="#ff3636" stroke-width="3" points="1647.5,-642.18 1644,-632.18 1640.5,-642.18 1647.5,-642.18"/>
</g>
<!-- n0x557bec3a8070&#45;&gt;n0x557bec3a8130 -->
<g id="edge16" class="edge">
<title>n0x557bec3a8070&#45;&gt;n0x557bec3a8130</title>
<path fill="none" stroke="#00b3ff" stroke-width="2" d="M1644.68,-742.89C1645.16,-730 1645.75,-711.89 1646,-696 1646.28,-678.06 1645.78,-657.89 1645.22,-642.16"/>
<polygon fill="#00b3ff" stroke="#00b3ff" stroke-width="2" points="1648.71,-641.92 1644.82,-632.06 1641.72,-642.19 1648.71,-641.92"/>
<text text-anchor="middle" x="1657.5" y="-684" font-family="SF Pro Text Bold 10" font-size="15.00">%3</text>
</g>
<!-- n0x557bec3a8070&#45;&gt;n0x557bec3a27c0 -->
<g id="edge17" class="edge">
<title>n0x557bec3a8070&#45;&gt;n0x557bec3a27c0</title>
<path fill="none" stroke="#ff8800" stroke-width="5" stroke-dasharray="5,2" d="M1660.35,-779.12C1689.52,-811.7 1743.86,-883.16 1704,-926 1654.6,-979.09 1119.98,-945.2 1053,-973 950.28,-1015.63 965.26,-1091.01 864,-1137 789.29,-1170.93 542.96,-1191.31 444.35,-1198.28"/>
<polygon fill="#ff8800" stroke="#ff8800" stroke-width="5" points="443.85,-1193.93 434.17,-1198.99 444.45,-1202.66 443.85,-1193.93"/>
</g>
<!-- n0x557bec3a81f0 -->
<g id="node6" class="node">
<title>n0x557bec3a81f0</title>
<path fill="#6d95df" stroke="#000000" d="M1659,-501C1659,-501 1629,-501 1629,-501 1623,-501 1617,-495 1617,-489 1617,-489 1617,-477 1617,-477 1617,-471 1623,-465 1629,-465 1629,-465 1659,-465 1659,-465 1665,-465 1671,-471 1671,-477 1671,-477 1671,-489 1671,-489 1671,-495 1665,-501 1659,-501"/>
<text text-anchor="middle" x="1644" y="-479.5" font-family="SF Pro Text Bold 10" font-size="15.00" fill="#000000">call</text>
</g>
<!-- n0x557bec3a8130&#45;&gt;n0x557bec3a81f0 -->
<g id="edge5" class="edge">
<title>n0x557bec3a8130&#45;&gt;n0x557bec3a81f0</title>
<path fill="none" stroke="#ff3636" stroke-width="3" d="M1644,-595.87C1644,-574.28 1644,-536.91 1644,-511.35"/>
<polygon fill="#ff3636" stroke="#ff3636" stroke-width="3" points="1647.5,-511.2 1644,-501.2 1640.5,-511.2 1647.5,-511.2"/>
</g>
<!-- n0x557bec3a8290 -->
<g id="node7" class="node">
<title>n0x557bec3a8290</title>
<path fill="#6d95df" stroke="#000000" d="M1659,-354C1659,-354 1629,-354 1629,-354 1623,-354 1617,-348 1617,-342 1617,-342 1617,-330 1617,-330 1617,-324 1623,-318 1629,-318 1629,-318 1659,-318 1659,-318 1665,-318 1671,-324 1671,-330 1671,-330 1671,-342 1671,-342 1671,-348 1665,-354 1659,-354"/>
<text text-anchor="middle" x="1644" y="-332.5" font-family="SF Pro Text Bold 10" font-size="15.00" fill="#000000">add</text>
</g>
<!-- n0x557bec3a8130&#45;&gt;n0x557bec3a8290 -->
<g id="edge20" class="edge">
<title>n0x557bec3a8130&#45;&gt;n0x557bec3a8290</title>
<path fill="none" stroke="#00b3ff" stroke-width="2" d="M1656.67,-595.89C1671.41,-574.83 1694.87,-537.37 1704,-501 1716.62,-450.74 1685.64,-394.48 1663.65,-362.64"/>
<polygon fill="#00b3ff" stroke="#00b3ff" stroke-width="2" points="1666.39,-360.45 1657.73,-354.34 1660.69,-364.51 1666.39,-360.45"/>
<text text-anchor="middle" x="1718" y="-479.5" font-family="SF Pro Text Bold 10" font-size="15.00">%4</text>
</g>
<!-- n0x557bec3a8130&#45;&gt;n0x557bec3a27c0 -->
<g id="edge21" class="edge">
<title>n0x557bec3a8130&#45;&gt;n0x557bec3a27c0</title>
<path fill="none" stroke="#ff8800" stroke-width="5" stroke-dasharray="5,2" d="M1662.77,-632.23C1675.7,-644.59 1692.84,-661.99 1706,-679 1774.75,-767.88 1836.17,-843.38 1760,-926 1672.65,-1020.74 1303.99,-931.47 1182,-973 1055.15,-1016.19 1054.96,-1091.29 929,-1137 839.66,-1169.42 551.89,-1191.2 444.19,-1198.39"/>
<polygon fill="#ff8800" stroke="#ff8800" stroke-width="5" points="443.74,-1194.04 434.05,-1199.06 444.31,-1202.77 443.74,-1194.04"/>
</g>
<!-- n0x557bec3a81f0&#45;&gt;n0x557bec3a8290 -->
<g id="edge6" class="edge">
<title>n0x557bec3a81f0&#45;&gt;n0x557bec3a8290</title>
<path fill="none" stroke="#ff3636" stroke-width="3" d="M1644,-464.8C1644,-439.94 1644,-393.74 1644,-364.23"/>
<polygon fill="#ff3636" stroke="#ff3636" stroke-width="3" points="1647.5,-364.18 1644,-354.18 1640.5,-364.18 1647.5,-364.18"/>
</g>
<!-- n0x557bec3a81f0&#45;&gt;n0x557bec3a8290 -->
<g id="edge22" class="edge">
<title>n0x557bec3a81f0&#45;&gt;n0x557bec3a8290</title>
<path fill="none" stroke="#00b3ff" stroke-width="2" d="M1644.82,-464.94C1645.51,-448.54 1646.34,-423.08 1646,-401 1645.81,-388.95 1645.42,-375.64 1645.04,-364.29"/>
<polygon fill="#00b3ff" stroke="#00b3ff" stroke-width="2" points="1648.53,-363.98 1644.68,-354.11 1641.54,-364.23 1648.53,-363.98"/>
<text text-anchor="middle" x="1657.5" y="-406" font-family="SF Pro Text Bold 10" font-size="15.00">%5</text>
</g>
<!-- n0x557bec3a81f0&#45;&gt;n0x557bec3a27c0 -->
<g id="edge23" class="edge">
<title>n0x557bec3a81f0&#45;&gt;n0x557bec3a27c0</title>
<path fill="none" stroke="#ff8800" stroke-width="5" stroke-dasharray="5,2" d="M1662.17,-501.13C1729.03,-566.1 1950.94,-799.96 1821,-926 1664.76,-1077.55 1554.65,-982.18 1344,-1037 1188.68,-1077.42 1154.49,-1106.07 997,-1137 791.76,-1177.31 541.29,-1193.83 444.2,-1199.02"/>
<polygon fill="#ff8800" stroke="#ff8800" stroke-width="5" points="443.96,-1194.65 434.2,-1199.55 444.42,-1203.39 443.96,-1194.65"/>
</g>
<!-- n0x557bec3a83f0 -->
<g id="node8" class="node">
<title>n0x557bec3a83f0</title>
<path fill="#6d95df" stroke="#000000" d="M1659,-207C1659,-207 1629,-207 1629,-207 1623,-207 1617,-201 1617,-195 1617,-195 1617,-183 1617,-183 1617,-177 1623,-171 1629,-171 1629,-171 1659,-171 1659,-171 1665,-171 1671,-177 1671,-183 1671,-183 1671,-195 1671,-195 1671,-201 1665,-207 1659,-207"/>
<text text-anchor="middle" x="1644" y="-185.5" font-family="SF Pro Text Bold 10" font-size="15.00" fill="#000000">call</text>
</g>
<!-- n0x557bec3a8290&#45;&gt;n0x557bec3a83f0 -->
<g id="edge7" class="edge">
<title>n0x557bec3a8290&#45;&gt;n0x557bec3a83f0</title>
<path fill="none" stroke="#ff3636" stroke-width="3" d="M1644,-317.8C1644,-292.94 1644,-246.74 1644,-217.23"/>
<polygon fill="#ff3636" stroke="#ff3636" stroke-width="3" points="1647.5,-217.18 1644,-207.18 1640.5,-217.18 1647.5,-217.18"/>
</g>
<!-- n0x557bec3a8290&#45;&gt;n0x557bec3a83f0 -->
<g id="edge26" class="edge">
<title>n0x557bec3a8290&#45;&gt;n0x557bec3a83f0</title>
<path fill="none" stroke="#00b3ff" stroke-width="2" d="M1644.68,-317.89C1645.16,-305 1645.75,-286.89 1646,-271 1646.28,-253.06 1645.78,-232.89 1645.22,-217.16"/>
<polygon fill="#00b3ff" stroke="#00b3ff" stroke-width="2" points="1648.71,-216.92 1644.82,-207.06 1641.72,-217.19 1648.71,-216.92"/>
<text text-anchor="middle" x="1658" y="-259" font-family="SF Pro Text Bold 10" font-size="15.00">%6</text>
</g>
<!-- n0x557bec339110 -->
<g id="node9" class="node">
<title>n0x557bec339110</title>
<path fill="#6d95df" stroke="#000000" d="M1659,-60C1659,-60 1629,-60 1629,-60 1623,-60 1617,-54 1617,-48 1617,-48 1617,-36 1617,-36 1617,-30 1623,-24 1629,-24 1629,-24 1659,-24 1659,-24 1665,-24 1671,-30 1671,-36 1671,-36 1671,-48 1671,-48 1671,-54 1665,-60 1659,-60"/>
<text text-anchor="middle" x="1644" y="-38.5" font-family="SF Pro Text Bold 10" font-size="15.00" fill="#000000">ret</text>
</g>
<!-- n0x557bec3a83f0&#45;&gt;n0x557bec339110 -->
<g id="edge8" class="edge">
<title>n0x557bec3a83f0&#45;&gt;n0x557bec339110</title>
<path fill="none" stroke="#ff3636" stroke-width="3" d="M1644,-170.8C1644,-145.94 1644,-99.74 1644,-70.23"/>
<polygon fill="#ff3636" stroke="#ff3636" stroke-width="3" points="1647.5,-70.18 1644,-60.18 1640.5,-70.18 1647.5,-70.18"/>
</g>
<!-- u0x557bec35ab50 -->
<g id="node10" class="node">
<title>u0x557bec35ab50</title>
<path fill="#d66868" stroke="#000000" d="M1659,-1351C1659,-1351 1629,-1351 1629,-1351 1623,-1351 1617,-1345 1617,-1339 1617,-1339 1617,-1327 1617,-1327 1617,-1321 1623,-1315 1629,-1315 1629,-1315 1659,-1315 1659,-1315 1665,-1315 1671,-1321 1671,-1327 1671,-1327 1671,-1339 1671,-1339 1671,-1345 1665,-1351 1659,-1351"/>
<text text-anchor="middle" x="1644" y="-1329.5" font-family="SF Pro Text Bold 10" font-size="15.00" fill="#000000">i32 1</text>
</g>
<!-- u0x557bec35ab50&#45;&gt;n0x557bec35ab70 -->
<g id="edge10" class="edge">
<title>u0x557bec35ab50&#45;&gt;n0x557bec35ab70</title>
<path fill="none" stroke="#00b3ff" stroke-width="2" d="M1644,-1314.87C1644,-1293.28 1644,-1255.91 1644,-1230.35"/>
<polygon fill="#00b3ff" stroke="#00b3ff" stroke-width="2" points="1647.5,-1230.2 1644,-1220.2 1640.5,-1230.2 1647.5,-1230.2"/>
</g>
<!-- u0x557bec365060 -->
<g id="node11" class="node">
<title>u0x557bec365060</title>
<path fill="#d66868" stroke="#000000" d="M1535.5,-1220C1535.5,-1220 1504.5,-1220 1504.5,-1220 1498.5,-1220 1492.5,-1214 1492.5,-1208 1492.5,-1208 1492.5,-1196 1492.5,-1196 1492.5,-1190 1498.5,-1184 1504.5,-1184 1504.5,-1184 1535.5,-1184 1535.5,-1184 1541.5,-1184 1547.5,-1190 1547.5,-1196 1547.5,-1196 1547.5,-1208 1547.5,-1208 1547.5,-1214 1541.5,-1220 1535.5,-1220"/>
<text text-anchor="middle" x="1520" y="-1198.5" font-family="SF Pro Text Bold 10" font-size="15.00" fill="#000000">i32 0</text>
</g>
<!-- u0x557bec365060&#45;&gt;n0x557bec3650a0 -->
<g id="edge11" class="edge">
<title>u0x557bec365060&#45;&gt;n0x557bec3650a0</title>
<path fill="none" stroke="#00b3ff" stroke-width="2" d="M1534.71,-1183.8C1556.53,-1158.29 1597.57,-1110.3 1622.68,-1080.93"/>
<polygon fill="#00b3ff" stroke="#00b3ff" stroke-width="2" points="1625.47,-1083.06 1629.31,-1073.18 1620.15,-1078.51 1625.47,-1083.06"/>
</g>
<!-- u0x557bec3a7f20 -->
<g id="node12" class="node">
<title>u0x557bec3a7f20</title>
<path fill="#d66868" stroke="#000000" d="M1539,-1073C1539,-1073 1509,-1073 1509,-1073 1503,-1073 1497,-1067 1497,-1061 1497,-1061 1497,-1049 1497,-1049 1497,-1043 1503,-1037 1509,-1037 1509,-1037 1539,-1037 1539,-1037 1545,-1037 1551,-1043 1551,-1049 1551,-1049 1551,-1061 1551,-1061 1551,-1067 1545,-1073 1539,-1073"/>
<text text-anchor="middle" x="1524" y="-1051.5" font-family="SF Pro Text Bold 10" font-size="15.00" fill="#000000">i32 3</text>
</g>
<!-- u0x557bec3a7f20&#45;&gt;n0x557bec3a7f80 -->
<g id="edge14" class="edge">
<title>u0x557bec3a7f20&#45;&gt;n0x557bec3a7f80</title>
<path fill="none" stroke="#00b3ff" stroke-width="2" d="M1538.24,-1036.8C1559.35,-1011.29 1599.07,-963.3 1623.37,-933.93"/>
<polygon fill="#00b3ff" stroke="#00b3ff" stroke-width="2" points="1626.1,-936.12 1629.78,-926.18 1620.71,-931.65 1626.1,-936.12"/>
</g>
<!-- u0x557bec3a7f40 -->
<g id="node13" class="node">
<title>u0x557bec3a7f40</title>
<path fill="#d66868" stroke="#000000" d="M1419.5,-1073C1419.5,-1073 1388.5,-1073 1388.5,-1073 1382.5,-1073 1376.5,-1067 1376.5,-1061 1376.5,-1061 1376.5,-1049 1376.5,-1049 1376.5,-1043 1382.5,-1037 1388.5,-1037 1388.5,-1037 1419.5,-1037 1419.5,-1037 1425.5,-1037 1431.5,-1043 1431.5,-1049 1431.5,-1049 1431.5,-1061 1431.5,-1061 1431.5,-1067 1425.5,-1073 1419.5,-1073"/>
<text text-anchor="middle" x="1404" y="-1051.5" font-family="SF Pro Text Bold 10" font-size="15.00" fill="#000000">i32 4</text>
</g>
<!-- u0x557bec3a7f40&#45;&gt;n0x557bec3a7f80 -->
<g id="edge15" class="edge">
<title>u0x557bec3a7f40&#45;&gt;n0x557bec3a7f80</title>
<path fill="none" stroke="#00b3ff" stroke-width="2" d="M1431.53,-1037.37C1475.11,-1011.04 1559.99,-959.76 1608.23,-930.61"/>
<polygon fill="#00b3ff" stroke="#00b3ff" stroke-width="2" points="1610.04,-933.61 1616.79,-925.44 1606.42,-927.61 1610.04,-933.61"/>
</g>
<!-- u0x557bec3a8010 -->
<g id="node14" class="node">
<title>u0x557bec3a8010</title>
<path fill="#d66868" stroke="#000000" d="M1540,-926C1540,-926 1510,-926 1510,-926 1504,-926 1498,-920 1498,-914 1498,-914 1498,-902 1498,-902 1498,-896 1504,-890 1510,-890 1510,-890 1540,-890 1540,-890 1546,-890 1552,-896 1552,-902 1552,-902 1552,-914 1552,-914 1552,-920 1546,-926 1540,-926"/>
<text text-anchor="middle" x="1525" y="-904.5" font-family="SF Pro Text Bold 10" font-size="15.00" fill="#000000">i32 5</text>
</g>
<!-- u0x557bec3a8010&#45;&gt;n0x557bec3a8070 -->
<g id="edge18" class="edge">
<title>u0x557bec3a8010&#45;&gt;n0x557bec3a8070</title>
<path fill="none" stroke="#00b3ff" stroke-width="2" d="M1539.12,-889.8C1560.05,-864.29 1599.44,-816.3 1623.54,-786.93"/>
<polygon fill="#00b3ff" stroke="#00b3ff" stroke-width="2" points="1626.26,-789.13 1629.9,-779.18 1620.85,-784.69 1626.26,-789.13"/>
</g>
<!-- u0x557bec3a8030 -->
<g id="node15" class="node">
<title>u0x557bec3a8030</title>
<path fill="#d66868" stroke="#000000" d="M1420.5,-926C1420.5,-926 1389.5,-926 1389.5,-926 1383.5,-926 1377.5,-920 1377.5,-914 1377.5,-914 1377.5,-902 1377.5,-902 1377.5,-896 1383.5,-890 1389.5,-890 1389.5,-890 1420.5,-890 1420.5,-890 1426.5,-890 1432.5,-896 1432.5,-902 1432.5,-902 1432.5,-914 1432.5,-914 1432.5,-920 1426.5,-926 1420.5,-926"/>
<text text-anchor="middle" x="1405" y="-904.5" font-family="SF Pro Text Bold 10" font-size="15.00" fill="#000000">i32 6</text>
</g>
<!-- u0x557bec3a8030&#45;&gt;n0x557bec3a8070 -->
<g id="edge19" class="edge">
<title>u0x557bec3a8030&#45;&gt;n0x557bec3a8070</title>
<path fill="none" stroke="#00b3ff" stroke-width="2" d="M1432.88,-890.08C1476.26,-863.76 1559.9,-813.02 1607.85,-783.93"/>
<polygon fill="#00b3ff" stroke="#00b3ff" stroke-width="2" points="1609.93,-786.77 1616.66,-778.59 1606.3,-780.78 1609.93,-786.77"/>
</g>
<!-- u0x557bec3a8190 -->
<g id="node16" class="node">
<title>u0x557bec3a8190</title>
<path fill="#d66868" stroke="#000000" d="M1540,-632C1540,-632 1510,-632 1510,-632 1504,-632 1498,-626 1498,-620 1498,-620 1498,-608 1498,-608 1498,-602 1504,-596 1510,-596 1510,-596 1540,-596 1540,-596 1546,-596 1552,-602 1552,-608 1552,-608 1552,-620 1552,-620 1552,-626 1546,-632 1540,-632"/>
<text text-anchor="middle" x="1525" y="-610.5" font-family="SF Pro Text Bold 10" font-size="15.00" fill="#000000">i32 3</text>
</g>
<!-- u0x557bec3a8190&#45;&gt;n0x557bec3a81f0 -->
<g id="edge24" class="edge">
<title>u0x557bec3a8190&#45;&gt;n0x557bec3a81f0</title>
<path fill="none" stroke="#00b3ff" stroke-width="2" d="M1540.8,-595.87C1561.43,-573.51 1597.67,-534.22 1621.25,-508.66"/>
<polygon fill="#00b3ff" stroke="#00b3ff" stroke-width="2" points="1623.92,-510.92 1628.13,-501.2 1618.78,-506.18 1623.92,-510.92"/>
</g>
<!-- u0x557bec3a81b0 -->
<g id="node17" class="node">
<title>u0x557bec3a81b0</title>
<path fill="#d66868" stroke="#000000" d="M1420.5,-632C1420.5,-632 1389.5,-632 1389.5,-632 1383.5,-632 1377.5,-626 1377.5,-620 1377.5,-620 1377.5,-608 1377.5,-608 1377.5,-602 1383.5,-596 1389.5,-596 1389.5,-596 1420.5,-596 1420.5,-596 1426.5,-596 1432.5,-602 1432.5,-608 1432.5,-608 1432.5,-620 1432.5,-620 1432.5,-626 1426.5,-632 1420.5,-632"/>
<text text-anchor="middle" x="1405" y="-610.5" font-family="SF Pro Text Bold 10" font-size="15.00" fill="#000000">i32 4</text>
</g>
<!-- u0x557bec3a81b0&#45;&gt;n0x557bec3a81f0 -->
<g id="edge25" class="edge">
<title>u0x557bec3a81b0&#45;&gt;n0x557bec3a81f0</title>
<path fill="none" stroke="#00b3ff" stroke-width="2" d="M1432.88,-597.95C1476.26,-574.54 1559.9,-529.39 1607.85,-503.51"/>
<polygon fill="#00b3ff" stroke="#00b3ff" stroke-width="2" points="1609.52,-506.59 1616.66,-498.76 1606.2,-500.43 1609.52,-506.59"/>
</g>
<!-- u0x557bec3a8390 -->
<g id="node18" class="node">
<title>u0x557bec3a8390</title>
<path fill="#d66868" stroke="#000000" d="M1539.5,-354C1539.5,-354 1480.5,-354 1480.5,-354 1474.5,-354 1468.5,-348 1468.5,-342 1468.5,-342 1468.5,-330 1468.5,-330 1468.5,-324 1474.5,-318 1480.5,-318 1480.5,-318 1539.5,-318 1539.5,-318 1545.5,-318 1551.5,-324 1551.5,-330 1551.5,-330 1551.5,-342 1551.5,-342 1551.5,-348 1545.5,-354 1539.5,-354"/>
<text text-anchor="middle" x="1510" y="-332.5" font-family="SF Pro Text Bold 10" font-size="15.00" fill="#000000">ptr @.str</text>
</g>
<!-- u0x557bec3a8390&#45;&gt;n0x557bec3a83f0 -->
<g id="edge27" class="edge">
<title>u0x557bec3a8390&#45;&gt;n0x557bec3a83f0</title>
<path fill="none" stroke="#00b3ff" stroke-width="2" d="M1525.9,-317.8C1549.57,-292.18 1594.2,-243.89 1621.3,-214.56"/>
<polygon fill="#00b3ff" stroke="#00b3ff" stroke-width="2" points="1623.91,-216.9 1628.12,-207.18 1618.77,-212.15 1623.91,-216.9"/>
</g>
<!-- u0x557bec3a83d0 -->
<g id="node19" class="node">
<title>u0x557bec3a83d0</title>
<path fill="#d66868" stroke="#000000" d="M1391,-354C1391,-354 1315,-354 1315,-354 1309,-354 1303,-348 1303,-342 1303,-342 1303,-330 1303,-330 1303,-324 1309,-318 1315,-318 1315,-318 1391,-318 1391,-318 1397,-318 1403,-324 1403,-330 1403,-330 1403,-342 1403,-342 1403,-348 1397,-354 1391,-354"/>
<text text-anchor="middle" x="1353" y="-332.5" font-family="SF Pro Text Bold 10" font-size="15.00" fill="#000000">ptr @printf</text>
</g>
<!-- u0x557bec3a83d0&#45;&gt;n0x557bec3a83f0 -->
<g id="edge28" class="edge">
<title>u0x557bec3a83d0&#45;&gt;n0x557bec3a83f0</title>
<path fill="none" stroke="#00b3ff" stroke-width="2" d="M1387.24,-317.94C1442.48,-290.41 1550.82,-236.43 1607.49,-208.19"/>
<polygon fill="#00b3ff" stroke="#00b3ff" stroke-width="2" points="1609.39,-211.15 1616.78,-203.56 1606.27,-204.89 1609.39,-211.15"/>
</g>
<!-- u0x557bec3390f0 -->
<g id="node20" class="node">
<title>u0x557bec3390f0</title>
<path fill="#d66868" stroke="#000000" d="M1539.5,-207C1539.5,-207 1508.5,-207 1508.5,-207 1502.5,-207 1496.5,-201 1496.5,-195 1496.5,-195 1496.5,-183 1496.5,-183 1496.5,-177 1502.5,-171 1508.5,-171 1508.5,-171 1539.5,-171 1539.5,-171 1545.5,-171 1551.5,-177 1551.5,-183 1551.5,-183 1551.5,-195 1551.5,-195 1551.5,-201 1545.5,-207 1539.5,-207"/>
<text text-anchor="middle" x="1524" y="-185.5" font-family="SF Pro Text Bold 10" font-size="15.00" fill="#000000">i32 0</text>
</g>
<!-- u0x557bec3390f0&#45;&gt;n0x557bec339110 -->
<g id="edge29" class="edge">
<title>u0x557bec3390f0&#45;&gt;n0x557bec339110</title>
<path fill="none" stroke="#00b3ff" stroke-width="2" d="M1538.24,-170.8C1559.35,-145.29 1599.07,-97.3 1623.37,-67.93"/>
<polygon fill="#00b3ff" stroke="#00b3ff" stroke-width="2" points="1626.1,-70.12 1629.78,-60.18 1620.71,-65.65 1626.1,-70.12"/>
</g>
<!-- n0x557bec3a2840 -->
<g id="node22" class="node">
<title>n0x557bec3a2840</title>
<path fill="#6d95df" stroke="#000000" d="M422,-1073C422,-1073 384,-1073 384,-1073 378,-1073 372,-1067 372,-1061 372,-1061 372,-1049 372,-1049 372,-1043 378,-1037 384,-1037 384,-1037 422,-1037 422,-1037 428,-1037 434,-1043 434,-1049 434,-1049 434,-1061 434,-1061 434,-1067 428,-1073 422,-1073"/>
<text text-anchor="middle" x="403" y="-1051.5" font-family="SF Pro Text Bold 10" font-size="15.00" fill="#000000">alloca</text>
</g>
<!-- n0x557bec3a27c0&#45;&gt;n0x557bec3a2840 -->
<g id="edge30" class="edge">
<title>n0x557bec3a27c0&#45;&gt;n0x557bec3a2840</title>
<path fill="none" stroke="#ff3636" stroke-width="3" d="M403,-1183.8C403,-1158.94 403,-1112.74 403,-1083.23"/>
<polygon fill="#ff3636" stroke="#ff3636" stroke-width="3" points="406.5,-1083.18 403,-1073.18 399.5,-1083.18 406.5,-1083.18"/>
</g>
<!-- n0x557bec3a8490 -->
<g id="node23" class="node">
<title>n0x557bec3a8490</title>
<path fill="#6d95df" stroke="#000000" d="M418.5,-926C418.5,-926 387.5,-926 387.5,-926 381.5,-926 375.5,-920 375.5,-914 375.5,-914 375.5,-902 375.5,-902 375.5,-896 381.5,-890 387.5,-890 387.5,-890 418.5,-890 418.5,-890 424.5,-890 430.5,-896 430.5,-902 430.5,-902 430.5,-914 430.5,-914 430.5,-920 424.5,-926 418.5,-926"/>
<text text-anchor="middle" x="403" y="-904.5" font-family="SF Pro Text Bold 10" font-size="15.00" fill="#000000">store</text>
</g>
<!-- n0x557bec3a27c0&#45;&gt;n0x557bec3a8490 -->
<g id="edge39" class="edge">
<title>n0x557bec3a27c0&#45;&gt;n0x557bec3a8490</title>
<path fill="none" stroke="#00b3ff" stroke-width="2" d="M417.08,-1183.79C439.35,-1154.45 478.93,-1092.55 466,-1037 457.2,-999.19 435.56,-959.69 420.1,-934.75"/>
<polygon fill="#00b3ff" stroke="#00b3ff" stroke-width="2" points="423.02,-932.83 414.72,-926.25 417.11,-936.57 423.02,-932.83"/>
<text text-anchor="middle" x="480.5" y="-1051.5" font-family="SF Pro Text Bold 10" font-size="15.00">%3</text>
</g>
<!-- n0x557bec3ac110 -->
<g id="node25" class="node">
<title>n0x557bec3ac110</title>
<path fill="#6d95df" stroke="#000000" d="M418,-632C418,-632 388,-632 388,-632 382,-632 376,-626 376,-620 376,-620 376,-608 376,-608 376,-602 382,-596 388,-596 388,-596 418,-596 418,-596 424,-596 430,-602 430,-608 430,-608 430,-620 430,-620 430,-626 424,-632 418,-632"/>
<text text-anchor="middle" x="403" y="-610.5" font-family="SF Pro Text Bold 10" font-size="15.00" fill="#000000">load</text>
</g>
<!-- n0x557bec3a27c0&#45;&gt;n0x557bec3ac110 -->
<g id="edge38" class="edge">
<title>n0x557bec3a27c0&#45;&gt;n0x557bec3ac110</title>
<path fill="none" stroke="#00b3ff" stroke-width="2" d="M434.12,-1200.54C504.94,-1197.61 677.73,-1179.35 752,-1073 874.06,-898.22 550.58,-696.81 439.15,-634.42"/>
<polygon fill="#00b3ff" stroke="#00b3ff" stroke-width="2" points="440.71,-631.29 430.27,-629.5 437.32,-637.41 440.71,-631.29"/>
<text text-anchor="middle" x="777.5" y="-904.5" font-family="SF Pro Text Bold 10" font-size="15.00">%3</text>
</g>
<!-- n0x557bec3a2840&#45;&gt;n0x557bec3a8490 -->
<g id="edge31" class="edge">
<title>n0x557bec3a2840&#45;&gt;n0x557bec3a8490</title>
<path fill="none" stroke="#ff3636" stroke-width="3" d="M403,-1036.8C403,-1011.94 403,-965.74 403,-936.23"/>
<polygon fill="#ff3636" stroke="#ff3636" stroke-width="3" points="406.5,-936.18 403,-926.18 399.5,-936.18 406.5,-936.18"/>
</g>
<!-- n0x557bec3ac090 -->
<g id="node24" class="node">
<title>n0x557bec3ac090</title>
<path fill="#6d95df" stroke="#000000" d="M418.5,-779C418.5,-779 387.5,-779 387.5,-779 381.5,-779 375.5,-773 375.5,-767 375.5,-767 375.5,-755 375.5,-755 375.5,-749 381.5,-743 387.5,-743 387.5,-743 418.5,-743 418.5,-743 424.5,-743 430.5,-749 430.5,-755 430.5,-755 430.5,-767 430.5,-767 430.5,-773 424.5,-779 418.5,-779"/>
<text text-anchor="middle" x="403" y="-757.5" font-family="SF Pro Text Bold 10" font-size="15.00" fill="#000000">store</text>
</g>
<!-- n0x557bec3a2840&#45;&gt;n0x557bec3ac090 -->
<g id="edge42" class="edge">
<title>n0x557bec3a2840&#45;&gt;n0x557bec3ac090</title>
<path fill="none" stroke="#00b3ff" stroke-width="2" d="M371.87,-1046C322.67,-1031.49 228.51,-995.67 189,-926 143.79,-846.28 292.91,-792.57 365.55,-771.72"/>
<polygon fill="#00b3ff" stroke="#00b3ff" stroke-width="2" points="366.58,-775.06 375.27,-769 364.69,-768.32 366.58,-775.06"/>
<text text-anchor="middle" x="201" y="-904.5" font-family="SF Pro Text Bold 10" font-size="15.00">%4</text>
</g>
<!-- n0x557bec3ac190 -->
<g id="node26" class="node">
<title>n0x557bec3ac190</title>
<path fill="#6d95df" stroke="#000000" d="M418,-501C418,-501 388,-501 388,-501 382,-501 376,-495 376,-489 376,-489 376,-477 376,-477 376,-471 382,-465 388,-465 388,-465 418,-465 418,-465 424,-465 430,-471 430,-477 430,-477 430,-489 430,-489 430,-495 424,-501 418,-501"/>
<text text-anchor="middle" x="403" y="-479.5" font-family="SF Pro Text Bold 10" font-size="15.00" fill="#000000">load</text>
</g>
<!-- n0x557bec3a2840&#45;&gt;n0x557bec3ac190 -->
<g id="edge41" class="edge">
<title>n0x557bec3a2840&#45;&gt;n0x557bec3ac190</title>
<path fill="none" stroke="#00b3ff" stroke-width="2" d="M371.99,-1049.25C332.3,-1041.97 262.85,-1025.02 214,-990 173.77,-961.16 153.63,-938.17 165,-890 202.92,-729.37 329.18,-569.45 380.76,-509.13"/>
<polygon fill="#00b3ff" stroke="#00b3ff" stroke-width="2" points="383.64,-511.15 387.52,-501.29 378.34,-506.58 383.64,-511.15"/>
<text text-anchor="middle" x="232" y="-757.5" font-family="SF Pro Text Bold 10" font-size="15.00">%4</text>
</g>
<!-- n0x557bec3a8490&#45;&gt;n0x557bec3ac090 -->
<g id="edge32" class="edge">
<title>n0x557bec3a8490&#45;&gt;n0x557bec3ac090</title>
<path fill="none" stroke="#ff3636" stroke-width="3" d="M403,-889.8C403,-864.94 403,-818.74 403,-789.23"/>
<polygon fill="#ff3636" stroke="#ff3636" stroke-width="3" points="406.5,-789.18 403,-779.18 399.5,-789.18 406.5,-789.18"/>
</g>
<!-- n0x557bec3ac090&#45;&gt;n0x557bec3ac110 -->
<g id="edge33" class="edge">
<title>n0x557bec3ac090&#45;&gt;n0x557bec3ac110</title>
<path fill="none" stroke="#ff3636" stroke-width="3" d="M403,-742.8C403,-717.94 403,-671.74 403,-642.23"/>
<polygon fill="#ff3636" stroke="#ff3636" stroke-width="3" points="406.5,-642.18 403,-632.18 399.5,-642.18 406.5,-642.18"/>
</g>
<!-- n0x557bec3ac110&#45;&gt;n0x557bec3ac190 -->
<g id="edge34" class="edge">
<title>n0x557bec3ac110&#45;&gt;n0x557bec3ac190</title>
<path fill="none" stroke="#ff3636" stroke-width="3" d="M403,-595.87C403,-574.28 403,-536.91 403,-511.35"/>
<polygon fill="#ff3636" stroke="#ff3636" stroke-width="3" points="406.5,-511.2 403,-501.2 399.5,-511.2 406.5,-511.2"/>
</g>
<!-- n0x557bec3ac2c0 -->
<g id="node28" class="node">
<title>n0x557bec3ac2c0</title>
<path fill="#6d95df" stroke="#000000" d="M418,-207C418,-207 388,-207 388,-207 382,-207 376,-201 376,-195 376,-195 376,-183 376,-183 376,-177 382,-171 388,-171 388,-171 418,-171 418,-171 424,-171 430,-177 430,-183 430,-183 430,-195 430,-195 430,-201 424,-207 418,-207"/>
<text text-anchor="middle" x="403" y="-185.5" font-family="SF Pro Text Bold 10" font-size="15.00" fill="#000000">add</text>
</g>
<!-- n0x557bec3ac110&#45;&gt;n0x557bec3ac2c0 -->
<g id="edge46" class="edge">
<title>n0x557bec3ac110&#45;&gt;n0x557bec3ac2c0</title>
<path fill="none" stroke="#00b3ff" stroke-width="2" d="M430.16,-605.27C485.33,-587.88 603.49,-541.12 581,-465 550.37,-361.32 467.09,-259.99 426.23,-214.68"/>
<polygon fill="#00b3ff" stroke="#00b3ff" stroke-width="2" points="428.68,-212.17 419.35,-207.14 423.51,-216.89 428.68,-212.17"/>
<text text-anchor="middle" x="575.5" y="-406" font-family="SF Pro Text Bold 10" font-size="15.00">%5</text>
</g>
<!-- n0x557bec3ac230 -->
<g id="node27" class="node">
<title>n0x557bec3ac230</title>
<path fill="#6d95df" stroke="#000000" d="M418,-354C418,-354 388,-354 388,-354 382,-354 376,-348 376,-342 376,-342 376,-330 376,-330 376,-324 382,-318 388,-318 388,-318 418,-318 418,-318 424,-318 430,-324 430,-330 430,-330 430,-342 430,-342 430,-348 424,-354 418,-354"/>
<text text-anchor="middle" x="403" y="-332.5" font-family="SF Pro Text Bold 10" font-size="15.00" fill="#000000">mul</text>
</g>
<!-- n0x557bec3ac190&#45;&gt;n0x557bec3ac230 -->
<g id="edge35" class="edge">
<title>n0x557bec3ac190&#45;&gt;n0x557bec3ac230</title>
<path fill="none" stroke="#ff3636" stroke-width="3" d="M403,-464.8C403,-439.94 403,-393.74 403,-364.23"/>
<polygon fill="#ff3636" stroke="#ff3636" stroke-width="3" points="406.5,-364.18 403,-354.18 399.5,-364.18 406.5,-364.18"/>
</g>
<!-- n0x557bec3ac190&#45;&gt;n0x557bec3ac230 -->
<g id="edge47" class="edge">
<title>n0x557bec3ac190&#45;&gt;n0x557bec3ac230</title>
<path fill="none" stroke="#00b3ff" stroke-width="2" d="M403.82,-464.94C404.51,-448.54 405.34,-423.08 405,-401 404.81,-388.95 404.42,-375.64 404.04,-364.29"/>
<polygon fill="#00b3ff" stroke="#00b3ff" stroke-width="2" points="407.53,-363.98 403.68,-354.11 400.54,-364.23 407.53,-363.98"/>
<text text-anchor="middle" x="418" y="-406" font-family="SF Pro Text Bold 10" font-size="15.00">%6</text>
</g>
<!-- n0x557bec3ac230&#45;&gt;n0x557bec3ac2c0 -->
<g id="edge36" class="edge">
<title>n0x557bec3ac230&#45;&gt;n0x557bec3ac2c0</title>
<path fill="none" stroke="#ff3636" stroke-width="3" d="M403,-317.8C403,-292.94 403,-246.74 403,-217.23"/>
<polygon fill="#ff3636" stroke="#ff3636" stroke-width="3" points="406.5,-217.18 403,-207.18 399.5,-217.18 406.5,-217.18"/>
</g>
<!-- n0x557bec3ac230&#45;&gt;n0x557bec3ac2c0 -->
<g id="edge48" class="edge">
<title>n0x557bec3ac230&#45;&gt;n0x557bec3ac2c0</title>
<path fill="none" stroke="#00b3ff" stroke-width="2" d="M403.82,-317.94C404.51,-301.54 405.34,-276.08 405,-254 404.81,-241.95 404.42,-228.64 404.04,-217.29"/>
<polygon fill="#00b3ff" stroke="#00b3ff" stroke-width="2" points="407.53,-216.98 403.68,-207.11 400.54,-217.23 407.53,-216.98"/>
<text text-anchor="middle" x="417" y="-259" font-family="SF Pro Text Bold 10" font-size="15.00">%7</text>
</g>
<!-- n0x557bec3ac3d0 -->
<g id="node29" class="node">
<title>n0x557bec3ac3d0</title>
<path fill="#6d95df" stroke="#000000" d="M418,-60C418,-60 388,-60 388,-60 382,-60 376,-54 376,-48 376,-48 376,-36 376,-36 376,-30 382,-24 388,-24 388,-24 418,-24 418,-24 424,-24 430,-30 430,-36 430,-36 430,-48 430,-48 430,-54 424,-60 418,-60"/>
<text text-anchor="middle" x="403" y="-38.5" font-family="SF Pro Text Bold 10" font-size="15.00" fill="#000000">ret</text>
</g>
<!-- n0x557bec3ac2c0&#45;&gt;n0x557bec3ac3d0 -->
<g id="edge37" class="edge">
<title>n0x557bec3ac2c0&#45;&gt;n0x557bec3ac3d0</title>
<path fill="none" stroke="#ff3636" stroke-width="3" d="M403,-170.8C403,-145.94 403,-99.74 403,-70.23"/>
<polygon fill="#ff3636" stroke="#ff3636" stroke-width="3" points="406.5,-70.18 403,-60.18 399.5,-70.18 406.5,-70.18"/>
</g>
<!-- n0x557bec3ac2c0&#45;&gt;n0x557bec3ac3d0 -->
<g id="edge50" class="edge">
<title>n0x557bec3ac2c0&#45;&gt;n0x557bec3ac3d0</title>
<path fill="none" stroke="#00b3ff" stroke-width="2" d="M403.68,-170.89C404.16,-158 404.75,-139.89 405,-124 405.28,-106.06 404.78,-85.89 404.22,-70.16"/>
<polygon fill="#00b3ff" stroke="#00b3ff" stroke-width="2" points="407.71,-69.92 403.82,-60.06 400.72,-70.19 407.71,-69.92"/>
<text text-anchor="middle" x="418" y="-112" font-family="SF Pro Text Bold 10" font-size="15.00">%8</text>
</g>
<!-- u0x557bec3a27a0 -->
<g id="node30" class="node">
<title>u0x557bec3a27a0</title>
<path fill="#d66868" stroke="#000000" d="M418,-1351C418,-1351 388,-1351 388,-1351 382,-1351 376,-1345 376,-1339 376,-1339 376,-1327 376,-1327 376,-1321 382,-1315 388,-1315 388,-1315 418,-1315 418,-1315 424,-1315 430,-1321 430,-1327 430,-1327 430,-1339 430,-1339 430,-1345 424,-1351 418,-1351"/>
<text text-anchor="middle" x="403" y="-1329.5" font-family="SF Pro Text Bold 10" font-size="15.00" fill="#000000">i32 1</text>
</g>
<!-- u0x557bec3a27a0&#45;&gt;n0x557bec3a27c0 -->
<g id="edge40" class="edge">
<title>u0x557bec3a27a0&#45;&gt;n0x557bec3a27c0</title>
<path fill="none" stroke="#00b3ff" stroke-width="2" d="M403,-1314.87C403,-1293.28 403,-1255.91 403,-1230.35"/>
<polygon fill="#00b3ff" stroke="#00b3ff" stroke-width="2" points="406.5,-1230.2 403,-1220.2 399.5,-1230.2 406.5,-1230.2"/>
</g>
<!-- u0x557bec3a2820 -->
<g id="node31" class="node">
<title>u0x557bec3a2820</title>
<path fill="#d66868" stroke="#000000" d="M295,-1220C295,-1220 265,-1220 265,-1220 259,-1220 253,-1214 253,-1208 253,-1208 253,-1196 253,-1196 253,-1190 259,-1184 265,-1184 265,-1184 295,-1184 295,-1184 301,-1184 307,-1190 307,-1196 307,-1196 307,-1208 307,-1208 307,-1214 301,-1220 295,-1220"/>
<text text-anchor="middle" x="280" y="-1198.5" font-family="SF Pro Text Bold 10" font-size="15.00" fill="#000000">i32 1</text>
</g>
<!-- u0x557bec3a2820&#45;&gt;n0x557bec3a2840 -->
<g id="edge43" class="edge">
<title>u0x557bec3a2820&#45;&gt;n0x557bec3a2840</title>
<path fill="none" stroke="#00b3ff" stroke-width="2" d="M294.59,-1183.8C316.23,-1158.29 356.94,-1110.3 381.85,-1080.93"/>
<polygon fill="#00b3ff" stroke="#00b3ff" stroke-width="2" points="384.63,-1083.07 388.43,-1073.18 379.29,-1078.54 384.63,-1083.07"/>
</g>
<!-- u0x557bec3a8450 -->
<g id="node32" class="node">
<title>u0x557bec3a8450</title>
<path fill="#d66868" stroke="#000000" d="M708,-1073C708,-1073 664,-1073 664,-1073 658,-1073 652,-1067 652,-1061 652,-1061 652,-1049 652,-1049 652,-1043 658,-1037 664,-1037 664,-1037 708,-1037 708,-1037 714,-1037 720,-1043 720,-1049 720,-1049 720,-1061 720,-1061 720,-1067 714,-1073 708,-1073"/>
<text text-anchor="middle" x="686" y="-1051.5" font-family="SF Pro Text Bold 10" font-size="15.00" fill="#000000">i32 %0</text>
</g>
<!-- u0x557bec3a8450&#45;&gt;n0x557bec3a8490 -->
<g id="edge44" class="edge">
<title>u0x557bec3a8450&#45;&gt;n0x557bec3a8490</title>
<path fill="none" stroke="#00b3ff" stroke-width="2" d="M667.53,-1036.84C647.48,-1018.94 613.91,-991.03 581,-973 535.19,-947.91 477.6,-929.29 440.54,-918.79"/>
<polygon fill="#00b3ff" stroke="#00b3ff" stroke-width="2" points="441.24,-915.35 430.66,-916.04 439.36,-922.09 441.24,-915.35"/>
<text text-anchor="middle" x="618" y="-978" font-family="SF Pro Text Bold 10" font-size="15.00">%0</text>
</g>
<!-- u0x557bec3ac050 -->
<g id="node33" class="node">
<title>u0x557bec3ac050</title>
<path fill="#d66868" stroke="#000000" d="M298.5,-926C298.5,-926 257.5,-926 257.5,-926 251.5,-926 245.5,-920 245.5,-914 245.5,-914 245.5,-902 245.5,-902 245.5,-896 251.5,-890 257.5,-890 257.5,-890 298.5,-890 298.5,-890 304.5,-890 310.5,-896 310.5,-902 310.5,-902 310.5,-914 310.5,-914 310.5,-920 304.5,-926 298.5,-926"/>
<text text-anchor="middle" x="278" y="-904.5" font-family="SF Pro Text Bold 10" font-size="15.00" fill="#000000">i32 %1</text>
</g>
<!-- u0x557bec3ac050&#45;&gt;n0x557bec3ac090 -->
<g id="edge45" class="edge">
<title>u0x557bec3ac050&#45;&gt;n0x557bec3ac090</title>
<path fill="none" stroke="#00b3ff" stroke-width="2" d="M292.83,-889.8C314.82,-864.29 356.19,-816.3 381.51,-786.93"/>
<polygon fill="#00b3ff" stroke="#00b3ff" stroke-width="2" points="384.31,-789.04 388.19,-779.18 379.01,-784.47 384.31,-789.04"/>
<text text-anchor="middle" x="355.5" y="-831" font-family="SF Pro Text Bold 10" font-size="15.00">%1</text>
</g>
<!-- u0x557bec3ac210 -->
<g id="node34" class="node">
<title>u0x557bec3ac210</title>
<path fill="#d66868" stroke="#000000" d="M537,-501C537,-501 507,-501 507,-501 501,-501 495,-495 495,-489 495,-489 495,-477 495,-477 495,-471 501,-465 507,-465 507,-465 537,-465 537,-465 543,-465 549,-471 549,-477 549,-477 549,-489 549,-489 549,-495 543,-501 537,-501"/>
<text text-anchor="middle" x="522" y="-479.5" font-family="SF Pro Text Bold 10" font-size="15.00" fill="#000000">i32 2</text>
</g>
<!-- u0x557bec3ac210&#45;&gt;n0x557bec3ac230 -->
<g id="edge49" class="edge">
<title>u0x557bec3ac210&#45;&gt;n0x557bec3ac230</title>
<path fill="none" stroke="#00b3ff" stroke-width="2" d="M507.88,-464.8C486.95,-439.29 447.56,-391.3 423.46,-361.93"/>
<polygon fill="#00b3ff" stroke="#00b3ff" stroke-width="2" points="426.15,-359.69 417.1,-354.18 420.74,-364.13 426.15,-359.69"/>
</g>
</g>
</svg>
