<?xml version="1.0" encoding="UTF-8" standalone="no"?>
<!DOCTYPE svg PUBLIC "-//W3C//DTD SVG 1.1//EN"
 "http://www.w3.org/Graphics/SVG/1.1/DTD/svg11.dtd">
<!-- Generated by graphviz version 2.43.0 (0)
 -->
<!-- Title: examples/calc/calc.c Pages: 1 -->
<svg width="1052pt" height="1052pt"
 viewBox="0.00 0.00 1052.20 1052.20" xmlns="http://www.w3.org/2000/svg" xmlns:xlink="http://www.w3.org/1999/xlink">
<g id="graph0" class="graph" transform="scale(1 1) rotate(0) translate(21.6 1030.6)">
<title>examples/calc/calc.c</title>
<polygon fill="white" stroke="transparent" points="-21.6,21.6 -21.6,-1030.6 1030.6,-1030.6 1030.6,21.6 -21.6,21.6"/>
<g id="clust1" class="cluster">
<title>cluster_func_1</title>
<path fill="#e3e3e3" stroke="#000000" stroke-width="2" d="M619,-8C619,-8 989,-8 989,-8 995,-8 1001,-14 1001,-20 1001,-20 1001,-989 1001,-989 1001,-995 995,-1001 989,-1001 989,-1001 619,-1001 619,-1001 613,-1001 607,-995 607,-989 607,-989 607,-20 607,-20 607,-14 613,-8 619,-8"/>
<text text-anchor="middle" x="804" y="-981" font-family="SF Pro Text Bold 10" font-size="20.00">main</text>
</g>
<g id="clust2" class="cluster">
<title>cluster_func_1_bb_1</title>
<path fill="#a4a4a4" stroke="#000000" stroke-width="2" d="M627,-16C627,-16 981,-16 981,-16 987,-16 993,-22 993,-28 993,-28 993,-951 993,-951 993,-957 987,-963 981,-963 981,-963 627,-963 627,-963 621,-963 615,-957 615,-951 615,-951 615,-28 615,-28 615,-22 621,-16 627,-16"/>
</g>
<g id="clust4" class="cluster">
<title>cluster_func_3</title>
<path fill="#e3e3e3" stroke="#000000" stroke-width="2" d="M20,-8C20,-8 471,-8 471,-8 477,-8 483,-14 483,-20 483,-20 483,-989 483,-989 483,-995 477,-1001 471,-1001 471,-1001 20,-1001 20,-1001 14,-1001 8,-995 8,-989 8,-989 8,-20 8,-20 8,-14 14,-8 20,-8"/>
<text text-anchor="middle" x="245.5" y="-981" font-family="SF Pro Text Bold 10" font-size="20.00">func</text>
</g>
<g id="clust5" class="cluster">
<title>cluster_func_3_bb_1</title>
<path fill="#a4a4a4" stroke="#000000" stroke-width="2" d="M28,-16C28,-16 463,-16 463,-16 469,-16 475,-22 475,-28 475,-28 475,-951 475,-951 475,-957 469,-963 463,-963 463,-963 28,-963 28,-963 22,-963 16,-957 16,-951 16,-951 16,-28 16,-28 16,-22 22,-16 28,-16"/>
</g>
<!-- n0x645f14d8fe70 -->
<g id="node1" class="node">
<title>n0x645f14d8fe70</title>
<path fill="#6d95df" stroke="#000000" d="M903,-868C903,-868 865,-868 865,-868 859,-868 853,-862 853,-856 853,-856 853,-844 853,-844 853,-838 859,-832 865,-832 865,-832 903,-832 903,-832 909,-832 915,-838 915,-844 915,-844 915,-856 915,-856 915,-862 909,-868 903,-868"/>
<text text-anchor="middle" x="884" y="-846.5" font-family="SF Pro Text Bold 10" font-size="15.00" fill="#000000">alloca</text>
</g>
<!-- n0x645f14d9a3e0 -->
<g id="node2" class="node">
<title>n0x645f14d9a3e0</title>
<path fill="#6d95df" stroke="#000000" d="M899.5,-765C899.5,-765 868.5,-765 868.5,-765 862.5,-765 856.5,-759 856.5,-753 856.5,-753 856.5,-741 856.5,-741 856.5,-735 862.5,-729 868.5,-729 868.5,-729 899.5,-729 899.5,-729 905.5,-729 911.5,-735 911.5,-741 911.5,-741 911.5,-753 911.5,-753 911.5,-759 905.5,-765 899.5,-765"/>
<text text-anchor="middle" x="884" y="-743.5" font-family="SF Pro Text Bold 10" font-size="15.00" fill="#000000">store</text>
</g>
<!-- n0x645f14d8fe70&#45;&gt;n0x645f14d9a3e0 -->
<g id="edge1" class="edge">
<title>n0x645f14d8fe70&#45;&gt;n0x645f14d9a3e0</title>
<path fill="none" stroke="#ff8800" stroke-width="5" d="M884,-831.87C884,-816.41 884,-793.42 884,-775.41"/>
<polygon fill="#ff8800" stroke="#ff8800" stroke-width="5" points="888.38,-775.22 884,-765.22 879.63,-775.22 888.38,-775.22"/>
</g>
<!-- n0x645f14d8fe70&#45;&gt;n0x645f14d9a3e0 -->
<g id="edge9" class="edge">
<title>n0x645f14d8fe70&#45;&gt;n0x645f14d9a3e0</title>
<path fill="none" stroke="#00b3ff" stroke-width="2" d="M885,-831.84C885.4,-824.23 885.81,-815.17 886,-807 886.25,-796.62 885.99,-785.21 885.58,-775.21"/>
<polygon fill="#00b3ff" stroke="#00b3ff" stroke-width="2" points="889.07,-774.86 885.1,-765.04 882.07,-775.19 889.07,-774.86"/>
<text text-anchor="middle" x="896.5" y="-795" font-family="SF Pro Text Bold 10" font-size="15.00">%1</text>
</g>
<!-- n0x645f14ddd2c0 -->
<g id="node3" class="node">
<title>n0x645f14ddd2c0</title>
<path fill="#6d95df" stroke="#000000" d="M899,-662C899,-662 869,-662 869,-662 863,-662 857,-656 857,-650 857,-650 857,-638 857,-638 857,-632 863,-626 869,-626 869,-626 899,-626 899,-626 905,-626 911,-632 911,-638 911,-638 911,-650 911,-650 911,-656 905,-662 899,-662"/>
<text text-anchor="middle" x="884" y="-640.5" font-family="SF Pro Text Bold 10" font-size="15.00" fill="#000000">call</text>
</g>
<!-- n0x645f14d9a3e0&#45;&gt;n0x645f14ddd2c0 -->
<g id="edge2" class="edge">
<title>n0x645f14d9a3e0&#45;&gt;n0x645f14ddd2c0</title>
<path fill="none" stroke="#ff8800" stroke-width="5" d="M884,-728.87C884,-713.41 884,-690.42 884,-672.41"/>
<polygon fill="#ff8800" stroke="#ff8800" stroke-width="5" points="888.38,-672.22 884,-662.22 879.63,-672.22 888.38,-672.22"/>
</g>
<!-- n0x645f14ddd3b0 -->
<g id="node4" class="node">
<title>n0x645f14ddd3b0</title>
<path fill="#6d95df" stroke="#000000" d="M899,-559C899,-559 869,-559 869,-559 863,-559 857,-553 857,-547 857,-547 857,-535 857,-535 857,-529 863,-523 869,-523 869,-523 899,-523 899,-523 905,-523 911,-529 911,-535 911,-535 911,-547 911,-547 911,-553 905,-559 899,-559"/>
<text text-anchor="middle" x="884" y="-537.5" font-family="SF Pro Text Bold 10" font-size="15.00" fill="#000000">call</text>
</g>
<!-- n0x645f14ddd2c0&#45;&gt;n0x645f14ddd3b0 -->
<g id="edge3" class="edge">
<title>n0x645f14ddd2c0&#45;&gt;n0x645f14ddd3b0</title>
<path fill="none" stroke="#ff8800" stroke-width="5" d="M884,-625.87C884,-610.41 884,-587.42 884,-569.41"/>
<polygon fill="#ff8800" stroke="#ff8800" stroke-width="5" points="888.38,-569.22 884,-559.22 879.63,-569.22 888.38,-569.22"/>
</g>
<!-- n0x645f14ddd470 -->
<g id="node5" class="node">
<title>n0x645f14ddd470</title>
<path fill="#6d95df" stroke="#000000" d="M899,-456C899,-456 869,-456 869,-456 863,-456 857,-450 857,-444 857,-444 857,-432 857,-432 857,-426 863,-420 869,-420 869,-420 899,-420 899,-420 905,-420 911,-426 911,-432 911,-432 911,-444 911,-444 911,-450 905,-456 899,-456"/>
<text text-anchor="middle" x="884" y="-434.5" font-family="SF Pro Text Bold 10" font-size="15.00" fill="#000000">call</text>
</g>
<!-- n0x645f14ddd2c0&#45;&gt;n0x645f14ddd470 -->
<g id="edge12" class="edge">
<title>n0x645f14ddd2c0&#45;&gt;n0x645f14ddd470</title>
<path fill="none" stroke="#00b3ff" stroke-width="2" d="M895,-625.81C904.81,-609.39 918.45,-583.58 924,-559 931.69,-524.96 929.34,-512.81 915,-481 912.47,-475.39 909.1,-469.8 905.52,-464.62"/>
<polygon fill="#00b3ff" stroke="#00b3ff" stroke-width="2" points="908.15,-462.29 899.39,-456.34 902.53,-466.46 908.15,-462.29"/>
<text text-anchor="middle" x="939.5" y="-537.5" font-family="SF Pro Text Bold 10" font-size="15.00">%2</text>
</g>
<!-- n0x645f14dd7b00 -->
<g id="node21" class="node">
<title>n0x645f14dd7b00</title>
<path fill="#6d95df" stroke="#000000" d="M262,-868C262,-868 224,-868 224,-868 218,-868 212,-862 212,-856 212,-856 212,-844 212,-844 212,-838 218,-832 224,-832 224,-832 262,-832 262,-832 268,-832 274,-838 274,-844 274,-844 274,-856 274,-856 274,-862 268,-868 262,-868"/>
<text text-anchor="middle" x="243" y="-846.5" font-family="SF Pro Text Bold 10" font-size="15.00" fill="#000000">alloca</text>
</g>
<!-- n0x645f14ddd2c0&#45;&gt;n0x645f14dd7b00 -->
<g id="edge13" class="edge">
<title>n0x645f14ddd2c0&#45;&gt;n0x645f14dd7b00</title>
<path fill="none" stroke="#ff8800" stroke-width="5" stroke-dasharray="5,2" d="M856.7,-658.25C852.84,-659.72 848.87,-661.03 845,-662 776.01,-679.22 584.01,-645.88 526,-687 485.91,-715.41 508.26,-755.52 488.89,-789.04"/>
<polygon fill="#ff8800" stroke="#ff8800" stroke-width="5" points="485.18,-786.71 483,-797.41 492.33,-791.75 485.18,-786.71"/>
</g>
<!-- n0x645f14ddd3b0&#45;&gt;n0x645f14ddd470 -->
<g id="edge4" class="edge">
<title>n0x645f14ddd3b0&#45;&gt;n0x645f14ddd470</title>
<path fill="none" stroke="#ff8800" stroke-width="5" d="M884,-522.87C884,-507.41 884,-484.42 884,-466.41"/>
<polygon fill="#ff8800" stroke="#ff8800" stroke-width="5" points="888.38,-466.22 884,-456.22 879.63,-466.22 888.38,-466.22"/>
</g>
<!-- n0x645f14ddd3b0&#45;&gt;n0x645f14ddd470 -->
<g id="edge16" class="edge">
<title>n0x645f14ddd3b0&#45;&gt;n0x645f14ddd470</title>
<path fill="none" stroke="#00b3ff" stroke-width="2" d="M885,-522.84C885.4,-515.23 885.81,-506.17 886,-498 886.25,-487.62 885.99,-476.21 885.58,-466.21"/>
<polygon fill="#00b3ff" stroke="#00b3ff" stroke-width="2" points="889.07,-465.86 885.1,-456.04 882.07,-466.19 889.07,-465.86"/>
<text text-anchor="middle" x="897.5" y="-486" font-family="SF Pro Text Bold 10" font-size="15.00">%3</text>
</g>
<!-- n0x645f14ddd3b0&#45;&gt;n0x645f14dd7b00 -->
<g id="edge17" class="edge">
<title>n0x645f14ddd3b0&#45;&gt;n0x645f14dd7b00</title>
<path fill="none" stroke="#ff8800" stroke-width="5" stroke-dasharray="5,2" d="M899.26,-559.37C919.87,-584.96 951.08,-632.9 924,-662 871.33,-718.6 643.46,-647.51 577,-687 522.52,-719.37 552.97,-772.21 500,-807 497.79,-808.45 495.24,-809.86 492.4,-811.22"/>
<polygon fill="#ff8800" stroke="#ff8800" stroke-width="5" points="490.52,-807.27 483,-815.18 493.91,-815.33 490.52,-807.27"/>
</g>
<!-- n0x645f14ddd530 -->
<g id="node6" class="node">
<title>n0x645f14ddd530</title>
<path fill="#6d95df" stroke="#000000" d="M899,-369C899,-369 869,-369 869,-369 863,-369 857,-363 857,-357 857,-357 857,-345 857,-345 857,-339 863,-333 869,-333 869,-333 899,-333 899,-333 905,-333 911,-339 911,-345 911,-345 911,-357 911,-357 911,-363 905,-369 899,-369"/>
<text text-anchor="middle" x="884" y="-347.5" font-family="SF Pro Text Bold 10" font-size="15.00" fill="#000000">call</text>
</g>
<!-- n0x645f14ddd470&#45;&gt;n0x645f14ddd530 -->
<g id="edge5" class="edge">
<title>n0x645f14ddd470&#45;&gt;n0x645f14ddd530</title>
<path fill="none" stroke="#ff8800" stroke-width="5" d="M884,-419.8C884,-408.16 884,-392.55 884,-379.24"/>
<polygon fill="#ff8800" stroke="#ff8800" stroke-width="5" points="888.38,-379.18 884,-369.18 879.63,-379.18 888.38,-379.18"/>
</g>
<!-- n0x645f14ddd5d0 -->
<g id="node7" class="node">
<title>n0x645f14ddd5d0</title>
<path fill="#6d95df" stroke="#000000" d="M899,-266C899,-266 869,-266 869,-266 863,-266 857,-260 857,-254 857,-254 857,-242 857,-242 857,-236 863,-230 869,-230 869,-230 899,-230 899,-230 905,-230 911,-236 911,-242 911,-242 911,-254 911,-254 911,-260 905,-266 899,-266"/>
<text text-anchor="middle" x="884" y="-244.5" font-family="SF Pro Text Bold 10" font-size="15.00" fill="#000000">add</text>
</g>
<!-- n0x645f14ddd470&#45;&gt;n0x645f14ddd5d0 -->
<g id="edge20" class="edge">
<title>n0x645f14ddd470&#45;&gt;n0x645f14ddd5d0</title>
<path fill="none" stroke="#00b3ff" stroke-width="2" d="M897.49,-420C906.98,-406.9 918.85,-387.9 924,-369 933.17,-335.33 929.34,-322.81 915,-291 912.47,-285.39 909.1,-279.8 905.52,-274.62"/>
<polygon fill="#00b3ff" stroke="#00b3ff" stroke-width="2" points="908.15,-272.29 899.39,-266.34 902.53,-276.46 908.15,-272.29"/>
<text text-anchor="middle" x="940" y="-347.5" font-family="SF Pro Text Bold 10" font-size="15.00">%4</text>
</g>
<!-- n0x645f14ddd470&#45;&gt;n0x645f14dd7b00 -->
<g id="edge21" class="edge">
<title>n0x645f14ddd470&#45;&gt;n0x645f14dd7b00</title>
<path fill="none" stroke="#ff8800" stroke-width="5" stroke-dasharray="5,2" d="M906.42,-456.16C924.26,-471.42 947.73,-495.54 957,-523 976.8,-581.66 991.98,-618.43 948,-662 897.33,-712.2 691.28,-654.1 628,-687 566.66,-718.9 589.23,-773.04 529,-807 520.48,-811.8 507.93,-816.12 492.76,-819.98"/>
<polygon fill="#ff8800" stroke="#ff8800" stroke-width="5" points="491.7,-815.74 483,-822.33 493.74,-824.24 491.7,-815.74"/>
</g>
<!-- n0x645f14ddd530&#45;&gt;n0x645f14ddd5d0 -->
<g id="edge6" class="edge">
<title>n0x645f14ddd530&#45;&gt;n0x645f14ddd5d0</title>
<path fill="none" stroke="#ff8800" stroke-width="5" d="M884,-332.87C884,-317.41 884,-294.42 884,-276.41"/>
<polygon fill="#ff8800" stroke="#ff8800" stroke-width="5" points="888.38,-276.22 884,-266.22 879.63,-276.22 888.38,-276.22"/>
</g>
<!-- n0x645f14ddd530&#45;&gt;n0x645f14ddd5d0 -->
<g id="edge22" class="edge">
<title>n0x645f14ddd530&#45;&gt;n0x645f14ddd5d0</title>
<path fill="none" stroke="#00b3ff" stroke-width="2" d="M885,-332.84C885.4,-325.23 885.81,-316.17 886,-308 886.25,-297.62 885.99,-286.21 885.58,-276.21"/>
<polygon fill="#00b3ff" stroke="#00b3ff" stroke-width="2" points="889.07,-275.86 885.1,-266.04 882.07,-276.19 889.07,-275.86"/>
<text text-anchor="middle" x="897.5" y="-296" font-family="SF Pro Text Bold 10" font-size="15.00">%5</text>
</g>
<!-- n0x645f14ddd530&#45;&gt;n0x645f14dd7b00 -->
<g id="edge23" class="edge">
<title>n0x645f14ddd530&#45;&gt;n0x645f14dd7b00</title>
<path fill="none" stroke="#ff8800" stroke-width="5" stroke-dasharray="5,2" d="M899.31,-369.28C943.68,-421.4 1063.93,-578.57 979,-662 883.09,-756.22 808.23,-677.58 684,-729 623.84,-753.9 621.24,-784.88 560,-807 538.58,-814.74 515.89,-821.07 492.88,-826.26"/>
<polygon fill="#ff8800" stroke="#ff8800" stroke-width="5" points="491.84,-822.01 483,-828.41 493.7,-830.55 491.84,-822.01"/>
</g>
<!-- n0x645f14ddd730 -->
<g id="node8" class="node">
<title>n0x645f14ddd730</title>
<path fill="#6d95df" stroke="#000000" d="M899,-163C899,-163 869,-163 869,-163 863,-163 857,-157 857,-151 857,-151 857,-139 857,-139 857,-133 863,-127 869,-127 869,-127 899,-127 899,-127 905,-127 911,-133 911,-139 911,-139 911,-151 911,-151 911,-157 905,-163 899,-163"/>
<text text-anchor="middle" x="884" y="-141.5" font-family="SF Pro Text Bold 10" font-size="15.00" fill="#000000">call</text>
</g>
<!-- n0x645f14ddd5d0&#45;&gt;n0x645f14ddd730 -->
<g id="edge7" class="edge">
<title>n0x645f14ddd5d0&#45;&gt;n0x645f14ddd730</title>
<path fill="none" stroke="#ff8800" stroke-width="5" d="M884,-229.87C884,-214.41 884,-191.42 884,-173.41"/>
<polygon fill="#ff8800" stroke="#ff8800" stroke-width="5" points="888.38,-173.22 884,-163.22 879.63,-173.22 888.38,-173.22"/>
</g>
<!-- n0x645f14ddd5d0&#45;&gt;n0x645f14ddd730 -->
<g id="edge26" class="edge">
<title>n0x645f14ddd5d0&#45;&gt;n0x645f14ddd730</title>
<path fill="none" stroke="#00b3ff" stroke-width="2" d="M885.1,-229.96C885.73,-218.18 886.34,-202.14 886,-188 885.89,-183.27 885.7,-178.25 885.49,-173.39"/>
<polygon fill="#00b3ff" stroke="#00b3ff" stroke-width="2" points="888.98,-172.98 885,-163.16 881.99,-173.31 888.98,-172.98"/>
<text text-anchor="middle" x="898" y="-193" font-family="SF Pro Text Bold 10" font-size="15.00">%6</text>
</g>
<!-- n0x645f14d572d0 -->
<g id="node9" class="node">
<title>n0x645f14d572d0</title>
<path fill="#6d95df" stroke="#000000" d="M899,-60C899,-60 869,-60 869,-60 863,-60 857,-54 857,-48 857,-48 857,-36 857,-36 857,-30 863,-24 869,-24 869,-24 899,-24 899,-24 905,-24 911,-30 911,-36 911,-36 911,-48 911,-48 911,-54 905,-60 899,-60"/>
<text text-anchor="middle" x="884" y="-38.5" font-family="SF Pro Text Bold 10" font-size="15.00" fill="#000000">ret</text>
</g>
<!-- n0x645f14ddd730&#45;&gt;n0x645f14d572d0 -->
<g id="edge8" class="edge">
<title>n0x645f14ddd730&#45;&gt;n0x645f14d572d0</title>
<path fill="none" stroke="#ff8800" stroke-width="5" d="M884,-126.87C884,-111.41 884,-88.42 884,-70.41"/>
<polygon fill="#ff8800" stroke="#ff8800" stroke-width="5" points="888.38,-70.22 884,-60.22 879.63,-70.22 888.38,-70.22"/>
</g>
<!-- u0x645f14d8fe50 -->
<g id="node10" class="node">
<title>u0x645f14d8fe50</title>
<path fill="#db4040" stroke="#000000" d="M899,-955C899,-955 869,-955 869,-955 863,-955 857,-949 857,-943 857,-943 857,-931 857,-931 857,-925 863,-919 869,-919 869,-919 899,-919 899,-919 905,-919 911,-925 911,-931 911,-931 911,-943 911,-943 911,-949 905,-955 899,-955"/>
<text text-anchor="middle" x="884" y="-933.5" font-family="SF Pro Text Bold 10" font-size="15.00" fill="#000000">i32 1</text>
</g>
<!-- u0x645f14d8fe50&#45;&gt;n0x645f14d8fe70 -->
<g id="edge10" class="edge">
<title>u0x645f14d8fe50&#45;&gt;n0x645f14d8fe70</title>
<path fill="none" stroke="#00b3ff" stroke-width="2" d="M884,-918.8C884,-907.16 884,-891.55 884,-878.24"/>
<polygon fill="#00b3ff" stroke="#00b3ff" stroke-width="2" points="887.5,-878.18 884,-868.18 880.5,-878.18 887.5,-878.18"/>
</g>
<!-- u0x645f14d9a3a0 -->
<g id="node11" class="node">
<title>u0x645f14d9a3a0</title>
<path fill="#db4040" stroke="#000000" d="M815.5,-868C815.5,-868 784.5,-868 784.5,-868 778.5,-868 772.5,-862 772.5,-856 772.5,-856 772.5,-844 772.5,-844 772.5,-838 778.5,-832 784.5,-832 784.5,-832 815.5,-832 815.5,-832 821.5,-832 827.5,-838 827.5,-844 827.5,-844 827.5,-856 827.5,-856 827.5,-862 821.5,-868 815.5,-868"/>
<text text-anchor="middle" x="800" y="-846.5" font-family="SF Pro Text Bold 10" font-size="15.00" fill="#000000">i32 0</text>
</g>
<!-- u0x645f14d9a3a0&#45;&gt;n0x645f14d9a3e0 -->
<g id="edge11" class="edge">
<title>u0x645f14d9a3a0&#45;&gt;n0x645f14d9a3e0</title>
<path fill="none" stroke="#00b3ff" stroke-width="2" d="M814.25,-831.87C827.64,-815.76 847.86,-791.46 863.08,-773.15"/>
<polygon fill="#00b3ff" stroke="#00b3ff" stroke-width="2" points="865.98,-775.14 869.68,-765.22 860.6,-770.67 865.98,-775.14"/>
</g>
<!-- u0x645f14ddd260 -->
<g id="node12" class="node">
<title>u0x645f14ddd260</title>
<path fill="#db4040" stroke="#000000" d="M819,-765C819,-765 789,-765 789,-765 783,-765 777,-759 777,-753 777,-753 777,-741 777,-741 777,-735 783,-729 789,-729 789,-729 819,-729 819,-729 825,-729 831,-735 831,-741 831,-741 831,-753 831,-753 831,-759 825,-765 819,-765"/>
<text text-anchor="middle" x="804" y="-743.5" font-family="SF Pro Text Bold 10" font-size="15.00" fill="#000000">i32 3</text>
</g>
<!-- u0x645f14ddd260&#45;&gt;n0x645f14ddd2c0 -->
<g id="edge14" class="edge">
<title>u0x645f14ddd260&#45;&gt;n0x645f14ddd2c0</title>
<path fill="none" stroke="#00b3ff" stroke-width="2" d="M817.57,-728.87C830.33,-712.76 849.58,-688.46 864.08,-670.15"/>
<polygon fill="#00b3ff" stroke="#00b3ff" stroke-width="2" points="866.9,-672.23 870.36,-662.22 861.41,-667.88 866.9,-672.23"/>
</g>
<!-- u0x645f14ddd280 -->
<g id="node13" class="node">
<title>u0x645f14ddd280</title>
<path fill="#db4040" stroke="#000000" d="M739.5,-765C739.5,-765 708.5,-765 708.5,-765 702.5,-765 696.5,-759 696.5,-753 696.5,-753 696.5,-741 696.5,-741 696.5,-735 702.5,-729 708.5,-729 708.5,-729 739.5,-729 739.5,-729 745.5,-729 751.5,-735 751.5,-741 751.5,-741 751.5,-753 751.5,-753 751.5,-759 745.5,-765 739.5,-765"/>
<text text-anchor="middle" x="724" y="-743.5" font-family="SF Pro Text Bold 10" font-size="15.00" fill="#000000">i32 4</text>
</g>
<!-- u0x645f14ddd280&#45;&gt;n0x645f14ddd2c0 -->
<g id="edge15" class="edge">
<title>u0x645f14ddd280&#45;&gt;n0x645f14ddd2c0</title>
<path fill="none" stroke="#00b3ff" stroke-width="2" d="M751.14,-728.87C777.89,-711.98 818.9,-686.1 848.28,-667.55"/>
<polygon fill="#00b3ff" stroke="#00b3ff" stroke-width="2" points="850.4,-670.35 856.99,-662.05 846.67,-664.43 850.4,-670.35"/>
</g>
<!-- u0x645f14ddd350 -->
<g id="node14" class="node">
<title>u0x645f14ddd350</title>
<path fill="#db4040" stroke="#000000" d="M820,-662C820,-662 790,-662 790,-662 784,-662 778,-656 778,-650 778,-650 778,-638 778,-638 778,-632 784,-626 790,-626 790,-626 820,-626 820,-626 826,-626 832,-632 832,-638 832,-638 832,-650 832,-650 832,-656 826,-662 820,-662"/>
<text text-anchor="middle" x="805" y="-640.5" font-family="SF Pro Text Bold 10" font-size="15.00" fill="#000000">i32 5</text>
</g>
<!-- u0x645f14ddd350&#45;&gt;n0x645f14ddd3b0 -->
<g id="edge18" class="edge">
<title>u0x645f14ddd350&#45;&gt;n0x645f14ddd3b0</title>
<path fill="none" stroke="#00b3ff" stroke-width="2" d="M818.4,-625.87C831,-609.76 850.01,-585.46 864.32,-567.15"/>
<polygon fill="#00b3ff" stroke="#00b3ff" stroke-width="2" points="867.13,-569.25 870.53,-559.22 861.62,-564.94 867.13,-569.25"/>
</g>
<!-- u0x645f14ddd370 -->
<g id="node15" class="node">
<title>u0x645f14ddd370</title>
<path fill="#db4040" stroke="#000000" d="M740.5,-662C740.5,-662 709.5,-662 709.5,-662 703.5,-662 697.5,-656 697.5,-650 697.5,-650 697.5,-638 697.5,-638 697.5,-632 703.5,-626 709.5,-626 709.5,-626 740.5,-626 740.5,-626 746.5,-626 752.5,-632 752.5,-638 752.5,-638 752.5,-650 752.5,-650 752.5,-656 746.5,-662 740.5,-662"/>
<text text-anchor="middle" x="725" y="-640.5" font-family="SF Pro Text Bold 10" font-size="15.00" fill="#000000">i32 6</text>
</g>
<!-- u0x645f14ddd370&#45;&gt;n0x645f14ddd3b0 -->
<g id="edge19" class="edge">
<title>u0x645f14ddd370&#45;&gt;n0x645f14ddd3b0</title>
<path fill="none" stroke="#00b3ff" stroke-width="2" d="M751.97,-625.87C778.55,-608.98 819.3,-583.1 848.5,-564.55"/>
<polygon fill="#00b3ff" stroke="#00b3ff" stroke-width="2" points="850.6,-567.36 857.16,-559.05 846.84,-561.46 850.6,-567.36"/>
</g>
<!-- u0x645f14ddd4d0 -->
<g id="node16" class="node">
<title>u0x645f14ddd4d0</title>
<path fill="#db4040" stroke="#000000" d="M820,-456C820,-456 790,-456 790,-456 784,-456 778,-450 778,-444 778,-444 778,-432 778,-432 778,-426 784,-420 790,-420 790,-420 820,-420 820,-420 826,-420 832,-426 832,-432 832,-432 832,-444 832,-444 832,-450 826,-456 820,-456"/>
<text text-anchor="middle" x="805" y="-434.5" font-family="SF Pro Text Bold 10" font-size="15.00" fill="#000000">i32 3</text>
</g>
<!-- u0x645f14ddd4d0&#45;&gt;n0x645f14ddd530 -->
<g id="edge24" class="edge">
<title>u0x645f14ddd4d0&#45;&gt;n0x645f14ddd530</title>
<path fill="none" stroke="#00b3ff" stroke-width="2" d="M820.99,-419.8C832.55,-407.36 848.34,-390.36 861.23,-376.5"/>
<polygon fill="#00b3ff" stroke="#00b3ff" stroke-width="2" points="863.79,-378.88 868.04,-369.18 858.67,-374.12 863.79,-378.88"/>
</g>
<!-- u0x645f14ddd4f0 -->
<g id="node17" class="node">
<title>u0x645f14ddd4f0</title>
<path fill="#db4040" stroke="#000000" d="M740.5,-456C740.5,-456 709.5,-456 709.5,-456 703.5,-456 697.5,-450 697.5,-444 697.5,-444 697.5,-432 697.5,-432 697.5,-426 703.5,-420 709.5,-420 709.5,-420 740.5,-420 740.5,-420 746.5,-420 752.5,-426 752.5,-432 752.5,-432 752.5,-444 752.5,-444 752.5,-450 746.5,-456 740.5,-456"/>
<text text-anchor="middle" x="725" y="-434.5" font-family="SF Pro Text Bold 10" font-size="15.00" fill="#000000">i32 4</text>
</g>
<!-- u0x645f14ddd4f0&#45;&gt;n0x645f14ddd530 -->
<g id="edge25" class="edge">
<title>u0x645f14ddd4f0&#45;&gt;n0x645f14ddd530</title>
<path fill="none" stroke="#00b3ff" stroke-width="2" d="M752.7,-422.19C779.11,-408.07 819.04,-386.73 847.93,-371.28"/>
<polygon fill="#00b3ff" stroke="#00b3ff" stroke-width="2" points="849.72,-374.3 856.89,-366.49 846.42,-368.12 849.72,-374.3"/>
</g>
<!-- u0x645f14ddd6d0 -->
<g id="node18" class="node">
<title>u0x645f14ddd6d0</title>
<path fill="#db4040" stroke="#000000" d="M819.5,-266C819.5,-266 760.5,-266 760.5,-266 754.5,-266 748.5,-260 748.5,-254 748.5,-254 748.5,-242 748.5,-242 748.5,-236 754.5,-230 760.5,-230 760.5,-230 819.5,-230 819.5,-230 825.5,-230 831.5,-236 831.5,-242 831.5,-242 831.5,-254 831.5,-254 831.5,-260 825.5,-266 819.5,-266"/>
<text text-anchor="middle" x="790" y="-244.5" font-family="SF Pro Text Bold 10" font-size="15.00" fill="#000000">ptr @.str</text>
</g>
<!-- u0x645f14ddd6d0&#45;&gt;n0x645f14ddd730 -->
<g id="edge27" class="edge">
<title>u0x645f14ddd6d0&#45;&gt;n0x645f14ddd730</title>
<path fill="none" stroke="#00b3ff" stroke-width="2" d="M805.95,-229.87C821.07,-213.62 843.96,-189.02 861.05,-170.66"/>
<polygon fill="#00b3ff" stroke="#00b3ff" stroke-width="2" points="863.73,-172.92 867.98,-163.22 858.6,-168.15 863.73,-172.92"/>
</g>
<!-- u0x645f14ddd710 -->
<g id="node19" class="node">
<title>u0x645f14ddd710</title>
<path fill="#db4040" stroke="#000000" d="M711,-266C711,-266 635,-266 635,-266 629,-266 623,-260 623,-254 623,-254 623,-242 623,-242 623,-236 629,-230 635,-230 635,-230 711,-230 711,-230 717,-230 723,-236 723,-242 723,-242 723,-254 723,-254 723,-260 717,-266 711,-266"/>
<text text-anchor="middle" x="673" y="-244.5" font-family="SF Pro Text Bold 10" font-size="15.00" fill="#000000">ptr @printf</text>
</g>
<!-- u0x645f14ddd710&#45;&gt;n0x645f14ddd730 -->
<g id="edge28" class="edge">
<title>u0x645f14ddd710&#45;&gt;n0x645f14ddd730</title>
<path fill="none" stroke="#00b3ff" stroke-width="2" d="M708.79,-229.87C747.38,-211.4 808.49,-182.15 847.39,-163.52"/>
<polygon fill="#00b3ff" stroke="#00b3ff" stroke-width="2" points="849.26,-166.51 856.77,-159.03 846.24,-160.19 849.26,-166.51"/>
</g>
<!-- u0x645f14d572b0 -->
<g id="node20" class="node">
<title>u0x645f14d572b0</title>
<path fill="#db4040" stroke="#000000" d="M819.5,-163C819.5,-163 788.5,-163 788.5,-163 782.5,-163 776.5,-157 776.5,-151 776.5,-151 776.5,-139 776.5,-139 776.5,-133 782.5,-127 788.5,-127 788.5,-127 819.5,-127 819.5,-127 825.5,-127 831.5,-133 831.5,-139 831.5,-139 831.5,-151 831.5,-151 831.5,-157 825.5,-163 819.5,-163"/>
<text text-anchor="middle" x="804" y="-141.5" font-family="SF Pro Text Bold 10" font-size="15.00" fill="#000000">i32 0</text>
</g>
<!-- u0x645f14d572b0&#45;&gt;n0x645f14d572d0 -->
<g id="edge29" class="edge">
<title>u0x645f14d572b0&#45;&gt;n0x645f14d572d0</title>
<path fill="none" stroke="#00b3ff" stroke-width="2" d="M817.57,-126.87C830.33,-110.76 849.58,-86.46 864.08,-68.15"/>
<polygon fill="#00b3ff" stroke="#00b3ff" stroke-width="2" points="866.9,-70.23 870.36,-60.22 861.41,-65.88 866.9,-70.23"/>
</g>
<!-- n0x645f14dd7b80 -->
<g id="node22" class="node">
<title>n0x645f14dd7b80</title>
<path fill="#6d95df" stroke="#000000" d="M262,-765C262,-765 224,-765 224,-765 218,-765 212,-759 212,-753 212,-753 212,-741 212,-741 212,-735 218,-729 224,-729 224,-729 262,-729 262,-729 268,-729 274,-735 274,-741 274,-741 274,-753 274,-753 274,-759 268,-765 262,-765"/>
<text text-anchor="middle" x="243" y="-743.5" font-family="SF Pro Text Bold 10" font-size="15.00" fill="#000000">alloca</text>
</g>
<!-- n0x645f14dd7b00&#45;&gt;n0x645f14dd7b80 -->
<g id="edge30" class="edge">
<title>n0x645f14dd7b00&#45;&gt;n0x645f14dd7b80</title>
<path fill="none" stroke="#ff8800" stroke-width="5" d="M243,-831.87C243,-816.41 243,-793.42 243,-775.41"/>
<polygon fill="#ff8800" stroke="#ff8800" stroke-width="5" points="247.38,-775.22 243,-765.22 238.63,-775.22 247.38,-775.22"/>
</g>
<!-- n0x645f14ddd7d0 -->
<g id="node23" class="node">
<title>n0x645f14ddd7d0</title>
<path fill="#6d95df" stroke="#000000" d="M258.5,-662C258.5,-662 227.5,-662 227.5,-662 221.5,-662 215.5,-656 215.5,-650 215.5,-650 215.5,-638 215.5,-638 215.5,-632 221.5,-626 227.5,-626 227.5,-626 258.5,-626 258.5,-626 264.5,-626 270.5,-632 270.5,-638 270.5,-638 270.5,-650 270.5,-650 270.5,-656 264.5,-662 258.5,-662"/>
<text text-anchor="middle" x="243" y="-640.5" font-family="SF Pro Text Bold 10" font-size="15.00" fill="#000000">store</text>
</g>
<!-- n0x645f14dd7b00&#45;&gt;n0x645f14ddd7d0 -->
<g id="edge39" class="edge">
<title>n0x645f14dd7b00&#45;&gt;n0x645f14ddd7d0</title>
<path fill="none" stroke="#00b3ff" stroke-width="2" d="M254.82,-831.93C265.35,-815.6 280.01,-789.85 286,-765 294.05,-731.62 276.54,-694.61 261.5,-670.64"/>
<polygon fill="#00b3ff" stroke="#00b3ff" stroke-width="2" points="264.33,-668.57 255.92,-662.13 258.48,-672.41 264.33,-668.57"/>
<text text-anchor="middle" x="300.5" y="-743.5" font-family="SF Pro Text Bold 10" font-size="15.00">%3</text>
</g>
<!-- n0x645f14de1450 -->
<g id="node25" class="node">
<title>n0x645f14de1450</title>
<path fill="#6d95df" stroke="#000000" d="M258,-456C258,-456 228,-456 228,-456 222,-456 216,-450 216,-444 216,-444 216,-432 216,-432 216,-426 222,-420 228,-420 228,-420 258,-420 258,-420 264,-420 270,-426 270,-432 270,-432 270,-444 270,-444 270,-450 264,-456 258,-456"/>
<text text-anchor="middle" x="243" y="-434.5" font-family="SF Pro Text Bold 10" font-size="15.00" fill="#000000">load</text>
</g>
<!-- n0x645f14dd7b00&#45;&gt;n0x645f14de1450 -->
<g id="edge38" class="edge">
<title>n0x645f14dd7b00&#45;&gt;n0x645f14de1450</title>
<path fill="none" stroke="#00b3ff" stroke-width="2" d="M274.13,-846.91C321.86,-841.83 411.82,-824.45 452,-765 527.76,-652.9 355.25,-515.59 277.99,-461.98"/>
<polygon fill="#00b3ff" stroke="#00b3ff" stroke-width="2" points="279.73,-458.93 269.5,-456.16 275.77,-464.7 279.73,-458.93"/>
<text text-anchor="middle" x="474.5" y="-640.5" font-family="SF Pro Text Bold 10" font-size="15.00">%3</text>
</g>
<!-- n0x645f14dd7b80&#45;&gt;n0x645f14ddd7d0 -->
<g id="edge31" class="edge">
<title>n0x645f14dd7b80&#45;&gt;n0x645f14ddd7d0</title>
<path fill="none" stroke="#ff8800" stroke-width="5" d="M243,-728.87C243,-713.41 243,-690.42 243,-672.41"/>
<polygon fill="#ff8800" stroke="#ff8800" stroke-width="5" points="247.38,-672.22 243,-662.22 238.63,-672.22 247.38,-672.22"/>
</g>
<!-- n0x645f14de13d0 -->
<g id="node24" class="node">
<title>n0x645f14de13d0</title>
<path fill="#6d95df" stroke="#000000" d="M258.5,-559C258.5,-559 227.5,-559 227.5,-559 221.5,-559 215.5,-553 215.5,-547 215.5,-547 215.5,-535 215.5,-535 215.5,-529 221.5,-523 227.5,-523 227.5,-523 258.5,-523 258.5,-523 264.5,-523 270.5,-529 270.5,-535 270.5,-535 270.5,-547 270.5,-547 270.5,-553 264.5,-559 258.5,-559"/>
<text text-anchor="middle" x="243" y="-537.5" font-family="SF Pro Text Bold 10" font-size="15.00" fill="#000000">store</text>
</g>
<!-- n0x645f14dd7b80&#45;&gt;n0x645f14de13d0 -->
<g id="edge42" class="edge">
<title>n0x645f14dd7b80&#45;&gt;n0x645f14de13d0</title>
<path fill="none" stroke="#00b3ff" stroke-width="2" d="M211.87,-737.49C157.94,-721.07 55.95,-681.67 89,-626 114.01,-583.87 168.4,-561.52 205.37,-550.72"/>
<polygon fill="#00b3ff" stroke="#00b3ff" stroke-width="2" points="206.59,-554.02 215.3,-547.98 204.73,-547.27 206.59,-554.02"/>
<text text-anchor="middle" x="101" y="-640.5" font-family="SF Pro Text Bold 10" font-size="15.00">%4</text>
</g>
<!-- n0x645f14de14d0 -->
<g id="node26" class="node">
<title>n0x645f14de14d0</title>
<path fill="#6d95df" stroke="#000000" d="M258,-369C258,-369 228,-369 228,-369 222,-369 216,-363 216,-357 216,-357 216,-345 216,-345 216,-339 222,-333 228,-333 228,-333 258,-333 258,-333 264,-333 270,-339 270,-345 270,-345 270,-357 270,-357 270,-363 264,-369 258,-369"/>
<text text-anchor="middle" x="243" y="-347.5" font-family="SF Pro Text Bold 10" font-size="15.00" fill="#000000">load</text>
</g>
<!-- n0x645f14dd7b80&#45;&gt;n0x645f14de14d0 -->
<g id="edge41" class="edge">
<title>n0x645f14dd7b80&#45;&gt;n0x645f14de14d0</title>
<path fill="none" stroke="#00b3ff" stroke-width="2" d="M211.97,-743.52C180.95,-739.62 133.35,-729.61 101,-704 72.56,-681.49 67.24,-660.93 77,-626 105.38,-524.38 182.85,-422.92 221.07,-377.17"/>
<polygon fill="#00b3ff" stroke="#00b3ff" stroke-width="2" points="223.95,-379.19 227.73,-369.29 218.6,-374.67 223.95,-379.19"/>
<text text-anchor="middle" x="132" y="-537.5" font-family="SF Pro Text Bold 10" font-size="15.00">%4</text>
</g>
<!-- n0x645f14ddd7d0&#45;&gt;n0x645f14de13d0 -->
<g id="edge32" class="edge">
<title>n0x645f14ddd7d0&#45;&gt;n0x645f14de13d0</title>
<path fill="none" stroke="#ff8800" stroke-width="5" d="M243,-625.87C243,-610.41 243,-587.42 243,-569.41"/>
<polygon fill="#ff8800" stroke="#ff8800" stroke-width="5" points="247.38,-569.22 243,-559.22 238.63,-569.22 247.38,-569.22"/>
</g>
<!-- n0x645f14de13d0&#45;&gt;n0x645f14de1450 -->
<g id="edge33" class="edge">
<title>n0x645f14de13d0&#45;&gt;n0x645f14de1450</title>
<path fill="none" stroke="#ff8800" stroke-width="5" d="M243,-522.87C243,-507.41 243,-484.42 243,-466.41"/>
<polygon fill="#ff8800" stroke="#ff8800" stroke-width="5" points="247.38,-466.22 243,-456.22 238.63,-466.22 247.38,-466.22"/>
</g>
<!-- n0x645f14de1450&#45;&gt;n0x645f14de14d0 -->
<g id="edge34" class="edge">
<title>n0x645f14de1450&#45;&gt;n0x645f14de14d0</title>
<path fill="none" stroke="#ff8800" stroke-width="5" d="M243,-419.8C243,-408.16 243,-392.55 243,-379.24"/>
<polygon fill="#ff8800" stroke="#ff8800" stroke-width="5" points="247.38,-379.18 243,-369.18 238.63,-379.18 247.38,-379.18"/>
</g>
<!-- n0x645f14de1600 -->
<g id="node28" class="node">
<title>n0x645f14de1600</title>
<path fill="#6d95df" stroke="#000000" d="M258,-163C258,-163 228,-163 228,-163 222,-163 216,-157 216,-151 216,-151 216,-139 216,-139 216,-133 222,-127 228,-127 228,-127 258,-127 258,-127 264,-127 270,-133 270,-139 270,-139 270,-151 270,-151 270,-157 264,-163 258,-163"/>
<text text-anchor="middle" x="243" y="-141.5" font-family="SF Pro Text Bold 10" font-size="15.00" fill="#000000">add</text>
</g>
<!-- n0x645f14de1450&#45;&gt;n0x645f14de1600 -->
<g id="edge46" class="edge">
<title>n0x645f14de1450&#45;&gt;n0x645f14de1600</title>
<path fill="none" stroke="#00b3ff" stroke-width="2" d="M270.25,-429.97C298.63,-421.04 341.6,-402.57 361,-369 369.01,-355.15 365.27,-348.42 361,-333 343.15,-268.54 294.93,-205.2 265.96,-171.32"/>
<polygon fill="#00b3ff" stroke="#00b3ff" stroke-width="2" points="268.24,-168.6 259.04,-163.35 262.96,-173.2 268.24,-168.6"/>
<text text-anchor="middle" x="364.5" y="-296" font-family="SF Pro Text Bold 10" font-size="15.00">%5</text>
</g>
<!-- n0x645f14de1570 -->
<g id="node27" class="node">
<title>n0x645f14de1570</title>
<path fill="#6d95df" stroke="#000000" d="M258,-266C258,-266 228,-266 228,-266 222,-266 216,-260 216,-254 216,-254 216,-242 216,-242 216,-236 222,-230 228,-230 228,-230 258,-230 258,-230 264,-230 270,-236 270,-242 270,-242 270,-254 270,-254 270,-260 264,-266 258,-266"/>
<text text-anchor="middle" x="243" y="-244.5" font-family="SF Pro Text Bold 10" font-size="15.00" fill="#000000">mul</text>
</g>
<!-- n0x645f14de14d0&#45;&gt;n0x645f14de1570 -->
<g id="edge35" class="edge">
<title>n0x645f14de14d0&#45;&gt;n0x645f14de1570</title>
<path fill="none" stroke="#ff8800" stroke-width="5" d="M243,-332.87C243,-317.41 243,-294.42 243,-276.41"/>
<polygon fill="#ff8800" stroke="#ff8800" stroke-width="5" points="247.38,-276.22 243,-266.22 238.63,-276.22 247.38,-276.22"/>
</g>
<!-- n0x645f14de14d0&#45;&gt;n0x645f14de1570 -->
<g id="edge47" class="edge">
<title>n0x645f14de14d0&#45;&gt;n0x645f14de1570</title>
<path fill="none" stroke="#00b3ff" stroke-width="2" d="M244,-332.84C244.4,-325.23 244.81,-316.17 245,-308 245.25,-297.62 244.99,-286.21 244.58,-276.21"/>
<polygon fill="#00b3ff" stroke="#00b3ff" stroke-width="2" points="248.07,-275.86 244.1,-266.04 241.07,-276.19 248.07,-275.86"/>
<text text-anchor="middle" x="258" y="-296" font-family="SF Pro Text Bold 10" font-size="15.00">%6</text>
</g>
<!-- n0x645f14de1570&#45;&gt;n0x645f14de1600 -->
<g id="edge36" class="edge">
<title>n0x645f14de1570&#45;&gt;n0x645f14de1600</title>
<path fill="none" stroke="#ff8800" stroke-width="5" d="M243,-229.87C243,-214.41 243,-191.42 243,-173.41"/>
<polygon fill="#ff8800" stroke="#ff8800" stroke-width="5" points="247.38,-173.22 243,-163.22 238.63,-173.22 247.38,-173.22"/>
</g>
<!-- n0x645f14de1570&#45;&gt;n0x645f14de1600 -->
<g id="edge48" class="edge">
<title>n0x645f14de1570&#45;&gt;n0x645f14de1600</title>
<path fill="none" stroke="#00b3ff" stroke-width="2" d="M244,-229.84C244.4,-222.23 244.81,-213.17 245,-205 245.25,-194.62 244.99,-183.21 244.58,-173.21"/>
<polygon fill="#00b3ff" stroke="#00b3ff" stroke-width="2" points="248.07,-172.86 244.1,-163.04 241.07,-173.19 248.07,-172.86"/>
<text text-anchor="middle" x="257" y="-193" font-family="SF Pro Text Bold 10" font-size="15.00">%7</text>
</g>
<!-- n0x645f14de1710 -->
<g id="node29" class="node">
<title>n0x645f14de1710</title>
<path fill="#6d95df" stroke="#000000" d="M258,-60C258,-60 228,-60 228,-60 222,-60 216,-54 216,-48 216,-48 216,-36 216,-36 216,-30 222,-24 228,-24 228,-24 258,-24 258,-24 264,-24 270,-30 270,-36 270,-36 270,-48 270,-48 270,-54 264,-60 258,-60"/>
<text text-anchor="middle" x="243" y="-38.5" font-family="SF Pro Text Bold 10" font-size="15.00" fill="#000000">ret</text>
</g>
<!-- n0x645f14de1600&#45;&gt;n0x645f14de1710 -->
<g id="edge37" class="edge">
<title>n0x645f14de1600&#45;&gt;n0x645f14de1710</title>
<path fill="none" stroke="#ff8800" stroke-width="5" d="M243,-126.87C243,-111.41 243,-88.42 243,-70.41"/>
<polygon fill="#ff8800" stroke="#ff8800" stroke-width="5" points="247.38,-70.22 243,-60.22 238.63,-70.22 247.38,-70.22"/>
</g>
<!-- n0x645f14de1600&#45;&gt;n0x645f14de1710 -->
<g id="edge50" class="edge">
<title>n0x645f14de1600&#45;&gt;n0x645f14de1710</title>
<path fill="none" stroke="#00b3ff" stroke-width="2" d="M244,-126.84C244.4,-119.23 244.81,-110.17 245,-102 245.25,-91.62 244.99,-80.21 244.58,-70.21"/>
<polygon fill="#00b3ff" stroke="#00b3ff" stroke-width="2" points="248.07,-69.86 244.1,-60.04 241.07,-70.19 248.07,-69.86"/>
<text text-anchor="middle" x="258" y="-90" font-family="SF Pro Text Bold 10" font-size="15.00">%8</text>
</g>
<!-- u0x645f14dd7ae0 -->
<g id="node30" class="node">
<title>u0x645f14dd7ae0</title>
<path fill="#db4040" stroke="#000000" d="M258,-955C258,-955 228,-955 228,-955 222,-955 216,-949 216,-943 216,-943 216,-931 216,-931 216,-925 222,-919 228,-919 228,-919 258,-919 258,-919 264,-919 270,-925 270,-931 270,-931 270,-943 270,-943 270,-949 264,-955 258,-955"/>
<text text-anchor="middle" x="243" y="-933.5" font-family="SF Pro Text Bold 10" font-size="15.00" fill="#000000">i32 1</text>
</g>
<!-- u0x645f14dd7ae0&#45;&gt;n0x645f14dd7b00 -->
<g id="edge40" class="edge">
<title>u0x645f14dd7ae0&#45;&gt;n0x645f14dd7b00</title>
<path fill="none" stroke="#00b3ff" stroke-width="2" d="M243,-918.8C243,-907.16 243,-891.55 243,-878.24"/>
<polygon fill="#00b3ff" stroke="#00b3ff" stroke-width="2" points="246.5,-878.18 243,-868.18 239.5,-878.18 246.5,-878.18"/>
</g>
<!-- u0x645f14dd7b60 -->
<g id="node31" class="node">
<title>u0x645f14dd7b60</title>
<path fill="#db4040" stroke="#000000" d="M175,-868C175,-868 145,-868 145,-868 139,-868 133,-862 133,-856 133,-856 133,-844 133,-844 133,-838 139,-832 145,-832 145,-832 175,-832 175,-832 181,-832 187,-838 187,-844 187,-844 187,-856 187,-856 187,-862 181,-868 175,-868"/>
<text text-anchor="middle" x="160" y="-846.5" font-family="SF Pro Text Bold 10" font-size="15.00" fill="#000000">i32 1</text>
</g>
<!-- u0x645f14dd7b60&#45;&gt;n0x645f14dd7b80 -->
<g id="edge43" class="edge">
<title>u0x645f14dd7b60&#45;&gt;n0x645f14dd7b80</title>
<path fill="none" stroke="#00b3ff" stroke-width="2" d="M174.08,-831.87C187.32,-815.76 207.29,-791.46 222.33,-773.15"/>
<polygon fill="#00b3ff" stroke="#00b3ff" stroke-width="2" points="225.21,-775.17 228.85,-765.22 219.8,-770.72 225.21,-775.17"/>
</g>
<!-- u0x645f14ddd790 -->
<g id="node32" class="node">
<title>u0x645f14ddd790</title>
<path fill="#db4040" stroke="#000000" d="M428,-765C428,-765 384,-765 384,-765 378,-765 372,-759 372,-753 372,-753 372,-741 372,-741 372,-735 378,-729 384,-729 384,-729 428,-729 428,-729 434,-729 440,-735 440,-741 440,-741 440,-753 440,-753 440,-759 434,-765 428,-765"/>
<text text-anchor="middle" x="406" y="-743.5" font-family="SF Pro Text Bold 10" font-size="15.00" fill="#000000">i32 %0</text>
</g>
<!-- u0x645f14ddd790&#45;&gt;n0x645f14ddd7d0 -->
<g id="edge44" class="edge">
<title>u0x645f14ddd790&#45;&gt;n0x645f14ddd7d0</title>
<path fill="none" stroke="#00b3ff" stroke-width="2" d="M386.82,-728.97C372.17,-716.45 351.12,-699.5 331,-687 315.04,-677.09 296.39,-667.88 280.37,-660.62"/>
<polygon fill="#00b3ff" stroke="#00b3ff" stroke-width="2" points="281.34,-657.22 270.78,-656.37 278.5,-663.62 281.34,-657.22"/>
<text text-anchor="middle" x="367" y="-692" font-family="SF Pro Text Bold 10" font-size="15.00">%0</text>
</g>
<!-- u0x645f14de1390 -->
<g id="node33" class="node">
<title>u0x645f14de1390</title>
<path fill="#db4040" stroke="#000000" d="M178.5,-662C178.5,-662 137.5,-662 137.5,-662 131.5,-662 125.5,-656 125.5,-650 125.5,-650 125.5,-638 125.5,-638 125.5,-632 131.5,-626 137.5,-626 137.5,-626 178.5,-626 178.5,-626 184.5,-626 190.5,-632 190.5,-638 190.5,-638 190.5,-650 190.5,-650 190.5,-656 184.5,-662 178.5,-662"/>
<text text-anchor="middle" x="158" y="-640.5" font-family="SF Pro Text Bold 10" font-size="15.00" fill="#000000">i32 %1</text>
</g>
<!-- u0x645f14de1390&#45;&gt;n0x645f14de13d0 -->
<g id="edge45" class="edge">
<title>u0x645f14de1390&#45;&gt;n0x645f14de13d0</title>
<path fill="none" stroke="#00b3ff" stroke-width="2" d="M172.42,-625.87C185.97,-609.76 206.43,-585.46 221.83,-567.15"/>
<polygon fill="#00b3ff" stroke="#00b3ff" stroke-width="2" points="224.75,-569.12 228.51,-559.22 219.39,-564.61 224.75,-569.12"/>
<text text-anchor="middle" x="216.5" y="-589" font-family="SF Pro Text Bold 10" font-size="15.00">%1</text>
</g>
<!-- u0x645f14de1550 -->
<g id="node34" class="node">
<title>u0x645f14de1550</title>
<path fill="#db4040" stroke="#000000" d="M337,-369C337,-369 307,-369 307,-369 301,-369 295,-363 295,-357 295,-357 295,-345 295,-345 295,-339 301,-333 307,-333 307,-333 337,-333 337,-333 343,-333 349,-339 349,-345 349,-345 349,-357 349,-357 349,-363 343,-369 337,-369"/>
<text text-anchor="middle" x="322" y="-347.5" font-family="SF Pro Text Bold 10" font-size="15.00" fill="#000000">i32 2</text>
</g>
<!-- u0x645f14de1550&#45;&gt;n0x645f14de1570 -->
<g id="edge49" class="edge">
<title>u0x645f14de1550&#45;&gt;n0x645f14de1570</title>
<path fill="none" stroke="#00b3ff" stroke-width="2" d="M308.73,-332.95C299.55,-321.16 287.05,-305.11 276,-291 271.7,-285.5 267.08,-279.61 262.69,-274.03"/>
<polygon fill="#00b3ff" stroke="#00b3ff" stroke-width="2" points="265.43,-271.85 256.5,-266.15 259.93,-276.18 265.43,-271.85"/>
</g>
</g>
</svg>
