<?xml version="1.0" encoding="UTF-8" standalone="no"?>
<!DOCTYPE svg PUBLIC "-//W3C//DTD SVG 1.1//EN"
 "http://www.w3.org/Graphics/SVG/1.1/DTD/svg11.dtd">
<!-- Generated by graphviz version 2.43.0 (0)
 -->
<!-- Title: /home/sevsol/Projects/4sem/lisitsyn/llvm&#45;ir&#45;dumper/wt/graph_serialization_v2/examples/fact/fact.c Pages: 1 -->
<svg width="2319pt" height="2515pt"
 viewBox="0.00 0.00 2319.20 2515.20" xmlns="http://www.w3.org/2000/svg" xmlns:xlink="http://www.w3.org/1999/xlink">
<g id="graph0" class="graph" transform="scale(1 1) rotate(0) translate(21.6 2493.6)">
<title>/home/sevsol/Projects/4sem/lisitsyn/llvm&#45;ir&#45;dumper/wt/graph_serialization_v2/examples/fact/fact.c</title>
<polygon fill="white" stroke="transparent" points="-21.6,21.6 -21.6,-2493.6 2297.6,-2493.6 2297.6,21.6 -21.6,21.6"/>
<g id="clust1" class="cluster">
<title>cluster_func_0</title>
<path fill="#e3e3e3" stroke="#000000" stroke-width="2" d="M20,-1519C20,-1519 929,-1519 929,-1519 935,-1519 941,-1525 941,-1531 941,-1531 941,-2452 941,-2452 941,-2458 935,-2464 929,-2464 929,-2464 20,-2464 20,-2464 14,-2464 8,-2458 8,-2452 8,-2452 8,-1531 8,-1531 8,-1525 14,-1519 20,-1519"/>
<text text-anchor="middle" x="474.5" y="-2444" font-family="SF Pro Text Bold 10" font-size="20.00">fact</text>
</g>
<g id="clust2" class="cluster">
<title>cluster_func_0_bb_0</title>
<path fill="#a4a4a4" stroke="#000000" stroke-width="2" d="M868,-2319C868,-2319 921,-2319 921,-2319 927,-2319 933,-2325 933,-2331 933,-2331 933,-2409 933,-2409 933,-2415 927,-2421 921,-2421 921,-2421 868,-2421 868,-2421 862,-2421 856,-2415 856,-2409 856,-2409 856,-2331 856,-2331 856,-2325 862,-2319 868,-2319"/>
<text text-anchor="middle" x="894.5" y="-2405" font-family="SF Pro Text Bold 10" font-size="15.00">label %1</text>
</g>
<g id="clust3" class="cluster">
<title>cluster_func_0_bb_1</title>
<path fill="#a4a4a4" stroke="#000000" stroke-width="2" d="M28,-1693C28,-1693 474,-1693 474,-1693 480,-1693 486,-1699 486,-1705 486,-1705 486,-2243 486,-2243 486,-2249 480,-2255 474,-2255 474,-2255 28,-2255 28,-2255 22,-2255 16,-2249 16,-2243 16,-2243 16,-1705 16,-1705 16,-1699 22,-1693 28,-1693"/>
<text text-anchor="middle" x="251" y="-2239" font-family="SF Pro Text Bold 10" font-size="15.00">label %2</text>
</g>
<g id="clust4" class="cluster">
<title>cluster_func_0_bb_2</title>
<path fill="#a4a4a4" stroke="#000000" stroke-width="2" d="M506,-1840C506,-1840 770,-1840 770,-1840 776,-1840 782,-1846 782,-1852 782,-1852 782,-2409 782,-2409 782,-2415 776,-2421 770,-2421 770,-2421 506,-2421 506,-2421 500,-2421 494,-2415 494,-2409 494,-2409 494,-1852 494,-1852 494,-1846 500,-1840 506,-1840"/>
<text text-anchor="middle" x="638" y="-2405" font-family="SF Pro Text Bold 10" font-size="15.00">label %6</text>
</g>
<g id="clust5" class="cluster">
<title>cluster_func_0_bb_3</title>
<path fill="#a4a4a4" stroke="#000000" stroke-width="2" d="M116,-1527C116,-1527 172,-1527 172,-1527 178,-1527 184,-1533 184,-1539 184,-1539 184,-1617 184,-1617 184,-1623 178,-1629 172,-1629 172,-1629 116,-1629 116,-1629 110,-1629 104,-1623 104,-1617 104,-1617 104,-1539 104,-1539 104,-1533 110,-1527 116,-1527"/>
<text text-anchor="middle" x="144" y="-1613" font-family="SF Pro Text Bold 10" font-size="15.00">label %9</text>
</g>
<g id="clust6" class="cluster">
<title>cluster_func_1</title>
<path fill="#e3e3e3" stroke="#000000" stroke-width="2" d="M961,-8C961,-8 2256,-8 2256,-8 2262,-8 2268,-14 2268,-20 2268,-20 2268,-2452 2268,-2452 2268,-2458 2262,-2464 2256,-2464 2256,-2464 961,-2464 961,-2464 955,-2464 949,-2458 949,-2452 949,-2452 949,-20 949,-20 949,-14 955,-8 961,-8"/>
<text text-anchor="middle" x="1608.5" y="-2444" font-family="SF Pro Text Bold 10" font-size="20.00">main</text>
</g>
<g id="clust7" class="cluster">
<title>cluster_func_1_bb_4</title>
<path fill="#a4a4a4" stroke="#000000" stroke-width="2" d="M1906,-1987C1906,-1987 2085,-1987 2085,-1987 2091,-1987 2097,-1993 2097,-1999 2097,-1999 2097,-2409 2097,-2409 2097,-2415 2091,-2421 2085,-2421 2085,-2421 1906,-2421 1906,-2421 1900,-2421 1894,-2415 1894,-2409 1894,-2409 1894,-1999 1894,-1999 1894,-1993 1900,-1987 1906,-1987"/>
<text text-anchor="middle" x="1995.5" y="-2405" font-family="SF Pro Text Bold 10" font-size="15.00">label %2</text>
</g>
<g id="clust8" class="cluster">
<title>cluster_func_1_bb_5</title>
<path fill="#a4a4a4" stroke="#000000" stroke-width="2" d="M1899,-329C1899,-329 2248,-329 2248,-329 2254,-329 2260,-335 2260,-341 2260,-341 2260,-697 2260,-697 2260,-703 2254,-709 2248,-709 2248,-709 1899,-709 1899,-709 1893,-709 1887,-703 1887,-697 1887,-697 1887,-341 1887,-341 1887,-335 1893,-329 1899,-329"/>
<text text-anchor="middle" x="2073.5" y="-693" font-family="SF Pro Text Bold 10" font-size="15.00">label %4</text>
</g>
<g id="clust9" class="cluster">
<title>cluster_func_1_bb_6</title>
<path fill="#a4a4a4" stroke="#000000" stroke-width="2" d="M1547,-1361C1547,-1361 1867,-1361 1867,-1361 1873,-1361 1879,-1367 1879,-1373 1879,-1373 1879,-2077 1879,-2077 1879,-2083 1873,-2089 1867,-2089 1867,-2089 1547,-2089 1547,-2089 1541,-2089 1535,-2083 1535,-2077 1535,-2077 1535,-1373 1535,-1373 1535,-1367 1541,-1361 1547,-1361"/>
<text text-anchor="middle" x="1707" y="-2073" font-family="SF Pro Text Bold 10" font-size="15.00">label %6</text>
</g>
<g id="clust10" class="cluster">
<title>cluster_func_1_bb_7</title>
<path fill="#a4a4a4" stroke="#000000" stroke-width="2" d="M969,-329C969,-329 1515,-329 1515,-329 1521,-329 1527,-335 1527,-341 1527,-341 1527,-1451 1527,-1451 1527,-1457 1521,-1463 1515,-1463 1515,-1463 969,-1463 969,-1463 963,-1463 957,-1457 957,-1451 957,-1451 957,-341 957,-341 957,-335 963,-329 969,-329"/>
<text text-anchor="middle" x="1242" y="-1447" font-family="SF Pro Text Bold 10" font-size="15.00">label %10</text>
</g>
<g id="clust11" class="cluster">
<title>cluster_func_1_bb_8</title>
<path fill="#a4a4a4" stroke="#000000" stroke-width="2" d="M1547,-329C1547,-329 1867,-329 1867,-329 1873,-329 1879,-335 1879,-341 1879,-341 1879,-697 1879,-697 1879,-703 1873,-709 1867,-709 1867,-709 1547,-709 1547,-709 1541,-709 1535,-703 1535,-697 1535,-697 1535,-341 1535,-341 1535,-335 1541,-329 1547,-329"/>
<text text-anchor="middle" x="1707" y="-693" font-family="SF Pro Text Bold 10" font-size="15.00">label %17</text>
</g>
<g id="clust12" class="cluster">
<title>cluster_func_1_bb_9</title>
<path fill="#a4a4a4" stroke="#000000" stroke-width="2" d="M1588,-16C1588,-16 1712,-16 1712,-16 1718,-16 1724,-22 1724,-28 1724,-28 1724,-253 1724,-253 1724,-259 1718,-265 1712,-265 1712,-265 1588,-265 1588,-265 1582,-265 1576,-259 1576,-253 1576,-253 1576,-28 1576,-28 1576,-22 1582,-16 1588,-16"/>
<text text-anchor="middle" x="1650" y="-249" font-family="SF Pro Text Bold 10" font-size="15.00">label %19</text>
</g>
<!-- node_0 -->
<g id="node1" class="node">
<title>node_0</title>
<path fill="#6d95df" stroke="#000000" d="M913,-2363C913,-2363 883,-2363 883,-2363 877,-2363 871,-2357 871,-2351 871,-2351 871,-2339 871,-2339 871,-2333 877,-2327 883,-2327 883,-2327 913,-2327 913,-2327 919,-2327 925,-2333 925,-2339 925,-2339 925,-2351 925,-2351 925,-2357 919,-2363 913,-2363"/>
<text text-anchor="middle" x="898" y="-2341.5" font-family="SF Pro Text Bold 10" font-size="15.00" fill="#000000">br</text>
</g>
<!-- node_1 -->
<g id="node2" class="node">
<title>node_1</title>
<path fill="#6d95df" stroke="#000000" d="M466,-2197C466,-2197 436,-2197 436,-2197 430,-2197 424,-2191 424,-2185 424,-2185 424,-2173 424,-2173 424,-2167 430,-2161 436,-2161 436,-2161 466,-2161 466,-2161 472,-2161 478,-2167 478,-2173 478,-2173 478,-2185 478,-2185 478,-2191 472,-2197 466,-2197"/>
<text text-anchor="middle" x="451" y="-2175.5" font-family="SF Pro Text Bold 10" font-size="15.00" fill="#000000">phi</text>
</g>
<!-- node_0&#45;&gt;node_1 -->
<g id="edge19" class="edge">
<title>node_0&#45;&gt;node_1</title>
<path fill="none" stroke="#ff8800" stroke-width="5" d="M902.92,-2326.67C907.01,-2308.09 909.78,-2279.09 893,-2263 876.51,-2247.2 500.86,-2267.88 482,-2255 466.2,-2244.21 458.44,-2223.76 454.63,-2206.94"/>
<polygon fill="#ff8800" stroke="#ff8800" stroke-width="5" points="458.92,-2206.05 452.74,-2197.05 450.32,-2207.69 458.92,-2206.05"/>
</g>
<!-- node_0&#45;&gt;node_1 -->
<g id="edge32" class="edge">
<title>node_0&#45;&gt;node_1</title>
<path fill="none" stroke="#00b3ff" stroke-width="2" d="M870.92,-2336.88C850.84,-2331.68 822.79,-2324.61 798,-2319 658.23,-2287.39 592.58,-2346.14 482,-2255 467.55,-2243.09 459.75,-2223.34 455.59,-2207.09"/>
<polygon fill="#00b3ff" stroke="#00b3ff" stroke-width="2" points="458.94,-2206.04 453.35,-2197.04 452.11,-2207.56 458.94,-2206.04"/>
<text text-anchor="middle" x="531.5" y="-2268" font-family="SF Pro Text Bold 10" font-size="15.00">i64 1</text>
</g>
<!-- node_2 -->
<g id="node3" class="node">
<title>node_2</title>
<path fill="#6d95df" stroke="#000000" d="M373,-2031C373,-2031 343,-2031 343,-2031 337,-2031 331,-2025 331,-2019 331,-2019 331,-2007 331,-2007 331,-2001 337,-1995 343,-1995 343,-1995 373,-1995 373,-1995 379,-1995 385,-2001 385,-2007 385,-2007 385,-2019 385,-2019 385,-2025 379,-2031 373,-2031"/>
<text text-anchor="middle" x="358" y="-2009.5" font-family="SF Pro Text Bold 10" font-size="15.00" fill="#000000">phi</text>
</g>
<!-- node_0&#45;&gt;node_2 -->
<g id="edge37" class="edge">
<title>node_0&#45;&gt;node_2</title>
<path fill="none" stroke="#00b3ff" stroke-width="2" d="M870.61,-2336.18C850.63,-2330.72 822.81,-2323.6 798,-2319 696.74,-2300.23 406.5,-2332.78 339,-2255 286.24,-2194.21 323.2,-2089.24 345.06,-2040.41"/>
<polygon fill="#00b3ff" stroke="#00b3ff" stroke-width="2" points="348.32,-2041.69 349.32,-2031.15 341.96,-2038.76 348.32,-2041.69"/>
<text text-anchor="middle" x="365.5" y="-2175.5" font-family="SF Pro Text Bold 10" font-size="15.00">i64 %0</text>
</g>
<!-- node_1&#45;&gt;node_2 -->
<g id="edge1" class="edge">
<title>node_1&#45;&gt;node_2</title>
<path fill="none" stroke="#ff3636" stroke-width="3" d="M423.91,-2168.38C400.93,-2158.6 369.46,-2141.02 355,-2114 343.01,-2091.6 345.7,-2062.15 350.21,-2041.01"/>
<polygon fill="#ff3636" stroke="#ff3636" stroke-width="3" points="353.66,-2041.63 352.59,-2031.09 346.86,-2040 353.66,-2041.63"/>
</g>
<!-- node_6 -->
<g id="node8" class="node">
<title>node_6</title>
<path fill="#6d95df" stroke="#000000" d="M742,-2031C742,-2031 712,-2031 712,-2031 706,-2031 700,-2025 700,-2019 700,-2019 700,-2007 700,-2007 700,-2001 706,-1995 712,-1995 712,-1995 742,-1995 742,-1995 748,-1995 754,-2001 754,-2007 754,-2007 754,-2019 754,-2019 754,-2025 748,-2031 742,-2031"/>
<text text-anchor="middle" x="727" y="-2009.5" font-family="SF Pro Text Bold 10" font-size="15.00" fill="#000000">mul</text>
</g>
<!-- node_1&#45;&gt;node_6 -->
<g id="edge31" class="edge">
<title>node_1&#45;&gt;node_6</title>
<path fill="none" stroke="#00b3ff" stroke-width="2" d="M478.31,-2162.83C479.55,-2162.2 480.79,-2161.59 482,-2161 555.44,-2125.33 583.19,-2134.47 651,-2089 671.85,-2075.02 691.9,-2054.85 706.17,-2038.94"/>
<polygon fill="#00b3ff" stroke="#00b3ff" stroke-width="2" points="709.11,-2040.9 713.08,-2031.07 703.85,-2036.28 709.11,-2040.9"/>
<text text-anchor="middle" x="646.5" y="-2102" font-family="SF Pro Text Bold 10" font-size="15.00">%3</text>
</g>
<!-- node_8 -->
<g id="node11" class="node">
<title>node_8</title>
<path fill="#6d95df" stroke="#000000" d="M159,-1571C159,-1571 129,-1571 129,-1571 123,-1571 117,-1565 117,-1559 117,-1559 117,-1547 117,-1547 117,-1541 123,-1535 129,-1535 129,-1535 159,-1535 159,-1535 165,-1535 171,-1541 171,-1547 171,-1547 171,-1559 171,-1559 171,-1565 165,-1571 159,-1571"/>
<text text-anchor="middle" x="144" y="-1549.5" font-family="SF Pro Text Bold 10" font-size="15.00" fill="#000000">ret</text>
</g>
<!-- node_1&#45;&gt;node_8 -->
<g id="edge30" class="edge">
<title>node_1&#45;&gt;node_8</title>
<path fill="none" stroke="#00b3ff" stroke-width="2" d="M478.14,-2162.43C479.43,-2161.91 480.72,-2161.43 482,-2161 616.57,-2115.71 680.83,-2194.2 798,-2114 840.22,-2085.11 855,-2065.16 855,-2014 855,-2014 855,-2014 855,-1718 855,-1683.09 327.6,-1586.66 181.26,-1560.58"/>
<polygon fill="#00b3ff" stroke="#00b3ff" stroke-width="2" points="181.46,-1557.06 171,-1558.75 180.24,-1563.95 181.46,-1557.06"/>
<text text-anchor="middle" x="866.5" y="-1862.5" font-family="SF Pro Text Bold 10" font-size="15.00">%3</text>
</g>
<!-- node_3 -->
<g id="node4" class="node">
<title>node_3</title>
<path fill="#6d95df" stroke="#000000" d="M66,-1884C66,-1884 36,-1884 36,-1884 30,-1884 24,-1878 24,-1872 24,-1872 24,-1860 24,-1860 24,-1854 30,-1848 36,-1848 36,-1848 66,-1848 66,-1848 72,-1848 78,-1854 78,-1860 78,-1860 78,-1872 78,-1872 78,-1878 72,-1884 66,-1884"/>
<text text-anchor="middle" x="51" y="-1862.5" font-family="SF Pro Text Bold 10" font-size="15.00" fill="#000000">icmp</text>
</g>
<!-- node_2&#45;&gt;node_3 -->
<g id="edge2" class="edge">
<title>node_2&#45;&gt;node_3</title>
<path fill="none" stroke="#ff3636" stroke-width="3" d="M330.76,-1999.13C275.34,-1972.96 149.49,-1913.52 87.25,-1884.12"/>
<polygon fill="#ff3636" stroke="#ff3636" stroke-width="3" points="88.72,-1880.94 78.18,-1879.84 85.73,-1887.27 88.72,-1880.94"/>
</g>
<!-- node_2&#45;&gt;node_3 -->
<g id="edge34" class="edge">
<title>node_2&#45;&gt;node_3</title>
<path fill="none" stroke="#00b3ff" stroke-width="2" d="M330.8,-1999.81C320.62,-1995.47 308.88,-1990.75 298,-1987 236.11,-1965.7 214.57,-1977.21 156,-1948 125.99,-1933.03 96.13,-1908.88 75.98,-1890.83"/>
<polygon fill="#00b3ff" stroke="#00b3ff" stroke-width="2" points="78.23,-1888.15 68.48,-1884 73.52,-1893.32 78.23,-1888.15"/>
<text text-anchor="middle" x="168" y="-1936" font-family="SF Pro Text Bold 10" font-size="15.00">%4</text>
</g>
<!-- node_5 -->
<g id="node7" class="node">
<title>node_5</title>
<path fill="#6d95df" stroke="#000000" d="M585,-2197C585,-2197 555,-2197 555,-2197 549,-2197 543,-2191 543,-2185 543,-2185 543,-2173 543,-2173 543,-2167 549,-2161 555,-2161 555,-2161 585,-2161 585,-2161 591,-2161 597,-2167 597,-2173 597,-2173 597,-2185 597,-2185 597,-2191 591,-2197 585,-2197"/>
<text text-anchor="middle" x="570" y="-2175.5" font-family="SF Pro Text Bold 10" font-size="15.00" fill="#000000">add</text>
</g>
<!-- node_2&#45;&gt;node_5 -->
<g id="edge36" class="edge">
<title>node_2&#45;&gt;node_5</title>
<path fill="none" stroke="#00b3ff" stroke-width="2" d="M365.46,-2031.03C375.78,-2052.86 396.32,-2090.68 424,-2114 456.18,-2141.12 501.63,-2158.6 533.25,-2168.33"/>
<polygon fill="#00b3ff" stroke="#00b3ff" stroke-width="2" points="532.41,-2171.73 542.99,-2171.21 534.39,-2165.02 532.41,-2171.73"/>
<text text-anchor="middle" x="436" y="-2102" font-family="SF Pro Text Bold 10" font-size="15.00">%4</text>
</g>
<!-- node_2&#45;&gt;node_6 -->
<g id="edge35" class="edge">
<title>node_2&#45;&gt;node_6</title>
<path fill="none" stroke="#00b3ff" stroke-width="2" d="M378.78,-2031.18C401.41,-2049.7 439.54,-2077.32 478,-2089 551.57,-2111.34 580.4,-2119.45 651,-2089 675,-2078.65 695.49,-2056.87 709.13,-2039.27"/>
<polygon fill="#00b3ff" stroke="#00b3ff" stroke-width="2" points="712.09,-2041.15 715.25,-2031.03 706.48,-2036.97 712.09,-2041.15"/>
<text text-anchor="middle" x="570" y="-2102" font-family="SF Pro Text Bold 10" font-size="15.00">%4</text>
</g>
<!-- node_4 -->
<g id="node5" class="node">
<title>node_4</title>
<path fill="#6d95df" stroke="#000000" d="M159,-1737C159,-1737 129,-1737 129,-1737 123,-1737 117,-1731 117,-1725 117,-1725 117,-1713 117,-1713 117,-1707 123,-1701 129,-1701 129,-1701 159,-1701 159,-1701 165,-1701 171,-1707 171,-1713 171,-1713 171,-1725 171,-1725 171,-1731 165,-1737 159,-1737"/>
<text text-anchor="middle" x="144" y="-1715.5" font-family="SF Pro Text Bold 10" font-size="15.00" fill="#000000">br</text>
</g>
<!-- node_3&#45;&gt;node_4 -->
<g id="edge3" class="edge">
<title>node_3&#45;&gt;node_4</title>
<path fill="none" stroke="#ff3636" stroke-width="3" d="M45.91,-1847.75C41.85,-1830.54 38.43,-1803.87 49,-1784 61.37,-1760.75 86.36,-1744.43 107.6,-1734.09"/>
<polygon fill="#ff3636" stroke="#ff3636" stroke-width="3" points="109.11,-1737.25 116.73,-1729.89 106.19,-1730.89 109.11,-1737.25"/>
</g>
<!-- node_3&#45;&gt;node_4 -->
<g id="edge39" class="edge">
<title>node_3&#45;&gt;node_4</title>
<path fill="none" stroke="#00b3ff" stroke-width="2" d="M62.03,-1847.8C78.25,-1822.51 108.65,-1775.11 127.52,-1745.69"/>
<polygon fill="#00b3ff" stroke="#00b3ff" stroke-width="2" points="130.53,-1747.49 132.98,-1737.18 124.64,-1743.71 130.53,-1747.49"/>
<text text-anchor="middle" x="112.5" y="-1789" font-family="SF Pro Text Bold 10" font-size="15.00">%5</text>
</g>
<!-- node_4&#45;&gt;node_5 -->
<g id="edge21" class="edge">
<title>node_4&#45;&gt;node_5</title>
<path fill="none" stroke="#ff8800" stroke-width="5" d="M142.98,-1737.13C139.45,-1802.6 130.4,-2035.98 177,-2089 274.66,-2200.13 358,-2127.06 502,-2161 512.13,-2163.39 523.07,-2166.08 533.16,-2168.6"/>
<polygon fill="#ff8800" stroke="#ff8800" stroke-width="5" points="532.14,-2172.85 542.91,-2171.05 534.28,-2164.37 532.14,-2172.85"/>
</g>
<!-- node_4&#45;&gt;node_8 -->
<g id="edge22" class="edge">
<title>node_4&#45;&gt;node_8</title>
<path fill="none" stroke="#ff8800" stroke-width="5" d="M144,-1700.76C144,-1672.26 144,-1615.12 144,-1581.16"/>
<polygon fill="#ff8800" stroke="#ff8800" stroke-width="5" points="148.38,-1581.01 144,-1571.01 139.63,-1581.01 148.38,-1581.01"/>
</g>
<!-- node_28 -->
<g id="node6" class="node">
<title>node_28</title>
<path fill="#d66868" stroke="#000000" d="M254,-2031C254,-2031 222,-2031 222,-2031 216,-2031 210,-2025 210,-2019 210,-2019 210,-2007 210,-2007 210,-2001 216,-1995 222,-1995 222,-1995 254,-1995 254,-1995 260,-1995 266,-2001 266,-2007 266,-2007 266,-2019 266,-2019 266,-2025 260,-2031 254,-2031"/>
<text text-anchor="middle" x="238" y="-2009.5" font-family="SF Pro Text Bold 10" font-size="15.00" fill="#000000">i64 2</text>
</g>
<!-- node_28&#45;&gt;node_3 -->
<g id="edge40" class="edge">
<title>node_28&#45;&gt;node_3</title>
<path fill="none" stroke="#00b3ff" stroke-width="2" d="M209.97,-2012.38C165.57,-2011.28 80.11,-2001.82 41,-1948 29.72,-1932.48 33.17,-1910.71 38.93,-1893.65"/>
<polygon fill="#00b3ff" stroke="#00b3ff" stroke-width="2" points="42.23,-1894.82 42.49,-1884.23 35.68,-1892.35 42.23,-1894.82"/>
</g>
<!-- node_5&#45;&gt;node_2 -->
<g id="edge41" class="edge">
<title>node_5&#45;&gt;node_2</title>
<path fill="none" stroke="#00b3ff" stroke-width="2" d="M597.11,-2169.79C637.48,-2156.29 705.6,-2127.82 676,-2097 660.75,-2081.12 499.04,-2095.5 478,-2089 443.5,-2078.35 409.07,-2055.21 385.99,-2037.43"/>
<polygon fill="#00b3ff" stroke="#00b3ff" stroke-width="2" points="388.05,-2034.6 378.03,-2031.16 383.72,-2040.1 388.05,-2034.6"/>
<text text-anchor="middle" x="694" y="-2102" font-family="SF Pro Text Bold 10" font-size="15.00">%7</text>
</g>
<!-- node_5&#45;&gt;node_6 -->
<g id="edge4" class="edge">
<title>node_5&#45;&gt;node_6</title>
<path fill="none" stroke="#ff3636" stroke-width="3" d="M597.09,-2178.46C641.39,-2177.55 728.36,-2168.48 768,-2114 784.74,-2091 767.27,-2060.16 750.24,-2038.84"/>
<polygon fill="#ff3636" stroke="#ff3636" stroke-width="3" points="752.91,-2036.58 743.8,-2031.17 747.55,-2041.08 752.91,-2036.58"/>
</g>
<!-- node_6&#45;&gt;node_1 -->
<g id="edge43" class="edge">
<title>node_6&#45;&gt;node_1</title>
<path fill="none" stroke="#00b3ff" stroke-width="2" d="M715.37,-2031.3C702.15,-2049.32 678.77,-2076.62 651,-2089 623.96,-2101.06 544.4,-2083.59 518,-2097 494.51,-2108.93 476.2,-2133.17 464.71,-2152.03"/>
<polygon fill="#00b3ff" stroke="#00b3ff" stroke-width="2" points="461.62,-2150.38 459.62,-2160.79 467.67,-2153.9 461.62,-2150.38"/>
<text text-anchor="middle" x="530" y="-2102" font-family="SF Pro Text Bold 10" font-size="15.00">%8</text>
</g>
<!-- node_7 -->
<g id="node9" class="node">
<title>node_7</title>
<path fill="#6d95df" stroke="#000000" d="M544,-1884C544,-1884 514,-1884 514,-1884 508,-1884 502,-1878 502,-1872 502,-1872 502,-1860 502,-1860 502,-1854 508,-1848 514,-1848 514,-1848 544,-1848 544,-1848 550,-1848 556,-1854 556,-1860 556,-1860 556,-1872 556,-1872 556,-1878 550,-1884 544,-1884"/>
<text text-anchor="middle" x="529" y="-1862.5" font-family="SF Pro Text Bold 10" font-size="15.00" fill="#000000">br</text>
</g>
<!-- node_6&#45;&gt;node_7 -->
<g id="edge5" class="edge">
<title>node_6&#45;&gt;node_7</title>
<path fill="none" stroke="#ff3636" stroke-width="3" d="M703.51,-1994.8C668.01,-1968.8 600.61,-1919.44 560.76,-1890.26"/>
<polygon fill="#ff3636" stroke="#ff3636" stroke-width="3" points="562.6,-1887.27 552.46,-1884.18 558.46,-1892.91 562.6,-1887.27"/>
</g>
<!-- node_7&#45;&gt;node_1 -->
<g id="edge20" class="edge">
<title>node_7&#45;&gt;node_1</title>
<path fill="none" stroke="#ff8800" stroke-width="5" d="M521.91,-1884.23C506.74,-1921.99 471.26,-2015.25 456,-2097 452.7,-2114.67 451.45,-2134.84 451.02,-2150.63"/>
<polygon fill="#ff8800" stroke="#ff8800" stroke-width="5" points="446.65,-2150.71 450.84,-2160.78 455.39,-2150.86 446.65,-2150.71"/>
</g>
<!-- node_7&#45;&gt;node_1 -->
<g id="edge33" class="edge">
<title>node_7&#45;&gt;node_1</title>
<path fill="none" stroke="#00b3ff" stroke-width="2" d="M526.75,-1884.11C524.52,-1900.54 520.89,-1926.02 517,-1948 505.86,-2011 519.98,-2033.59 488,-2089 485.32,-2093.64 481.97,-2092.55 479,-2097 468.16,-2113.24 461.07,-2134.12 456.74,-2150.61"/>
<polygon fill="#00b3ff" stroke="#00b3ff" stroke-width="2" points="453.25,-2150.18 454.28,-2160.72 460.05,-2151.84 453.25,-2150.18"/>
<text text-anchor="middle" x="538.5" y="-2009.5" font-family="SF Pro Text Bold 10" font-size="15.00">i64 %8</text>
</g>
<!-- node_7&#45;&gt;node_2 -->
<g id="edge38" class="edge">
<title>node_7&#45;&gt;node_2</title>
<path fill="none" stroke="#00b3ff" stroke-width="2" d="M501.71,-1882.19C500.46,-1882.82 499.22,-1883.42 498,-1884 447.75,-1907.86 419.38,-1889.81 382,-1931 368.7,-1945.66 362.75,-1967.38 360.1,-1984.64"/>
<polygon fill="#00b3ff" stroke="#00b3ff" stroke-width="2" points="356.61,-1984.35 358.84,-1994.71 363.55,-1985.22 356.61,-1984.35"/>
<text text-anchor="middle" x="408" y="-1936" font-family="SF Pro Text Bold 10" font-size="15.00">i64 %7</text>
</g>
<!-- node_29 -->
<g id="node10" class="node">
<title>node_29</title>
<path fill="#d66868" stroke="#000000" d="M588.5,-2363C588.5,-2363 551.5,-2363 551.5,-2363 545.5,-2363 539.5,-2357 539.5,-2351 539.5,-2351 539.5,-2339 539.5,-2339 539.5,-2333 545.5,-2327 551.5,-2327 551.5,-2327 588.5,-2327 588.5,-2327 594.5,-2327 600.5,-2333 600.5,-2339 600.5,-2339 600.5,-2351 600.5,-2351 600.5,-2357 594.5,-2363 588.5,-2363"/>
<text text-anchor="middle" x="570" y="-2341.5" font-family="SF Pro Text Bold 10" font-size="15.00" fill="#000000">i64 &#45;1</text>
</g>
<!-- node_29&#45;&gt;node_5 -->
<g id="edge42" class="edge">
<title>node_29&#45;&gt;node_5</title>
<path fill="none" stroke="#00b3ff" stroke-width="2" d="M570,-2326.76C570,-2298.26 570,-2241.12 570,-2207.16"/>
<polygon fill="#00b3ff" stroke="#00b3ff" stroke-width="2" points="573.5,-2207.01 570,-2197.01 566.5,-2207.01 573.5,-2207.01"/>
</g>
<!-- node_9 -->
<g id="node12" class="node">
<title>node_9</title>
<path fill="#6d95df" stroke="#000000" d="M1952,-2197C1952,-2197 1922,-2197 1922,-2197 1916,-2197 1910,-2191 1910,-2185 1910,-2185 1910,-2173 1910,-2173 1910,-2167 1916,-2161 1922,-2161 1922,-2161 1952,-2161 1952,-2161 1958,-2161 1964,-2167 1964,-2173 1964,-2173 1964,-2185 1964,-2185 1964,-2191 1958,-2197 1952,-2197"/>
<text text-anchor="middle" x="1937" y="-2175.5" font-family="SF Pro Text Bold 10" font-size="15.00" fill="#000000">icmp</text>
</g>
<!-- node_10 -->
<g id="node13" class="node">
<title>node_10</title>
<path fill="#6d95df" stroke="#000000" d="M1952,-2031C1952,-2031 1922,-2031 1922,-2031 1916,-2031 1910,-2025 1910,-2019 1910,-2019 1910,-2007 1910,-2007 1910,-2001 1916,-1995 1922,-1995 1922,-1995 1952,-1995 1952,-1995 1958,-1995 1964,-2001 1964,-2007 1964,-2007 1964,-2019 1964,-2019 1964,-2025 1958,-2031 1952,-2031"/>
<text text-anchor="middle" x="1937" y="-2009.5" font-family="SF Pro Text Bold 10" font-size="15.00" fill="#000000">br</text>
</g>
<!-- node_9&#45;&gt;node_10 -->
<g id="edge6" class="edge">
<title>node_9&#45;&gt;node_10</title>
<path fill="none" stroke="#ff3636" stroke-width="3" d="M1937,-2160.76C1937,-2132.26 1937,-2075.12 1937,-2041.16"/>
<polygon fill="#ff3636" stroke="#ff3636" stroke-width="3" points="1940.5,-2041.01 1937,-2031.01 1933.5,-2041.01 1940.5,-2041.01"/>
</g>
<!-- node_9&#45;&gt;node_10 -->
<g id="edge44" class="edge">
<title>node_9&#45;&gt;node_10</title>
<path fill="none" stroke="#00b3ff" stroke-width="2" d="M1937.68,-2160.89C1938.16,-2148 1938.75,-2129.89 1939,-2114 1939.38,-2089.42 1938.73,-2061.45 1938.07,-2041.35"/>
<polygon fill="#00b3ff" stroke="#00b3ff" stroke-width="2" points="1941.57,-2041.21 1937.72,-2031.34 1934.57,-2041.46 1941.57,-2041.21"/>
<text text-anchor="middle" x="1950.5" y="-2102" font-family="SF Pro Text Bold 10" font-size="15.00">%3</text>
</g>
<!-- node_11 -->
<g id="node16" class="node">
<title>node_11</title>
<path fill="#6d95df" stroke="#000000" d="M1952,-504C1952,-504 1922,-504 1922,-504 1916,-504 1910,-498 1910,-492 1910,-492 1910,-480 1910,-480 1910,-474 1916,-468 1922,-468 1922,-468 1952,-468 1952,-468 1958,-468 1964,-474 1964,-480 1964,-480 1964,-492 1964,-492 1964,-498 1958,-504 1952,-504"/>
<text text-anchor="middle" x="1937" y="-482.5" font-family="SF Pro Text Bold 10" font-size="15.00" fill="#000000">call</text>
</g>
<!-- node_10&#45;&gt;node_11 -->
<g id="edge23" class="edge">
<title>node_10&#45;&gt;node_11</title>
<path fill="none" stroke="#ff8800" stroke-width="5" d="M1937,-1994.59C1937,-1967.37 1937,-1913.07 1937,-1867 1937,-1867 1937,-1867 1937,-632 1937,-591.15 1937,-543.83 1937,-514.65"/>
<polygon fill="#ff8800" stroke="#ff8800" stroke-width="5" points="1941.38,-514.41 1937,-504.41 1932.63,-514.41 1941.38,-514.41"/>
</g>
<!-- node_13 -->
<g id="node20" class="node">
<title>node_13</title>
<path fill="#6d95df" stroke="#000000" d="M1859,-1884C1859,-1884 1829,-1884 1829,-1884 1823,-1884 1817,-1878 1817,-1872 1817,-1872 1817,-1860 1817,-1860 1817,-1854 1823,-1848 1829,-1848 1829,-1848 1859,-1848 1859,-1848 1865,-1848 1871,-1854 1871,-1860 1871,-1860 1871,-1872 1871,-1872 1871,-1878 1865,-1884 1859,-1884"/>
<text text-anchor="middle" x="1844" y="-1862.5" font-family="SF Pro Text Bold 10" font-size="15.00" fill="#000000">call</text>
</g>
<!-- node_10&#45;&gt;node_13 -->
<g id="edge24" class="edge">
<title>node_10&#45;&gt;node_13</title>
<path fill="none" stroke="#ff8800" stroke-width="5" d="M1925.97,-1994.8C1909.75,-1969.51 1879.35,-1922.11 1860.48,-1892.69"/>
<polygon fill="#ff8800" stroke="#ff8800" stroke-width="5" points="1864.1,-1890.24 1855.02,-1884.18 1856.74,-1894.96 1864.1,-1890.24"/>
</g>
<!-- node_30 -->
<g id="node14" class="node">
<title>node_30</title>
<path fill="#d66868" stroke="#000000" d="M2077,-2363C2077,-2363 2033,-2363 2033,-2363 2027,-2363 2021,-2357 2021,-2351 2021,-2351 2021,-2339 2021,-2339 2021,-2333 2027,-2327 2033,-2327 2033,-2327 2077,-2327 2077,-2327 2083,-2327 2089,-2333 2089,-2339 2089,-2339 2089,-2351 2089,-2351 2089,-2357 2083,-2363 2077,-2363"/>
<text text-anchor="middle" x="2055" y="-2341.5" font-family="SF Pro Text Bold 10" font-size="15.00" fill="#000000">i32 %0</text>
</g>
<!-- node_30&#45;&gt;node_9 -->
<g id="edge45" class="edge">
<title>node_30&#45;&gt;node_9</title>
<path fill="none" stroke="#00b3ff" stroke-width="2" d="M2042.59,-2326.76C2021.74,-2297.77 1979.55,-2239.13 1955.29,-2205.41"/>
<polygon fill="#00b3ff" stroke="#00b3ff" stroke-width="2" points="1957.92,-2203.08 1949.24,-2197.01 1952.24,-2207.17 1957.92,-2203.08"/>
<text text-anchor="middle" x="2018" y="-2268" font-family="SF Pro Text Bold 10" font-size="15.00">%0</text>
</g>
<!-- node_31 -->
<g id="node15" class="node">
<title>node_31</title>
<path fill="#d66868" stroke="#000000" d="M1944,-2363C1944,-2363 1914,-2363 1914,-2363 1908,-2363 1902,-2357 1902,-2351 1902,-2351 1902,-2339 1902,-2339 1902,-2333 1908,-2327 1914,-2327 1914,-2327 1944,-2327 1944,-2327 1950,-2327 1956,-2333 1956,-2339 1956,-2339 1956,-2351 1956,-2351 1956,-2357 1950,-2363 1944,-2363"/>
<text text-anchor="middle" x="1929" y="-2341.5" font-family="SF Pro Text Bold 10" font-size="15.00" fill="#000000">i32 2</text>
</g>
<!-- node_31&#45;&gt;node_9 -->
<g id="edge46" class="edge">
<title>node_31&#45;&gt;node_9</title>
<path fill="none" stroke="#00b3ff" stroke-width="2" d="M1929.84,-2326.76C1931.23,-2298.26 1934.02,-2241.12 1935.68,-2207.16"/>
<polygon fill="#00b3ff" stroke="#00b3ff" stroke-width="2" points="1939.18,-2207.17 1936.17,-2197.01 1932.19,-2206.83 1939.18,-2207.17"/>
</g>
<!-- node_12 -->
<g id="node17" class="node">
<title>node_12</title>
<path fill="#6d95df" stroke="#000000" d="M1937,-373C1937,-373 1907,-373 1907,-373 1901,-373 1895,-367 1895,-361 1895,-361 1895,-349 1895,-349 1895,-343 1901,-337 1907,-337 1907,-337 1937,-337 1937,-337 1943,-337 1949,-343 1949,-349 1949,-349 1949,-361 1949,-361 1949,-367 1943,-373 1937,-373"/>
<text text-anchor="middle" x="1922" y="-351.5" font-family="SF Pro Text Bold 10" font-size="15.00" fill="#000000">br</text>
</g>
<!-- node_11&#45;&gt;node_12 -->
<g id="edge7" class="edge">
<title>node_11&#45;&gt;node_12</title>
<path fill="none" stroke="#ff3636" stroke-width="3" d="M1935.01,-467.87C1932.5,-446.28 1928.15,-408.91 1925.18,-383.35"/>
<polygon fill="#ff3636" stroke="#ff3636" stroke-width="3" points="1928.63,-382.73 1924,-373.2 1921.68,-383.54 1928.63,-382.73"/>
</g>
<!-- node_26 -->
<g id="node43" class="node">
<title>node_26</title>
<path fill="#6d95df" stroke="#000000" d="M1626,-207C1626,-207 1596,-207 1596,-207 1590,-207 1584,-201 1584,-195 1584,-195 1584,-183 1584,-183 1584,-177 1590,-171 1596,-171 1596,-171 1626,-171 1626,-171 1632,-171 1638,-177 1638,-183 1638,-183 1638,-195 1638,-195 1638,-201 1632,-207 1626,-207"/>
<text text-anchor="middle" x="1611" y="-185.5" font-family="SF Pro Text Bold 10" font-size="15.00" fill="#000000">phi</text>
</g>
<!-- node_12&#45;&gt;node_26 -->
<g id="edge27" class="edge">
<title>node_12&#45;&gt;node_26</title>
<path fill="none" stroke="#ff8800" stroke-width="5" d="M1902.17,-336.88C1898.56,-334.1 1894.75,-331.36 1891,-329 1856.84,-307.52 1845.24,-307.76 1809,-290 1752.18,-262.14 1686.72,-228.85 1647.13,-208.57"/>
<polygon fill="#ff8800" stroke="#ff8800" stroke-width="5" points="1649.02,-204.62 1638.12,-203.95 1645.03,-212.41 1649.02,-204.62"/>
</g>
<!-- node_12&#45;&gt;node_26 -->
<g id="edge70" class="edge">
<title>node_12&#45;&gt;node_26</title>
<path fill="none" stroke="#00b3ff" stroke-width="2" d="M1901.17,-336.83C1897.8,-334.16 1894.33,-331.47 1891,-329 1855.57,-302.68 1847.77,-294.08 1809,-273 1754.85,-243.55 1688.04,-217.52 1647.52,-202.77"/>
<polygon fill="#00b3ff" stroke="#00b3ff" stroke-width="2" points="1648.65,-199.46 1638.05,-199.36 1646.27,-206.04 1648.65,-199.46"/>
<text text-anchor="middle" x="1855" y="-278" font-family="SF Pro Text Bold 10" font-size="15.00">i32 1</text>
</g>
<!-- node_32 -->
<g id="node18" class="node">
<title>node_32</title>
<path fill="#d66868" stroke="#000000" d="M2240,-651C2240,-651 2172,-651 2172,-651 2166,-651 2160,-645 2160,-639 2160,-639 2160,-627 2160,-627 2160,-621 2166,-615 2172,-615 2172,-615 2240,-615 2240,-615 2246,-615 2252,-621 2252,-627 2252,-627 2252,-639 2252,-639 2252,-645 2246,-651 2240,-651"/>
<text text-anchor="middle" x="2206" y="-629.5" font-family="SF Pro Text Bold 10" font-size="15.00" fill="#000000">ptr @str.2</text>
</g>
<!-- node_32&#45;&gt;node_11 -->
<g id="edge47" class="edge">
<title>node_32&#45;&gt;node_11</title>
<path fill="none" stroke="#00b3ff" stroke-width="2" d="M2174.35,-614.94C2124.04,-587.82 2026.11,-535.03 1973.12,-506.47"/>
<polygon fill="#00b3ff" stroke="#00b3ff" stroke-width="2" points="1974.55,-503.26 1964.09,-501.6 1971.23,-509.43 1974.55,-503.26"/>
</g>
<!-- node_33 -->
<g id="node19" class="node">
<title>node_33</title>
<path fill="#d66868" stroke="#000000" d="M2082.5,-651C2082.5,-651 2015.5,-651 2015.5,-651 2009.5,-651 2003.5,-645 2003.5,-639 2003.5,-639 2003.5,-627 2003.5,-627 2003.5,-621 2009.5,-615 2015.5,-615 2015.5,-615 2082.5,-615 2082.5,-615 2088.5,-615 2094.5,-621 2094.5,-627 2094.5,-627 2094.5,-639 2094.5,-639 2094.5,-645 2088.5,-651 2082.5,-651"/>
<text text-anchor="middle" x="2049" y="-629.5" font-family="SF Pro Text Bold 10" font-size="15.00" fill="#000000">ptr @puts</text>
</g>
<!-- node_33&#45;&gt;node_11 -->
<g id="edge48" class="edge">
<title>node_33&#45;&gt;node_11</title>
<path fill="none" stroke="#00b3ff" stroke-width="2" d="M2035.71,-614.8C2016.09,-589.4 1979.26,-541.71 1956.55,-512.31"/>
<polygon fill="#00b3ff" stroke="#00b3ff" stroke-width="2" points="1959.15,-509.95 1950.27,-504.18 1953.61,-514.23 1959.15,-509.95"/>
</g>
<!-- node_14 -->
<g id="node21" class="node">
<title>node_14</title>
<path fill="#6d95df" stroke="#000000" d="M1731,-1737C1731,-1737 1701,-1737 1701,-1737 1695,-1737 1689,-1731 1689,-1725 1689,-1725 1689,-1713 1689,-1713 1689,-1707 1695,-1701 1701,-1701 1701,-1701 1731,-1701 1731,-1701 1737,-1701 1743,-1707 1743,-1713 1743,-1713 1743,-1725 1743,-1725 1743,-1731 1737,-1737 1731,-1737"/>
<text text-anchor="middle" x="1716" y="-1715.5" font-family="SF Pro Text Bold 10" font-size="15.00" fill="#000000">load</text>
</g>
<!-- node_13&#45;&gt;node_14 -->
<g id="edge8" class="edge">
<title>node_13&#45;&gt;node_14</title>
<path fill="none" stroke="#ff3636" stroke-width="3" d="M1816.6,-1852.19C1795.64,-1841.18 1767.31,-1823.53 1749,-1801 1736.15,-1785.19 1727.71,-1763.71 1722.58,-1746.84"/>
<polygon fill="#ff3636" stroke="#ff3636" stroke-width="3" points="1725.89,-1745.69 1719.81,-1737.02 1719.16,-1747.6 1725.89,-1745.69"/>
</g>
<!-- node_13&#45;&gt;node_14 -->
<g id="edge49" class="edge">
<title>node_13&#45;&gt;node_14</title>
<path fill="none" stroke="#00b3ff" stroke-width="2" d="M1828.81,-1847.8C1806.3,-1822.29 1763.93,-1774.3 1738.01,-1744.93"/>
<polygon fill="#00b3ff" stroke="#00b3ff" stroke-width="2" points="1740.41,-1742.36 1731.17,-1737.18 1735.16,-1746.99 1740.41,-1742.36"/>
<text text-anchor="middle" x="1794" y="-1789" font-family="SF Pro Text Bold 10" font-size="15.00">%7</text>
</g>
<!-- node_15 -->
<g id="node22" class="node">
<title>node_15</title>
<path fill="#6d95df" stroke="#000000" d="M1701,-1571C1701,-1571 1671,-1571 1671,-1571 1665,-1571 1659,-1565 1659,-1559 1659,-1559 1659,-1547 1659,-1547 1659,-1541 1665,-1535 1671,-1535 1671,-1535 1701,-1535 1701,-1535 1707,-1535 1713,-1541 1713,-1547 1713,-1547 1713,-1559 1713,-1559 1713,-1565 1707,-1571 1701,-1571"/>
<text text-anchor="middle" x="1686" y="-1549.5" font-family="SF Pro Text Bold 10" font-size="15.00" fill="#000000">icmp</text>
</g>
<!-- node_14&#45;&gt;node_15 -->
<g id="edge9" class="edge">
<title>node_14&#45;&gt;node_15</title>
<path fill="none" stroke="#ff3636" stroke-width="3" d="M1716.08,-1700.8C1715.89,-1684.31 1714.9,-1658.77 1711,-1637 1707.59,-1617.92 1701.28,-1597.03 1695.85,-1580.98"/>
<polygon fill="#ff3636" stroke="#ff3636" stroke-width="3" points="1699.05,-1579.5 1692.46,-1571.2 1692.43,-1581.8 1699.05,-1579.5"/>
</g>
<!-- node_14&#45;&gt;node_15 -->
<g id="edge51" class="edge">
<title>node_14&#45;&gt;node_15</title>
<path fill="none" stroke="#00b3ff" stroke-width="2" d="M1699.87,-1700.81C1689.7,-1688.73 1677.48,-1671.64 1672,-1654 1664.53,-1629.94 1669.86,-1601.38 1675.97,-1580.95"/>
<polygon fill="#00b3ff" stroke="#00b3ff" stroke-width="2" points="1679.33,-1581.95 1679.08,-1571.36 1672.67,-1579.79 1679.33,-1581.95"/>
<text text-anchor="middle" x="1684" y="-1642" font-family="SF Pro Text Bold 10" font-size="15.00">%8</text>
</g>
<!-- node_16 -->
<g id="node23" class="node">
<title>node_16</title>
<path fill="#6d95df" stroke="#000000" d="M1585,-1405C1585,-1405 1555,-1405 1555,-1405 1549,-1405 1543,-1399 1543,-1393 1543,-1393 1543,-1381 1543,-1381 1543,-1375 1549,-1369 1555,-1369 1555,-1369 1585,-1369 1585,-1369 1591,-1369 1597,-1375 1597,-1381 1597,-1381 1597,-1393 1597,-1393 1597,-1399 1591,-1405 1585,-1405"/>
<text text-anchor="middle" x="1570" y="-1383.5" font-family="SF Pro Text Bold 10" font-size="15.00" fill="#000000">br</text>
</g>
<!-- node_15&#45;&gt;node_16 -->
<g id="edge10" class="edge">
<title>node_15&#45;&gt;node_16</title>
<path fill="none" stroke="#ff3636" stroke-width="3" d="M1658.67,-1538.22C1639.34,-1527.14 1614.24,-1509.83 1599,-1488 1583.86,-1466.32 1576.56,-1436.76 1573.07,-1415.41"/>
<polygon fill="#ff3636" stroke="#ff3636" stroke-width="3" points="1576.52,-1414.76 1571.62,-1405.37 1569.59,-1415.77 1576.52,-1414.76"/>
</g>
<!-- node_15&#45;&gt;node_16 -->
<g id="edge52" class="edge">
<title>node_15&#45;&gt;node_16</title>
<path fill="none" stroke="#00b3ff" stroke-width="2" d="M1673.81,-1534.76C1653.3,-1505.77 1611.83,-1447.13 1587.98,-1413.41"/>
<polygon fill="#00b3ff" stroke="#00b3ff" stroke-width="2" points="1590.66,-1411.15 1582.03,-1405.01 1584.95,-1415.2 1590.66,-1411.15"/>
<text text-anchor="middle" x="1650" y="-1476" font-family="SF Pro Text Bold 10" font-size="15.00">%9</text>
</g>
<!-- node_17 -->
<g id="node26" class="node">
<title>node_17</title>
<path fill="#6d95df" stroke="#000000" d="M1491.5,-1258C1491.5,-1258 1390.5,-1258 1390.5,-1258 1384.5,-1258 1378.5,-1252 1378.5,-1246 1378.5,-1246 1378.5,-1234 1378.5,-1234 1378.5,-1228 1384.5,-1222 1390.5,-1222 1390.5,-1222 1491.5,-1222 1491.5,-1222 1497.5,-1222 1503.5,-1228 1503.5,-1234 1503.5,-1234 1503.5,-1246 1503.5,-1246 1503.5,-1252 1497.5,-1258 1491.5,-1258"/>
<text text-anchor="middle" x="1441" y="-1236.5" font-family="SF Pro Text Bold 10" font-size="15.00" fill="#000000">getelementptr</text>
</g>
<!-- node_16&#45;&gt;node_17 -->
<g id="edge25" class="edge">
<title>node_16&#45;&gt;node_17</title>
<path fill="none" stroke="#ff8800" stroke-width="5" d="M1554.7,-1368.8C1532,-1343.29 1489.3,-1295.3 1463.18,-1265.93"/>
<polygon fill="#ff8800" stroke="#ff8800" stroke-width="5" points="1466.2,-1262.74 1456.28,-1258.18 1459.66,-1268.56 1466.2,-1262.74"/>
</g>
<!-- node_24 -->
<g id="node39" class="node">
<title>node_24</title>
<path fill="#6d95df" stroke="#000000" d="M1585,-504C1585,-504 1555,-504 1555,-504 1549,-504 1543,-498 1543,-492 1543,-492 1543,-480 1543,-480 1543,-474 1549,-468 1555,-468 1555,-468 1585,-468 1585,-468 1591,-468 1597,-474 1597,-480 1597,-480 1597,-492 1597,-492 1597,-498 1591,-504 1585,-504"/>
<text text-anchor="middle" x="1570" y="-482.5" font-family="SF Pro Text Bold 10" font-size="15.00" fill="#000000">call</text>
</g>
<!-- node_16&#45;&gt;node_24 -->
<g id="edge26" class="edge">
<title>node_16&#45;&gt;node_24</title>
<path fill="none" stroke="#ff8800" stroke-width="5" d="M1570,-1368.59C1570,-1341.37 1570,-1287.07 1570,-1241 1570,-1241 1570,-1241 1570,-632 1570,-591.15 1570,-543.83 1570,-514.65"/>
<polygon fill="#ff8800" stroke="#ff8800" stroke-width="5" points="1574.38,-514.41 1570,-504.41 1565.63,-514.41 1574.38,-514.41"/>
</g>
<!-- node_34 -->
<g id="node24" class="node">
<title>node_34</title>
<path fill="#d66868" stroke="#000000" d="M1832.5,-2031C1832.5,-2031 1677.5,-2031 1677.5,-2031 1671.5,-2031 1665.5,-2025 1665.5,-2019 1665.5,-2019 1665.5,-2007 1665.5,-2007 1665.5,-2001 1671.5,-1995 1677.5,-1995 1677.5,-1995 1832.5,-1995 1832.5,-1995 1838.5,-1995 1844.5,-2001 1844.5,-2007 1844.5,-2007 1844.5,-2019 1844.5,-2019 1844.5,-2025 1838.5,-2031 1832.5,-2031"/>
<text text-anchor="middle" x="1755" y="-2009.5" font-family="SF Pro Text Bold 10" font-size="15.00" fill="#000000">ptr @__errno_location</text>
</g>
<!-- node_34&#45;&gt;node_13 -->
<g id="edge50" class="edge">
<title>node_34&#45;&gt;node_13</title>
<path fill="none" stroke="#00b3ff" stroke-width="2" d="M1765.56,-1994.8C1781.02,-1969.62 1809.92,-1922.52 1828,-1893.07"/>
<polygon fill="#00b3ff" stroke="#00b3ff" stroke-width="2" points="1831.21,-1894.53 1833.45,-1884.18 1825.24,-1890.87 1831.21,-1894.53"/>
</g>
<!-- node_35 -->
<g id="node25" class="node">
<title>node_35</title>
<path fill="#d66868" stroke="#000000" d="M1851.5,-1737C1851.5,-1737 1820.5,-1737 1820.5,-1737 1814.5,-1737 1808.5,-1731 1808.5,-1725 1808.5,-1725 1808.5,-1713 1808.5,-1713 1808.5,-1707 1814.5,-1701 1820.5,-1701 1820.5,-1701 1851.5,-1701 1851.5,-1701 1857.5,-1701 1863.5,-1707 1863.5,-1713 1863.5,-1713 1863.5,-1725 1863.5,-1725 1863.5,-1731 1857.5,-1737 1851.5,-1737"/>
<text text-anchor="middle" x="1836" y="-1715.5" font-family="SF Pro Text Bold 10" font-size="15.00" fill="#000000">i32 0</text>
</g>
<!-- node_35&#45;&gt;node_15 -->
<g id="edge53" class="edge">
<title>node_35&#45;&gt;node_15</title>
<path fill="none" stroke="#00b3ff" stroke-width="2" d="M1820.23,-1700.76C1793.49,-1671.52 1739.17,-1612.13 1708.46,-1578.56"/>
<polygon fill="#00b3ff" stroke="#00b3ff" stroke-width="2" points="1710.89,-1576.03 1701.56,-1571.01 1705.72,-1580.75 1710.89,-1576.03"/>
</g>
<!-- node_18 -->
<g id="node27" class="node">
<title>node_18</title>
<path fill="#6d95df" stroke="#000000" d="M1384,-1111C1384,-1111 1354,-1111 1354,-1111 1348,-1111 1342,-1105 1342,-1099 1342,-1099 1342,-1087 1342,-1087 1342,-1081 1348,-1075 1354,-1075 1354,-1075 1384,-1075 1384,-1075 1390,-1075 1396,-1081 1396,-1087 1396,-1087 1396,-1099 1396,-1099 1396,-1105 1390,-1111 1384,-1111"/>
<text text-anchor="middle" x="1369" y="-1089.5" font-family="SF Pro Text Bold 10" font-size="15.00" fill="#000000">load</text>
</g>
<!-- node_17&#45;&gt;node_18 -->
<g id="edge11" class="edge">
<title>node_17&#45;&gt;node_18</title>
<path fill="none" stroke="#ff3636" stroke-width="3" d="M1415.03,-1221.79C1400.22,-1210.42 1382.88,-1194.11 1374,-1175 1366.21,-1158.23 1365.09,-1137.36 1365.85,-1121.01"/>
<polygon fill="#ff3636" stroke="#ff3636" stroke-width="3" points="1369.35,-1121.23 1366.57,-1111 1362.36,-1120.73 1369.35,-1121.23"/>
</g>
<!-- node_17&#45;&gt;node_18 -->
<g id="edge54" class="edge">
<title>node_17&#45;&gt;node_18</title>
<path fill="none" stroke="#00b3ff" stroke-width="2" d="M1432.46,-1221.8C1420.01,-1196.72 1396.77,-1149.93 1382.14,-1120.46"/>
<polygon fill="#00b3ff" stroke="#00b3ff" stroke-width="2" points="1385.11,-1118.58 1377.53,-1111.18 1378.84,-1121.69 1385.11,-1118.58"/>
<text text-anchor="middle" x="1421" y="-1163" font-family="SF Pro Text Bold 10" font-size="15.00">%11</text>
</g>
<!-- node_19 -->
<g id="node28" class="node">
<title>node_19</title>
<path fill="#6d95df" stroke="#000000" d="M1244,-964C1244,-964 1214,-964 1214,-964 1208,-964 1202,-958 1202,-952 1202,-952 1202,-940 1202,-940 1202,-934 1208,-928 1214,-928 1214,-928 1244,-928 1244,-928 1250,-928 1256,-934 1256,-940 1256,-940 1256,-952 1256,-952 1256,-958 1250,-964 1244,-964"/>
<text text-anchor="middle" x="1229" y="-942.5" font-family="SF Pro Text Bold 10" font-size="15.00" fill="#000000">call</text>
</g>
<!-- node_18&#45;&gt;node_19 -->
<g id="edge12" class="edge">
<title>node_18&#45;&gt;node_19</title>
<path fill="none" stroke="#ff3636" stroke-width="3" d="M1341.64,-1078.78C1320.58,-1067.55 1291.81,-1049.8 1272,-1028 1257.5,-1012.05 1246.31,-990.3 1238.98,-973.36"/>
<polygon fill="#ff3636" stroke="#ff3636" stroke-width="3" points="1242.17,-971.93 1235.12,-964.02 1235.7,-974.6 1242.17,-971.93"/>
</g>
<!-- node_18&#45;&gt;node_19 -->
<g id="edge57" class="edge">
<title>node_18&#45;&gt;node_19</title>
<path fill="none" stroke="#00b3ff" stroke-width="2" d="M1352.39,-1074.8C1327.66,-1049.18 1281.03,-1000.89 1252.71,-971.56"/>
<polygon fill="#00b3ff" stroke="#00b3ff" stroke-width="2" points="1255.05,-968.94 1245.59,-964.18 1250.02,-973.81 1255.05,-968.94"/>
<text text-anchor="middle" x="1318.5" y="-1016" font-family="SF Pro Text Bold 10" font-size="15.00">%12</text>
</g>
<!-- node_20 -->
<g id="node29" class="node">
<title>node_20</title>
<path fill="#6d95df" stroke="#000000" d="M1169,-817C1169,-817 1139,-817 1139,-817 1133,-817 1127,-811 1127,-805 1127,-805 1127,-793 1127,-793 1127,-787 1133,-781 1139,-781 1139,-781 1169,-781 1169,-781 1175,-781 1181,-787 1181,-793 1181,-793 1181,-805 1181,-805 1181,-811 1175,-817 1169,-817"/>
<text text-anchor="middle" x="1154" y="-795.5" font-family="SF Pro Text Bold 10" font-size="15.00" fill="#000000">sext</text>
</g>
<!-- node_19&#45;&gt;node_20 -->
<g id="edge13" class="edge">
<title>node_19&#45;&gt;node_20</title>
<path fill="none" stroke="#ff3636" stroke-width="3" d="M1202.35,-927.92C1187.13,-916.59 1169.28,-900.29 1160,-881 1151.98,-864.32 1150.6,-843.45 1151.17,-827.08"/>
<polygon fill="#ff3636" stroke="#ff3636" stroke-width="3" points="1154.67,-827.24 1151.77,-817.05 1147.68,-826.82 1154.67,-827.24"/>
</g>
<!-- node_19&#45;&gt;node_20 -->
<g id="edge58" class="edge">
<title>node_19&#45;&gt;node_20</title>
<path fill="none" stroke="#00b3ff" stroke-width="2" d="M1220.1,-927.8C1207.08,-902.62 1182.72,-855.52 1167.49,-826.07"/>
<polygon fill="#00b3ff" stroke="#00b3ff" stroke-width="2" points="1170.59,-824.45 1162.89,-817.18 1164.37,-827.67 1170.59,-824.45"/>
<text text-anchor="middle" x="1208.5" y="-869" font-family="SF Pro Text Bold 10" font-size="15.00">%13</text>
</g>
<!-- node_21 -->
<g id="node30" class="node">
<title>node_21</title>
<path fill="#6d95df" stroke="#000000" d="M1168,-651C1168,-651 1138,-651 1138,-651 1132,-651 1126,-645 1126,-639 1126,-639 1126,-627 1126,-627 1126,-621 1132,-615 1138,-615 1138,-615 1168,-615 1168,-615 1174,-615 1180,-621 1180,-627 1180,-627 1180,-639 1180,-639 1180,-645 1174,-651 1168,-651"/>
<text text-anchor="middle" x="1153" y="-629.5" font-family="SF Pro Text Bold 10" font-size="15.00" fill="#000000">call</text>
</g>
<!-- node_20&#45;&gt;node_21 -->
<g id="edge14" class="edge">
<title>node_20&#45;&gt;node_21</title>
<path fill="none" stroke="#ff3636" stroke-width="3" d="M1153.89,-780.76C1153.72,-752.26 1153.37,-695.12 1153.17,-661.16"/>
<polygon fill="#ff3636" stroke="#ff3636" stroke-width="3" points="1156.66,-660.99 1153.1,-651.01 1149.66,-661.03 1156.66,-660.99"/>
</g>
<!-- node_20&#45;&gt;node_21 -->
<g id="edge61" class="edge">
<title>node_20&#45;&gt;node_21</title>
<path fill="none" stroke="#00b3ff" stroke-width="2" d="M1154.34,-780.89C1154.58,-768 1154.88,-749.89 1155,-734 1155.19,-709.42 1154.56,-681.45 1153.96,-661.35"/>
<polygon fill="#00b3ff" stroke="#00b3ff" stroke-width="2" points="1157.45,-661.22 1153.64,-651.34 1150.46,-661.45 1157.45,-661.22"/>
<text text-anchor="middle" x="1170.5" y="-722" font-family="SF Pro Text Bold 10" font-size="15.00">%14</text>
</g>
<!-- node_22 -->
<g id="node31" class="node">
<title>node_22</title>
<path fill="#6d95df" stroke="#000000" d="M1281,-504C1281,-504 1251,-504 1251,-504 1245,-504 1239,-498 1239,-492 1239,-492 1239,-480 1239,-480 1239,-474 1245,-468 1251,-468 1251,-468 1281,-468 1281,-468 1287,-468 1293,-474 1293,-480 1293,-480 1293,-492 1293,-492 1293,-498 1287,-504 1281,-504"/>
<text text-anchor="middle" x="1266" y="-482.5" font-family="SF Pro Text Bold 10" font-size="15.00" fill="#000000">call</text>
</g>
<!-- node_20&#45;&gt;node_22 -->
<g id="edge60" class="edge">
<title>node_20&#45;&gt;node_22</title>
<path fill="none" stroke="#00b3ff" stroke-width="2" d="M1127.16,-780.89C1105.28,-765.2 1075.94,-739.76 1063,-709 1046.8,-670.49 1045.14,-652.77 1063,-615 1094.58,-548.23 1179.78,-512.55 1229.18,-496.92"/>
<polygon fill="#00b3ff" stroke="#00b3ff" stroke-width="2" points="1230.31,-500.24 1238.86,-493.98 1228.27,-493.54 1230.31,-500.24"/>
<text text-anchor="middle" x="1078.5" y="-629.5" font-family="SF Pro Text Bold 10" font-size="15.00">%14</text>
</g>
<!-- node_21&#45;&gt;node_0 -->
<g id="edge63" class="edge">
<title>node_21&#45;&gt;node_0</title>
<path fill="none" stroke="#ff8800" stroke-width="5" stroke-dasharray="5,2" d="M1144.55,-651.17C1131.67,-678.13 1107.32,-732.33 1095,-781 930.29,-1431.53 1035.84,-1620.09 914,-2280 911.74,-2292.24 908.51,-2305.63 905.55,-2316.98"/>
<polygon fill="#ff8800" stroke="#ff8800" stroke-width="5" points="901.3,-2315.95 902.94,-2326.74 909.75,-2318.22 901.3,-2315.95"/>
</g>
<!-- node_21&#45;&gt;node_22 -->
<g id="edge15" class="edge">
<title>node_21&#45;&gt;node_22</title>
<path fill="none" stroke="#ff3636" stroke-width="3" d="M1170.05,-615C1182.27,-602.46 1198.83,-584.75 1212,-568 1225.93,-550.29 1239.99,-529.06 1250.28,-512.78"/>
<polygon fill="#ff3636" stroke="#ff3636" stroke-width="3" points="1253.25,-514.63 1255.58,-504.29 1247.31,-510.92 1253.25,-514.63"/>
</g>
<!-- node_21&#45;&gt;node_22 -->
<g id="edge62" class="edge">
<title>node_21&#45;&gt;node_22</title>
<path fill="none" stroke="#00b3ff" stroke-width="2" d="M1151.58,-614.74C1150.99,-597.28 1152.52,-570.19 1165,-551 1180.25,-527.55 1207.43,-511.05 1229.75,-500.69"/>
<polygon fill="#00b3ff" stroke="#00b3ff" stroke-width="2" points="1231.24,-503.86 1238.97,-496.62 1228.41,-497.45 1231.24,-503.86"/>
<text text-anchor="middle" x="1180.5" y="-556" font-family="SF Pro Text Bold 10" font-size="15.00">%15</text>
</g>
<!-- node_23 -->
<g id="node32" class="node">
<title>node_23</title>
<path fill="#6d95df" stroke="#000000" d="M1507,-373C1507,-373 1477,-373 1477,-373 1471,-373 1465,-367 1465,-361 1465,-361 1465,-349 1465,-349 1465,-343 1471,-337 1477,-337 1477,-337 1507,-337 1507,-337 1513,-337 1519,-343 1519,-349 1519,-349 1519,-361 1519,-361 1519,-367 1513,-373 1507,-373"/>
<text text-anchor="middle" x="1492" y="-351.5" font-family="SF Pro Text Bold 10" font-size="15.00" fill="#000000">br</text>
</g>
<!-- node_22&#45;&gt;node_23 -->
<g id="edge16" class="edge">
<title>node_22&#45;&gt;node_23</title>
<path fill="none" stroke="#ff3636" stroke-width="3" d="M1293.26,-469.44C1334.01,-446.18 1410.84,-402.32 1456.11,-376.49"/>
<polygon fill="#ff3636" stroke="#ff3636" stroke-width="3" points="1458.04,-379.41 1464.99,-371.41 1454.57,-373.33 1458.04,-379.41"/>
</g>
<!-- node_23&#45;&gt;node_26 -->
<g id="edge28" class="edge">
<title>node_23&#45;&gt;node_26</title>
<path fill="none" stroke="#ff8800" stroke-width="5" d="M1489.29,-336.7C1487.46,-319.44 1487.07,-292.74 1498,-273 1514.96,-242.37 1548.53,-219.96 1574.7,-206.2"/>
<polygon fill="#ff8800" stroke="#ff8800" stroke-width="5" points="1577,-209.93 1583.96,-201.52 1573.06,-202.12 1577,-209.93"/>
</g>
<!-- node_23&#45;&gt;node_26 -->
<g id="edge71" class="edge">
<title>node_23&#45;&gt;node_26</title>
<path fill="none" stroke="#00b3ff" stroke-width="2" d="M1504.51,-336.76C1525.55,-307.77 1568.09,-249.13 1592.56,-215.41"/>
<polygon fill="#00b3ff" stroke="#00b3ff" stroke-width="2" points="1595.62,-217.16 1598.66,-207.01 1589.95,-213.05 1595.62,-217.16"/>
<text text-anchor="middle" x="1566.5" y="-278" font-family="SF Pro Text Bold 10" font-size="15.00">i32 0</text>
</g>
<!-- node_36 -->
<g id="node33" class="node">
<title>node_36</title>
<path fill="#d66868" stroke="#000000" d="M1463.5,-1405C1463.5,-1405 1424.5,-1405 1424.5,-1405 1418.5,-1405 1412.5,-1399 1412.5,-1393 1412.5,-1393 1412.5,-1381 1412.5,-1381 1412.5,-1375 1418.5,-1369 1424.5,-1369 1424.5,-1369 1463.5,-1369 1463.5,-1369 1469.5,-1369 1475.5,-1375 1475.5,-1381 1475.5,-1381 1475.5,-1393 1475.5,-1393 1475.5,-1399 1469.5,-1405 1463.5,-1405"/>
<text text-anchor="middle" x="1444" y="-1383.5" font-family="SF Pro Text Bold 10" font-size="15.00" fill="#000000">ptr %1</text>
</g>
<!-- node_36&#45;&gt;node_17 -->
<g id="edge55" class="edge">
<title>node_36&#45;&gt;node_17</title>
<path fill="none" stroke="#00b3ff" stroke-width="2" d="M1443.64,-1368.8C1443.13,-1343.94 1442.17,-1297.74 1441.56,-1268.23"/>
<polygon fill="#00b3ff" stroke="#00b3ff" stroke-width="2" points="1445.06,-1268.11 1441.36,-1258.18 1438.06,-1268.25 1445.06,-1268.11"/>
<text text-anchor="middle" x="1452.5" y="-1310" font-family="SF Pro Text Bold 10" font-size="15.00">%1</text>
</g>
<!-- node_37 -->
<g id="node34" class="node">
<title>node_37</title>
<path fill="#d66868" stroke="#000000" d="M1335,-1405C1335,-1405 1305,-1405 1305,-1405 1299,-1405 1293,-1399 1293,-1393 1293,-1393 1293,-1381 1293,-1381 1293,-1375 1299,-1369 1305,-1369 1305,-1369 1335,-1369 1335,-1369 1341,-1369 1347,-1375 1347,-1381 1347,-1381 1347,-1393 1347,-1393 1347,-1399 1341,-1405 1335,-1405"/>
<text text-anchor="middle" x="1320" y="-1383.5" font-family="SF Pro Text Bold 10" font-size="15.00" fill="#000000">i64 1</text>
</g>
<!-- node_37&#45;&gt;node_17 -->
<g id="edge56" class="edge">
<title>node_37&#45;&gt;node_17</title>
<path fill="none" stroke="#00b3ff" stroke-width="2" d="M1334.36,-1368.8C1355.64,-1343.29 1395.69,-1295.3 1420.19,-1265.93"/>
<polygon fill="#00b3ff" stroke="#00b3ff" stroke-width="2" points="1422.94,-1268.1 1426.66,-1258.18 1417.57,-1263.62 1422.94,-1268.1"/>
</g>
<!-- node_38 -->
<g id="node35" class="node">
<title>node_38</title>
<path fill="#d66868" stroke="#000000" d="M1260,-1111C1260,-1111 1198,-1111 1198,-1111 1192,-1111 1186,-1105 1186,-1099 1186,-1099 1186,-1087 1186,-1087 1186,-1081 1192,-1075 1198,-1075 1198,-1075 1260,-1075 1260,-1075 1266,-1075 1272,-1081 1272,-1087 1272,-1087 1272,-1099 1272,-1099 1272,-1105 1266,-1111 1260,-1111"/>
<text text-anchor="middle" x="1229" y="-1089.5" font-family="SF Pro Text Bold 10" font-size="15.00" fill="#000000">ptr @atoi</text>
</g>
<!-- node_38&#45;&gt;node_19 -->
<g id="edge59" class="edge">
<title>node_38&#45;&gt;node_19</title>
<path fill="none" stroke="#00b3ff" stroke-width="2" d="M1229,-1074.8C1229,-1049.94 1229,-1003.74 1229,-974.23"/>
<polygon fill="#00b3ff" stroke="#00b3ff" stroke-width="2" points="1232.5,-974.18 1229,-964.18 1225.5,-974.18 1232.5,-974.18"/>
</g>
<!-- node_39 -->
<g id="node36" class="node">
<title>node_39</title>
<path fill="#d66868" stroke="#000000" d="M1321.5,-817C1321.5,-817 1258.5,-817 1258.5,-817 1252.5,-817 1246.5,-811 1246.5,-805 1246.5,-805 1246.5,-793 1246.5,-793 1246.5,-787 1252.5,-781 1258.5,-781 1258.5,-781 1321.5,-781 1321.5,-781 1327.5,-781 1333.5,-787 1333.5,-793 1333.5,-793 1333.5,-805 1333.5,-805 1333.5,-811 1327.5,-817 1321.5,-817"/>
<text text-anchor="middle" x="1290" y="-795.5" font-family="SF Pro Text Bold 10" font-size="15.00" fill="#000000">ptr @fact</text>
</g>
<!-- node_39&#45;&gt;node_21 -->
<g id="edge64" class="edge">
<title>node_39&#45;&gt;node_21</title>
<path fill="none" stroke="#00b3ff" stroke-width="2" d="M1274.75,-780.77C1259.07,-762.97 1234.04,-734.29 1213,-709 1199.36,-692.61 1184.37,-673.87 1172.79,-659.23"/>
<polygon fill="#00b3ff" stroke="#00b3ff" stroke-width="2" points="1175.34,-656.81 1166.4,-651.13 1169.84,-661.15 1175.34,-656.81"/>
</g>
<!-- node_40 -->
<g id="node37" class="node">
<title>node_40</title>
<path fill="#d66868" stroke="#000000" d="M1492,-651C1492,-651 1422,-651 1422,-651 1416,-651 1410,-645 1410,-639 1410,-639 1410,-627 1410,-627 1410,-621 1416,-615 1422,-615 1422,-615 1492,-615 1492,-615 1498,-615 1504,-621 1504,-627 1504,-627 1504,-639 1504,-639 1504,-645 1498,-651 1492,-651"/>
<text text-anchor="middle" x="1457" y="-629.5" font-family="SF Pro Text Bold 10" font-size="15.00" fill="#000000">ptr @.str.1</text>
</g>
<!-- node_40&#45;&gt;node_22 -->
<g id="edge65" class="edge">
<title>node_40&#45;&gt;node_22</title>
<path fill="none" stroke="#00b3ff" stroke-width="2" d="M1434.34,-614.8C1400.16,-588.85 1335.35,-539.65 1296.88,-510.44"/>
<polygon fill="#00b3ff" stroke="#00b3ff" stroke-width="2" points="1298.71,-507.44 1288.63,-504.18 1294.48,-513.01 1298.71,-507.44"/>
</g>
<!-- node_41 -->
<g id="node38" class="node">
<title>node_41</title>
<path fill="#d66868" stroke="#000000" d="M1333,-651C1333,-651 1257,-651 1257,-651 1251,-651 1245,-645 1245,-639 1245,-639 1245,-627 1245,-627 1245,-621 1251,-615 1257,-615 1257,-615 1333,-615 1333,-615 1339,-615 1345,-621 1345,-627 1345,-627 1345,-639 1345,-639 1345,-645 1339,-651 1333,-651"/>
<text text-anchor="middle" x="1295" y="-629.5" font-family="SF Pro Text Bold 10" font-size="15.00" fill="#000000">ptr @printf</text>
</g>
<!-- node_41&#45;&gt;node_22 -->
<g id="edge66" class="edge">
<title>node_41&#45;&gt;node_22</title>
<path fill="none" stroke="#00b3ff" stroke-width="2" d="M1291.56,-614.8C1286.59,-589.94 1277.35,-543.74 1271.45,-514.23"/>
<polygon fill="#00b3ff" stroke="#00b3ff" stroke-width="2" points="1274.83,-513.3 1269.44,-504.18 1267.97,-514.67 1274.83,-513.3"/>
</g>
<!-- node_25 -->
<g id="node40" class="node">
<title>node_25</title>
<path fill="#6d95df" stroke="#000000" d="M1626,-373C1626,-373 1596,-373 1596,-373 1590,-373 1584,-367 1584,-361 1584,-361 1584,-349 1584,-349 1584,-343 1590,-337 1596,-337 1596,-337 1626,-337 1626,-337 1632,-337 1638,-343 1638,-349 1638,-349 1638,-361 1638,-361 1638,-367 1632,-373 1626,-373"/>
<text text-anchor="middle" x="1611" y="-351.5" font-family="SF Pro Text Bold 10" font-size="15.00" fill="#000000">br</text>
</g>
<!-- node_24&#45;&gt;node_25 -->
<g id="edge17" class="edge">
<title>node_24&#45;&gt;node_25</title>
<path fill="none" stroke="#ff3636" stroke-width="3" d="M1575.44,-467.87C1582.34,-446.18 1594.29,-408.58 1602.42,-383.01"/>
<polygon fill="#ff3636" stroke="#ff3636" stroke-width="3" points="1605.84,-383.79 1605.53,-373.2 1599.17,-381.67 1605.84,-383.79"/>
</g>
<!-- node_25&#45;&gt;node_26 -->
<g id="edge29" class="edge">
<title>node_25&#45;&gt;node_26</title>
<path fill="none" stroke="#ff8800" stroke-width="5" d="M1611,-336.76C1611,-308.26 1611,-251.12 1611,-217.16"/>
<polygon fill="#ff8800" stroke="#ff8800" stroke-width="5" points="1615.38,-217.01 1611,-207.01 1606.63,-217.01 1615.38,-217.01"/>
</g>
<!-- node_25&#45;&gt;node_26 -->
<g id="edge72" class="edge">
<title>node_25&#45;&gt;node_26</title>
<path fill="none" stroke="#00b3ff" stroke-width="2" d="M1611.68,-336.89C1612.16,-324 1612.75,-305.89 1613,-290 1613.38,-265.42 1612.73,-237.45 1612.07,-217.35"/>
<polygon fill="#00b3ff" stroke="#00b3ff" stroke-width="2" points="1615.57,-217.21 1611.72,-207.34 1608.57,-217.46 1615.57,-217.21"/>
<text text-anchor="middle" x="1631" y="-278" font-family="SF Pro Text Bold 10" font-size="15.00">i32 1</text>
</g>
<!-- node_42 -->
<g id="node41" class="node">
<title>node_42</title>
<path fill="#d66868" stroke="#000000" d="M1859,-651C1859,-651 1805,-651 1805,-651 1799,-651 1793,-645 1793,-639 1793,-639 1793,-627 1793,-627 1793,-621 1799,-615 1805,-615 1805,-615 1859,-615 1859,-615 1865,-615 1871,-621 1871,-627 1871,-627 1871,-639 1871,-639 1871,-645 1865,-651 1859,-651"/>
<text text-anchor="middle" x="1832" y="-629.5" font-family="SF Pro Text Bold 10" font-size="15.00" fill="#000000">ptr @str</text>
</g>
<!-- node_42&#45;&gt;node_24 -->
<g id="edge67" class="edge">
<title>node_42&#45;&gt;node_24</title>
<path fill="none" stroke="#00b3ff" stroke-width="2" d="M1801.17,-614.94C1752.43,-587.96 1657.78,-535.58 1605.99,-506.92"/>
<polygon fill="#00b3ff" stroke="#00b3ff" stroke-width="2" points="1607.59,-503.8 1597.15,-502.02 1604.2,-509.93 1607.59,-503.8"/>
</g>
<!-- node_43 -->
<g id="node42" class="node">
<title>node_43</title>
<path fill="#d66868" stroke="#000000" d="M1715.5,-651C1715.5,-651 1648.5,-651 1648.5,-651 1642.5,-651 1636.5,-645 1636.5,-639 1636.5,-639 1636.5,-627 1636.5,-627 1636.5,-621 1642.5,-615 1648.5,-615 1648.5,-615 1715.5,-615 1715.5,-615 1721.5,-615 1727.5,-621 1727.5,-627 1727.5,-627 1727.5,-639 1727.5,-639 1727.5,-645 1721.5,-651 1715.5,-651"/>
<text text-anchor="middle" x="1682" y="-629.5" font-family="SF Pro Text Bold 10" font-size="15.00" fill="#000000">ptr @puts</text>
</g>
<!-- node_43&#45;&gt;node_24 -->
<g id="edge68" class="edge">
<title>node_43&#45;&gt;node_24</title>
<path fill="none" stroke="#00b3ff" stroke-width="2" d="M1668.71,-614.8C1649.09,-589.4 1612.26,-541.71 1589.55,-512.31"/>
<polygon fill="#00b3ff" stroke="#00b3ff" stroke-width="2" points="1592.15,-509.95 1583.27,-504.18 1586.61,-514.23 1592.15,-509.95"/>
</g>
<!-- node_27 -->
<g id="node44" class="node">
<title>node_27</title>
<path fill="#6d95df" stroke="#000000" d="M1626,-60C1626,-60 1596,-60 1596,-60 1590,-60 1584,-54 1584,-48 1584,-48 1584,-36 1584,-36 1584,-30 1590,-24 1596,-24 1596,-24 1626,-24 1626,-24 1632,-24 1638,-30 1638,-36 1638,-36 1638,-48 1638,-48 1638,-54 1632,-60 1626,-60"/>
<text text-anchor="middle" x="1611" y="-38.5" font-family="SF Pro Text Bold 10" font-size="15.00" fill="#000000">ret</text>
</g>
<!-- node_26&#45;&gt;node_27 -->
<g id="edge18" class="edge">
<title>node_26&#45;&gt;node_27</title>
<path fill="none" stroke="#ff3636" stroke-width="3" d="M1611,-170.8C1611,-145.94 1611,-99.74 1611,-70.23"/>
<polygon fill="#ff3636" stroke="#ff3636" stroke-width="3" points="1614.5,-70.18 1611,-60.18 1607.5,-70.18 1614.5,-70.18"/>
</g>
<!-- node_26&#45;&gt;node_27 -->
<g id="edge69" class="edge">
<title>node_26&#45;&gt;node_27</title>
<path fill="none" stroke="#00b3ff" stroke-width="2" d="M1611.82,-170.94C1612.51,-154.54 1613.34,-129.08 1613,-107 1612.81,-94.95 1612.42,-81.64 1612.04,-70.29"/>
<polygon fill="#00b3ff" stroke="#00b3ff" stroke-width="2" points="1615.53,-69.98 1611.68,-60.11 1608.54,-70.23 1615.53,-69.98"/>
<text text-anchor="middle" x="1630" y="-112" font-family="SF Pro Text Bold 10" font-size="15.00">%20</text>
</g>
</g>
</svg>
