<?xml version="1.0" encoding="UTF-8" standalone="no"?>
<!DOCTYPE svg PUBLIC "-//W3C//DTD SVG 1.1//EN"
 "http://www.w3.org/Graphics/SVG/1.1/DTD/svg11.dtd">
<!-- Generated by graphviz version 2.43.0 (0)
 -->
<!-- Title: /home/sevsol/Projects/4sem/lisitsyn/llvm&#45;ir&#45;dumper/wt/graph_serialization_v2/examples/fact/fact.c Pages: 1 -->
<svg width="2515pt" height="2780pt"
 viewBox="0.00 0.00 2515.20 2780.20" xmlns="http://www.w3.org/2000/svg" xmlns:xlink="http://www.w3.org/1999/xlink">
<g id="graph0" class="graph" transform="scale(1 1) rotate(0) translate(21.6 2758.6)">
<title>/home/sevsol/Projects/4sem/lisitsyn/llvm&#45;ir&#45;dumper/wt/graph_serialization_v2/examples/fact/fact.c</title>
<polygon fill="white" stroke="transparent" points="-21.6,21.6 -21.6,-2758.6 2493.6,-2758.6 2493.6,21.6 -21.6,21.6"/>
<g id="clust1" class="cluster">
<title>cluster_func_0</title>
<path fill="#e3e3e3" stroke="#000000" stroke-width="2" d="M20,-1621C20,-1621 1110,-1621 1110,-1621 1116,-1621 1122,-1627 1122,-1633 1122,-1633 1122,-2717 1122,-2717 1122,-2723 1116,-2729 1110,-2729 1110,-2729 20,-2729 20,-2729 14,-2729 8,-2723 8,-2717 8,-2717 8,-1633 8,-1633 8,-1627 14,-1621 20,-1621"/>
<text text-anchor="middle" x="565" y="-2709" font-family="SF Pro Text Bold 10" font-size="20.00">fact</text>
<text text-anchor="middle" x="565" y="-2687" font-family="SF Pro Text Bold 10" font-size="20.00">calls=1</text>
</g>
<g id="clust2" class="cluster">
<title>cluster_func_0_bb_0</title>
<path fill="#9ab799" stroke="#000000" stroke-width="2" d="M1048,-2523C1048,-2523 1102,-2523 1102,-2523 1108,-2523 1114,-2529 1114,-2535 1114,-2535 1114,-2647 1114,-2647 1114,-2653 1108,-2659 1102,-2659 1102,-2659 1048,-2659 1048,-2659 1042,-2659 1036,-2653 1036,-2647 1036,-2647 1036,-2535 1036,-2535 1036,-2529 1042,-2523 1048,-2523"/>
<text text-anchor="middle" x="1075" y="-2643" font-family="SF Pro Text Bold 10" font-size="15.00">label %1</text>
<text text-anchor="middle" x="1075" y="-2626" font-family="SF Pro Text Bold 10" font-size="15.00">count=1</text>
</g>
<g id="clust3" class="cluster">
<title>cluster_func_0_bb_1</title>
<path fill="#f4a261" stroke="#000000" stroke-width="2" d="M28,-1829C28,-1829 591,-1829 591,-1829 597,-1829 603,-1835 603,-1841 603,-1841 603,-2447 603,-2447 603,-2453 597,-2459 591,-2459 591,-2459 28,-2459 28,-2459 22,-2459 16,-2453 16,-2447 16,-2447 16,-1841 16,-1841 16,-1835 22,-1829 28,-1829"/>
<text text-anchor="middle" x="309.5" y="-2443" font-family="SF Pro Text Bold 10" font-size="15.00">label %2</text>
<text text-anchor="middle" x="309.5" y="-2426" font-family="SF Pro Text Bold 10" font-size="15.00">count=4</text>
</g>
<g id="clust4" class="cluster">
<title>cluster_func_0_bb_2</title>
<path fill="#dea76f" stroke="#000000" stroke-width="2" d="M623,-1976C623,-1976 887,-1976 887,-1976 893,-1976 899,-1982 899,-1988 899,-1988 899,-2647 899,-2647 899,-2653 893,-2659 887,-2659 887,-2659 623,-2659 623,-2659 617,-2659 611,-2653 611,-2647 611,-2647 611,-1988 611,-1988 611,-1982 617,-1976 623,-1976"/>
<text text-anchor="middle" x="755" y="-2643" font-family="SF Pro Text Bold 10" font-size="15.00">label %6</text>
<text text-anchor="middle" x="755" y="-2626" font-family="SF Pro Text Bold 10" font-size="15.00">count=3</text>
</g>
<g id="clust5" class="cluster">
<title>cluster_func_0_bb_3</title>
<path fill="#9ab799" stroke="#000000" stroke-width="2" d="M169,-1629C169,-1629 225,-1629 225,-1629 231,-1629 237,-1635 237,-1641 237,-1641 237,-1753 237,-1753 237,-1759 231,-1765 225,-1765 225,-1765 169,-1765 169,-1765 163,-1765 157,-1759 157,-1753 157,-1753 157,-1641 157,-1641 157,-1635 163,-1629 169,-1629"/>
<text text-anchor="middle" x="197" y="-1749" font-family="SF Pro Text Bold 10" font-size="15.00">label %9</text>
<text text-anchor="middle" x="197" y="-1732" font-family="SF Pro Text Bold 10" font-size="15.00">count=1</text>
</g>
<g id="clust6" class="cluster">
<title>cluster_func_1</title>
<path fill="#e3e3e3" stroke="#000000" stroke-width="2" d="M1142,-8C1142,-8 2452,-8 2452,-8 2458,-8 2464,-14 2464,-20 2464,-20 2464,-2717 2464,-2717 2464,-2723 2458,-2729 2452,-2729 2452,-2729 1142,-2729 1142,-2729 1136,-2729 1130,-2723 1130,-2717 1130,-2717 1130,-20 1130,-20 1130,-14 1136,-8 1142,-8"/>
<text text-anchor="middle" x="1797" y="-2709" font-family="SF Pro Text Bold 10" font-size="20.00">main</text>
<text text-anchor="middle" x="1797" y="-2687" font-family="SF Pro Text Bold 10" font-size="20.00">calls=1</text>
</g>
<g id="clust7" class="cluster">
<title>cluster_func_1_bb_4</title>
<path fill="#9ab799" stroke="#000000" stroke-width="2" d="M2099,-2123C2099,-2123 2278,-2123 2278,-2123 2284,-2123 2290,-2129 2290,-2135 2290,-2135 2290,-2647 2290,-2647 2290,-2653 2284,-2659 2278,-2659 2278,-2659 2099,-2659 2099,-2659 2093,-2659 2087,-2653 2087,-2647 2087,-2647 2087,-2135 2087,-2135 2087,-2129 2093,-2123 2099,-2123"/>
<text text-anchor="middle" x="2188.5" y="-2643" font-family="SF Pro Text Bold 10" font-size="15.00">label %2</text>
<text text-anchor="middle" x="2188.5" y="-2626" font-family="SF Pro Text Bold 10" font-size="15.00">count=1</text>
</g>
<g id="clust8" class="cluster">
<title>cluster_func_1_bb_5</title>
<path fill="#56c7c3" stroke="#000000" stroke-width="2" d="M2095,-363C2095,-363 2444,-363 2444,-363 2450,-363 2456,-369 2456,-375 2456,-375 2456,-765 2456,-765 2456,-771 2450,-777 2444,-777 2444,-777 2095,-777 2095,-777 2089,-777 2083,-771 2083,-765 2083,-765 2083,-375 2083,-375 2083,-369 2089,-363 2095,-363"/>
<text text-anchor="middle" x="2269.5" y="-761" font-family="SF Pro Text Bold 10" font-size="15.00">label %4</text>
<text text-anchor="middle" x="2269.5" y="-744" font-family="SF Pro Text Bold 10" font-size="15.00">count=0</text>
</g>
<g id="clust9" class="cluster">
<title>cluster_func_1_bb_6</title>
<path fill="#9ab799" stroke="#000000" stroke-width="2" d="M1743,-1429C1743,-1429 2063,-1429 2063,-1429 2069,-1429 2075,-1435 2075,-1441 2075,-1441 2075,-2247 2075,-2247 2075,-2253 2069,-2259 2063,-2259 2063,-2259 1743,-2259 1743,-2259 1737,-2259 1731,-2253 1731,-2247 1731,-2247 1731,-1441 1731,-1441 1731,-1435 1737,-1429 1743,-1429"/>
<text text-anchor="middle" x="1903" y="-2243" font-family="SF Pro Text Bold 10" font-size="15.00">label %6</text>
<text text-anchor="middle" x="1903" y="-2226" font-family="SF Pro Text Bold 10" font-size="15.00">count=1</text>
</g>
<g id="clust10" class="cluster">
<title>cluster_func_1_bb_7</title>
<path fill="#9ab799" stroke="#000000" stroke-width="2" d="M1150,-363C1150,-363 1681,-363 1681,-363 1687,-363 1693,-369 1693,-375 1693,-375 1693,-1553 1693,-1553 1693,-1559 1687,-1565 1681,-1565 1681,-1565 1150,-1565 1150,-1565 1144,-1565 1138,-1559 1138,-1553 1138,-1553 1138,-375 1138,-375 1138,-369 1144,-363 1150,-363"/>
<text text-anchor="middle" x="1415.5" y="-1549" font-family="SF Pro Text Bold 10" font-size="15.00">label %10</text>
<text text-anchor="middle" x="1415.5" y="-1532" font-family="SF Pro Text Bold 10" font-size="15.00">count=1</text>
</g>
<g id="clust11" class="cluster">
<title>cluster_func_1_bb_8</title>
<path fill="#56c7c3" stroke="#000000" stroke-width="2" d="M1743,-363C1743,-363 2063,-363 2063,-363 2069,-363 2075,-369 2075,-375 2075,-375 2075,-765 2075,-765 2075,-771 2069,-777 2063,-777 2063,-777 1743,-777 1743,-777 1737,-777 1731,-771 1731,-765 1731,-765 1731,-375 1731,-375 1731,-369 1737,-363 1743,-363"/>
<text text-anchor="middle" x="1903" y="-761" font-family="SF Pro Text Bold 10" font-size="15.00">label %17</text>
<text text-anchor="middle" x="1903" y="-744" font-family="SF Pro Text Bold 10" font-size="15.00">count=0</text>
</g>
<g id="clust12" class="cluster">
<title>cluster_func_1_bb_9</title>
<path fill="#9ab799" stroke="#000000" stroke-width="2" d="M1822,-16C1822,-16 1946,-16 1946,-16 1952,-16 1958,-22 1958,-28 1958,-28 1958,-287 1958,-287 1958,-293 1952,-299 1946,-299 1946,-299 1822,-299 1822,-299 1816,-299 1810,-293 1810,-287 1810,-287 1810,-28 1810,-28 1810,-22 1816,-16 1822,-16"/>
<text text-anchor="middle" x="1884" y="-283" font-family="SF Pro Text Bold 10" font-size="15.00">label %19</text>
<text text-anchor="middle" x="1884" y="-266" font-family="SF Pro Text Bold 10" font-size="15.00">count=1</text>
</g>
<!-- node_0 -->
<g id="node1" class="node">
<title>node_0</title>
<path fill="#6d95df" stroke="#000000" d="M1094,-2567C1094,-2567 1064,-2567 1064,-2567 1058,-2567 1052,-2561 1052,-2555 1052,-2555 1052,-2543 1052,-2543 1052,-2537 1058,-2531 1064,-2531 1064,-2531 1094,-2531 1094,-2531 1100,-2531 1106,-2537 1106,-2543 1106,-2543 1106,-2555 1106,-2555 1106,-2561 1100,-2567 1094,-2567"/>
<text text-anchor="middle" x="1079" y="-2545.5" font-family="SF Pro Text Bold 10" font-size="15.00" fill="#000000">br</text>
</g>
<!-- node_1 -->
<g id="node2" class="node">
<title>node_1</title>
<path fill="#6d95df" stroke="#000000" d="M583,-2367C583,-2367 553,-2367 553,-2367 547,-2367 541,-2361 541,-2355 541,-2355 541,-2343 541,-2343 541,-2337 547,-2331 553,-2331 553,-2331 583,-2331 583,-2331 589,-2331 595,-2337 595,-2343 595,-2343 595,-2355 595,-2355 595,-2361 589,-2367 583,-2367"/>
<text text-anchor="middle" x="568" y="-2345.5" font-family="SF Pro Text Bold 10" font-size="15.00" fill="#000000">phi</text>
</g>
<!-- node_0&#45;&gt;node_1 -->
<g id="edge19" class="edge">
<title>node_0&#45;&gt;node_1</title>
<path fill="none" stroke="#ff8800" stroke-width="5" d="M1070.29,-2530.92C1059.25,-2511.38 1038.21,-2480.36 1010,-2467 989.36,-2457.22 617.09,-2472.94 599,-2459 574.46,-2440.09 568.38,-2403.19 567.34,-2377.59"/>
<polygon fill="#ff8800" stroke="#ff8800" stroke-width="5" points="571.71,-2377.32 567.16,-2367.4 562.96,-2377.48 571.71,-2377.32"/>
<text text-anchor="middle" x="1037" y="-2472" font-family="SF Pro Text Bold 10" font-size="15.00">1</text>
</g>
<!-- node_0&#45;&gt;node_1 -->
<g id="edge32" class="edge">
<title>node_0&#45;&gt;node_1</title>
<path fill="none" stroke="#00b3ff" stroke-width="2" d="M1051.88,-2543.78C952.92,-2528.28 616.1,-2474.57 599,-2459 576.32,-2438.35 569.76,-2402.42 568.11,-2377.48"/>
<polygon fill="#00b3ff" stroke="#00b3ff" stroke-width="2" points="571.59,-2377.05 567.66,-2367.22 564.6,-2377.36 571.59,-2377.05"/>
<text text-anchor="middle" x="717.5" y="-2472" font-family="SF Pro Text Bold 10" font-size="15.00">i64 1</text>
</g>
<!-- node_2 -->
<g id="node3" class="node">
<title>node_2</title>
<path fill="#6d95df" stroke="#000000" d="M426,-2167C426,-2167 396,-2167 396,-2167 390,-2167 384,-2161 384,-2155 384,-2155 384,-2143 384,-2143 384,-2137 390,-2131 396,-2131 396,-2131 426,-2131 426,-2131 432,-2131 438,-2137 438,-2143 438,-2143 438,-2155 438,-2155 438,-2161 432,-2167 426,-2167"/>
<text text-anchor="middle" x="411" y="-2145.5" font-family="SF Pro Text Bold 10" font-size="15.00" fill="#000000">phi</text>
</g>
<!-- node_0&#45;&gt;node_2 -->
<g id="edge37" class="edge">
<title>node_0&#45;&gt;node_2</title>
<path fill="none" stroke="#00b3ff" stroke-width="2" d="M1051.75,-2543.63C1019.24,-2538.47 963.21,-2529.73 915,-2523 813,-2508.77 531,-2529.58 456,-2459 377.05,-2384.7 393.99,-2237.9 405.18,-2177.23"/>
<polygon fill="#00b3ff" stroke="#00b3ff" stroke-width="2" points="408.65,-2177.75 407.11,-2167.27 401.77,-2176.42 408.65,-2177.75"/>
<text text-anchor="middle" x="482.5" y="-2345.5" font-family="SF Pro Text Bold 10" font-size="15.00">i64 %0</text>
</g>
<!-- node_1&#45;&gt;node_2 -->
<g id="edge1" class="edge">
<title>node_1&#45;&gt;node_2</title>
<path fill="none" stroke="#ff3636" stroke-width="3" d="M540.74,-2341.33C512.06,-2332.86 467.7,-2315.44 443,-2284 418.76,-2253.15 412.44,-2206.81 411.04,-2177.51"/>
<polygon fill="#ff3636" stroke="#ff3636" stroke-width="3" points="414.52,-2177.06 410.71,-2167.18 407.53,-2177.28 414.52,-2177.06"/>
</g>
<!-- node_6 -->
<g id="node8" class="node">
<title>node_6</title>
<path fill="#6d95df" stroke="#000000" d="M868,-2167C868,-2167 838,-2167 838,-2167 832,-2167 826,-2161 826,-2155 826,-2155 826,-2143 826,-2143 826,-2137 832,-2131 838,-2131 838,-2131 868,-2131 868,-2131 874,-2131 880,-2137 880,-2143 880,-2143 880,-2155 880,-2155 880,-2161 874,-2167 868,-2167"/>
<text text-anchor="middle" x="853" y="-2145.5" font-family="SF Pro Text Bold 10" font-size="15.00" fill="#000000">mul</text>
</g>
<!-- node_1&#45;&gt;node_6 -->
<g id="edge31" class="edge">
<title>node_1&#45;&gt;node_6</title>
<path fill="none" stroke="#00b3ff" stroke-width="2" d="M595.3,-2332.81C596.54,-2332.19 597.78,-2331.58 599,-2331 667.04,-2298.61 685.9,-2294.64 756,-2267 765.29,-2263.34 769.13,-2265.15 777,-2259 805.57,-2236.69 827.7,-2200.7 840.54,-2176.23"/>
<polygon fill="#00b3ff" stroke="#00b3ff" stroke-width="2" points="843.74,-2177.65 845.15,-2167.15 837.5,-2174.48 843.74,-2177.65"/>
<text text-anchor="middle" x="767.5" y="-2272" font-family="SF Pro Text Bold 10" font-size="15.00">%3</text>
</g>
<!-- node_8 -->
<g id="node11" class="node">
<title>node_8</title>
<path fill="#6d95df" stroke="#000000" d="M212,-1673C212,-1673 182,-1673 182,-1673 176,-1673 170,-1667 170,-1661 170,-1661 170,-1649 170,-1649 170,-1643 176,-1637 182,-1637 182,-1637 212,-1637 212,-1637 218,-1637 224,-1643 224,-1649 224,-1649 224,-1661 224,-1661 224,-1667 218,-1673 212,-1673"/>
<text text-anchor="middle" x="197" y="-1651.5" font-family="SF Pro Text Bold 10" font-size="15.00" fill="#000000">ret</text>
</g>
<!-- node_1&#45;&gt;node_8 -->
<g id="edge30" class="edge">
<title>node_1&#45;&gt;node_8</title>
<path fill="none" stroke="#00b3ff" stroke-width="2" d="M595.14,-2332.43C596.43,-2331.91 597.72,-2331.43 599,-2331 733.57,-2285.71 802.67,-2370.85 915,-2284 966.2,-2244.41 972,-2214.72 972,-2150 972,-2150 972,-2150 972,-1854 972,-1851.59 388.42,-1704.27 234.08,-1665.35"/>
<polygon fill="#00b3ff" stroke="#00b3ff" stroke-width="2" points="234.68,-1661.89 224.13,-1662.84 232.97,-1668.68 234.68,-1661.89"/>
<text text-anchor="middle" x="983.5" y="-1998.5" font-family="SF Pro Text Bold 10" font-size="15.00">%3</text>
</g>
<!-- node_3 -->
<g id="node4" class="node">
<title>node_3</title>
<path fill="#6d95df" stroke="#000000" d="M112,-2020C112,-2020 82,-2020 82,-2020 76,-2020 70,-2014 70,-2008 70,-2008 70,-1996 70,-1996 70,-1990 76,-1984 82,-1984 82,-1984 112,-1984 112,-1984 118,-1984 124,-1990 124,-1996 124,-1996 124,-2008 124,-2008 124,-2014 118,-2020 112,-2020"/>
<text text-anchor="middle" x="97" y="-1998.5" font-family="SF Pro Text Bold 10" font-size="15.00" fill="#000000">icmp</text>
</g>
<!-- node_2&#45;&gt;node_3 -->
<g id="edge2" class="edge">
<title>node_2&#45;&gt;node_3</title>
<path fill="none" stroke="#ff3636" stroke-width="3" d="M383.98,-2135.26C373.81,-2130.86 362.05,-2126.24 351,-2123 255.71,-2095.07 208.56,-2146.01 131,-2084 126.43,-2080.35 115.12,-2051.95 106.79,-2029.8"/>
<polygon fill="#ff3636" stroke="#ff3636" stroke-width="3" points="109.98,-2028.33 103.21,-2020.18 103.41,-2030.77 109.98,-2028.33"/>
</g>
<!-- node_2&#45;&gt;node_3 -->
<g id="edge34" class="edge">
<title>node_2&#45;&gt;node_3</title>
<path fill="none" stroke="#00b3ff" stroke-width="2" d="M383.73,-2134.94C373.64,-2130.57 361.99,-2126.04 351,-2123 292.99,-2106.97 122.37,-2129.52 83,-2084 70.08,-2069.06 75.22,-2046.61 82.67,-2029.13"/>
<polygon fill="#00b3ff" stroke="#00b3ff" stroke-width="2" points="85.87,-2030.55 86.94,-2020.01 79.53,-2027.58 85.87,-2030.55"/>
<text text-anchor="middle" x="95" y="-2072" font-family="SF Pro Text Bold 10" font-size="15.00">%4</text>
</g>
<!-- node_5 -->
<g id="node7" class="node">
<title>node_5</title>
<path fill="#6d95df" stroke="#000000" d="M702,-2367C702,-2367 672,-2367 672,-2367 666,-2367 660,-2361 660,-2355 660,-2355 660,-2343 660,-2343 660,-2337 666,-2331 672,-2331 672,-2331 702,-2331 702,-2331 708,-2331 714,-2337 714,-2343 714,-2343 714,-2355 714,-2355 714,-2361 708,-2367 702,-2367"/>
<text text-anchor="middle" x="687" y="-2345.5" font-family="SF Pro Text Bold 10" font-size="15.00" fill="#000000">add</text>
</g>
<!-- node_2&#45;&gt;node_5 -->
<g id="edge36" class="edge">
<title>node_2&#45;&gt;node_5</title>
<path fill="none" stroke="#00b3ff" stroke-width="2" d="M419.31,-2167.24C431.36,-2190.7 455.71,-2232.77 487,-2259 536.07,-2300.14 607.18,-2325.68 650.07,-2338.33"/>
<polygon fill="#00b3ff" stroke="#00b3ff" stroke-width="2" points="649.24,-2341.74 659.81,-2341.13 651.17,-2335.01 649.24,-2341.74"/>
<text text-anchor="middle" x="532" y="-2272" font-family="SF Pro Text Bold 10" font-size="15.00">%4</text>
</g>
<!-- node_2&#45;&gt;node_6 -->
<g id="edge35" class="edge">
<title>node_2&#45;&gt;node_6</title>
<path fill="none" stroke="#00b3ff" stroke-width="2" d="M418.55,-2167.2C429.59,-2191.08 452.62,-2231.95 487,-2249 544.73,-2277.64 719.27,-2277.64 777,-2249 807.35,-2233.94 828.86,-2200.33 841.07,-2176.23"/>
<polygon fill="#00b3ff" stroke="#00b3ff" stroke-width="2" points="844.24,-2177.72 845.45,-2167.2 837.94,-2174.67 844.24,-2177.72"/>
<text text-anchor="middle" x="687" y="-2272" font-family="SF Pro Text Bold 10" font-size="15.00">%4</text>
</g>
<!-- node_4 -->
<g id="node5" class="node">
<title>node_4</title>
<path fill="#6d95df" stroke="#000000" d="M212,-1873C212,-1873 182,-1873 182,-1873 176,-1873 170,-1867 170,-1861 170,-1861 170,-1849 170,-1849 170,-1843 176,-1837 182,-1837 182,-1837 212,-1837 212,-1837 218,-1837 224,-1843 224,-1849 224,-1849 224,-1861 224,-1861 224,-1867 218,-1873 212,-1873"/>
<text text-anchor="middle" x="197" y="-1851.5" font-family="SF Pro Text Bold 10" font-size="15.00" fill="#000000">br</text>
</g>
<!-- node_3&#45;&gt;node_4 -->
<g id="edge3" class="edge">
<title>node_3&#45;&gt;node_4</title>
<path fill="none" stroke="#ff3636" stroke-width="3" d="M93.9,-1983.95C91.66,-1966.65 90.73,-1939.69 102,-1920 114.93,-1897.4 139.49,-1881.17 160.4,-1870.72"/>
<polygon fill="#ff3636" stroke="#ff3636" stroke-width="3" points="162.15,-1873.76 169.69,-1866.31 159.16,-1867.43 162.15,-1873.76"/>
</g>
<!-- node_3&#45;&gt;node_4 -->
<g id="edge39" class="edge">
<title>node_3&#45;&gt;node_4</title>
<path fill="none" stroke="#00b3ff" stroke-width="2" d="M108.86,-1983.8C126.31,-1958.51 158.99,-1911.11 179.28,-1881.69"/>
<polygon fill="#00b3ff" stroke="#00b3ff" stroke-width="2" points="182.36,-1883.4 185.15,-1873.18 176.59,-1879.43 182.36,-1883.4"/>
<text text-anchor="middle" x="161.5" y="-1925" font-family="SF Pro Text Bold 10" font-size="15.00">%5</text>
</g>
<!-- node_4&#45;&gt;node_5 -->
<g id="edge21" class="edge">
<title>node_4&#45;&gt;node_5</title>
<path fill="none" stroke="#ff8800" stroke-width="5" d="M195.77,-1873.31C191.19,-1942.92 178,-2201.44 230,-2259 347.87,-2389.46 447.19,-2293.66 619,-2331 629.17,-2333.21 640.13,-2335.84 650.22,-2338.36"/>
<polygon fill="#ff8800" stroke="#ff8800" stroke-width="5" points="649.19,-2342.61 659.96,-2340.83 651.34,-2334.13 649.19,-2342.61"/>
<text text-anchor="middle" x="197" y="-2072" font-family="SF Pro Text Bold 10" font-size="15.00">3</text>
</g>
<!-- node_4&#45;&gt;node_8 -->
<g id="edge22" class="edge">
<title>node_4&#45;&gt;node_8</title>
<path fill="none" stroke="#ff8800" stroke-width="5" d="M197,-1836.78C197,-1802.31 197,-1724.65 197,-1683.22"/>
<polygon fill="#ff8800" stroke="#ff8800" stroke-width="5" points="201.38,-1683.04 197,-1673.04 192.63,-1683.04 201.38,-1683.04"/>
<text text-anchor="middle" x="201" y="-1778" font-family="SF Pro Text Bold 10" font-size="15.00">1</text>
</g>
<!-- node_28 -->
<g id="node6" class="node">
<title>node_28</title>
<path fill="#d66868" stroke="#000000" d="M307,-2167C307,-2167 275,-2167 275,-2167 269,-2167 263,-2161 263,-2155 263,-2155 263,-2143 263,-2143 263,-2137 269,-2131 275,-2131 275,-2131 307,-2131 307,-2131 313,-2131 319,-2137 319,-2143 319,-2143 319,-2155 319,-2155 319,-2161 313,-2167 307,-2167"/>
<text text-anchor="middle" x="291" y="-2145.5" font-family="SF Pro Text Bold 10" font-size="15.00" fill="#000000">i64 2</text>
</g>
<!-- node_28&#45;&gt;node_3 -->
<g id="edge40" class="edge">
<title>node_28&#45;&gt;node_3</title>
<path fill="none" stroke="#00b3ff" stroke-width="2" d="M262.67,-2145.37C201.18,-2139.03 58.72,-2120.62 30,-2084 13.65,-2063.15 37.39,-2039.9 61.01,-2023.68"/>
<polygon fill="#00b3ff" stroke="#00b3ff" stroke-width="2" points="63.18,-2026.44 69.63,-2018.04 59.34,-2020.58 63.18,-2026.44"/>
</g>
<!-- node_5&#45;&gt;node_2 -->
<g id="edge41" class="edge">
<title>node_5&#45;&gt;node_2</title>
<path fill="none" stroke="#00b3ff" stroke-width="2" d="M714.17,-2339.74C754.6,-2326.17 822.82,-2297.61 793,-2267 781.13,-2254.82 501.97,-2267.06 487,-2259 454.22,-2241.35 432.57,-2202.63 421.04,-2176.43"/>
<polygon fill="#00b3ff" stroke="#00b3ff" stroke-width="2" points="424.21,-2174.94 417.11,-2167.07 417.75,-2177.64 424.21,-2174.94"/>
<text text-anchor="middle" x="811" y="-2272" font-family="SF Pro Text Bold 10" font-size="15.00">%7</text>
</g>
<!-- node_5&#45;&gt;node_6 -->
<g id="edge4" class="edge">
<title>node_5&#45;&gt;node_6</title>
<path fill="none" stroke="#ff3636" stroke-width="3" d="M714.09,-2348.46C758.39,-2347.55 845.36,-2338.48 885,-2284 908.37,-2251.89 887.96,-2205.07 870.74,-2176.12"/>
<polygon fill="#ff3636" stroke="#ff3636" stroke-width="3" points="873.56,-2174.04 865.31,-2167.39 867.62,-2177.73 873.56,-2174.04"/>
</g>
<!-- node_6&#45;&gt;node_1 -->
<g id="edge43" class="edge">
<title>node_6&#45;&gt;node_1</title>
<path fill="none" stroke="#00b3ff" stroke-width="2" d="M846.64,-2167.34C836.36,-2192.59 813.46,-2238.65 777,-2259 749.4,-2274.4 663.21,-2252.74 635,-2267 611.48,-2278.89 593.18,-2303.13 581.69,-2322.01"/>
<polygon fill="#00b3ff" stroke="#00b3ff" stroke-width="2" points="578.6,-2320.36 576.61,-2330.77 584.66,-2323.88 578.6,-2320.36"/>
<text text-anchor="middle" x="647" y="-2272" font-family="SF Pro Text Bold 10" font-size="15.00">%8</text>
</g>
<!-- node_7 -->
<g id="node9" class="node">
<title>node_7</title>
<path fill="#6d95df" stroke="#000000" d="M661,-2020C661,-2020 631,-2020 631,-2020 625,-2020 619,-2014 619,-2008 619,-2008 619,-1996 619,-1996 619,-1990 625,-1984 631,-1984 631,-1984 661,-1984 661,-1984 667,-1984 673,-1990 673,-1996 673,-1996 673,-2008 673,-2008 673,-2014 667,-2020 661,-2020"/>
<text text-anchor="middle" x="646" y="-1998.5" font-family="SF Pro Text Bold 10" font-size="15.00" fill="#000000">br</text>
</g>
<!-- node_6&#45;&gt;node_7 -->
<g id="edge5" class="edge">
<title>node_6&#45;&gt;node_7</title>
<path fill="none" stroke="#ff3636" stroke-width="3" d="M828.44,-2130.8C791.25,-2104.74 720.57,-2055.23 678.95,-2026.08"/>
<polygon fill="#ff3636" stroke="#ff3636" stroke-width="3" points="680.73,-2023.05 670.53,-2020.18 676.71,-2028.78 680.73,-2023.05"/>
</g>
<!-- node_7&#45;&gt;node_1 -->
<g id="edge20" class="edge">
<title>node_7&#45;&gt;node_1</title>
<path fill="none" stroke="#ff8800" stroke-width="5" d="M639.96,-2020.02C625.5,-2061.57 588.92,-2171.79 573,-2267 570.04,-2284.73 568.78,-2304.9 568.27,-2320.68"/>
<polygon fill="#ff8800" stroke="#ff8800" stroke-width="5" points="563.9,-2320.71 568.03,-2330.82 572.64,-2320.93 563.9,-2320.71"/>
<text text-anchor="middle" x="611" y="-2145.5" font-family="SF Pro Text Bold 10" font-size="15.00">3</text>
</g>
<!-- node_7&#45;&gt;node_1 -->
<g id="edge33" class="edge">
<title>node_7&#45;&gt;node_1</title>
<path fill="none" stroke="#00b3ff" stroke-width="2" d="M651.3,-2020.15C664.1,-2065.32 691.45,-2188.9 632,-2259 621.4,-2271.5 608.23,-2256.09 596,-2267 580.76,-2280.6 573.81,-2302.9 570.64,-2320.67"/>
<polygon fill="#00b3ff" stroke="#00b3ff" stroke-width="2" points="567.15,-2320.36 569.15,-2330.77 574.08,-2321.38 567.15,-2320.36"/>
<text text-anchor="middle" x="694.5" y="-2145.5" font-family="SF Pro Text Bold 10" font-size="15.00">i64 %8</text>
</g>
<!-- node_7&#45;&gt;node_2 -->
<g id="edge38" class="edge">
<title>node_7&#45;&gt;node_2</title>
<path fill="none" stroke="#00b3ff" stroke-width="2" d="M618.71,-2018.19C617.46,-2018.82 616.22,-2019.42 615,-2020 564.75,-2043.86 546,-2037.24 499,-2067 474.2,-2082.7 449.96,-2105.76 433.22,-2123.26"/>
<polygon fill="#00b3ff" stroke="#00b3ff" stroke-width="2" points="430.37,-2121.18 426.08,-2130.87 435.48,-2125.97 430.37,-2121.18"/>
<text text-anchor="middle" x="525" y="-2072" font-family="SF Pro Text Bold 10" font-size="15.00">i64 %7</text>
</g>
<!-- node_29 -->
<g id="node10" class="node">
<title>node_29</title>
<path fill="#d66868" stroke="#000000" d="M705.5,-2567C705.5,-2567 668.5,-2567 668.5,-2567 662.5,-2567 656.5,-2561 656.5,-2555 656.5,-2555 656.5,-2543 656.5,-2543 656.5,-2537 662.5,-2531 668.5,-2531 668.5,-2531 705.5,-2531 705.5,-2531 711.5,-2531 717.5,-2537 717.5,-2543 717.5,-2543 717.5,-2555 717.5,-2555 717.5,-2561 711.5,-2567 705.5,-2567"/>
<text text-anchor="middle" x="687" y="-2545.5" font-family="SF Pro Text Bold 10" font-size="15.00" fill="#000000">i64 &#45;1</text>
</g>
<!-- node_29&#45;&gt;node_5 -->
<g id="edge42" class="edge">
<title>node_29&#45;&gt;node_5</title>
<path fill="none" stroke="#00b3ff" stroke-width="2" d="M687,-2530.78C687,-2496.31 687,-2418.65 687,-2377.22"/>
<polygon fill="#00b3ff" stroke="#00b3ff" stroke-width="2" points="690.5,-2377.04 687,-2367.04 683.5,-2377.04 690.5,-2377.04"/>
</g>
<!-- node_9 -->
<g id="node12" class="node">
<title>node_9</title>
<path fill="#6d95df" stroke="#000000" d="M2148,-2367C2148,-2367 2118,-2367 2118,-2367 2112,-2367 2106,-2361 2106,-2355 2106,-2355 2106,-2343 2106,-2343 2106,-2337 2112,-2331 2118,-2331 2118,-2331 2148,-2331 2148,-2331 2154,-2331 2160,-2337 2160,-2343 2160,-2343 2160,-2355 2160,-2355 2160,-2361 2154,-2367 2148,-2367"/>
<text text-anchor="middle" x="2133" y="-2345.5" font-family="SF Pro Text Bold 10" font-size="15.00" fill="#000000">icmp</text>
</g>
<!-- node_10 -->
<g id="node13" class="node">
<title>node_10</title>
<path fill="#6d95df" stroke="#000000" d="M2148,-2167C2148,-2167 2118,-2167 2118,-2167 2112,-2167 2106,-2161 2106,-2155 2106,-2155 2106,-2143 2106,-2143 2106,-2137 2112,-2131 2118,-2131 2118,-2131 2148,-2131 2148,-2131 2154,-2131 2160,-2137 2160,-2143 2160,-2143 2160,-2155 2160,-2155 2160,-2161 2154,-2167 2148,-2167"/>
<text text-anchor="middle" x="2133" y="-2145.5" font-family="SF Pro Text Bold 10" font-size="15.00" fill="#000000">br</text>
</g>
<!-- node_9&#45;&gt;node_10 -->
<g id="edge6" class="edge">
<title>node_9&#45;&gt;node_10</title>
<path fill="none" stroke="#ff3636" stroke-width="3" d="M2133,-2330.78C2133,-2296.31 2133,-2218.65 2133,-2177.22"/>
<polygon fill="#ff3636" stroke="#ff3636" stroke-width="3" points="2136.5,-2177.04 2133,-2167.04 2129.5,-2177.04 2136.5,-2177.04"/>
</g>
<!-- node_9&#45;&gt;node_10 -->
<g id="edge44" class="edge">
<title>node_9&#45;&gt;node_10</title>
<path fill="none" stroke="#00b3ff" stroke-width="2" d="M2133.68,-2330.89C2134.16,-2318 2134.75,-2299.89 2135,-2284 2135.57,-2247.2 2134.68,-2204.71 2133.9,-2177.61"/>
<polygon fill="#00b3ff" stroke="#00b3ff" stroke-width="2" points="2137.39,-2177.24 2133.6,-2167.35 2130.4,-2177.45 2137.39,-2177.24"/>
<text text-anchor="middle" x="2146.5" y="-2272" font-family="SF Pro Text Bold 10" font-size="15.00">%3</text>
</g>
<!-- node_11 -->
<g id="node16" class="node">
<title>node_11</title>
<path fill="#6d95df" stroke="#000000" d="M2148,-538C2148,-538 2118,-538 2118,-538 2112,-538 2106,-532 2106,-526 2106,-526 2106,-514 2106,-514 2106,-508 2112,-502 2118,-502 2118,-502 2148,-502 2148,-502 2154,-502 2160,-508 2160,-514 2160,-514 2160,-526 2160,-526 2160,-532 2154,-538 2148,-538"/>
<text text-anchor="middle" x="2133" y="-516.5" font-family="SF Pro Text Bold 10" font-size="15.00" fill="#000000">call</text>
</g>
<!-- node_10&#45;&gt;node_11 -->
<g id="edge23" class="edge">
<title>node_10&#45;&gt;node_11</title>
<path fill="none" stroke="#ff8800" stroke-width="5" d="M2133,-2130.59C2133,-2103.37 2133,-2049.07 2133,-2003 2133,-2003 2133,-2003 2133,-666 2133,-625.15 2133,-577.83 2133,-548.65"/>
<polygon fill="#ff8800" stroke="#ff8800" stroke-width="5" points="2137.38,-548.41 2133,-538.41 2128.63,-548.41 2137.38,-548.41"/>
<text text-anchor="middle" x="2138.5" y="-1304.5" font-family="SF Pro Text Bold 10" font-size="15.00">0</text>
</g>
<!-- node_13 -->
<g id="node20" class="node">
<title>node_13</title>
<path fill="#6d95df" stroke="#000000" d="M2055,-2020C2055,-2020 2025,-2020 2025,-2020 2019,-2020 2013,-2014 2013,-2008 2013,-2008 2013,-1996 2013,-1996 2013,-1990 2019,-1984 2025,-1984 2025,-1984 2055,-1984 2055,-1984 2061,-1984 2067,-1990 2067,-1996 2067,-1996 2067,-2008 2067,-2008 2067,-2014 2061,-2020 2055,-2020"/>
<text text-anchor="middle" x="2040" y="-1998.5" font-family="SF Pro Text Bold 10" font-size="15.00" fill="#000000">call</text>
</g>
<!-- node_10&#45;&gt;node_13 -->
<g id="edge24" class="edge">
<title>node_10&#45;&gt;node_13</title>
<path fill="none" stroke="#ff8800" stroke-width="5" d="M2121.97,-2130.8C2105.75,-2105.51 2075.35,-2058.11 2056.48,-2028.69"/>
<polygon fill="#ff8800" stroke="#ff8800" stroke-width="5" points="2060.1,-2026.24 2051.02,-2020.18 2052.74,-2030.96 2060.1,-2026.24"/>
<text text-anchor="middle" x="2093" y="-2072" font-family="SF Pro Text Bold 10" font-size="15.00">1</text>
</g>
<!-- node_30 -->
<g id="node14" class="node">
<title>node_30</title>
<path fill="#d66868" stroke="#000000" d="M2270,-2567C2270,-2567 2226,-2567 2226,-2567 2220,-2567 2214,-2561 2214,-2555 2214,-2555 2214,-2543 2214,-2543 2214,-2537 2220,-2531 2226,-2531 2226,-2531 2270,-2531 2270,-2531 2276,-2531 2282,-2537 2282,-2543 2282,-2543 2282,-2555 2282,-2555 2282,-2561 2276,-2567 2270,-2567"/>
<text text-anchor="middle" x="2248" y="-2545.5" font-family="SF Pro Text Bold 10" font-size="15.00" fill="#000000">i32 %0</text>
</g>
<!-- node_30&#45;&gt;node_9 -->
<g id="edge45" class="edge">
<title>node_30&#45;&gt;node_9</title>
<path fill="none" stroke="#00b3ff" stroke-width="2" d="M2238,-2530.78C2217.77,-2495.95 2171.91,-2416.99 2148.05,-2375.91"/>
<polygon fill="#00b3ff" stroke="#00b3ff" stroke-width="2" points="2150.95,-2373.93 2142.9,-2367.04 2144.9,-2377.45 2150.95,-2373.93"/>
<text text-anchor="middle" x="2222" y="-2472" font-family="SF Pro Text Bold 10" font-size="15.00">%0</text>
</g>
<!-- node_31 -->
<g id="node15" class="node">
<title>node_31</title>
<path fill="#d66868" stroke="#000000" d="M2137,-2567C2137,-2567 2107,-2567 2107,-2567 2101,-2567 2095,-2561 2095,-2555 2095,-2555 2095,-2543 2095,-2543 2095,-2537 2101,-2531 2107,-2531 2107,-2531 2137,-2531 2137,-2531 2143,-2531 2149,-2537 2149,-2543 2149,-2543 2149,-2555 2149,-2555 2149,-2561 2143,-2567 2137,-2567"/>
<text text-anchor="middle" x="2122" y="-2545.5" font-family="SF Pro Text Bold 10" font-size="15.00" fill="#000000">i32 2</text>
</g>
<!-- node_31&#45;&gt;node_9 -->
<g id="edge46" class="edge">
<title>node_31&#45;&gt;node_9</title>
<path fill="none" stroke="#00b3ff" stroke-width="2" d="M2122.96,-2530.78C2124.87,-2496.31 2129.19,-2418.65 2131.49,-2377.22"/>
<polygon fill="#00b3ff" stroke="#00b3ff" stroke-width="2" points="2134.99,-2377.22 2132.05,-2367.04 2128,-2376.83 2134.99,-2377.22"/>
</g>
<!-- node_12 -->
<g id="node17" class="node">
<title>node_12</title>
<path fill="#6d95df" stroke="#000000" d="M2133,-407C2133,-407 2103,-407 2103,-407 2097,-407 2091,-401 2091,-395 2091,-395 2091,-383 2091,-383 2091,-377 2097,-371 2103,-371 2103,-371 2133,-371 2133,-371 2139,-371 2145,-377 2145,-383 2145,-383 2145,-395 2145,-395 2145,-401 2139,-407 2133,-407"/>
<text text-anchor="middle" x="2118" y="-385.5" font-family="SF Pro Text Bold 10" font-size="15.00" fill="#000000">br</text>
</g>
<!-- node_11&#45;&gt;node_12 -->
<g id="edge7" class="edge">
<title>node_11&#45;&gt;node_12</title>
<path fill="none" stroke="#ff3636" stroke-width="3" d="M2131.01,-501.87C2128.5,-480.28 2124.15,-442.91 2121.18,-417.35"/>
<polygon fill="#ff3636" stroke="#ff3636" stroke-width="3" points="2124.63,-416.73 2120,-407.2 2117.68,-417.54 2124.63,-416.73"/>
</g>
<!-- node_26 -->
<g id="node43" class="node">
<title>node_26</title>
<path fill="#6d95df" stroke="#000000" d="M1860,-207C1860,-207 1830,-207 1830,-207 1824,-207 1818,-201 1818,-195 1818,-195 1818,-183 1818,-183 1818,-177 1824,-171 1830,-171 1830,-171 1860,-171 1860,-171 1866,-171 1872,-177 1872,-183 1872,-183 1872,-195 1872,-195 1872,-201 1866,-207 1860,-207"/>
<text text-anchor="middle" x="1845" y="-185.5" font-family="SF Pro Text Bold 10" font-size="15.00" fill="#000000">phi</text>
</g>
<!-- node_12&#45;&gt;node_26 -->
<g id="edge27" class="edge">
<title>node_12&#45;&gt;node_26</title>
<path fill="none" stroke="#ff8800" stroke-width="5" d="M2097.12,-370.89C2093.76,-368.22 2090.3,-365.51 2087,-363 2076.96,-355.37 1941.38,-258.68 1877.66,-213.27"/>
<polygon fill="#ff8800" stroke="#ff8800" stroke-width="5" points="1879.85,-209.46 1869.16,-207.22 1874.77,-216.58 1879.85,-209.46"/>
<text text-anchor="middle" x="2033.5" y="-312" font-family="SF Pro Text Bold 10" font-size="15.00">0</text>
</g>
<!-- node_12&#45;&gt;node_26 -->
<g id="edge70" class="edge">
<title>node_12&#45;&gt;node_26</title>
<path fill="none" stroke="#00b3ff" stroke-width="2" d="M2105.53,-370.71C2092.34,-353.23 2070.26,-326.12 2047,-307 1994.32,-263.69 1923.62,-226.77 1881.35,-206.55"/>
<polygon fill="#00b3ff" stroke="#00b3ff" stroke-width="2" points="1882.8,-203.36 1872.26,-202.25 1879.81,-209.69 1882.8,-203.36"/>
<text text-anchor="middle" x="2082" y="-312" font-family="SF Pro Text Bold 10" font-size="15.00">i32 1</text>
</g>
<!-- node_32 -->
<g id="node18" class="node">
<title>node_32</title>
<path fill="#d66868" stroke="#000000" d="M2436,-685C2436,-685 2368,-685 2368,-685 2362,-685 2356,-679 2356,-673 2356,-673 2356,-661 2356,-661 2356,-655 2362,-649 2368,-649 2368,-649 2436,-649 2436,-649 2442,-649 2448,-655 2448,-661 2448,-661 2448,-673 2448,-673 2448,-679 2442,-685 2436,-685"/>
<text text-anchor="middle" x="2402" y="-663.5" font-family="SF Pro Text Bold 10" font-size="15.00" fill="#000000">ptr @str.2</text>
</g>
<!-- node_32&#45;&gt;node_11 -->
<g id="edge47" class="edge">
<title>node_32&#45;&gt;node_11</title>
<path fill="none" stroke="#00b3ff" stroke-width="2" d="M2370.35,-648.94C2320.04,-621.82 2222.11,-569.03 2169.12,-540.47"/>
<polygon fill="#00b3ff" stroke="#00b3ff" stroke-width="2" points="2170.55,-537.26 2160.09,-535.6 2167.23,-543.43 2170.55,-537.26"/>
</g>
<!-- node_33 -->
<g id="node19" class="node">
<title>node_33</title>
<path fill="#d66868" stroke="#000000" d="M2278.5,-685C2278.5,-685 2211.5,-685 2211.5,-685 2205.5,-685 2199.5,-679 2199.5,-673 2199.5,-673 2199.5,-661 2199.5,-661 2199.5,-655 2205.5,-649 2211.5,-649 2211.5,-649 2278.5,-649 2278.5,-649 2284.5,-649 2290.5,-655 2290.5,-661 2290.5,-661 2290.5,-673 2290.5,-673 2290.5,-679 2284.5,-685 2278.5,-685"/>
<text text-anchor="middle" x="2245" y="-663.5" font-family="SF Pro Text Bold 10" font-size="15.00" fill="#000000">ptr @puts</text>
</g>
<!-- node_33&#45;&gt;node_11 -->
<g id="edge48" class="edge">
<title>node_33&#45;&gt;node_11</title>
<path fill="none" stroke="#00b3ff" stroke-width="2" d="M2231.71,-648.8C2212.09,-623.4 2175.26,-575.71 2152.55,-546.31"/>
<polygon fill="#00b3ff" stroke="#00b3ff" stroke-width="2" points="2155.15,-543.95 2146.27,-538.18 2149.61,-548.23 2155.15,-543.95"/>
</g>
<!-- node_14 -->
<g id="node21" class="node">
<title>node_14</title>
<path fill="#6d95df" stroke="#000000" d="M1927,-1873C1927,-1873 1897,-1873 1897,-1873 1891,-1873 1885,-1867 1885,-1861 1885,-1861 1885,-1849 1885,-1849 1885,-1843 1891,-1837 1897,-1837 1897,-1837 1927,-1837 1927,-1837 1933,-1837 1939,-1843 1939,-1849 1939,-1849 1939,-1861 1939,-1861 1939,-1867 1933,-1873 1927,-1873"/>
<text text-anchor="middle" x="1912" y="-1851.5" font-family="SF Pro Text Bold 10" font-size="15.00" fill="#000000">load</text>
</g>
<!-- node_13&#45;&gt;node_14 -->
<g id="edge8" class="edge">
<title>node_13&#45;&gt;node_14</title>
<path fill="none" stroke="#ff3636" stroke-width="3" d="M2012.6,-1988.19C1991.64,-1977.18 1963.31,-1959.53 1945,-1937 1932.15,-1921.19 1923.71,-1899.71 1918.58,-1882.84"/>
<polygon fill="#ff3636" stroke="#ff3636" stroke-width="3" points="1921.89,-1881.69 1915.81,-1873.02 1915.16,-1883.6 1921.89,-1881.69"/>
</g>
<!-- node_13&#45;&gt;node_14 -->
<g id="edge49" class="edge">
<title>node_13&#45;&gt;node_14</title>
<path fill="none" stroke="#00b3ff" stroke-width="2" d="M2024.81,-1983.8C2002.3,-1958.29 1959.93,-1910.3 1934.01,-1880.93"/>
<polygon fill="#00b3ff" stroke="#00b3ff" stroke-width="2" points="1936.41,-1878.36 1927.17,-1873.18 1931.16,-1882.99 1936.41,-1878.36"/>
<text text-anchor="middle" x="1990" y="-1925" font-family="SF Pro Text Bold 10" font-size="15.00">%7</text>
</g>
<!-- node_15 -->
<g id="node22" class="node">
<title>node_15</title>
<path fill="#6d95df" stroke="#000000" d="M1897,-1673C1897,-1673 1867,-1673 1867,-1673 1861,-1673 1855,-1667 1855,-1661 1855,-1661 1855,-1649 1855,-1649 1855,-1643 1861,-1637 1867,-1637 1867,-1637 1897,-1637 1897,-1637 1903,-1637 1909,-1643 1909,-1649 1909,-1649 1909,-1661 1909,-1661 1909,-1667 1903,-1673 1897,-1673"/>
<text text-anchor="middle" x="1882" y="-1651.5" font-family="SF Pro Text Bold 10" font-size="15.00" fill="#000000">icmp</text>
</g>
<!-- node_14&#45;&gt;node_15 -->
<g id="edge9" class="edge">
<title>node_14&#45;&gt;node_15</title>
<path fill="none" stroke="#ff3636" stroke-width="3" d="M1911.68,-1836.86C1911.2,-1820.42 1910,-1794.92 1907,-1773 1902.75,-1741.95 1894.82,-1706.85 1889.03,-1683.27"/>
<polygon fill="#ff3636" stroke="#ff3636" stroke-width="3" points="1892.36,-1682.15 1886.54,-1673.3 1885.57,-1683.85 1892.36,-1682.15"/>
</g>
<!-- node_14&#45;&gt;node_15 -->
<g id="edge51" class="edge">
<title>node_14&#45;&gt;node_15</title>
<path fill="none" stroke="#00b3ff" stroke-width="2" d="M1895.87,-1836.81C1885.7,-1824.73 1873.48,-1807.64 1868,-1790 1856.86,-1754.15 1865.19,-1710.58 1872.96,-1683.06"/>
<polygon fill="#00b3ff" stroke="#00b3ff" stroke-width="2" points="1876.35,-1683.94 1875.87,-1673.35 1869.65,-1681.93 1876.35,-1683.94"/>
<text text-anchor="middle" x="1880" y="-1778" font-family="SF Pro Text Bold 10" font-size="15.00">%8</text>
</g>
<!-- node_16 -->
<g id="node23" class="node">
<title>node_16</title>
<path fill="#6d95df" stroke="#000000" d="M1781,-1473C1781,-1473 1751,-1473 1751,-1473 1745,-1473 1739,-1467 1739,-1461 1739,-1461 1739,-1449 1739,-1449 1739,-1443 1745,-1437 1751,-1437 1751,-1437 1781,-1437 1781,-1437 1787,-1437 1793,-1443 1793,-1449 1793,-1449 1793,-1461 1793,-1461 1793,-1467 1787,-1473 1781,-1473"/>
<text text-anchor="middle" x="1766" y="-1451.5" font-family="SF Pro Text Bold 10" font-size="15.00" fill="#000000">br</text>
</g>
<!-- node_15&#45;&gt;node_16 -->
<g id="edge10" class="edge">
<title>node_15&#45;&gt;node_16</title>
<path fill="none" stroke="#ff3636" stroke-width="3" d="M1854.63,-1640.75C1835.02,-1629.84 1809.58,-1612.5 1795,-1590 1773.89,-1557.41 1767.91,-1511.93 1766.34,-1483.23"/>
<polygon fill="#ff3636" stroke="#ff3636" stroke-width="3" points="1769.84,-1482.97 1765.94,-1473.11 1762.84,-1483.25 1769.84,-1482.97"/>
</g>
<!-- node_15&#45;&gt;node_16 -->
<g id="edge52" class="edge">
<title>node_15&#45;&gt;node_16</title>
<path fill="none" stroke="#00b3ff" stroke-width="2" d="M1871.91,-1636.78C1851.5,-1601.95 1805.25,-1522.99 1781.18,-1481.91"/>
<polygon fill="#00b3ff" stroke="#00b3ff" stroke-width="2" points="1784.06,-1479.9 1775.99,-1473.04 1778.02,-1483.44 1784.06,-1479.9"/>
<text text-anchor="middle" x="1856" y="-1578" font-family="SF Pro Text Bold 10" font-size="15.00">%9</text>
</g>
<!-- node_17 -->
<g id="node26" class="node">
<title>node_17</title>
<path fill="#6d95df" stroke="#000000" d="M1672.5,-1326C1672.5,-1326 1571.5,-1326 1571.5,-1326 1565.5,-1326 1559.5,-1320 1559.5,-1314 1559.5,-1314 1559.5,-1302 1559.5,-1302 1559.5,-1296 1565.5,-1290 1571.5,-1290 1571.5,-1290 1672.5,-1290 1672.5,-1290 1678.5,-1290 1684.5,-1296 1684.5,-1302 1684.5,-1302 1684.5,-1314 1684.5,-1314 1684.5,-1320 1678.5,-1326 1672.5,-1326"/>
<text text-anchor="middle" x="1622" y="-1304.5" font-family="SF Pro Text Bold 10" font-size="15.00" fill="#000000">getelementptr</text>
</g>
<!-- node_16&#45;&gt;node_17 -->
<g id="edge25" class="edge">
<title>node_16&#45;&gt;node_17</title>
<path fill="none" stroke="#ff8800" stroke-width="5" d="M1748.92,-1436.8C1723.48,-1411.18 1675.51,-1362.89 1646.39,-1333.56"/>
<polygon fill="#ff8800" stroke="#ff8800" stroke-width="5" points="1649.21,-1330.19 1639.06,-1326.18 1643,-1336.36 1649.21,-1330.19"/>
<text text-anchor="middle" x="1702" y="-1378" font-family="SF Pro Text Bold 10" font-size="15.00">1</text>
</g>
<!-- node_24 -->
<g id="node39" class="node">
<title>node_24</title>
<path fill="#6d95df" stroke="#000000" d="M1781,-538C1781,-538 1751,-538 1751,-538 1745,-538 1739,-532 1739,-526 1739,-526 1739,-514 1739,-514 1739,-508 1745,-502 1751,-502 1751,-502 1781,-502 1781,-502 1787,-502 1793,-508 1793,-514 1793,-514 1793,-526 1793,-526 1793,-532 1787,-538 1781,-538"/>
<text text-anchor="middle" x="1766" y="-516.5" font-family="SF Pro Text Bold 10" font-size="15.00" fill="#000000">call</text>
</g>
<!-- node_16&#45;&gt;node_24 -->
<g id="edge26" class="edge">
<title>node_16&#45;&gt;node_24</title>
<path fill="none" stroke="#ff8800" stroke-width="5" d="M1766,-1436.59C1766,-1409.37 1766,-1355.07 1766,-1309 1766,-1309 1766,-1309 1766,-666 1766,-625.15 1766,-577.83 1766,-548.65"/>
<polygon fill="#ff8800" stroke="#ff8800" stroke-width="5" points="1770.38,-548.41 1766,-538.41 1761.63,-548.41 1770.38,-548.41"/>
<text text-anchor="middle" x="1771.5" y="-1010.5" font-family="SF Pro Text Bold 10" font-size="15.00">0</text>
</g>
<!-- node_34 -->
<g id="node24" class="node">
<title>node_34</title>
<path fill="#d66868" stroke="#000000" d="M2028.5,-2167C2028.5,-2167 1873.5,-2167 1873.5,-2167 1867.5,-2167 1861.5,-2161 1861.5,-2155 1861.5,-2155 1861.5,-2143 1861.5,-2143 1861.5,-2137 1867.5,-2131 1873.5,-2131 1873.5,-2131 2028.5,-2131 2028.5,-2131 2034.5,-2131 2040.5,-2137 2040.5,-2143 2040.5,-2143 2040.5,-2155 2040.5,-2155 2040.5,-2161 2034.5,-2167 2028.5,-2167"/>
<text text-anchor="middle" x="1951" y="-2145.5" font-family="SF Pro Text Bold 10" font-size="15.00" fill="#000000">ptr @__errno_location</text>
</g>
<!-- node_34&#45;&gt;node_13 -->
<g id="edge50" class="edge">
<title>node_34&#45;&gt;node_13</title>
<path fill="none" stroke="#00b3ff" stroke-width="2" d="M1960.63,-2130.77C1969.95,-2114.26 1984.59,-2088.72 1998,-2067 2005.9,-2054.21 2015.02,-2040.22 2022.74,-2028.59"/>
<polygon fill="#00b3ff" stroke="#00b3ff" stroke-width="2" points="2025.69,-2030.48 2028.33,-2020.22 2019.87,-2026.59 2025.69,-2030.48"/>
</g>
<!-- node_35 -->
<g id="node25" class="node">
<title>node_35</title>
<path fill="#d66868" stroke="#000000" d="M2047.5,-1873C2047.5,-1873 2016.5,-1873 2016.5,-1873 2010.5,-1873 2004.5,-1867 2004.5,-1861 2004.5,-1861 2004.5,-1849 2004.5,-1849 2004.5,-1843 2010.5,-1837 2016.5,-1837 2016.5,-1837 2047.5,-1837 2047.5,-1837 2053.5,-1837 2059.5,-1843 2059.5,-1849 2059.5,-1849 2059.5,-1861 2059.5,-1861 2059.5,-1867 2053.5,-1873 2047.5,-1873"/>
<text text-anchor="middle" x="2032" y="-1851.5" font-family="SF Pro Text Bold 10" font-size="15.00" fill="#000000">i32 0</text>
</g>
<!-- node_35&#45;&gt;node_15 -->
<g id="edge53" class="edge">
<title>node_35&#45;&gt;node_15</title>
<path fill="none" stroke="#00b3ff" stroke-width="2" d="M2018.95,-1836.78C1992.4,-1801.73 1931.99,-1721.99 1901.05,-1681.14"/>
<polygon fill="#00b3ff" stroke="#00b3ff" stroke-width="2" points="1903.74,-1678.9 1894.91,-1673.04 1898.16,-1683.13 1903.74,-1678.9"/>
</g>
<!-- node_18 -->
<g id="node27" class="node">
<title>node_18</title>
<path fill="#6d95df" stroke="#000000" d="M1560,-1179C1560,-1179 1530,-1179 1530,-1179 1524,-1179 1518,-1173 1518,-1167 1518,-1167 1518,-1155 1518,-1155 1518,-1149 1524,-1143 1530,-1143 1530,-1143 1560,-1143 1560,-1143 1566,-1143 1572,-1149 1572,-1155 1572,-1155 1572,-1167 1572,-1167 1572,-1173 1566,-1179 1560,-1179"/>
<text text-anchor="middle" x="1545" y="-1157.5" font-family="SF Pro Text Bold 10" font-size="15.00" fill="#000000">load</text>
</g>
<!-- node_17&#45;&gt;node_18 -->
<g id="edge11" class="edge">
<title>node_17&#45;&gt;node_18</title>
<path fill="none" stroke="#ff3636" stroke-width="3" d="M1593.76,-1289.96C1577.93,-1278.75 1559.51,-1262.55 1550,-1243 1541.91,-1226.37 1540.8,-1205.5 1541.64,-1189.11"/>
<polygon fill="#ff3636" stroke="#ff3636" stroke-width="3" points="1545.13,-1189.32 1542.42,-1179.08 1538.16,-1188.78 1545.13,-1189.32"/>
</g>
<!-- node_17&#45;&gt;node_18 -->
<g id="edge54" class="edge">
<title>node_17&#45;&gt;node_18</title>
<path fill="none" stroke="#00b3ff" stroke-width="2" d="M1612.86,-1289.8C1599.49,-1264.62 1574.48,-1217.52 1558.85,-1188.07"/>
<polygon fill="#00b3ff" stroke="#00b3ff" stroke-width="2" points="1561.9,-1186.37 1554.12,-1179.18 1555.72,-1189.65 1561.9,-1186.37"/>
<text text-anchor="middle" x="1599" y="-1231" font-family="SF Pro Text Bold 10" font-size="15.00">%11</text>
</g>
<!-- node_19 -->
<g id="node28" class="node">
<title>node_19</title>
<path fill="#6d95df" stroke="#000000" d="M1422,-1032C1422,-1032 1392,-1032 1392,-1032 1386,-1032 1380,-1026 1380,-1020 1380,-1020 1380,-1008 1380,-1008 1380,-1002 1386,-996 1392,-996 1392,-996 1422,-996 1422,-996 1428,-996 1434,-1002 1434,-1008 1434,-1008 1434,-1020 1434,-1020 1434,-1026 1428,-1032 1422,-1032"/>
<text text-anchor="middle" x="1407" y="-1010.5" font-family="SF Pro Text Bold 10" font-size="15.00" fill="#000000">call</text>
</g>
<!-- node_18&#45;&gt;node_19 -->
<g id="edge12" class="edge">
<title>node_18&#45;&gt;node_19</title>
<path fill="none" stroke="#ff3636" stroke-width="3" d="M1517.87,-1146.77C1497,-1135.53 1468.52,-1117.78 1449,-1096 1434.69,-1080.02 1423.76,-1058.28 1416.65,-1041.35"/>
<polygon fill="#ff3636" stroke="#ff3636" stroke-width="3" points="1419.87,-1039.99 1412.9,-1032.01 1413.38,-1042.6 1419.87,-1039.99"/>
</g>
<!-- node_18&#45;&gt;node_19 -->
<g id="edge57" class="edge">
<title>node_18&#45;&gt;node_19</title>
<path fill="none" stroke="#00b3ff" stroke-width="2" d="M1528.63,-1142.8C1504.25,-1117.18 1458.28,-1068.89 1430.37,-1039.56"/>
<polygon fill="#00b3ff" stroke="#00b3ff" stroke-width="2" points="1432.78,-1037.01 1423.35,-1032.18 1427.71,-1041.84 1432.78,-1037.01"/>
<text text-anchor="middle" x="1495.5" y="-1084" font-family="SF Pro Text Bold 10" font-size="15.00">%12</text>
</g>
<!-- node_20 -->
<g id="node29" class="node">
<title>node_20</title>
<path fill="#6d95df" stroke="#000000" d="M1350,-885C1350,-885 1320,-885 1320,-885 1314,-885 1308,-879 1308,-873 1308,-873 1308,-861 1308,-861 1308,-855 1314,-849 1320,-849 1320,-849 1350,-849 1350,-849 1356,-849 1362,-855 1362,-861 1362,-861 1362,-873 1362,-873 1362,-879 1356,-885 1350,-885"/>
<text text-anchor="middle" x="1335" y="-863.5" font-family="SF Pro Text Bold 10" font-size="15.00" fill="#000000">sext</text>
</g>
<!-- node_19&#45;&gt;node_20 -->
<g id="edge13" class="edge">
<title>node_19&#45;&gt;node_20</title>
<path fill="none" stroke="#ff3636" stroke-width="3" d="M1381.03,-995.79C1366.22,-984.42 1348.88,-968.11 1340,-949 1332.21,-932.23 1331.09,-911.36 1331.85,-895.01"/>
<polygon fill="#ff3636" stroke="#ff3636" stroke-width="3" points="1335.35,-895.23 1332.57,-885 1328.36,-894.73 1335.35,-895.23"/>
</g>
<!-- node_19&#45;&gt;node_20 -->
<g id="edge58" class="edge">
<title>node_19&#45;&gt;node_20</title>
<path fill="none" stroke="#00b3ff" stroke-width="2" d="M1398.46,-995.8C1386.01,-970.72 1362.77,-923.93 1348.14,-894.46"/>
<polygon fill="#00b3ff" stroke="#00b3ff" stroke-width="2" points="1351.11,-892.58 1343.53,-885.18 1344.84,-895.69 1351.11,-892.58"/>
<text text-anchor="middle" x="1388.5" y="-937" font-family="SF Pro Text Bold 10" font-size="15.00">%13</text>
</g>
<!-- node_21 -->
<g id="node30" class="node">
<title>node_21</title>
<path fill="#6d95df" stroke="#000000" d="M1349,-685C1349,-685 1319,-685 1319,-685 1313,-685 1307,-679 1307,-673 1307,-673 1307,-661 1307,-661 1307,-655 1313,-649 1319,-649 1319,-649 1349,-649 1349,-649 1355,-649 1361,-655 1361,-661 1361,-661 1361,-673 1361,-673 1361,-679 1355,-685 1349,-685"/>
<text text-anchor="middle" x="1334" y="-663.5" font-family="SF Pro Text Bold 10" font-size="15.00" fill="#000000">call</text>
</g>
<!-- node_20&#45;&gt;node_21 -->
<g id="edge14" class="edge">
<title>node_20&#45;&gt;node_21</title>
<path fill="none" stroke="#ff3636" stroke-width="3" d="M1334.91,-848.78C1334.74,-814.31 1334.35,-736.65 1334.14,-695.22"/>
<polygon fill="#ff3636" stroke="#ff3636" stroke-width="3" points="1337.64,-695.03 1334.09,-685.04 1330.64,-695.06 1337.64,-695.03"/>
</g>
<!-- node_20&#45;&gt;node_21 -->
<g id="edge61" class="edge">
<title>node_20&#45;&gt;node_21</title>
<path fill="none" stroke="#00b3ff" stroke-width="2" d="M1335.34,-848.89C1335.58,-836 1335.88,-817.89 1336,-802 1336.29,-765.19 1335.46,-722.7 1334.78,-695.61"/>
<polygon fill="#00b3ff" stroke="#00b3ff" stroke-width="2" points="1338.27,-695.25 1334.51,-685.35 1331.27,-695.43 1338.27,-695.25"/>
<text text-anchor="middle" x="1351.5" y="-790" font-family="SF Pro Text Bold 10" font-size="15.00">%14</text>
</g>
<!-- node_22 -->
<g id="node31" class="node">
<title>node_22</title>
<path fill="#6d95df" stroke="#000000" d="M1462,-538C1462,-538 1432,-538 1432,-538 1426,-538 1420,-532 1420,-526 1420,-526 1420,-514 1420,-514 1420,-508 1426,-502 1432,-502 1432,-502 1462,-502 1462,-502 1468,-502 1474,-508 1474,-514 1474,-514 1474,-526 1474,-526 1474,-532 1468,-538 1462,-538"/>
<text text-anchor="middle" x="1447" y="-516.5" font-family="SF Pro Text Bold 10" font-size="15.00" fill="#000000">call</text>
</g>
<!-- node_20&#45;&gt;node_22 -->
<g id="edge60" class="edge">
<title>node_20&#45;&gt;node_22</title>
<path fill="none" stroke="#00b3ff" stroke-width="2" d="M1308.16,-848.89C1286.28,-833.2 1256.94,-807.76 1244,-777 1221.94,-724.56 1219.67,-700.43 1244,-649 1275.58,-582.23 1360.78,-546.55 1410.18,-530.92"/>
<polygon fill="#00b3ff" stroke="#00b3ff" stroke-width="2" points="1411.31,-534.24 1419.86,-527.98 1409.27,-527.54 1411.31,-534.24"/>
<text text-anchor="middle" x="1259.5" y="-663.5" font-family="SF Pro Text Bold 10" font-size="15.00">%14</text>
</g>
<!-- node_21&#45;&gt;node_0 -->
<g id="edge63" class="edge">
<title>node_21&#45;&gt;node_0</title>
<path fill="none" stroke="#ff8800" stroke-width="5" stroke-dasharray="5,2" d="M1327.26,-685.17C1315.04,-716.96 1289.31,-787.4 1276,-849 1131.49,-1517.88 1087.51,-2359.34 1080.18,-2520.6"/>
<polygon fill="#ff8800" stroke="#ff8800" stroke-width="5" points="1075.8,-2520.45 1079.73,-2530.63 1084.55,-2520.84 1075.8,-2520.45"/>
<text text-anchor="middle" x="1162" y="-1578" font-family="SF Pro Text Bold 10" font-size="15.00">1</text>
</g>
<!-- node_21&#45;&gt;node_22 -->
<g id="edge15" class="edge">
<title>node_21&#45;&gt;node_22</title>
<path fill="none" stroke="#ff3636" stroke-width="3" d="M1351.05,-649C1363.27,-636.46 1379.83,-618.75 1393,-602 1406.93,-584.29 1420.99,-563.06 1431.28,-546.78"/>
<polygon fill="#ff3636" stroke="#ff3636" stroke-width="3" points="1434.25,-548.63 1436.58,-538.29 1428.31,-544.92 1434.25,-548.63"/>
</g>
<!-- node_21&#45;&gt;node_22 -->
<g id="edge62" class="edge">
<title>node_21&#45;&gt;node_22</title>
<path fill="none" stroke="#00b3ff" stroke-width="2" d="M1332.58,-648.74C1331.99,-631.28 1333.52,-604.19 1346,-585 1361.25,-561.55 1388.43,-545.05 1410.75,-534.69"/>
<polygon fill="#00b3ff" stroke="#00b3ff" stroke-width="2" points="1412.24,-537.86 1419.97,-530.62 1409.41,-531.45 1412.24,-537.86"/>
<text text-anchor="middle" x="1361.5" y="-590" font-family="SF Pro Text Bold 10" font-size="15.00">%15</text>
</g>
<!-- node_23 -->
<g id="node32" class="node">
<title>node_23</title>
<path fill="#6d95df" stroke="#000000" d="M1673,-407C1673,-407 1643,-407 1643,-407 1637,-407 1631,-401 1631,-395 1631,-395 1631,-383 1631,-383 1631,-377 1637,-371 1643,-371 1643,-371 1673,-371 1673,-371 1679,-371 1685,-377 1685,-383 1685,-383 1685,-395 1685,-395 1685,-401 1679,-407 1673,-407"/>
<text text-anchor="middle" x="1658" y="-385.5" font-family="SF Pro Text Bold 10" font-size="15.00" fill="#000000">br</text>
</g>
<!-- node_22&#45;&gt;node_23 -->
<g id="edge16" class="edge">
<title>node_22&#45;&gt;node_23</title>
<path fill="none" stroke="#ff3636" stroke-width="3" d="M1474.15,-502.4C1511.9,-479.32 1580.3,-437.51 1622.18,-411.9"/>
<polygon fill="#ff3636" stroke="#ff3636" stroke-width="3" points="1624.25,-414.74 1630.95,-406.54 1620.59,-408.77 1624.25,-414.74"/>
</g>
<!-- node_23&#45;&gt;node_26 -->
<g id="edge28" class="edge">
<title>node_23&#45;&gt;node_26</title>
<path fill="none" stroke="#ff8800" stroke-width="5" d="M1654.01,-370.95C1650.92,-353.66 1648.83,-326.7 1660,-307 1692.15,-250.3 1764.27,-217.05 1808.37,-201.29"/>
<polygon fill="#ff8800" stroke="#ff8800" stroke-width="5" points="1809.84,-205.41 1817.86,-198.01 1806.98,-197.14 1809.84,-205.41"/>
<text text-anchor="middle" x="1664" y="-312" font-family="SF Pro Text Bold 10" font-size="15.00">1</text>
</g>
<!-- node_23&#45;&gt;node_26 -->
<g id="edge71" class="edge">
<title>node_23&#45;&gt;node_26</title>
<path fill="none" stroke="#00b3ff" stroke-width="2" d="M1674.27,-370.78C1707.58,-335.51 1783.62,-254.99 1821.98,-214.38"/>
<polygon fill="#00b3ff" stroke="#00b3ff" stroke-width="2" points="1824.58,-216.72 1828.9,-207.04 1819.49,-211.91 1824.58,-216.72"/>
<text text-anchor="middle" x="1748.5" y="-312" font-family="SF Pro Text Bold 10" font-size="15.00">i32 0</text>
</g>
<!-- node_36 -->
<g id="node33" class="node">
<title>node_36</title>
<path fill="#d66868" stroke="#000000" d="M1656.5,-1473C1656.5,-1473 1617.5,-1473 1617.5,-1473 1611.5,-1473 1605.5,-1467 1605.5,-1461 1605.5,-1461 1605.5,-1449 1605.5,-1449 1605.5,-1443 1611.5,-1437 1617.5,-1437 1617.5,-1437 1656.5,-1437 1656.5,-1437 1662.5,-1437 1668.5,-1443 1668.5,-1449 1668.5,-1449 1668.5,-1461 1668.5,-1461 1668.5,-1467 1662.5,-1473 1656.5,-1473"/>
<text text-anchor="middle" x="1637" y="-1451.5" font-family="SF Pro Text Bold 10" font-size="15.00" fill="#000000">ptr %1</text>
</g>
<!-- node_36&#45;&gt;node_17 -->
<g id="edge55" class="edge">
<title>node_36&#45;&gt;node_17</title>
<path fill="none" stroke="#00b3ff" stroke-width="2" d="M1635.22,-1436.8C1632.65,-1411.94 1627.87,-1365.74 1624.82,-1336.23"/>
<polygon fill="#00b3ff" stroke="#00b3ff" stroke-width="2" points="1628.29,-1335.77 1623.78,-1326.18 1621.32,-1336.49 1628.29,-1335.77"/>
<text text-anchor="middle" x="1639.5" y="-1378" font-family="SF Pro Text Bold 10" font-size="15.00">%1</text>
</g>
<!-- node_37 -->
<g id="node34" class="node">
<title>node_37</title>
<path fill="#d66868" stroke="#000000" d="M1528,-1473C1528,-1473 1498,-1473 1498,-1473 1492,-1473 1486,-1467 1486,-1461 1486,-1461 1486,-1449 1486,-1449 1486,-1443 1492,-1437 1498,-1437 1498,-1437 1528,-1437 1528,-1437 1534,-1437 1540,-1443 1540,-1449 1540,-1449 1540,-1461 1540,-1461 1540,-1467 1534,-1473 1528,-1473"/>
<text text-anchor="middle" x="1513" y="-1451.5" font-family="SF Pro Text Bold 10" font-size="15.00" fill="#000000">i64 1</text>
</g>
<!-- node_37&#45;&gt;node_17 -->
<g id="edge56" class="edge">
<title>node_37&#45;&gt;node_17</title>
<path fill="none" stroke="#00b3ff" stroke-width="2" d="M1525.93,-1436.8C1545.03,-1411.4 1580.88,-1363.71 1602.97,-1334.31"/>
<polygon fill="#00b3ff" stroke="#00b3ff" stroke-width="2" points="1605.87,-1336.28 1609.09,-1326.18 1600.28,-1332.07 1605.87,-1336.28"/>
</g>
<!-- node_38 -->
<g id="node35" class="node">
<title>node_38</title>
<path fill="#d66868" stroke="#000000" d="M1438,-1179C1438,-1179 1376,-1179 1376,-1179 1370,-1179 1364,-1173 1364,-1167 1364,-1167 1364,-1155 1364,-1155 1364,-1149 1370,-1143 1376,-1143 1376,-1143 1438,-1143 1438,-1143 1444,-1143 1450,-1149 1450,-1155 1450,-1155 1450,-1167 1450,-1167 1450,-1173 1444,-1179 1438,-1179"/>
<text text-anchor="middle" x="1407" y="-1157.5" font-family="SF Pro Text Bold 10" font-size="15.00" fill="#000000">ptr @atoi</text>
</g>
<!-- node_38&#45;&gt;node_19 -->
<g id="edge59" class="edge">
<title>node_38&#45;&gt;node_19</title>
<path fill="none" stroke="#00b3ff" stroke-width="2" d="M1407,-1142.8C1407,-1117.94 1407,-1071.74 1407,-1042.23"/>
<polygon fill="#00b3ff" stroke="#00b3ff" stroke-width="2" points="1410.5,-1042.18 1407,-1032.18 1403.5,-1042.18 1410.5,-1042.18"/>
</g>
<!-- node_39 -->
<g id="node36" class="node">
<title>node_39</title>
<path fill="#d66868" stroke="#000000" d="M1502.5,-885C1502.5,-885 1439.5,-885 1439.5,-885 1433.5,-885 1427.5,-879 1427.5,-873 1427.5,-873 1427.5,-861 1427.5,-861 1427.5,-855 1433.5,-849 1439.5,-849 1439.5,-849 1502.5,-849 1502.5,-849 1508.5,-849 1514.5,-855 1514.5,-861 1514.5,-861 1514.5,-873 1514.5,-873 1514.5,-879 1508.5,-885 1502.5,-885"/>
<text text-anchor="middle" x="1471" y="-863.5" font-family="SF Pro Text Bold 10" font-size="15.00" fill="#000000">ptr @fact</text>
</g>
<!-- node_39&#45;&gt;node_21 -->
<g id="edge64" class="edge">
<title>node_39&#45;&gt;node_21</title>
<path fill="none" stroke="#00b3ff" stroke-width="2" d="M1454.21,-848.83C1437.77,-831.54 1412.56,-803.66 1394,-777 1375.32,-750.17 1357.75,-716.95 1346.51,-694.29"/>
<polygon fill="#00b3ff" stroke="#00b3ff" stroke-width="2" points="1349.64,-692.72 1342.1,-685.27 1343.35,-695.79 1349.64,-692.72"/>
</g>
<!-- node_40 -->
<g id="node37" class="node">
<title>node_40</title>
<path fill="#d66868" stroke="#000000" d="M1673,-685C1673,-685 1603,-685 1603,-685 1597,-685 1591,-679 1591,-673 1591,-673 1591,-661 1591,-661 1591,-655 1597,-649 1603,-649 1603,-649 1673,-649 1673,-649 1679,-649 1685,-655 1685,-661 1685,-661 1685,-673 1685,-673 1685,-679 1679,-685 1673,-685"/>
<text text-anchor="middle" x="1638" y="-663.5" font-family="SF Pro Text Bold 10" font-size="15.00" fill="#000000">ptr @.str.1</text>
</g>
<!-- node_40&#45;&gt;node_22 -->
<g id="edge65" class="edge">
<title>node_40&#45;&gt;node_22</title>
<path fill="none" stroke="#00b3ff" stroke-width="2" d="M1615.34,-648.8C1581.16,-622.85 1516.35,-573.65 1477.88,-544.44"/>
<polygon fill="#00b3ff" stroke="#00b3ff" stroke-width="2" points="1479.71,-541.44 1469.63,-538.18 1475.48,-547.01 1479.71,-541.44"/>
</g>
<!-- node_41 -->
<g id="node38" class="node">
<title>node_41</title>
<path fill="#d66868" stroke="#000000" d="M1514,-685C1514,-685 1438,-685 1438,-685 1432,-685 1426,-679 1426,-673 1426,-673 1426,-661 1426,-661 1426,-655 1432,-649 1438,-649 1438,-649 1514,-649 1514,-649 1520,-649 1526,-655 1526,-661 1526,-661 1526,-673 1526,-673 1526,-679 1520,-685 1514,-685"/>
<text text-anchor="middle" x="1476" y="-663.5" font-family="SF Pro Text Bold 10" font-size="15.00" fill="#000000">ptr @printf</text>
</g>
<!-- node_41&#45;&gt;node_22 -->
<g id="edge66" class="edge">
<title>node_41&#45;&gt;node_22</title>
<path fill="none" stroke="#00b3ff" stroke-width="2" d="M1472.56,-648.8C1467.59,-623.94 1458.35,-577.74 1452.45,-548.23"/>
<polygon fill="#00b3ff" stroke="#00b3ff" stroke-width="2" points="1455.83,-547.3 1450.44,-538.18 1448.97,-548.67 1455.83,-547.3"/>
</g>
<!-- node_25 -->
<g id="node40" class="node">
<title>node_25</title>
<path fill="#6d95df" stroke="#000000" d="M1860,-407C1860,-407 1830,-407 1830,-407 1824,-407 1818,-401 1818,-395 1818,-395 1818,-383 1818,-383 1818,-377 1824,-371 1830,-371 1830,-371 1860,-371 1860,-371 1866,-371 1872,-377 1872,-383 1872,-383 1872,-395 1872,-395 1872,-401 1866,-407 1860,-407"/>
<text text-anchor="middle" x="1845" y="-385.5" font-family="SF Pro Text Bold 10" font-size="15.00" fill="#000000">br</text>
</g>
<!-- node_24&#45;&gt;node_25 -->
<g id="edge17" class="edge">
<title>node_24&#45;&gt;node_25</title>
<path fill="none" stroke="#ff3636" stroke-width="3" d="M1776.49,-501.87C1789.95,-479.9 1813.42,-441.57 1829.08,-415.99"/>
<polygon fill="#ff3636" stroke="#ff3636" stroke-width="3" points="1832.23,-417.56 1834.47,-407.2 1826.26,-413.9 1832.23,-417.56"/>
</g>
<!-- node_25&#45;&gt;node_26 -->
<g id="edge29" class="edge">
<title>node_25&#45;&gt;node_26</title>
<path fill="none" stroke="#ff8800" stroke-width="5" d="M1844.66,-370.89C1844.42,-358 1844.12,-339.89 1844,-324 1843.71,-287.2 1844.16,-244.71 1844.55,-217.61"/>
<polygon fill="#ff8800" stroke="#ff8800" stroke-width="5" points="1848.93,-217.41 1844.7,-207.35 1840.18,-217.28 1848.93,-217.41"/>
<text text-anchor="middle" x="1849.5" y="-312" font-family="SF Pro Text Bold 10" font-size="15.00">0</text>
</g>
<!-- node_25&#45;&gt;node_26 -->
<g id="edge72" class="edge">
<title>node_25&#45;&gt;node_26</title>
<path fill="none" stroke="#00b3ff" stroke-width="2" d="M1849.14,-370.74C1851.98,-357.93 1855.51,-339.98 1857,-324 1860.43,-287.04 1854.98,-244.34 1850.35,-217.26"/>
<polygon fill="#00b3ff" stroke="#00b3ff" stroke-width="2" points="1853.78,-216.57 1848.57,-207.35 1846.89,-217.81 1853.78,-216.57"/>
<text text-anchor="middle" x="1875" y="-312" font-family="SF Pro Text Bold 10" font-size="15.00">i32 1</text>
</g>
<!-- node_42 -->
<g id="node41" class="node">
<title>node_42</title>
<path fill="#d66868" stroke="#000000" d="M2055,-685C2055,-685 2001,-685 2001,-685 1995,-685 1989,-679 1989,-673 1989,-673 1989,-661 1989,-661 1989,-655 1995,-649 2001,-649 2001,-649 2055,-649 2055,-649 2061,-649 2067,-655 2067,-661 2067,-661 2067,-673 2067,-673 2067,-679 2061,-685 2055,-685"/>
<text text-anchor="middle" x="2028" y="-663.5" font-family="SF Pro Text Bold 10" font-size="15.00" fill="#000000">ptr @str</text>
</g>
<!-- node_42&#45;&gt;node_24 -->
<g id="edge67" class="edge">
<title>node_42&#45;&gt;node_24</title>
<path fill="none" stroke="#00b3ff" stroke-width="2" d="M1997.17,-648.94C1948.43,-621.96 1853.78,-569.58 1801.99,-540.92"/>
<polygon fill="#00b3ff" stroke="#00b3ff" stroke-width="2" points="1803.59,-537.8 1793.15,-536.02 1800.2,-543.93 1803.59,-537.8"/>
</g>
<!-- node_43 -->
<g id="node42" class="node">
<title>node_43</title>
<path fill="#d66868" stroke="#000000" d="M1911.5,-685C1911.5,-685 1844.5,-685 1844.5,-685 1838.5,-685 1832.5,-679 1832.5,-673 1832.5,-673 1832.5,-661 1832.5,-661 1832.5,-655 1838.5,-649 1844.5,-649 1844.5,-649 1911.5,-649 1911.5,-649 1917.5,-649 1923.5,-655 1923.5,-661 1923.5,-661 1923.5,-673 1923.5,-673 1923.5,-679 1917.5,-685 1911.5,-685"/>
<text text-anchor="middle" x="1878" y="-663.5" font-family="SF Pro Text Bold 10" font-size="15.00" fill="#000000">ptr @puts</text>
</g>
<!-- node_43&#45;&gt;node_24 -->
<g id="edge68" class="edge">
<title>node_43&#45;&gt;node_24</title>
<path fill="none" stroke="#00b3ff" stroke-width="2" d="M1864.71,-648.8C1845.09,-623.4 1808.26,-575.71 1785.55,-546.31"/>
<polygon fill="#00b3ff" stroke="#00b3ff" stroke-width="2" points="1788.15,-543.95 1779.27,-538.18 1782.61,-548.23 1788.15,-543.95"/>
</g>
<!-- node_27 -->
<g id="node44" class="node">
<title>node_27</title>
<path fill="#6d95df" stroke="#000000" d="M1860,-60C1860,-60 1830,-60 1830,-60 1824,-60 1818,-54 1818,-48 1818,-48 1818,-36 1818,-36 1818,-30 1824,-24 1830,-24 1830,-24 1860,-24 1860,-24 1866,-24 1872,-30 1872,-36 1872,-36 1872,-48 1872,-48 1872,-54 1866,-60 1860,-60"/>
<text text-anchor="middle" x="1845" y="-38.5" font-family="SF Pro Text Bold 10" font-size="15.00" fill="#000000">ret</text>
</g>
<!-- node_26&#45;&gt;node_27 -->
<g id="edge18" class="edge">
<title>node_26&#45;&gt;node_27</title>
<path fill="none" stroke="#ff3636" stroke-width="3" d="M1845,-170.8C1845,-145.94 1845,-99.74 1845,-70.23"/>
<polygon fill="#ff3636" stroke="#ff3636" stroke-width="3" points="1848.5,-70.18 1845,-60.18 1841.5,-70.18 1848.5,-70.18"/>
</g>
<!-- node_26&#45;&gt;node_27 -->
<g id="edge69" class="edge">
<title>node_26&#45;&gt;node_27</title>
<path fill="none" stroke="#00b3ff" stroke-width="2" d="M1845.68,-170.89C1846.16,-158 1846.75,-139.89 1847,-124 1847.28,-106.06 1846.78,-85.89 1846.22,-70.16"/>
<polygon fill="#00b3ff" stroke="#00b3ff" stroke-width="2" points="1849.71,-69.92 1845.82,-60.06 1842.72,-70.19 1849.71,-69.92"/>
<text text-anchor="middle" x="1864" y="-112" font-family="SF Pro Text Bold 10" font-size="15.00">%20</text>
</g>
</g>
</svg>
